<?xml version="1.0" encoding="utf-8"?>
<!-- Generator: Adobe Illustrator 22.0.0, SVG Export Plug-In . SVG Version: 6.00 Build 0)  -->
<svg version="1.1" id="图层_1" xmlns="http://www.w3.org/2000/svg" xmlns:xlink="http://www.w3.org/1999/xlink" x="0px" y="0px"
	 viewBox="0 0 84.7 183.5" style="enable-background:new 0 0 84.7 183.5;" xml:space="preserve">
<style type="text/css">
	.st0{fill:none;stroke:#000000;stroke-width:0.75;stroke-miterlimit:10;}
	.st1{fill:none;stroke:#BE4341;stroke-width:0.75;stroke-miterlimit:10;}
	.st2{fill:#5195CC;}
	.st3{fill:#323333;}
	.st4{fill:#F8D17B;}
	.st5{fill:#CBCBCC;}
	.st6{fill:#5E5B5A;}
	.st7{fill:#757575;}
	.st8{fill:#DBBF82;}
	.st9{fill:#595959;}
	.st10{fill:#B9BABA;}
	.st11{fill:#615F5F;}
	.st12{fill:#CCCCCC;}
	.st13{fill:#8D8D8E;}
	.st14{fill:#D3D4D4;}
	.st15{fill:#8B8B8B;}
	.st16{fill:#AAABAB;}
	.st17{fill:#FFFFFF;}
	.st18{fill:#D5D5D6;}
	.st19{fill:#969797;}
	.st20{fill:none;stroke:#FFFFFF;stroke-width:0.9628;stroke-linecap:round;stroke-miterlimit:10;}
	.st21{fill:none;stroke:#FFFFFF;stroke-width:0.9628;stroke-linecap:round;stroke-linejoin:round;stroke-miterlimit:10;}
	.st22{fill:none;stroke:#FFFFFF;stroke-width:0.4525;stroke-linecap:round;stroke-miterlimit:10;}
	.st23{fill:#747374;}
	.st24{fill:#0099D9;}
	.st25{fill:none;stroke:#000000;stroke-width:0.9117;stroke-miterlimit:10;}
	.st26{fill:#868687;}
	.st27{fill:#EFEFEF;}
	.st28{fill:#6EC9F1;}
	.st29{fill:#949494;}
	.st30{fill:#494645;}
	.st31{fill:#B1A186;}
	.st32{fill:#9C9C9C;}
	.st33{fill:#575757;}
	.st34{fill:#545454;}
	.st35{fill:#D1D1D1;}
	.st36{fill:#C9C9C9;}
	.st37{fill:#474747;}
	.st38{fill:#969696;}
	.st39{fill:#C4C4C4;}
	.st40{fill:none;stroke:#FFFFFF;stroke-width:0.2279;stroke-miterlimit:10;}
	.st41{fill:#807F80;}
	.st42{fill:#A2A2A2;}
	.st43{fill:#CBCCCC;}
	.st44{fill:none;stroke:#FFFFFF;stroke-width:0.4558;stroke-linecap:round;stroke-linejoin:round;stroke-miterlimit:10;}
	.st45{fill:none;}
	.st46{font-family:'MicrosoftYaHei';}
	.st47{font-size:9.1169px;}
	.st48{fill:#8C8A8A;}
	.st49{fill:#040000;}
	.st50{fill:#A9A9A8;}
	.st51{fill:#525151;}
	.st52{fill:#8C8C8C;}
	.st53{fill:none;stroke:#FFFFFF;stroke-width:0.3183;stroke-linecap:round;stroke-linejoin:round;stroke-miterlimit:10;}
	.st54{fill:#CECFCE;}
	.st55{fill:#282828;}
	.st56{fill:#557D4E;}
	.st57{fill:#83B27A;}
	.st58{fill:#ABA8A8;}
	.st59{fill:#757373;}
	.st60{fill:#898989;}
	.st61{fill:#A6D290;}
	.st62{fill:#666666;}
	.st63{fill:#C7C7C7;}
	.st64{fill:#EC6C6D;}
	.st65{fill:#1D1E1E;}
	.st66{fill:#E1E0E0;}
	.st67{fill:#BDBDBC;}
	.st68{fill:#686969;}
	.st69{fill:#B8B32E;}
	.st70{fill:#F3EC30;}
	.st71{fill:#FBFDFF;}
	.st72{fill:none;stroke:#F08318;stroke-width:10.9277;stroke-linecap:round;stroke-linejoin:round;stroke-miterlimit:10;}
	.st73{fill:#EBEBEC;}
	.st74{fill:#D7D7D8;}
	.st75{fill:#E9EAEA;}
	.st76{fill:#E7B47C;}
	.st77{fill:#E8E8E8;}
	.st78{fill:#003F88;}
	.st79{fill:#0054A7;}
	.st80{fill:#B7B8B8;}
	.st81{fill:#EED18B;}
	.st82{fill:#F5A200;}
	.st83{fill:#E0E0E0;}
	.st84{fill:none;stroke:#040000;stroke-miterlimit:10;}
	.st85{fill:none;stroke:#E72823;stroke-miterlimit:10;}
	.st86{fill:none;stroke:#6AB82D;stroke-miterlimit:10;}
	.st87{fill:#C4C6C6;}
	.st88{fill:#A0A0A1;}
	.st89{fill:#F2F2F2;}
	.st90{fill:#CFCFCF;}
	.st91{fill:none;stroke:#353535;stroke-width:0.146;stroke-miterlimit:10;}
	.st92{fill:none;stroke:#353535;stroke-width:6.315500e-02;stroke-miterlimit:10;}
	.st93{fill:none;stroke:#353535;stroke-width:5.568400e-02;stroke-miterlimit:10;}
	.st94{fill:#353535;}
	.st95{fill:none;stroke:#000000;stroke-width:7.298800e-02;stroke-miterlimit:10;}
	.st96{fill:#3E3F40;}
	.st97{fill:#FBD7AF;}
</style>
<rect x="-1.2" y="168.6" class="st2" width="86" height="14.9"/>
<rect x="0.7" y="171.8" class="st45" width="82" height="9.2"/>
<text transform="matrix(1 0 0 1 17.5726 179.6469)" class="st17 st46 st47">掌控扩展板 </text>
<g>
	<path class="st3" d="M76.6,39.4V23.3c0-2-1.7-3.7-3.7-3.7h-65c-2,0-3.7,1.7-3.7,3.7v116.4c0,2,1.7,3.7,3.7,3.7h65
		c2,0,3.7-1.7,3.7-3.7V49.3l-2.2-2.2l0,0h0v-5.7L76.6,39.4z M65,109c-0.1,0-0.3,0-0.4,0c-1.6-0.2-2.8-1.5-2.8-3.1
		c0-1.6,1.2-3,2.8-3.1c0.1,0,0.3,0,0.4,0c1.8,0,3.2,1.4,3.2,3.2C68.2,107.6,66.8,109,65,109z M65,96.9c-0.1,0-0.3,0-0.4,0
		c-1.6-0.2-2.8-1.5-2.8-3.1c0-1.6,1.2-3,2.8-3.1c0.1,0,0.3,0,0.4,0c1.8,0,3.2,1.4,3.2,3.2C68.2,95.5,66.8,96.9,65,96.9z M65,84.9
		c-0.1,0-0.3,0-0.4,0c-1.6-0.2-2.8-1.5-2.8-3.1c0-1.6,1.2-3,2.8-3.1c0.1,0,0.3,0,0.4,0c1.8,0,3.2,1.4,3.2,3.2
		C68.2,83.5,66.8,84.9,65,84.9z M65,72.8c-0.1,0-0.3,0-0.4,0c-1.6-0.2-2.8-1.5-2.8-3.1c0-1.6,1.2-3,2.8-3.1c0.1,0,0.3,0,0.4,0
		c1.8,0,3.2,1.4,3.2,3.2C68.2,71.4,66.8,72.8,65,72.8z M65,60.8c-0.1,0-0.3,0-0.4,0c-1.6-0.2-2.8-1.5-2.8-3.1c0-1.6,1.2-3,2.8-3.1
		c0.1,0,0.3,0,0.4,0c1.8,0,3.2,1.4,3.2,3.2C68.2,59.4,66.8,60.8,65,60.8z M15.2,115.6c-0.1,0-0.3,0-0.4,0c-1.8,0-3.2-1.4-3.2-3.2
		c0-1.8,1.4-3.2,3.2-3.2c0.1,0,0.3,0,0.4,0c1.6,0.2,2.8,1.5,2.8,3.1C18,114.1,16.7,115.4,15.2,115.6z M14.8,47.4c0.1,0,0.3,0,0.4,0
		c1.6,0.2,2.8,1.5,2.8,3.1s-1.2,3-2.8,3.1c-0.1,0-0.3,0-0.4,0c-1.8,0-3.2-1.4-3.2-3.2C11.6,48.8,13,47.4,14.8,47.4z M15.2,103.2
		c-0.1,0-0.3,0-0.4,0c-1.8,0-3.2-1.4-3.2-3.2c0-1.7,1.4-3.2,3.2-3.2c0.1,0,0.3,0,0.4,0c1.6,0.2,2.8,1.5,2.8,3.1S16.7,103,15.2,103.2
		z M15.2,90.8c-0.1,0-0.3,0-0.4,0c-1.8,0-3.2-1.4-3.2-3.2c0-1.8,1.4-3.2,3.2-3.2c0.1,0,0.3,0,0.4,0c1.6,0.2,2.8,1.5,2.8,3.1
		C18,89.3,16.7,90.6,15.2,90.8z M15.2,78.5c-0.1,0-0.3,0-0.4,0c-1.8,0-3.2-1.4-3.2-3.2c0-1.8,1.4-3.2,3.2-3.2c0.1,0,0.3,0,0.4,0
		c1.6,0.2,2.8,1.5,2.8,3.1C18,76.9,16.7,78.3,15.2,78.5z M15.2,66.1c-0.1,0-0.3,0-0.4,0c-1.8,0-3.2-1.4-3.2-3.2
		c0-1.8,1.4-3.2,3.2-3.2c0.1,0,0.3,0,0.4,0c1.6,0.2,2.8,1.5,2.8,3.1C18,64.5,16.7,65.9,15.2,66.1z"/>
	<path class="st48" d="M32.1,41.7v79.4c0,1,0.8,1.8,1.8,1.8h13c1,0,1.8-0.8,1.8-1.8V41.7c0-1-0.8-1.8-1.8-1.8h-13
		C32.9,40,32.1,40.8,32.1,41.7z"/>
	<path class="st49" d="M37.6,42.4v78.1c0,0.6,0.4,1,1,1h3.6c0.6,0,1-0.4,1-1V42.4c0-0.6-0.4-1-1-1h-3.6C38,41.4,37.6,41.8,37.6,42.4
		z"/>
	
		<rect x="40" y="119.8" transform="matrix(-1.836970e-16 1 -1 -1.836970e-16 162.973 82.1966)" class="st49" width="0.7" height="5.6"/>
	
		<rect x="40" y="37.5" transform="matrix(-1.836970e-16 1 -1 -1.836970e-16 80.7358 -4.068694e-02)" class="st49" width="0.7" height="5.6"/>
	
		<rect x="44.4" y="43.4" transform="matrix(-1.836970e-16 1 -1 -1.836970e-16 89.4952 -0.4299)" class="st49" width="1" height="2.3"/>
	
		<rect x="44.4" y="45.2" transform="matrix(-1.836970e-16 1 -1 -1.836970e-16 91.2924 1.3673)" class="st49" width="1" height="2.3"/>
	<rect x="44.4" y="47" transform="matrix(-1.836970e-16 1 -1 -1.836970e-16 93.0897 3.1646)" class="st49" width="1" height="2.3"/>
	
		<rect x="35.3" y="43.4" transform="matrix(-1.836970e-16 1 -1 -1.836970e-16 80.3395 8.7258)" class="st49" width="1" height="2.3"/>
	
		<rect x="35.3" y="45.2" transform="matrix(-1.836970e-16 1 -1 -1.836970e-16 82.1367 10.523)" class="st49" width="1" height="2.3"/>
	<rect x="35.3" y="47" transform="matrix(-1.836970e-16 1 -1 -1.836970e-16 83.934 12.3203)" class="st49" width="1" height="2.3"/>
	<g>
		
			<rect x="44.4" y="48.8" transform="matrix(-1.836970e-16 1 -1 -1.836970e-16 94.887 4.9619)" class="st49" width="1" height="2.3"/>
		
			<rect x="44.4" y="50.6" transform="matrix(-1.836970e-16 1 -1 -1.836970e-16 96.6842 6.7591)" class="st49" width="1" height="2.3"/>
		
			<rect x="44.4" y="52.4" transform="matrix(-1.836970e-16 1 -1 -1.836970e-16 98.4815 8.5564)" class="st49" width="1" height="2.3"/>
		
			<rect x="44.4" y="54.2" transform="matrix(-1.836970e-16 1 -1 -1.836970e-16 100.2788 10.3537)" class="st49" width="1" height="2.3"/>
		
			<rect x="44.4" y="56" transform="matrix(-1.836970e-16 1 -1 -1.836970e-16 102.076 12.1509)" class="st49" width="1" height="2.3"/>
		
			<rect x="44.4" y="57.8" transform="matrix(-1.836970e-16 1 -1 -1.836970e-16 103.8733 13.9482)" class="st49" width="1" height="2.3"/>
		
			<rect x="44.4" y="59.6" transform="matrix(-1.836970e-16 1 -1 -1.836970e-16 105.6706 15.7455)" class="st49" width="1" height="2.3"/>
		
			<rect x="44.4" y="61.4" transform="matrix(-1.836970e-16 1 -1 -1.836970e-16 107.4678 17.5427)" class="st49" width="1" height="2.3"/>
		
			<rect x="44.4" y="63.2" transform="matrix(-1.836970e-16 1 -1 -1.836970e-16 109.2651 19.34)" class="st49" width="1" height="2.3"/>
		
			<rect x="44.4" y="65" transform="matrix(-1.836970e-16 1 -1 -1.836970e-16 111.0624 21.1372)" class="st49" width="1" height="2.3"/>
		
			<rect x="44.4" y="66.8" transform="matrix(-1.836970e-16 1 -1 -1.836970e-16 112.8596 22.9345)" class="st49" width="1" height="2.3"/>
		
			<rect x="44.4" y="68.6" transform="matrix(-1.836970e-16 1 -1 -1.836970e-16 114.6569 24.7318)" class="st49" width="1" height="2.3"/>
		
			<rect x="44.4" y="70.3" transform="matrix(-1.836970e-16 1 -1 -1.836970e-16 116.4542 26.529)" class="st49" width="1" height="2.3"/>
		
			<rect x="44.4" y="72.1" transform="matrix(-1.836970e-16 1 -1 -1.836970e-16 118.2514 28.3263)" class="st49" width="1" height="2.3"/>
		
			<rect x="44.4" y="73.9" transform="matrix(-1.836970e-16 1 -1 -1.836970e-16 120.0487 30.1236)" class="st49" width="1" height="2.3"/>
		
			<rect x="44.4" y="75.7" transform="matrix(-1.836970e-16 1 -1 -1.836970e-16 121.846 31.9208)" class="st49" width="1" height="2.3"/>
		
			<rect x="44.4" y="77.5" transform="matrix(-1.836970e-16 1 -1 -1.836970e-16 123.6432 33.7181)" class="st49" width="1" height="2.3"/>
		
			<rect x="44.4" y="79.3" transform="matrix(-1.836970e-16 1 -1 -1.836970e-16 125.4405 35.5154)" class="st49" width="1" height="2.3"/>
		
			<rect x="44.4" y="81.1" transform="matrix(-1.836970e-16 1 -1 -1.836970e-16 127.2378 37.3126)" class="st49" width="1" height="2.3"/>
		
			<rect x="44.4" y="82.9" transform="matrix(-1.836970e-16 1 -1 -1.836970e-16 129.035 39.1099)" class="st49" width="1" height="2.3"/>
		
			<rect x="44.4" y="84.7" transform="matrix(-1.836970e-16 1 -1 -1.836970e-16 130.8323 40.9072)" class="st49" width="1" height="2.3"/>
		
			<rect x="44.4" y="86.5" transform="matrix(-1.836970e-16 1 -1 -1.836970e-16 132.6296 42.7044)" class="st49" width="1" height="2.3"/>
		
			<rect x="44.4" y="88.3" transform="matrix(-1.836970e-16 1 -1 -1.836970e-16 134.4268 44.5017)" class="st49" width="1" height="2.3"/>
		
			<rect x="44.4" y="90.1" transform="matrix(-1.836970e-16 1 -1 -1.836970e-16 136.2241 46.299)" class="st49" width="1" height="2.3"/>
		
			<rect x="44.4" y="91.9" transform="matrix(-1.836970e-16 1 -1 -1.836970e-16 138.0214 48.0962)" class="st49" width="1" height="2.3"/>
		
			<rect x="44.4" y="93.7" transform="matrix(-1.836970e-16 1 -1 -1.836970e-16 139.8186 49.8935)" class="st49" width="1" height="2.3"/>
		
			<rect x="44.4" y="95.5" transform="matrix(-1.836970e-16 1 -1 -1.836970e-16 141.6159 51.6908)" class="st49" width="1" height="2.3"/>
		
			<rect x="44.4" y="97.3" transform="matrix(-1.836970e-16 1 -1 -1.836970e-16 143.4132 53.488)" class="st49" width="1" height="2.3"/>
		
			<rect x="44.4" y="99.1" transform="matrix(-1.836970e-16 1 -1 -1.836970e-16 145.2104 55.2853)" class="st49" width="1" height="2.3"/>
		
			<rect x="44.4" y="100.9" transform="matrix(-1.836970e-16 1 -1 -1.836970e-16 147.0077 57.0826)" class="st49" width="1" height="2.3"/>
		
			<rect x="44.4" y="102.7" transform="matrix(-1.836970e-16 1 -1 -1.836970e-16 148.805 58.8798)" class="st49" width="1" height="2.3"/>
		
			<rect x="44.4" y="104.5" transform="matrix(-1.836970e-16 1 -1 -1.836970e-16 150.6022 60.6771)" class="st49" width="1" height="2.3"/>
		
			<rect x="44.4" y="106.3" transform="matrix(-1.836970e-16 1 -1 -1.836970e-16 152.3995 62.4744)" class="st49" width="1" height="2.3"/>
		
			<rect x="44.4" y="108.1" transform="matrix(-1.836970e-16 1 -1 -1.836970e-16 154.1968 64.2716)" class="st49" width="1" height="2.3"/>
		
			<rect x="44.4" y="109.9" transform="matrix(-1.836970e-16 1 -1 -1.836970e-16 155.994 66.0689)" class="st49" width="1" height="2.3"/>
		
			<rect x="44.4" y="111.7" transform="matrix(-1.836970e-16 1 -1 -1.836970e-16 157.7913 67.8662)" class="st49" width="1" height="2.3"/>
		
			<rect x="44.4" y="113.5" transform="matrix(-1.836970e-16 1 -1 -1.836970e-16 159.5886 69.6634)" class="st49" width="1" height="2.3"/>
		
			<rect x="44.4" y="115.3" transform="matrix(-1.836970e-16 1 -1 -1.836970e-16 161.3858 71.4607)" class="st49" width="1" height="2.3"/>
		
			<rect x="44.4" y="117.1" transform="matrix(-1.836970e-16 1 -1 -1.836970e-16 163.1831 73.258)" class="st49" width="1" height="2.3"/>
	</g>
	<g>
		
			<rect x="35.3" y="48.8" transform="matrix(-1.836970e-16 1 -1 -1.836970e-16 85.7313 14.1176)" class="st49" width="1" height="2.3"/>
		
			<rect x="35.3" y="50.6" transform="matrix(-1.836970e-16 1 -1 -1.836970e-16 87.5285 15.9148)" class="st49" width="1" height="2.3"/>
		
			<rect x="35.3" y="52.4" transform="matrix(-1.836970e-16 1 -1 -1.836970e-16 89.3258 17.7121)" class="st49" width="1" height="2.3"/>
		
			<rect x="35.3" y="54.2" transform="matrix(-1.836970e-16 1 -1 -1.836970e-16 91.1231 19.5094)" class="st49" width="1" height="2.3"/>
		
			<rect x="35.3" y="56" transform="matrix(-1.836970e-16 1 -1 -1.836970e-16 92.9203 21.3066)" class="st49" width="1" height="2.3"/>
		
			<rect x="35.3" y="57.8" transform="matrix(-1.836970e-16 1 -1 -1.836970e-16 94.7176 23.1039)" class="st49" width="1" height="2.3"/>
		
			<rect x="35.3" y="59.6" transform="matrix(-1.836970e-16 1 -1 -1.836970e-16 96.5149 24.9012)" class="st49" width="1" height="2.3"/>
		
			<rect x="35.3" y="61.4" transform="matrix(-1.836970e-16 1 -1 -1.836970e-16 98.3121 26.6984)" class="st49" width="1" height="2.3"/>
		
			<rect x="35.3" y="63.2" transform="matrix(-1.836970e-16 1 -1 -1.836970e-16 100.1094 28.4957)" class="st49" width="1" height="2.3"/>
		
			<rect x="35.3" y="65" transform="matrix(-1.836970e-16 1 -1 -1.836970e-16 101.9067 30.2929)" class="st49" width="1" height="2.3"/>
		
			<rect x="35.3" y="66.8" transform="matrix(-1.836970e-16 1 -1 -1.836970e-16 103.7039 32.0902)" class="st49" width="1" height="2.3"/>
		
			<rect x="35.3" y="68.6" transform="matrix(-1.836970e-16 1 -1 -1.836970e-16 105.5012 33.8875)" class="st49" width="1" height="2.3"/>
		
			<rect x="35.3" y="70.3" transform="matrix(-1.836970e-16 1 -1 -1.836970e-16 107.2985 35.6847)" class="st49" width="1" height="2.3"/>
		
			<rect x="35.3" y="72.1" transform="matrix(-1.836970e-16 1 -1 -1.836970e-16 109.0957 37.482)" class="st49" width="1" height="2.3"/>
		
			<rect x="35.3" y="73.9" transform="matrix(-1.836970e-16 1 -1 -1.836970e-16 110.893 39.2793)" class="st49" width="1" height="2.3"/>
		
			<rect x="35.3" y="75.7" transform="matrix(-1.836970e-16 1 -1 -1.836970e-16 112.6903 41.0765)" class="st49" width="1" height="2.3"/>
		
			<rect x="35.3" y="77.5" transform="matrix(-1.836970e-16 1 -1 -1.836970e-16 114.4875 42.8738)" class="st49" width="1" height="2.3"/>
		
			<rect x="35.3" y="79.3" transform="matrix(-1.836970e-16 1 -1 -1.836970e-16 116.2848 44.6711)" class="st49" width="1" height="2.3"/>
		
			<rect x="35.3" y="81.1" transform="matrix(-1.836970e-16 1 -1 -1.836970e-16 118.0821 46.4683)" class="st49" width="1" height="2.3"/>
		
			<rect x="35.3" y="82.9" transform="matrix(-1.836970e-16 1 -1 -1.836970e-16 119.8793 48.2656)" class="st49" width="1" height="2.3"/>
		
			<rect x="35.3" y="84.7" transform="matrix(-1.836970e-16 1 -1 -1.836970e-16 121.6766 50.0629)" class="st49" width="1" height="2.3"/>
		
			<rect x="35.3" y="86.5" transform="matrix(-1.836970e-16 1 -1 -1.836970e-16 123.4739 51.8601)" class="st49" width="1" height="2.3"/>
		
			<rect x="35.3" y="88.3" transform="matrix(-1.836970e-16 1 -1 -1.836970e-16 125.2711 53.6574)" class="st49" width="1" height="2.3"/>
		
			<rect x="35.3" y="90.1" transform="matrix(-1.836970e-16 1 -1 -1.836970e-16 127.0684 55.4547)" class="st49" width="1" height="2.3"/>
		
			<rect x="35.3" y="91.9" transform="matrix(-1.836970e-16 1 -1 -1.836970e-16 128.8657 57.2519)" class="st49" width="1" height="2.3"/>
		
			<rect x="35.3" y="93.7" transform="matrix(-1.836970e-16 1 -1 -1.836970e-16 130.6629 59.0492)" class="st49" width="1" height="2.3"/>
		
			<rect x="35.3" y="95.5" transform="matrix(-1.836970e-16 1 -1 -1.836970e-16 132.4602 60.8465)" class="st49" width="1" height="2.3"/>
		
			<rect x="35.3" y="97.3" transform="matrix(-1.836970e-16 1 -1 -1.836970e-16 134.2575 62.6437)" class="st49" width="1" height="2.3"/>
		
			<rect x="35.3" y="99.1" transform="matrix(-1.836970e-16 1 -1 -1.836970e-16 136.0547 64.441)" class="st49" width="1" height="2.3"/>
		
			<rect x="35.3" y="100.9" transform="matrix(-1.836970e-16 1 -1 -1.836970e-16 137.852 66.2383)" class="st49" width="1" height="2.3"/>
		
			<rect x="35.3" y="102.7" transform="matrix(-1.836970e-16 1 -1 -1.836970e-16 139.6493 68.0355)" class="st49" width="1" height="2.3"/>
		
			<rect x="35.3" y="104.5" transform="matrix(-1.836970e-16 1 -1 -1.836970e-16 141.4465 69.8328)" class="st49" width="1" height="2.3"/>
		
			<rect x="35.3" y="106.3" transform="matrix(-1.836970e-16 1 -1 -1.836970e-16 143.2438 71.6301)" class="st49" width="1" height="2.3"/>
		
			<rect x="35.3" y="108.1" transform="matrix(-1.836970e-16 1 -1 -1.836970e-16 145.0411 73.4273)" class="st49" width="1" height="2.3"/>
		
			<rect x="35.3" y="109.9" transform="matrix(-1.836970e-16 1 -1 -1.836970e-16 146.8383 75.2246)" class="st49" width="1" height="2.3"/>
		
			<rect x="35.3" y="111.7" transform="matrix(-1.836970e-16 1 -1 -1.836970e-16 148.6356 77.0219)" class="st49" width="1" height="2.3"/>
		
			<rect x="35.3" y="113.5" transform="matrix(-1.836970e-16 1 -1 -1.836970e-16 150.4329 78.8191)" class="st49" width="1" height="2.3"/>
		
			<rect x="35.3" y="115.3" transform="matrix(-1.836970e-16 1 -1 -1.836970e-16 152.2301 80.6164)" class="st49" width="1" height="2.3"/>
		
			<rect x="35.3" y="117.1" transform="matrix(-1.836970e-16 1 -1 -1.836970e-16 154.0274 82.4137)" class="st49" width="1" height="2.3"/>
	</g>
	<g>
		
			<rect x="71.8" y="38.2" transform="matrix(-1.836970e-16 1 -1 -1.836970e-16 111.8713 -34.2164)" class="st50" width="2.5" height="1.2"/>
		
			<rect x="68.8" y="38.2" transform="matrix(-1.836970e-16 1 -1 -1.836970e-16 108.8483 -31.1934)" class="st50" width="2.5" height="1.2"/>
		
			<rect x="71.8" y="49" transform="matrix(-1.836970e-16 1 -1 -1.836970e-16 122.6752 -23.4125)" class="st50" width="2.5" height="1.2"/>
		
			<rect x="68.8" y="49" transform="matrix(-1.836970e-16 1 -1 -1.836970e-16 119.6522 -20.3895)" class="st50" width="2.5" height="1.2"/>
		
			<rect x="67.2" y="46.8" transform="matrix(-1 -1.224647e-16 1.224647e-16 -1 136.9924 94.8855)" class="st50" width="2.5" height="1.2"/>
		
			<rect x="67.2" y="42.4" transform="matrix(-1 -1.224647e-16 1.224647e-16 -1 136.9924 86.0183)" class="st50" width="2.5" height="1.2"/>
		
			<rect x="67.2" y="40.1" transform="matrix(-1 -1.224647e-16 1.224647e-16 -1 136.9924 81.3715)" class="st50" width="2.5" height="1.2"/>
		
			<rect x="72.8" y="42.4" transform="matrix(-1 -1.224647e-16 1.224647e-16 -1 148.1743 86.0183)" class="st51" width="2.5" height="1.2"/>
		
			<rect x="66.2" y="41.9" transform="matrix(-1.836970e-16 1 -1 -1.836970e-16 115.7391 -26.9819)" class="st52" width="10.2" height="4.9"/>
		<path class="st17" d="M66.7,41.3h-4.1c-0.2,0-0.3-0.3-0.2-0.4l1-1v-1h2.4v1l1,1C67,41.1,66.9,41.3,66.7,41.3z"/>
		<path class="st17" d="M66.7,47.7h-4.1c-0.2,0-0.3-0.3-0.2-0.4l1-1v-1h2.4v1l1,1C67,47.4,66.9,47.7,66.7,47.7z"/>
		<g>
			<path class="st17" d="M65.1,42C65.1,42,65.1,42,65.1,42c0.1,0,0.2,0.1,0.2,0.2c0,0.1-0.1,0.3-0.4,0.4c-0.3,0.1-0.6-0.1-0.7-0.1
				c-0.1-0.1-0.2-0.2-0.2-0.3c0-0.1,0-0.2,0.1-0.2c0.1,0,0.2,0,0.2,0.1c0,0,0.1,0.1,0.1,0.1c0,0,0.2,0.1,0.3,0.1
				c0.1-0.1,0.2-0.2,0.2-0.2C64.9,42.1,65,42,65.1,42z"/>
		</g>
		<g>
			<path class="st17" d="M65.7,42.3C65.7,42.3,65.7,42.3,65.7,42.3c0.1,0,0.2,0.1,0.2,0.2c0,0.1-0.2,0.6-0.7,0.9
				c-0.6,0.3-1.2-0.1-1.3-0.2c-0.2-0.1-0.3-0.3-0.4-0.5c0-0.1,0-0.2,0.1-0.2c0.1,0,0.2,0,0.2,0.1c0.1,0.2,0.2,0.3,0.3,0.4
				c0.1,0,0.5,0.4,1,0.2c0.4-0.2,0.5-0.6,0.5-0.7C65.6,42.3,65.6,42.3,65.7,42.3z"/>
		</g>
		<g>
			<path class="st17" d="M66.2,42.6C66.2,42.6,66.2,42.6,66.2,42.6c0.1,0,0.2,0.1,0.2,0.2c0,0.1-0.3,0.8-1,1.1
				c-0.9,0.3-1.7-0.1-1.8-0.2c-0.3-0.2-0.5-0.4-0.6-0.7c0-0.1,0-0.2,0.1-0.2c0.1,0,0.2,0,0.2,0.1c0.1,0.2,0.3,0.4,0.5,0.5
				c0.1,0.1,0.8,0.5,1.5,0.2c0.6-0.2,0.8-0.8,0.8-0.9C66,42.6,66.1,42.6,66.2,42.6z"/>
		</g>
		<line class="st53" x1="64.9" y1="48.5" x2="63.6" y2="49.7"/>
		<line class="st53" x1="64.9" y1="49.8" x2="63.7" y2="48.5"/>
	</g>
	<g>
		<g>
			<g>
				<path class="st4" d="M68.3,102.2c-0.9-0.8-2-1.3-3.3-1.3c-2.7,0-4.8,2.2-4.8,4.8c0,2.7,2.2,4.8,4.8,4.8c1.3,0,2.4-0.5,3.3-1.3
					h8.3v-7.2H68.3z M65,109c-0.1,0-0.3,0-0.4,0c-1.6-0.2-2.8-1.5-2.8-3.1c0-1.6,1.2-3,2.8-3.1c0.1,0,0.3,0,0.4,0
					c1.8,0,3.2,1.4,3.2,3.2C68.2,107.6,66.8,109,65,109z"/>
			</g>
			<g>
				<path class="st4" d="M68.3,90.2c-0.9-0.8-2-1.3-3.3-1.3c-2.7,0-4.8,2.2-4.8,4.8c0,2.7,2.2,4.8,4.8,4.8c1.3,0,2.4-0.5,3.3-1.3
					h8.3v-7.1H68.3z M65,96.9c-0.1,0-0.3,0-0.4,0c-1.6-0.2-2.8-1.5-2.8-3.1c0-1.6,1.2-3,2.8-3.1c0.1,0,0.3,0,0.4,0
					c1.8,0,3.2,1.4,3.2,3.2C68.2,95.5,66.8,96.9,65,96.9z"/>
			</g>
			<g>
				<path class="st4" d="M68.3,78.1c-0.9-0.8-2-1.3-3.3-1.3c-2.7,0-4.8,2.2-4.8,4.8c0,2.7,2.2,4.8,4.8,4.8c1.3,0,2.4-0.5,3.3-1.3
					h8.3v-7.1H68.3z M65,84.9c-0.1,0-0.3,0-0.4,0c-1.6-0.2-2.8-1.5-2.8-3.1c0-1.6,1.2-3,2.8-3.1c0.1,0,0.3,0,0.4,0
					c1.8,0,3.2,1.4,3.2,3.2C68.2,83.5,66.8,84.9,65,84.9z"/>
			</g>
			<g>
				<path class="st4" d="M68.3,66.1c-0.9-0.8-2-1.3-3.3-1.3c-2.7,0-4.8,2.2-4.8,4.8c0,2.7,2.2,4.8,4.8,4.8c1.3,0,2.4-0.5,3.3-1.3
					h8.3v-7.1H68.3z M65,72.8c-0.1,0-0.3,0-0.4,0c-1.6-0.2-2.8-1.5-2.8-3.1c0-1.6,1.2-3,2.8-3.1c0.1,0,0.3,0,0.4,0
					c1.8,0,3.2,1.4,3.2,3.2C68.2,71.4,66.8,72.8,65,72.8z"/>
			</g>
			<g>
				<path class="st4" d="M68.3,54.1c-0.9-0.8-2-1.3-3.3-1.3c-2.7,0-4.8,2.2-4.8,4.8c0,2.7,2.2,4.8,4.8,4.8c1.3,0,2.4-0.5,3.3-1.3
					h8.3v-7.1H68.3z M65,60.8c-0.1,0-0.3,0-0.4,0c-1.6-0.2-2.8-1.5-2.8-3.1c0-1.6,1.2-3,2.8-3.1c0.1,0,0.3,0,0.4,0
					c1.8,0,3.2,1.4,3.2,3.2C68.2,59.4,66.8,60.8,65,60.8z"/>
			</g>
		</g>
		<g>
			<g>
				<g>
					<path class="st4" d="M57.9,108.2c-0.1-0.2-0.2-0.4-0.3-0.6c-0.1-0.1-0.2-0.3-0.2-0.4c-0.1-0.2-0.2-0.4-0.4-0.6
						c-0.1-0.2-0.2-0.4-0.4-0.6c-0.1-0.2-0.3-0.3-0.5-0.3h-2.4c-0.1,0-0.1,0-0.2,0c-0.1-0.2-0.2-0.4-0.3-0.6
						c0.1-0.1,0.1-0.2,0.1-0.3c0-0.1-0.1-0.2-0.1-0.3c-0.2-0.1-0.4-0.2-0.5-0.1c-0.1,0.1-0.3,0.3-0.3,0.4c0,0.1,0.1,0.2,0.2,0.3
						c0.1,0.1,0.2,0.1,0.4,0.1c0.1,0.2,0.2,0.3,0.3,0.4c0,0.1,0,0.1,0,0.2c-0.2,0.3-0.4,0.6-0.5,0.9c-0.1,0.1-0.2,0.3-0.2,0.4
						c-0.1,0.2-0.2,0.4-0.3,0.5c-0.1,0.1-0.1,0.2-0.2,0.3c0,0,0,0.1-0.1,0.1h-0.6c-0.1-0.2-0.2-0.2-0.4-0.2c-0.3,0-0.5,0.2-0.5,0.5
						c0,0.3,0.3,0.6,0.6,0.4c0.1,0,0.2-0.1,0.2-0.2c0,0,0.1-0.1,0.1-0.1h0.6c0.5,0.8,0.9,1.6,1.4,2.3c-0.1,0.2-0.2,0.3-0.3,0.5
						c0,0-0.1,0.1-0.1,0.1c-0.1,0-0.2,0.1-0.3,0.1c-0.1,0-0.1,0.1-0.2,0.2c0,0.1,0,0.2,0,0.3c0.1,0.3,0.4,0.3,0.6,0.2
						c0.1,0,0.2-0.1,0.2-0.2c0.1-0.1,0.1-0.2,0-0.3c0,0,0,0,0,0c0-0.1,0-0.1,0-0.2c0.1-0.1,0.1-0.2,0.2-0.3c0-0.1,0.1-0.1,0.2-0.1
						c0.5,0,1.1,0,1.6,0h0.9c0.2,0,0.4-0.1,0.5-0.3c0.1-0.1,0.2-0.3,0.3-0.4c0.2-0.3,0.4-0.6,0.5-0.9c0.2-0.3,0.3-0.6,0.5-0.8
						C58,108.5,58,108.3,57.9,108.2z M56.4,108.7c-0.1,0.3-0.2,0.6-0.3,0.8c0,0.1-0.1,0.3-0.1,0.4c0,0.1-0.1,0.1-0.1,0.2
						c0,0.1-0.1,0.3-0.1,0.4c0,0.1-0.1,0.2-0.3,0.2c-0.2,0-0.5,0-0.7,0h-0.1c0-0.1,0-4.5,0-4.7c0.3,0,0.6,0,0.9,0
						c0.1,0,0.2,0.1,0.2,0.2c0,0.1,0.1,0.2,0.1,0.3c0,0.2,0.1,0.3,0.1,0.5c0,0.1,0,0.1,0,0.2c0,0.1,0,0.1,0.1,0.2
						c0.1,0.2,0.1,0.4,0.2,0.6c0,0.1,0.1,0.2,0.1,0.4C56.5,108.4,56.5,108.5,56.4,108.7z"/>
				</g>
				<g>
					<path class="st4" d="M56.5,101.6c0-0.3,0-0.5-0.1-0.7c-0.1-0.4-0.3-0.7-0.5-1c0,0,0,0,0,0c-0.3-0.2-0.7-0.4-1.1-0.3h0
						c-0.3,0-0.5,0.1-0.8,0.2c-0.4,0.2-0.6,0.5-0.7,0.9c0,0.2-0.1,0.3-0.1,0.5c0,0.2-0.1,0.4-0.1,0.6v1.8c0,0.2,0,0.2,0.2,0.2h3.1
						v-0.2C56.5,102.9,56.5,102.3,56.5,101.6z M55.7,102.7h-1.7c0-0.1,0-0.1,0-0.2v-1.2c0-0.2,0.1-0.4,0.2-0.5
						c0.1-0.2,0.3-0.3,0.5-0.3c0.1,0,0.2,0,0.2,0c0.3,0,0.5,0.2,0.6,0.5c0.1,0.3,0.1,0.5,0.1,0.8V102.7z"/>
				</g>
				<g>
					<path class="st4" d="M55.4,98c0.2,0,0.4,0,0.6,0c0.2,0,0.4,0,0.6,0c0,0.4,0,0.7,0,1.1c0,0-0.1,0-0.1,0c-1,0-2,0-3,0
						c-0.2,0-0.2,0-0.2-0.2c0-1.1,0-2.2,0-3.3c0-0.2,0-0.2,0.2-0.2c0.2,0,0.4,0,0.6,0c0.1,0.1,0.1,0.2,0.1,0.3c0,0.7,0,1.4,0,2.1
						c0,0.1,0,0.1,0,0.2c0.2,0,0.3,0,0.5,0c0-0.7,0-1.3,0-2c0.1,0,0.1,0,0.1,0c0.2,0,0.4,0,0.5,0c0.2,0,0.2,0,0.2,0.2
						c0,0.5,0,0.9,0,1.4C55.4,97.7,55.4,97.9,55.4,98z"/>
				</g>
				<g>
					<path class="st4" d="M56.5,83.9c-0.1-0.2-0.2-0.5-0.6-0.4c-0.2,0-0.3,0-0.5,0c-0.3,0-0.5,0.1-0.6,0.4c0,0,0,0,0-0.1
						c-0.1-0.3-0.2-0.4-0.5-0.4c-0.1,0-0.3,0-0.4,0c-0.3,0-0.5,0.1-0.6,0.4c0,0.1-0.1,0.3-0.1,0.4c0,0.8,0,1.6,0,2.4v0.1
						c0,0.1,0,0.1,0.1,0.1h3.1c0.1,0,0.1,0,0.2,0v-2.6C56.5,84.1,56.5,84,56.5,83.9z M54.5,86.3h-0.8c0,0,0-0.1,0-0.1v-1.8
						c0,0,0-0.1,0-0.1c0-0.1,0.1-0.2,0.2-0.2c0.2,0,0.3,0,0.5,0c0.1,0,0.1,0,0.1,0.1c0,0,0,0.1,0,0.1C54.6,85,54.5,85.6,54.5,86.3z
						 M56.1,86.2c-0.1,0-0.7,0-1,0v-1.9c0-0.2,0.1-0.3,0.3-0.3c0.1,0,0.3,0,0.4,0c0.1,0,0.2,0.1,0.2,0.2c0,0.1,0,0.2,0,0.3
						c0,0.5,0,1,0,1.5V86.2z"/>
				</g>
				<g>
					<path class="st4" d="M56.1,87.3c-0.2,0-0.3,0-0.5,0c-0.6,0-1.3,0-1.9,0c-0.3,0-0.5,0.2-0.5,0.4c0,0.2,0,0.3,0,0.5
						c0,0.4,0,0.9,0,1.3c0,0.4,0,0.7,0,1.1c0,0.3,0.3,0.6,0.6,0.6c0.7,0,1.4,0,2.2,0c0.2,0,0.3,0,0.4-0.2c0.1-0.1,0.1-0.3,0.1-0.4
						v-2.7C56.5,87.6,56.4,87.4,56.1,87.3z M56,90.6c-0.1,0-1.8,0.1-2.3,0c0-0.1,0-2.4,0-2.7H56V90.6z"/>
				</g>
				<g>
					<path class="st4" d="M56.2,79.2c-0.1,0-0.2,0-0.3,0c-0.2,0-0.5,0-0.7,0h-1.4c-0.3,0-0.6,0.2-0.6,0.5c0,0.2,0,0.3,0,0.5
						c0,0.6,0,1.1,0,1.7c0,0.3,0,0.5,0,0.8c0,0.2,0.1,0.4,0.4,0.4c0.2,0,0.3,0.1,0.5,0.1c0.7,0,1.3,0,2,0c0.2,0,0.3-0.1,0.4-0.2
						c0.1-0.1,0.1-0.3,0.1-0.4v-2.7C56.5,79.5,56.4,79.3,56.2,79.2z M56,82.4c-0.1,0-2,0-2.3,0v-2.7H56C56,79.9,56.1,81.9,56,82.4z"
						/>
				</g>
				<g>
					<path class="st4" d="M55.3,94.5c0-0.3,0-0.6,0-0.9c0,0,0-0.1,0.1-0.1c0.3-0.3,0.6-0.7,1-1c0.2-0.2,0.2-0.3,0.2-0.5
						c0-0.2,0-0.3,0-0.5c0,0,0,0,0,0c-0.4,0.5-0.8,0.9-1.2,1.4c0-0.1,0-0.2,0-0.3c0-0.2,0-0.3-0.1-0.5c-0.1-0.2-0.2-0.3-0.4-0.3
						c-0.4,0-0.7,0-1.1,0c-0.2,0-0.3,0.1-0.4,0.3c-0.1,0.2-0.1,0.3-0.1,0.5c0,0.8,0,1.6,0,2.4v0.1c0,0.1,0,0.1,0.1,0.1h3.1
						c0,0,0.1,0,0.1,0c0-0.2,0-0.4,0-0.6H55.3z M53.7,94.4c0,0,0-0.1,0-0.1v-1.8c0-0.2,0.1-0.3,0.3-0.3h0.5c0,0,0.1,0,0.1,0
						c0.1,0,0.1,0.1,0.1,0.2c0,0,0,0.1,0,0.1c0,0.5,0,0.9,0,1.4c0,0.2,0,0.3,0,0.5H53.7z"/>
				</g>
				<g>
					<path class="st4" d="M56.5,77.4c-0.9,0-1.9,0-2.8,0c0,0.3,0,0.5,0,0.7c0,0.2,0,0.5,0,0.7c-0.1,0-0.2,0-0.3,0
						c-0.1,0-0.2,0-0.2,0c0-0.1,0-0.1,0-0.2c0-1.1,0-2.2,0-3.2c0,0,0-0.1,0-0.1c0-0.1,0-0.1,0.1-0.1c0.1,0,0.2,0,0.4,0
						c0,0.1,0,0.1,0,0.2c0,0.4,0,0.8,0,1.1c0,0,0,0.1,0,0.1c0,0.1,0,0.1,0.1,0.1c0.1,0,0.1,0,0.2,0c0.8,0,1.6,0,2.4,0
						c0.1,0,0.1,0,0.2,0C56.6,77,56.6,77.2,56.5,77.4z"/>
				</g>
				<g>
					<path class="st4" d="M56.4,108.4c-0.1-0.2-0.1-0.5-0.2-0.7c-0.1-0.2-0.1-0.3-0.2-0.5c0-0.1,0-0.1-0.1-0.2
						c0-0.2-0.1-0.4-0.2-0.6c0,0,0-0.1,0-0.1c0,0-0.1-0.1-0.1-0.1c-0.2,0-0.5,0-0.7,0c-0.1,0-0.1,0-0.1,0.1c0,0,0,0.1,0,0.1v4.2
						c0,0.1,0,0.1,0.1,0.1h0.7c0.1,0,0.1,0,0.1-0.1c0.1-0.2,0.1-0.4,0.2-0.5c0-0.1,0.1-0.2,0.1-0.3c0-0.2,0.1-0.3,0.1-0.5
						c0.1-0.2,0.1-0.5,0.2-0.7C56.4,108.5,56.4,108.5,56.4,108.4z M56.1,108.7c-0.1,0.2-0.1,0.4-0.2,0.7c-0.1,0.2-0.1,0.3-0.2,0.5
						c0,0.2-0.1,0.3-0.1,0.5c0,0.1-0.1,0.1-0.2,0.1h-0.3c0-0.1,0-3.7,0-4h0.4c0.1,0,0.1,0,0.1,0.1c0,0,0,0,0,0
						c0.1,0.2,0.1,0.4,0.2,0.5c0,0.1,0.1,0.2,0.1,0.3c0.1,0.2,0.1,0.4,0.2,0.6c0,0.1,0.1,0.2,0.1,0.3
						C56.2,108.4,56.1,108.5,56.1,108.7z"/>
				</g>
			</g>
			<g>
				<path class="st8" d="M54.4,71.8c-0.3,0-0.5,0-0.7,0c-0.2,0-0.4,0.1-0.5,0.1v-0.6c0.1,0,0.1,0,0.2,0c0.1,0,0.2,0,0.2,0
					c-0.2-0.1-0.3-0.3-0.4-0.5c-0.1-0.2-0.2-0.4-0.2-0.6c0-0.2,0.1-0.4,0.2-0.5c0.1-0.1,0.2-0.2,0.4-0.3c-0.2-0.2-0.3-0.3-0.4-0.5
					c-0.1-0.2-0.2-0.4-0.2-0.6c0-0.1,0-0.3,0.1-0.4c0-0.1,0.1-0.2,0.2-0.3c0.1-0.1,0.2-0.1,0.3-0.2c0.1,0,0.2-0.1,0.4-0.1h2.4V68
					h-2.2c-0.2,0-0.3,0-0.4,0.1c-0.1,0.1-0.1,0.2-0.1,0.4c0,0.1,0,0.3,0.1,0.4c0.1,0.1,0.2,0.3,0.4,0.4h2.3v0.6h-2.2
					c-0.2,0-0.3,0-0.4,0.1c-0.1,0.1-0.1,0.2-0.1,0.4c0,0.1,0,0.3,0.1,0.4c0.1,0.1,0.2,0.3,0.4,0.4h2.3v0.6H54.4z"/>
				<path class="st8" d="M51.9,66.7v-0.6h0.8v0.6H51.9z M53.1,66.7v-0.6h3.2v0.6H53.1z"/>
				<path class="st8" d="M56.4,63.9c0,0.2,0,0.5-0.1,0.7s-0.2,0.4-0.3,0.5c-0.1,0.1-0.3,0.2-0.5,0.3c-0.2,0.1-0.4,0.1-0.7,0.1
					c-0.3,0-0.5,0-0.7-0.1c-0.2-0.1-0.4-0.2-0.5-0.3c-0.1-0.1-0.3-0.3-0.3-0.5c-0.1-0.2-0.1-0.4-0.1-0.6c0-0.2,0-0.3,0.1-0.5
					c0-0.1,0.1-0.3,0.1-0.4l0.5,0c0,0.1-0.1,0.2-0.1,0.3c0,0.1,0,0.3,0,0.4c0,0.2,0,0.3,0.1,0.4c0.1,0.1,0.1,0.2,0.2,0.3
					c0.1,0.1,0.2,0.2,0.4,0.2c0.1,0,0.3,0.1,0.5,0.1c0.2,0,0.3,0,0.5-0.1c0.1,0,0.3-0.1,0.4-0.2c0.1-0.1,0.2-0.2,0.2-0.3
					c0.1-0.1,0.1-0.3,0.1-0.4c0-0.2,0-0.3-0.1-0.4c0-0.1-0.1-0.2-0.2-0.3l0.5-0.2c0.1,0.1,0.1,0.3,0.2,0.4
					C56.4,63.5,56.4,63.7,56.4,63.9z"/>
				<path class="st8" d="M53.1,62.6V62h0.5c-0.2-0.1-0.3-0.2-0.4-0.4c-0.1-0.1-0.2-0.3-0.2-0.5c0-0.1,0-0.1,0-0.2c0-0.1,0-0.1,0-0.2
					l0.5,0c0,0,0,0.1,0,0.2c0,0.1,0,0.1,0,0.2c0,0.2,0,0.3,0.1,0.5c0.1,0.2,0.2,0.3,0.5,0.4h2.2v0.6H53.1z"/>
				<path class="st8" d="M56.4,59.1c0,0.2,0,0.4-0.1,0.6c-0.1,0.2-0.2,0.3-0.4,0.5c-0.2,0.1-0.3,0.2-0.5,0.3
					c-0.2,0.1-0.4,0.1-0.7,0.1c-0.2,0-0.5,0-0.7-0.1c-0.2-0.1-0.4-0.2-0.5-0.3c-0.2-0.1-0.3-0.3-0.4-0.5c-0.1-0.2-0.1-0.4-0.1-0.6
					c0-0.2,0-0.4,0.1-0.6c0.1-0.2,0.2-0.3,0.4-0.5c0.2-0.1,0.3-0.2,0.5-0.3c0.2-0.1,0.4-0.1,0.7-0.1c0.2,0,0.5,0,0.7,0.1
					c0.2,0.1,0.4,0.2,0.5,0.3c0.2,0.1,0.3,0.3,0.4,0.5C56.4,58.7,56.4,58.9,56.4,59.1z M55.9,59.1c0-0.1,0-0.2-0.1-0.3
					c-0.1-0.1-0.1-0.2-0.2-0.3c-0.1-0.1-0.2-0.1-0.4-0.2c-0.1,0-0.3-0.1-0.5-0.1c-0.2,0-0.3,0-0.5,0.1c-0.1,0-0.3,0.1-0.4,0.2
					c-0.1,0.1-0.2,0.2-0.2,0.3c-0.1,0.1-0.1,0.2-0.1,0.3c0,0.1,0,0.2,0.1,0.3c0.1,0.1,0.1,0.2,0.2,0.3c0.1,0.1,0.2,0.1,0.4,0.2
					c0.1,0,0.3,0.1,0.5,0.1c0.2,0,0.3,0,0.5-0.1c0.1,0,0.3-0.1,0.4-0.2c0.1-0.1,0.2-0.2,0.2-0.3C55.9,59.4,55.9,59.3,55.9,59.1z"/>
				<path class="st8" d="M53.6,57.1v-0.7h0.9v0.7H53.6z M55.5,57.1v-0.7h0.9v0.7H55.5z"/>
				<path class="st8" d="M56.4,54.2c0,0.1,0,0.2,0,0.3c0,0.1-0.1,0.2-0.1,0.3c0,0.1-0.1,0.2-0.2,0.2c-0.1,0.1-0.1,0.1-0.2,0.2
					c0.1,0,0.1,0,0.2,0c0.1,0,0.1,0,0.2,0v0.6c-0.1,0-0.3-0.1-0.5-0.1c-0.2,0-0.4,0-0.7,0h-3.2v-0.6h1.6c-0.1-0.1-0.2-0.3-0.3-0.4
					c-0.1-0.2-0.1-0.3-0.1-0.5c0-0.2,0-0.4,0.1-0.5c0.1-0.2,0.2-0.3,0.4-0.4c0.2-0.1,0.3-0.2,0.5-0.2c0.2-0.1,0.4-0.1,0.7-0.1
					c0.2,0,0.5,0,0.7,0.1c0.2,0.1,0.4,0.1,0.5,0.2c0.1,0.1,0.3,0.2,0.4,0.4C56.4,53.8,56.4,54,56.4,54.2z M55.9,54.3
					c0-0.2-0.1-0.4-0.3-0.5c-0.2-0.1-0.5-0.2-0.8-0.2c-0.4,0-0.6,0.1-0.8,0.2c-0.2,0.1-0.3,0.3-0.3,0.5c0,0.1,0,0.2,0.1,0.4
					c0.1,0.1,0.2,0.3,0.3,0.4h1.4c0.1-0.1,0.2-0.2,0.3-0.3C55.8,54.6,55.9,54.5,55.9,54.3z"/>
				<path class="st8" d="M51.9,52.4v-0.6h0.8v0.6H51.9z M53.1,52.4v-0.6h3.2v0.6H53.1z"/>
				<path class="st8" d="M56.4,50c0,0.3-0.1,0.5-0.2,0.6c-0.2,0.1-0.4,0.2-0.7,0.2h-1.8v0.5h-0.5v-0.5h-0.7v-0.6h0.7v-0.7h0.5v0.7
					h1.7c0.1,0,0.2,0,0.3,0c0.1,0,0.2-0.1,0.2-0.1c0,0,0-0.1,0.1-0.1c0-0.1,0-0.1,0-0.2c0-0.1,0-0.1,0-0.2c0-0.1,0-0.1,0-0.2
					l0.5-0.1c0,0.1,0.1,0.2,0.1,0.3C56.4,49.8,56.4,49.9,56.4,50z"/>
			</g>
		</g>
		<g>
			<path d="M75,58.7c0.1,0.2,0.1,0.4,0.1,0.6c0,0.3-0.1,0.5-0.2,0.7c-0.2,0.2-0.4,0.2-0.6,0.2c-0.3,0-0.5-0.1-0.7-0.3
				c-0.2-0.2-0.3-0.4-0.3-0.7c0-0.2,0-0.3,0.1-0.5h0.4c-0.1,0.1-0.1,0.3-0.1,0.5c0,0.2,0.1,0.3,0.2,0.4s0.3,0.2,0.4,0.2
				c0.2,0,0.3,0,0.4-0.1c0.1-0.1,0.2-0.2,0.2-0.4c0-0.1,0-0.2,0-0.2h-0.4v0.4h-0.3v-0.7H75z"/>
			<path d="M75.1,56.9v0.4L74,58c-0.1,0-0.1,0.1-0.1,0.1v0c0.1,0,0.2,0,0.3,0h1v0.4h-1.7V58l1.1-0.7c0.1,0,0.1-0.1,0.1-0.1v0
				c0,0-0.1,0-0.2,0h-1v-0.4H75.1z"/>
			<path d="M75.1,56.6h-1.7V56c0-0.6,0.3-0.9,0.9-0.9c0.3,0,0.5,0.1,0.7,0.3c0.2,0.2,0.2,0.4,0.2,0.7V56.6z M73.6,56.2h1.1V56
				c0-0.2-0.1-0.3-0.2-0.4c-0.1-0.1-0.2-0.2-0.4-0.2c-0.2,0-0.3,0.1-0.4,0.2c-0.1,0.1-0.1,0.2-0.1,0.4V56.2z"/>
		</g>
		<g>
			<path d="M74.6,71.2c0.1-0.2,0.2-0.3,0.2-0.6c0-0.1,0-0.2-0.1-0.3c-0.1-0.1-0.1-0.1-0.3-0.1c-0.1,0-0.2,0-0.3,0.1
				c-0.1,0.1-0.1,0.2-0.1,0.4V71h-0.4v-0.2c0-0.3-0.1-0.5-0.3-0.5c-0.2,0-0.3,0.1-0.3,0.4c0,0.2,0.1,0.3,0.2,0.5h-0.4
				c-0.1-0.2-0.1-0.4-0.1-0.6c0-0.2,0.1-0.4,0.2-0.5c0.1-0.1,0.2-0.2,0.4-0.2c0.3,0,0.5,0.2,0.6,0.5h0c0-0.2,0.1-0.3,0.2-0.4
				c0.1-0.1,0.2-0.1,0.4-0.1c0.2,0,0.4,0.1,0.5,0.2c0.1,0.2,0.2,0.4,0.2,0.7c0,0.2,0,0.4-0.1,0.6H74.6z"/>
			<path d="M72.7,67.5l2.4,0.8v0.6l-2.4,0.8v-0.5l1.7-0.5c0.1,0,0.2,0,0.2,0v0c-0.1,0-0.2,0-0.2-0.1L72.7,68V67.5z"/>
		</g>
		<g>
			<path d="M74.7,81.8v-1h0.4v1.6h-0.2c-0.1,0-0.2,0-0.3-0.1c-0.1,0-0.2-0.1-0.3-0.2c-0.1-0.1-0.2-0.2-0.3-0.4
				c-0.1-0.2-0.2-0.3-0.3-0.3c-0.1-0.1-0.2-0.1-0.3-0.1c-0.2,0-0.3,0.1-0.3,0.3c0,0.2,0.1,0.4,0.2,0.6h-0.4
				c-0.1-0.2-0.2-0.4-0.2-0.7c0-0.2,0.1-0.4,0.2-0.6c0.1-0.1,0.3-0.2,0.5-0.2c0.1,0,0.2,0,0.3,0.1c0.1,0,0.2,0.1,0.3,0.2
				c0.1,0.1,0.2,0.2,0.3,0.4c0.1,0.2,0.2,0.3,0.3,0.3C74.6,81.8,74.6,81.8,74.7,81.8z"/>
		</g>
		<g>
			<path d="M72.7,93.4h2.4v0.5h-1.9c0.1,0.1,0.1,0.1,0.1,0.3c0,0.1,0.1,0.2,0.1,0.3H73c-0.1-0.3-0.2-0.5-0.4-0.7V93.4z"/>
		</g>
		<g>
			<path d="M73.9,106.7c-0.4,0-0.7-0.1-0.9-0.2c-0.2-0.2-0.3-0.4-0.3-0.7c0-0.5,0.4-0.8,1.2-0.8c0.4,0,0.7,0.1,0.9,0.2
				c0.2,0.1,0.3,0.4,0.3,0.6C75.1,106.4,74.7,106.7,73.9,106.7z M73.9,106.2c0.5,0,0.8-0.1,0.8-0.4c0-0.2-0.3-0.3-0.8-0.3
				c-0.6,0-0.8,0.1-0.8,0.3C73.1,106,73.3,106.2,73.9,106.2z"/>
		</g>
	</g>
	<g>
		<g>
			<g>
				<g>
					<path class="st4" d="M14.8,45.7c-1.3,0-2.4,0.5-3.3,1.3H4.3v7.1h7.2c0.9,0.8,2,1.3,3.3,1.3c2.7,0,4.8-2.2,4.8-4.8
						C19.6,47.9,17.5,45.7,14.8,45.7z M15.2,53.7c-0.1,0-0.3,0-0.4,0c-1.8,0-3.2-1.4-3.2-3.2c0-1.8,1.4-3.2,3.2-3.2
						c0.1,0,0.3,0,0.4,0c1.6,0.2,2.8,1.5,2.8,3.1S16.7,53.5,15.2,53.7z"/>
				</g>
			</g>
			<g>
				<g>
					<path class="st4" d="M14.8,58.1c-1.3,0-2.4,0.5-3.3,1.3H4.3v7.1h7.2c0.9,0.8,2,1.3,3.3,1.3c2.7,0,4.8-2.2,4.8-4.8
						C19.6,60.2,17.5,58.1,14.8,58.1z M15.2,66.1c-0.1,0-0.3,0-0.4,0c-1.8,0-3.2-1.4-3.2-3.2c0-1.8,1.4-3.2,3.2-3.2
						c0.1,0,0.3,0,0.4,0c1.6,0.2,2.8,1.5,2.8,3.1C18,64.5,16.7,65.9,15.2,66.1z"/>
				</g>
			</g>
			<g>
				<g>
					<path class="st4" d="M14.8,70.5c-1.3,0-2.4,0.5-3.3,1.3H4.3v7.2h7.2c0.9,0.8,2,1.3,3.3,1.3c2.7,0,4.8-2.2,4.8-4.8
						C19.6,72.6,17.5,70.5,14.8,70.5z M15.2,78.5c-0.1,0-0.3,0-0.4,0c-1.8,0-3.2-1.4-3.2-3.2c0-1.8,1.4-3.2,3.2-3.2
						c0.1,0,0.3,0,0.4,0c1.6,0.2,2.8,1.5,2.8,3.1C18,76.9,16.7,78.3,15.2,78.5z"/>
				</g>
			</g>
			<g>
				<g>
					<path class="st4" d="M14.8,82.8c-1.3,0-2.4,0.5-3.3,1.3H4.3v7.1h7.2c0.9,0.8,2,1.3,3.3,1.3c2.7,0,4.8-2.2,4.8-4.8
						C19.6,85,17.5,82.8,14.8,82.8z M15.2,90.8c-0.1,0-0.3,0-0.4,0c-1.8,0-3.2-1.4-3.2-3.2c0-1.8,1.4-3.2,3.2-3.2c0.1,0,0.3,0,0.4,0
						c1.6,0.2,2.8,1.5,2.8,3.1C18,89.3,16.7,90.6,15.2,90.8z"/>
				</g>
			</g>
			<g>
				<g>
					<path class="st4" d="M14.8,95.2c-1.3,0-2.4,0.5-3.3,1.3H4.3v7.1h7.2c0.9,0.8,2,1.3,3.3,1.3c2.7,0,4.8-2.2,4.8-4.8
						C19.6,97.4,17.5,95.2,14.8,95.2z M15.2,103.2c-0.1,0-0.3,0-0.4,0c-1.8,0-3.2-1.4-3.2-3.2c0-1.7,1.4-3.2,3.2-3.2
						c0.1,0,0.3,0,0.4,0c1.6,0.2,2.8,1.5,2.8,3.1S16.7,103,15.2,103.2z"/>
				</g>
			</g>
			<g>
				<g>
					<path class="st4" d="M14.8,107.6c-1.3,0-2.4,0.5-3.3,1.3H4.3v7.2h7.2c0.9,0.8,2,1.3,3.3,1.3c2.7,0,4.8-2.2,4.8-4.8
						C19.6,109.8,17.5,107.6,14.8,107.6z M15.2,115.6c-0.1,0-0.3,0-0.4,0c-1.8,0-3.2-1.4-3.2-3.2c0-1.8,1.4-3.2,3.2-3.2
						c0.1,0,0.3,0,0.4,0c1.6,0.2,2.8,1.5,2.8,3.1C18,114.1,16.7,115.4,15.2,115.6z"/>
				</g>
			</g>
		</g>
		<g>
			<g>
				<g>
					<path class="st4" d="M24.8,95.7c-0.5-0.4-1-0.9-1.4-1.3c0.2-0.1,0.3-0.2,0.5-0.4c0.1-0.1,0.2-0.2,0.3-0.3
						c0.2-0.2,0.8-0.7,1.3-0.6c0.1,0,0.2,0.1,0.5,0.3c0.2,0.2,0.3,0.3,0.5,0.5c0.3,0.3,0.6,0.7,1,1c0.1,0.1,0.3,0.1,0.4,0
						c0.1-0.1,0.1-0.3,0-0.4c-0.3-0.3-0.6-0.7-1-1c-0.2-0.2-0.3-0.3-0.5-0.5l0,0l0,0c-0.3-0.3-0.5-0.4-0.8-0.5
						c-0.7-0.1-1.4,0.5-1.7,0.8c-0.2,0.1-0.3,0.3-0.4,0.3c-0.2,0.2-0.2,0.2-0.3,0.2c-0.1,0-0.3-0.2-0.5-0.3c0,0,0,0,0,0
						c-0.4-0.5-0.4-0.7-0.5-0.9c-0.1-0.5,0.1-1.2,0.7-1.6c0.6-0.4,1.3-0.4,1.8-0.2c0.1,0,0.3,0.2,1.2,1c0.3,0.3,0.5,0.5,0.8,0.8
						c0.1,0.1,0.3,0.1,0.4,0c0.1-0.1,0.1-0.3,0-0.4c-0.3-0.3-0.5-0.5-0.8-0.8c-1-1-1.2-1.1-1.3-1.1c-0.6-0.3-1.6-0.4-2.4,0.2
						c-0.7,0.5-0.9,1.3-0.9,1.9c0,0.1,0,0.2,0,0.3c0.1,0.4,0.3,0.8,0.8,1.5c0.6,0.7,1.3,1.4,2.1,2.1c0.1,0.1,0.3,0.1,0.4,0
						C24.9,96,24.9,95.8,24.8,95.7z"/>
				</g>
				<g>
					<path class="st4" d="M25,93.5c-0.1,0.1-0.1,0.1-0.1,0.2c0,0.1,0,0.2,0.1,0.2l2.1,2.1c0.1,0.1,0.3,0.1,0.4,0
						c0.1-0.1,0.1-0.3,0-0.4l-2.1-2.1C25.3,93.4,25.1,93.4,25,93.5z"/>
				</g>
				<g>
					<path class="st4" d="M26.4,96l-1.8-1.8c-0.1-0.1-0.3-0.1-0.4,0c-0.1,0.1-0.1,0.1-0.1,0.2c0,0.1,0,0.2,0.1,0.2l1.8,1.8
						c0.1,0.1,0.3,0.1,0.4,0C26.5,96.3,26.5,96.1,26.4,96z"/>
				</g>
				<g>
					<path class="st4" d="M25.1,91.6c0-0.2-0.1-0.3-0.3-0.3h-0.3V91c0-0.2-0.1-0.3-0.3-0.3c-0.2,0-0.3,0.1-0.3,0.3v0.2h-0.3
						c-0.2,0-0.3,0.1-0.3,0.3c0,0.2,0.1,0.3,0.3,0.3H24v0.2c0,0.2,0.1,0.3,0.3,0.3c0.2,0,0.3-0.1,0.3-0.3v-0.2h0.3
						C25,91.9,25.1,91.7,25.1,91.6z"/>
				</g>
				<g>
					<path class="st4" d="M22.3,92.4c0,0.3,0.1,0.6,0.3,1c0.1,0.1,0.3,0.2,0.4,0.1c0.1-0.1,0.2-0.3,0.1-0.4c-0.5-0.8,0-1.2,0-1.3
						c0.1-0.1,0.1-0.3,0-0.4c-0.1-0.1-0.3-0.1-0.4,0C22.6,91.5,22.3,91.8,22.3,92.4z"/>
				</g>
				<g>
					<path class="st4" d="M25.3,97.4v0.1c0,0.1,0.1,0.2,0.2,0.2h0.6c0,0,0,0,0,0v3.7c0,0,0,0,0,0h-0.6c-0.1,0-0.2,0.1-0.2,0.2v0
						c0,0.1,0.1,0.2,0.2,0.2h0.7c0.2,0,0.4-0.2,0.4-0.4v-0.2c0,0,0,0,0,0c0.1,0,0.1,0.1,0.2,0.1c0.1,0,0.1,0,0.2,0.1c0,0,0,0,0,0
						v-0.7c0,0,0,0,0,0c-0.1,0-0.3-0.1-0.4-0.1c0,0,0,0,0,0v-0.6c0,0,0,0,0,0h0.5c0,0,0,0,0,0v-0.7c0,0,0,0,0,0h-0.5c0,0,0,0,0,0
						v-0.5c0,0,0,0,0,0c0.1,0,0.2-0.1,0.2-0.1c0.1,0,0.1-0.1,0.2-0.1c0,0,0,0,0,0v-0.7c0,0,0,0,0,0c-0.1,0-0.1,0.1-0.2,0.1
						c-0.1,0-0.1,0.1-0.2,0.1c0,0,0,0,0,0v-0.2c0-0.2-0.2-0.4-0.4-0.4h-0.7C25.4,97.2,25.3,97.3,25.3,97.4z"/>
				</g>
				<g>
					<path class="st4" d="M25.5,98.1h-0.4c-0.2,0-0.4,0.2-0.4,0.4v2.2c0,0.2,0.2,0.4,0.4,0.4h0.4c0.2,0,0.4-0.2,0.4-0.4v-2.2
						C25.9,98.2,25.7,98.1,25.5,98.1z M25.5,100.6c0,0.1-0.1,0.2-0.2,0.2c-0.1,0-0.2-0.1-0.2-0.2v-2.1c0-0.1,0.1-0.2,0.2-0.2
						c0.1,0,0.2,0.1,0.2,0.2V100.6z"/>
				</g>
				<g>
					<path class="st4" d="M23.1,101.7v-1.8c0,0,0,0,0,0h0.2c0,0,0,0,0,0v1.3c0,0.1,0.1,0.2,0.2,0.2c0.1,0,0.2-0.1,0.2-0.2v-1.3
						c0,0,0,0,0,0H24c0,0,0,0,0,0l0,1.5c0,0.1,0.1,0.2,0.2,0.2c0.1,0,0.2-0.1,0.2-0.2l-0.1-3.9c0-0.1-0.1-0.2-0.2-0.2h0
						c-0.1,0-0.2,0.1-0.2,0.2l0,1.6c0,0,0,0,0,0h-0.2c0,0,0,0,0,0v-1.2c0-0.1-0.1-0.2-0.2-0.2c-0.1,0-0.2,0.1-0.2,0.2v1.2
						c0,0,0,0,0,0h-0.2c0,0,0,0,0,0v-1.8c0-0.1-0.1-0.2-0.2-0.2c-0.1,0-0.2,0.1-0.2,0.2v1.8c0,0,0,0,0,0c0,0-0.1,0-0.1,0
						c0,0,0-0.1,0-0.1c0,0,0,0,0,0c-0.3,0-0.2,0-0.5,0c0,0,0,0,0,0c0,0.5,0,0.6,0.1,0.7c0.1,0.1,0.1,0.1,0.2,0.1
						c0.1,0.1,0.2,0.1,0.3,0.1c0,0,0,0,0,0v1.8c0,0.1,0.1,0.2,0.2,0.2C23,101.9,23.1,101.8,23.1,101.7z"/>
				</g>
				<g>
					<path class="st4" d="M25.5,104.3v0.6c0,0,0,0,0,0H26c0,0,0,0,0,0v1.8c0,0,0,0,0,0h-0.4c0,0,0,0,0,0v0.6c0,0,0,0,0,0h0.6
						c0.2,0,0.4-0.2,0.4-0.4v-0.8c0,0,0,0,0,0l0.1,0l0.3,0c0,0,0,0,0,0v-0.7c0,0,0,0,0,0l-0.3,0l-0.1,0c0,0,0,0,0,0v-0.8
						c0-0.2-0.2-0.4-0.4-0.4L25.5,104.3C25.5,104.3,25.5,104.3,25.5,104.3z"/>
				</g>
				<g>
					<path class="st4" d="M22.5,107.3v-1c0,0,0,0,0,0h1.1c0,0,0,0,0,0v0.9c0,0.1,0.1,0.2,0.2,0.2H24c0.1,0,0.2-0.1,0.2-0.2v-2.7
						c0-0.1-0.1-0.2-0.2-0.2h-0.1c-0.1,0-0.2,0.1-0.2,0.2v0.9c0,0,0,0,0,0h-1.1c0,0,0,0,0,0v-1c0-0.2-0.1-0.3-0.3-0.3h-0.1
						c-0.2,0-0.3,0.1-0.3,0.3v2.9c0,0.2,0.1,0.3,0.3,0.3h0.1C22.3,107.6,22.5,107.4,22.5,107.3z"/>
				</g>
				<g>
					<path class="st4" d="M25,107.2c0.1-0.1,0.2-0.1,0.3-0.2c0.1-0.1,0.2-0.1,0.2-0.2c0,0,0,0,0,0v-0.7c0,0,0,0-0.1,0
						c-0.1,0-0.1,0.1-0.2,0.1c-0.1,0.1-0.2,0.1-0.3,0.2c-0.1,0.1-0.2,0.1-0.3,0.2c-0.1,0.1-0.2,0.1-0.2,0.1c0,0,0,0,0,0v0.7
						c0,0,0,0,0,0c0.1,0,0.2-0.1,0.2-0.1C24.8,107.3,24.9,107.2,25,107.2z"/>
				</g>
				<g>
					<path class="st4" d="M25.5,105C25.5,105,25.5,105,25.5,105c-0.1-0.1-0.2-0.1-0.2-0.2c-0.1-0.1-0.2-0.1-0.3-0.2
						c-0.1-0.1-0.2-0.1-0.3-0.2c-0.1-0.1-0.1-0.1-0.2-0.2c0,0-0.1,0-0.1,0v0.7c0,0,0,0,0,0c0.1,0.1,0.3,0.2,0.5,0.3
						c0.2,0.1,0.4,0.2,0.5,0.3c0,0,0,0,0,0V105z"/>
				</g>
				<g>
					<path class="st4" d="M26.2,103.9v-0.1c0,0,0,0,0,0h0.7c0,0,0,0,0,0V103c0,0,0,0,0,0h-0.7c0,0,0,0,0,0v-0.2
						c0-0.1-0.1-0.3-0.3-0.3h-0.1c-0.1,0-0.3,0.1-0.3,0.3v0.2c0,0,0,0,0,0h-1.2c0,0,0,0,0,0l0-0.2c0-0.1-0.2-0.2-0.3-0.2h0
						c-0.2,0-0.3,0.2-0.3,0.4l0,0.1c0,0,0,0,0,0h-0.4c-0.3,0-0.5,0-0.7-0.1c-0.1,0-0.1-0.1-0.2-0.1c-0.2-0.1-0.4,0.1-0.4,0.3v0.4
						c0,0,0,0,0,0c0.2,0.1,0.4,0.1,0.6,0.2c0.2,0,0.4,0,0.7,0h0.6c0,0,0,0,0,0l0,0.2c0,0.1,0.2,0.2,0.3,0.2h0c0.2,0,0.3-0.2,0.3-0.4
						c0,0,0,0,0,0h1c0,0,0,0,0,0v0.1c0,0.1,0.1,0.3,0.3,0.3h0.1C26.1,104.1,26.2,104,26.2,103.9z"/>
				</g>
				<g>
					<path class="st4" d="M25,108.6L25,108.6c0-0.1-0.1-0.2-0.2-0.2c-0.1,0-0.2,0-0.2,0c-0.2,0-0.3,0-0.5,0c-0.2,0-0.4,0-0.5,0
						c-0.2,0-0.4,0-0.5,0c-0.2,0-0.3,0-0.5,0c-0.2,0-0.3,0-0.4,0v0.5c0.2,0,0.4,0,0.7,0.1c0.3,0,0.5,0,0.8,0c0.3,0,0.5,0,0.8,0
						c0.2,0,0.3,0,0.5,0C24.9,108.8,25,108.7,25,108.6z"/>
				</g>
				<g>
					<path class="st4" d="M24,109.9c0.2,0,0.4,0,0.6,0c0.2,0,0.4,0,0.5,0v-0.4h0.3v0.3c0,0.2,0.1,0.3,0.3,0.3c0.2,0,0.3-0.1,0.3-0.3
						v-0.3h0.7c0.1,0,0.3-0.1,0.3-0.3v-0.1c0-0.1-0.1-0.3-0.3-0.3h-0.7v-0.4c0-0.2-0.1-0.3-0.3-0.3c-0.2,0-0.3,0.1-0.3,0.3v0.4h-3.5
						v0.6h2.7c0,0,0,0-0.1,0c-0.2,0-0.4,0-0.6,0c-0.2,0-0.4,0-0.6,0c-0.2,0-0.4,0-0.5,0v0.4c0.1,0,0.3,0,0.5,0
						C23.6,109.9,23.8,109.9,24,109.9z"/>
				</g>
				<g>
					<path class="st4" d="M26.7,112.7c-0.1,0-0.2-0.1-0.2-0.2l0-0.1l-0.1-2h-0.9c-0.3,0-0.6,0-1,0c-0.3,0-0.7,0-1,0
						c-0.3,0-0.6-0.1-0.9-0.1c-0.3,0-0.5-0.1-0.8-0.2v0.7c0.4,0.1,0.8,0.1,1.3,0.2c0.5,0,1,0.1,1.5,0.1c-0.3,0.1-0.5,0.2-0.8,0.3
						c-0.3,0.1-0.5,0.2-0.8,0.4c-0.2-0.1-0.5-0.3-0.7-0.4c-0.2-0.1-0.4-0.3-0.6-0.4v0.8c0.1,0.1,0.2,0.1,0.3,0.2
						c0.1,0.1,0.2,0.1,0.3,0.2c-0.1,0.1-0.2,0.1-0.3,0.2c-0.1,0.1-0.2,0.1-0.3,0.2v0.7c0.2-0.1,0.4-0.3,0.6-0.4
						c0.2-0.1,0.4-0.3,0.7-0.4c0.4,0.2,0.8,0.3,1.2,0.5c0.3,0.1,0.7,0.2,1,0.2c0.2,0,0.3-0.1,0.3-0.3v-1.8H26l0.1,2.1h0.6
						c0.1,0,0.2-0.1,0.2-0.2v-0.1C26.8,112.8,26.8,112.7,26.7,112.7z M25,112.3c-0.4-0.1-0.8-0.2-1.2-0.4c0.2-0.1,0.4-0.2,0.5-0.2
						c0.2-0.1,0.3-0.1,0.5-0.2v-0.6h0.1c0.1,0,0.1,0,0.1,0V112.3z"/>
				</g>
			</g>
			<g>
				<g>
					<path class="st4" d="M28.8,51.9c-0.1,0-0.2,0.1-0.2,0.2c0,0-0.1,0.1-0.1,0.1h-0.6c-0.5-0.8-1-1.7-1.4-2.5
						c0.1-0.2,0.2-0.3,0.3-0.5c0,0,0.1-0.1,0.1-0.1c0.1,0,0.2-0.1,0.3-0.1c0.1,0,0.1-0.1,0.2-0.2c0-0.1,0-0.2,0-0.4
						c-0.1-0.3-0.4-0.4-0.7-0.2c-0.1,0-0.2,0.1-0.2,0.2c-0.1,0.1-0.1,0.2,0,0.4c0,0,0,0,0,0c0.1,0.1,0,0.1,0,0.2
						c-0.1,0.1-0.1,0.2-0.2,0.3c-0.1,0.1-0.1,0.1-0.2,0.1c-0.6,0-1.1,0-1.7,0h-0.9c-0.2,0-0.4,0.1-0.5,0.3c-0.1,0.2-0.2,0.3-0.3,0.5
						c-0.2,0.3-0.4,0.6-0.6,1c-0.2,0.3-0.3,0.6-0.5,0.9c-0.1,0.2-0.1,0.4,0,0.6c0.1,0.2,0.2,0.4,0.4,0.6c0.1,0.1,0.2,0.3,0.2,0.4
						c0.1,0.2,0.3,0.5,0.4,0.7c0.1,0.2,0.3,0.4,0.4,0.6c0.1,0.2,0.3,0.3,0.5,0.3h2.5c0.1,0,0.1,0,0.2,0c0.1,0.2,0.2,0.4,0.4,0.6
						c-0.1,0.1-0.1,0.2-0.1,0.3c0,0.1,0.1,0.2,0.2,0.3c0.2,0.2,0.4,0.2,0.6,0.1c0.1-0.1,0.3-0.3,0.3-0.5c0-0.1-0.1-0.2-0.2-0.3
						c-0.1-0.1-0.2-0.2-0.4-0.1c-0.1-0.2-0.2-0.3-0.3-0.5c0-0.1,0-0.1,0-0.2c0.2-0.3,0.4-0.7,0.6-1c0.1-0.1,0.2-0.3,0.2-0.4
						c0.1-0.2,0.2-0.4,0.3-0.6c0.1-0.1,0.1-0.2,0.2-0.3c0,0,0-0.1,0.1-0.1h0.6c0.1,0.2,0.2,0.3,0.5,0.3c0.3,0,0.5-0.2,0.5-0.5
						C29.5,52,29.2,51.7,28.8,51.9z M24.9,54.8c-0.3,0-0.6,0-1,0c-0.1,0-0.2-0.1-0.2-0.2c0-0.1-0.1-0.2-0.1-0.3
						c0-0.2-0.1-0.3-0.2-0.5c0-0.1,0-0.1,0-0.2c0-0.1,0-0.1-0.1-0.2c-0.1-0.2-0.1-0.4-0.2-0.6c0-0.1-0.1-0.2-0.1-0.4
						c0-0.1,0-0.3,0-0.4c0.1-0.3,0.2-0.6,0.3-0.9c0.1-0.1,0.1-0.3,0.1-0.4c0-0.1,0.1-0.2,0.1-0.2c0-0.2,0.1-0.3,0.1-0.5
						c0-0.1,0.1-0.2,0.3-0.2c0.3,0,0.5,0,0.8,0h0.1C24.9,50,24.9,54.6,24.9,54.8z"/>
				</g>
				<g>
					<path class="st4" d="M26.3,57.2h-3.3v0.2c0,0.7,0,1.5,0,2.2c0,0.3,0,0.5,0.1,0.8c0.1,0.4,0.3,0.7,0.6,1c0,0,0,0,0,0
						c0.3,0.2,0.7,0.4,1.1,0.3h0c0.3,0,0.6-0.1,0.8-0.2c0.4-0.2,0.6-0.6,0.7-1c0-0.2,0.1-0.4,0.1-0.6c0-0.2,0.1-0.5,0.1-0.7v-1.9
						C26.5,57.2,26.5,57.2,26.3,57.2z M25.6,59.8c0,0.2-0.1,0.4-0.2,0.6c-0.1,0.2-0.3,0.3-0.5,0.3c-0.1,0-0.2,0-0.2,0
						c-0.3,0-0.6-0.2-0.7-0.5c-0.1-0.3-0.1-0.6-0.1-0.9v-0.9h1.8c0,0.1,0,0.1,0,0.2V59.8z"/>
				</g>
				<g>
					<path class="st4" d="M24.1,63.4c-0.2,0-0.4,0-0.6,0c-0.2,0-0.4,0-0.6,0c0-0.4,0-0.8,0-1.1c0,0,0.1,0,0.1,0c1.1,0,2.1,0,3.2,0
						c0.2,0,0.2,0,0.2,0.2c0,1.2,0,2.3,0,3.5c0,0.2,0,0.2-0.2,0.2c-0.2,0-0.4,0-0.7,0c-0.1-0.1-0.1-0.2-0.1-0.3c0-0.7,0-1.5,0-2.2
						c0-0.1,0-0.1,0-0.2c-0.2,0-0.4,0-0.5,0c0,0.7,0,1.4,0,2.1c-0.1,0-0.1,0-0.1,0c-0.2,0-0.4,0-0.6,0c-0.2,0-0.2,0-0.2-0.2
						c0-0.5,0-1,0-1.5C24.1,63.7,24.1,63.5,24.1,63.4z"/>
				</g>
				<g>
					<path class="st4" d="M26.5,75.4v-0.1c0-0.1,0-0.1-0.1-0.1h-3.3c-0.1,0-0.1,0-0.2,0V78c0,0.1,0,0.2,0.1,0.4
						c0.1,0.2,0.3,0.5,0.6,0.5c0.2,0,0.4,0,0.5,0c0.3,0,0.5-0.1,0.6-0.5c0,0,0,0,0.1,0.1c0.1,0.3,0.2,0.4,0.6,0.4c0.2,0,0.3,0,0.5,0
						c0.3,0,0.5-0.2,0.6-0.4c0-0.1,0.1-0.3,0.1-0.4C26.5,77.1,26.5,76.3,26.5,75.4z M24.5,77.9c0,0.2-0.1,0.3-0.3,0.3
						c-0.1,0-0.3,0-0.5,0c-0.2,0-0.2-0.1-0.3-0.2c0-0.1,0-0.2,0-0.3c0-0.5,0-1.1,0-1.6v-0.2c0.2,0,0.8,0,1.1,0V77.9z M26,77.9
						C26,77.9,26,77.9,26,77.9c0,0.2-0.1,0.3-0.2,0.3c-0.2,0-0.4,0-0.5,0c-0.1,0-0.1,0-0.1-0.1c0,0,0-0.1,0-0.2c0-0.7,0-1.4,0-2.1
						H26c0,0,0,0.1,0,0.1V77.9z"/>
				</g>
				<g>
					<path class="st4" d="M26.5,71.2c-0.1-0.3-0.3-0.6-0.6-0.6c-0.8,0-1.5,0-2.3,0c-0.2,0-0.4,0-0.5,0.2c-0.1,0.1-0.1,0.3-0.1,0.5
						v2.9c0,0.2,0.1,0.5,0.5,0.6c0.2,0,0.3,0,0.5,0c0.7,0,1.4,0,2,0c0.3,0,0.5-0.2,0.5-0.5c0-0.2,0-0.3,0-0.5c0-0.5,0-0.9,0-1.4
						C26.5,72,26.5,71.6,26.5,71.2z M26,74.1h-2.5v-2.8c0.1,0,1.9-0.1,2.5,0C26,71.4,26,73.8,26,74.1z"/>
				</g>
				<g>
					<path class="st4" d="M26.5,79.8c-0.1-0.2-0.1-0.4-0.4-0.5c-0.2,0-0.3-0.1-0.5-0.1c-0.7,0-1.4-0.1-2.1,0c-0.2,0-0.3,0.1-0.4,0.2
						c-0.1,0.1-0.1,0.3-0.1,0.4v2.8c0,0.2,0.2,0.5,0.4,0.6c0.1,0,0.2,0,0.3,0c0.2,0,0.5,0,0.7,0h1.5c0.3,0,0.6-0.2,0.7-0.5
						c0-0.2,0-0.4,0-0.5c0-0.6,0-1.2,0-1.8C26.5,80.3,26.5,80.1,26.5,79.8z M26,82.8h-2.4c0-0.1-0.1-2.3,0-2.8c0.1,0,2.1-0.1,2.5,0
						V82.8z"/>
				</g>
				<g>
					<path class="st4" d="M26.5,66.8v-0.1c0-0.1,0-0.1-0.1-0.1h-3.3c0,0-0.1,0-0.2,0c0,0.2,0,0.4,0,0.6h1.3c0,0.3,0,0.7,0,1
						c0,0,0,0.1-0.1,0.1c-0.3,0.4-0.7,0.7-1,1.1c-0.2,0.2-0.3,0.3-0.2,0.6c0,0.2,0,0.4,0,0.5c0,0,0,0,0,0c0.4-0.5,0.8-1,1.3-1.5
						c0,0.1,0,0.3,0,0.4c0,0.2,0,0.3,0.1,0.5c0.1,0.2,0.2,0.3,0.5,0.3c0.4,0,0.7,0,1.1,0c0.2,0,0.3-0.1,0.4-0.3
						c0.1-0.2,0.1-0.4,0.1-0.6C26.5,68.5,26.5,67.6,26.5,66.8z M26,69.2c0,0.2-0.1,0.3-0.3,0.3h-0.6c0,0-0.1,0-0.1,0
						c-0.1,0-0.1-0.1-0.1-0.2c0,0,0-0.1,0-0.1c0-0.5,0-1,0-1.5c0-0.2,0-0.3,0-0.5H26c0,0.1,0,0.1,0,0.1V69.2z"/>
				</g>
				<g>
					<path class="st4" d="M23,85.3c1,0,2,0,3,0c0-0.3,0-0.5,0-0.8c0-0.3,0-0.5,0-0.8c0.1,0,0.2,0,0.3,0c0.1,0,0.2,0,0.3,0
						c0,0.1,0,0.1,0,0.2c0,1.1,0,2.3,0,3.4c0,0,0,0.1,0,0.1c0,0.1,0,0.1-0.1,0.1c-0.1,0-0.2,0-0.4,0c0-0.1,0-0.1,0-0.2
						c0-0.4,0-0.8,0-1.2c0,0,0-0.1,0-0.1c0-0.1,0-0.1-0.1-0.1c-0.1,0-0.1,0-0.2,0c-0.9,0-1.7,0-2.6,0c-0.1,0-0.1,0-0.2,0
						C22.9,85.7,22.9,85.4,23,85.3z"/>
				</g>
				<g>
					<path class="st4" d="M24.8,54.5v-4.4c0-0.1,0-0.1-0.1-0.1h-0.8c-0.1,0-0.1,0-0.1,0.1c-0.1,0.2-0.1,0.4-0.2,0.6
						c0,0.1-0.1,0.2-0.1,0.3c-0.1,0.2-0.1,0.3-0.1,0.5c-0.1,0.2-0.2,0.5-0.2,0.7c0,0.1-0.1,0.2,0,0.3c0.1,0.2,0.2,0.5,0.2,0.8
						c0.1,0.2,0.1,0.3,0.2,0.5c0,0.1,0,0.1,0.1,0.2c0,0.2,0.1,0.4,0.2,0.7c0,0,0,0.1,0,0.1c0,0,0.1,0.1,0.1,0.1c0.3,0,0.5,0,0.8,0
						C24.8,54.7,24.8,54.7,24.8,54.5C24.8,54.6,24.8,54.5,24.8,54.5z M24.5,54.4h-0.4c-0.1,0-0.1,0-0.1-0.1c0,0,0,0,0,0
						c-0.1-0.2-0.1-0.4-0.2-0.6c0-0.1-0.1-0.2-0.1-0.4c-0.1-0.2-0.1-0.4-0.2-0.6c0-0.1-0.1-0.2-0.1-0.3c0-0.1,0-0.2,0-0.4
						c0.1-0.2,0.1-0.5,0.2-0.7c0.1-0.2,0.1-0.4,0.2-0.6c0-0.2,0.1-0.3,0.2-0.5c0-0.1,0.1-0.1,0.2-0.1h0.3
						C24.5,50.3,24.5,54.1,24.5,54.4z"/>
				</g>
			</g>
		</g>
		<g>
			<path d="M7,49.5H6v-0.7h3.1v1.1c0,0.4-0.1,0.7-0.2,0.9c-0.2,0.2-0.4,0.3-0.7,0.3c-0.3,0-0.6-0.1-0.8-0.3C7.1,50.6,7,50.2,7,49.9
				V49.5z M8.5,49.5h-1v0.3c0,0.4,0.2,0.6,0.5,0.6c0.3,0,0.5-0.2,0.5-0.6V49.5z"/>
		</g>
		<g>
			<path d="M9.1,64.3l-2-1H6v-0.7h1.1l2-1v0.7l-1.2,0.6c-0.1,0-0.1,0.1-0.2,0.1v0c0.1,0,0.1,0,0.2,0c0,0,0.2,0.1,0.5,0.2l0.8,0.4
				V64.3z"/>
		</g>
		<g>
			<path d="M8.5,75.6H6V75h2.5v-0.9h0.5v2.5H8.5V75.6z"/>
		</g>
		<g>
			<path d="M6,88.4h1.3V87H6v-0.7h3.1V87H7.8v1.4h1.2V89H6V88.4z"/>
		</g>
		<g>
			<path d="M5.9,100c0-0.5,0.1-0.8,0.4-1.1c0.3-0.3,0.7-0.4,1.1-0.4c0.5,0,0.9,0.1,1.2,0.4c0.3,0.3,0.5,0.7,0.5,1.2
				c0,0.5-0.1,0.8-0.4,1.1c-0.3,0.3-0.7,0.4-1.1,0.4c-0.5,0-0.9-0.1-1.2-0.4C6.1,100.9,5.9,100.5,5.9,100z M8.5,100.1
				c0-0.3-0.1-0.5-0.3-0.7c-0.2-0.2-0.4-0.2-0.7-0.2c-0.3,0-0.6,0.1-0.7,0.2c-0.2,0.2-0.3,0.4-0.3,0.6c0,0.3,0.1,0.5,0.3,0.6
				c0.2,0.2,0.4,0.2,0.7,0.2c0.3,0,0.6-0.1,0.8-0.2C8.5,100.6,8.5,100.3,8.5,100.1z"/>
		</g>
		<g>
			<path d="M6,113.2l2.1-1.5c0,0,0.1-0.1,0.2-0.1v0c-0.2,0-0.3,0-0.5,0H6V111h3.1v0.7l-1,0.7c-0.3,0.2-0.6,0.4-0.8,0.5
				c-0.2,0.1-0.4,0.2-0.5,0.3v0c0.1,0,0.2,0,0.4,0h1.8v0.6H6V113.2z"/>
		</g>
	</g>
	
		<rect x="40.3" y="131.1" transform="matrix(-1.836970e-16 1 -1 -1.836970e-16 183.6495 91.8371)" class="st54" width="11.3" height="13.3"/>
	
		<rect x="40.3" y="131.1" transform="matrix(-1.836970e-16 1 -1 -1.836970e-16 183.6495 91.8371)" class="st54" width="11.3" height="13.3"/>
	<g>
		
			<rect x="41.7" y="133.5" transform="matrix(-1.836970e-16 1 -1 -1.836970e-16 181.3757 86.6385)" class="st17" width="11.3" height="1"/>
		
			<rect x="38.8" y="133.5" transform="matrix(-1.836970e-16 1 -1 -1.836970e-16 178.4509 89.5633)" class="st17" width="11.3" height="1"/>
	</g>
	
		<rect x="40.3" y="131.1" transform="matrix(-1.836970e-16 1 -1 -1.836970e-16 183.6495 91.8371)" class="st54" width="11.3" height="13.3"/>
	
		<rect x="45" y="135.9" transform="matrix(-1.836970e-16 1 -1 -1.836970e-16 188.4148 85.0092)" class="st54" width="13.4" height="1.7"/>
	
		<rect x="33.4" y="135.9" transform="matrix(-1.836970e-16 1 -1 -1.836970e-16 176.8217 96.6023)" class="st54" width="13.4" height="1.7"/>
	<g>
		
			<rect x="57.4" y="127.4" transform="matrix(-1.836970e-16 1 -1 -1.836970e-16 200.7607 74.7259)" class="st54" width="11.3" height="20.8"/>
		
			<rect x="59.1" y="130.6" transform="matrix(-1.836970e-16 1 -1 -1.836970e-16 200.7607 74.7259)" class="st7" width="7.8" height="14.3"/>
		
			<rect x="62" y="133.5" transform="matrix(-1.836970e-16 1 -1 -1.836970e-16 203.3605 72.1261)" class="st55" width="7.2" height="8.4"/>
	</g>
	<g>
		<path class="st17" d="M64.6,129.4c0-0.4,0.1-0.8,0.4-1.1c0.3-0.3,0.6-0.4,1-0.4c0.4,0,0.7,0.1,1,0.4c0.2,0.3,0.4,0.6,0.4,1
			c0,0.4-0.1,0.8-0.4,1.1c-0.3,0.3-0.6,0.4-1,0.4c-0.4,0-0.7-0.1-1-0.4C64.7,130.2,64.6,129.8,64.6,129.4z M65.3,129.4
			c0,0.3,0.1,0.5,0.2,0.7c0.1,0.2,0.3,0.3,0.6,0.3c0.2,0,0.4-0.1,0.6-0.3c0.1-0.2,0.2-0.4,0.2-0.7c0-0.3-0.1-0.5-0.2-0.7
			c-0.1-0.2-0.3-0.3-0.5-0.3c-0.2,0-0.4,0.1-0.6,0.3C65.3,128.8,65.3,129.1,65.3,129.4z"/>
		<path class="st17" d="M69.3,128.4h-1v0.7h0.9v0.5h-0.9v1.1h-0.6v-2.9h1.6V128.4z"/>
		<path class="st17" d="M71.2,128.4h-1v0.7h0.9v0.5h-0.9v1.1h-0.6v-2.9h1.6V128.4z"/>
	</g>
	<g>
		<path class="st17" d="M56.4,129.4c0-0.4,0.1-0.8,0.4-1.1c0.3-0.3,0.6-0.4,1-0.4c0.4,0,0.7,0.1,1,0.4c0.2,0.3,0.4,0.6,0.4,1
			c0,0.4-0.1,0.8-0.4,1.1c-0.3,0.3-0.6,0.4-1,0.4c-0.4,0-0.7-0.1-1-0.4C56.5,130.2,56.4,129.8,56.4,129.4z M57,129.4
			c0,0.3,0.1,0.5,0.2,0.7c0.1,0.2,0.3,0.3,0.6,0.3c0.2,0,0.4-0.1,0.6-0.3c0.1-0.2,0.2-0.4,0.2-0.7c0-0.3-0.1-0.5-0.2-0.7
			c-0.1-0.2-0.3-0.3-0.5-0.3c-0.2,0-0.4,0.1-0.6,0.3C57.1,128.8,57,129.1,57,129.4z"/>
		<path class="st17" d="M62,130.8h-0.6l-1.2-1.8c-0.1-0.1-0.1-0.2-0.1-0.2h0c0,0.1,0,0.3,0,0.5v1.6h-0.6v-2.9h0.7l1.2,1.8
			c0.1,0.1,0.1,0.2,0.1,0.2h0c0-0.1,0-0.2,0-0.4v-1.6H62V130.8z"/>
	</g>
	<g>
		<path class="st17" d="M44.3,127.5c0.1,0.1,0.2,0.1,0.3,0.1c0.1,0,0.1,0,0.2-0.1c0,0,0.1-0.1,0.1-0.2c0-0.1,0-0.1-0.1-0.2
			c-0.1,0-0.1-0.1-0.2-0.1h-0.1V127h0.1c0.2,0,0.3-0.1,0.3-0.2c0-0.1-0.1-0.2-0.2-0.2c-0.1,0-0.2,0-0.3,0.1v-0.2
			c0.1-0.1,0.2-0.1,0.4-0.1c0.1,0,0.2,0,0.3,0.1c0.1,0.1,0.1,0.2,0.1,0.3c0,0.2-0.1,0.3-0.3,0.4v0c0.1,0,0.2,0,0.2,0.1
			c0.1,0.1,0.1,0.1,0.1,0.2c0,0.1,0,0.2-0.2,0.3c-0.1,0.1-0.2,0.1-0.4,0.1c-0.1,0-0.3,0-0.4-0.1V127.5z"/>
		<path class="st17" d="M45.3,127.7c0,0,0-0.1,0.1-0.1c0,0,0.1,0,0.1,0c0,0,0.1,0,0.1,0c0,0,0.1,0.1,0.1,0.1c0,0,0,0.1-0.1,0.1
			c0,0-0.1,0-0.1,0c0,0-0.1,0-0.1,0C45.4,127.8,45.3,127.8,45.3,127.7z"/>
		<path class="st17" d="M45.9,127.8v-0.3c0.1,0.1,0.2,0.1,0.3,0.1c0.1,0,0.2,0,0.2-0.1c0,0,0.1-0.1,0.1-0.2c0-0.1-0.1-0.2-0.3-0.2
			c-0.1,0-0.2,0-0.3,0l0.1-0.8h0.8v0.2h-0.5l0,0.3c0.1,0,0.1,0,0.1,0c0.1,0,0.3,0,0.3,0.1c0.1,0.1,0.1,0.2,0.1,0.3
			c0,0.1,0,0.3-0.1,0.4c-0.1,0.1-0.2,0.1-0.4,0.1C46.1,127.9,45.9,127.9,45.9,127.8z"/>
		<path class="st17" d="M48.1,126.4l-0.5,1.4h-0.3l-0.5-1.4h0.3l0.3,1c0,0.1,0,0.1,0,0.1h0c0,0,0-0.1,0-0.1l0.3-1H48.1z"/>
		<path class="st17" d="M48.7,127.4h-0.5v-0.2h0.5V127.4z"/>
		<path class="st17" d="M48.9,127.8v-0.3c0.1,0.1,0.2,0.1,0.3,0.1c0.1,0,0.2,0,0.2-0.1s0.1-0.1,0.1-0.2c0-0.1-0.1-0.2-0.3-0.2
			c-0.1,0-0.2,0-0.3,0l0.1-0.8h0.8v0.2h-0.5l0,0.3c0.1,0,0.1,0,0.1,0c0.1,0,0.3,0,0.3,0.1c0.1,0.1,0.1,0.2,0.1,0.3
			c0,0.1,0,0.3-0.1,0.4c-0.1,0.1-0.2,0.1-0.4,0.1C49.1,127.9,49,127.9,48.9,127.8z"/>
		<path class="st17" d="M51.2,126.4l-0.5,1.4h-0.3l-0.5-1.4h0.3l0.3,1c0,0.1,0,0.1,0,0.1h0c0,0,0-0.1,0-0.1l0.3-1H51.2z"/>
	</g>
	<g>
		<path class="st17" d="M33.2,128.4v-0.9c0-0.1,0-0.2,0-0.3h0c0,0.1,0,0.2,0,0.2l-0.4,1h-0.2l-0.4-1c0,0,0-0.1,0-0.2h0
			c0,0.1,0,0.2,0,0.4v0.8h-0.3v-1.4h0.4l0.3,0.9c0,0.1,0,0.1,0.1,0.2h0c0-0.1,0-0.1,0.1-0.2l0.3-0.9h0.4v1.4H33.2z"/>
		<path class="st17" d="M34,128.1h0.6v0.2h-1v-0.1c0-0.1,0-0.1,0-0.2c0-0.1,0.1-0.1,0.1-0.2c0-0.1,0.1-0.1,0.2-0.2
			c0.1-0.1,0.2-0.1,0.2-0.2c0-0.1,0.1-0.1,0.1-0.2c0-0.1-0.1-0.2-0.2-0.2c-0.1,0-0.2,0-0.4,0.1V127c0.1-0.1,0.3-0.1,0.4-0.1
			c0.1,0,0.3,0,0.3,0.1c0.1,0.1,0.1,0.2,0.1,0.3c0,0.1,0,0.1,0,0.2c0,0.1-0.1,0.1-0.1,0.2c0,0.1-0.1,0.1-0.2,0.2
			C34.2,127.9,34.1,128,34,128.1C34,128.1,34,128.1,34,128.1z"/>
		<path class="st17" d="M35.4,127.9h-0.5v-0.2h0.5V127.9z"/>
	</g>
	<g>
		<path class="st17" d="M26.7,128.4v-0.9c0-0.1,0-0.2,0-0.3h0c0,0.1,0,0.2,0,0.2l-0.4,1h-0.2l-0.4-1c0,0,0-0.1,0-0.2h0
			c0,0.1,0,0.2,0,0.4v0.8h-0.3v-1.4h0.4l0.3,0.9c0,0.1,0,0.1,0.1,0.2h0c0-0.1,0-0.1,0.1-0.2l0.3-0.9H27v1.4H26.7z"/>
		<path class="st17" d="M27.6,128.1h0.6v0.2h-1v-0.1c0-0.1,0-0.1,0-0.2c0-0.1,0.1-0.1,0.1-0.2c0-0.1,0.1-0.1,0.2-0.2
			c0.1-0.1,0.2-0.1,0.2-0.2c0-0.1,0.1-0.1,0.1-0.2c0-0.1-0.1-0.2-0.2-0.2c-0.1,0-0.2,0-0.4,0.1V127c0.1-0.1,0.3-0.1,0.4-0.1
			c0.1,0,0.3,0,0.3,0.1c0.1,0.1,0.1,0.2,0.1,0.3c0,0.1,0,0.1,0,0.2c0,0.1-0.1,0.1-0.1,0.2c0,0.1-0.1,0.1-0.2,0.2
			C27.7,127.9,27.7,128,27.6,128.1C27.6,128.1,27.6,128.1,27.6,128.1z"/>
		<path class="st17" d="M29.4,127.9H29v0.4h-0.2v-0.4h-0.4v-0.2h0.4v-0.4H29v0.4h0.4V127.9z"/>
	</g>
	<g>
		<path class="st17" d="M20.2,128.4v-0.9c0-0.1,0-0.2,0-0.3h0c0,0.1,0,0.2,0,0.2l-0.4,1h-0.2l-0.4-1c0,0,0-0.1,0-0.2h0
			c0,0.1,0,0.2,0,0.4v0.8h-0.3v-1.4h0.4l0.3,0.9c0,0.1,0,0.1,0.1,0.2h0c0-0.1,0-0.1,0.1-0.2l0.3-0.9h0.4v1.4H20.2z"/>
		<path class="st17" d="M21.4,126.9v1.5H21v-1.1c0,0-0.1,0.1-0.2,0.1c-0.1,0-0.1,0-0.2,0v-0.3c0.2,0,0.3-0.1,0.4-0.2H21.4z"/>
		<path class="st17" d="M22.3,127.9h-0.5v-0.2h0.5V127.9z"/>
	</g>
	<g>
		<path class="st17" d="M12.8,128.4v-0.9c0-0.1,0-0.2,0-0.3h0c0,0.1,0,0.2,0,0.2l-0.4,1h-0.2l-0.4-1c0,0,0-0.1,0-0.2h0
			c0,0.1,0,0.2,0,0.4v0.8h-0.3v-1.4h0.4l0.3,0.9c0,0.1,0,0.1,0.1,0.2h0c0-0.1,0-0.1,0.1-0.2l0.3-0.9h0.4v1.4H12.8z"/>
		<path class="st17" d="M14,126.9v1.5h-0.3v-1.1c0,0-0.1,0.1-0.2,0.1c-0.1,0-0.1,0-0.2,0v-0.3c0.2,0,0.3-0.1,0.4-0.2H14z"/>
		<path class="st17" d="M15.5,127.9h-0.4v0.4h-0.2v-0.4h-0.4v-0.2h0.4v-0.4h0.2v0.4h0.4V127.9z"/>
	</g>
	<g>
		
			<rect x="25" y="129.4" transform="matrix(-1.836970e-16 1 -1 -1.836970e-16 168.4332 104.9908)" class="st56" width="13.4" height="14.6"/>
		
			<rect x="27.1" y="130.7" transform="matrix(-1.836970e-16 1 -1 -1.836970e-16 169.7511 106.3088)" class="st57" width="9.3" height="14.6"/>
		<g>
			<g>
				<circle class="st11" cx="35" cy="138" r="2.7"/>
				<circle class="st58" cx="35" cy="138" r="2.5"/>
				<path class="st59" d="M32.6,138.2v-0.2c0-0.2,0.1-0.3,0.3-0.3H37c0.2,0,0.3,0.1,0.3,0.3v0.2c0,0.2-0.1,0.3-0.3,0.3h-4.1
					C32.8,138.4,32.6,138.3,32.6,138.2z"/>
				<path class="st59" d="M34.9,136.3L34.9,136.3c0.3,0,0.4,0.2,0.4,0.4v2.8c0,0.2-0.2,0.4-0.4,0.4h-0.1c-0.2,0-0.4-0.2-0.4-0.4
					v-2.8C34.6,136.4,34.7,136.3,34.9,136.3z"/>
			</g>
			<g>
				<circle class="st11" cx="28.5" cy="138" r="2.7"/>
				<circle class="st58" cx="28.5" cy="138" r="2.5"/>
				<path class="st59" d="M26.2,138.2v-0.2c0-0.2,0.1-0.3,0.3-0.3h4.1c0.2,0,0.3,0.1,0.3,0.3v0.2c0,0.2-0.1,0.3-0.3,0.3h-4.1
					C26.3,138.4,26.2,138.3,26.2,138.2z"/>
				<path class="st59" d="M28.4,136.3L28.4,136.3c0.3,0,0.4,0.2,0.4,0.4v2.8c0,0.2-0.2,0.4-0.4,0.4h-0.1c-0.2,0-0.4-0.2-0.4-0.4
					v-2.8C28.1,136.4,28.2,136.3,28.4,136.3z"/>
			</g>
		</g>
	</g>
	<g>
		
			<rect x="10.3" y="129.4" transform="matrix(-1.836970e-16 1 -1 -1.836970e-16 153.7255 119.6985)" class="st56" width="13.4" height="14.6"/>
		
			<rect x="12.4" y="130.7" transform="matrix(-1.836970e-16 1 -1 -1.836970e-16 155.0434 121.0165)" class="st57" width="9.3" height="14.6"/>
		<g>
			<g>
				<circle class="st11" cx="20.2" cy="138" r="2.7"/>
				<circle class="st58" cx="20.2" cy="138" r="2.5"/>
				<path class="st59" d="M17.9,138.2v-0.2c0-0.2,0.1-0.3,0.3-0.3h4.1c0.2,0,0.3,0.1,0.3,0.3v0.2c0,0.2-0.1,0.3-0.3,0.3h-4.1
					C18.1,138.4,17.9,138.3,17.9,138.2z"/>
				<path class="st59" d="M20.2,136.3L20.2,136.3c0.3,0,0.4,0.2,0.4,0.4v2.8c0,0.2-0.2,0.4-0.4,0.4h-0.1c-0.2,0-0.4-0.2-0.4-0.4
					v-2.8C19.8,136.4,20,136.3,20.2,136.3z"/>
			</g>
			<g>
				<circle class="st11" cx="13.8" cy="138" r="2.7"/>
				<circle class="st58" cx="13.8" cy="138" r="2.5"/>
				<path class="st59" d="M11.5,138.2v-0.2c0-0.2,0.1-0.3,0.3-0.3h4.1c0.2,0,0.3,0.1,0.3,0.3v0.2c0,0.2-0.1,0.3-0.3,0.3h-4.1
					C11.6,138.4,11.5,138.3,11.5,138.2z"/>
				<path class="st59" d="M13.7,136.3L13.7,136.3c0.3,0,0.4,0.2,0.4,0.4v2.8c0,0.2-0.2,0.4-0.4,0.4h-0.1c-0.2,0-0.4-0.2-0.4-0.4
					v-2.8C13.4,136.4,13.5,136.3,13.7,136.3z"/>
			</g>
		</g>
	</g>
	<g>
		
			<rect x="43.9" y="134.8" transform="matrix(-1.836970e-16 1 -1 -1.836970e-16 183.0838 88.1509)" class="st60" width="7" height="1.6"/>
		
			<rect x="40.8" y="134.8" transform="matrix(-1.836970e-16 1 -1 -1.836970e-16 179.9634 91.2713)" class="st60" width="7" height="1.6"/>
	</g>
	<g>
		<path class="st61" d="M67,30.8v-2.1c0-0.5,0.4-0.9,0.9-0.9H70c0.5,0,0.9,0.4,0.9,0.9v2.1c0,0.5-0.4,0.9-0.9,0.9h-2.1
			C67.4,31.8,67,31.3,67,30.8z"/>
		<g>
			<path class="st62" d="M68.6,30v-0.4c0-0.1,0.1-0.2,0.2-0.2h0.4c0.1,0,0.2,0.1,0.2,0.2V30c0,0.1-0.1,0.2-0.2,0.2h-0.4
				C68.6,30.2,68.6,30.1,68.6,30z"/>
			<path class="st63" d="M68.6,29.9v-0.3c0-0.1,0.1-0.1,0.1-0.1h0.3c0.1,0,0.1,0.1,0.1,0.1v0.3c0,0.1-0.1,0.1-0.1,0.1h-0.3
				C68.7,30.1,68.6,30,68.6,29.9z"/>
		</g>
		<path class="st64" d="M67,26.9v-2.1c0-0.5,0.4-0.9,0.9-0.9H70c0.5,0,0.9,0.4,0.9,0.9v2.1c0,0.5-0.4,0.9-0.9,0.9h-2.1
			C67.4,27.8,67,27.4,67,26.9z"/>
		<path class="st65" d="M67,22.9v-2.1c0-0.5,0.4-0.9,0.9-0.9H70c0.5,0,0.9,0.4,0.9,0.9v2.1c0,0.5-0.4,0.9-0.9,0.9h-2.1
			C67.4,23.8,67,23.4,67,22.9z"/>
		<g>
			<path class="st62" d="M68.6,26v-0.4c0-0.1,0.1-0.2,0.2-0.2h0.4c0.1,0,0.2,0.1,0.2,0.2V26c0,0.1-0.1,0.2-0.2,0.2h-0.4
				C68.6,26.2,68.6,26.1,68.6,26z"/>
			<path class="st63" d="M68.6,26v-0.3c0-0.1,0.1-0.1,0.1-0.1h0.3c0.1,0,0.1,0.1,0.1,0.1V26c0,0.1-0.1,0.1-0.1,0.1h-0.3
				C68.7,26.1,68.6,26,68.6,26z"/>
		</g>
		<g>
			<path class="st62" d="M68.6,22v-0.4c0-0.1,0.1-0.2,0.2-0.2h0.4c0.1,0,0.2,0.1,0.2,0.2V22c0,0.1-0.1,0.2-0.2,0.2h-0.4
				C68.6,22.2,68.6,22.1,68.6,22z"/>
			<path class="st63" d="M68.6,22v-0.3c0-0.1,0.1-0.1,0.1-0.1h0.3c0.1,0,0.1,0.1,0.1,0.1V22c0,0.1-0.1,0.1-0.1,0.1h-0.3
				C68.7,22.1,68.6,22.1,68.6,22z"/>
		</g>
	</g>
	<g>
		<path class="st61" d="M63,30.8v-2.1c0-0.5,0.4-0.9,0.9-0.9H66c0.5,0,0.9,0.4,0.9,0.9v2.1c0,0.5-0.4,0.9-0.9,0.9h-2.1
			C63.4,31.8,63,31.3,63,30.8z"/>
		<g>
			<path class="st62" d="M64.6,30v-0.4c0-0.1,0.1-0.2,0.2-0.2h0.4c0.1,0,0.2,0.1,0.2,0.2V30c0,0.1-0.1,0.2-0.2,0.2h-0.4
				C64.7,30.2,64.6,30.1,64.6,30z"/>
			<path class="st63" d="M64.7,29.9v-0.3c0-0.1,0.1-0.1,0.1-0.1h0.3c0.1,0,0.1,0.1,0.1,0.1v0.3c0,0.1-0.1,0.1-0.1,0.1h-0.3
				C64.7,30.1,64.7,30,64.7,29.9z"/>
		</g>
		<path class="st64" d="M63,26.9v-2.1c0-0.5,0.4-0.9,0.9-0.9H66c0.5,0,0.9,0.4,0.9,0.9v2.1c0,0.5-0.4,0.9-0.9,0.9h-2.1
			C63.4,27.8,63,27.4,63,26.9z"/>
		<path class="st65" d="M63,22.9v-2.1c0-0.5,0.4-0.9,0.9-0.9H66c0.5,0,0.9,0.4,0.9,0.9v2.1c0,0.5-0.4,0.9-0.9,0.9h-2.1
			C63.4,23.8,63,23.4,63,22.9z"/>
		<g>
			<path class="st62" d="M64.6,26v-0.4c0-0.1,0.1-0.2,0.2-0.2h0.4c0.1,0,0.2,0.1,0.2,0.2V26c0,0.1-0.1,0.2-0.2,0.2h-0.4
				C64.7,26.2,64.6,26.1,64.6,26z"/>
			<path class="st63" d="M64.7,26v-0.3c0-0.1,0.1-0.1,0.1-0.1h0.3c0.1,0,0.1,0.1,0.1,0.1V26c0,0.1-0.1,0.1-0.1,0.1h-0.3
				C64.7,26.1,64.7,26,64.7,26z"/>
		</g>
		<g>
			<path class="st62" d="M64.6,22v-0.4c0-0.1,0.1-0.2,0.2-0.2h0.4c0.1,0,0.2,0.1,0.2,0.2V22c0,0.1-0.1,0.2-0.2,0.2h-0.4
				C64.7,22.2,64.6,22.1,64.6,22z"/>
			<path class="st63" d="M64.7,22v-0.3c0-0.1,0.1-0.1,0.1-0.1h0.3c0.1,0,0.1,0.1,0.1,0.1V22c0,0.1-0.1,0.1-0.1,0.1h-0.3
				C64.7,22.1,64.7,22.1,64.7,22z"/>
		</g>
	</g>
	<g>
		<path class="st61" d="M59,30.8v-2.1c0-0.5,0.4-0.9,0.9-0.9H62c0.5,0,0.9,0.4,0.9,0.9v2.1c0,0.5-0.4,0.9-0.9,0.9h-2.1
			C59.4,31.8,59,31.3,59,30.8z"/>
		<g>
			<path class="st62" d="M60.6,30v-0.4c0-0.1,0.1-0.2,0.2-0.2h0.4c0.1,0,0.2,0.1,0.2,0.2V30c0,0.1-0.1,0.2-0.2,0.2h-0.4
				C60.7,30.2,60.6,30.1,60.6,30z"/>
			<path class="st63" d="M60.7,29.9v-0.3c0-0.1,0.1-0.1,0.1-0.1h0.3c0.1,0,0.1,0.1,0.1,0.1v0.3c0,0.1-0.1,0.1-0.1,0.1h-0.3
				C60.7,30.1,60.7,30,60.7,29.9z"/>
		</g>
		<path class="st64" d="M59,26.9v-2.1c0-0.5,0.4-0.9,0.9-0.9H62c0.5,0,0.9,0.4,0.9,0.9v2.1c0,0.5-0.4,0.9-0.9,0.9h-2.1
			C59.4,27.8,59,27.4,59,26.9z"/>
		<path class="st65" d="M59,22.9v-2.1c0-0.5,0.4-0.9,0.9-0.9H62c0.5,0,0.9,0.4,0.9,0.9v2.1c0,0.5-0.4,0.9-0.9,0.9h-2.1
			C59.4,23.8,59,23.4,59,22.9z"/>
		<g>
			<path class="st62" d="M60.6,26v-0.4c0-0.1,0.1-0.2,0.2-0.2h0.4c0.1,0,0.2,0.1,0.2,0.2V26c0,0.1-0.1,0.2-0.2,0.2h-0.4
				C60.7,26.2,60.6,26.1,60.6,26z"/>
			<path class="st63" d="M60.7,26v-0.3c0-0.1,0.1-0.1,0.1-0.1h0.3c0.1,0,0.1,0.1,0.1,0.1V26c0,0.1-0.1,0.1-0.1,0.1h-0.3
				C60.7,26.1,60.7,26,60.7,26z"/>
		</g>
		<g>
			<path class="st62" d="M60.6,22v-0.4c0-0.1,0.1-0.2,0.2-0.2h0.4c0.1,0,0.2,0.1,0.2,0.2V22c0,0.1-0.1,0.2-0.2,0.2h-0.4
				C60.7,22.2,60.6,22.1,60.6,22z"/>
			<path class="st63" d="M60.7,22v-0.3c0-0.1,0.1-0.1,0.1-0.1h0.3c0.1,0,0.1,0.1,0.1,0.1V22c0,0.1-0.1,0.1-0.1,0.1h-0.3
				C60.7,22.1,60.7,22.1,60.7,22z"/>
		</g>
	</g>
	<g>
		<path class="st61" d="M55,30.8v-2.1c0-0.5,0.4-0.9,0.9-0.9h2.1c0.5,0,0.9,0.4,0.9,0.9v2.1c0,0.5-0.4,0.9-0.9,0.9H56
			C55.4,31.8,55,31.3,55,30.8z"/>
		<g>
			<path class="st62" d="M56.6,30v-0.4c0-0.1,0.1-0.2,0.2-0.2h0.4c0.1,0,0.2,0.1,0.2,0.2V30c0,0.1-0.1,0.2-0.2,0.2h-0.4
				C56.7,30.2,56.6,30.1,56.6,30z"/>
			<path class="st63" d="M56.7,29.9v-0.3c0-0.1,0.1-0.1,0.1-0.1h0.3c0.1,0,0.1,0.1,0.1,0.1v0.3c0,0.1-0.1,0.1-0.1,0.1h-0.3
				C56.8,30.1,56.7,30,56.7,29.9z"/>
		</g>
		<path class="st64" d="M55,26.9v-2.1c0-0.5,0.4-0.9,0.9-0.9h2.1c0.5,0,0.9,0.4,0.9,0.9v2.1c0,0.5-0.4,0.9-0.9,0.9H56
			C55.4,27.8,55,27.4,55,26.9z"/>
		<path class="st65" d="M55,22.9v-2.1c0-0.5,0.4-0.9,0.9-0.9h2.1c0.5,0,0.9,0.4,0.9,0.9v2.1c0,0.5-0.4,0.9-0.9,0.9H56
			C55.4,23.8,55,23.4,55,22.9z"/>
		<g>
			<path class="st62" d="M56.6,26v-0.4c0-0.1,0.1-0.2,0.2-0.2h0.4c0.1,0,0.2,0.1,0.2,0.2V26c0,0.1-0.1,0.2-0.2,0.2h-0.4
				C56.7,26.2,56.6,26.1,56.6,26z"/>
			<path class="st63" d="M56.7,26v-0.3c0-0.1,0.1-0.1,0.1-0.1h0.3c0.1,0,0.1,0.1,0.1,0.1V26c0,0.1-0.1,0.1-0.1,0.1h-0.3
				C56.8,26.1,56.7,26,56.7,26z"/>
		</g>
		<g>
			<path class="st62" d="M56.6,22v-0.4c0-0.1,0.1-0.2,0.2-0.2h0.4c0.1,0,0.2,0.1,0.2,0.2V22c0,0.1-0.1,0.2-0.2,0.2h-0.4
				C56.7,22.2,56.6,22.1,56.6,22z"/>
			<path class="st63" d="M56.7,22v-0.3c0-0.1,0.1-0.1,0.1-0.1h0.3c0.1,0,0.1,0.1,0.1,0.1V22c0,0.1-0.1,0.1-0.1,0.1h-0.3
				C56.8,22.1,56.7,22.1,56.7,22z"/>
		</g>
	</g>
	<g>
		<path class="st61" d="M51,30.8v-2.1c0-0.5,0.4-0.9,0.9-0.9h2.1c0.5,0,0.9,0.4,0.9,0.9v2.1c0,0.5-0.4,0.9-0.9,0.9H52
			C51.5,31.8,51,31.3,51,30.8z"/>
		<g>
			<path class="st62" d="M52.6,30v-0.4c0-0.1,0.1-0.2,0.2-0.2h0.4c0.1,0,0.2,0.1,0.2,0.2V30c0,0.1-0.1,0.2-0.2,0.2h-0.4
				C52.7,30.2,52.6,30.1,52.6,30z"/>
			<path class="st63" d="M52.7,29.9v-0.3c0-0.1,0.1-0.1,0.1-0.1h0.3c0.1,0,0.1,0.1,0.1,0.1v0.3c0,0.1-0.1,0.1-0.1,0.1h-0.3
				C52.8,30.1,52.7,30,52.7,29.9z"/>
		</g>
		<path class="st64" d="M51,26.9v-2.1c0-0.5,0.4-0.9,0.9-0.9h2.1c0.5,0,0.9,0.4,0.9,0.9v2.1c0,0.5-0.4,0.9-0.9,0.9H52
			C51.5,27.8,51,27.4,51,26.9z"/>
		<path class="st65" d="M51,22.9v-2.1c0-0.5,0.4-0.9,0.9-0.9h2.1c0.5,0,0.9,0.4,0.9,0.9v2.1c0,0.5-0.4,0.9-0.9,0.9H52
			C51.5,23.8,51,23.4,51,22.9z"/>
		<g>
			<path class="st62" d="M52.6,26v-0.4c0-0.1,0.1-0.2,0.2-0.2h0.4c0.1,0,0.2,0.1,0.2,0.2V26c0,0.1-0.1,0.2-0.2,0.2h-0.4
				C52.7,26.2,52.6,26.1,52.6,26z"/>
			<path class="st63" d="M52.7,26v-0.3c0-0.1,0.1-0.1,0.1-0.1h0.3c0.1,0,0.1,0.1,0.1,0.1V26c0,0.1-0.1,0.1-0.1,0.1h-0.3
				C52.8,26.1,52.7,26,52.7,26z"/>
		</g>
		<g>
			<path class="st62" d="M52.6,22v-0.4c0-0.1,0.1-0.2,0.2-0.2h0.4c0.1,0,0.2,0.1,0.2,0.2V22c0,0.1-0.1,0.2-0.2,0.2h-0.4
				C52.7,22.2,52.6,22.1,52.6,22z"/>
			<path class="st63" d="M52.7,22v-0.3c0-0.1,0.1-0.1,0.1-0.1h0.3c0.1,0,0.1,0.1,0.1,0.1V22c0,0.1-0.1,0.1-0.1,0.1h-0.3
				C52.8,22.1,52.7,22.1,52.7,22z"/>
		</g>
	</g>
	<g>
		<path class="st61" d="M47.1,30.8v-2.1c0-0.5,0.4-0.9,0.9-0.9h2.1c0.5,0,0.9,0.4,0.9,0.9v2.1c0,0.5-0.4,0.9-0.9,0.9H48
			C47.5,31.8,47.1,31.3,47.1,30.8z"/>
		<g>
			<path class="st62" d="M48.7,30v-0.4c0-0.1,0.1-0.2,0.2-0.2h0.4c0.1,0,0.2,0.1,0.2,0.2V30c0,0.1-0.1,0.2-0.2,0.2h-0.4
				C48.7,30.2,48.7,30.1,48.7,30z"/>
			<path class="st63" d="M48.7,29.9v-0.3c0-0.1,0.1-0.1,0.1-0.1h0.3c0.1,0,0.1,0.1,0.1,0.1v0.3c0,0.1-0.1,0.1-0.1,0.1h-0.3
				C48.8,30.1,48.7,30,48.7,29.9z"/>
		</g>
		<path class="st64" d="M47.1,26.9v-2.1c0-0.5,0.4-0.9,0.9-0.9h2.1c0.5,0,0.9,0.4,0.9,0.9v2.1c0,0.5-0.4,0.9-0.9,0.9H48
			C47.5,27.8,47.1,27.4,47.1,26.9z"/>
		<path class="st65" d="M47.1,22.9v-2.1c0-0.5,0.4-0.9,0.9-0.9h2.1c0.5,0,0.9,0.4,0.9,0.9v2.1c0,0.5-0.4,0.9-0.9,0.9H48
			C47.5,23.8,47.1,23.4,47.1,22.9z"/>
		<g>
			<path class="st62" d="M48.7,26v-0.4c0-0.1,0.1-0.2,0.2-0.2h0.4c0.1,0,0.2,0.1,0.2,0.2V26c0,0.1-0.1,0.2-0.2,0.2h-0.4
				C48.7,26.2,48.7,26.1,48.7,26z"/>
			<path class="st63" d="M48.7,26v-0.3c0-0.1,0.1-0.1,0.1-0.1h0.3c0.1,0,0.1,0.1,0.1,0.1V26c0,0.1-0.1,0.1-0.1,0.1h-0.3
				C48.8,26.1,48.7,26,48.7,26z"/>
		</g>
		<g>
			<path class="st62" d="M48.7,22v-0.4c0-0.1,0.1-0.2,0.2-0.2h0.4c0.1,0,0.2,0.1,0.2,0.2V22c0,0.1-0.1,0.2-0.2,0.2h-0.4
				C48.7,22.2,48.7,22.1,48.7,22z"/>
			<path class="st63" d="M48.7,22v-0.3c0-0.1,0.1-0.1,0.1-0.1h0.3c0.1,0,0.1,0.1,0.1,0.1V22c0,0.1-0.1,0.1-0.1,0.1h-0.3
				C48.8,22.1,48.7,22.1,48.7,22z"/>
		</g>
	</g>
	<g>
		<path class="st61" d="M43.1,30.8v-2.1c0-0.5,0.4-0.9,0.9-0.9h2.1c0.5,0,0.9,0.4,0.9,0.9v2.1c0,0.5-0.4,0.9-0.9,0.9H44
			C43.5,31.8,43.1,31.3,43.1,30.8z"/>
		<g>
			<path class="st62" d="M44.7,30v-0.4c0-0.1,0.1-0.2,0.2-0.2h0.4c0.1,0,0.2,0.1,0.2,0.2V30c0,0.1-0.1,0.2-0.2,0.2h-0.4
				C44.8,30.2,44.7,30.1,44.7,30z"/>
			<path class="st63" d="M44.8,29.9v-0.3c0-0.1,0.1-0.1,0.1-0.1h0.3c0.1,0,0.1,0.1,0.1,0.1v0.3c0,0.1-0.1,0.1-0.1,0.1h-0.3
				C44.8,30.1,44.8,30,44.8,29.9z"/>
		</g>
		<path class="st64" d="M43.1,26.9v-2.1c0-0.5,0.4-0.9,0.9-0.9h2.1c0.5,0,0.9,0.4,0.9,0.9v2.1c0,0.5-0.4,0.9-0.9,0.9H44
			C43.5,27.8,43.1,27.4,43.1,26.9z"/>
		<path class="st65" d="M43.1,22.9v-2.1c0-0.5,0.4-0.9,0.9-0.9h2.1c0.5,0,0.9,0.4,0.9,0.9v2.1c0,0.5-0.4,0.9-0.9,0.9H44
			C43.5,23.8,43.1,23.4,43.1,22.9z"/>
		<g>
			<path class="st62" d="M44.7,26v-0.4c0-0.1,0.1-0.2,0.2-0.2h0.4c0.1,0,0.2,0.1,0.2,0.2V26c0,0.1-0.1,0.2-0.2,0.2h-0.4
				C44.8,26.2,44.7,26.1,44.7,26z"/>
			<path class="st63" d="M44.8,26v-0.3c0-0.1,0.1-0.1,0.1-0.1h0.3c0.1,0,0.1,0.1,0.1,0.1V26c0,0.1-0.1,0.1-0.1,0.1h-0.3
				C44.8,26.1,44.8,26,44.8,26z"/>
		</g>
		<g>
			<path class="st62" d="M44.7,22v-0.4c0-0.1,0.1-0.2,0.2-0.2h0.4c0.1,0,0.2,0.1,0.2,0.2V22c0,0.1-0.1,0.2-0.2,0.2h-0.4
				C44.8,22.2,44.7,22.1,44.7,22z"/>
			<path class="st63" d="M44.8,22v-0.3c0-0.1,0.1-0.1,0.1-0.1h0.3c0.1,0,0.1,0.1,0.1,0.1V22c0,0.1-0.1,0.1-0.1,0.1h-0.3
				C44.8,22.1,44.8,22.1,44.8,22z"/>
		</g>
	</g>
	<g>
		<path class="st61" d="M39.1,30.8v-2.1c0-0.5,0.4-0.9,0.9-0.9h2.1c0.5,0,0.9,0.4,0.9,0.9v2.1c0,0.5-0.4,0.9-0.9,0.9H40
			C39.5,31.8,39.1,31.3,39.1,30.8z"/>
		<g>
			<path class="st62" d="M40.7,30v-0.4c0-0.1,0.1-0.2,0.2-0.2h0.4c0.1,0,0.2,0.1,0.2,0.2V30c0,0.1-0.1,0.2-0.2,0.2h-0.4
				C40.8,30.2,40.7,30.1,40.7,30z"/>
			<path class="st63" d="M40.8,29.9v-0.3c0-0.1,0.1-0.1,0.1-0.1h0.3c0.1,0,0.1,0.1,0.1,0.1v0.3c0,0.1-0.1,0.1-0.1,0.1h-0.3
				C40.8,30.1,40.8,30,40.8,29.9z"/>
		</g>
		<path class="st64" d="M39.1,26.9v-2.1c0-0.5,0.4-0.9,0.9-0.9h2.1c0.5,0,0.9,0.4,0.9,0.9v2.1c0,0.5-0.4,0.9-0.9,0.9H40
			C39.5,27.8,39.1,27.4,39.1,26.9z"/>
		<path class="st65" d="M39.1,22.9v-2.1c0-0.5,0.4-0.9,0.9-0.9h2.1c0.5,0,0.9,0.4,0.9,0.9v2.1c0,0.5-0.4,0.9-0.9,0.9H40
			C39.5,23.8,39.1,23.4,39.1,22.9z"/>
		<g>
			<path class="st62" d="M40.7,26v-0.4c0-0.1,0.1-0.2,0.2-0.2h0.4c0.1,0,0.2,0.1,0.2,0.2V26c0,0.1-0.1,0.2-0.2,0.2h-0.4
				C40.8,26.2,40.7,26.1,40.7,26z"/>
			<path class="st63" d="M40.8,26v-0.3c0-0.1,0.1-0.1,0.1-0.1h0.3c0.1,0,0.1,0.1,0.1,0.1V26c0,0.1-0.1,0.1-0.1,0.1h-0.3
				C40.8,26.1,40.8,26,40.8,26z"/>
		</g>
		<g>
			<path class="st62" d="M40.7,22v-0.4c0-0.1,0.1-0.2,0.2-0.2h0.4c0.1,0,0.2,0.1,0.2,0.2V22c0,0.1-0.1,0.2-0.2,0.2h-0.4
				C40.8,22.2,40.7,22.1,40.7,22z"/>
			<path class="st63" d="M40.8,22v-0.3c0-0.1,0.1-0.1,0.1-0.1h0.3c0.1,0,0.1,0.1,0.1,0.1V22c0,0.1-0.1,0.1-0.1,0.1h-0.3
				C40.8,22.1,40.8,22.1,40.8,22z"/>
		</g>
	</g>
	<g>
		<path class="st61" d="M35.1,30.8v-2.1c0-0.5,0.4-0.9,0.9-0.9h2.1c0.5,0,0.9,0.4,0.9,0.9v2.1c0,0.5-0.4,0.9-0.9,0.9h-2.1
			C35.5,31.8,35.1,31.3,35.1,30.8z"/>
		<g>
			<path class="st62" d="M36.7,30v-0.4c0-0.1,0.1-0.2,0.2-0.2h0.4c0.1,0,0.2,0.1,0.2,0.2V30c0,0.1-0.1,0.2-0.2,0.2h-0.4
				C36.8,30.2,36.7,30.1,36.7,30z"/>
			<path class="st63" d="M36.8,29.9v-0.3c0-0.1,0.1-0.1,0.1-0.1h0.3c0.1,0,0.1,0.1,0.1,0.1v0.3c0,0.1-0.1,0.1-0.1,0.1H37
				C36.9,30.1,36.8,30,36.8,29.9z"/>
		</g>
		<path class="st64" d="M35.1,26.9v-2.1c0-0.5,0.4-0.9,0.9-0.9h2.1c0.5,0,0.9,0.4,0.9,0.9v2.1c0,0.5-0.4,0.9-0.9,0.9h-2.1
			C35.5,27.8,35.1,27.4,35.1,26.9z"/>
		<path class="st65" d="M35.1,22.9v-2.1c0-0.5,0.4-0.9,0.9-0.9h2.1c0.5,0,0.9,0.4,0.9,0.9v2.1c0,0.5-0.4,0.9-0.9,0.9h-2.1
			C35.5,23.8,35.1,23.4,35.1,22.9z"/>
		<g>
			<path class="st62" d="M36.7,26v-0.4c0-0.1,0.1-0.2,0.2-0.2h0.4c0.1,0,0.2,0.1,0.2,0.2V26c0,0.1-0.1,0.2-0.2,0.2h-0.4
				C36.8,26.2,36.7,26.1,36.7,26z"/>
			<path class="st63" d="M36.8,26v-0.3c0-0.1,0.1-0.1,0.1-0.1h0.3c0.1,0,0.1,0.1,0.1,0.1V26c0,0.1-0.1,0.1-0.1,0.1H37
				C36.9,26.1,36.8,26,36.8,26z"/>
		</g>
		<g>
			<path class="st62" d="M36.7,22v-0.4c0-0.1,0.1-0.2,0.2-0.2h0.4c0.1,0,0.2,0.1,0.2,0.2V22c0,0.1-0.1,0.2-0.2,0.2h-0.4
				C36.8,22.2,36.7,22.1,36.7,22z"/>
			<path class="st63" d="M36.8,22v-0.3c0-0.1,0.1-0.1,0.1-0.1h0.3c0.1,0,0.1,0.1,0.1,0.1V22c0,0.1-0.1,0.1-0.1,0.1H37
				C36.9,22.1,36.8,22.1,36.8,22z"/>
		</g>
	</g>
	<g>
		<path class="st61" d="M31.1,30.8v-2.1c0-0.5,0.4-0.9,0.9-0.9h2.1c0.5,0,0.9,0.4,0.9,0.9v2.1c0,0.5-0.4,0.9-0.9,0.9h-2.1
			C31.6,31.8,31.1,31.3,31.1,30.8z"/>
		<g>
			<path class="st62" d="M32.7,30v-0.4c0-0.1,0.1-0.2,0.2-0.2h0.4c0.1,0,0.2,0.1,0.2,0.2V30c0,0.1-0.1,0.2-0.2,0.2h-0.4
				C32.8,30.2,32.7,30.1,32.7,30z"/>
			<path class="st63" d="M32.8,29.9v-0.3c0-0.1,0.1-0.1,0.1-0.1h0.3c0.1,0,0.1,0.1,0.1,0.1v0.3c0,0.1-0.1,0.1-0.1,0.1H33
				C32.9,30.1,32.8,30,32.8,29.9z"/>
		</g>
		<path class="st64" d="M31.1,26.9v-2.1c0-0.5,0.4-0.9,0.9-0.9h2.1c0.5,0,0.9,0.4,0.9,0.9v2.1c0,0.5-0.4,0.9-0.9,0.9h-2.1
			C31.6,27.8,31.1,27.4,31.1,26.9z"/>
		<path class="st65" d="M31.1,22.9v-2.1c0-0.5,0.4-0.9,0.9-0.9h2.1c0.5,0,0.9,0.4,0.9,0.9v2.1c0,0.5-0.4,0.9-0.9,0.9h-2.1
			C31.6,23.8,31.1,23.4,31.1,22.9z"/>
		<g>
			<path class="st62" d="M32.7,26v-0.4c0-0.1,0.1-0.2,0.2-0.2h0.4c0.1,0,0.2,0.1,0.2,0.2V26c0,0.1-0.1,0.2-0.2,0.2h-0.4
				C32.8,26.2,32.7,26.1,32.7,26z"/>
			<path class="st63" d="M32.8,26v-0.3c0-0.1,0.1-0.1,0.1-0.1h0.3c0.1,0,0.1,0.1,0.1,0.1V26c0,0.1-0.1,0.1-0.1,0.1H33
				C32.9,26.1,32.8,26,32.8,26z"/>
		</g>
		<g>
			<path class="st62" d="M32.7,22v-0.4c0-0.1,0.1-0.2,0.2-0.2h0.4c0.1,0,0.2,0.1,0.2,0.2V22c0,0.1-0.1,0.2-0.2,0.2h-0.4
				C32.8,22.2,32.7,22.1,32.7,22z"/>
			<path class="st63" d="M32.8,22v-0.3c0-0.1,0.1-0.1,0.1-0.1h0.3c0.1,0,0.1,0.1,0.1,0.1V22c0,0.1-0.1,0.1-0.1,0.1H33
				C32.9,22.1,32.8,22.1,32.8,22z"/>
		</g>
	</g>
	<g>
		<path class="st65" d="M24.8,22.9v-2.1c0-0.5,0.4-0.9,0.9-0.9h2.1c0.5,0,0.9,0.4,0.9,0.9v2.1c0,0.5-0.4,0.9-0.9,0.9h-2.1
			C25.2,23.8,24.8,23.4,24.8,22.9z"/>
		<g>
			<path class="st62" d="M26.4,22v-0.4c0-0.1,0.1-0.2,0.2-0.2H27c0.1,0,0.2,0.1,0.2,0.2V22c0,0.1-0.1,0.2-0.2,0.2h-0.4
				C26.5,22.2,26.4,22.1,26.4,22z"/>
			<path class="st63" d="M26.5,22v-0.3c0-0.1,0.1-0.1,0.1-0.1h0.3c0.1,0,0.1,0.1,0.1,0.1V22c0,0.1-0.1,0.1-0.1,0.1h-0.3
				C26.5,22.1,26.5,22.1,26.5,22z"/>
		</g>
	</g>
	<g>
		<path class="st65" d="M20.8,22.9v-2.1c0-0.5,0.4-0.9,0.9-0.9h2.1c0.5,0,0.9,0.4,0.9,0.9v2.1c0,0.5-0.4,0.9-0.9,0.9h-2.1
			C21.2,23.8,20.8,23.4,20.8,22.9z"/>
		<g>
			<path class="st62" d="M22.4,22v-0.4c0-0.1,0.1-0.2,0.2-0.2H23c0.1,0,0.2,0.1,0.2,0.2V22c0,0.1-0.1,0.2-0.2,0.2h-0.4
				C22.5,22.2,22.4,22.1,22.4,22z"/>
			<path class="st63" d="M22.5,22v-0.3c0-0.1,0.1-0.1,0.1-0.1H23c0.1,0,0.1,0.1,0.1,0.1V22c0,0.1-0.1,0.1-0.1,0.1h-0.3
				C22.6,22.1,22.5,22.1,22.5,22z"/>
		</g>
	</g>
	<g>
		<path class="st65" d="M16.8,22.9v-2.1c0-0.5,0.4-0.9,0.9-0.9h2.1c0.5,0,0.9,0.4,0.9,0.9v2.1c0,0.5-0.4,0.9-0.9,0.9h-2.1
			C17.2,23.8,16.8,23.4,16.8,22.9z"/>
		<g>
			<path class="st62" d="M18.4,22v-0.4c0-0.1,0.1-0.2,0.2-0.2H19c0.1,0,0.2,0.1,0.2,0.2V22c0,0.1-0.1,0.2-0.2,0.2h-0.4
				C18.5,22.2,18.4,22.1,18.4,22z"/>
			<path class="st63" d="M18.5,22v-0.3c0-0.1,0.1-0.1,0.1-0.1H19c0.1,0,0.1,0.1,0.1,0.1V22c0,0.1-0.1,0.1-0.1,0.1h-0.3
				C18.6,22.1,18.5,22.1,18.5,22z"/>
		</g>
	</g>
	<g>
		<path class="st65" d="M12.8,22.9v-2.1c0-0.5,0.4-0.9,0.9-0.9h2.1c0.5,0,0.9,0.4,0.9,0.9v2.1c0,0.5-0.4,0.9-0.9,0.9h-2.1
			C13.3,23.8,12.8,23.4,12.8,22.9z"/>
		<g>
			<path class="st62" d="M14.4,22v-0.4c0-0.1,0.1-0.2,0.2-0.2h0.4c0.1,0,0.2,0.1,0.2,0.2V22c0,0.1-0.1,0.2-0.2,0.2h-0.4
				C14.5,22.2,14.4,22.1,14.4,22z"/>
			<path class="st63" d="M14.5,22v-0.3c0-0.1,0.1-0.1,0.1-0.1H15c0.1,0,0.1,0.1,0.1,0.1V22c0,0.1-0.1,0.1-0.1,0.1h-0.3
				C14.6,22.1,14.5,22.1,14.5,22z"/>
		</g>
	</g>
	<g>
		<path class="st65" d="M24.8,30.5v-2.1c0-0.5,0.4-0.9,0.9-0.9h2.1c0.5,0,0.9,0.4,0.9,0.9v2.1c0,0.5-0.4,0.9-0.9,0.9h-2.1
			C25.2,31.5,24.8,31.1,24.8,30.5z"/>
		<g>
			<path class="st62" d="M26.4,29.7v-0.4c0-0.1,0.1-0.2,0.2-0.2H27c0.1,0,0.2,0.1,0.2,0.2v0.4c0,0.1-0.1,0.2-0.2,0.2h-0.4
				C26.5,29.9,26.4,29.8,26.4,29.7z"/>
			<path class="st63" d="M26.5,29.7v-0.3c0-0.1,0.1-0.1,0.1-0.1h0.3c0.1,0,0.1,0.1,0.1,0.1v0.3c0,0.1-0.1,0.1-0.1,0.1h-0.3
				C26.5,29.8,26.5,29.7,26.5,29.7z"/>
		</g>
	</g>
	<g>
		<path class="st65" d="M20.8,30.5v-2.1c0-0.5,0.4-0.9,0.9-0.9h2.1c0.5,0,0.9,0.4,0.9,0.9v2.1c0,0.5-0.4,0.9-0.9,0.9h-2.1
			C21.2,31.5,20.8,31.1,20.8,30.5z"/>
		<g>
			<path class="st62" d="M22.4,29.7v-0.4c0-0.1,0.1-0.2,0.2-0.2H23c0.1,0,0.2,0.1,0.2,0.2v0.4c0,0.1-0.1,0.2-0.2,0.2h-0.4
				C22.5,29.9,22.4,29.8,22.4,29.7z"/>
			<path class="st63" d="M22.5,29.7v-0.3c0-0.1,0.1-0.1,0.1-0.1H23c0.1,0,0.1,0.1,0.1,0.1v0.3c0,0.1-0.1,0.1-0.1,0.1h-0.3
				C22.6,29.8,22.5,29.7,22.5,29.7z"/>
		</g>
	</g>
	<g>
		<path class="st65" d="M16.8,30.5v-2.1c0-0.5,0.4-0.9,0.9-0.9h2.1c0.5,0,0.9,0.4,0.9,0.9v2.1c0,0.5-0.4,0.9-0.9,0.9h-2.1
			C17.2,31.5,16.8,31.1,16.8,30.5z"/>
		<g>
			<path class="st62" d="M18.4,29.7v-0.4c0-0.1,0.1-0.2,0.2-0.2H19c0.1,0,0.2,0.1,0.2,0.2v0.4c0,0.1-0.1,0.2-0.2,0.2h-0.4
				C18.5,29.9,18.4,29.8,18.4,29.7z"/>
			<path class="st63" d="M18.5,29.7v-0.3c0-0.1,0.1-0.1,0.1-0.1H19c0.1,0,0.1,0.1,0.1,0.1v0.3c0,0.1-0.1,0.1-0.1,0.1h-0.3
				C18.6,29.8,18.5,29.7,18.5,29.7z"/>
		</g>
	</g>
	<g>
		<path class="st65" d="M12.8,30.5v-2.1c0-0.5,0.4-0.9,0.9-0.9h2.1c0.5,0,0.9,0.4,0.9,0.9v2.1c0,0.5-0.4,0.9-0.9,0.9h-2.1
			C13.3,31.5,12.8,31.1,12.8,30.5z"/>
		<g>
			<path class="st62" d="M14.4,29.7v-0.4c0-0.1,0.1-0.2,0.2-0.2h0.4c0.1,0,0.2,0.1,0.2,0.2v0.4c0,0.1-0.1,0.2-0.2,0.2h-0.4
				C14.5,29.9,14.4,29.8,14.4,29.7z"/>
			<path class="st63" d="M14.5,29.7v-0.3c0-0.1,0.1-0.1,0.1-0.1H15c0.1,0,0.1,0.1,0.1,0.1v0.3c0,0.1-0.1,0.1-0.1,0.1h-0.3
				C14.6,29.8,14.5,29.7,14.5,29.7z"/>
		</g>
	</g>
	<g>
		<path class="st65" d="M24.8,34.5v-2.1c0-0.5,0.4-0.9,0.9-0.9h2.1c0.5,0,0.9,0.4,0.9,0.9v2.1c0,0.5-0.4,0.9-0.9,0.9h-2.1
			C25.2,35.5,24.8,35,24.8,34.5z"/>
		<g>
			<path class="st62" d="M26.4,33.7v-0.4c0-0.1,0.1-0.2,0.2-0.2H27c0.1,0,0.2,0.1,0.2,0.2v0.4c0,0.1-0.1,0.2-0.2,0.2h-0.4
				C26.5,33.9,26.4,33.8,26.4,33.7z"/>
			<path class="st63" d="M26.5,33.6v-0.3c0-0.1,0.1-0.1,0.1-0.1h0.3c0.1,0,0.1,0.1,0.1,0.1v0.3c0,0.1-0.1,0.1-0.1,0.1h-0.3
				C26.5,33.8,26.5,33.7,26.5,33.6z"/>
		</g>
	</g>
	<g>
		<path class="st65" d="M20.8,34.5v-2.1c0-0.5,0.4-0.9,0.9-0.9h2.1c0.5,0,0.9,0.4,0.9,0.9v2.1c0,0.5-0.4,0.9-0.9,0.9h-2.1
			C21.2,35.5,20.8,35,20.8,34.5z"/>
		<g>
			<path class="st62" d="M22.4,33.7v-0.4c0-0.1,0.1-0.2,0.2-0.2H23c0.1,0,0.2,0.1,0.2,0.2v0.4c0,0.1-0.1,0.2-0.2,0.2h-0.4
				C22.5,33.9,22.4,33.8,22.4,33.7z"/>
			<path class="st63" d="M22.5,33.6v-0.3c0-0.1,0.1-0.1,0.1-0.1H23c0.1,0,0.1,0.1,0.1,0.1v0.3c0,0.1-0.1,0.1-0.1,0.1h-0.3
				C22.6,33.8,22.5,33.7,22.5,33.6z"/>
		</g>
	</g>
	<g>
		<path class="st65" d="M16.8,34.5v-2.1c0-0.5,0.4-0.9,0.9-0.9h2.1c0.5,0,0.9,0.4,0.9,0.9v2.1c0,0.5-0.4,0.9-0.9,0.9h-2.1
			C17.2,35.5,16.8,35,16.8,34.5z"/>
		<g>
			<path class="st62" d="M18.4,33.7v-0.4c0-0.1,0.1-0.2,0.2-0.2H19c0.1,0,0.2,0.1,0.2,0.2v0.4c0,0.1-0.1,0.2-0.2,0.2h-0.4
				C18.5,33.9,18.4,33.8,18.4,33.7z"/>
			<path class="st63" d="M18.5,33.6v-0.3c0-0.1,0.1-0.1,0.1-0.1H19c0.1,0,0.1,0.1,0.1,0.1v0.3c0,0.1-0.1,0.1-0.1,0.1h-0.3
				C18.6,33.8,18.5,33.7,18.5,33.6z"/>
		</g>
	</g>
	<g>
		<path class="st65" d="M12.8,34.5v-2.1c0-0.5,0.4-0.9,0.9-0.9h2.1c0.5,0,0.9,0.4,0.9,0.9v2.1c0,0.5-0.4,0.9-0.9,0.9h-2.1
			C13.3,35.5,12.8,35,12.8,34.5z"/>
		<g>
			<path class="st62" d="M14.4,33.7v-0.4c0-0.1,0.1-0.2,0.2-0.2h0.4c0.1,0,0.2,0.1,0.2,0.2v0.4c0,0.1-0.1,0.2-0.2,0.2h-0.4
				C14.5,33.9,14.4,33.8,14.4,33.7z"/>
			<path class="st63" d="M14.5,33.6v-0.3c0-0.1,0.1-0.1,0.1-0.1H15c0.1,0,0.1,0.1,0.1,0.1v0.3c0,0.1-0.1,0.1-0.1,0.1h-0.3
				C14.6,33.8,14.5,33.7,14.5,33.6z"/>
		</g>
	</g>
	<g>
		<path class="st17" d="M8.5,21.1c0,0.5-0.2,0.7-0.7,0.7c-0.4,0-0.7-0.2-0.7-0.7v-1h0.4v1c0,0.3,0.1,0.4,0.3,0.4
			c0.2,0,0.3-0.1,0.3-0.4v-1h0.4V21.1z"/>
		<path class="st17" d="M10.1,21.8H9.7l-0.1-0.4H9l-0.1,0.4H8.5l0.6-1.6h0.4L10.1,21.8z M9.5,21.2l-0.2-0.6c0,0,0-0.1,0-0.1h0
			c0,0,0,0.1,0,0.1l-0.2,0.6H9.5z"/>
		<path class="st17" d="M11.5,21.8h-0.4l-0.3-0.4c-0.1-0.1-0.1-0.1-0.1-0.2c0,0-0.1,0-0.1,0h-0.1v0.6h-0.4v-1.6h0.6
			c0.4,0,0.6,0.1,0.6,0.4c0,0.1,0,0.2-0.1,0.3c-0.1,0.1-0.2,0.1-0.3,0.2v0c0.1,0,0.2,0.1,0.3,0.3L11.5,21.8z M10.5,20.5v0.5h0.2
			c0.1,0,0.1,0,0.2-0.1c0.1,0,0.1-0.1,0.1-0.2c0-0.1-0.1-0.2-0.3-0.2H10.5z"/>
		<path class="st17" d="M12.7,20.5h-0.5v1.4h-0.4v-1.4h-0.5v-0.3h1.3V20.5z"/>
	</g>
	<g>
		<path class="st17" d="M7.6,32.7v-2.9h0.6v2.9H7.6z"/>
		<path class="st17" d="M8.5,32.7v-2.9h0.6v2.9H8.5z"/>
		<path class="st17" d="M11.4,32.6c-0.2,0.1-0.5,0.1-0.8,0.1c-0.4,0-0.8-0.1-1-0.4c-0.2-0.3-0.4-0.6-0.4-1c0-0.4,0.1-0.8,0.4-1.1
			c0.3-0.3,0.6-0.4,1.1-0.4c0.3,0,0.5,0,0.7,0.1v0.6c-0.2-0.1-0.4-0.2-0.6-0.2c-0.3,0-0.5,0.1-0.7,0.3c-0.2,0.2-0.2,0.4-0.2,0.7
			c0,0.3,0.1,0.5,0.2,0.7c0.2,0.2,0.4,0.2,0.6,0.2c0.2,0,0.5-0.1,0.7-0.2V32.6z"/>
	</g>
	<g>
		<path class="st17" d="M19.6,37.1c0,0.2,0,0.4-0.1,0.5h0.5C20,37.4,20,37.3,20,37c0-0.4-0.1-0.6-0.3-0.9c-0.2-0.2-0.5-0.3-0.9-0.3
			c-0.3,0-0.6,0.1-0.8,0.3c-0.2,0.2-0.3,0.5-0.3,0.8c0,0.3,0,0.5,0.1,0.6h0.4c-0.1-0.2-0.1-0.3-0.1-0.5c0-0.2,0.1-0.4,0.2-0.5
			c0.1-0.1,0.3-0.2,0.5-0.2c0.2,0,0.4,0.1,0.6,0.2C19.5,36.7,19.6,36.9,19.6,37.1z"/>
		<path class="st17" d="M15.9,36.6v-0.8h-2.3v0.8c0,0.4,0.1,0.6,0.3,0.9c0.2,0.2,0.5,0.3,0.8,0.3C15.5,37.8,15.9,37.4,15.9,36.6z
			 M14.3,37.1c-0.1-0.1-0.2-0.3-0.2-0.5v-0.3h1.5v0.3c0,0.2-0.1,0.4-0.2,0.5c-0.1,0.1-0.3,0.2-0.5,0.2S14.4,37.2,14.3,37.1z"/>
		<path class="st17" d="M27,37.2h0.8v-0.4H27v-0.8h-0.4v0.8h-0.8v0.4h0.8V38H27V37.2z"/>
		<path class="st17" d="M23,36.4h-0.5v1.2H23V36.4z"/>
	</g>
	<path class="st17" d="M27,25.2h0.8v-0.4H27V24h-0.4v0.8h-0.8v0.4h0.8V26H27V25.2z"/>
	<path class="st17" d="M23,24.4h-0.5v1.2H23V24.4z"/>
	<g>
		<path class="st17" d="M19.5,24.5c-0.1-0.1-0.1-0.2-0.2-0.3h-0.2c0,0,0,0.1,0,0.1c0,0,0,0.1,0.1,0.1h-0.9v0.2h1.2V24.5z"/>
		<path class="st17" d="M18.8,25.7c0,0,0.1-0.1,0.1-0.2h0c0,0.2,0.1,0.2,0.3,0.2c0.1,0,0.2,0,0.2-0.1c0-0.1,0.1-0.2,0.1-0.3
			c0-0.1,0-0.2-0.1-0.3h-0.2c0.1,0.1,0.1,0.1,0.1,0.2c0,0.1,0,0.2-0.1,0.2c-0.1,0-0.2-0.1-0.2-0.2v-0.1h-0.2v0.1c0,0.1,0,0.1,0,0.2
			c0,0-0.1,0.1-0.1,0.1c-0.1,0-0.1,0-0.1-0.1c0,0,0-0.1,0-0.2c0-0.1,0-0.2,0.1-0.3h-0.2c0,0.1-0.1,0.2-0.1,0.3c0,0.1,0,0.2,0.1,0.3
			c0.1,0.1,0.1,0.1,0.3,0.1C18.7,25.7,18.8,25.7,18.8,25.7z"/>
	</g>
	<g>
		<path class="st17" d="M15.5,24.5c-0.1-0.1-0.1-0.2-0.2-0.3h-0.2c0,0,0,0.1,0,0.1c0,0,0,0.1,0.1,0.1h-0.9v0.2h1.2V24.5z"/>
		<path class="st17" d="M14.8,25.6h0.7v-0.2c-0.1,0-0.2-0.1-0.3-0.2c-0.1-0.1-0.3-0.2-0.4-0.3h-0.2v0.5h-0.2v0.2h0.2v0.2h0.2V25.6z
			 M14.8,25.4v-0.3c0.1,0.1,0.2,0.2,0.3,0.2c0.1,0,0.1,0.1,0.2,0.1H14.8z"/>
	</g>
	<g>
		<rect x="67.6" y="32.4" class="st17" width="2.3" height="4.3"/>
		<path class="st49" d="M69.4,33.8c0.1,0,0.1-0.1,0.2-0.1c0.1,0,0.1-0.1,0.1-0.2c0-0.1,0-0.2,0-0.3v-0.7h-1.8v0.3h0.6v0.2
			c0,0.1,0,0.3,0,0.3c0,0.1,0.1,0.2,0.1,0.2c0,0.1,0.1,0.1,0.2,0.1c0.1,0,0.2,0,0.2,0C69.3,33.8,69.3,33.8,69.4,33.8z M69,33.5
			C69,33.4,68.9,33.4,69,33.5c-0.1-0.1-0.1-0.2-0.2-0.2c0,0,0-0.1,0-0.1v-0.3h0.6v0.3c0,0.1,0,0.2-0.1,0.2c-0.1,0.1-0.1,0.1-0.2,0.1
			C69.1,33.5,69.1,33.5,69,33.5z"/>
		<path class="st49" d="M69.2,35.3c0.1,0,0.2-0.1,0.3-0.1c0.1-0.1,0.1-0.1,0.2-0.2c0-0.1,0.1-0.2,0.1-0.3c0-0.1,0-0.2-0.1-0.3
			c0-0.1-0.1-0.2-0.2-0.2c-0.1-0.1-0.2-0.1-0.3-0.1c-0.1,0-0.3,0-0.4,0c-0.2,0-0.3,0-0.4,0c-0.1,0-0.2,0.1-0.3,0.1
			c-0.1,0.1-0.1,0.1-0.2,0.2c0,0.1-0.1,0.2-0.1,0.3c0,0.1,0,0.2,0.1,0.3c0,0.1,0.1,0.2,0.2,0.2c0.1,0.1,0.2,0.1,0.3,0.1
			c0.1,0,0.3,0,0.4,0C69,35.3,69.1,35.3,69.2,35.3z M68.5,34.9c-0.1,0-0.2,0-0.2-0.1c-0.1,0-0.1-0.1-0.1-0.1c0,0,0-0.1,0-0.1
			c0,0,0-0.1,0-0.1c0,0,0.1-0.1,0.1-0.1c0.1,0,0.1-0.1,0.2-0.1c0.1,0,0.2,0,0.3,0c0.1,0,0.2,0,0.3,0c0.1,0,0.2,0,0.2,0.1
			c0.1,0,0.1,0.1,0.1,0.1c0,0,0,0.1,0,0.1c0,0,0,0.1,0,0.1c0,0-0.1,0.1-0.1,0.1c-0.1,0-0.1,0.1-0.2,0.1c-0.1,0-0.2,0-0.3,0
			C68.7,35,68.6,35,68.5,34.9z"/>
	</g>
	<g>
		<rect x="63.7" y="32.4" class="st17" width="2.3" height="4.3"/>
		<path class="st49" d="M65.5,33.8c0.1,0,0.1-0.1,0.2-0.1c0.1,0,0.1-0.1,0.1-0.2c0-0.1,0-0.2,0-0.3v-0.7h-1.8v0.3h0.6v0.2
			c0,0.1,0,0.3,0,0.3c0,0.1,0.1,0.2,0.1,0.2c0,0.1,0.1,0.1,0.2,0.1c0.1,0,0.2,0,0.2,0C65.4,33.8,65.4,33.8,65.5,33.8z M65.1,33.5
			C65.1,33.4,65.1,33.4,65.1,33.5C65,33.3,65,33.3,65,33.3c0,0,0-0.1,0-0.1v-0.3h0.6v0.3c0,0.1,0,0.2-0.1,0.2
			c-0.1,0.1-0.1,0.1-0.2,0.1C65.2,33.5,65.2,33.5,65.1,33.5z"/>
		<path class="st49" d="M65.9,34.6l-0.2-0.4h-0.3l0.2,0.3h-1.5v0.3h1.8V34.6z"/>
	</g>
	<g>
		<rect x="59.7" y="32.4" class="st17" width="2.3" height="4.3"/>
		<path class="st49" d="M61.4,33.8c0.1,0,0.1-0.1,0.2-0.1c0.1,0,0.1-0.1,0.1-0.2c0-0.1,0-0.2,0-0.3v-0.7H60v0.3h0.6v0.2
			c0,0.1,0,0.3,0,0.3c0,0.1,0.1,0.2,0.1,0.2c0,0.1,0.1,0.1,0.2,0.1c0.1,0,0.2,0,0.2,0C61.3,33.8,61.4,33.8,61.4,33.8z M61.1,33.5
			C61,33.4,61,33.4,61.1,33.5c-0.1-0.1-0.1-0.2-0.2-0.2c0,0,0-0.1,0-0.1v-0.3h0.6v0.3c0,0.1,0,0.2-0.1,0.2c-0.1,0.1-0.1,0.1-0.2,0.1
			C61.1,33.5,61.1,33.5,61.1,33.5z"/>
		<path class="st49" d="M60.2,34.5c0.1,0.1,0.1,0.2,0.2,0.2c0.1,0.1,0.1,0.1,0.2,0.2c0,0,0.1,0.1,0.1,0.1c0,0,0.1,0.1,0.2,0.1
			c0.1,0,0.1,0.1,0.2,0.1c0.1,0,0.1,0,0.2,0c0.1,0,0.2,0,0.2,0c0.1,0,0.1-0.1,0.2-0.1c0,0,0.1-0.1,0.1-0.2c0-0.1,0-0.2,0-0.2
			c0-0.1,0-0.2,0-0.3c0-0.1-0.1-0.2-0.1-0.3l-0.3,0c0,0.1,0.1,0.1,0.1,0.2c0,0.1,0,0.2,0,0.2c0,0.1,0,0.2-0.1,0.2
			c0,0.1-0.1,0.1-0.2,0.1c-0.1,0-0.2,0-0.2-0.1c-0.1,0-0.2-0.1-0.2-0.2c-0.1-0.1-0.2-0.2-0.3-0.3c-0.1-0.1-0.2-0.2-0.3-0.3H60v1.2
			h0.3V34.5z"/>
	</g>
	<g>
		<path class="st17" d="M57.5,33.8c0.1,0,0.1-0.1,0.2-0.1c0,0,0.1-0.1,0.1-0.2c0-0.1,0-0.2,0-0.3v-0.7h-1.8v0.3h0.6v0.2
			c0,0.1,0,0.3,0,0.3c0,0.1,0.1,0.2,0.1,0.2c0.1,0.1,0.1,0.1,0.2,0.1c0.1,0,0.2,0,0.2,0C57.4,33.8,57.5,33.8,57.5,33.8z M57.2,33.5
			C57.1,33.4,57.1,33.4,57.2,33.5C57,33.3,57,33.3,57,33.3c0,0,0-0.1,0-0.1v-0.3h0.6v0.3c0,0.1,0,0.2-0.1,0.2
			c-0.1,0.1-0.1,0.1-0.2,0.1C57.2,33.5,57.2,33.5,57.2,33.5z"/>
		<path class="st17" d="M56.7,35.3c0,0,0.1,0,0.1-0.1c0,0,0.1-0.1,0.1-0.1c0,0,0.1-0.1,0.1-0.1c0,0,0,0.1,0.1,0.1
			c0,0,0.1,0.1,0.1,0.1c0,0,0.1,0,0.1,0.1c0,0,0.1,0,0.1,0c0.1,0,0.1,0,0.2,0c0.1,0,0.1-0.1,0.2-0.1c0-0.1,0.1-0.1,0.1-0.2
			c0-0.1,0-0.2,0-0.2c0-0.1,0-0.2,0-0.2c0-0.1-0.1-0.1-0.1-0.2c0,0-0.1-0.1-0.2-0.1c-0.1,0-0.1,0-0.2,0c0,0-0.1,0-0.1,0
			c0,0-0.1,0-0.1,0.1c0,0-0.1,0.1-0.1,0.1c0,0-0.1,0.1-0.1,0.1c0,0,0-0.1-0.1-0.1c0,0-0.1-0.1-0.1-0.1c0,0-0.1-0.1-0.1-0.1
			c0,0-0.1,0-0.2,0c-0.1,0-0.2,0-0.2,0c-0.1,0-0.1,0.1-0.2,0.1c0,0.1-0.1,0.1-0.1,0.2c0,0.1,0,0.2,0,0.3c0,0.1,0,0.2,0,0.3
			c0,0.1,0.1,0.1,0.1,0.2c0,0.1,0.1,0.1,0.2,0.1c0.1,0,0.1,0,0.2,0C56.6,35.3,56.7,35.3,56.7,35.3z M57.6,34.5c0,0,0.1,0.1,0.1,0.2
			c0,0,0,0.1,0,0.1c0,0,0,0.1,0,0.1c0,0-0.1,0-0.1,0.1c0,0-0.1,0-0.1,0c0,0-0.1,0-0.1,0c0,0-0.1,0-0.1-0.1c0,0,0-0.1-0.1-0.1
			c0,0,0-0.1,0-0.1c0-0.1,0.1-0.1,0.1-0.2c0,0,0.1-0.1,0.2-0.1C57.5,34.4,57.6,34.4,57.6,34.5z M56.5,34.9
			C56.4,34.9,56.4,34.9,56.5,34.9c-0.1-0.1-0.1-0.1-0.1-0.2c0,0,0-0.1,0-0.1c0,0,0-0.1,0-0.1c0,0,0-0.1,0.1-0.1c0,0,0.1,0,0.1-0.1
			c0,0,0.1,0,0.1,0c0.1,0,0.1,0,0.2,0.1c0.1,0.1,0.1,0.1,0.1,0.2c0,0.1-0.1,0.2-0.1,0.2c-0.1,0.1-0.1,0.1-0.2,0.1
			C56.5,34.9,56.5,34.9,56.5,34.9z"/>
	</g>
	<g>
		<path class="st17" d="M53.6,33.8c0.1,0,0.1-0.1,0.2-0.1c0.1,0,0.1-0.1,0.1-0.2c0-0.1,0-0.2,0-0.3v-0.7h-1.8v0.3h0.6v0.2
			c0,0.1,0,0.3,0,0.3c0,0.1,0.1,0.2,0.1,0.2c0,0.1,0.1,0.1,0.2,0.1c0.1,0,0.2,0,0.2,0C53.5,33.8,53.5,33.8,53.6,33.8z M53.2,33.5
			C53.2,33.4,53.2,33.4,53.2,33.5c-0.1-0.1-0.1-0.2-0.2-0.2c0,0,0-0.1,0-0.1v-0.3h0.6v0.3c0,0.1,0,0.2-0.1,0.2
			c-0.1,0.1-0.1,0.1-0.2,0.1C53.3,33.5,53.3,33.5,53.2,33.5z"/>
		<path class="st17" d="M53.5,35.2c0.1,0,0.2-0.1,0.3-0.1c0.1-0.1,0.1-0.1,0.2-0.2c0-0.1,0.1-0.2,0.1-0.3c0-0.1,0-0.2,0-0.3
			c0-0.1-0.1-0.1-0.1-0.2c-0.1-0.1-0.1-0.1-0.2-0.1c-0.1,0-0.2,0-0.3,0c-0.1,0-0.2,0-0.3,0c-0.1,0-0.1,0.1-0.2,0.1
			c0,0-0.1,0.1-0.1,0.2c0,0.1,0,0.1,0,0.2c0,0.1,0,0.2,0,0.2c0,0.1,0.1,0.1,0.1,0.2c-0.1,0-0.2,0-0.2,0c-0.1,0-0.1-0.1-0.2-0.1
			c0,0-0.1-0.1-0.1-0.1c0,0,0-0.1,0-0.2c0,0,0-0.1,0-0.2c0,0,0-0.1,0-0.1l-0.2-0.1c0,0.1,0,0.1-0.1,0.2c0,0.1,0,0.2,0,0.2
			c0,0.1,0,0.2,0.1,0.3c0,0.1,0.1,0.2,0.2,0.2c0.1,0.1,0.2,0.1,0.3,0.2c0.1,0,0.3,0,0.4,0C53.3,35.3,53.4,35.3,53.5,35.2z
			 M53.2,34.9C53.2,34.9,53.1,34.9,53.2,34.9c-0.1-0.1-0.1-0.1-0.1-0.1c0,0,0-0.1,0-0.1c0,0,0-0.1,0-0.1c0,0,0-0.1,0-0.1
			c0,0,0-0.1,0.1-0.1c0,0,0.1,0,0.1-0.1c0,0,0.1,0,0.2,0c0.1,0,0.2,0,0.3,0.1c0.1,0.1,0.1,0.1,0.1,0.2c0,0,0,0.1,0,0.1
			c0,0,0,0.1-0.1,0.1c0,0-0.1,0-0.1,0.1c0,0-0.1,0-0.2,0c0,0-0.1,0-0.1,0H53.2z"/>
	</g>
	<g>
		<path class="st17" d="M49.7,33.8c0.1,0,0.1-0.1,0.2-0.1c0,0,0.1-0.1,0.1-0.2c0-0.1,0-0.2,0-0.3v-0.7h-1.8v0.3h0.6v0.2
			c0,0.1,0,0.3,0,0.3c0,0.1,0.1,0.2,0.1,0.2c0.1,0.1,0.1,0.1,0.2,0.1c0.1,0,0.2,0,0.2,0C49.5,33.8,49.6,33.8,49.7,33.8z M49.3,33.5
			c0,0-0.1,0-0.1-0.1c0,0,0-0.1-0.1-0.1c0,0,0-0.1,0-0.1v-0.3h0.6v0.3c0,0.1,0,0.2-0.1,0.2c-0.1,0.1-0.1,0.1-0.2,0.1
			C49.4,33.5,49.3,33.5,49.3,33.5z"/>
		<path class="st17" d="M50,34.6l-0.2-0.4h-0.3l0.1,0.3h-1.5v0.3H50V34.6z"/>
		<path class="st17" d="M48.5,36c0.1,0.1,0.1,0.2,0.2,0.2c0.1,0.1,0.2,0.1,0.2,0.2c0,0,0.1,0.1,0.1,0.1c0.1,0,0.1,0.1,0.2,0.1
			c0.1,0,0.1,0.1,0.2,0.1c0.1,0,0.1,0,0.2,0c0.1,0,0.2,0,0.2,0c0.1,0,0.1-0.1,0.2-0.1c0,0,0.1-0.1,0.1-0.2c0-0.1,0-0.2,0-0.2
			c0-0.1,0-0.2,0-0.3c0-0.1-0.1-0.2-0.1-0.3l-0.3,0c0,0.1,0.1,0.1,0.1,0.2c0,0.1,0,0.2,0,0.2c0,0.1,0,0.2-0.1,0.2
			c0,0.1-0.1,0.1-0.2,0.1c-0.1,0-0.2,0-0.2-0.1c-0.1,0-0.2-0.1-0.3-0.2c-0.1-0.1-0.2-0.2-0.3-0.3c-0.1-0.1-0.2-0.2-0.3-0.3h-0.2v1.2
			h0.3V36z"/>
	</g>
	<g>
		<path class="st17" d="M45.8,33.8c0.1,0,0.1-0.1,0.2-0.1c0.1,0,0.1-0.1,0.1-0.2c0-0.1,0-0.2,0-0.3v-0.7h-1.8v0.3h0.6v0.2
			c0,0.1,0,0.3,0,0.3c0,0.1,0.1,0.2,0.1,0.2c0.1,0.1,0.1,0.1,0.2,0.1c0.1,0,0.2,0,0.2,0C45.6,33.8,45.7,33.8,45.8,33.8z M45.4,33.5
			C45.3,33.4,45.3,33.4,45.4,33.5c-0.1-0.1-0.1-0.2-0.2-0.2c0,0,0-0.1,0-0.1v-0.3h0.6v0.3c0,0.1,0,0.2-0.1,0.2
			c-0.1,0.1-0.1,0.1-0.2,0.1C45.5,33.5,45.4,33.5,45.4,33.5z"/>
		<path class="st17" d="M46.1,34.6l-0.3-0.4h-0.3l0.1,0.3h-1.4v0.3h1.8V34.6z"/>
		<path class="st17" d="M45.1,36.6c0.1-0.1,0.1-0.1,0.2-0.3c0,0.1,0.1,0.2,0.2,0.2c0.1,0.1,0.2,0.1,0.2,0.1c0.1,0,0.1,0,0.2,0
			c0.1,0,0.1-0.1,0.2-0.1c0,0,0.1-0.1,0.1-0.2c0-0.1,0-0.1,0-0.2c0-0.1,0-0.2,0-0.2c0-0.1,0-0.2-0.1-0.2h-0.3c0,0.1,0.1,0.1,0.1,0.2
			c0,0.1,0,0.1,0,0.2c0,0.1,0,0.2-0.1,0.2c0,0.1-0.1,0.1-0.2,0.1c0,0-0.1,0-0.1,0c0,0-0.1,0-0.1-0.1c0,0,0-0.1-0.1-0.1
			c0,0,0-0.1,0-0.1v-0.1h-0.3V36c0,0,0,0.1,0,0.1c0,0,0,0.1-0.1,0.1c0,0-0.1,0.1-0.1,0.1c0,0-0.1,0-0.1,0c-0.1,0-0.2,0-0.2-0.1
			c-0.1-0.1-0.1-0.1-0.1-0.2c0-0.1,0-0.1,0-0.2c0-0.1,0.1-0.1,0.1-0.2l-0.2-0.1c-0.1,0.1-0.1,0.2-0.1,0.2c0,0.1,0,0.2,0,0.3
			c0,0.1,0,0.2,0,0.3c0,0.1,0.1,0.2,0.1,0.2c0,0.1,0.1,0.1,0.2,0.1c0.1,0,0.1,0,0.2,0C44.9,36.6,45,36.6,45.1,36.6z"/>
	</g>
	<g>
		<path class="st17" d="M41.8,33.8c0.1,0,0.1-0.1,0.2-0.1c0,0,0.1-0.1,0.1-0.2c0-0.1,0-0.2,0-0.3v-0.7h-1.8v0.3H41v0.2
			c0,0.1,0,0.3,0,0.3c0,0.1,0.1,0.2,0.1,0.2c0.1,0.1,0.1,0.1,0.2,0.1c0.1,0,0.2,0,0.2,0C41.7,33.8,41.8,33.8,41.8,33.8z M41.5,33.5
			C41.4,33.4,41.4,33.4,41.5,33.5c-0.1-0.1-0.1-0.2-0.2-0.2c0,0,0-0.1,0-0.1v-0.3h0.6v0.3c0,0.1,0,0.2-0.1,0.2
			c-0.1,0.1-0.1,0.1-0.2,0.1C41.6,33.5,41.5,33.5,41.5,33.5z"/>
		<path class="st17" d="M42.2,34.6l-0.2-0.4h-0.3l0.1,0.3h-1.5v0.3h1.8V34.6z"/>
		<path class="st17" d="M41,36.5h1.2v-0.4l-1.2-0.7h-0.2v0.8h-0.3v0.3h0.3v0.3H41V36.5z M41,36.2v-0.5l0.9,0.5H41z"/>
	</g>
	<g>
		<path class="st17" d="M37.9,33.8c0.1,0,0.1-0.1,0.2-0.1c0,0,0.1-0.1,0.1-0.2c0-0.1,0-0.2,0-0.3v-0.7h-1.8v0.3h0.6v0.2
			c0,0.1,0,0.3,0,0.3c0,0.1,0.1,0.2,0.1,0.2c0.1,0.1,0.1,0.1,0.2,0.1c0.1,0,0.2,0,0.2,0C37.8,33.8,37.9,33.8,37.9,33.8z M37.6,33.5
			C37.5,33.4,37.5,33.4,37.6,33.5c-0.1-0.1-0.1-0.2-0.2-0.2c0,0,0-0.1,0-0.1v-0.3H38v0.3c0,0.1,0,0.2-0.1,0.2
			c-0.1,0.1-0.1,0.1-0.2,0.1C37.7,33.5,37.6,33.5,37.6,33.5z"/>
		<path class="st17" d="M38.3,34.6L38,34.2h-0.3l0.1,0.3h-1.5v0.3h1.8V34.6z"/>
		<path class="st17" d="M37.3,36.7c0.1,0,0.1-0.1,0.2-0.1c0,0,0.1-0.1,0.1-0.2c0-0.1,0-0.1,0-0.2c0,0,0-0.1,0-0.1c0,0,0-0.1,0-0.1
			l0.4,0v0.7h0.3v-1l-0.9,0l-0.1,0.1c0.1,0.1,0.1,0.2,0.1,0.4c0,0.1,0,0.2-0.1,0.3c-0.1,0.1-0.1,0.1-0.2,0.1c0,0-0.1,0-0.1,0
			c0,0-0.1,0-0.1-0.1c0,0-0.1-0.1-0.1-0.1c0,0,0-0.1,0-0.1c0-0.1,0-0.1,0-0.2c0-0.1,0-0.1,0.1-0.2l-0.2-0.1c0,0.1-0.1,0.2-0.1,0.3
			c0,0.1,0,0.2,0,0.3c0,0.1,0,0.2,0,0.3c0,0.1,0.1,0.1,0.1,0.2c0.1,0.1,0.1,0.1,0.2,0.1c0.1,0,0.2,0,0.3,0
			C37.1,36.7,37.2,36.7,37.3,36.7z"/>
	</g>
	<g>
		<path class="st17" d="M34,33.8c0.1,0,0.1-0.1,0.2-0.1c0.1,0,0.1-0.1,0.1-0.2c0-0.1,0-0.2,0-0.3v-0.7h-1.8v0.3h0.6v0.2
			c0,0.1,0,0.3,0,0.3c0,0.1,0.1,0.2,0.1,0.2c0.1,0.1,0.1,0.1,0.2,0.1c0.1,0,0.2,0,0.2,0C33.9,33.8,33.9,33.8,34,33.8z M33.6,33.5
			C33.6,33.4,33.6,33.4,33.6,33.5c-0.1-0.1-0.1-0.2-0.2-0.2c0,0,0-0.1,0-0.1v-0.3h0.6v0.3c0,0.1,0,0.2-0.1,0.2
			c-0.1,0.1-0.1,0.1-0.2,0.1C33.7,33.5,33.7,33.5,33.6,33.5z"/>
		<path class="st17" d="M34.4,34.6l-0.2-0.4h-0.3l0.1,0.3h-1.5v0.3h1.8V34.6z"/>
		<path class="st17" d="M33.4,36.7c0.1,0,0.1-0.1,0.2-0.1c0,0,0.1-0.1,0.1-0.2c0-0.1,0-0.1,0-0.2c0-0.1,0-0.2,0-0.2
			c0-0.1-0.1-0.1-0.1-0.2c0.2,0,0.3,0.1,0.4,0.1c0.1,0.1,0.2,0.2,0.2,0.3c0,0.1,0,0.1,0,0.2c0,0,0,0.1,0,0.1l0.3,0c0,0,0-0.1,0-0.2
			c0-0.1,0-0.1,0-0.2c0-0.1,0-0.2-0.1-0.3c0-0.1-0.1-0.2-0.2-0.3c-0.1-0.1-0.2-0.1-0.3-0.2c-0.1,0-0.3-0.1-0.4-0.1
			c-0.1,0-0.3,0-0.4,0c-0.1,0-0.2,0.1-0.3,0.1c-0.1,0.1-0.1,0.1-0.2,0.2c0,0.1-0.1,0.2-0.1,0.3c0,0.1,0,0.2,0,0.3
			c0,0.1,0.1,0.1,0.1,0.2c0.1,0.1,0.1,0.1,0.2,0.1c0.1,0,0.2,0,0.3,0C33.2,36.8,33.3,36.7,33.4,36.7z M32.9,36.3
			c-0.1-0.1-0.1-0.1-0.1-0.2c0,0,0-0.1,0-0.1c0,0,0-0.1,0.1-0.1c0,0,0.1,0,0.1-0.1c0,0,0.1,0,0.2,0c0,0,0.1,0,0.1,0h0.1
			c0,0,0,0,0.1,0.1c0,0,0,0.1,0.1,0.1c0,0,0,0.1,0,0.1c0,0,0,0.1,0,0.1c0,0,0,0.1,0,0.1c0,0,0,0.1-0.1,0.1c0,0-0.1,0-0.1,0.1
			c0,0-0.1,0-0.2,0C33,36.4,32.9,36.4,32.9,36.3z"/>
	</g>
	<path class="st17" d="M73.4,26.5h0.8v-0.4h-0.8v-0.8H73v0.8h-0.8v0.4H73v0.8h0.4V26.5z"/>
	<path class="st17" d="M73.5,22.2H73v1.2h0.5V22.2z"/>
	<g>
		<path class="st17" d="M72.7,30.3h-0.7v-0.4h2v0.7c0,0.5-0.2,0.7-0.6,0.7c-0.2,0-0.4-0.1-0.5-0.2c-0.1-0.1-0.2-0.3-0.2-0.5V30.3z
			 M73.7,30.3h-0.6v0.2c0,0.2,0.1,0.4,0.3,0.4c0.2,0,0.3-0.1,0.3-0.4V30.3z"/>
	</g>
	<g>
		<circle class="st17" cx="9.7" cy="39.6" r="4.2"/>
		<circle cx="9.7" cy="39.6" r="3"/>
		<circle class="st17" cx="9.7" cy="39.6" r="2.5"/>
	</g>
	<g>
		<circle class="st17" cx="54.9" cy="39.6" r="4.2"/>
		<circle cx="54.9" cy="39.6" r="3"/>
		<circle class="st17" cx="54.9" cy="39.6" r="2.5"/>
	</g>
	<g>
		<path class="st17" d="M9.7,127.2c-2.3,0-4.2-1.9-4.2-4.2c0-2.3,1.9-4.2,4.2-4.2c2.3,0,4.2,1.9,4.2,4.2
			C13.9,125.3,12,127.2,9.7,127.2z"/>
		<path d="M9.7,125.9c-1.6,0-3-1.3-3-3c0-1.6,1.3-3,3-3c1.6,0,3,1.3,3,3C12.6,124.6,11.3,125.9,9.7,125.9z"/>
		<path class="st17" d="M9.7,125.5c-1.4,0-2.5-1.1-2.5-2.5c0-1.4,1.1-2.5,2.5-2.5s2.5,1.1,2.5,2.5C12.2,124.4,11.1,125.5,9.7,125.5z
			"/>
	</g>
	<g>
		<path class="st17" d="M54.9,127.2c-2.3,0-4.2-1.9-4.2-4.2c0-2.3,1.9-4.2,4.2-4.2c2.3,0,4.2,1.9,4.2,4.2
			C59.1,125.3,57.2,127.2,54.9,127.2z"/>
		<path d="M54.9,125.9c-1.6,0-3-1.3-3-3c0-1.6,1.3-3,3-3c1.6,0,3,1.3,3,3C57.9,124.6,56.5,125.9,54.9,125.9z"/>
		<path class="st17" d="M54.9,125.5c-1.4,0-2.5-1.1-2.5-2.5c0-1.4,1.1-2.5,2.5-2.5c1.4,0,2.5,1.1,2.5,2.5
			C57.4,124.4,56.3,125.5,54.9,125.5z"/>
	</g>
	<path class="st66" d="M76.6,127.4h-7.3c-0.6,0-1.1-0.5-1.1-1.1v-9.5c0-0.6,0.5-1.1,1.1-1.1h7.3V127.4z"/>
	<rect x="72" y="114.6" class="st17" width="1.9" height="1.1"/>
	<rect x="72" y="127.4" class="st17" width="1.9" height="1.1"/>
	<g>
		<rect x="73.8" y="124.4" class="st67" width="0.8" height="1.1"/>
		<rect x="71.2" y="124.4" class="st68" width="2.6" height="1.1"/>
		<rect x="73.8" y="117.5" class="st67" width="0.8" height="1.1"/>
		<rect x="71.2" y="117.5" class="st68" width="2.6" height="1.1"/>
	</g>
</g>
</svg>
