<?xml version="1.0" encoding="UTF-8" standalone="no"?>
<svg xmlns="http://www.w3.org/2000/svg" xmlns:xlink="http://www.w3.org/1999/xlink" width="297.000mm" height="210.000mm" viewBox="0.000000 0.000000 297.000000 210.000000" stroke-linejoin="round" stroke-linecap="round" fill="none" fill-rule="evenodd"><desc>3DVIA Composer Export</desc><script type="text/ecmascript"><![CDATA[
if(typeof(top) != "undefined")
{
	top.ShowPaper = ShowPaper;
}
function ShowHotSpot(evt,hotspotid)
{
	var svgDocument = evt.target.ownerDocument;
	var strId = "hotspot."+hotspotid;
	var hotspot = svgDocument.getElementById(strId);
	if(hotspot)
		hotspot.setAttribute("opacity",".5");
}
function HideHotSpot(evt,hotspotid)
{
	var svgDocument = evt.target.ownerDocument;
	var strId = "hotspot."+hotspotid;
	var hotspot = svgDocument.getElementById(strId);
	if(hotspot)
		hotspot.setAttribute("opacity","0");

	var toolTip = svgDocument.getElementById('ToolTip');
	if(toolTip)
		toolTip.setAttribute("visibility","hidden");
}
function ShowToolTip(evt,hotspotid,strTooltip)
{
	if(strTooltip=="")
	return;

	// change text
	var svgDocument = evt.target.ownerDocument;
	var tiptext = svgDocument.getElementById('ToolTipText');
	if( !tiptext )
	return;
	tiptext.firstChild.nodeValue = " " + strTooltip + "  " ;

	// show tooltip before, else some refresh issue

	var toolTip = svgDocument.getElementById('ToolTip');
	if(!toolTip)
	return;

	toolTip.setAttribute("visibility","visible");
	toolTip.setAttribute("opacity",".95");

	// move tooltip
	// get viewbox

	var root = svgDocument.documentElement;
	var vbox = (root.getAttribute("viewBox")).split(' ');
	var x0 = parseFloat(vbox[0]);
	var y0 = parseFloat(vbox[1]);
	var vboxW = parseFloat(vbox[2]);
	var vboxH = parseFloat(vbox[3]);

	// get default width of svg

	var strW = root.getAttribute("width");
	var svgW = parseFloat(strW);
	if(strW.indexOf('mm') != -1)
	svgW *= 3.779;

	var strH = root.getAttribute("height");
	var svgH = parseFloat(strH);
	if(strH.indexOf('mm') != -1)
	svgH *= 3.779;  	// 96 dpi  -> 96/25.4 = 3.779

	// update the viewbox / width / height if svg is embedded in html with zoom fit all
	var realx0 = x0;
	var realy0 = y0;
	var realvboxW = vboxW;
	var realvboxH = vboxH;
	var realsvgW = svgW;
	var realsvgH = svgH;

	if ((typeof(top) == "undefined") || (typeof(top.svgctl1) != "undefined")) // embedded in html
	{
		// get window size in pxl

		svgW = window.innerWidth;
		svgH = window.innerHeight;

		// calculate real viewbox

		realsvgW = svgW;
		realsvgH = svgH;
		if((svgW / svgH) > (vboxW / vboxH))
		{
			realvboxW = (vboxH * svgW) / svgH;
			realvboxH = vboxH;
			realx0 = x0 - (realvboxW - vboxW)/2 ;
		}
		else
		{
			realvboxH = (vboxW * svgH) / svgW;
			realvboxW = vboxW;
			realy0 = y0 - (realvboxH - vboxH)/2 ;
		}
	}

	// get user zoom/pan

	var newScale = root.currentScale;
	var translation = root.currentTranslate;

	// transform pxl to user unit

	var xPos = (((evt.clientX+10- translation.x)/newScale) * realvboxW)/realsvgW  + realx0 ;
	var yPos = (((evt.clientY+5- translation.y)/newScale) * realvboxH)/ realsvgH  + realy0 ;
	var scaleForWidth = ( (1 / newScale) * realvboxH) / realsvgH;

	// move tooltip

	toolTip.setAttribute("transform", "translate(" + xPos + "," + yPos + ")" );

	// resize tooltip

	var fontsize = 12;
	tiptext.setAttribute("font-size",fontsize*scaleForWidth);
	tiptext.setAttribute("y", fontsize*scaleForWidth);
	var tipBG = svgDocument.getElementById('ToolTipBG');
	var outline = tiptext.getBBox();
	if(tipBG)
	{
		tipBG.setAttribute("stroke-width", 1*scaleForWidth);
		tipBG.setAttribute("width", Number(outline.width) );
		tipBG.setAttribute("height", Number(outline.height) + fontsize*.5*scaleForWidth );
	}
	var ToolTipShadow = svgDocument.getElementById('ToolTipShadow');
	if(ToolTipShadow)
	{
		ToolTipShadow.setAttribute("width", Number(outline.width) );
		ToolTipShadow.setAttribute("height", Number(outline.height) + fontsize*.5*scaleForWidth );
		ToolTipShadow.setAttribute("x", 3*scaleForWidth);
		ToolTipShadow.setAttribute("y", 3*scaleForWidth);
	}
}
function ShowPaper()
{
  var svgDocument = getDocument();
  var paper = svgDocument.getElementById("paperID");
  if(paper)
  {
    paper.setAttribute("transform","scale(1)");
    paper.setAttribute("opacity","1");
    paper.setAttribute("visibility","visible");
  }
  var svg = svgDocument.getRootElement();
  if(svg)
  {
    svg.setAttribute("width","307.000mm");
    svg.setAttribute("height","220.000mm");
    svg.setAttribute("viewBox","-5.000000 -5.000000 307.000000 220.000000");
  }
}
]]></script><defs/><g><path style="fill:#dcdcdc;fill-rule:evenodd" d="M199.32,27.93L97.57,27.93L97.57,22.12L199.32,22.12zM150.31,43.90L151.09,44.39L150.06,46.57L149.28,46.23L147.61,46.23L146.44,46.87L145.37,48.39L145.39,50.98L143.47,51.91L144.10,53.23L145.88,54.55L147.98,55.07L148.92,55.07L151.01,54.55L152.79,53.22L153.68,51.77L154.11,50.40L199.32,50.38L199.32,56.19L97.57,56.19L97.57,50.38L142.80,50.23L143.03,47.61L144.10,45.57L145.37,44.51L146.58,43.90L147.63,43.65L149.27,43.65zM199.32,84.45L97.57,84.45L97.57,78.64L199.32,78.64zM199.32,112.46L97.57,112.46L97.57,106.65L199.32,106.65zM199.32,140.72L97.57,140.72L97.57,134.91L199.32,134.91zM150.85,155.41L151.09,155.75L150.22,157.48L147.88,157.48L146.44,158.10L145.37,159.63L145.37,161.65L145.66,162.14L143.46,163.21L143.56,163.67L144.10,164.46L145.89,165.78L147.45,166.30L149.45,166.30L150.99,165.77L152.40,164.85L153.60,163.19L199.32,163.17L199.32,168.98L97.57,168.98L97.57,163.17L143.07,163.01L143.03,158.85L144.00,156.96L145.55,155.67L146.84,155.14L148.73,154.87zM97.57,189.47L199.33,189.47L199.47,188.32L202.95,188.33L202.95,193.10L93.94,193.10L93.94,188.33L97.42,188.32z"/><g id="Actor_.0"><g style="stroke:#000000;stroke-width:0.353"><path d="M97.63,183.70L93.79,183.70"/><path d="M93.79,26.30L97.63,26.30"/><path d="M199.37,187.98L97.63,187.98"/><path d="M97.63,163.10L143.28,163.10L143.63,163.74L144.15,164.44"/><path d="M143.27,158.28L142.95,159.13L142.81,159.77L97.63,159.77"/><path d="M97.63,134.89L199.37,134.89"/><path d="M97.63,131.55L199.37,131.55"/><path d="M199.37,106.67L97.63,106.67"/><path d="M199.37,103.33L97.63,103.33"/><path d="M97.63,78.45L199.37,78.45"/><path d="M199.37,75.11L97.63,75.11"/><path d="M97.63,50.23L142.81,50.23L142.95,50.87L143.26,51.73"/><path d="M97.63,46.90L143.28,46.90L143.26,46.94"/><path d="M97.63,22.02L199.37,22.02"/><path d="M143.28,163.10L143.26,163.06"/><path d="M142.81,159.77L142.80,159.85"/><path d="M143.63,157.59L144.15,156.90"/><path d="M143.63,52.41L144.15,53.10"/><path d="M142.81,50.23L142.80,50.15"/><path d="M143.28,46.90L143.63,46.26L144.15,45.56"/><path d="M144.17,164.46L144.71,165.00L145.39,165.51"/><path d="M145.39,155.82L144.82,156.23L144.37,156.68"/><path d="M145.39,54.18L144.83,53.77L144.34,53.32"/><path d="M144.71,45.00L145.39,44.49L146.86,43.81L146.08,44.11"/><path d="M150.09,166.20L148.50,166.42L146.88,166.19L146.08,165.89"/><path d="M146.03,162.80L145.53,162.02"/><path d="M150.90,155.43L150.12,155.14L148.50,154.91L146.88,155.14L146.10,155.43"/><path d="M150.90,54.57L150.12,54.86L148.50,55.09L146.88,54.86L146.10,54.57"/><path d="M146.03,51.47L145.53,50.69"/><path d="M146.91,43.80L148.50,43.58L150.14,43.81L150.92,44.11"/><path d="M150.92,165.89L150.14,166.19L151.61,165.51L152.29,165.00"/><path d="M150.97,162.80L151.47,162.02"/><path d="M151.61,155.82L152.17,156.23L152.66,156.68"/><path d="M151.61,54.18L152.18,53.77L152.63,53.32"/><path d="M151.47,50.69L150.97,51.47"/><path d="M151.61,44.49L152.29,45.00L152.83,45.54"/><path d="M152.85,164.44L153.37,163.74L153.74,163.06"/><path d="M153.37,157.59L152.85,156.90"/><path d="M153.37,52.41L152.85,53.10"/><path d="M152.85,45.56L153.37,46.26L153.72,46.90L199.37,46.90"/><path d="M153.72,163.10L199.37,163.10"/><path d="M199.37,159.77L154.19,159.77L154.20,159.85"/><path d="M154.19,159.77L154.05,159.13L153.74,158.27"/><path d="M199.37,50.23L154.19,50.23L154.05,50.87L153.73,51.72"/><path d="M154.20,50.15L154.19,50.23"/><path d="M153.74,46.94L153.72,46.90"/><path d="M203.21,183.70L199.37,183.70"/><path d="M199.37,26.30L203.21,26.30"/></g><g style="stroke:#000000;stroke-width:0.705"><path d="M93.79,193.30L203.21,193.30L203.21,16.70L93.79,16.70L93.79,193.30"/><path d="M97.63,189.46L199.37,189.46L199.37,20.54L97.63,20.54L97.63,189.46"/><path d="M144.17,164.46L143.26,163.06L143.63,163.74"/><path d="M143.26,163.06L142.80,161.48L142.80,159.85L142.95,159.13"/><path d="M142.80,159.85L143.27,158.28L143.63,157.59"/><path d="M143.32,158.19L144.15,156.90L145.39,155.82L146.10,155.43"/><path d="M143.63,52.41L143.26,51.73L144.15,53.10L144.34,53.32"/><path d="M143.26,51.73L142.80,50.15L142.80,48.52L143.26,46.94L143.63,46.26"/><path d="M142.80,50.15L142.95,50.87"/><path d="M143.26,46.94L144.15,45.56L145.39,44.49L146.08,44.11"/><path d="M146.08,165.89L145.39,165.51L144.15,164.44L144.42,164.67"/><path d="M144.15,53.10L145.39,54.18L146.10,54.57"/><path d="M144.71,45.00L144.15,45.56L144.42,45.33"/><path d="M150.14,166.19L149.33,166.36L148.50,166.42L147.68,166.36L146.88,166.19L145.39,165.51L145.76,165.68"/><path d="M146.07,162.84L145.52,162.00"/><path d="M146.03,162.80L146.74,163.41L147.34,163.69L147.19,163.62"/><path d="M145.48,161.83L145.27,161.02"/><path d="M145.27,160.67L145.32,160.11L145.27,160.20L145.27,161.13L145.53,162.02"/><path d="M145.44,159.64L145.68,159.08"/><path d="M147.51,157.57L148.50,157.40L147.58,157.53L146.74,157.92L146.03,158.53L145.53,159.31L145.32,160.11L145.32,160.02"/><path d="M145.90,158.74L146.33,158.27"/><path d="M150.90,155.43L151.61,155.82L150.12,155.14L149.32,154.97L148.50,154.91L147.67,154.97L146.88,155.14L145.39,155.82"/><path d="M150.90,54.57L151.61,54.18L150.12,54.86L149.33,55.03L148.50,55.09L147.68,55.03L146.88,54.86L145.39,54.18"/><path d="M145.53,50.69L145.52,50.66L146.07,51.51"/><path d="M146.03,51.47L146.74,52.08L147.34,52.36L147.20,52.29"/><path d="M145.52,50.66L145.27,49.80L145.27,48.87L145.32,48.73L145.27,49.34"/><path d="M145.48,50.50L145.27,49.69"/><path d="M145.44,48.30L145.68,47.75"/><path d="M146.61,46.70L147.14,46.41L146.74,46.59L146.03,47.20L145.53,47.98L145.32,48.73L145.32,48.69"/><path d="M146.32,46.95L145.90,47.40"/><path d="M149.20,163.83L149.66,163.69L149.42,163.80L148.50,163.93L147.58,163.80L147.34,163.69L147.80,163.83"/><path d="M146.86,163.47L146.28,163.01"/><path d="M147.21,157.70L146.61,158.03"/><path d="M149.20,52.50L149.66,52.36L149.42,52.47L148.50,52.60L147.58,52.47L147.34,52.36L147.80,52.50"/><path d="M146.85,52.13L146.31,51.71"/><path d="M147.51,46.24L148.50,46.07L147.58,46.20L147.14,46.41L147.21,46.37"/><path d="M146.86,43.81L147.67,43.64L148.50,43.58L149.32,43.64L150.13,43.81L151.61,44.49L150.92,44.11"/><path d="M148.80,163.89L148.20,163.89"/><path d="M148.81,52.55L148.19,52.55"/><path d="M150.97,162.80L150.26,163.41L149.66,163.69L149.81,163.62"/><path d="M149.49,157.57L148.50,157.40L149.42,157.53L150.26,157.92L150.97,158.53L151.47,159.31L151.70,160.11L151.73,160.67"/><path d="M149.49,46.24L148.50,46.07L149.42,46.20L149.87,46.41L150.39,46.70"/><path d="M150.72,163.01L150.14,163.47"/><path d="M151.10,158.74L150.67,158.27"/><path d="M149.79,157.70L150.39,158.03"/><path d="M149.80,52.29L149.66,52.36L150.26,52.08L150.97,51.47"/><path d="M150.69,51.71L150.15,52.13"/><path d="M151.10,47.40L150.68,46.95"/><path d="M149.79,46.37L150.26,46.59L150.97,47.20L151.47,47.98L151.69,48.73L151.73,49.34"/><path d="M152.29,165.00L152.83,164.46L151.61,165.51L150.92,165.89"/><path d="M151.48,162.00L150.93,162.84"/><path d="M151.52,161.83L151.73,161.02"/><path d="M151.47,162.02L151.73,161.13L151.73,160.20L151.68,160.02"/><path d="M151.32,159.08L151.56,159.64"/><path d="M151.61,155.82L152.85,156.90L152.66,156.68"/><path d="M151.61,54.18L152.85,53.10L153.68,51.81"/><path d="M151.47,50.69L151.48,50.66L150.93,51.51"/><path d="M151.48,50.66L151.73,49.80L151.73,48.87L151.68,48.69"/><path d="M151.73,49.69L151.52,50.50"/><path d="M151.32,47.75L151.56,48.30"/><path d="M152.83,45.54L152.85,45.56L151.61,44.49L151.24,44.32"/><path d="M153.37,163.74L153.74,163.06L152.83,164.46L152.58,164.68"/><path d="M152.85,156.90L153.74,158.28L153.37,157.59"/><path d="M154.05,50.87L154.20,50.15L154.20,48.52L153.74,46.94L152.85,45.56L152.58,45.33"/><path d="M153.74,163.06L154.20,161.48L154.20,159.85L154.05,159.13"/><path d="M154.20,159.85L153.74,158.28"/><path d="M153.37,52.41L153.73,51.72L154.20,50.15"/><path d="M153.74,46.94L153.37,46.26"/></g></g><g><g/></g><g/><g id="paperID" visibility="hidden" opacity="0.00" transform="scale(0.000100)"><path style="stroke:#000000;stroke-width:0.500;fill:#e6e6e6;fill-rule:evenodd" d="M-2000.00,-2000.00L2297.00,-2000.00L2297.00,2210.00L-2000.00,2210.00zM0.00,0.00L297.00,0.00L297.00,210.00L0.00,210.00z"/><path style="fill:#000000;fill-opacity:0.118" d="M3.00,210.00L297.00,210.00L297.00,3.00L300.00,3.00L300.00,213.00L3.00,213.00z"/></g><g id="ToolTip" visibility="hidden" opacity="0" transform="translate(0,0)"><rect id="ToolTipShadow" opacity="0.20" fill="black" stroke="none" x="0" y="0" width="30" height="8"/><rect id="ToolTipBG" fill="#ffffe1" stroke="black" x="0" y="0" width="30" height="8"/><text xml:space="preserve" id="ToolTipText" fill="black" x="0" y="0" width="30" height="8">tooltip</text></g></g></svg>
