<?xml version="1.0" encoding="UTF-8" standalone="no"?>
<svg xmlns="http://www.w3.org/2000/svg" xmlns:xlink="http://www.w3.org/1999/xlink" width="297.000mm" height="210.000mm" viewBox="0.000000 0.000000 297.000000 210.000000" stroke-linejoin="round" stroke-linecap="round" fill="none" fill-rule="evenodd"><desc>3DVIA Composer Export</desc><script type="text/ecmascript"><![CDATA[
if(typeof(top) != "undefined")
{
	top.ShowPaper = ShowPaper;
}
function ShowHotSpot(evt,hotspotid)
{
	var svgDocument = evt.target.ownerDocument;
	var strId = "hotspot."+hotspotid;
	var hotspot = svgDocument.getElementById(strId);
	if(hotspot)
		hotspot.setAttribute("opacity",".5");
}
function HideHotSpot(evt,hotspotid)
{
	var svgDocument = evt.target.ownerDocument;
	var strId = "hotspot."+hotspotid;
	var hotspot = svgDocument.getElementById(strId);
	if(hotspot)
		hotspot.setAttribute("opacity","0");

	var toolTip = svgDocument.getElementById('ToolTip');
	if(toolTip)
		toolTip.setAttribute("visibility","hidden");
}
function ShowToolTip(evt,hotspotid,strTooltip)
{
	if(strTooltip=="")
	return;

	// change text
	var svgDocument = evt.target.ownerDocument;
	var tiptext = svgDocument.getElementById('ToolTipText');
	if( !tiptext )
	return;
	tiptext.firstChild.nodeValue = " " + strTooltip + "  " ;

	// show tooltip before, else some refresh issue

	var toolTip = svgDocument.getElementById('ToolTip');
	if(!toolTip)
	return;

	toolTip.setAttribute("visibility","visible");
	toolTip.setAttribute("opacity",".95");

	// move tooltip
	// get viewbox

	var root = svgDocument.documentElement;
	var vbox = (root.getAttribute("viewBox")).split(' ');
	var x0 = parseFloat(vbox[0]);
	var y0 = parseFloat(vbox[1]);
	var vboxW = parseFloat(vbox[2]);
	var vboxH = parseFloat(vbox[3]);

	// get default width of svg

	var strW = root.getAttribute("width");
	var svgW = parseFloat(strW);
	if(strW.indexOf('mm') != -1)
	svgW *= 3.779;

	var strH = root.getAttribute("height");
	var svgH = parseFloat(strH);
	if(strH.indexOf('mm') != -1)
	svgH *= 3.779;  	// 96 dpi  -> 96/25.4 = 3.779

	// update the viewbox / width / height if svg is embedded in html with zoom fit all
	var realx0 = x0;
	var realy0 = y0;
	var realvboxW = vboxW;
	var realvboxH = vboxH;
	var realsvgW = svgW;
	var realsvgH = svgH;

	if ((typeof(top) == "undefined") || (typeof(top.svgctl1) != "undefined")) // embedded in html
	{
		// get window size in pxl

		svgW = window.innerWidth;
		svgH = window.innerHeight;

		// calculate real viewbox

		realsvgW = svgW;
		realsvgH = svgH;
		if((svgW / svgH) > (vboxW / vboxH))
		{
			realvboxW = (vboxH * svgW) / svgH;
			realvboxH = vboxH;
			realx0 = x0 - (realvboxW - vboxW)/2 ;
		}
		else
		{
			realvboxH = (vboxW * svgH) / svgW;
			realvboxW = vboxW;
			realy0 = y0 - (realvboxH - vboxH)/2 ;
		}
	}

	// get user zoom/pan

	var newScale = root.currentScale;
	var translation = root.currentTranslate;

	// transform pxl to user unit

	var xPos = (((evt.clientX+10- translation.x)/newScale) * realvboxW)/realsvgW  + realx0 ;
	var yPos = (((evt.clientY+5- translation.y)/newScale) * realvboxH)/ realsvgH  + realy0 ;
	var scaleForWidth = ( (1 / newScale) * realvboxH) / realsvgH;

	// move tooltip

	toolTip.setAttribute("transform", "translate(" + xPos + "," + yPos + ")" );

	// resize tooltip

	var fontsize = 12;
	tiptext.setAttribute("font-size",fontsize*scaleForWidth);
	tiptext.setAttribute("y", fontsize*scaleForWidth);
	var tipBG = svgDocument.getElementById('ToolTipBG');
	var outline = tiptext.getBBox();
	if(tipBG)
	{
		tipBG.setAttribute("stroke-width", 1*scaleForWidth);
		tipBG.setAttribute("width", Number(outline.width) );
		tipBG.setAttribute("height", Number(outline.height) + fontsize*.5*scaleForWidth );
	}
	var ToolTipShadow = svgDocument.getElementById('ToolTipShadow');
	if(ToolTipShadow)
	{
		ToolTipShadow.setAttribute("width", Number(outline.width) );
		ToolTipShadow.setAttribute("height", Number(outline.height) + fontsize*.5*scaleForWidth );
		ToolTipShadow.setAttribute("x", 3*scaleForWidth);
		ToolTipShadow.setAttribute("y", 3*scaleForWidth);
	}
}
function ShowPaper()
{
  var svgDocument = getDocument();
  var paper = svgDocument.getElementById("paperID");
  if(paper)
  {
    paper.setAttribute("transform","scale(1)");
    paper.setAttribute("opacity","1");
    paper.setAttribute("visibility","visible");
  }
  var svg = svgDocument.getRootElement();
  if(svg)
  {
    svg.setAttribute("width","307.000mm");
    svg.setAttribute("height","220.000mm");
    svg.setAttribute("viewBox","-5.000000 -5.000000 307.000000 220.000000");
  }
}
]]></script><defs/><g><g id="Actor_.0"><g style="stroke:#000000;stroke-width:0.353"><path d="M184.54,44.54L172.01,49.96L171.81,49.98L171.63,50.04"/><path d="M172.01,49.96L209.81,64.01L221.86,57.33"/><path d="M171.34,50.39L209.88,64.80L222.02,58.02L222.53,70.06"/><path d="M178.75,51.08L179.24,51.56L179.98,52.06L180.90,52.52L181.42,52.72L181.98,52.92L183.20,53.25L184.52,53.51L185.90,53.68L187.31,53.76L188.70,53.75L190.04,53.64L191.29,53.45L192.42,53.17L193.39,52.82L194.18,52.41L194.77,51.94L195.15,51.43L195.30,50.90L195.24,50.35L194.95,49.81L194.46,49.28L193.77,48.79L192.91,48.33L191.90,47.93L190.77,47.59L189.54,47.32L188.25,47.13L186.92,47.01L185.59,46.98L184.28,47.03L183.04,47.17L181.89,47.38L180.86,47.67L179.97,48.03L179.26,48.44L178.72,48.91L178.39,49.41L178.28,49.95L178.38,50.49L178.70,51.03L178.75,51.08"/><path d="M194.79,51.28L194.73,50.77L194.46,50.26L194.28,50.07L194.00,49.76L193.35,49.29L192.54,48.86L191.59,48.48L190.51,48.16L189.35,47.90L189.15,47.87L188.13,47.72L186.87,47.61L185.61,47.58L184.38,47.63L183.20,47.76L182.12,47.96L181.14,48.23L180.30,48.57L179.62,48.96L179.12,49.41L178.81,49.88L178.71,50.35"/><path d="M184.38,53.24L184.36,53.29L184.29,53.33L184.26,53.21L184.21,53.09L184.13,52.99L184.04,52.89L183.93,52.83L183.83,52.80L183.09,52.77L182.12,52.88L182.08,52.89"/><path d="M185.78,53.63L185.90,52.29L185.20,52.26L184.27,52.37L183.40,52.65L183.28,52.71"/><path d="M183.31,53.23L183.83,52.80L183.90,52.76L183.99,52.74"/><path d="M184.28,53.42L184.29,53.33L184.20,53.41"/><path d="M188.58,52.88L188.30,52.65L187.71,52.37L187.05,52.26L186.54,52.29L186.44,52.32L186.32,52.34L186.19,52.34L186.05,52.33L185.90,52.29L185.90,52.18L185.93,52.03L185.98,51.89L186.05,51.79L186.14,51.72L186.20,51.70L186.29,51.73L186.40,51.80L186.48,51.90L186.53,52.02L186.55,52.15L186.41,53.67"/><path d="M185.47,51.67L186.20,51.70L186.74,51.67"/><path d="M187.43,51.79L187.46,51.80"/><path d="M188.43,53.12L189.12,53.56L189.25,53.67"/><path d="M188.88,52.78L189.33,53.22"/><path d="M188.97,52.76L189.23,52.80L189.50,52.77L190.26,52.83L190.95,53.10"/><path d="M189.23,52.80L189.59,53.03L190.24,53.57"/><path d="M197.08,57.34L196.89,56.73L196.93,56.14L197.19,55.58L197.68,55.07L198.38,54.60L199.25,54.21L200.29,53.89L201.47,53.65L202.76,53.51L204.12,53.45L205.53,53.48L206.95,53.61L208.34,53.82L209.68,54.12L210.93,54.50L212.06,54.94L213.04,55.45L213.85,56.00L214.45,56.58L214.84,57.19L215.01,57.80L214.93,58.39L214.62,58.96L214.07,59.48L213.31,59.94L212.34,60.34L211.19,60.64L209.90,60.86L208.51,60.97L207.03,60.99L205.53,60.90L204.05,60.71L202.61,60.42L201.28,60.05L200.65,59.83L200.07,59.60L199.02,59.09L198.16,58.54L197.51,57.95L197.08,57.34"/><path d="M197.36,56.64L197.61,56.11L198.07,55.62L198.72,55.18L199.55,54.80L200.53,54.50L201.65,54.27L202.26,54.20L202.86,54.13L204.15,54.08L205.49,54.11L206.83,54.23L208.15,54.44L209.41,54.72L210.60,55.08L211.66,55.50L212.59,55.98L213.35,56.50L213.92,57.06L214.29,57.63L214.44,58.21L214.37,58.70"/><path d="M202.13,60.24L202.38,59.98L202.68,59.72L202.26,59.68L201.06,59.72L200.73,59.79"/><path d="M203.08,58.55L204.18,58.46L205.01,58.50L205.12,58.54L205.23,58.61L205.32,58.72L205.37,58.84L205.39,58.98L205.37,59.13L205.27,59.16L205.15,59.18L205.01,59.18L204.86,59.17L204.70,59.13L203.91,59.08L202.86,59.17L201.87,59.43L201.41,59.65"/><path d="M202.68,59.72L202.84,59.70L202.48,60.00"/><path d="M202.97,59.68L202.84,59.70L202.42,59.62"/><path d="M202.60,60.07L203.05,59.70"/><path d="M202.03,58.83L202.00,58.85"/><path d="M203.45,60.06L202.98,60.45"/><path d="M204.48,60.72L204.70,59.13L204.70,59.01L204.73,58.86L204.79,58.71L204.86,58.60L204.94,58.53L205.01,58.50L205.52,58.46"/><path d="M207.68,60.16L207.49,59.86L207.03,59.43L206.48,59.17L205.86,59.08L205.37,59.13L205.14,60.81"/><path d="M206.18,58.55L206.19,58.56"/><path d="M207.69,60.10L207.71,60.17L207.77,60.23L207.90,60.29L207.80,60.94"/><path d="M209.53,59.76L208.89,59.67L208.37,59.72L208.31,59.75L208.22,59.82L208.12,59.92L208.02,60.05L207.94,60.19L207.90,60.29L208.64,60.80L208.76,60.90"/><path d="M209.80,60.82L209.15,60.26L208.37,59.72L208.26,59.67L208.14,59.66"/><path d="M209.81,64.01L209.85,64.14L209.88,64.29L209.90,64.55L209.89,64.72L209.25,68.90"/><path d="M210.10,60.04L210.08,60.03"/><path d="M222.02,58.02L222.08,57.84L222.09,57.67"/></g><g style="stroke:#000000;stroke-width:0.705"><path d="M222.62,70.18L222.09,57.67L222.05,57.52L221.97,57.40L221.92,57.36L221.86,57.33L184.54,44.54L184.48,44.52L184.42,44.52L184.29,44.56L171.63,50.04L171.48,50.13L171.42,50.19L171.38,50.25L171.35,50.32L171.34,50.39L171.13,54.21"/><path d="M178.74,50.66L179.05,51.18L179.48,51.60"/><path d="M178.73,50.25L178.72,50.41"/><path d="M178.73,50.29L178.72,50.42"/><path d="M178.78,50.74L178.70,50.28"/><path d="M183.28,53.23L182.13,52.91L181.08,52.52L180.19,52.08L179.47,51.60"/><path d="M182.05,52.88L182.18,52.84L182.28,52.83L183.26,52.71L183.99,52.74L184.09,52.77L184.16,52.80L184.25,52.87L184.35,53.01L184.38,53.17L184.37,53.44"/><path d="M189.08,52.78L189.42,52.73L188.97,52.76L188.88,52.78L188.78,52.63L188.24,52.17L188.14,52.11L187.52,51.81L187.43,51.79L186.74,51.67L185.92,51.65L185.47,51.67L184.49,51.79L183.50,52.11L182.66,52.57L182.36,52.82"/><path d="M189.99,53.61L188.67,53.71L187.30,53.72L185.91,53.64L184.55,53.47L183.25,53.22"/><path d="M188.37,53.71L188.43,53.12L188.44,53.05L188.50,52.96L188.60,52.87L188.74,52.80L188.88,52.78"/><path d="M191.33,53.38L190.94,53.10L190.86,53.06L190.18,52.79L189.30,52.71L188.98,52.76"/><path d="M189.94,53.61L191.14,53.43L192.23,53.16L193.17,52.82L193.94,52.42"/><path d="M194.75,51.56L194.39,52.05L193.90,52.44"/><path d="M194.82,51.18L194.68,51.66"/><path d="M197.76,58.00L198.39,58.57L199.09,59.03L199.23,59.11L200.24,59.61L201.41,60.04L202.71,60.40L202.66,60.39L202.91,60.44L202.71,60.40"/><path d="M197.45,57.52L197.84,58.07"/><path d="M197.32,57.08L197.47,57.54"/><path d="M197.33,57.08L197.33,57.04L197.33,57.11"/><path d="M197.33,57.04L197.36,56.64"/><path d="M200.47,59.69L201.00,59.32L201.96,58.86L203.08,58.55L204.62,58.41L205.52,58.46L206.18,58.55L206.27,58.58L206.85,58.86L206.96,58.93L207.45,59.39L207.77,59.88L207.73,59.95L207.69,60.10L207.56,60.94"/><path d="M200.68,59.77L201.22,59.65L202.42,59.62L202.97,59.68L203.20,59.72L203.33,59.79L203.42,59.89L203.45,59.98L203.45,60.06L203.39,60.53"/><path d="M202.91,60.44L204.07,60.67L205.54,60.86L207.02,60.95"/><path d="M205.80,60.87L205.97,60.84L206.10,60.85L206.21,60.90"/><path d="M213.80,59.49L213.06,59.94L212.12,60.32L211.01,60.61L209.76,60.82L208.41,60.93L207.00,60.95"/><path d="M207.77,59.88L207.82,59.82L207.86,59.78L207.95,59.72L208.02,59.69L208.14,59.66L208.66,59.61L209.44,59.72L210.08,60.03"/><path d="M210.03,60.01L210.10,60.04L210.70,60.49L210.86,60.64"/><path d="M214.40,58.65L214.15,59.11L214.20,59.07"/><path d="M214.15,59.11L213.68,59.56"/></g></g><g id="Actor_.1"><g style="stroke:#000000;stroke-width:0.353"><path d="M56.55,144.53L56.39,143.59L56.31,142.38L56.39,141.39L56.65,140.62L57.07,140.11L57.65,139.87L58.39,139.90L59.28,140.22L60.30,140.82L61.43,141.70L62.66,142.85L63.96,144.24L65.31,145.85L66.68,147.66L68.03,149.62L69.35,151.69L70.82,154.23L71.77,156.02L72.82,158.18L73.73,160.28L74.48,162.27L75.07,164.11L75.29,164.97L75.48,165.77L75.70,167.23L75.74,168.44L75.60,169.41L75.28,170.10L74.80,170.52L74.17,170.67L73.40,170.55L72.51,170.16L71.51,169.52L70.42,168.65L69.27,167.55L68.08,166.27L66.69,164.59L65.62,163.19L64.39,161.46L63.20,159.63L61.79,157.27L60.96,155.80L59.96,153.85L59.05,151.92L58.24,150.04L57.57,148.24L57.03,146.55L56.63,144.99L56.55,144.53"/><path d="M74.85,170.34L74.22,170.49L73.46,170.36L72.57,169.98L71.58,169.35L70.50,168.48L69.36,167.40L68.17,166.12L66.95,164.67L65.73,163.07L64.51,161.35L63.33,159.53L62.19,157.65L61.11,155.73L60.11,153.80L59.21,151.88L58.41,150.02L57.74,148.23L57.20,146.55L56.81,145.00L56.57,143.61L56.49,142.42L56.58,141.43L56.83,140.68L57.25,140.16"/><path d="M80.94,172.43L81.75,173.16L83.22,174.32L84.62,175.27L85.95,176.00L87.19,176.50L88.32,176.74L89.34,176.73L90.23,176.46L90.97,175.91L91.56,175.10L91.98,174.01L92.22,172.66L92.28,171.05L92.15,169.20L91.83,167.11L91.31,164.82L90.60,162.33L89.71,159.69L88.64,156.92L87.40,154.06L86.01,151.14L84.49,148.20L82.85,145.28L81.12,142.42L79.32,139.65L77.47,137.01L75.59,134.54L73.72,132.25L71.87,130.20L70.08,128.38L68.35,126.82L66.71,125.53L65.18,124.53L63.76,123.81L62.48,123.38L61.35,123.24L60.37,123.37L59.54,123.77L58.88,124.42L58.38,125.32L58.05,126.44L57.88,127.78L57.86,129.31L58.01,131.01L58.30,132.87L58.51,133.83"/><path d="M81.99,171.90L82.56,171.41L82.99,170.62L83.23,169.57L83.29,168.25L83.16,166.68L82.83,164.89L82.32,162.89L81.62,160.72L80.75,158.41L79.72,156.00L78.53,153.52L77.23,151.02L75.85,148.61L74.31,146.13L72.76,143.82L71.18,141.66L69.60,139.68L68.05,137.92L66.54,136.39L65.11,135.12L63.78,134.12L62.56,133.41L61.48,132.99L60.54,132.85L59.74,133.01"/><path d="M60.94,121.65L61.97,121.49L63.16,121.63L64.49,122.06L65.97,122.79L67.58,123.82L69.29,125.14L71.10,126.75L72.98,128.64L74.91,130.78L76.87,133.15L78.82,135.72L80.76,138.47L82.25,140.76L84.45,144.34L86.16,147.38L87.74,150.45L89.19,153.50L90.47,156.49L91.58,159.38L92.50,162.13L93.22,164.72L93.75,167.11L94.07,169.28L94.19,171.22L94.11,172.89L93.84,174.29L93.38,175.42L92.75,176.26L91.96,176.82"/><path d="M85.76,169.43L86.19,169.14L86.56,168.70L86.79,168.25L87.04,167.49L87.18,166.67L87.22,165.76L87.18,164.74L87.04,163.60L86.75,162.01L86.42,160.66L86.01,159.24L85.52,157.75L84.96,156.25L84.33,154.69L83.61,153.06L82.83,151.40L81.99,149.74L81.08,148.06L80.12,146.38L79.13,144.75L78.12,143.18L76.42,140.76L74.84,138.67L73.77,137.37L72.72,136.18L71.68,135.09L70.66,134.10L69.67,133.23L68.73,132.49L67.84,131.88L67.00,131.40L66.26,131.07L65.53,130.83L64.87,130.73L64.27,130.76L63.75,130.92"/><path d="M129.63,151.09L130.28,150.59L130.89,149.96L131.44,149.22L131.92,148.38L132.32,147.43L132.64,146.36L132.88,145.18L133.03,143.91L133.10,142.56L133.07,141.12L132.96,139.69L132.75,138.07L132.45,136.38L132.06,134.65L131.57,132.87L130.99,131.03L130.31,129.15L129.55,127.25L128.71,125.35L127.81,123.50L126.99,121.93L125.27,118.95L123.38,116.06L121.36,113.31L119.23,110.75L117.03,108.43L114.79,106.37L112.56,104.63L110.38,103.24L108.27,102.20L106.26,101.53L104.40,101.24L102.70,101.34L101.20,101.80"/><path d="M103.37,99.01L104.76,97.32L106.01,95.67L107.86,95.12L109.74,94.92L111.75,95.03L114.14,95.50L116.64,96.36L119.23,97.58L121.88,99.16L124.58,101.08L127.30,103.33L129.98,105.85L132.63,108.65L135.18,111.65L137.64,114.85L138.77,116.44L122.48,106.11"/><path d="M103.94,97.78L104.51,97.46"/><path d="M106.01,95.67L110.66,98.62"/><path d="M106.40,94.89L107.06,94.66"/><path d="M118.55,85.19L114.82,88.38L114.37,88.38L113.77,88.48L113.23,88.70L112.76,89.02"/><path d="M114.82,88.38L117.75,88.74L120.68,89.43L123.89,90.52L127.15,91.97L129.36,93.14L132.68,95.17L136.08,97.57L139.45,100.26L142.83,103.26L146.29,106.64L147.65,108.10L148.41,109.06L149.12,110.07L149.76,111.11L150.35,112.22L150.87,113.38L151.30,114.53L151.64,115.66L151.84,116.50L157.22,114.36"/><path d="M125.65,79.17L122.16,82.13L121.43,82.01L120.78,82.01L120.22,82.12L119.67,82.35L119.18,82.68"/><path d="M122.16,82.13L126.38,83.33L130.50,84.81L134.34,86.48L138.50,88.61L142.77,91.11L147.18,94.02L151.59,97.23L156.21,100.87L160.86,97.94"/><path d="M122.94,86.19L123.87,86.09L125.28,86.43L126.23,86.87L125.77,87.10"/><path d="M125.00,76.99L125.44,76.60L125.94,76.29L126.53,76.08L127.10,75.98L127.73,75.99L128.38,76.09L129.03,76.28L132.30,73.48"/><path d="M126.23,86.87L128.57,88.18"/><path d="M135.66,117.53L136.52,118.86L127.81,123.50"/><path d="M129.03,76.28L135.30,78.70L140.66,81.03L146.47,83.86L152.43,87.10L158.55,90.72L165.47,95.13L170.04,92.42"/><path d="M133.58,150.37L129.51,151.17"/><path d="M131.40,119.82L132.18,121.17L133.17,123.44"/><path d="M135.47,70.74L147.07,76.00L157.81,81.18L169.29,87.03L174.57,89.80L179.04,87.23L138.54,68.05L135.47,70.74L134.54,70.41L133.87,70.28L133.24,70.25L132.63,70.31L132.03,70.49L131.49,70.77L131.02,71.12"/><path d="M131.95,117.67L135.53,116.98L138.77,116.44"/><path d="M138.87,107.08L140.65,106.07L133.18,101.62"/><path d="M135.59,125.36L137.65,122.41L139.97,118.96L140.70,148.37L139.08,148.24L136.46,148.14"/><path d="M137.43,121.21L136.52,118.86L140.81,116.57L139.87,115.26"/><path d="M137.59,149.58L138.31,148.65"/><path d="M138.54,68.05L138.26,67.88L138.06,67.68L137.91,67.40L137.83,67.05L137.84,66.62L137.97,66.09L138.21,65.46L138.65,64.65L139.24,63.73L139.96,62.74L140.05,62.58L140.05,62.50L139.98,62.50"/><path d="M139.12,63.21L138.76,63.57"/><path d="M140.70,148.37L141.31,147.34L142.19,145.35L142.86,143.03L143.29,140.38L143.47,137.46L143.36,134.22L142.97,130.71L142.27,126.97L141.25,122.97L139.97,118.96"/><path d="M139.62,94.36L151.42,100.96L149.45,102.08"/><path d="M139.75,63.04L169.79,50.12L169.28,50.03"/><path d="M141.53,148.80L142.21,147.72"/><path d="M141.64,119.01L140.81,116.57L145.06,114.31"/><path d="M140.65,106.07L141.77,106.83L143.49,108.35L145.10,110.23L146.50,112.35L147.64,114.62L148.44,116.93L148.88,119.14L148.96,120.45L147.01,121.67"/><path d="M146.83,107.19L151.53,103.94"/><path d="M148.35,137.69L148.93,137.29L148.86,138.37L148.45,139.80L147.99,140.45"/><path d="M149.55,146.22L150.07,146.01L150.42,145.79L150.55,145.70L150.97,145.27L151.31,144.74L151.57,144.12L152.40,141.13L153.00,137.84L153.34,134.26L153.42,130.31L153.21,126.02L152.68,121.35L151.84,116.50"/><path d="M148.93,137.29L148.96,120.45"/><path d="M151.57,144.12L156.52,142.40"/><path d="M157.50,116.48L159.61,115.15L159.57,113.83L159.19,111.63L158.42,109.34L157.31,107.10L155.91,105.00L154.30,103.17L152.56,101.69L151.42,100.96"/><path d="M152.57,140.20L157.38,138.52"/><path d="M156.21,100.87L157.08,101.64L157.89,102.46L158.66,103.35L159.36,104.29L160.03,105.31L160.63,106.36L161.17,107.48L161.63,108.62L161.99,109.76L162.26,110.87L162.43,111.90L162.91,118.26L163.05,124.03L162.89,129.28L162.46,134.02L161.78,138.44L161.31,140.76L161.11,141.44L160.82,142.06L160.45,142.57L160.01,142.99L159.51,143.31L158.95,143.52"/><path d="M160.40,97.62L161.04,97.25L156.49,94.84"/><path d="M157.60,138.68L158.40,137.64L158.86,136.23L158.97,135.16L157.76,136.01"/><path d="M158.97,135.16L159.61,115.15"/><path d="M165.99,139.13L161.31,140.76"/><path d="M161.04,97.25L162.18,97.95L163.93,99.39L165.53,101.17L166.91,103.22L167.99,105.43L168.71,107.68L169.05,109.85L169.06,111.15L167.65,112.05"/><path d="M162.45,112.15L167.56,109.91"/><path d="M165.47,95.13L166.37,95.78L167.21,96.49L168.01,97.27L168.76,98.12L169.53,99.11L169.97,99.77L170.80,101.16L171.33,102.28L171.77,103.39L172.11,104.48L172.35,105.58L172.51,106.70L172.56,107.65L172.49,115.93L172.18,122.86L171.58,129.76L170.77,136.08L170.54,137.58L170.36,138.33L170.11,138.99L169.79,139.56L169.37,140.05L168.88,140.45L168.33,140.75L167.74,140.93"/><path d="M167.08,131.77L167.89,131.20L167.75,132.26L167.24,133.67L166.76,134.26"/><path d="M169.31,91.99L169.50,91.89L166.71,90.49"/><path d="M167.89,131.20L169.06,111.15"/><path d="M189.72,134.49L188.33,134.83L187.14,135.04L186.25,135.11L185.48,135.10L184.81,134.99L184.37,134.83L184.02,134.61L183.77,134.34L183.30,133.33L179.31,134.65L179.76,130.80L181.10,117.74L182.26,103.10L182.27,101.73L182.15,100.62L181.93,99.55L181.62,98.47L176.40,99.85L175.35,97.69L173.99,95.68L172.39,93.94L170.65,92.55L169.50,91.89"/><path d="M171.33,50.69L169.79,50.12L170.23,50.03"/><path d="M170.54,137.58L174.97,136.09"/><path d="M172.13,139.64L172.21,139.62"/><path d="M172.56,107.65L177.46,105.37"/><path d="M174.57,89.80L175.49,90.34L176.36,90.95L177.18,91.64L178.00,92.44L178.75,93.29L179.47,94.22L180.12,95.21L180.71,96.27L181.22,97.37L181.62,98.47L190.60,93.95L191.28,93.02L193.32,90.44L222.56,72.31L222.87,72.01"/><path d="M176.65,138.32L177.24,138.07L177.77,137.72L178.25,137.26L178.46,136.97L178.64,136.72L178.94,136.11L179.17,135.42L179.31,134.65"/><path d="M176.74,100.96L176.40,99.85"/><path d="M177.12,102.29L177.09,102.07L177.00,101.78"/><path d="M179.04,87.23L179.35,87.36L179.91,87.51L180.58,87.62L181.42,87.69L182.50,87.71L183.81,87.67L185.37,87.56L186.85,87.41L189.03,87.13L191.77,86.71L192.60,86.62L193.25,86.67L193.71,86.80L194.06,87.01L194.28,87.25L194.42,87.52L194.49,87.90L194.45,88.39L194.29,88.89L193.97,89.53L193.32,90.44"/><path d="M182.26,103.10L186.71,100.96L184.98,117.89L183.30,133.33"/><path d="M183.64,134.09L185.25,118.61L187.33,99.48L186.71,100.96"/><path d="M190.60,93.95L189.33,95.78L188.62,96.90L188.07,97.88L187.65,98.72L187.33,99.48"/><path d="M191.77,86.71L220.78,69.23L221.18,69.09L221.50,69.18"/><path d="M213.46,66.49L220.78,69.23L221.44,69.60L221.99,70.15L222.39,70.83L222.58,71.58L222.56,72.31L214.26,116.14"/><path d="M222.93,71.66L222.93,71.68"/></g><g style="stroke:#000000;stroke-width:0.705"><path d="M85.72,169.45L85.76,169.43L81.99,171.90L80.95,172.43L80.23,172.65L79.13,172.93L78.01,172.96L77.20,172.91L76.15,172.68L75.26,172.39L74.34,171.93L73.40,171.43L72.37,170.71L71.27,169.79L69.59,168.18L68.46,166.97L67.31,165.62L66.14,164.13L64.99,162.54L63.85,160.86L62.74,159.11L61.67,157.31L60.67,155.49L59.73,153.66L58.86,151.84L58.09,150.07L57.42,148.35L56.86,146.71L56.42,145.17L55.91,142.93L55.70,141.58L55.65,140.40L55.70,139.42L55.79,138.37L56.37,136.49L57.37,134.89L58.16,134.06L59.75,133.00L63.75,130.92"/><path d="M58.44,139.96L58.49,139.98L57.75,139.94L57.79,139.94L57.27,140.16"/><path d="M57.49,140.07L57.51,140.05"/><path d="M58.44,133.87L58.17,132.66L57.84,130.46L57.69,128.72L57.70,127.15L57.87,125.78L58.33,124.24L58.85,123.30L59.11,122.96L59.80,122.27L60.08,122.08L60.94,121.65L101.20,101.80"/><path d="M58.49,139.98L59.33,140.28L60.34,140.88L61.47,141.75L61.45,141.73L62.67,142.87L63.97,144.26L65.32,145.87L66.68,147.67L68.03,149.63L69.35,151.70L70.60,153.84L71.76,156.02L72.81,158.17L73.71,160.26L74.47,162.25L75.05,164.08L75.46,165.74L75.67,167.16L75.72,168.37L75.58,169.33"/><path d="M74.73,170.37L75.05,170.16"/><path d="M74.85,170.34L75.28,169.95L75.27,169.98L75.58,169.30"/><path d="M75.46,165.74L75.45,165.71"/><path d="M129.49,151.17L129.63,151.09L91.96,176.82L91.66,176.97L90.73,177.25L90.30,177.32L89.24,177.32L87.68,176.98L86.41,176.47L85.05,175.72L83.61,174.74L81.87,173.37L80.85,172.46"/><path d="M100.24,102.27L101.44,101.03L101.14,101.33"/><path d="M100.03,102.38L108.82,92.05L110.14,91.82L111.51,91.71L112.91,91.71L114.36,91.83L115.84,92.06L117.28,92.40L118.84,92.86L120.43,93.45L122.05,94.16L123.72,94.98L125.41,95.94L127.14,97.02L128.88,98.21L130.64,99.52L132.41,100.95L134.20,102.50L135.99,104.17L137.56,105.71L139.37,107.60L141.18,109.62L143.00,111.75L145.06,114.31L145.85,116.98L146.53,119.57L147.11,122.10L147.56,124.40L147.95,126.80L148.23,129.08L148.41,131.27L148.49,133.38L148.48,135.42L148.38,137.36L148.19,139.20L147.91,140.95L147.55,142.59L147.13,144.05L146.60,145.52L145.99,146.90L145.39,148.03L133.58,150.37"/><path d="M101.44,101.03L103.37,99.01L104.86,98.40L106.51,98.11L108.35,98.14L110.35,98.51L112.51,99.25L114.81,100.34L117.20,101.81L119.69,103.65L122.22,105.86L124.76,108.40L127.27,111.27L129.71,114.42L131.95,117.67"/><path d="M103.16,99.23L103.42,98.95"/><path d="M111.51,91.71L111.58,91.20L111.77,90.52L112.04,89.92L112.37,89.42L115.52,86.27L115.26,86.52"/><path d="M115.52,86.27L115.80,85.99L116.24,85.62L116.74,85.35L117.29,85.19L117.90,85.14L118.55,85.19L120.58,85.59L122.63,86.10L124.67,86.71L126.57,87.38L128.51,88.16L130.59,89.10L131.75,89.68L132.70,90.15L134.83,91.33L137.00,92.63L139.21,94.07L141.46,95.65L143.67,97.29L145.86,99.03L148.28,101.05L150.79,103.26L151.53,103.94L152.39,104.78L153.20,105.70L153.98,106.70L154.67,107.73L155.30,108.82L155.86,109.93L156.34,111.05L156.72,112.18L157.02,113.30L157.22,114.36L157.64,117.51L157.95,120.55L158.15,123.46L158.26,126.24L158.27,128.89L158.18,131.43L158.00,133.88L157.73,136.24L157.38,138.52L156.93,140.73L156.52,142.40L156.29,143.07L155.97,143.65L155.58,144.12L155.12,144.50L154.57,144.78L149.55,146.22L148.94,146.34L148.26,146.34L147.54,146.23L147.01,146.09L146.44,145.88"/><path d="M117.88,85.14L117.93,84.88L118.14,84.20L118.42,83.60L118.77,83.09L122.13,79.78L122.59,79.42L123.11,79.16L123.69,79.00L124.31,78.94L124.97,79.00L125.65,79.17L128.63,80.14L131.56,81.20L134.15,82.23L136.77,83.37L139.56,84.69L142.37,86.12L145.21,87.68L148.14,89.40L151.17,91.28L154.02,93.14L157.33,95.41L160.86,97.94L161.76,98.66L162.62,99.46L163.45,100.35L164.22,101.32L164.93,102.32L165.56,103.38L166.12,104.48L166.69,105.86L166.98,106.72L167.27,107.84L167.47,108.92L167.56,109.91L167.73,114.04L167.79,117.97L167.75,121.67L167.62,125.17L167.40,128.50L167.08,131.74L166.68,134.92L165.99,139.13L165.80,139.87L165.53,140.51L165.17,141.06L164.74,141.52L164.25,141.88L163.67,142.13L158.95,143.52L158.29,143.64L157.62,143.64L156.93,143.55L156.14,143.34"/><path d="M123.99,78.97L124.30,78.08L124.62,77.49L125.00,76.99L125.83,76.20L125.20,76.81"/><path d="M128.06,74.03L125.83,76.20"/><path d="M165.33,140.81L165.63,140.90L166.35,141.01L167.07,141.02L167.74,140.93L172.22,139.62L172.81,139.41L173.37,139.08L173.84,138.66L174.25,138.15L174.44,137.79L174.57,137.55L174.82,136.86L174.97,136.09L175.44,132.57L176.01,127.59L176.49,122.56L176.89,117.30L177.21,111.56L177.46,105.37L177.46,104.91L177.40,103.86L177.24,102.80L176.97,101.68L176.62,100.57L176.17,99.48L175.63,98.39L175.01,97.34L174.42,96.49L173.56,95.40L172.73,94.52L171.87,93.73L170.97,93.03L170.04,92.42L168.11,91.29L162.87,88.28L158.40,85.80L153.87,83.39L149.54,81.19L145.26,79.12L141.24,77.27L137.16,75.49L131.94,73.35L131.24,73.16L130.56,73.08L129.92,73.11L129.32,73.24L128.75,73.49L128.28,73.81L127.14,74.92L127.97,74.11"/><path d="M130.11,151.25L130.36,151.20L128.97,151.54"/><path d="M131.17,150.97L131.50,150.90L128.90,151.59"/><path d="M134.60,150.16L129.23,151.37"/><path d="M140.01,62.50L140.16,62.43L139.86,62.57L139.16,63.17L131.02,71.12L130.60,71.59L130.25,72.14L129.95,72.78L129.84,73.12"/><path d="M132.35,150.67L131.50,150.90L132.41,150.65"/><path d="M131.50,150.90L132.55,150.62"/><path d="M136.46,148.14L137.31,146.33L137.92,144.16L138.26,141.70L138.33,138.95L138.12,136.00L137.64,132.87L136.88,129.57L135.90,126.29L135.59,125.36"/><path d="M140.16,62.43L142.83,61.30L141.70,61.78"/><path d="M142.83,61.30L168.83,50.14L167.77,50.60"/><path d="M143.97,60.82L169.36,50.04"/><path d="M150.07,146.01L153.03,145.22"/><path d="M157.60,138.68L157.30,138.89"/><path d="M160.97,142.93L159.17,143.44"/><path d="M168.83,50.14L169.72,49.95L170.23,50.03L171.34,50.42"/><path d="M171.13,54.20L209.25,68.90L213.46,66.49L213.81,66.36L214.19,66.44L221.50,69.18L222.12,69.55L222.57,70.10L222.75,70.38L222.93,70.98L222.97,71.28L222.91,71.77"/><path d="M222.93,71.68L214.62,115.56L214.49,115.87L214.25,116.15L191.27,134.02L176.65,138.32L176.02,138.46L175.31,138.52L174.57,138.46L174.08,138.37"/></g></g><g/><g id="paperID" visibility="hidden" opacity="0.00" transform="scale(0.000100)"><path style="stroke:#000000;stroke-width:0.500;fill:#e6e6e6;fill-rule:evenodd" d="M-2000.00,-2000.00L2297.00,-2000.00L2297.00,2210.00L-2000.00,2210.00zM0.00,0.00L297.00,0.00L297.00,210.00L0.00,210.00z"/><path style="fill:#000000;fill-opacity:0.118" d="M3.00,210.00L297.00,210.00L297.00,3.00L300.00,3.00L300.00,213.00L3.00,213.00z"/></g><g id="ToolTip" visibility="hidden" opacity="0" transform="translate(0,0)"><rect id="ToolTipShadow" opacity="0.20" fill="black" stroke="none" x="0" y="0" width="30" height="8"/><rect id="ToolTipBG" fill="#ffffe1" stroke="black" x="0" y="0" width="30" height="8"/><text xml:space="preserve" id="ToolTipText" fill="black" x="0" y="0" width="30" height="8">tooltip</text></g></g></svg>
