<?xml version="1.0" encoding="UTF-8" standalone="no"?>
<svg xmlns="http://www.w3.org/2000/svg" xmlns:xlink="http://www.w3.org/1999/xlink" width="297.000mm" height="210.000mm" viewBox="0.000000 0.000000 297.000000 210.000000" stroke-linejoin="round" stroke-linecap="round" fill="none" fill-rule="evenodd"><desc>3DVIA Composer Export</desc><script type="text/ecmascript"><![CDATA[
if(typeof(top) != "undefined")
{
	top.ShowPaper = ShowPaper;
}
function ShowHotSpot(evt,hotspotid)
{
	var svgDocument = evt.target.ownerDocument;
	var strId = "hotspot."+hotspotid;
	var hotspot = svgDocument.getElementById(strId);
	if(hotspot)
		hotspot.setAttribute("opacity",".5");
}
function HideHotSpot(evt,hotspotid)
{
	var svgDocument = evt.target.ownerDocument;
	var strId = "hotspot."+hotspotid;
	var hotspot = svgDocument.getElementById(strId);
	if(hotspot)
		hotspot.setAttribute("opacity","0");

	var toolTip = svgDocument.getElementById('ToolTip');
	if(toolTip)
		toolTip.setAttribute("visibility","hidden");
}
function ShowToolTip(evt,hotspotid,strTooltip)
{
	if(strTooltip=="")
	return;

	// change text
	var svgDocument = evt.target.ownerDocument;
	var tiptext = svgDocument.getElementById('ToolTipText');
	if( !tiptext )
	return;
	tiptext.firstChild.nodeValue = " " + strTooltip + "  " ;

	// show tooltip before, else some refresh issue

	var toolTip = svgDocument.getElementById('ToolTip');
	if(!toolTip)
	return;

	toolTip.setAttribute("visibility","visible");
	toolTip.setAttribute("opacity",".95");

	// move tooltip
	// get viewbox

	var root = svgDocument.documentElement;
	var vbox = (root.getAttribute("viewBox")).split(' ');
	var x0 = parseFloat(vbox[0]);
	var y0 = parseFloat(vbox[1]);
	var vboxW = parseFloat(vbox[2]);
	var vboxH = parseFloat(vbox[3]);

	// get default width of svg

	var strW = root.getAttribute("width");
	var svgW = parseFloat(strW);
	if(strW.indexOf('mm') != -1)
	svgW *= 3.779;

	var strH = root.getAttribute("height");
	var svgH = parseFloat(strH);
	if(strH.indexOf('mm') != -1)
	svgH *= 3.779;  	// 96 dpi  -> 96/25.4 = 3.779

	// update the viewbox / width / height if svg is embedded in html with zoom fit all
	var realx0 = x0;
	var realy0 = y0;
	var realvboxW = vboxW;
	var realvboxH = vboxH;
	var realsvgW = svgW;
	var realsvgH = svgH;

	if ((typeof(top) == "undefined") || (typeof(top.svgctl1) != "undefined")) // embedded in html
	{
		// get window size in pxl

		svgW = window.innerWidth;
		svgH = window.innerHeight;

		// calculate real viewbox

		realsvgW = svgW;
		realsvgH = svgH;
		if((svgW / svgH) > (vboxW / vboxH))
		{
			realvboxW = (vboxH * svgW) / svgH;
			realvboxH = vboxH;
			realx0 = x0 - (realvboxW - vboxW)/2 ;
		}
		else
		{
			realvboxH = (vboxW * svgH) / svgW;
			realvboxW = vboxW;
			realy0 = y0 - (realvboxH - vboxH)/2 ;
		}
	}

	// get user zoom/pan

	var newScale = root.currentScale;
	var translation = root.currentTranslate;

	// transform pxl to user unit

	var xPos = (((evt.clientX+10- translation.x)/newScale) * realvboxW)/realsvgW  + realx0 ;
	var yPos = (((evt.clientY+5- translation.y)/newScale) * realvboxH)/ realsvgH  + realy0 ;
	var scaleForWidth = ( (1 / newScale) * realvboxH) / realsvgH;

	// move tooltip

	toolTip.setAttribute("transform", "translate(" + xPos + "," + yPos + ")" );

	// resize tooltip

	var fontsize = 12;
	tiptext.setAttribute("font-size",fontsize*scaleForWidth);
	tiptext.setAttribute("y", fontsize*scaleForWidth);
	var tipBG = svgDocument.getElementById('ToolTipBG');
	var outline = tiptext.getBBox();
	if(tipBG)
	{
		tipBG.setAttribute("stroke-width", 1*scaleForWidth);
		tipBG.setAttribute("width", Number(outline.width) );
		tipBG.setAttribute("height", Number(outline.height) + fontsize*.5*scaleForWidth );
	}
	var ToolTipShadow = svgDocument.getElementById('ToolTipShadow');
	if(ToolTipShadow)
	{
		ToolTipShadow.setAttribute("width", Number(outline.width) );
		ToolTipShadow.setAttribute("height", Number(outline.height) + fontsize*.5*scaleForWidth );
		ToolTipShadow.setAttribute("x", 3*scaleForWidth);
		ToolTipShadow.setAttribute("y", 3*scaleForWidth);
	}
}
function ShowPaper()
{
  var svgDocument = getDocument();
  var paper = svgDocument.getElementById("paperID");
  if(paper)
  {
    paper.setAttribute("transform","scale(1)");
    paper.setAttribute("opacity","1");
    paper.setAttribute("visibility","visible");
  }
  var svg = svgDocument.getRootElement();
  if(svg)
  {
    svg.setAttribute("width","307.000mm");
    svg.setAttribute("height","220.000mm");
    svg.setAttribute("viewBox","-5.000000 -5.000000 307.000000 220.000000");
  }
}
]]></script><defs/><g><path style="fill:#dcdcdc;fill-rule:evenodd" d="M215.34,70.58L216.09,72.67L217.13,77.04L217.13,83.04L216.03,87.09L214.82,89.48L213.42,91.43L211.49,93.10L120.80,154.52L118.30,178.01L117.53,182.13L116.50,184.45L115.19,186.22L106.60,192.86L106.11,192.87L107.43,190.56L108.01,188.57L108.26,185.99L108.26,183.08L107.49,176.64L105.18,167.63L102.09,159.14L99.77,153.73L96.94,147.56L96.15,146.28L96.07,145.51L107.02,138.91L106.72,138.04L102.37,130.29L99.25,125.18L94.91,118.71L89.75,112.02L84.61,106.10L80.73,102.26L77.12,99.17L72.67,96.06L73.25,96.06L90.25,103.55L97.97,107.15L101.83,109.98L104.17,112.28L107.00,115.36L109.84,118.96L112.63,123.12L115.75,128.79L116.13,128.78L214.74,70.31L215.09,70.31zM68.14,121.54L72.25,125.15L74.03,133.15L74.03,134.26L69.66,136.57L68.80,136.86L67.85,132.12L64.66,118.74L64.76,118.72zM59.65,130.29L65.28,135.55L59.79,136.50L58.84,136.51L56.42,127.49zM79.71,148.83L86.14,154.75L80.21,158.45L80.23,162.07L76.37,166.73L72.75,152.45L71.94,150.64L71.88,150.15L78.15,146.54z"/><g id="Actor_.0"><g style="stroke:#000000;stroke-width:0.353"><path d="M49.26,98.39L51.02,97.73L53.12,97.66L55.57,98.20L58.35,99.38L61.42,101.23L64.77,103.74L68.34,106.90L72.09,110.69L75.95,115.07L79.87,119.98L83.77,125.34L87.58,131.06L91.24,137.05L94.66,143.18L97.79,149.35L100.58,155.44L102.97,161.35L104.94,166.98L106.47,172.23L107.53,177.02L108.15,181.31L108.31,185.04L108.06,188.19L107.40,190.73L106.37,192.67L105.00,194.01"/><path d="M76.04,142.02L68.80,146.10L58.91,136.66L56.33,127.25"/><path d="M58.91,136.66L65.34,135.58"/><path d="M64.54,118.49L68.52,134.86L68.71,136.18L68.56,137.06L68.09,137.42"/><path d="M68.21,93.85L71.24,95.24L74.54,97.28L78.07,99.96L81.78,103.27L85.60,107.18L89.49,111.64L93.37,116.58L97.18,121.94L100.84,127.62L104.27,133.49L107.43,139.48L110.26,145.47L112.70,151.34L114.73,157.01L116.31,162.37L117.44,167.34L118.11,171.86L118.33,175.87L118.12,179.33"/><path d="M80.21,149.25L73.05,153.47L72.57,152.00L71.82,150.36L70.87,148.72L69.83,147.25L68.80,146.10"/><path d="M68.52,134.86L73.75,132.06"/><path d="M73.05,153.47L76.28,166.76L83.14,173.70"/><path d="M76.28,166.76L80.44,161.73"/><path d="M94.84,170.97L82.65,159.34L81.61,158.51L80.77,158.20L80.21,158.43"/><path d="M82.65,159.34L87.69,156.21"/><path d="M94.98,105.67L96.80,106.49L98.72,107.64L100.71,109.09L102.75,110.85L104.82,112.88L106.87,115.16L108.89,117.66L110.84,120.36L112.70,123.20L114.43,126.16L116.00,129.17L117.41,132.21L118.62,135.23L119.62,138.17L120.40,141.01L120.96,143.70L121.28,146.20L121.37,148.51L121.23,150.54"/></g><g style="stroke:#000000;stroke-width:0.705"><path d="M121.23,150.58L121.23,150.55L118.12,179.33L117.50,182.23L116.51,184.53L115.16,186.26L105.00,194.01L103.33,194.76L101.40,194.96L99.23,194.63L96.88,193.79L94.36,192.50L91.72,190.77L88.97,188.65L86.16,186.18L83.31,183.38L80.43,180.29L77.55,176.95L74.70,173.38L71.88,169.61L69.13,165.68L66.45,161.61L63.86,157.43L61.38,153.16L59.02,148.84L56.80,144.49L54.73,140.13L52.83,135.80L51.12,131.53L49.60,127.34L48.31,123.27L47.25,119.35L46.45,115.62L45.92,112.12L45.67,108.90L45.73,105.99L46.10,103.43L46.81,101.28L47.86,99.59L49.26,98.39L60.97,93.41L63.05,92.96L65.47,93.10L68.21,93.85L94.98,105.67L94.87,105.63"/><path d="M74.21,134.11L68.09,137.42L67.34,137.24L66.40,136.55L56.33,127.25"/><path d="M64.54,118.49L72.15,124.97L75.89,141.55L76.40,143.19L77.20,144.98L78.23,146.75L79.38,148.35L80.55,149.61L93.03,161.14L94.84,170.97"/><path d="M83.14,173.70L80.13,160.33L80.00,159.16L80.21,158.43L86.15,154.78"/><path d="M120.80,154.52L211.50,93.16L213.24,91.60L214.71,89.71L215.89,87.50L216.73,85.02L217.22,82.32L217.33,79.46L217.05,76.49L216.39,73.49L215.35,70.53L213.96,67.67L212.25,64.98L210.27,62.53L208.05,60.37L205.65,58.56L203.14,57.12L200.56,56.09L197.99,55.48L195.47,55.29L193.05,55.52L190.79,56.14L91.73,104.23"/></g></g><g><g/></g><g/><g id="paperID" visibility="hidden" opacity="0.00" transform="scale(0.000100)"><path style="stroke:#000000;stroke-width:0.500;fill:#e6e6e6;fill-rule:evenodd" d="M-2000.00,-2000.00L2297.00,-2000.00L2297.00,2210.00L-2000.00,2210.00zM0.00,0.00L297.00,0.00L297.00,210.00L0.00,210.00z"/><path style="fill:#000000;fill-opacity:0.118" d="M3.00,210.00L297.00,210.00L297.00,3.00L300.00,3.00L300.00,213.00L3.00,213.00z"/></g><g id="ToolTip" visibility="hidden" opacity="0" transform="translate(0,0)"><rect id="ToolTipShadow" opacity="0.20" fill="black" stroke="none" x="0" y="0" width="30" height="8"/><rect id="ToolTipBG" fill="#ffffe1" stroke="black" x="0" y="0" width="30" height="8"/><text xml:space="preserve" id="ToolTipText" fill="black" x="0" y="0" width="30" height="8">tooltip</text></g></g></svg>
