<?xml version="1.0" encoding="UTF-8" standalone="no"?>
<svg xmlns="http://www.w3.org/2000/svg" xmlns:xlink="http://www.w3.org/1999/xlink" width="297.000mm" height="210.000mm" viewBox="0.000000 0.000000 297.000000 210.000000" stroke-linejoin="round" stroke-linecap="round" fill="none" fill-rule="evenodd"><desc>3DVIA Composer Export</desc><script type="text/ecmascript"><![CDATA[
if(typeof(top) != "undefined")
{
	top.ShowPaper = ShowPaper;
}
function ShowHotSpot(evt,hotspotid)
{
	var svgDocument = evt.target.ownerDocument;
	var strId = "hotspot."+hotspotid;
	var hotspot = svgDocument.getElementById(strId);
	if(hotspot)
		hotspot.setAttribute("opacity",".5");
}
function HideHotSpot(evt,hotspotid)
{
	var svgDocument = evt.target.ownerDocument;
	var strId = "hotspot."+hotspotid;
	var hotspot = svgDocument.getElementById(strId);
	if(hotspot)
		hotspot.setAttribute("opacity","0");

	var toolTip = svgDocument.getElementById('ToolTip');
	if(toolTip)
		toolTip.setAttribute("visibility","hidden");
}
function ShowToolTip(evt,hotspotid,strTooltip)
{
	if(strTooltip=="")
	return;

	// change text
	var svgDocument = evt.target.ownerDocument;
	var tiptext = svgDocument.getElementById('ToolTipText');
	if( !tiptext )
	return;
	tiptext.firstChild.nodeValue = " " + strTooltip + "  " ;

	// show tooltip before, else some refresh issue

	var toolTip = svgDocument.getElementById('ToolTip');
	if(!toolTip)
	return;

	toolTip.setAttribute("visibility","visible");
	toolTip.setAttribute("opacity",".95");

	// move tooltip
	// get viewbox

	var root = svgDocument.documentElement;
	var vbox = (root.getAttribute("viewBox")).split(' ');
	var x0 = parseFloat(vbox[0]);
	var y0 = parseFloat(vbox[1]);
	var vboxW = parseFloat(vbox[2]);
	var vboxH = parseFloat(vbox[3]);

	// get default width of svg

	var strW = root.getAttribute("width");
	var svgW = parseFloat(strW);
	if(strW.indexOf('mm') != -1)
	svgW *= 3.779;

	var strH = root.getAttribute("height");
	var svgH = parseFloat(strH);
	if(strH.indexOf('mm') != -1)
	svgH *= 3.779;  	// 96 dpi  -> 96/25.4 = 3.779

	// update the viewbox / width / height if svg is embedded in html with zoom fit all
	var realx0 = x0;
	var realy0 = y0;
	var realvboxW = vboxW;
	var realvboxH = vboxH;
	var realsvgW = svgW;
	var realsvgH = svgH;

	if ((typeof(top) == "undefined") || (typeof(top.svgctl1) != "undefined")) // embedded in html
	{
		// get window size in pxl

		svgW = window.innerWidth;
		svgH = window.innerHeight;

		// calculate real viewbox

		realsvgW = svgW;
		realsvgH = svgH;
		if((svgW / svgH) > (vboxW / vboxH))
		{
			realvboxW = (vboxH * svgW) / svgH;
			realvboxH = vboxH;
			realx0 = x0 - (realvboxW - vboxW)/2 ;
		}
		else
		{
			realvboxH = (vboxW * svgH) / svgW;
			realvboxW = vboxW;
			realy0 = y0 - (realvboxH - vboxH)/2 ;
		}
	}

	// get user zoom/pan

	var newScale = root.currentScale;
	var translation = root.currentTranslate;

	// transform pxl to user unit

	var xPos = (((evt.clientX+10- translation.x)/newScale) * realvboxW)/realsvgW  + realx0 ;
	var yPos = (((evt.clientY+5- translation.y)/newScale) * realvboxH)/ realsvgH  + realy0 ;
	var scaleForWidth = ( (1 / newScale) * realvboxH) / realsvgH;

	// move tooltip

	toolTip.setAttribute("transform", "translate(" + xPos + "," + yPos + ")" );

	// resize tooltip

	var fontsize = 12;
	tiptext.setAttribute("font-size",fontsize*scaleForWidth);
	tiptext.setAttribute("y", fontsize*scaleForWidth);
	var tipBG = svgDocument.getElementById('ToolTipBG');
	var outline = tiptext.getBBox();
	if(tipBG)
	{
		tipBG.setAttribute("stroke-width", 1*scaleForWidth);
		tipBG.setAttribute("width", Number(outline.width) );
		tipBG.setAttribute("height", Number(outline.height) + fontsize*.5*scaleForWidth );
	}
	var ToolTipShadow = svgDocument.getElementById('ToolTipShadow');
	if(ToolTipShadow)
	{
		ToolTipShadow.setAttribute("width", Number(outline.width) );
		ToolTipShadow.setAttribute("height", Number(outline.height) + fontsize*.5*scaleForWidth );
		ToolTipShadow.setAttribute("x", 3*scaleForWidth);
		ToolTipShadow.setAttribute("y", 3*scaleForWidth);
	}
}
function ShowPaper()
{
  var svgDocument = getDocument();
  var paper = svgDocument.getElementById("paperID");
  if(paper)
  {
    paper.setAttribute("transform","scale(1)");
    paper.setAttribute("opacity","1");
    paper.setAttribute("visibility","visible");
  }
  var svg = svgDocument.getRootElement();
  if(svg)
  {
    svg.setAttribute("width","307.000mm");
    svg.setAttribute("height","220.000mm");
    svg.setAttribute("viewBox","-5.000000 -5.000000 307.000000 220.000000");
  }
}
]]></script><defs/><g><path style="fill:#dcdcdc;fill-rule:evenodd" d="M160.47,67.67L168.92,71.65L176.15,77.34L181.86,84.56L183.61,88.07L183.58,88.65L183.01,88.66L180.84,84.33L175.40,77.59L169.90,73.15L164.68,70.17L160.21,68.43L151.76,66.69L142.24,66.94L133.29,69.42L126.08,73.39L123.60,75.14L119.85,78.84L117.24,81.70L113.91,86.82L110.50,95.34L109.25,104.31L110.01,112.91L111.49,118.64L112.74,121.62L115.23,126.08L117.49,129.54L123.70,135.76L126.91,137.76L128.65,138.97L128.05,140.02L127.69,140.00L122.70,136.75L116.49,130.54L111.74,122.87L108.76,113.67L107.94,104.21L109.25,95.34L112.67,86.82L117.86,79.34L124.92,72.98L132.80,68.68L141.74,66.19L151.76,65.94zM191.31,69.91L191.31,70.25L191.04,70.18L191.04,69.64zM155.49,70.66L158.71,71.67L158.67,71.90L158.22,71.94L154.99,70.91L149.03,70.42L145.72,70.42L142.74,70.91L136.28,72.65L130.31,75.88L128.30,77.36L127.41,77.37L127.06,76.84L130.31,74.64L138.01,71.41L146.81,69.94zM192.06,70.84L192.31,71.48L191.76,71.14L191.76,70.65zM193.31,72.37L193.60,73.06L192.76,72.37L192.76,71.89zM197.77,79.58L200.72,86.32L202.96,94.02L203.95,101.23L203.95,110.51L202.72,118.22L200.72,124.67L197.49,131.88L193.27,138.60L188.82,143.84L184.57,147.78L182.86,149.31L176.29,153.68L169.33,157.16L161.64,159.65L154.17,160.88L147.71,161.13L145.05,161.13L137.34,160.14L129.89,158.15L122.43,154.92L116.24,151.17L114.95,150.15L114.92,149.91L115.19,149.91L116.25,150.66L123.20,154.64L130.13,157.41L137.60,159.14L144.31,159.88L148.70,159.88L153.67,159.63L161.45,158.22L168.33,155.90L175.29,152.43L181.86,148.07L183.57,146.54L187.45,142.96L191.77,137.84L195.75,131.63L198.99,124.93L201.23,117.72L202.46,110.51L202.71,101.98L201.71,93.53L199.97,86.82L196.99,79.61L193.75,73.66L193.60,73.06L193.77,73.14zM171.15,78.37L171.95,79.30L169.07,77.42L169.15,76.86zM172.93,80.08L173.17,80.67L172.15,79.85L171.95,79.30zM174.42,81.82L174.66,82.41L173.62,81.57L173.62,81.09zM176.16,83.80L176.40,84.40L175.36,83.56L175.36,83.08zM177.40,85.30L177.64,85.89L176.85,85.29L176.85,84.82zM119.74,86.29L119.98,86.89L119.38,87.81L116.46,95.08L115.48,101.56L115.48,105.71L115.97,110.93L117.00,114.49L114.87,116.14L114.24,116.17L113.48,113.42L112.99,108.94L112.74,105.95L112.74,103.30L113.97,95.58L117.39,87.56L118.84,85.31L118.97,85.31zM150.78,90.29L153.99,91.30L156.72,93.04L158.22,94.27L160.21,96.51L160.74,97.57L157.73,95.51L154.25,94.27L152.26,94.03L147.95,94.03L146.78,94.35L143.31,95.59L141.07,97.09L140.76,98.51L139.49,98.73L138.98,99.21L137.27,102.22L136.34,105.27L136.11,107.03L136.10,110.68L136.34,112.93L137.62,116.62L138.38,117.66L138.35,117.97L137.87,117.90L136.37,116.62L133.86,113.42L132.61,110.69L131.88,107.20L131.88,105.29L132.11,102.29L133.50,98.46L135.88,95.12L137.60,93.61L139.08,92.36L142.23,90.79L145.72,90.05L149.28,90.05zM156.42,98.51L155.15,98.51L156.14,97.98L156.50,97.50zM155.27,101.41L156.24,103.96L156.25,107.79L155.03,110.54L153.76,112.01L151.21,113.68L148.70,114.16L147.54,114.16L145.53,113.92L143.98,113.13L144.54,113.13L145.04,113.43L146.29,113.66L148.95,113.66L150.94,113.17L153.41,111.66L154.99,109.51L155.74,107.53L156.00,104.73L155.24,101.99L154.88,101.25zM186.83,106.67L187.08,106.92L186.31,113.74L185.81,115.72L185.23,116.89L181.48,116.96L183.97,105.98zM141.07,113.37L140.75,114.15L139.50,114.17L140.50,113.66L140.83,112.91zM155.17,114.15L156.04,113.79L156.50,113.16L156.51,114.00L156.14,114.42L155.45,114.43zM127.67,130.29L132.17,133.28L132.16,133.61L130.57,135.82L129.89,135.80L127.67,134.52L121.46,129.05L119.91,127.08L119.86,126.59L122.36,125.82L123.19,125.81zM147.72,141.48L155.43,140.02L159.00,139.02L158.97,142.81L157.47,143.30L152.76,144.06L148.95,144.31zM114.51,149.44L113.97,149.44L113.91,149.17L114.24,149.17zM139.29,97.57L139.50,97.26L140.60,97.26L140.62,97.57L140.24,98.25L139.32,98.25z"/><g id="Actor_.0"><g style="stroke:#000000;stroke-width:0.353"><path d="M102.81,107.94L102.78,107.76L103.37,98.04L106.03,88.65L110.65,80.05L117.03,72.62L124.87,66.73L133.82,62.67L143.46,60.63L153.33,60.73L162.95,62.97L171.87,67.23L179.65,73.34L185.92,80.97L190.39,89.78L192.84,99.34L193.17,109.18L191.36,118.84L187.52,127.86L181.84,135.82L174.59,142.37L166.12,147.19L156.82,150.09L147.13,150.93L137.50,149.69L128.35,146.42L120.12,141.29L113.16,134.52L107.80,126.42L104.28,117.36L102.81,107.94"/></g><g style="stroke:#000000;stroke-width:0.705"><path d="M92.53,108.38L92.31,105.37L92.84,97.64L94.44,90.05L97.07,82.74L100.71,75.86L105.27,69.54L110.67,63.91L116.52,59.33L116.83,59.09L123.60,55.16L130.88,52.22L138.50,50.33L146.32,49.52L154.19,49.81L161.95,51.22L169.44,53.69L176.51,57.20L183.02,61.67L188.84,67.01L193.85,73.11L197.94,79.85L201.05,87.10L203.11,94.70L204.07,102.50L203.94,110.35L202.71,118.09L200.41,125.57L197.09,132.64L192.83,139.18L187.70,145.04L181.82,150.12L175.29,154.34L168.26,157.60L160.85,159.85L153.21,161.06L145.48,161.20L137.81,160.28L130.34,158.31L123.22,155.33L116.58,151.41L110.53,146.61L105.21,141.02L100.70,134.76L97.10,127.93L94.47,120.66L92.86,113.10L92.53,108.38"/></g></g><g id="Actor_.1"><g style="stroke:#000000;stroke-width:0.353"><path d="M108.52,111.31L107.91,104.80L109.18,95.63L112.54,86.98L117.81,79.33L124.72,73.10L132.90,68.62L141.91,66.16L151.27,65.85L160.45,67.72L168.96,71.68L176.31,77.51L182.11,84.88L186.04,93.39L187.89,102.56L187.55,111.90L185.07,120.88L180.58,129.03L174.35,135.91L166.71,141.16L158.08,144.51L148.92,145.78L139.72,144.92L130.97,141.98L123.12,137.13L116.59,130.61L111.72,122.76L108.77,114.00L108.52,111.31"/><path d="M168.30,100.91L170.13,101.70L182.33,105.42L185.54,106.38L187.15,106.83L187.13,107.38L186.28,113.78L185.49,116.81L184.30,120.17L179.94,128.11L173.87,134.80L166.44,139.92L158.97,142.92L155.95,143.65L149.60,144.40L149.06,144.42L140.17,143.58L131.65,140.72L124.01,135.99L117.65,129.64L116.08,127.52L113.22,122.65L111.50,118.62L110.04,113.48L109.20,104.52L110.44,95.59L113.71,87.18L117.09,81.89L118.22,80.46L122.75,75.88L124.17,74.71L124.48,74.99L125.45,75.75L128.05,77.75L138.14,85.39L138.34,85.53L140.08,86.49"/><path d="M114.32,116.50L113.34,112.88L112.57,104.37L113.85,95.92L117.12,88.00L118.95,85.14"/><path d="M119.61,126.70L121.82,129.40L128.27,134.98L135.86,138.87L144.16,140.85L147.58,141.05"/><path d="M127.05,76.88L124.17,74.71L125.57,73.67L133.53,69.31L142.31,66.91L151.41,66.62L160.35,68.44L161.15,68.72L165.25,70.44L170.21,73.33L175.78,77.96L181.42,85.14L185.25,93.42L187.04,102.34L187.15,106.83L183.75,105.79L183.56,101.88L181.63,93.46L177.73,85.75L172.09,79.19L169.13,76.79"/><path d="M126.99,76.85L130.26,74.71L138.18,71.32L146.69,69.94L155.31,70.65L158.89,71.60"/><path d="M140.86,114.01L141.01,113.77L141.06,113.50L141.03,113.22L140.91,112.97L140.71,112.78L140.46,112.65L140.18,112.62L139.91,112.67L139.65,112.84"/><path d="M140.37,98.73L140.63,98.63L140.84,98.45L140.99,98.21L141.04,97.94L141.01,97.66L140.89,97.41L140.82,97.32L140.54,97.13L140.23,97.06L139.98,97.08"/><path d="M146.25,97.40L149.04,97.28L151.72,98.08L153.99,99.71L155.62,101.99L156.41,104.67"/><path d="M156.62,113.56L156.59,113.24L156.44,112.98L156.28,112.81L156.02,112.69L155.75,112.65L155.47,112.71L155.23,112.85L155.05,113.06L154.95,113.32"/><path d="M155.07,97.47L155.18,97.33L155.41,97.16L155.68,97.07L155.94,97.07L156.19,97.16L156.40,97.31L156.53,97.47"/><path d="M156.65,98.00L156.64,97.90"/><path d="M156.63,97.76L156.56,97.56"/><path d="M158.95,139.41L162.55,138.06L169.90,133.69L176.01,127.68L180.51,120.37L181.78,117.15"/><path d="M183.69,105.77L183.75,105.79"/></g><g style="stroke:#000000;stroke-width:0.705"><path d="M102.81,107.53L102.76,107.17L103.47,97.46L106.25,88.11L110.99,79.56L117.46,72.22L125.38,66.43L134.39,62.49L144.05,60.58L153.92,60.81L163.51,63.17L172.37,67.55L180.07,73.76L186.25,81.48L190.60,90.34L192.92,99.93L193.12,109.77L191.19,119.40L187.23,128.37L181.44,136.26L174.11,142.71L165.57,147.42L156.24,150.20L146.55,150.91L136.93,149.55L127.83,146.16L119.66,140.92L112.79,134.07L107.53,125.90L104.13,116.80L102.81,107.53"/><path d="M117.09,81.89L117.19,82.25L117.33,82.56L117.82,83.41L118.92,85.10L120.17,86.88L121.67,88.95L124.23,92.42L127.21,96.40L128.21,98.11L128.55,98.99L128.94,100.94L128.96,101.88L128.68,103.86L128.40,104.74L127.49,106.50L126.93,107.25L125.50,108.60L118.02,113.86L114.31,116.51L112.63,117.73L111.92,118.26L111.50,118.62"/><path d="M115.05,115.98L113.90,112.64L113.14,104.24L114.41,95.90L117.64,88.09L119.37,85.74"/><path d="M117.12,114.50L115.96,111.05L115.23,103.22L116.33,95.44L119.19,88.10L120.10,86.78"/><path d="M116.08,127.52L116.26,127.54L116.47,127.52L117.24,127.37L118.90,126.92L120.67,126.38L122.84,125.68L126.52,124.47L132.35,122.50L134.27,122.09L135.21,122.05L137.17,122.29L138.07,122.56L139.85,123.44L140.61,123.99L141.29,124.60L142.52,126.15L142.98,126.97L143.45,128.19L145.12,133.55L146.36,137.43L147.58,141.08L148.33,143.05L148.70,143.90L148.82,144.11L149.06,144.42"/><path d="M147.29,140.22L144.32,140.24L136.13,138.29L128.64,134.45L122.27,128.95L120.49,126.43"/><path d="M146.45,137.70L142.24,137.31L134.81,134.82L128.14,130.70L123.05,125.61"/><path d="M140.08,86.49L140.16,86.52L138.58,85.65L138.39,85.51L129.69,78.93L127.04,76.89"/><path d="M158.56,72.05L155.32,70.96L146.82,70.26L138.42,71.63L130.60,74.97L127.54,77.28"/><path d="M128.05,77.67L129.54,76.33L136.48,72.54L141.89,71.06"/><path d="M158.12,117.72L160.72,114.80L162.51,111.31L163.38,107.49L163.26,103.56L162.17,99.78L160.17,96.39L157.39,93.61L154.01,91.60L150.23,90.51L146.30,90.38L142.47,91.25L138.97,93.04L136.04,95.63L133.85,98.88"/><path d="M140.76,114.13L140.86,114.01L140.71,114.19L140.50,114.34L140.24,114.43L139.98,114.43L139.72,114.35L139.51,114.19L139.35,113.97L139.27,113.72L139.27,113.46L139.35,113.20L139.51,112.99L139.65,112.84"/><path d="M140.05,97.08L139.95,97.08L139.70,97.16L139.48,97.32L139.33,97.54L139.26,97.75L139.25,98.06L139.33,98.31L139.49,98.53L139.70,98.69L139.96,98.77L140.22,98.77L140.37,98.73L140.33,98.73"/><path d="M156.41,104.67L156.29,107.54L155.27,110.16L153.45,112.29L151.03,113.72L148.29,114.29L145.51,113.94L142.99,112.70L141.00,110.72L139.77,108.20L139.42,105.42L139.99,102.67L141.42,100.26L143.56,98.44L146.25,97.40"/><path d="M139.69,97.17L139.48,97.32"/><path d="M161.15,68.72L160.64,69.30L159.99,70.12L157.95,72.89L155.93,75.72L150.54,83.40L149.22,84.90L148.48,85.49L146.95,86.35L146.73,86.47L145.84,86.79L143.88,87.13L142.93,87.13L140.97,86.80L140.16,86.52"/><path d="M146.03,70.39L147.72,70.34"/><path d="M156.62,113.59L156.62,113.56L156.62,113.77L156.54,114.02L156.38,114.23L156.17,114.38L155.93,114.46L155.64,114.47L155.39,114.39L155.17,114.23L155.02,114.01L154.93,113.76L154.95,113.32"/><path d="M156.64,98.02L156.65,98.00L156.64,98.07L156.56,98.32L156.40,98.54L156.18,98.69L155.93,98.78L155.66,98.78L155.41,98.69L155.19,98.54L155.03,98.32L154.95,98.07L154.95,97.80L155.07,97.47L155.05,97.52"/><path d="M154.97,97.75L154.99,97.68"/><path d="M156.54,97.52L156.54,97.51"/><path d="M156.52,97.46L156.61,97.69"/><path d="M156.64,97.97L156.62,97.69"/><path d="M156.62,97.75L156.62,97.71"/><path d="M158.97,142.92L158.93,138.32L158.74,125.84L158.94,123.88L159.19,122.97L160.03,121.18L160.57,120.41L161.96,118.99L162.72,118.44L164.52,117.55L165.41,117.29L167.39,117.04L173.32,117.14L177.49,117.18L181.47,117.16L183.71,117.08L184.74,116.98L185.02,116.94L185.49,116.81"/><path d="M181.10,117.16L180.19,120.02L175.76,127.24L169.73,133.17L162.47,137.48L158.94,138.56"/><path d="M180.56,117.17L176.93,123.78L171.64,129.63L165.16,134.10L158.91,136.53"/><path d="M163.38,107.49L163.35,107.61"/><path d="M168.30,100.91L167.50,100.39L167.33,100.22L166.04,99.03L165.47,98.27L164.54,96.51L164.25,95.61L163.96,93.63L163.98,92.68L164.36,90.72L168.61,78.35L169.68,75.11L170.00,74.11L170.21,73.33"/><path d="M183.69,105.77L180.30,104.76L169.94,101.60L168.21,100.85"/><path d="M183.13,105.61L183.20,101.78L181.30,93.47L177.45,85.86L171.88,79.39L168.95,77.32"/><path d="M183.10,101.36L182.96,105.56"/></g></g><g/><g><g/></g><g id="paperID" visibility="hidden" opacity="0.00" transform="scale(0.000100)"><path style="stroke:#000000;stroke-width:0.500;fill:#e6e6e6;fill-rule:evenodd" d="M-2000.00,-2000.00L2297.00,-2000.00L2297.00,2210.00L-2000.00,2210.00zM0.00,0.00L297.00,0.00L297.00,210.00L0.00,210.00z"/><path style="fill:#000000;fill-opacity:0.118" d="M3.00,210.00L297.00,210.00L297.00,3.00L300.00,3.00L300.00,213.00L3.00,213.00z"/></g><g id="ToolTip" visibility="hidden" opacity="0" transform="translate(0,0)"><rect id="ToolTipShadow" opacity="0.20" fill="black" stroke="none" x="0" y="0" width="30" height="8"/><rect id="ToolTipBG" fill="#ffffe1" stroke="black" x="0" y="0" width="30" height="8"/><text xml:space="preserve" id="ToolTipText" fill="black" x="0" y="0" width="30" height="8">tooltip</text></g></g></svg>
