<?xml version="1.0" encoding="UTF-8" standalone="no"?>
<svg xmlns="http://www.w3.org/2000/svg" xmlns:xlink="http://www.w3.org/1999/xlink" width="297.000mm" height="210.000mm" viewBox="0.000000 0.000000 297.000000 210.000000" stroke-linejoin="round" stroke-linecap="round" fill="none" fill-rule="evenodd"><desc>3DVIA Composer Export</desc><script type="text/ecmascript"><![CDATA[
if(typeof(top) != "undefined")
{
	top.ShowPaper = ShowPaper;
}
function ShowHotSpot(evt,hotspotid)
{
	var svgDocument = evt.target.ownerDocument;
	var strId = "hotspot."+hotspotid;
	var hotspot = svgDocument.getElementById(strId);
	if(hotspot)
		hotspot.setAttribute("opacity",".5");
}
function HideHotSpot(evt,hotspotid)
{
	var svgDocument = evt.target.ownerDocument;
	var strId = "hotspot."+hotspotid;
	var hotspot = svgDocument.getElementById(strId);
	if(hotspot)
		hotspot.setAttribute("opacity","0");

	var toolTip = svgDocument.getElementById('ToolTip');
	if(toolTip)
		toolTip.setAttribute("visibility","hidden");
}
function ShowToolTip(evt,hotspotid,strTooltip)
{
	if(strTooltip=="")
	return;

	// change text
	var svgDocument = evt.target.ownerDocument;
	var tiptext = svgDocument.getElementById('ToolTipText');
	if( !tiptext )
	return;
	tiptext.firstChild.nodeValue = " " + strTooltip + "  " ;

	// show tooltip before, else some refresh issue

	var toolTip = svgDocument.getElementById('ToolTip');
	if(!toolTip)
	return;

	toolTip.setAttribute("visibility","visible");
	toolTip.setAttribute("opacity",".95");

	// move tooltip
	// get viewbox

	var root = svgDocument.documentElement;
	var vbox = (root.getAttribute("viewBox")).split(' ');
	var x0 = parseFloat(vbox[0]);
	var y0 = parseFloat(vbox[1]);
	var vboxW = parseFloat(vbox[2]);
	var vboxH = parseFloat(vbox[3]);

	// get default width of svg

	var strW = root.getAttribute("width");
	var svgW = parseFloat(strW);
	if(strW.indexOf('mm') != -1)
	svgW *= 3.779;

	var strH = root.getAttribute("height");
	var svgH = parseFloat(strH);
	if(strH.indexOf('mm') != -1)
	svgH *= 3.779;  	// 96 dpi  -> 96/25.4 = 3.779

	// update the viewbox / width / height if svg is embedded in html with zoom fit all
	var realx0 = x0;
	var realy0 = y0;
	var realvboxW = vboxW;
	var realvboxH = vboxH;
	var realsvgW = svgW;
	var realsvgH = svgH;

	if ((typeof(top) == "undefined") || (typeof(top.svgctl1) != "undefined")) // embedded in html
	{
		// get window size in pxl

		svgW = window.innerWidth;
		svgH = window.innerHeight;

		// calculate real viewbox

		realsvgW = svgW;
		realsvgH = svgH;
		if((svgW / svgH) > (vboxW / vboxH))
		{
			realvboxW = (vboxH * svgW) / svgH;
			realvboxH = vboxH;
			realx0 = x0 - (realvboxW - vboxW)/2 ;
		}
		else
		{
			realvboxH = (vboxW * svgH) / svgW;
			realvboxW = vboxW;
			realy0 = y0 - (realvboxH - vboxH)/2 ;
		}
	}

	// get user zoom/pan

	var newScale = root.currentScale;
	var translation = root.currentTranslate;

	// transform pxl to user unit

	var xPos = (((evt.clientX+10- translation.x)/newScale) * realvboxW)/realsvgW  + realx0 ;
	var yPos = (((evt.clientY+5- translation.y)/newScale) * realvboxH)/ realsvgH  + realy0 ;
	var scaleForWidth = ( (1 / newScale) * realvboxH) / realsvgH;

	// move tooltip

	toolTip.setAttribute("transform", "translate(" + xPos + "," + yPos + ")" );

	// resize tooltip

	var fontsize = 12;
	tiptext.setAttribute("font-size",fontsize*scaleForWidth);
	tiptext.setAttribute("y", fontsize*scaleForWidth);
	var tipBG = svgDocument.getElementById('ToolTipBG');
	var outline = tiptext.getBBox();
	if(tipBG)
	{
		tipBG.setAttribute("stroke-width", 1*scaleForWidth);
		tipBG.setAttribute("width", Number(outline.width) );
		tipBG.setAttribute("height", Number(outline.height) + fontsize*.5*scaleForWidth );
	}
	var ToolTipShadow = svgDocument.getElementById('ToolTipShadow');
	if(ToolTipShadow)
	{
		ToolTipShadow.setAttribute("width", Number(outline.width) );
		ToolTipShadow.setAttribute("height", Number(outline.height) + fontsize*.5*scaleForWidth );
		ToolTipShadow.setAttribute("x", 3*scaleForWidth);
		ToolTipShadow.setAttribute("y", 3*scaleForWidth);
	}
}
function ShowPaper()
{
  var svgDocument = getDocument();
  var paper = svgDocument.getElementById("paperID");
  if(paper)
  {
    paper.setAttribute("transform","scale(1)");
    paper.setAttribute("opacity","1");
    paper.setAttribute("visibility","visible");
  }
  var svg = svgDocument.getRootElement();
  if(svg)
  {
    svg.setAttribute("width","307.000mm");
    svg.setAttribute("height","220.000mm");
    svg.setAttribute("viewBox","-5.000000 -5.000000 307.000000 220.000000");
  }
}
]]></script><defs/><g><path style="fill:#dcdcdc;fill-rule:evenodd" d="M159.90,37.69L160.17,39.05L159.29,39.49L158.58,40.34L158.58,41.59L159.13,42.37L157.30,42.10L151.60,40.54L147.19,40.02L140.86,40.05L140.43,39.82L139.32,38.97L156.54,39.08L156.27,35.87L155.50,30.94L150.54,12.81L150.55,12.01zM164.05,49.49L159.55,51.94L158.58,53.06L158.58,54.03L158.91,54.56L158.88,54.89L157.81,54.81L152.38,53.24L148.75,52.73L140.46,52.46L139.42,51.69L135.43,49.60L159.14,49.70L158.85,47.81L158.01,44.13L162.03,43.90zM155.93,60.76L157.58,60.60L157.73,59.19L166.91,59.19L166.92,60.62L159.13,64.75L158.58,65.76L158.57,66.74L159.13,67.52L157.30,67.26L151.60,65.69L146.93,65.17L140.86,65.20L140.43,64.97L137.60,63.35L132.84,60.75zM133.10,73.45L157.58,73.31L157.73,71.90L166.89,71.63L166.90,73.29L159.55,77.09L158.58,78.21L158.58,79.18L158.91,79.71L158.88,80.04L156.51,79.71L152.12,78.40L148.75,77.88L140.46,77.61L139.42,76.84L133.41,73.73zM157.58,86.01L157.73,84.35L166.91,84.35L166.92,85.77L159.13,89.90L158.58,90.92L158.57,91.89L159.14,92.66L158.35,92.66L151.60,90.84L146.67,90.32L140.47,90.33L138.64,89.02L133.15,86.18L132.84,85.90zM133.10,98.61L157.58,98.46L157.73,97.05L166.93,96.82L166.90,98.44L159.55,102.25L158.58,103.36L158.58,104.33L158.91,104.86L158.88,105.19L157.55,105.11L152.12,103.55L148.49,103.03L140.47,102.76L136.30,100.43L133.16,98.84zM157.58,111.16L157.73,109.76L159.56,109.51L166.91,109.50L166.92,110.92L159.02,115.20L158.58,116.07L158.57,117.04L159.14,117.82L158.35,117.81L154.44,116.78L149.78,115.74L146.16,115.48L140.47,115.48L139.41,114.70L132.58,111.05zM132.84,123.76L157.58,123.61L157.73,122.20L166.91,122.20L166.90,123.60L159.55,127.40L158.58,128.51L158.58,129.48L158.88,130.26L157.55,130.26L152.12,128.70L148.23,128.18L140.47,127.91zM157.58,136.32L157.73,134.91L161.63,134.66L166.91,134.65L166.92,136.07L159.36,140.18L158.58,141.22L158.57,142.19L159.14,142.96L158.07,142.97L151.34,141.15L145.90,140.63L140.47,140.63L139.42,139.85L132.58,136.21zM132.84,148.91L157.58,148.76L157.73,147.36L166.91,147.36L166.90,148.75L159.55,152.55L158.58,153.66L158.58,154.64L158.88,155.41L157.55,155.41L151.86,153.85L147.97,153.33L140.47,153.06zM166.93,160.41L163.94,160.59L183.25,160.58L181.68,179.34L181.36,179.54L173.37,182.18L165.60,184.01L162.92,184.25L162.83,184.10L163.89,183.84L164.57,183.65L163.89,183.84L162.83,184.10L161.62,184.21L161.54,184.36L158.26,184.70L156.96,184.72L158.63,183.24L156.70,183.15L156.46,184.20L153.92,184.80L153.69,183.14L147.61,183.13L146.07,184.70L144.34,184.71L142.22,184.45L141.99,184.77L140.45,184.71L135.26,183.93L130.07,182.88L128.78,182.91L120.74,180.56L118.05,179.52L162.50,179.62L163.01,166.38L163.02,160.84L157.71,160.67L157.71,160.08L166.93,159.82zM161.65,184.52L161.54,184.36L162.25,184.45z"/><g id="Actor_.0"><g style="stroke:#000000;stroke-width:0.353"><path d="M116.13,160.55L117.56,160.64L119.08,160.68L126.52,160.79L137.35,160.86L149.99,160.89L162.60,160.86L173.32,160.79L180.60,160.68L182.07,160.63L182.99,160.59L183.38,160.54"/><path d="M117.78,179.47L118.40,179.52L120.59,179.59L127.66,179.70L137.96,179.77L149.98,179.79L161.96,179.77L172.16,179.69L179.09,179.59L180.93,179.53L181.72,179.46"/><path d="M167.07,160.54L165.98,160.60L162.73,160.65L149.62,160.72L138.52,160.67L134.68,160.62L133.42,160.60L132.42,160.53"/><path d="M132.42,159.75L133.42,159.81L137.69,159.88L149.62,159.93L162.94,159.87L165.98,159.81L167.07,159.75"/><path d="M132.42,148.73L133.42,148.79L137.69,148.86L149.62,148.91L160.79,148.87L165.00,148.82L166.78,148.77L167.07,148.73"/><path d="M132.42,147.16L133.42,147.22L137.69,147.29L149.62,147.34L160.79,147.30L165.98,147.22L167.07,147.16"/><path d="M167.07,136.14L165.98,136.21L161.59,136.27L149.62,136.32L138.52,136.28L134.28,136.22L132.66,136.17L132.42,136.14"/><path d="M132.42,134.57L133.42,134.63L136.55,134.69L149.62,134.75L161.59,134.70L165.98,134.63L167.07,134.57"/><path d="M132.42,123.55L133.42,123.61L136.55,123.67L149.62,123.73L162.73,123.67L165.98,123.62L167.07,123.55"/><path d="M132.42,121.98L133.42,122.04L138.52,122.12L149.62,122.16L160.79,122.12L165.00,122.06L166.78,122.01L167.07,121.98"/><path d="M132.42,110.96L133.42,111.02L137.69,111.09L149.62,111.15L162.73,111.08L165.98,111.03L167.07,110.97"/><path d="M132.42,109.39L133.42,109.45L137.69,109.52L149.62,109.57L162.73,109.51L165.98,109.45L167.07,109.39"/><path d="M132.42,98.37L133.42,98.44L134.68,98.46L138.52,98.51L149.62,98.56L160.79,98.51L164.69,98.47L165.98,98.44L167.07,98.38"/><path d="M132.42,96.80L133.42,96.86L137.69,96.93L149.63,96.98L160.79,96.94L164.69,96.89L165.98,96.86L167.07,96.80"/><path d="M167.07,85.79L165.98,85.85L162.73,85.90L149.63,85.97L138.52,85.92L134.68,85.87L133.42,85.85L132.42,85.78"/><path d="M132.42,84.21L133.42,84.27L134.68,84.30L138.52,84.35L149.62,84.39L162.73,84.33L165.98,84.27L167.07,84.21"/><path d="M132.42,73.19L133.42,73.26L136.55,73.31L149.62,73.38L160.79,73.33L164.69,73.29L165.98,73.26L167.07,73.20"/><path d="M132.42,71.62L133.42,71.68L136.40,71.74L149.62,71.80L162.73,71.74L165.98,71.68L167.07,71.62"/><path d="M167.07,60.61L165.98,60.67L162.94,60.72L149.62,60.79L137.69,60.73L133.42,60.67L132.42,60.60"/><path d="M132.42,59.03L133.14,59.08L134.68,59.12L138.52,59.17L149.62,59.21L162.73,59.15L165.98,59.09L167.07,59.03"/><path d="M135.28,49.50L136.19,49.56L139.05,49.61L148.73,49.66L158.97,49.62L162.45,49.58L164.12,49.52L164.18,49.50"/><path d="M137.61,183.15L139.79,184.23L142.06,184.97"/><path d="M162.18,43.90L159.33,43.98L150.53,44.02L141.04,43.99L138.18,43.94L137.33,43.89"/><path d="M139.97,155.82L141.23,155.87L143.40,155.89L149.68,155.92L155.99,155.89L158.19,155.87L159.54,155.82"/><path d="M139.97,118.05L141.23,118.10L143.40,118.13L149.68,118.15L155.99,118.13L158.19,118.10L159.54,118.05"/><path d="M139.12,38.91L139.91,38.96L142.65,39.00L149.74,9.46L146.79,39.02L142.65,39.00"/><path d="M159.50,152.68L156.96,152.74L149.77,152.77L142.56,152.74L139.99,152.68"/><path d="M139.97,143.23L141.23,143.28L143.40,143.30L149.68,143.33L155.99,143.31L158.19,143.28L159.54,143.23"/><path d="M139.99,140.09L142.56,140.15L149.68,140.18L155.90,140.16L159.50,140.09"/><path d="M159.54,130.64L158.92,130.67L155.99,130.72L149.68,130.74L143.40,130.71L141.23,130.69L139.97,130.64"/><path d="M139.99,127.50L142.56,127.56L149.77,127.59L155.90,127.57L159.50,127.50"/><path d="M139.99,114.91L142.55,114.97L149.77,115.00L155.90,114.98L159.50,114.91"/><path d="M139.97,105.46L141.23,105.51L143.40,105.54L149.68,105.56L155.99,105.54L158.69,105.50L159.54,105.46"/><path d="M139.99,102.32L142.56,102.38L149.77,102.41L156.96,102.38L159.50,102.32"/><path d="M159.54,92.87L157.20,92.93L149.68,92.97L143.40,92.95L140.82,92.91L139.97,92.87"/><path d="M159.50,89.73L156.96,89.79L149.77,89.82L142.56,89.79L139.99,89.73"/><path d="M139.97,80.28L141.10,80.33L143.40,80.36L149.68,80.38L155.99,80.36L158.92,80.31L159.54,80.28"/><path d="M139.99,77.14L143.38,77.21L149.77,77.23L155.90,77.21L159.50,77.14"/><path d="M159.54,67.69L158.92,67.72L155.99,67.77L149.68,67.79L143.40,67.77L141.23,67.74L139.97,67.69"/><path d="M159.50,64.55L155.78,64.62L149.77,64.64L142.56,64.61L139.99,64.55"/><path d="M139.97,55.10L141.23,55.15L143.40,55.17L149.68,55.20L155.99,55.18L158.69,55.14L159.54,55.10"/><path d="M139.99,51.96L142.55,52.02L149.77,52.05L155.78,52.03L159.50,51.96"/><path d="M159.53,42.51L158.52,42.55L155.99,42.59L150.36,42.61L142.89,42.58L140.64,42.54L139.97,42.50"/><path d="M159.50,39.37L155.78,39.44L149.77,39.46L143.24,39.44L139.99,39.37"/><path d="M146.79,39.02L157.68,38.99L149.74,9.46L159.97,38.95L157.68,38.99"/><path d="M153.85,184.79L153.92,183.16"/><path d="M156.77,184.97L157.78,184.21L158.78,183.02"/><path d="M156.25,183.09L156.29,183.09"/><path d="M159.31,184.94L163.11,184.19L166.82,183.09"/><path d="M159.97,38.95L160.37,38.92"/><path d="M165.29,184.10L164.92,184.15"/></g><g style="stroke:#000000;stroke-width:0.705"><path d="M119.22,179.99L119.48,180.08L117.78,179.47L116.13,160.55L116.24,160.50L116.89,160.46L119.81,160.37L124.68,160.30L132.42,160.23"/><path d="M119.48,180.08L120.62,180.49L119.48,180.08"/><path d="M120.62,180.49L122.54,181.18L125.71,182.10L129.09,183.00L130.17,182.91L136.08,184.15L142.06,184.97L142.21,184.35"/><path d="M129.23,182.99L134.20,184.03L140.18,184.85L140.21,184.71"/><path d="M132.42,160.53L132.42,159.75L139.95,155.82L140.43,155.48L140.75,155.03L140.91,154.51L140.92,153.97L140.75,153.45L140.50,153.10L140.43,153.00L139.99,152.68L132.42,148.73L132.42,147.16L139.95,143.23L140.43,142.89L140.75,142.44L140.91,141.92L140.92,141.38L140.75,140.86L140.67,140.76L140.43,140.41L139.99,140.09L132.42,136.14L132.42,134.57L139.95,130.64L140.43,130.30L140.75,129.85L140.91,129.33L140.92,128.79L140.75,128.27L140.50,127.92L140.43,127.82L139.99,127.50L132.42,123.55L132.42,121.98L139.97,118.04L140.43,117.71L140.75,117.26L140.91,116.74L140.92,116.21L140.75,115.68L140.43,115.23L139.99,114.91L132.42,110.96L132.42,109.39L139.95,105.46L140.43,105.12L140.75,104.67L140.91,104.15L140.92,103.62L140.75,103.09L140.43,102.64L139.99,102.32L132.42,98.37L132.42,96.80L139.95,92.87L140.43,92.53L140.75,92.08L140.91,91.56L140.92,91.03L140.75,90.50L140.50,90.15L140.43,90.05L139.99,89.73L132.42,85.78L132.42,84.21L139.95,80.28L140.43,79.94L140.75,79.49L140.91,78.97L140.92,78.44L140.75,77.91L140.50,77.56L140.43,77.47L139.99,77.14L132.42,73.19L132.42,71.62L139.95,67.69L140.43,67.35L140.75,66.90L140.91,66.38L140.92,65.85L140.75,65.32L140.43,64.88L139.99,64.55L132.42,60.60L132.42,59.03L139.95,55.10L140.43,54.76L140.75,54.32L140.91,53.79L140.92,53.26L140.75,52.73L140.43,52.29L139.99,51.96L135.28,49.50L137.31,43.89L139.96,42.50L140.43,42.17L140.75,41.73L140.91,41.20L140.92,40.67L140.75,40.14L140.43,39.70L139.99,39.37L139.12,38.91L149.75,9.46L160.37,38.92L159.50,39.37L159.06,39.70L158.74,40.14L158.58,40.67L158.58,41.22L158.74,41.73L159.06,42.17L159.53,42.51L162.18,43.90L164.18,49.50L159.50,51.96L159.06,52.29L158.74,52.73L158.58,53.26L158.58,53.81L158.74,54.31L159.06,54.76L159.54,55.10L167.07,59.03L167.07,60.61L159.50,64.55L159.06,64.88L158.74,65.32L158.58,65.85L158.58,66.40L158.74,66.90L159.06,67.35L159.54,67.69L167.07,71.62L167.07,73.20L159.50,77.14L159.06,77.46L158.74,77.91L158.58,78.44L158.58,78.98L158.74,79.49L159.06,79.94L159.54,80.28L167.07,84.21L167.07,85.79L159.50,89.73L159.06,90.05L158.74,90.50L158.58,91.03L158.58,91.57L158.74,92.08L159.06,92.53L159.54,92.87L167.07,96.80L167.07,98.38L159.50,102.32L159.06,102.64L158.74,103.09L158.58,103.62L158.58,104.17L158.74,104.67L159.06,105.12L159.54,105.46L167.07,109.39L167.07,110.97L159.50,114.91L159.06,115.23L158.74,115.68L158.58,116.20L158.58,116.76L158.74,117.26L159.06,117.71L159.55,118.05L167.07,121.98L167.07,123.55L159.50,127.50L159.06,127.82L158.74,128.27L158.58,128.79L158.58,129.35L158.74,129.85L159.06,130.30L159.54,130.64L167.07,134.57L167.07,136.14L159.50,140.09L159.06,140.41L158.74,140.86L158.58,141.38L158.58,141.94L158.74,142.44L159.06,142.89L159.54,143.23L167.07,147.16L167.07,148.73L159.50,152.68L159.06,153.00L158.74,153.45L158.58,153.97L158.58,154.52L158.74,155.03L159.06,155.48L159.54,155.82L167.07,159.75L167.07,160.54"/><path d="M137.61,183.15L141.63,184.25L145.64,184.99L146.65,184.23L147.65,183.04L153.24,183.18L156.25,183.09L156.34,183.12L160.11,182.32"/><path d="M142.74,184.45L142.72,184.81L142.12,184.72"/><path d="M152.27,183.16L152.84,183.90L153.85,184.79L156.73,184.20"/><path d="M157.14,184.69L157.22,184.72L158.13,184.77L156.77,184.97L156.69,183.08"/><path d="M158.78,183.02L156.48,183.09"/><path d="M158.13,184.77L161.81,184.21L166.82,183.09"/><path d="M159.23,184.60L159.31,184.94L164.70,184.18"/><path d="M162.24,184.36L164.89,184.17L171.20,182.84L172.99,182.37L176.05,181.45L180.38,179.96L181.71,179.47L183.38,160.54L183.21,160.50L182.49,160.45L179.46,160.37L174.48,160.30L167.07,160.23"/><path d="M163.86,184.24L164.49,184.19"/></g></g><g><g/></g><g/><g id="paperID" visibility="hidden" opacity="0.00" transform="scale(0.000100)"><path style="stroke:#000000;stroke-width:0.500;fill:#e6e6e6;fill-rule:evenodd" d="M-2000.00,-2000.00L2297.00,-2000.00L2297.00,2210.00L-2000.00,2210.00zM0.00,0.00L297.00,0.00L297.00,210.00L0.00,210.00z"/><path style="fill:#000000;fill-opacity:0.118" d="M3.00,210.00L297.00,210.00L297.00,3.00L300.00,3.00L300.00,213.00L3.00,213.00z"/></g><g id="ToolTip" visibility="hidden" opacity="0" transform="translate(0,0)"><rect id="ToolTipShadow" opacity="0.20" fill="black" stroke="none" x="0" y="0" width="30" height="8"/><rect id="ToolTipBG" fill="#ffffe1" stroke="black" x="0" y="0" width="30" height="8"/><text xml:space="preserve" id="ToolTipText" fill="black" x="0" y="0" width="30" height="8">tooltip</text></g></g></svg>
