<?xml version="1.0" encoding="UTF-8" standalone="no"?>
<svg xmlns="http://www.w3.org/2000/svg" xmlns:xlink="http://www.w3.org/1999/xlink" width="297.000mm" height="210.000mm" viewBox="0.000000 0.000000 297.000000 210.000000" stroke-linejoin="round" stroke-linecap="round" fill="none" fill-rule="evenodd"><desc>3DVIA Composer Export</desc><script type="text/ecmascript"><![CDATA[
if(typeof(top) != "undefined")
{
	top.ShowPaper = ShowPaper;
}
function ShowHotSpot(evt,hotspotid)
{
	var svgDocument = evt.target.ownerDocument;
	var strId = "hotspot."+hotspotid;
	var hotspot = svgDocument.getElementById(strId);
	if(hotspot)
		hotspot.setAttribute("opacity",".5");
}
function HideHotSpot(evt,hotspotid)
{
	var svgDocument = evt.target.ownerDocument;
	var strId = "hotspot."+hotspotid;
	var hotspot = svgDocument.getElementById(strId);
	if(hotspot)
		hotspot.setAttribute("opacity","0");

	var toolTip = svgDocument.getElementById('ToolTip');
	if(toolTip)
		toolTip.setAttribute("visibility","hidden");
}
function ShowToolTip(evt,hotspotid,strTooltip)
{
	if(strTooltip=="")
	return;

	// change text
	var svgDocument = evt.target.ownerDocument;
	var tiptext = svgDocument.getElementById('ToolTipText');
	if( !tiptext )
	return;
	tiptext.firstChild.nodeValue = " " + strTooltip + "  " ;

	// show tooltip before, else some refresh issue

	var toolTip = svgDocument.getElementById('ToolTip');
	if(!toolTip)
	return;

	toolTip.setAttribute("visibility","visible");
	toolTip.setAttribute("opacity",".95");

	// move tooltip
	// get viewbox

	var root = svgDocument.documentElement;
	var vbox = (root.getAttribute("viewBox")).split(' ');
	var x0 = parseFloat(vbox[0]);
	var y0 = parseFloat(vbox[1]);
	var vboxW = parseFloat(vbox[2]);
	var vboxH = parseFloat(vbox[3]);

	// get default width of svg

	var strW = root.getAttribute("width");
	var svgW = parseFloat(strW);
	if(strW.indexOf('mm') != -1)
	svgW *= 3.779;

	var strH = root.getAttribute("height");
	var svgH = parseFloat(strH);
	if(strH.indexOf('mm') != -1)
	svgH *= 3.779;  	// 96 dpi  -> 96/25.4 = 3.779

	// update the viewbox / width / height if svg is embedded in html with zoom fit all
	var realx0 = x0;
	var realy0 = y0;
	var realvboxW = vboxW;
	var realvboxH = vboxH;
	var realsvgW = svgW;
	var realsvgH = svgH;

	if ((typeof(top) == "undefined") || (typeof(top.svgctl1) != "undefined")) // embedded in html
	{
		// get window size in pxl

		svgW = window.innerWidth;
		svgH = window.innerHeight;

		// calculate real viewbox

		realsvgW = svgW;
		realsvgH = svgH;
		if((svgW / svgH) > (vboxW / vboxH))
		{
			realvboxW = (vboxH * svgW) / svgH;
			realvboxH = vboxH;
			realx0 = x0 - (realvboxW - vboxW)/2 ;
		}
		else
		{
			realvboxH = (vboxW * svgH) / svgW;
			realvboxW = vboxW;
			realy0 = y0 - (realvboxH - vboxH)/2 ;
		}
	}

	// get user zoom/pan

	var newScale = root.currentScale;
	var translation = root.currentTranslate;

	// transform pxl to user unit

	var xPos = (((evt.clientX+10- translation.x)/newScale) * realvboxW)/realsvgW  + realx0 ;
	var yPos = (((evt.clientY+5- translation.y)/newScale) * realvboxH)/ realsvgH  + realy0 ;
	var scaleForWidth = ( (1 / newScale) * realvboxH) / realsvgH;

	// move tooltip

	toolTip.setAttribute("transform", "translate(" + xPos + "," + yPos + ")" );

	// resize tooltip

	var fontsize = 12;
	tiptext.setAttribute("font-size",fontsize*scaleForWidth);
	tiptext.setAttribute("y", fontsize*scaleForWidth);
	var tipBG = svgDocument.getElementById('ToolTipBG');
	var outline = tiptext.getBBox();
	if(tipBG)
	{
		tipBG.setAttribute("stroke-width", 1*scaleForWidth);
		tipBG.setAttribute("width", Number(outline.width) );
		tipBG.setAttribute("height", Number(outline.height) + fontsize*.5*scaleForWidth );
	}
	var ToolTipShadow = svgDocument.getElementById('ToolTipShadow');
	if(ToolTipShadow)
	{
		ToolTipShadow.setAttribute("width", Number(outline.width) );
		ToolTipShadow.setAttribute("height", Number(outline.height) + fontsize*.5*scaleForWidth );
		ToolTipShadow.setAttribute("x", 3*scaleForWidth);
		ToolTipShadow.setAttribute("y", 3*scaleForWidth);
	}
}
function ShowPaper()
{
  var svgDocument = getDocument();
  var paper = svgDocument.getElementById("paperID");
  if(paper)
  {
    paper.setAttribute("transform","scale(1)");
    paper.setAttribute("opacity","1");
    paper.setAttribute("visibility","visible");
  }
  var svg = svgDocument.getRootElement();
  if(svg)
  {
    svg.setAttribute("width","307.000mm");
    svg.setAttribute("height","220.000mm");
    svg.setAttribute("viewBox","-5.000000 -5.000000 307.000000 220.000000");
  }
}
]]></script><defs/><g><path style="fill:#dcdcdc;fill-rule:evenodd" d="M263.60,54.11L262.76,54.11L262.76,51.51L263.60,51.51zM260.27,54.50L260.13,55.60L258.54,55.52L258.78,54.25L262.13,54.26zM89.12,71.19L89.40,70.91L89.63,73.14L89.92,73.37L90.16,73.96L89.40,73.37L89.12,72.92zM34.24,77.62L34.24,78.20L33.12,79.37L32.49,79.37L31.24,77.85L31.12,77.13L33.48,76.86zM248.48,90.51L248.72,91.11L247.67,90.26L247.62,90.01L247.91,90.02zM267.34,93.79L266.85,93.79L266.51,93.24L266.79,93.24zM45.13,91.86L45.13,93.80L46.16,95.07L46.16,95.35L45.40,95.27L44.63,94.29L44.65,91.63L45.42,91.05zM26.49,94.83L26.49,96.28L27.30,97.27L27.27,97.59L26.52,97.50L26.02,96.99L25.75,96.28L25.74,95.08L26.95,93.74L27.24,93.74zM260.40,99.70L261.38,100.99L260.81,101.08L259.80,99.46zM65.85,98.13L64.52,99.59L64.52,99.11L65.81,98.01zM231.55,101.24L231.04,101.23L231.03,100.72zM275.54,101.74L275.05,101.74L274.71,101.20L275.00,101.20zM17.53,103.30L18.19,102.18L18.79,101.94L18.60,102.31L18.54,104.22L18.85,104.73L18.81,105.05L18.06,104.97L17.53,103.97zM32.46,102.54L32.46,104.97L32.98,106.19L33.73,107.18L34.49,107.73L34.48,108.02L33.70,107.97L32.98,107.43L32.24,106.44L31.71,104.98L31.71,103.04L32.47,101.31L33.17,100.45L33.45,100.44zM66.56,106.94L66.55,107.28L61.82,112.02L59.81,114.23L48.77,125.32L46.33,127.10L45.13,127.10L43.89,126.31L43.90,125.69L50.86,118.71L52.87,116.49L62.56,106.68L62.05,106.20L62.03,102.04L62.47,101.46L62.47,105.79L62.77,106.00L63.70,105.70L64.20,105.43L64.78,105.43zM228.58,107.45L229.55,107.42L246.47,124.32L248.42,126.42L247.68,126.61L245.23,124.82L242.00,121.84L239.99,119.62L232.78,112.39L232.58,111.65L231.06,110.20L230.57,110.18L227.49,106.92L227.78,106.92zM250.47,110.19L250.46,110.50L249.90,110.15L249.86,109.89L250.17,109.89zM43.66,113.15L44.20,113.67L44.17,114.00L43.41,113.91L42.89,113.18L42.89,111.49L43.42,110.91zM257.64,119.11L257.32,119.19L257.40,118.87zM36.43,121.38L36.96,122.10L36.88,122.36L36.21,122.37L35.69,121.63L35.68,120.43L36.21,119.86z"/><g id="Actor_.0"><g style="stroke:#000000;stroke-width:0.353"><path d="M19.80,105.38L19.21,105.43L18.63,105.28L18.12,104.96L17.75,104.50L17.53,103.94L17.52,103.36L17.69,102.80L18.04,102.33L18.53,102.01"/><path d="M28.48,97.96L27.75,98.03L27.04,97.85L26.42,97.45L25.95,96.88L25.70,96.20L25.68,95.47L25.89,94.78L26.32,94.21L26.92,93.81"/><path d="M29.63,54.84L34.53,54.83L33.04,54.86"/><path d="M32.81,79.66L32.07,78.89L31.49,78.19L31.13,77.62L31.02,77.24L31.17,77.08"/><path d="M37.73,108.73L36.15,108.87L34.60,108.49L33.24,107.63L32.23,106.39L31.67,104.89L31.62,103.30L32.10,101.80L33.04,100.55L34.35,99.68"/><path d="M33.17,79.03L33.47,78.98"/><path d="M35.12,56.21L33.07,56.24"/><path d="M38.38,122.51L37.85,122.74L37.26,122.79L36.69,122.65L36.19,122.33L35.81,121.87L35.61,121.32L35.59,120.74L35.77,120.19L36.12,119.72L36.60,119.40"/><path d="M34.53,54.83L35.11,54.82L34.53,54.83"/><path d="M40.52,127.32L41.88,126.31L42.83,125.35"/><path d="M43.99,110.30L43.40,110.69L42.97,111.26L42.75,111.95L42.77,112.67L43.02,113.35L43.48,113.92L44.10,114.31L44.81,114.48L45.53,114.42L46.19,114.13"/><path d="M45.98,90.45L45.21,90.96L44.66,91.70L44.38,92.58L44.40,93.51L44.72,94.39L45.32,95.12L46.11,95.63L47.02,95.86L47.95,95.78"/><path d="M52.47,121.22L51.76,122.04L50.84,122.97L49.99,123.77L49.56,124.11"/><path d="M60.76,112.70L61.16,112.40L61.99,111.62L62.92,110.68L63.66,109.83"/><path d="M66.61,107.10L66.55,107.09L64.98,108.00L64.67,108.00L64.14,107.76L63.46,107.31L62.67,106.68L61.86,105.95L62.38,105.67"/><path d="M61.86,105.95L61.80,103.20L61.88,102.49L62.15,101.82L62.57,101.25L72.79,90.83L74.20,89.73L75.86,89.03"/><path d="M90.98,69.87L90.27,70.05L89.67,70.45L89.23,71.03L89.00,71.73L89.01,72.46L89.26,73.16L89.72,73.73L90.33,74.13L91.05,74.31L91.78,74.25"/><path d="M202.16,74.00L202.89,73.94L203.56,73.64L204.11,73.14L204.46,72.50L204.59,71.77L204.48,71.05L204.11,70.38L203.60,69.91L202.93,69.62"/><path d="M227.14,106.61L227.19,106.61L228.76,107.51L229.07,107.50L229.59,107.26L230.28,106.80L231.06,106.17L231.85,105.44L231.89,102.69L231.81,101.98L231.54,101.32L231.12,100.75L220.86,90.40L219.44,89.30L217.78,88.62"/><path d="M233.01,112.15L232.96,112.16L232.43,111.72L231.53,110.87L230.32,109.61L230.10,109.30"/><path d="M231.34,105.16L231.85,105.44"/><path d="M244.26,123.49L244.18,123.46L243.63,123.00L242.73,122.14L241.53,120.91L241.34,120.62"/><path d="M247.16,89.71L248.01,90.08L248.68,90.71L248.99,91.30L249.11,91.53L249.24,92.45L249.07,93.37L248.61,94.19L247.92,94.82L247.05,95.19L246.13,95.27L245.23,95.05"/><path d="M250.02,109.84L250.54,110.33L250.88,110.96L250.98,111.67L250.85,112.38L250.49,113.02L249.94,113.51L249.28,113.80L248.56,113.86L247.86,113.69"/><path d="M253.26,126.63L251.90,125.65L250.95,124.69"/><path d="M255.19,107.82L256.71,108.20L257.86,108.11L258.30,108.07L259.77,107.43L260.96,106.36L261.74,104.97L262.04,103.40L261.81,101.84L261.09,100.45L259.94,99.38L258.50,98.75"/><path d="M255.63,121.97L256.19,122.11L256.78,122.06L257.32,121.83L257.77,121.43L258.06,120.92L258.16,120.34L258.08,119.76L257.81,119.25L257.38,118.86"/><path d="M260.27,55.64L258.22,55.61"/><path d="M258.36,54.23L258.23,54.23L259.00,54.23L258.36,54.23"/><path d="M263.69,54.22L259.00,54.23L260.30,54.26"/><path d="M260.31,78.38L260.01,78.34"/><path d="M262.29,76.43L262.44,76.59L262.33,76.97L261.97,77.54L261.40,78.25L260.67,79.01"/><path d="M264.76,97.15L265.46,97.32L266.18,97.26L266.85,96.97L267.40,96.48L267.76,95.84L267.90,95.12L267.80,94.41L267.46,93.77L266.94,93.28L266.28,92.99"/><path d="M274.76,101.15L275.30,101.38L275.72,101.78L275.99,102.30L276.07,102.88L275.96,103.46L275.67,103.97L275.22,104.37L274.68,104.61L274.09,104.66L273.52,104.52"/></g><g style="stroke:#000000;stroke-width:0.705"><path d="M42.96,125.46L42.52,125.92L41.14,126.92L40.52,127.32L38.90,127.85L37.17,127.85L35.52,127.33L34.10,126.34L14.03,107.06L12.97,105.67L12.38,104.04L12.33,102.32L12.81,100.68L13.78,99.28L13.05,98.52L12.49,97.80L12.16,97.20L12.09,96.78L31.17,77.08L33.38,76.76L33.53,76.82L34.50,77.77"/><path d="M19.80,105.38L20.33,105.14L19.98,105.15L19.40,105.01L18.90,104.69L18.53,104.23L18.32,103.68L18.30,103.10L18.47,102.54L18.82,102.08L19.14,101.87"/><path d="M20.33,105.14L20.75,104.74L21.02,104.22L21.09,103.64L20.98,103.06L20.68,102.54L20.24,102.14L19.69,101.91L19.10,101.86L18.53,102.01"/><path d="M28.94,97.76L28.47,97.80L27.77,97.62L27.15,97.23L26.69,96.66L26.43,95.98L26.41,95.26L26.63,94.57L27.05,94.00L27.61,93.63L26.92,93.81"/><path d="M27.61,93.63L28.35,93.68L29.03,93.97L29.58,94.47L29.95,95.10L30.09,95.82L29.99,96.54L29.76,96.97L29.66,97.18L29.14,97.67L28.48,97.96"/><path d="M33.04,54.95L31.30,54.93L29.63,54.84L29.55,52.06L35.86,52.01L35.60,52.16L35.37,52.64L35.21,53.40L35.11,54.38L35.10,55.46L35.61,74.39L35.46,75.84L34.94,77.18L34.09,78.33L32.81,79.66"/><path d="M38.39,108.44L36.82,108.58L35.27,108.20L33.93,107.34L32.92,106.10L32.37,104.62L32.32,103.04L32.79,101.55L33.73,100.30L34.88,99.54"/><path d="M33.17,79.03L33.16,79.14L33.23,79.23"/><path d="M33.04,54.86L33.07,56.24L35.12,56.28"/><path d="M34.35,99.68L35.89,99.28L37.48,99.41L38.96,100.04L40.16,101.11L40.95,102.50L41.26,104.07L41.04,105.63L40.29,107.04L39.17,108.10L37.73,108.73"/><path d="M38.55,122.35L37.92,122.42L37.36,122.28L36.86,121.96L36.48,121.50L36.28,120.96L36.26,120.38L36.44,119.83L36.78,119.37"/><path d="M36.60,119.40L37.17,119.26L37.76,119.30L38.30,119.54L38.75,119.93L39.04,120.44L39.16,121.02L39.07,121.60L38.81,122.11L38.38,122.51"/><path d="M35.86,52.01L261.62,51.41L263.75,51.44L263.69,54.22L262.04,54.31L260.30,54.34"/><path d="M42.83,125.35L43.64,126.06L44.44,126.66L45.17,127.08L45.73,127.28L46.09,127.24L48.02,125.96L49.25,124.88L50.44,123.71L65.73,108.13L66.61,107.10L64.67,105.22L64.61,105.21L63.00,106.08L62.70,105.94L62.38,105.67L62.32,102.94L62.40,102.23L62.66,101.57L63.08,101.00L73.24,90.64L74.64,89.55L75.86,89.03L77.65,88.79L215.99,88.39L217.76,88.62L219.00,89.13L220.41,90.22L230.61,100.51L231.03,101.07L231.30,101.73L231.38,102.43L231.34,105.16L231.03,105.44L230.72,105.58L229.12,104.71L229.06,104.72L227.14,106.61L227.58,107.16L243.38,123.11L244.57,124.27L245.80,125.34L247.72,126.60L248.08,126.64L248.64,126.44L249.36,126.02L250.15,125.42L250.95,124.70"/><path d="M46.30,114.03L46.14,114.10L45.42,114.16L44.72,113.99L44.10,113.60L43.65,113.03L43.40,112.35L43.38,111.64L43.59,110.96L44.02,110.39L44.27,110.23"/><path d="M43.99,110.30L44.70,110.12L45.42,110.18L46.10,110.46L46.64,110.95L47.00,111.58L47.14,112.30L47.04,113.01L46.71,113.64L46.19,114.13"/><path d="M47.95,95.78L48.35,95.60L47.63,95.64L46.72,95.42L45.93,94.91L45.34,94.19L45.02,93.31L45.00,92.38L45.28,91.51L45.83,90.77L46.54,90.30"/><path d="M45.98,90.45L46.88,90.21L47.82,90.29L48.68,90.66L49.39,91.29L49.85,92.11L50.03,93.03L49.90,93.95L49.47,94.77L48.80,95.40L48.35,95.60L48.41,95.58"/><path d="M49.56,124.11L49.74,123.83L50.94,122.58L51.85,121.70L52.40,121.23L52.47,121.22"/><path d="M63.66,109.83L63.61,109.82L63.42,109.97L62.19,111.12L61.29,112.04L60.76,112.70"/><path d="M91.93,74.18L91.39,74.23L90.68,74.05L90.07,73.65L89.61,73.08L89.36,72.39L89.35,71.66L89.58,70.97L90.02,70.39L90.62,69.99L91.07,69.87"/><path d="M91.78,74.25L92.44,73.95L92.97,73.45L93.31,72.81L93.42,72.08L93.29,71.36L92.93,70.71L92.39,70.22L91.71,69.92L90.98,69.87"/><path d="M202.16,74.00L201.45,73.82L200.85,73.42L200.40,72.85L200.17,72.15L200.18,71.42L200.42,70.72L200.88,70.14L201.49,69.74L202.20,69.56L202.93,69.62"/><path d="M202.67,69.60L203.25,69.85L203.79,70.35L204.13,70.99L204.24,71.70L204.11,72.42L203.76,73.07L203.22,73.56L202.55,73.85L201.83,73.92"/><path d="M230.10,109.30L230.48,109.59L231.33,110.37L232.26,111.30L233.01,112.15"/><path d="M241.34,120.62L241.74,120.93L242.62,121.74L243.56,122.67L244.24,123.46"/><path d="M245.23,95.05L244.46,94.54L243.90,93.81L243.61,92.93L243.63,92.00L243.87,91.31L243.95,91.12L244.53,90.38L245.31,89.88L246.23,89.64L247.16,89.71"/><path d="M246.91,89.69L247.40,89.90L248.07,90.53L248.49,91.34L248.62,92.25L248.46,93.17L248.00,93.98L247.29,94.62L246.45,94.98L245.53,95.06L245.08,94.95"/><path d="M247.44,113.41L247.50,113.45L247.26,113.29L246.82,112.73L246.60,112.05L246.61,111.33L246.86,110.64L247.32,110.07L247.93,109.68L248.64,109.50L249.36,109.56L250.02,109.84"/><path d="M247.86,113.69L247.50,113.45L247.94,113.54L248.65,113.48L249.32,113.19L249.87,112.70L250.22,112.07L250.35,111.37L250.25,110.66L249.92,110.03L249.45,109.60"/><path d="M258.97,77.15L259.95,76.19L260.07,76.12L262.29,76.43L281.43,95.99L281.35,96.41L281.03,97.01L280.48,97.73L279.75,98.49L280.73,99.88L281.22,101.54L281.17,103.24L280.60,104.87L279.55,106.26L259.66,125.63L258.25,126.63L256.61,127.16L254.89,127.17L253.26,126.64L252.64,126.25L251.27,125.26L250.83,124.81"/><path d="M258.50,98.75L256.92,98.63L255.37,99.02L254.03,99.89L253.02,101.14L252.48,102.64L252.45,104.22L252.93,105.72L253.88,106.96L255.19,107.82"/><path d="M257.38,118.86L256.85,118.63L257.14,118.90L257.41,119.41L257.49,120.00L257.39,120.55L257.10,121.06L256.66,121.46L256.12,121.69L255.54,121.74L255.13,121.64L255.63,121.97"/><path d="M255.13,121.64L254.79,121.19L254.61,120.64L254.62,120.06L254.83,119.51L255.19,119.05L255.69,118.73L256.27,118.58L256.85,118.63"/><path d="M254.89,107.62L256.06,107.92L257.63,107.78L259.09,107.15L260.27,106.08L261.05,104.70L261.35,103.15L261.12,101.59L260.40,100.21L259.26,99.15L258.32,98.74"/><path d="M260.67,79.01L259.38,77.70L258.53,76.55L258.00,75.21L257.84,73.77L258.24,54.86L258.22,53.78L258.12,52.81L257.95,52.05L257.72,51.57L257.47,51.42"/><path d="M258.22,55.68L260.27,55.64L260.30,54.26"/><path d="M260.31,78.38L260.31,78.49L260.25,78.59"/><path d="M264.76,97.15L264.16,96.75L263.73,96.18L263.50,95.50L263.52,94.77L263.77,94.09L264.23,93.51L264.85,93.11L265.56,92.93L265.92,92.96L266.21,93.08L266.74,93.57L267.07,94.20L267.17,94.91L267.03,95.62L266.67,96.26L266.13,96.75L265.46,97.04L264.65,97.08"/><path d="M265.92,92.96L266.28,92.99"/><path d="M273.52,104.52L273.04,104.20L272.68,103.74L272.51,103.18L272.52,102.59L272.73,102.04L273.10,101.57L273.60,101.25L274.18,101.10L274.76,101.15"/><path d="M273.33,104.39L273.91,104.35L274.45,104.11L274.89,103.71L275.18,103.20L275.29,102.62L275.21,102.05L274.95,101.54L274.51,101.13"/></g></g><g><g/></g><g/><g id="paperID" visibility="hidden" opacity="0.00" transform="scale(0.000100)"><path style="stroke:#000000;stroke-width:0.500;fill:#e6e6e6;fill-rule:evenodd" d="M-2000.00,-2000.00L2297.00,-2000.00L2297.00,2210.00L-2000.00,2210.00zM0.00,0.00L297.00,0.00L297.00,210.00L0.00,210.00z"/><path style="fill:#000000;fill-opacity:0.118" d="M3.00,210.00L297.00,210.00L297.00,3.00L300.00,3.00L300.00,213.00L3.00,213.00z"/></g><g id="ToolTip" visibility="hidden" opacity="0" transform="translate(0,0)"><rect id="ToolTipShadow" opacity="0.20" fill="black" stroke="none" x="0" y="0" width="30" height="8"/><rect id="ToolTipBG" fill="#ffffe1" stroke="black" x="0" y="0" width="30" height="8"/><text xml:space="preserve" id="ToolTipText" fill="black" x="0" y="0" width="30" height="8">tooltip</text></g></g></svg>
