<?xml version="1.0" encoding="UTF-8" standalone="no"?>
<svg xmlns="http://www.w3.org/2000/svg" xmlns:xlink="http://www.w3.org/1999/xlink" width="297.000mm" height="210.000mm" viewBox="0.000000 0.000000 297.000000 210.000000" stroke-linejoin="round" stroke-linecap="round" fill="none" fill-rule="evenodd"><desc>3DVIA Composer Export</desc><script type="text/ecmascript"><![CDATA[
if(typeof(top) != "undefined")
{
	top.ShowPaper = ShowPaper;
}
function ShowHotSpot(evt,hotspotid)
{
	var svgDocument = evt.target.ownerDocument;
	var strId = "hotspot."+hotspotid;
	var hotspot = svgDocument.getElementById(strId);
	if(hotspot)
		hotspot.setAttribute("opacity",".5");
}
function HideHotSpot(evt,hotspotid)
{
	var svgDocument = evt.target.ownerDocument;
	var strId = "hotspot."+hotspotid;
	var hotspot = svgDocument.getElementById(strId);
	if(hotspot)
		hotspot.setAttribute("opacity","0");

	var toolTip = svgDocument.getElementById('ToolTip');
	if(toolTip)
		toolTip.setAttribute("visibility","hidden");
}
function ShowToolTip(evt,hotspotid,strTooltip)
{
	if(strTooltip=="")
	return;

	// change text
	var svgDocument = evt.target.ownerDocument;
	var tiptext = svgDocument.getElementById('ToolTipText');
	if( !tiptext )
	return;
	tiptext.firstChild.nodeValue = " " + strTooltip + "  " ;

	// show tooltip before, else some refresh issue

	var toolTip = svgDocument.getElementById('ToolTip');
	if(!toolTip)
	return;

	toolTip.setAttribute("visibility","visible");
	toolTip.setAttribute("opacity",".95");

	// move tooltip
	// get viewbox

	var root = svgDocument.documentElement;
	var vbox = (root.getAttribute("viewBox")).split(' ');
	var x0 = parseFloat(vbox[0]);
	var y0 = parseFloat(vbox[1]);
	var vboxW = parseFloat(vbox[2]);
	var vboxH = parseFloat(vbox[3]);

	// get default width of svg

	var strW = root.getAttribute("width");
	var svgW = parseFloat(strW);
	if(strW.indexOf('mm') != -1)
	svgW *= 3.779;

	var strH = root.getAttribute("height");
	var svgH = parseFloat(strH);
	if(strH.indexOf('mm') != -1)
	svgH *= 3.779;  	// 96 dpi  -> 96/25.4 = 3.779

	// update the viewbox / width / height if svg is embedded in html with zoom fit all
	var realx0 = x0;
	var realy0 = y0;
	var realvboxW = vboxW;
	var realvboxH = vboxH;
	var realsvgW = svgW;
	var realsvgH = svgH;

	if ((typeof(top) == "undefined") || (typeof(top.svgctl1) != "undefined")) // embedded in html
	{
		// get window size in pxl

		svgW = window.innerWidth;
		svgH = window.innerHeight;

		// calculate real viewbox

		realsvgW = svgW;
		realsvgH = svgH;
		if((svgW / svgH) > (vboxW / vboxH))
		{
			realvboxW = (vboxH * svgW) / svgH;
			realvboxH = vboxH;
			realx0 = x0 - (realvboxW - vboxW)/2 ;
		}
		else
		{
			realvboxH = (vboxW * svgH) / svgW;
			realvboxW = vboxW;
			realy0 = y0 - (realvboxH - vboxH)/2 ;
		}
	}

	// get user zoom/pan

	var newScale = root.currentScale;
	var translation = root.currentTranslate;

	// transform pxl to user unit

	var xPos = (((evt.clientX+10- translation.x)/newScale) * realvboxW)/realsvgW  + realx0 ;
	var yPos = (((evt.clientY+5- translation.y)/newScale) * realvboxH)/ realsvgH  + realy0 ;
	var scaleForWidth = ( (1 / newScale) * realvboxH) / realsvgH;

	// move tooltip

	toolTip.setAttribute("transform", "translate(" + xPos + "," + yPos + ")" );

	// resize tooltip

	var fontsize = 12;
	tiptext.setAttribute("font-size",fontsize*scaleForWidth);
	tiptext.setAttribute("y", fontsize*scaleForWidth);
	var tipBG = svgDocument.getElementById('ToolTipBG');
	var outline = tiptext.getBBox();
	if(tipBG)
	{
		tipBG.setAttribute("stroke-width", 1*scaleForWidth);
		tipBG.setAttribute("width", Number(outline.width) );
		tipBG.setAttribute("height", Number(outline.height) + fontsize*.5*scaleForWidth );
	}
	var ToolTipShadow = svgDocument.getElementById('ToolTipShadow');
	if(ToolTipShadow)
	{
		ToolTipShadow.setAttribute("width", Number(outline.width) );
		ToolTipShadow.setAttribute("height", Number(outline.height) + fontsize*.5*scaleForWidth );
		ToolTipShadow.setAttribute("x", 3*scaleForWidth);
		ToolTipShadow.setAttribute("y", 3*scaleForWidth);
	}
}
function ShowPaper()
{
  var svgDocument = getDocument();
  var paper = svgDocument.getElementById("paperID");
  if(paper)
  {
    paper.setAttribute("transform","scale(1)");
    paper.setAttribute("opacity","1");
    paper.setAttribute("visibility","visible");
  }
  var svg = svgDocument.getRootElement();
  if(svg)
  {
    svg.setAttribute("width","307.000mm");
    svg.setAttribute("height","220.000mm");
    svg.setAttribute("viewBox","-5.000000 -5.000000 307.000000 220.000000");
  }
}
]]></script><defs/><g><path style="stroke:#ff0000;stroke-width:1.000;stroke-opacity:0.00" d="M127.00,21.37L183.42,21.37L183.42,180.43L127.00,180.43L127.00,21.37"/><path style="fill:#ffffff" d="M183.33,180.10L127.07,180.10L127.07,21.20L183.33,21.20z"/><path style="fill:#dcdcdc" d="M155.93,25.94L154.65,25.94L156.49,25.67z"/><path style="fill:#dcdcdc" d="M168.42,27.44L167.41,27.43L166.57,27.17L167.67,27.17z"/><path style="fill:#dcdcdc" d="M175.13,28.16L176.89,29.88L178.61,31.88L177.87,108.29L177.09,109.24L174.13,111.50L171.82,112.18L164.34,113.15L164.44,115.14L166.44,116.68L166.44,116.97L165.95,116.90L164.68,115.87L161.70,115.90L159.68,115.68L159.39,115.48L159.38,113.41L165.60,112.17L167.35,111.93L169.84,111.18L170.15,105.78L170.57,28.17L171.05,27.90L174.16,27.68z"/><path style="fill:#dcdcdc" d="M148.28,112.17L155.02,113.16L148.53,113.16L142.32,112.66L140.95,112.48L140.95,112.19L144.24,111.93L144.96,111.67L146.30,111.67z"/><path style="fill:#dcdcdc" d="M153.25,119.62L156.16,119.62L162.87,118.88L165.16,118.34L165.18,118.44L164.70,119.47L162.87,120.13L161.71,120.13L161.37,120.33L156.89,120.88L148.28,120.62L146.77,120.38L144.97,119.35L150.02,119.37z"/><path style="fill:#dcdcdc" d="M164.97,122.33L164.93,123.17L164.63,123.37L162.88,124.11L161.71,124.10L161.37,124.31L158.89,124.59L148.53,124.59L147.02,124.36L145.22,123.33L153.75,123.35L156.89,123.62L160.96,123.18L163.42,122.67L164.42,122.33L164.40,122.08L164.66,122.06z"/><path style="fill:#dcdcdc" d="M156.48,127.33L159.88,127.33L164.95,126.33L164.97,126.91L164.11,127.58L162.62,128.08L158.64,128.57L149.03,128.57L147.27,128.34L145.76,127.58L145.46,127.31L148.04,127.08z"/><path style="fill:#dcdcdc" d="M148.31,131.30L159.88,131.30L162.88,130.82L164.95,130.30L164.98,130.89L163.86,131.55L162.38,132.06L158.64,132.55L149.53,132.55L146.78,132.06L145.77,131.52L145.72,131.31L146.46,131.05L148.05,131.05z"/><path style="fill:#dcdcdc" d="M144.83,134.52L144.29,134.52L144.23,134.25L144.56,134.25z"/><path style="fill:#dcdcdc" d="M148.28,135.03L152.28,135.28L149.92,135.53L152.02,135.78L156.26,135.61L153.15,135.28L161.37,135.03L164.37,134.26L164.95,134.28L164.98,134.60L164.33,135.26L162.13,136.03L158.14,136.52L149.77,136.52L147.02,136.05L145.95,135.26L146.55,134.79z"/><path style="fill:#dcdcdc" d="M145.32,138.50L145.63,138.93L144.53,138.47L144.48,138.24z"/><path style="fill:#dcdcdc" d="M148.56,138.99L148.99,139.26L148.96,139.49L153.01,139.76L157.95,139.52L157.66,139.25L158.12,138.99L161.63,139.01L164.97,138.03L164.97,138.32L164.37,139.02L162.70,139.84L157.90,140.50L150.52,140.50L147.52,140.02L146.03,139.27L145.63,138.93L146.78,138.74z"/><path style="fill:#dcdcdc" d="M145.55,142.51L146.31,142.51L148.30,142.99L147.44,143.24L149.03,143.48L157.90,143.48L159.74,143.23L158.62,142.99L160.44,142.72L162.63,142.75L164.98,142.02L164.97,142.29L164.33,142.96L161.38,143.99L157.15,144.48L151.51,144.48L148.03,143.99L147.02,143.75L144.28,142.20L144.23,141.97z"/><path style="fill:#dcdcdc" d="M145.54,146.22L147.56,146.71L146.96,146.98L149.53,147.46L157.65,147.46L160.74,146.96L159.61,146.71L162.11,146.73L164.45,146.02L164.95,146.04L163.62,147.22L160.88,147.95L155.66,148.45L153.00,148.45L149.77,148.20L147.52,147.72L144.28,145.93L144.23,145.69z"/><path style="fill:#dcdcdc" d="M145.32,149.92L147.05,150.44L146.38,150.85L144.83,150.17L144.23,149.42L144.52,149.41z"/><path style="fill:#dcdcdc" d="M164.71,149.91L164.62,150.43L162.63,151.44L158.39,152.18L150.77,152.18L148.02,151.70L146.77,151.20L146.38,150.85L150.02,151.43L157.40,151.43L160.90,150.93L160.91,150.41L162.88,150.45L164.16,149.97L164.48,149.68z"/><path style="fill:#dcdcdc" d="M146.54,154.17L146.49,154.41L145.80,154.44L144.53,153.69L144.17,153.20z"/><path style="fill:#dcdcdc" d="M164.72,153.71L164.49,154.29L161.95,155.49L155.89,156.41L152.01,156.16L149.77,155.91L148.53,155.62L147.00,155.13L146.96,154.89L150.77,155.41L156.40,155.41L160.21,154.99L161.64,154.66L161.66,154.14L162.45,154.44L163.18,154.25L164.21,153.69z"/><path style="fill:#dcdcdc" d="M145.08,157.36L146.29,157.91L146.56,158.40L146.06,158.42L144.46,157.43L144.46,157.15L144.78,157.11z"/><path style="fill:#dcdcdc" d="M163.12,158.17L164.68,157.62L164.09,158.37L161.64,159.40L158.64,159.88L150.77,159.88L148.28,159.37L148.13,159.07L152.01,159.39L155.66,159.39L160.14,158.90L161.92,158.44L162.16,158.15z"/><path style="fill:#dcdcdc" d="M147.21,158.87L148.01,158.89L148.13,159.07L147.49,159.16z"/><path style="fill:#dcdcdc" d="M145.31,161.36L146.57,161.91L146.57,162.20L146.05,162.15L145.04,161.64L144.50,161.11L144.50,160.83L144.78,160.84z"/><path style="fill:#dcdcdc" d="M164.43,161.60L164.38,161.83L162.62,162.89L161.95,162.89L161.79,162.78L161.89,162.39L162.93,161.86z"/><path style="fill:#dcdcdc" d="M161.79,162.78L161.71,163.20L157.40,163.86L152.01,163.86L150.00,163.61L147.99,163.09L147.95,162.85L150.52,163.11L157.89,163.11L161.45,162.59z"/><path style="fill:#dcdcdc" d="M146.57,165.63L146.57,165.92L145.78,165.87L144.78,165.06L144.74,164.82z"/><path style="fill:#dcdcdc" d="M164.19,165.57L163.85,166.08L161.37,167.12L160.74,167.13L158.64,167.59L151.02,167.59L148.52,167.10L147.45,166.58L152.01,167.09L156.40,167.09L160.38,166.59L162.39,166.12L162.96,165.62z"/><path style="fill:#dcdcdc" d="M146.06,169.31L147.79,169.82L148.75,170.60L150.27,170.82L157.65,170.82L160.71,170.61L160.89,170.37L163.36,169.57L164.18,169.30L164.13,169.54L162.37,170.57L159.14,171.32L156.65,171.56L152.51,171.56L150.51,171.32L147.78,170.57L145.03,169.04L144.98,168.80L145.27,168.80z"/><path style="fill:#dcdcdc" d="M152.26,172.56L157.89,172.56L160.89,172.08L163.44,171.29L162.60,172.29L160.64,173.32L157.89,173.80L153.50,173.80L150.76,173.32L149.05,172.54L148.46,171.79z"/><g id="Actor_.0"><g style="stroke:#000000;stroke-width:0.705"><path d="M175.89,110.22L175.25,110.87L174.84,111.25L174.17,111.57L175.18,110.91"/><path d="M174.84,111.25L177.95,108.17"/><path d="M175.20,110.76L175.24,110.85"/></g></g><g id="Actor_.1"><g style="stroke:#000000;stroke-width:0.705"><path d="M148.65,171.75L147.65,171.26L146.62,170.33L146.46,169.93"/><path d="M146.29,166.03L146.39,166.69L146.66,166.90"/><path d="M147.01,166.45L146.68,166.21"/><path d="M147.25,167.37L146.68,166.92"/><path d="M146.60,165.88L146.56,165.65"/><path d="M146.38,165.64L146.35,165.68"/><path d="M147.00,163.49L146.82,163.42L146.57,163.08"/><path d="M146.52,163.02L146.22,162.63"/><path d="M146.29,162.25L146.19,162.58L146.22,162.62"/><path d="M146.56,162.14L146.55,162.13"/><path d="M146.30,158.49L146.24,158.61L146.26,159.14L146.66,159.43"/><path d="M147.13,159.78L146.69,159.45"/><path d="M146.57,158.05L146.56,158.07L146.52,158.38"/><path d="M146.56,158.07L146.56,158.05"/><path d="M146.43,158.17L146.46,158.13"/><path d="M146.42,158.23L146.51,158.02"/><path d="M146.24,158.61L146.24,158.46"/><path d="M146.61,158.07L146.55,158.12"/><path d="M146.50,158.58L146.68,158.73"/><path d="M147.13,155.97L146.68,155.78L146.64,155.72"/><path d="M146.26,154.68L146.11,154.98L146.35,155.32"/><path d="M146.63,155.71L146.37,155.34"/><path d="M146.79,155.13L146.72,155.09L146.62,154.85"/><path d="M146.51,154.33L146.45,154.42L146.46,154.45L146.66,154.22"/><path d="M146.46,154.45L146.52,154.61"/><path d="M146.45,154.42L146.44,154.41L146.59,154.20"/><path d="M146.36,154.52L146.37,154.50"/><path d="M146.37,154.53L146.38,154.52"/><path d="M146.39,154.54L146.39,154.54"/><path d="M146.44,154.41L146.43,154.38"/><path d="M146.70,154.23L146.62,154.27"/><path d="M146.79,152.01L146.34,151.65"/><path d="M146.33,150.91L146.22,151.15L146.19,151.54L146.33,151.65"/><path d="M146.22,151.15L146.29,150.89"/><path d="M146.45,150.65L146.62,150.43"/><path d="M146.63,150.40L146.59,150.51L146.64,150.40"/><path d="M146.90,150.43L146.53,150.65L146.59,150.51"/><path d="M146.53,150.65L146.47,150.78"/><path d="M146.47,148.06L146.35,148.00L146.22,147.67"/><path d="M146.89,148.25L146.48,148.06"/><path d="M146.21,147.64L146.10,147.35L146.34,147.08"/><path d="M146.52,146.98L146.86,146.67L147.05,146.61"/><path d="M146.96,147.66L146.53,147.41L146.52,147.33"/><path d="M146.74,146.56L146.55,146.69"/><path d="M146.31,143.31L146.16,143.54L146.08,143.86L146.63,144.30"/><path d="M146.16,143.54L146.23,143.34L146.32,143.27"/><path d="M146.25,143.44L146.32,143.30L146.32,143.26"/><path d="M147.08,144.56L146.89,144.51L146.66,144.32"/><path d="M146.57,143.55L146.67,143.72L147.01,143.87"/><path d="M146.69,143.09L147.26,142.79L147.39,142.76"/><path d="M146.55,142.93L146.73,142.74"/><path d="M146.13,139.97L146.32,140.37L146.42,140.41"/><path d="M147.03,140.68L146.43,140.42"/><path d="M146.75,139.26L147.40,138.98"/><path d="M146.17,139.77L146.32,139.54"/><path d="M146.11,139.94L146.06,139.84L146.26,139.63"/><path d="M146.35,139.47L146.25,139.67"/><path d="M146.39,139.56L146.36,139.58"/><path d="M146.53,139.18L146.52,139.19"/><path d="M146.44,139.64L146.36,139.58L146.38,139.53"/><path d="M146.32,135.68L146.25,135.83L146.16,135.93L146.04,136.29L146.61,136.72L146.82,136.78"/><path d="M146.16,135.93L146.28,135.77"/><path d="M146.50,135.98L146.51,136.01L147.60,136.46L147.66,136.47"/><path d="M146.66,135.30L147.15,135.01"/><path d="M146.21,132.02L146.01,132.21L146.18,132.51"/><path d="M146.26,131.92L146.09,132.28"/><path d="M147.06,132.97L146.29,132.70L146.19,132.52"/><path d="M146.65,132.20L146.78,132.31L147.02,132.38"/><path d="M146.32,131.89L146.32,131.90L146.29,131.87L146.32,131.83"/><path d="M146.32,131.90L146.36,131.94"/><path d="M146.56,131.83L146.55,131.84"/><path d="M146.29,131.87L146.26,131.85L146.24,132.03"/><path d="M146.59,131.84L146.58,131.85"/><path d="M146.26,131.85L146.31,131.80"/><path d="M146.60,128.99L146.63,129.01L147.51,129.22"/><path d="M146.60,128.99L146.31,128.79"/><path d="M146.30,128.78L146.01,128.58L146.18,128.30"/><path d="M146.27,128.07L146.20,128.23L146.11,128.50"/><path d="M146.42,127.89L146.41,127.92L146.41,127.90"/><path d="M146.36,128.14L146.35,128.20L146.61,128.31"/><path d="M146.08,124.48L146.16,124.44L146.07,124.54L146.08,124.48"/><path d="M146.68,125.12L146.07,124.87L146.07,124.54L146.16,124.44L146.23,124.30L146.24,124.24"/><path d="M148.38,125.43L146.84,125.19L146.68,125.12"/><path d="M146.31,124.19L146.31,124.19"/><path d="M146.90,124.59L146.59,124.51L146.46,124.36"/><path d="M146.25,120.30L146.20,120.35L146.19,120.43L146.12,120.57L146.04,120.68L145.93,120.77L146.17,121.06L147.01,121.27"/><path d="M146.20,120.35L146.29,120.40"/><path d="M146.97,120.71L146.73,120.66L146.57,120.57"/><path d="M146.16,116.67L145.92,116.96L146.53,117.28L148.04,117.52L150.46,117.65L153.62,117.64L156.81,117.45L156.88,117.43L156.92,117.40L156.91,117.38L156.88,117.36L156.79,117.36"/><path d="M146.11,116.77L146.24,116.50"/><path d="M146.47,116.64L146.49,116.63"/><path d="M146.52,116.65L146.29,116.58L146.30,116.53"/><path d="M147.08,170.26L147.21,170.43L147.76,170.68"/><path d="M147.97,167.70L147.45,167.52L147.29,167.39"/><path d="M148.50,167.26L147.79,167.03L147.69,166.96"/><path d="M148.74,164.18L148.42,164.12L147.49,163.71"/><path d="M147.23,162.95L146.98,162.83L146.82,162.57"/><path d="M147.39,163.66L147.02,163.50"/><path d="M147.98,160.12L147.32,159.92L147.15,159.79"/><path d="M147.90,159.47L147.38,159.30L147.14,159.10"/><path d="M148.02,156.37L147.19,156.00"/><path d="M147.39,152.33L147.05,152.22L146.81,152.03"/><path d="M148.13,152.55L147.42,152.33"/><path d="M147.43,151.72L147.13,151.62L146.96,151.45"/><path d="M146.93,148.28L147.67,148.63L147.87,148.67"/><path d="M147.89,148.67L149.30,148.97"/><path d="M147.31,147.86L147.46,147.95L148.14,148.12"/><path d="M147.09,144.57L148.11,144.87"/><path d="M148.43,144.37L148.03,144.29L147.77,144.19"/><path d="M147.68,140.93L147.50,140.89L147.10,140.71"/><path d="M147.70,140.93L148.56,141.09"/><path d="M146.90,140.00L147.09,140.15L147.43,140.24"/><path d="M147.83,138.94L146.86,139.21"/><path d="M147.05,138.83L147.04,138.83"/><path d="M148.60,137.22L148.29,137.19L147.65,137.01"/><path d="M146.82,136.78L147.57,136.99"/><path d="M147.19,135.39L147.49,135.26L148.44,135.10"/><path d="M147.42,134.94L147.21,134.99"/><path d="M147.10,132.99L147.57,133.15L147.79,133.18"/><path d="M147.80,133.19L148.64,133.32"/><path d="M147.63,131.54L148.46,131.34L149.05,131.28"/><path d="M147.04,131.32L147.94,131.07"/><path d="M148.55,129.39L147.88,129.32L147.54,129.23"/><path d="M147.99,128.74L147.28,128.62L147.13,128.55"/><path d="M148.83,127.18L147.64,127.36"/><path d="M147.12,127.51L147.41,127.40"/><path d="M148.18,124.85L147.65,124.79L147.29,124.70"/><path d="M148.92,121.54L147.48,121.39L147.03,121.28"/><path d="M147.50,116.89L147.25,116.87L147.11,116.83"/><path d="M149.67,171.99L148.68,171.75"/><path d="M149.57,171.35L148.93,171.22L148.61,171.08"/><path d="M150.07,168.27L149.17,168.13L148.75,167.98"/><path d="M148.67,167.95L148.07,167.74"/><path d="M148.98,164.23L148.93,164.25"/><path d="M148.77,164.19L150.20,164.48"/><path d="M149.01,164.24L148.94,164.25"/><path d="M148.43,163.51L148.37,163.49L148.21,163.41"/><path d="M148.71,160.40L148.80,160.37"/><path d="M149.10,160.47L148.04,160.14"/><path d="M150.00,160.04L149.30,159.94L148.98,159.83"/><path d="M149.26,156.66L148.23,156.46L148.07,156.39"/><path d="M148.21,152.58L148.87,152.78L149.32,152.84"/><path d="M149.20,152.22L148.47,152.10L147.94,151.90"/><path d="M148.20,144.89L148.65,145.03L148.84,145.05"/><path d="M149.74,145.16L148.87,145.05"/><path d="M148.72,141.12L149.65,141.29L149.83,141.30"/><path d="M149.30,140.64L148.66,140.57L148.07,140.41"/><path d="M148.61,137.23L150.04,137.39"/><path d="M149.79,133.47L149.47,133.45L148.74,133.33"/><path d="M148.66,132.77L148.34,132.73L147.99,132.64"/><path d="M149.64,129.50L148.57,129.39"/><path d="M148.47,128.83L148.78,128.88L149.79,128.96"/><path d="M148.42,127.65L149.76,127.48L152.52,127.37"/><path d="M148.41,125.44L148.76,125.50L151.21,125.64"/><path d="M149.91,123.34L148.66,123.44"/><path d="M152.22,121.67L149.63,121.61L148.94,121.54"/><path d="M148.51,120.96L148.31,120.95L148.01,120.90"/><path d="M148.67,119.69L149.14,119.65"/><path d="M149.53,117.07L149.02,117.05L148.17,116.96"/><path d="M151.06,172.27L150.79,172.25L149.70,171.99"/><path d="M150.17,168.29L151.22,168.45"/><path d="M151.02,167.82L149.68,167.64L149.48,167.58"/><path d="M150.78,164.02L150.74,164.01L149.49,163.74"/><path d="M149.16,160.48L149.39,160.56L150.19,160.66"/><path d="M151.69,156.98L150.46,156.90L150.16,156.84"/><path d="M150.10,156.83L149.45,156.70"/><path d="M150.03,156.82L150.05,156.82"/><path d="M150.92,156.33L149.77,156.21L149.31,156.10"/><path d="M150.60,153.01L149.35,152.84"/><path d="M149.59,149.03L149.94,149.10L150.01,149.11"/><path d="M150.05,149.11L151.53,149.23"/><path d="M150.03,148.50L149.32,148.43L149.12,148.37"/><path d="M151.36,145.34L151.07,145.33L149.95,145.19"/><path d="M150.92,144.72L150.13,144.68L149.46,144.55"/><path d="M151.19,141.39L149.84,141.30"/><path d="M151.04,137.49L150.83,137.49L150.18,137.41"/><path d="M151.06,133.54L149.81,133.47"/><path d="M151.05,132.98L150.18,132.95L149.33,132.85"/><path d="M149.73,131.22L149.06,131.28"/><path d="M151.15,129.59L150.24,129.57L149.69,129.51"/><path d="M150.14,125.04L149.66,125.02L149.29,124.98"/><path d="M151.83,123.68L151.34,123.68L150.09,123.75"/><path d="M151.12,121.11L150.63,121.11L149.46,121.03"/><path d="M151.99,171.76L151.33,171.72L150.84,171.62"/><path d="M151.31,168.47L151.86,168.56L152.80,168.58"/><path d="M151.14,164.65L151.00,164.64L150.47,164.53"/><path d="M153.07,164.77L151.18,164.65"/><path d="M150.51,163.96L150.52,163.96"/><path d="M151.30,160.82L150.26,160.67"/><path d="M152.11,153.15L151.62,153.14L150.74,153.03"/><path d="M150.19,152.39L150.70,152.48L151.35,152.52"/><path d="M151.88,140.87L151.17,140.86L150.74,140.81"/><path d="M151.08,137.49L153.16,137.54"/><path d="M151.20,133.54L152.18,133.60L152.50,133.59"/><path d="M151.18,129.59L152.70,129.62"/><path d="M151.94,129.06L151.15,129.06L150.90,129.04"/><path d="M153.07,125.64L151.47,125.66L151.24,125.64"/><path d="M150.87,123.28L150.82,123.28"/><path d="M151.66,119.54L150.50,119.57"/><path d="M150.71,117.10L151.64,117.12L152.33,117.12"/><path d="M153.89,172.47L153.68,172.48L151.32,172.29"/><path d="M153.63,168.01L152.35,168.00L152.15,167.98"/><path d="M152.32,163.76L151.98,163.78"/><path d="M153.13,160.91L151.92,160.90L151.40,160.83"/><path d="M152.70,160.33L151.83,160.31L151.32,160.23"/><path d="M151.59,159.89L151.56,159.89"/><path d="M151.46,160.25L151.51,160.25"/><path d="M151.76,156.98L153.33,157.08"/><path d="M153.29,156.48L152.35,156.48L151.96,156.44"/><path d="M154.08,153.20L152.17,153.16"/><path d="M152.17,149.28L152.60,149.31L155.75,149.24"/><path d="M153.47,148.72L151.95,148.71L151.51,148.67"/><path d="M151.39,145.34L152.91,145.37"/><path d="M152.29,145.36L152.19,145.36"/><path d="M153.58,144.82L152.90,144.84L152.14,144.79"/><path d="M152.74,141.48L152.63,141.49L151.32,141.40"/><path d="M153.39,136.97L152.46,136.99L151.53,136.94"/><path d="M153.58,133.02L152.92,133.04L152.19,133.02"/><path d="M153.43,125.08L152.46,125.12L151.64,125.09"/><path d="M151.85,123.68L154.38,123.70L154.80,123.73"/><path d="M152.24,121.67L152.38,121.67L155.46,121.56"/><path d="M154.71,171.85L154.14,171.89L153.52,171.85"/><path d="M152.89,168.58L155.08,168.64"/><path d="M153.22,163.35L153.25,163.35"/><path d="M153.27,160.91L154.55,160.93"/><path d="M153.74,157.09L153.55,157.09L153.40,157.08"/><path d="M154.32,152.62L153.70,152.64L153.08,152.61"/><path d="M153.23,145.38L154.28,145.40L154.42,145.39"/><path d="M154.38,141.45L152.78,141.48"/><path d="M153.23,137.54L153.66,137.55L154.71,137.49"/><path d="M154.15,133.55L152.50,133.59"/><path d="M154.11,129.60L153.35,129.64L152.78,129.62"/><path d="M152.69,127.37L155.04,127.44"/><path d="M156.37,125.48L154.40,125.63L153.16,125.64"/><path d="M154.20,121.06L153.47,121.10L152.87,121.10"/><path d="M154.97,119.62L152.80,119.54"/><path d="M156.51,172.34L153.92,172.46"/><path d="M153.65,164.23L156.27,164.14L156.41,164.12"/><path d="M153.58,164.81L153.85,164.82L156.48,164.71L156.75,164.67"/><path d="M154.63,160.93L155.21,160.93L156.48,160.81"/><path d="M155.65,160.29L154.44,160.38L153.79,160.36"/><path d="M155.46,157.02L153.83,157.08"/><path d="M156.10,153.10L154.57,153.21L154.17,153.20"/><path d="M156.08,148.61L154.82,148.72L154.44,148.72"/><path d="M154.44,145.39L156.07,145.29"/><path d="M155.11,140.86L154.25,140.91L153.66,140.90"/><path d="M155.96,136.86L155.02,136.94L154.23,136.96"/><path d="M154.27,133.55L155.54,133.52L155.78,133.50"/><path d="M155.73,129.53L154.16,129.60"/><path d="M155.84,128.95L154.28,129.06L153.80,129.06"/><path d="M156.14,124.95L155.38,125.02L154.53,125.05"/><path d="M154.43,123.31L153.63,123.27"/><path d="M153.58,117.17L155.71,117.26L156.72,117.35"/><path d="M155.31,168.03L155.54,168.03L158.10,167.76"/><path d="M155.51,163.78L155.52,163.78"/><path d="M157.29,156.88L156.62,156.97L155.63,157.01"/><path d="M156.17,156.40L155.57,156.47L155.15,156.47"/><path d="M157.22,152.42L156.64,152.50L155.77,152.55"/><path d="M155.80,149.24L155.95,149.24L158.85,148.90"/><path d="M154.71,141.44L155.69,141.42L155.79,141.41"/><path d="M154.77,137.49L156.33,137.40"/><path d="M155.78,133.50L157.34,133.35"/><path d="M156.65,132.86L156.20,132.91L155.53,132.94"/><path d="M158.62,129.23L156.44,129.49L155.80,129.52"/><path d="M156.26,127.54L155.06,127.44"/><path d="M155.05,123.75L154.83,123.73"/><path d="M164.98,118.52L165.19,118.82L164.89,119.51L163.52,120.23L161.19,120.87L158.82,121.26L155.76,121.55L155.47,121.56"/><path d="M155.59,119.65L155.84,119.67"/><path d="M157.89,171.58L157.40,171.68L156.55,171.73"/><path d="M156.62,172.34L157.05,172.32L158.10,172.13"/><path d="M157.93,164.48L156.80,164.66"/><path d="M157.75,160.69L156.60,160.80"/><path d="M158.22,152.85L157.21,153.03L156.86,153.05"/><path d="M156.31,153.09L156.78,153.06"/><path d="M156.55,145.25L157.35,145.20L157.44,145.19"/><path d="M156.22,144.73L156.01,144.74"/><path d="M155.84,141.40L158.72,141.09"/><path d="M158.13,140.57L156.87,140.75L156.08,140.80"/><path d="M159.55,137.01L157.00,137.36L156.40,137.40"/><path d="M156.37,131.22L157.21,131.32"/><path d="M158.68,128.65L157.30,128.85L156.81,128.88"/><path d="M157.34,127.63L156.33,127.55"/><path d="M156.77,127.17L157.04,127.19"/><path d="M159.39,125.14L157.76,125.37L156.45,125.47"/><path d="M157.64,123.56L156.53,123.44"/><path d="M157.42,120.84L156.80,120.91L156.19,120.95"/><path d="M159.23,168.10L158.14,168.35L156.97,168.46"/><path d="M157.17,164.01L159.14,163.73L159.35,163.67"/><path d="M158.82,160.51L158.08,160.66L157.83,160.69"/><path d="M157.77,160.08L157.84,160.09"/><path d="M158.24,160.01L157.49,160.15L157.07,160.18"/><path d="M157.39,156.87L158.14,156.76"/><path d="M157.72,156.84L157.66,156.83"/><path d="M159.24,155.98L158.59,156.13L157.87,156.21"/><path d="M159.11,148.23L158.07,148.44L157.79,148.46"/><path d="M157.49,145.18L158.00,145.10"/><path d="M157.95,144.52L159.14,144.37L161.53,143.81L161.71,143.73"/><path d="M158.72,136.55L158.04,136.67L157.49,136.72"/><path d="M157.95,135.06L159.43,135.31"/><path d="M158.91,133.18L158.72,133.21L157.51,133.33"/><path d="M158.73,131.50L157.26,131.32"/><path d="M157.37,127.23L158.96,127.45"/><path d="M159.40,171.90L158.19,172.11"/><path d="M158.56,163.81L158.50,163.80"/><path d="M159.83,164.17L159.69,164.21L158.10,164.46"/><path d="M160.42,160.17L159.01,160.47"/><path d="M160.05,156.39L159.17,156.62L158.26,156.75"/><path d="M158.31,152.84L159.96,152.55"/><path d="M160.05,151.94L159.68,152.04L158.77,152.18"/><path d="M158.88,148.89L160.80,148.47"/><path d="M160.12,144.75L159.87,144.82L158.10,145.09"/><path d="M160.73,140.67L158.87,141.07L158.74,141.08"/><path d="M160.50,139.21L159.41,138.95L159.12,138.91"/><path d="M160.07,132.95L158.94,133.17"/><path d="M159.69,132.46L159.26,132.56L158.29,132.67"/><path d="M159.93,131.33L158.94,131.14"/><path d="M160.09,129.00L159.59,129.11L158.70,129.22"/><path d="M158.15,120.31L158.21,120.32"/><path d="M160.67,120.37L159.80,120.55L158.78,120.67"/><path d="M159.50,171.88L160.04,171.79L161.16,171.39"/><path d="M160.70,170.95L160.29,171.10L159.37,171.28"/><path d="M160.81,167.73L159.50,168.03"/><path d="M159.86,164.16L161.80,163.56"/><path d="M159.35,160.41L159.32,160.40"/><path d="M160.24,159.63L160.43,159.59L160.55,159.55"/><path d="M161.25,156.07L160.11,156.37"/><path d="M160.98,152.29L160.37,152.48L160.02,152.54"/><path d="M160.15,144.74L161.26,144.44"/><path d="M160.03,142.75L160.45,142.82L160.87,142.96"/><path d="M160.36,140.17L159.72,140.34L159.32,140.40"/><path d="M160.83,136.74L159.99,136.95L159.61,137.00"/><path d="M159.82,135.37L159.45,135.31"/><path d="M159.69,134.97L160.68,135.20"/><path d="M165.00,130.87L164.91,131.13L163.72,131.93L161.47,132.69L160.26,132.92"/><path d="M160.11,129.00L161.31,128.74"/><path d="M160.02,128.45L160.25,128.42L160.90,128.25"/><path d="M159.44,125.13L160.66,124.95L161.15,124.84"/><path d="M160.37,123.99L160.32,123.98"/><path d="M159.84,120.54L159.74,120.52"/><path d="M162.01,171.09L161.32,171.33"/><path d="M161.53,166.82L160.75,167.14L160.40,167.22"/><path d="M160.86,167.72L161.04,167.67L161.61,167.43"/><path d="M162.16,162.80L161.86,162.95L161.08,163.18"/><path d="M161.78,159.73L160.93,160.07L160.49,160.16"/><path d="M162.84,158.65L162.62,158.80L161.43,159.24"/><path d="M162.49,155.62L161.94,155.88L161.27,156.06"/><path d="M161.80,155.26L161.25,155.50L160.47,155.68"/><path d="M161.06,152.26L162.40,151.83"/><path d="M162.11,150.68L161.23,150.40"/><path d="M162.04,148.10L161.55,148.30L160.88,148.45"/><path d="M164.03,146.46L162.80,147.22L160.93,147.87L160.62,147.93"/><path d="M161.67,146.84L160.71,146.60"/><path d="M161.38,146.43L161.65,146.51"/><path d="M162.62,144.04L162.51,144.09L161.44,144.39"/><path d="M160.89,142.96L161.13,143.04"/><path d="M161.16,142.68L161.81,142.91"/><path d="M161.64,140.48L160.76,140.67"/><path d="M161.03,138.96L160.54,138.83"/><path d="M161.91,136.48L160.89,136.73"/><path d="M161.61,135.95L160.97,136.15L160.38,136.26"/><path d="M162.03,131.91L161.79,132.01L160.75,132.23"/><path d="M163.96,127.92L162.25,128.54L161.38,128.72"/><path d="M161.99,124.64L161.16,124.83"/><path d="M163.33,123.62L163.23,123.68L161.45,124.21L161.27,124.24"/><path d="M161.49,170.65L162.35,170.32L162.79,170.03"/><path d="M163.16,170.46L162.48,170.92L162.07,171.07"/><path d="M163.13,166.77L161.73,167.37"/><path d="M161.88,163.54L162.34,163.40L162.87,163.09"/><path d="M162.54,161.74L163.00,162.00"/><path d="M162.48,161.77L162.87,161.93"/><path d="M162.74,159.35L161.87,159.69"/><path d="M162.73,158.27L162.23,157.99L162.12,157.95"/><path d="M162.52,155.60L163.58,155.09"/><path d="M162.51,154.50L161.68,154.17"/><path d="M162.86,154.38L162.16,154.06"/><path d="M163.44,151.34L162.86,151.69L162.45,151.82"/><path d="M162.51,151.18L162.30,151.29L161.59,151.49"/><path d="M162.23,150.39L162.54,150.49"/><path d="M162.93,147.74L162.07,148.09"/><path d="M162.23,147.08L162.24,147.08"/><path d="M161.67,140.47L163.59,139.77L163.63,139.74"/><path d="M161.56,139.47L161.60,139.48"/><path d="M162.39,139.64L162.26,139.68"/><path d="M163.86,135.70L162.30,136.38L161.94,136.47"/><path d="M163.49,135.22L163.05,135.49L162.46,135.68"/><path d="M162.43,132.36L162.44,132.36"/><path d="M161.49,132.05L161.54,132.06"/><path d="M163.05,127.65L162.77,127.78L162.58,127.83"/><path d="M163.97,123.93L162.70,124.47L162.03,124.63"/><path d="M161.81,124.69L161.79,124.68"/><path d="M162.52,119.93L162.03,120.09L161.49,120.21"/><path d="M163.70,169.42L163.53,169.54"/><path d="M164.07,169.85L163.19,170.44"/><path d="M162.74,166.30L163.06,166.16L163.49,165.80"/><path d="M163.17,166.75L163.37,166.66L163.98,166.14"/><path d="M163.36,165.89L163.37,165.90L163.36,165.89"/><path d="M162.81,165.52L162.97,165.59L163.18,165.75"/><path d="M163.07,165.43L163.09,165.43"/><path d="M162.72,165.54L163.14,165.77"/><path d="M163.61,162.67L164.07,162.40L164.38,161.98"/><path d="M162.93,163.06L163.57,162.69"/><path d="M163.30,162.16L163.33,162.18"/><path d="M163.24,161.93L162.98,161.73"/><path d="M163.44,162.07L163.48,162.10"/><path d="M163.80,161.83L163.65,162.01L163.07,162.31"/><path d="M163.28,162.18L163.30,162.19"/><path d="M163.67,158.80L163.19,159.17L162.79,159.33"/><path d="M163.71,158.77L164.67,158.02L164.68,158.00"/><path d="M162.77,157.99L163.09,158.18"/><path d="M163.71,158.06L164.16,157.76"/><path d="M163.03,154.73L163.02,154.73"/><path d="M164.24,154.62L163.98,154.89L163.62,155.07"/><path d="M162.96,154.76L163.43,154.56L163.66,154.35"/><path d="M163.50,151.30L164.13,150.92"/><path d="M163.69,151.21L163.67,151.20"/><path d="M163.12,150.85L163.13,150.86"/><path d="M162.84,150.67L162.85,150.68"/><path d="M164.04,150.24L163.79,150.52L163.07,150.89"/><path d="M163.95,147.19L163.65,147.44L162.99,147.71"/><path d="M162.66,147.27L162.66,147.26"/><path d="M162.99,147.09L163.00,147.10"/><path d="M163.18,143.75L163.20,143.76"/><path d="M162.63,144.03L163.66,143.51"/><path d="M163.13,143.78L163.15,143.79"/><path d="M163.43,143.63L163.44,143.63"/><path d="M162.92,143.24L163.54,143.00L163.61,142.94"/><path d="M163.69,139.70L164.62,139.03"/><path d="M164.12,138.74L164.02,138.86L163.05,139.32"/><path d="M163.16,136.02L163.15,136.01"/><path d="M163.86,131.19L163.80,131.24L163.36,131.40"/><path d="M163.67,127.37L164.12,127.17L164.40,126.88"/><path d="M163.57,119.57L163.87,119.47L164.11,119.29"/><path d="M164.49,169.35L164.28,169.71L164.11,169.83"/><path d="M164.73,168.96L164.52,169.30"/><path d="M164.10,166.04L164.51,165.70"/><path d="M164.53,165.68L164.67,165.56L164.80,165.10"/><path d="M164.47,164.81L164.47,164.80"/><path d="M164.83,161.37L164.39,161.97"/><path d="M164.96,161.18L164.84,161.35"/><path d="M164.90,157.41L164.69,157.98"/><path d="M164.96,153.55L164.95,153.86L164.70,154.13"/><path d="M164.26,154.60L164.69,154.14"/><path d="M164.65,153.18L164.64,153.24"/><path d="M164.89,149.94L164.54,150.53"/><path d="M164.15,150.91L164.41,150.75L164.53,150.54"/><path d="M163.96,147.18L164.62,146.62"/><path d="M164.93,146.22L164.90,146.39L164.64,146.60"/><path d="M164.77,145.39L164.62,145.66"/><path d="M163.75,143.47L164.34,143.17L164.37,143.13"/><path d="M165.04,141.95L165.09,142.24L164.66,142.77"/><path d="M164.38,143.12L164.66,142.78"/><path d="M164.46,142.23L164.27,142.39"/><path d="M164.70,141.75L164.70,141.81"/><path d="M164.91,138.55L164.82,138.88L164.62,139.03"/><path d="M164.73,137.64L164.78,137.85"/><path d="M165.03,134.19L165.09,134.62L164.17,135.57L163.87,135.70"/><path d="M164.54,134.44L164.46,134.62L164.21,134.78"/><path d="M164.78,133.90L164.67,134.14"/><path d="M164.31,130.81L164.78,130.41L164.78,130.36"/><path d="M164.79,130.07L164.79,130.13"/><path d="M164.70,129.79L164.71,129.81"/><path d="M163.97,127.91L165.01,127.12L165.02,126.70"/><path d="M164.82,126.01L164.83,126.02L164.70,125.83"/><path d="M164.59,125.87L164.72,125.99L164.68,125.84"/><path d="M164.72,125.99L164.79,126.22"/><path d="M164.99,122.43L165.07,122.60L165.17,122.93L164.42,123.74L163.98,123.93"/><path d="M164.52,122.94L164.50,122.99L164.02,123.25"/><path d="M164.75,122.09L164.73,122.08L164.84,122.25"/><path d="M164.77,122.13L164.43,121.94"/><path d="M164.81,122.09L164.75,122.02L164.87,122.16L164.81,122.09L164.86,122.20"/><path d="M164.75,122.02L164.75,122.01"/><path d="M164.65,118.89L164.84,118.75L164.83,118.61"/><path d="M165.07,149.63L164.90,149.92"/><path d="M164.93,146.21L165.00,145.82"/><path d="M165.01,138.14L164.98,138.04"/><path d="M164.91,138.54L165.05,138.00"/><path d="M164.95,137.66L164.95,137.65"/><path d="M165.00,130.86L165.16,130.41L165.05,130.22"/><path d="M164.91,127.04L165.05,126.60L164.98,126.39"/><path d="M165.05,126.60L165.04,126.36"/><path d="M164.99,126.19L164.96,126.16"/><path d="M165.07,122.60L164.99,122.43"/><path d="M164.96,118.53L165.10,118.94"/></g></g><g id="Actor_.2"><g style="stroke:#000000;stroke-width:0.705"><path d="M144.30,167.70L144.44,168.42L145.23,169.25L145.25,169.26"/><path d="M144.44,168.42L145.94,169.70L145.26,169.27"/><path d="M144.41,166.58L144.35,166.63L144.18,167.05L144.20,167.14"/><path d="M144.96,168.61L145.13,169.01"/><path d="M145.56,165.69L145.48,165.75"/><path d="M145.90,169.67L146.08,169.78L145.94,169.70"/><path d="M147.44,171.07L147.09,170.88L149.23,172.64L150.99,173.36L153.28,173.82L155.84,173.97L158.38,173.80L160.60,173.31L162.24,172.58L164.53,170.61L164.77,170.36"/><path d="M147.09,170.88L146.91,170.59"/><path d="M146.94,167.22L147.02,167.19"/><path d="M147.93,167.05L147.87,167.06"/><path d="M148.64,171.74L148.52,171.68"/><path d="M149.03,171.87L149.76,172.11L150.82,172.30"/><path d="M148.52,170.04L148.23,170.47"/><path d="M149.66,166.91L149.64,166.88L149.63,166.87L149.61,166.86L149.54,166.85L149.51,166.85"/><path d="M149.37,166.85L149.50,166.85"/><path d="M153.98,172.67L152.57,172.62L151.90,172.50"/><path d="M160.21,172.20L159.42,172.39L157.94,172.59L157.82,172.60L155.59,172.74L155.12,172.72"/><path d="M156.14,164.13L156.28,164.14"/><path d="M162.90,171.40L162.40,171.65L161.63,171.84"/><path d="M161.90,169.57L162.43,169.85L162.47,169.88"/><path d="M162.66,170.12L162.65,170.10"/><path d="M164.53,170.61L163.91,170.91"/><path d="M165.76,169.06L165.75,169.33L165.40,169.70"/><path d="M165.82,168.13L165.80,168.38"/></g></g><g id="Actor_.3"><g style="stroke:#000000;stroke-width:0.705"><path d="M135.30,29.14L135.30,28.95L135.65,28.77"/><path d="M138.24,27.55L137.54,27.77L137.38,27.85"/><path d="M137.10,28.01L136.79,28.17"/><path d="M142.56,26.67L143.01,26.58L144.32,26.44"/><path d="M148.28,26.04L149.34,25.93L150.52,25.89"/><path d="M155.10,25.74L156.50,25.70L157.92,25.70L158.10,25.71"/><path d="M166.03,26.17L164.83,26.02L164.19,25.99"/><path d="M171.14,26.90L170.49,26.73L169.57,26.61"/><path d="M174.80,27.97L174.30,27.74L174.12,27.69"/></g></g><g id="Actor_.4"><g style="stroke:#000000;stroke-width:0.705"><path d="M158.10,25.73L157.92,25.70L163.43,25.91L168.40,26.40L172.29,27.11L174.09,27.68L170.56,28.12L167.55,27.18L158.10,25.73"/><path d="M174.09,27.68L174.80,27.97L174.00,27.69"/></g></g><g id="Actor_.5"><g style="stroke:#000000;stroke-width:0.705"><path d="M145.65,111.47L145.18,27.84L148.22,26.95L157.92,25.70L160.09,25.80L170.56,28.12L170.09,111.08L167.19,111.97L157.92,113.38L155.83,113.35L145.65,111.47"/></g></g><g id="Actor_.6"><g style="stroke:#000000;stroke-width:0.705"><path d="M147.67,116.59L146.91,116.46L145.94,116.06L145.93,115.75L146.58,115.27L146.31,115.75L147.05,116.23L148.75,116.64L151.24,116.94L154.24,117.09L157.40,117.08L160.35,116.90L162.72,116.57L164.26,116.15L164.82,115.67L164.72,115.43L164.44,115.24"/><path d="M147.76,116.61L148.63,116.76"/><path d="M150.61,116.97L148.85,116.80L148.69,116.77"/><path d="M163.09,118.86L162.94,118.90L159.71,119.34L157.93,119.43L153.88,119.45L150.32,119.26L153.67,118.47L156.81,117.45L156.85,117.44L156.87,117.42L156.88,117.41L156.87,117.39L156.85,117.38L156.82,117.36L155.95,117.27L153.80,117.18"/><path d="M151.43,117.05L150.87,117.00"/><path d="M151.46,117.05L151.54,117.06L152.48,117.12L153.78,117.18"/><path d="M164.96,118.39L164.66,118.51L163.45,118.78"/><path d="M163.15,118.85L163.32,118.81"/><path d="M164.72,115.43L166.39,116.62L166.44,116.70"/><path d="M164.99,118.38L166.17,117.90L166.77,117.25L166.45,116.71"/></g></g><g id="Actor_.7"><g style="stroke:#000000;stroke-width:0.705"><path d="M146.65,115.40L146.87,114.97L146.94,114.49L147.63,114.92L149.22,115.29L151.54,115.56L154.33,115.70L154.71,115.70L157.27,115.69L160.01,115.52L162.22,115.23L163.66,114.85L164.19,114.42L164.27,114.89L164.48,115.32"/><path d="M164.47,115.29L164.82,115.67L164.26,116.15L162.72,116.57L160.35,116.90L157.40,117.08L154.24,117.09L151.24,116.94L148.75,116.64L147.05,116.23L146.31,115.75L146.58,115.27L146.85,115.01"/></g></g><g id="Actor_.8"><g style="stroke:#000000;stroke-width:0.705"><path d="M174.80,27.97L177.77,30.71L178.66,31.98"/><path d="M176.65,29.67L176.40,29.42"/></g></g><g id="Actor_.9"><g style="stroke:#000000;stroke-width:0.705"><path d="M149.40,167.22L149.30,167.20L147.42,166.55L145.11,165.48L144.13,164.36L144.25,163.89"/><path d="M144.88,161.58L145.68,161.96L144.88,161.58L144.10,160.51L144.25,160.18"/><path d="M144.13,156.47L144.07,156.54L144.46,157.50L145.81,158.25L146.13,158.39"/><path d="M150.09,155.84L149.13,155.71L147.29,155.16L145.62,154.38L144.22,153.46L144.10,152.57L144.14,152.53"/><path d="M144.15,149.11L144.09,149.47L145.20,150.38L146.81,151.13L147.91,151.53"/><path d="M144.15,145.17L143.99,145.38L144.57,146.24L147.19,147.49"/><path d="M145.52,142.82L145.25,142.69L144.15,142.09L144.04,141.33L144.12,141.28"/><path d="M144.10,137.67L143.95,137.98L144.81,138.68L145.68,139.08L144.85,138.69L144.81,138.68"/><path d="M144.12,133.75L143.94,133.89L144.35,134.59L145.91,135.18L148.55,135.61L152.19,135.83L156.01,135.75L159.82,135.37L163.27,134.70L165.72,133.84L163.55,134.94L162.96,135.13"/><path d="M146.61,135.71L146.32,135.60L144.35,134.59"/><path d="M151.32,132.56L149.94,132.50L149.56,132.47L147.38,132.13L146.21,131.70L143.99,130.49L144.09,129.91"/><path d="M144.01,130.50L145.13,131.06L147.38,131.52L150.75,131.81L154.47,131.82L158.30,131.56L162.12,131.01L164.87,130.27L163.23,131.10L163.25,131.09"/><path d="M144.86,127.03L144.10,126.61L143.83,126.40L144.10,126.14"/><path d="M144.10,126.61L144.51,126.94L146.81,128.09L148.00,128.33"/><path d="M144.51,126.94L146.46,127.43L149.30,127.74L152.89,127.84L156.97,127.67L160.71,127.26L163.87,126.61L166.15,125.78L164.02,126.90L162.18,127.57L159.72,128.10L159.08,128.18"/><path d="M144.07,122.27L143.90,122.36L144.09,122.85L146.10,123.86"/><path d="M144.09,122.85L144.39,122.94L146.65,124.15L147.12,124.24"/><path d="M144.39,122.94L145.55,123.33L148.05,123.66L151.37,123.81L155.46,123.74L159.28,123.43L162.66,122.90L165.48,122.15L165.88,121.93L163.89,123.05L163.42,123.20"/><path d="M144.17,118.42L143.81,118.67L144.36,119.07L144.47,119.13"/><path d="M144.36,119.07L144.42,119.12L146.09,119.46L148.80,119.70L152.41,119.78L155.86,119.67L159.54,119.36L160.36,119.24"/><path d="M144.42,119.12L146.74,120.28L146.50,120.18"/><path d="M145.25,169.26L145.26,169.27L145.44,169.38"/><path d="M145.17,165.51L146.83,166.23L147.41,166.46"/><path d="M145.74,161.99L145.38,161.81L146.99,162.50L146.31,161.94L146.31,161.75"/><path d="M159.23,163.29L160.56,163.03L162.86,162.20L164.34,161.57L161.12,162.61L157.38,163.22L153.62,163.38L149.75,163.10L146.75,162.45L145.68,161.96L147.23,162.71L147.42,162.77"/><path d="M145.62,154.38L148.20,155.12L151.32,155.50L155.32,155.55L159.38,155.17L162.62,154.47L164.99,153.53L162.85,154.55L162.05,154.82"/><path d="M145.20,150.38L147.34,151.07L150.43,151.52L154.36,151.66L158.17,151.42L161.70,150.81L164.71,149.85L163.39,150.46L161.23,151.28L159.72,151.60"/><path d="M144.57,146.24L146.35,146.95L149.12,147.47L152.84,147.73L156.65,147.61L160.34,147.16L163.70,146.35L163.75,146.34L165.93,145.35L163.39,146.63L162.67,146.94L162.50,147.00"/><path d="M145.49,146.60L147.31,147.55L147.43,147.58"/><path d="M145.48,142.81L146.53,143.37L147.96,143.89L150.03,144.25"/><path d="M145.25,142.69L145.47,142.80L147.20,143.62"/><path d="M145.47,142.80L148.04,143.41L151.28,143.73L155.05,143.74L159.10,143.41L162.53,142.78L165.17,141.88L163.28,142.81L162.12,143.26L161.97,143.30"/><path d="M148.07,140.02L147.32,139.87L145.68,139.08L145.70,139.09"/><path d="M144.85,138.69L146.92,139.31L149.89,139.69L153.51,139.81L157.64,139.61L161.24,139.11L164.21,138.35L166.40,137.32L162.82,139.12L160.26,139.84L157.51,140.27L155.28,140.45L152.11,140.49L150.30,140.35"/><path d="M146.46,120.17L146.00,119.98L144.63,119.22"/><path d="M147.11,170.11L146.97,170.03L146.45,169.44"/><path d="M147.82,170.48L147.84,170.50L146.08,169.77L145.87,169.64"/><path d="M155.58,171.47L155.67,171.47L158.76,171.10L161.43,170.40L162.51,169.94L159.49,170.67L155.27,171.10L151.42,171.01L148.40,170.53L146.08,169.77"/><path d="M147.20,166.38L146.35,165.71L146.33,165.58"/><path d="M146.97,161.97L146.55,162.10"/><path d="M146.75,162.45L148.78,163.27L148.08,163.01"/><path d="M147.28,158.26L146.59,158.44"/><path d="M146.23,157.91L146.48,158.36"/><path d="M146.48,158.37L146.56,158.50L146.01,158.36L145.81,158.25"/><path d="M146.56,158.50L148.84,159.09L152.40,159.47L156.10,159.42L160.13,158.94L163.48,158.08L164.87,157.42L162.91,158.36L162.77,158.41"/><path d="M146.36,158.51L147.28,158.95L147.34,158.97"/><path d="M146.01,158.36L147.63,159.06L147.35,158.97"/><path d="M147.81,154.50L146.77,154.71"/><path d="M146.55,154.65L146.25,154.45L146.22,154.11"/><path d="M146.21,151.32L146.20,151.32"/><path d="M146.19,150.22L146.11,150.38L146.49,150.80"/><path d="M146.70,147.51L146.74,147.49"/><path d="M146.16,146.38L146.27,146.92"/><path d="M146.26,142.52L146.05,142.81L146.07,142.83"/><path d="M146.19,142.97L146.08,142.85"/><path d="M146.16,139.08L146.10,138.75L146.30,138.63"/><path d="M146.63,135.72L147.10,135.90"/><path d="M146.45,134.79L146.05,135.07L146.12,135.22"/><path d="M146.47,132.76L146.46,132.77"/><path d="M146.65,130.88L146.05,131.23L146.06,131.25"/><path d="M146.97,127.00L146.20,127.25L146.15,127.35"/><path d="M146.73,123.26L147.08,123.16"/><path d="M146.67,123.28L146.29,123.38L146.25,123.42"/><path d="M146.74,120.28L148.41,120.52L150.47,120.63"/><path d="M146.62,119.50L147.27,119.32L147.82,119.24"/><path d="M145.94,116.06L145.92,115.78L145.93,115.77"/><path d="M147.84,170.50L149.93,171.13L152.76,171.49L154.75,171.48"/><path d="M146.95,167.23L147.03,167.19"/><path d="M147.85,167.05L147.92,167.05"/><path d="M146.83,166.23L147.31,166.44L149.30,167.20"/><path d="M147.31,166.44L150.21,167.02L154.05,167.25L158.11,167.02L161.51,166.39L164.51,165.30L161.50,166.51"/><path d="M148.04,163.00L147.42,162.78"/><path d="M147.63,159.06L149.31,159.57L151.85,159.92L154.35,159.99L154.50,159.98"/><path d="M148.41,150.75L147.41,150.91L147.13,151.00"/><path d="M146.81,151.13L146.81,151.13"/><path d="M147.77,147.22L147.94,147.17L149.30,147.00"/><path d="M147.46,147.59L148.27,147.78"/><path d="M146.81,143.78L146.87,143.77"/><path d="M147.36,143.68L147.33,143.68"/><path d="M147.01,140.05L146.97,140.05"/><path d="M147.34,136.33L147.31,136.34"/><path d="M147.88,136.11L147.47,136.05L147.15,135.92"/><path d="M152.80,136.55L152.40,136.56L149.45,136.38L147.91,136.12"/><path d="M147.16,124.25L147.79,124.37"/><path d="M147.90,124.39L148.32,124.47L150.88,124.64L153.92,124.64L154.99,124.59"/><path d="M147.14,123.15L147.29,123.10L147.47,123.08"/><path d="M147.80,121.44L147.88,121.43"/><path d="M148.29,167.20L148.31,167.19"/><path d="M148.78,163.27L149.06,163.32"/><path d="M147.99,156.36L148.00,156.36"/><path d="M148.71,151.77L148.43,151.72L147.94,151.54"/><path d="M149.58,151.91L148.78,151.78"/><path d="M148.72,148.86L148.75,148.85"/><path d="M148.41,147.81L149.45,148.06L151.51,148.28L153.45,148.31"/><path d="M148.52,143.46L148.96,143.38L151.16,143.21"/><path d="M150.23,140.35L149.33,140.28L149.05,140.22"/><path d="M148.97,140.20L148.22,140.05"/><path d="M148.19,136.17L148.13,136.18"/><path d="M149.24,128.48L148.48,128.42L148.02,128.33"/><path d="M148.49,119.18L148.03,119.21"/><path d="M152.04,167.59L151.75,167.59L149.41,167.22"/><path d="M150.19,163.09L150.08,163.12"/><path d="M149.16,163.33L149.14,163.34"/><path d="M149.07,163.32L150.48,163.56"/><path d="M159.71,151.61L158.23,151.92L156.87,152.09L153.88,152.24L150.71,152.09L149.84,151.95"/><path d="M149.22,145.11L149.26,145.10"/><path d="M153.08,144.42L152.88,144.43L150.15,144.27L150.04,144.25"/><path d="M150.02,141.31L149.95,141.32"/><path d="M156.74,139.66L153.61,139.51L150.00,139.62L149.69,139.66"/><path d="M149.14,132.40L149.11,132.41"/><path d="M150.15,128.56L149.41,128.50"/><path d="M149.67,125.00L149.56,125.01"/><path d="M152.84,162.82L150.61,163.01"/><path d="M150.59,163.01L150.54,163.01L150.21,163.09"/><path d="M150.53,163.57L151.44,163.72L154.45,163.84L154.56,163.85L155.62,163.77"/><path d="M151.29,156.01L150.27,155.87"/><path d="M151.37,152.12L151.14,152.13"/><path d="M157.58,128.36L156.64,128.47L154.02,128.62L150.80,128.61L150.30,128.57"/><path d="M150.48,120.63L151.09,120.67L151.75,120.66"/><path d="M152.05,167.59L155.02,167.67L158.10,167.39L158.77,167.24"/><path d="M151.39,159.36L153.07,159.24"/><path d="M151.32,156.01L151.54,156.04L151.73,156.05"/><path d="M153.54,156.10L151.90,156.05"/><path d="M151.52,137.52L151.74,137.51"/><path d="M152.32,132.60L151.75,132.58"/><path d="M151.87,120.66L153.16,120.64"/><path d="M154.17,159.24L153.45,159.21L153.11,159.24"/><path d="M153.55,156.10L154.30,156.12L157.43,155.91L159.56,155.54"/><path d="M152.85,144.81L152.57,144.82"/><path d="M153.58,144.41L156.22,144.32L159.44,143.92L161.08,143.52"/><path d="M152.83,136.55L154.04,136.53"/><path d="M160.36,131.91L159.11,132.16L155.75,132.52L152.76,132.62L152.45,132.61"/><path d="M153.31,120.64L154.16,120.63L157.44,120.41L160.47,120.00L160.74,119.94"/><path d="M156.51,159.37L156.25,159.33L154.20,159.24"/><path d="M161.49,158.88L160.74,159.15L157.69,159.74L154.54,159.98"/><path d="M153.58,148.32L154.57,148.33L154.89,148.31"/><path d="M156.00,136.45L155.54,136.50L154.28,136.52"/><path d="M154.57,117.59L154.51,117.59"/><path d="M155.55,171.47L154.79,171.48"/><path d="M157.66,163.60L157.47,163.64L155.72,163.76"/><path d="M155.08,162.87L156.05,162.89L157.83,163.15"/><path d="M155.56,148.26L155.01,148.30"/><path d="M155.62,125.00L155.46,124.99"/><path d="M155.23,124.57L155.43,124.56"/><path d="M157.25,124.41L156.24,124.52L155.64,124.55"/><path d="M162.47,147.00L160.36,147.63L157.58,148.10L156.08,148.22"/><path d="M155.84,143.20L158.41,143.47"/><path d="M162.13,135.41L161.55,135.61L158.72,136.17L156.11,136.44"/><path d="M156.79,132.41L156.86,132.41"/><path d="M159.19,163.30L157.70,163.59"/><path d="M159.54,147.26L158.02,147.00L157.85,146.99"/><path d="M157.63,128.80L157.52,128.79"/><path d="M158.92,128.20L157.80,128.33"/><path d="M163.40,123.21L161.96,123.67L159.14,124.21L157.31,124.40"/><path d="M159.84,123.34L159.13,123.21L157.68,123.05"/><path d="M160.22,166.92L158.80,167.24"/><path d="M158.27,159.63L158.31,159.64"/><path d="M158.59,156.09L158.70,156.11"/><path d="M159.09,150.77L160.56,151.00"/><path d="M158.69,132.61L158.75,132.62"/><path d="M159.16,126.93L159.31,126.95L160.09,127.11"/><path d="M158.71,125.25L158.63,125.25"/><path d="M158.65,119.43L158.62,119.43"/><path d="M158.46,119.40L158.60,119.42"/><path d="M160.28,166.90L160.90,166.76L161.49,166.52"/><path d="M159.64,155.53L160.29,155.41L160.68,155.28"/><path d="M160.13,154.54L161.16,154.79"/><path d="M160.12,130.83L161.09,131.01L161.42,131.11"/><path d="M160.34,127.16L160.77,127.25"/><path d="M161.01,163.86L160.92,163.83"/><path d="M161.76,158.52L160.78,158.29"/><path d="M161.99,154.84L160.75,155.26"/><path d="M160.86,147.48L160.93,147.49"/><path d="M160.99,143.91L161.04,143.92"/><path d="M161.93,143.31L161.47,143.42"/><path d="M161.26,136.65L161.23,136.65"/><path d="M160.84,134.69L161.73,134.89"/><path d="M163.23,131.10L162.65,131.37L161.70,131.65L161.35,131.72"/><path d="M161.25,131.74L160.52,131.88"/><path d="M161.12,119.86L161.15,119.87"/><path d="M161.67,119.74L160.80,119.93"/><path d="M162.51,169.94L165.02,168.83L166.74,167.32L167.11,165.76L167.00,165.58"/><path d="M162.20,170.02L162.32,169.96"/><path d="M162.33,169.95L163.49,169.37"/><path d="M161.50,161.99L161.68,162.03L162.25,162.24"/><path d="M162.49,162.33L162.51,162.34"/><path d="M162.20,158.62L162.21,158.62"/><path d="M162.75,158.42L161.57,158.85"/><path d="M161.73,154.93L161.76,154.93"/><path d="M161.91,151.38L161.94,151.39"/><path d="M162.57,147.93L162.51,147.91"/><path d="M161.61,147.64L161.57,147.62"/><path d="M162.41,146.23L163.14,146.49"/><path d="M161.92,142.38L162.81,142.68"/><path d="M161.89,138.67L161.54,138.56"/><path d="M162.39,138.82L161.93,138.68"/><path d="M161.98,134.95L161.75,134.90"/><path d="M162.90,135.15L162.16,135.40"/><path d="M162.40,123.93L162.36,123.91"/><path d="M162.02,120.06L162.08,120.08"/><path d="M161.79,119.71L162.85,119.48L163.06,119.39"/><path d="M164.13,168.77L163.63,169.30L163.50,169.37"/><path d="M163.80,165.34L163.61,165.17"/><path d="M164.58,164.71L164.57,164.73L163.27,165.75"/><path d="M163.52,162.72L163.54,162.72"/><path d="M163.76,161.62L163.46,161.36"/><path d="M163.75,161.65L163.36,161.89"/><path d="M162.62,158.75L162.67,158.77"/><path d="M163.23,158.14L163.35,158.06"/><path d="M163.67,157.84L163.38,157.69"/><path d="M163.22,157.61L163.23,157.61"/><path d="M164.59,157.10L164.50,157.26L163.40,158.03"/><path d="M163.16,155.37L163.07,155.33"/><path d="M163.02,153.86L163.53,154.11"/><path d="M163.55,154.10L164.51,153.49L164.68,153.17"/><path d="M163.70,150.56L163.63,150.51"/><path d="M162.73,150.01L163.23,150.22L163.32,150.29"/><path d="M163.49,143.02L163.46,143.00"/><path d="M163.29,139.21L163.27,139.20"/><path d="M162.99,139.04L162.98,139.03"/><path d="M163.10,135.39L163.11,135.40"/><path d="M162.68,135.23L162.72,135.24"/><path d="M163.55,134.94L163.56,134.93"/><path d="M163.49,130.97L163.28,131.08"/><path d="M163.20,131.12L164.43,130.55L166.63,129.37L164.87,130.27"/><path d="M163.56,128.09L163.52,128.07"/><path d="M162.71,127.79L162.69,127.78"/><path d="M164.45,126.40L163.60,126.17"/><path d="M163.35,124.22L163.31,124.21"/><path d="M164.03,122.54L163.40,122.33L163.17,122.29"/><path d="M163.75,118.70L163.20,118.84L163.02,118.87"/><path d="M163.07,119.39L164.11,118.98L165.32,118.29L164.87,118.41"/><path d="M164.38,165.83L164.36,165.82"/><path d="M164.51,165.30L166.50,163.92L167.14,162.55L166.99,162.14"/><path d="M164.34,161.57L166.31,160.35L167.12,158.94L167.00,158.52"/><path d="M164.48,160.94L164.14,161.41L163.83,161.60"/><path d="M164.30,158.42L164.24,158.36"/><path d="M163.87,157.95L163.88,157.95"/><path d="M164.99,153.53L165.30,153.40L164.69,153.67"/><path d="M164.71,149.85L166.55,148.73L167.19,147.50L167.08,147.24"/><path d="M164.62,149.58L164.60,149.62L163.91,150.10"/><path d="M164.74,149.33L164.67,149.49"/><path d="M164.08,147.12L164.05,147.10"/><path d="M163.81,146.31L164.77,145.60L164.85,145.36"/><path d="M164.87,141.49L164.70,141.88L164.17,142.22"/><path d="M163.91,139.56L163.90,139.55"/><path d="M164.44,138.24L164.78,137.86"/><path d="M164.79,137.85L165.09,137.51L165.08,137.46"/><path d="M164.71,137.65L164.73,137.66"/><path d="M164.36,133.83L164.75,133.96"/><path d="M164.67,134.21L164.77,134.15L164.99,133.59"/><path d="M164.09,129.99L164.70,130.23"/><path d="M163.75,130.84L164.86,130.28"/><path d="M165.12,129.66L165.14,129.72L164.61,130.34"/><path d="M164.11,118.98L164.41,118.86L165.71,118.09"/><path d="M165.06,157.33L164.87,157.42L165.26,157.23L165.06,157.33"/><path d="M165.26,157.23L165.59,157.07L166.97,155.70L167.02,154.91"/><path d="M167.05,150.72L167.16,150.86L166.90,152.11L165.30,153.40"/><path d="M165.93,145.35L165.96,145.34L167.07,144.20L167.05,143.72"/><path d="M167.10,139.45L167.24,139.64L166.83,140.77L165.17,141.88"/><path d="M165.72,133.84L167.04,132.84L167.10,132.31"/><path d="M164.94,126.23L165.02,126.16L165.16,125.88L165.08,125.68"/><path d="M165.07,121.76L164.97,122.29"/><path d="M165.88,121.93L166.97,121.33L167.27,120.48L167.19,120.40"/><path d="M165.08,119.07L165.11,119.09"/><path d="M165.60,118.14L165.32,118.29L165.64,118.11"/><path d="M167.02,154.26L167.05,154.30L167.05,154.38"/><path d="M166.40,137.32L167.24,136.27L167.11,135.91"/><path d="M167.11,132.16L167.16,131.79L167.11,131.75"/><path d="M166.63,129.37L167.29,128.34L167.09,128.04"/><path d="M166.15,125.78L167.24,124.88L167.15,124.41"/><path d="M166.36,117.70L166.58,117.57L166.35,117.71"/><path d="M166.58,117.57L166.62,117.55L166.62,117.42"/><path d="M166.60,116.97L166.60,116.79L166.43,116.69"/></g></g><g id="Actor_.10"><g style="stroke:#000000;stroke-width:0.705"><path d="M146.57,169.57L146.50,169.45"/><path d="M146.53,169.46L146.52,169.49"/><path d="M146.78,170.06L146.81,170.10L148.18,170.95L149.56,171.35"/><path d="M147.35,170.18L146.73,169.76"/><path d="M146.69,165.98L146.39,165.66L146.37,165.59L146.40,165.70L146.39,165.66"/><path d="M146.77,166.25L147.52,166.90L148.49,167.26"/><path d="M146.58,165.86L146.56,165.65"/><path d="M146.40,165.73L146.40,165.70L146.41,165.76L146.40,165.73"/><path d="M146.36,161.88L146.55,162.14L146.59,161.85"/><path d="M146.41,161.94L146.44,162.00"/><path d="M146.36,161.98L146.31,161.83L146.31,161.77"/><path d="M146.56,162.14L146.55,162.14"/><path d="M146.68,162.44L147.37,163.07L148.48,163.53L150.83,164.03L153.59,164.23L156.41,164.12"/><path d="M146.33,161.76L146.38,162.00"/><path d="M146.79,162.34L147.04,162.51"/><path d="M146.42,157.99L146.42,158.25L146.55,158.41"/><path d="M146.48,158.01L146.42,158.21"/><path d="M146.52,158.44L146.60,158.51"/><path d="M147.88,159.47L146.83,158.95L146.61,158.63"/><path d="M146.48,158.36L146.75,158.55"/><path d="M146.26,157.97L146.26,157.93"/><path d="M146.26,157.99L146.26,157.92"/><path d="M146.78,155.02L146.62,154.85"/><path d="M153.29,156.48L151.60,156.43L148.96,156.05L148.03,155.79L146.81,155.17L146.67,154.90"/><path d="M146.53,154.61L146.42,154.40L146.58,154.20"/><path d="M146.25,154.40L146.36,154.50L146.42,154.56"/><path d="M146.21,154.11L146.22,154.38L146.58,154.66"/><path d="M146.47,150.97L146.59,151.23L147.59,151.81L149.19,152.22"/><path d="M146.48,150.79L146.43,150.58L146.68,150.36"/><path d="M146.22,150.50L146.21,150.36L146.22,150.22"/><path d="M146.34,150.64L146.23,150.41"/><path d="M146.23,150.52L146.23,150.23"/><path d="M146.48,146.97L146.58,146.58L146.65,146.54"/><path d="M146.37,147.10L146.41,147.24L147.15,147.81L148.13,148.12"/><path d="M146.50,147.17L146.49,147.15"/><path d="M146.26,146.86L146.31,146.93L146.24,146.75"/><path d="M146.34,146.95L146.23,146.73"/><path d="M146.39,143.29L146.55,143.50L146.68,143.64L146.68,143.63"/><path d="M146.37,143.29L146.40,143.44L147.26,144.05L148.86,144.48L150.91,144.72"/><path d="M150.06,144.25L149.98,144.25L147.83,143.88L146.53,143.36L146.68,143.46"/><path d="M146.90,142.66L146.59,142.81L146.52,143.05"/><path d="M146.17,142.97L146.06,142.85L146.26,142.52"/><path d="M146.52,139.19L147.05,138.83"/><path d="M146.23,139.10L146.18,138.92"/><path d="M149.29,140.64L147.63,140.33L146.52,139.82L146.44,139.62"/><path d="M146.38,139.49L146.32,139.41L146.27,139.37"/><path d="M146.31,139.40L146.48,139.73"/><path d="M146.59,139.52L147.01,139.77L146.61,139.57"/><path d="M146.14,139.02L146.16,138.68L146.28,138.62"/><path d="M153.38,136.97L150.71,136.92L149.52,136.81L147.67,136.47L146.48,135.97L146.26,135.57"/><path d="M146.39,135.62L146.77,135.81L146.76,135.81"/><path d="M147.11,135.90L146.77,135.81L146.62,135.71"/><path d="M146.77,135.81L147.01,135.93"/><path d="M146.65,135.30L147.10,135.03L147.39,134.93"/><path d="M146.08,135.13L146.09,135.05"/><path d="M146.35,131.90L146.32,131.84L146.41,132.08L147.26,132.49L148.90,132.82L151.04,132.98"/><path d="M146.27,131.72L146.32,131.84L146.32,131.82"/><path d="M146.38,131.78L146.36,131.76"/><path d="M146.42,131.78L146.42,131.79"/><path d="M146.32,131.74L146.34,131.77L146.41,131.82"/><path d="M146.11,131.26L146.34,131.06"/><path d="M146.34,131.77L147.17,132.05"/><path d="M146.42,127.89L146.40,127.92"/><path d="M146.28,128.02L146.22,127.88L146.12,127.76L146.11,127.74"/><path d="M146.19,127.80L146.41,127.92L146.23,127.87L146.12,127.76"/><path d="M146.25,127.94L146.26,128.06L146.85,128.48L148.29,128.81L149.75,128.95"/><path d="M146.17,127.77L146.23,127.87L146.63,128.04"/><path d="M146.58,127.97L146.41,127.92"/><path d="M146.15,127.35L146.51,127.15"/><path d="M146.45,124.11L146.18,123.96L146.05,123.84L146.15,123.96L146.20,124.06L146.22,124.10L146.24,124.25L146.98,124.63L147.05,124.65L148.17,124.85"/><path d="M146.15,123.91L146.27,123.99"/><path d="M146.19,123.97L146.44,124.04"/><path d="M146.32,123.43L146.74,123.25"/><path d="M146.18,123.96L146.14,123.89"/><path d="M146.38,120.14L146.38,120.15L146.21,120.10L146.17,120.05"/><path d="M151.11,121.11L148.73,120.99L147.19,120.78L146.33,120.48L146.13,120.03"/><path d="M146.38,120.15L146.47,120.17"/><path d="M149.50,117.06L147.69,116.93L146.70,116.76L146.19,116.47L146.17,116.32"/><path d="M146.51,116.29L146.49,116.30"/><path d="M146.21,116.41L146.15,116.27L146.06,116.12"/><path d="M146.23,116.18L146.29,116.22L146.77,116.42L146.89,116.45"/><path d="M146.29,116.22L145.94,116.07L145.94,116.01"/><path d="M147.63,166.62L147.65,166.63"/><path d="M147.40,166.54L147.42,166.56L147.37,166.53"/><path d="M148.22,166.82L147.42,166.56L148.19,166.90"/><path d="M147.46,162.79L147.60,162.86"/><path d="M147.80,162.97L147.51,162.84L147.37,162.76"/><path d="M147.42,162.78L147.51,162.84L148.05,163.00"/><path d="M147.89,159.47L148.28,159.66L148.51,159.73L149.97,160.04"/><path d="M147.43,159.00L147.44,159.00"/><path d="M147.34,158.97L147.70,159.14"/><path d="M147.35,158.97L149.05,159.52L149.24,159.55"/><path d="M147.18,155.11L147.25,155.14"/><path d="M147.05,155.06L148.16,155.51"/><path d="M147.27,155.15L148.78,155.64L149.01,155.68"/><path d="M147.27,155.15L147.19,155.12L147.15,155.09"/><path d="M147.94,151.54L147.24,151.34L147.06,151.22"/><path d="M147.13,147.49L147.18,147.51L146.90,147.35"/><path d="M147.45,147.58L147.48,147.60L148.65,147.86"/><path d="M147.13,139.80L146.87,139.68"/><path d="M147.23,139.82L147.01,139.77L147.48,139.95"/><path d="M148.89,136.29L148.17,136.19L147.89,136.11"/><path d="M149.61,132.47L147.58,132.19L147.43,132.14"/><path d="M147.94,131.07L147.92,131.08"/><path d="M146.84,131.41L147.35,131.18L147.91,131.08"/><path d="M148.01,128.33L147.54,128.27L147.21,128.17"/><path d="M147.10,127.50L147.39,127.40L148.76,127.18"/><path d="M147.85,124.38L147.41,124.32L147.13,124.24"/><path d="M150.84,123.28L148.80,123.42L147.66,123.61"/><path d="M147.52,123.09L147.05,123.16"/><path d="M148.00,120.46L147.41,120.41L147.12,120.33"/><path d="M147.06,119.38L147.96,119.21L148.46,119.18"/><path d="M148.70,116.77L148.55,116.75L147.66,116.59"/><path d="M147.94,170.52L149.03,170.94L150.77,171.31"/><path d="M148.70,170.75L149.81,171.11L149.91,171.12"/><path d="M163.85,165.57L162.51,166.46L160.12,167.33L158.09,167.76L155.06,168.05L151.94,167.97L149.24,167.54L148.51,167.27"/><path d="M148.15,167.77L148.14,167.77"/><path d="M148.31,167.20L148.32,167.20"/><path d="M148.70,160.39L148.79,160.37"/><path d="M149.70,151.92L148.89,151.81L148.74,151.77"/><path d="M156.06,148.61L154.19,148.74L151.08,148.65L148.78,148.32L148.14,148.12"/><path d="M148.73,148.86L148.76,148.86"/><path d="M148.15,140.03L148.81,140.19L149.02,140.21"/><path d="M148.18,124.85L148.66,124.93L150.88,125.09L153.95,125.08L156.11,124.95"/><path d="M150.50,124.62L149.55,124.58L148.93,124.51"/><path d="M148.57,119.68L149.11,119.65"/><path d="M150.47,120.63L149.68,120.62L148.97,120.55"/><path d="M149.82,171.11L149.80,171.10"/><path d="M151.98,171.76L150.21,171.54L149.57,171.35"/><path d="M149.40,167.22L149.46,167.24L150.19,167.34"/><path d="M149.66,166.91L149.65,166.89L149.61,166.87L149.50,166.85L149.36,166.85"/><path d="M150.63,163.00L150.08,163.12"/><path d="M149.06,163.32L149.28,163.38L150.61,163.58"/><path d="M152.69,160.33L150.73,160.19L149.98,160.04"/><path d="M151.37,156.02L151.04,155.99L150.18,155.86"/><path d="M149.73,152.89L149.63,152.91"/><path d="M164.32,150.03L164.31,150.06L162.77,151.09L160.58,151.83L157.80,152.36L154.97,152.62L152.20,152.61L149.65,152.34L149.20,152.22"/><path d="M150.67,148.19L149.76,148.11L149.54,148.07"/><path d="M149.24,145.11L149.28,145.11"/><path d="M149.97,141.32L150.04,141.31"/><path d="M160.31,140.18L158.93,140.48L155.69,140.84L152.85,140.93L150.15,140.78L149.74,140.73L149.31,140.65"/><path d="M151.78,136.52L150.40,136.48L149.76,136.40"/><path d="M149.78,128.96L150.55,129.03L151.85,129.06"/><path d="M150.26,128.56L149.77,128.54L149.31,128.48"/><path d="M154.95,119.62L153.52,119.54L150.94,119.54L149.13,119.65"/><path d="M149.51,117.07L149.79,117.09L152.32,117.12"/><path d="M150.19,171.16L152.33,171.46L152.55,171.46"/><path d="M152.85,162.82L150.90,162.97"/><path d="M151.84,159.92L151.73,159.92L150.68,159.76"/><path d="M150.82,156.32L150.80,156.32"/><path d="M151.32,152.12L151.12,152.13"/><path d="M153.78,152.23L151.25,152.15L150.94,152.10"/><path d="M150.34,149.14L150.39,149.14"/><path d="M153.52,144.82L151.43,144.78L150.92,144.72"/><path d="M150.19,140.34L151.19,140.45L151.85,140.47"/><path d="M153.56,133.02L151.56,133.02L151.05,132.98"/><path d="M152.45,132.60L152.26,132.60L151.29,132.55"/><path d="M153.01,124.64L152.11,124.67L151.28,124.64"/><path d="M154.17,121.06L152.29,121.12L151.36,121.12L151.13,121.11"/><path d="M151.48,117.05L150.54,116.96"/><path d="M151.99,171.76L152.70,171.85L154.69,171.85"/><path d="M154.22,167.65L152.28,167.62L152.05,167.59"/><path d="M153.98,163.82L151.95,163.78L151.65,163.73"/><path d="M151.52,159.88L151.50,159.88"/><path d="M153.58,156.10L152.79,156.10L151.77,156.04"/><path d="M153.58,148.31L152.35,148.32L151.88,148.28"/><path d="M152.14,145.36L152.26,145.36"/><path d="M152.41,140.48L153.58,140.52L154.54,140.49L155.01,140.45"/><path d="M151.58,137.52L152.08,137.52"/><path d="M151.87,129.06L153.28,129.08L156.59,128.91L158.65,128.65"/><path d="M153.40,128.62L152.22,128.65L151.38,128.61"/><path d="M153.31,120.64L152.39,120.67L151.78,120.66"/><path d="M151.91,117.08L152.45,117.12L152.33,117.12"/><path d="M152.45,117.12L152.48,117.12"/><path d="M153.98,163.37L153.17,163.35"/><path d="M155.64,160.29L153.35,160.38L152.70,160.33"/><path d="M154.21,159.24L153.04,159.24"/><path d="M153.30,156.48L154.52,156.51L156.16,156.40"/><path d="M161.71,143.73L159.24,144.34L156.97,144.65L156.44,144.72L154.33,144.83L153.55,144.82"/><path d="M156.19,144.32L155.84,144.36L153.39,144.41"/><path d="M153.39,136.97L153.79,136.98L155.94,136.86"/><path d="M154.20,136.52L153.22,136.56L152.81,136.55"/><path d="M153.58,133.02L154.45,133.02L157.32,132.81L160.01,132.42L162.03,131.91"/><path d="M154.39,123.31L153.83,123.27L153.42,123.27"/><path d="M155.84,163.75L154.77,163.84L154.65,163.84"/><path d="M154.51,159.98L156.97,159.79"/><path d="M155.84,152.14L154.15,152.25L153.89,152.24"/><path d="M158.72,132.20L158.23,132.29L155.45,132.54L154.36,132.56"/><path d="M154.65,128.59L155.41,128.57L155.98,128.51"/><path d="M157.67,123.56L156.93,123.47L154.42,123.31"/><path d="M164.82,118.62L164.79,118.67L164.54,119.07L163.27,119.73L161.14,120.30L158.17,120.77L155.29,121.03L154.21,121.06"/><path d="M157.15,120.43L155.25,120.58L154.64,120.60"/><path d="M154.71,171.85L155.48,171.85L157.88,171.58"/><path d="M155.56,171.47L155.48,171.48L154.71,171.48"/><path d="M157.63,167.44L157.07,167.53L155.30,167.67L155.11,167.66"/><path d="M155.84,162.89L155.20,162.87"/><path d="M158.23,160.01L156.61,160.25L155.65,160.29"/><path d="M156.43,159.38L155.70,159.31"/><path d="M156.58,155.96L155.63,156.08L154.77,156.08"/><path d="M155.84,148.23L155.10,148.30L154.94,148.30"/><path d="M154.86,145.37L154.76,145.37"/><path d="M155.01,124.58L155.35,124.57L155.59,124.55"/><path d="M154.97,119.62L155.92,119.67"/><path d="M159.35,163.67L156.52,164.11L156.42,164.12"/><path d="M157.83,163.15L156.01,162.89"/><path d="M161.79,155.26L159.90,155.86L157.17,156.33L156.17,156.40"/><path d="M164.38,146.13L164.25,146.32L162.76,147.23L160.38,148.01L157.43,148.52L156.11,148.61"/><path d="M159.24,143.94L159.10,143.97L156.75,144.25"/><path d="M163.49,135.22L162.16,135.81L159.79,136.41L156.86,136.81L155.98,136.86"/><path d="M158.10,136.23L156.37,136.43L156.00,136.44"/><path d="M159.00,127.45L156.87,127.16"/><path d="M164.83,122.52L164.68,122.84L163.53,123.55L163.41,123.60L161.21,124.26L158.67,124.71L157.01,124.89L156.14,124.95"/><path d="M163.60,169.46L163.24,169.82L161.04,170.86L158.45,171.52L157.89,171.58"/><path d="M156.97,171.31L158.64,171.13L158.72,171.11"/><path d="M159.62,163.21L157.82,163.58L157.68,163.59"/><path d="M157.84,160.09L157.79,160.08"/><path d="M160.57,159.20L160.59,159.19L157.85,159.73L157.69,159.74"/><path d="M158.10,155.84L158.92,155.69L158.21,155.77"/><path d="M157.89,151.95L157.10,152.05"/><path d="M159.83,147.72L158.33,148.01L157.86,148.05"/><path d="M159.03,128.18L158.57,128.26L157.66,128.35"/><path d="M158.73,124.25L158.27,124.32L157.27,124.41"/><path d="M159.23,120.17L157.93,120.36L157.52,120.40"/><path d="M158.81,171.08L161.19,170.48L161.30,170.43"/><path d="M158.55,167.35L159.69,167.08L158.79,167.24"/><path d="M158.65,163.80L158.59,163.79"/><path d="M158.25,160.01L159.41,159.84L160.81,159.49L163.09,158.56L164.00,157.84"/><path d="M158.31,159.64L158.29,159.63"/><path d="M158.56,156.09L158.67,156.11"/><path d="M158.87,155.70L158.97,155.68"/><path d="M160.74,155.26L161.24,155.14L160.19,155.46L158.92,155.69L159.59,155.53"/><path d="M159.94,135.98L159.20,136.11L158.80,136.15"/><path d="M159.23,136.10L160.47,135.88"/><path d="M159.95,131.32L159.38,131.20L158.19,131.04"/><path d="M158.69,128.65L159.74,128.51L160.88,128.26"/><path d="M159.13,126.93L160.43,127.17"/><path d="M159.83,123.35L158.37,123.13"/><path d="M158.66,119.43L158.43,119.40"/><path d="M159.66,167.09L159.71,167.08"/><path d="M162.85,165.96L162.49,166.18L160.65,166.86L159.69,167.08L160.23,166.91"/><path d="M159.97,164.14L159.94,164.13"/><path d="M159.63,163.29L160.81,162.97L160.62,163.00"/><path d="M159.35,163.67L159.61,163.63L160.21,163.48L162.54,162.66L163.94,161.74"/><path d="M159.37,160.40L159.34,160.40"/><path d="M159.78,159.42L160.61,159.19"/><path d="M159.62,152.64L159.54,152.63"/><path d="M159.71,151.61L161.00,151.35"/><path d="M164.51,138.28L164.23,138.67L162.59,139.57L161.46,139.94L160.32,140.18"/><path d="M160.19,138.76L160.71,138.86L161.37,139.08"/><path d="M159.91,135.99L160.78,135.76"/><path d="M160.71,135.20L159.44,134.91"/><path d="M160.34,131.91L161.12,131.77L161.30,131.72"/><path d="M160.11,130.83L161.37,131.11"/><path d="M161.58,123.74L161.03,123.89L159.77,124.09"/><path d="M161.44,166.53L162.20,166.29L162.63,166.05"/><path d="M160.97,163.87L160.88,163.85"/><path d="M160.74,162.98L160.95,162.92"/><path d="M161.96,162.58L161.97,162.58L161.66,162.70L160.81,162.97L161.61,162.74L162.30,162.46L162.90,162.18"/><path d="M160.69,159.16L160.59,159.19L161.64,158.89L162.80,158.41"/><path d="M160.94,159.07L162.70,158.45L162.75,158.42"/><path d="M161.18,155.16L161.28,155.13"/><path d="M162.00,154.84L161.24,155.14L162.19,154.85L162.75,154.59"/><path d="M161.15,151.30L160.98,151.36L160.52,151.45"/><path d="M160.98,151.36L161.38,151.28"/><path d="M162.48,147.00L162.43,147.02L160.86,147.52L160.49,147.59"/><path d="M161.43,146.42L161.64,146.50"/><path d="M161.27,143.47L161.90,143.32L161.95,143.30"/><path d="M160.83,142.59L161.61,142.79L161.87,142.90"/><path d="M160.39,139.80L160.59,139.77L162.82,139.13L163.31,138.87"/><path d="M160.94,127.84L160.97,127.85"/><path d="M160.90,128.25L162.23,127.95L163.52,127.48L164.67,126.69L164.74,126.52"/><path d="M161.81,127.65L161.42,127.77L160.61,127.91"/><path d="M161.44,124.21L161.40,124.20"/><path d="M160.36,123.98L160.40,123.99"/><path d="M161.74,119.72L161.04,119.89L160.77,119.93"/><path d="M162.18,170.02L162.37,169.93"/><path d="M162.09,166.32L162.24,166.27"/><path d="M162.57,162.30L162.30,162.46L161.97,162.58L162.44,162.38"/><path d="M162.62,158.47L162.49,158.52"/><path d="M162.46,157.85L163.15,158.16"/><path d="M164.25,153.88L164.06,154.12L162.46,155.05L161.80,155.26"/><path d="M162.18,154.06L162.91,154.36"/><path d="M161.90,150.28L162.53,150.49L162.59,150.52"/><path d="M162.96,150.70L163.33,150.50L162.13,150.94"/><path d="M161.65,146.51L162.16,146.72"/><path d="M162.31,146.19L163.12,146.49"/><path d="M161.71,143.73L161.99,143.66L163.81,142.85L164.41,142.26"/><path d="M162.10,139.32L162.13,139.33"/><path d="M162.35,138.83L161.85,138.65"/><path d="M161.92,134.96L161.71,134.88"/><path d="M162.92,135.15L162.63,135.28L162.15,135.41"/><path d="M164.46,130.65L164.05,131.10L162.41,131.82L162.04,131.91"/><path d="M162.50,123.50L163.14,123.33L163.41,123.20"/><path d="M163.65,169.23L163.28,169.48"/><path d="M163.53,169.35L163.71,169.22"/><path d="M164.15,168.76L163.49,169.37"/><path d="M163.35,165.66L163.08,165.43"/><path d="M163.15,165.79L163.41,165.64"/><path d="M163.47,165.59L163.02,165.84"/><path d="M163.53,162.07L163.49,162.04"/><path d="M162.79,161.64L163.29,161.90"/><path d="M164.12,161.37L163.65,161.69"/><path d="M163.41,161.38L163.67,161.55"/><path d="M163.85,161.58L163.25,161.92"/><path d="M163.20,158.15L163.42,158.01"/><path d="M163.23,157.61L163.66,157.85"/><path d="M163.29,154.62L163.25,154.59"/><path d="M163.52,154.12L163.22,153.96"/><path d="M163.74,151.18L163.72,151.17"/><path d="M163.14,150.84L163.15,150.85"/><path d="M162.85,150.67L162.86,150.67"/><path d="M163.26,150.51L163.20,150.55"/><path d="M163.69,150.57L163.62,150.52"/><path d="M163.02,150.13L163.28,150.30"/><path d="M163.33,150.50L163.37,150.47"/><path d="M163.00,147.08L163.01,147.09"/><path d="M163.48,143.60L163.48,143.61"/><path d="M162.85,143.02L163.75,142.59L163.69,142.61"/><path d="M162.81,142.68L162.80,142.68"/><path d="M163.49,143.02L163.46,143.00"/><path d="M162.97,139.05L162.96,139.05"/><path d="M163.16,136.02L163.15,136.01"/><path d="M164.53,134.44L164.02,134.98L163.50,135.21"/><path d="M163.17,135.42L163.10,135.39"/><path d="M162.67,135.23L162.70,135.25"/><path d="M162.84,131.28L163.21,131.17L163.82,130.83"/><path d="M162.77,128.35L162.76,128.35"/><path d="M163.55,128.09L163.52,128.08"/><path d="M163.55,127.11L163.70,127.04L163.63,127.08L163.04,127.34"/><path d="M164.00,126.90L163.63,127.08L162.84,127.33"/><path d="M163.70,127.04L163.80,126.98"/><path d="M163.33,124.23L163.30,124.22"/><path d="M163.99,119.03L163.32,119.33L163.07,119.39"/><path d="M164.48,164.76L164.39,164.87"/><path d="M164.38,165.84L164.36,165.82"/><path d="M163.80,165.33L163.75,165.28"/><path d="M164.15,165.06L164.36,164.82"/><path d="M164.52,164.74L164.46,164.82"/><path d="M164.27,161.23L164.10,161.41L164.04,161.47"/><path d="M164.05,161.46L164.43,160.96L164.21,161.24"/><path d="M164.19,161.31L164.10,161.41"/><path d="M163.82,158.70L163.81,158.69"/><path d="M164.58,157.11L164.39,157.34"/><path d="M163.87,157.96L163.86,157.96"/><path d="M164.48,157.16L164.33,157.38"/><path d="M164.57,153.37L164.09,153.76"/><path d="M164.54,153.43L164.49,153.49"/><path d="M164.55,153.39L164.60,153.31"/><path d="M164.65,153.18L164.65,153.22"/><path d="M164.68,149.35L164.54,149.61L164.28,149.82"/><path d="M164.20,149.90L164.61,149.58L163.86,150.12"/><path d="M164.61,149.58L164.63,149.57L164.73,149.33"/><path d="M164.50,149.69L164.54,149.64"/><path d="M164.47,149.70L164.45,149.72L164.46,149.71"/><path d="M164.65,149.36L164.48,149.66"/><path d="M164.63,149.37L164.56,149.52"/><path d="M164.56,145.73L164.45,145.84"/><path d="M164.80,145.51L164.65,145.69"/><path d="M164.80,145.50L164.59,145.73"/><path d="M164.51,145.79L164.84,145.39"/><path d="M164.71,145.64L164.74,145.58"/><path d="M164.83,145.38L164.83,145.37L164.80,145.44"/><path d="M164.72,145.64L164.77,145.54"/><path d="M164.80,145.38L164.81,145.41"/><path d="M163.75,142.59L163.84,142.53"/><path d="M163.76,142.58L163.78,142.56"/><path d="M164.56,141.93L164.76,141.75"/><path d="M164.53,141.99L164.73,141.81"/><path d="M164.70,141.84L164.67,141.89"/><path d="M164.81,141.58L164.72,141.78"/><path d="M164.67,141.86L164.60,141.94"/><path d="M164.86,141.50L164.85,141.54"/><path d="M164.70,141.55L164.70,141.80"/><path d="M164.33,142.12L164.73,141.79"/><path d="M163.91,139.56L163.90,139.55"/><path d="M164.37,138.28L164.86,137.76"/><path d="M164.23,138.42L164.25,138.41"/><path d="M164.79,137.83L164.87,137.62"/><path d="M164.85,137.77L164.87,137.75L164.87,137.76"/><path d="M164.87,137.75L164.88,137.74L164.85,137.77L164.66,138.01"/><path d="M164.87,137.74L165.08,137.48"/><path d="M164.80,137.61L164.83,137.72"/><path d="M163.82,135.73L163.82,135.72"/><path d="M163.80,134.82L163.86,134.78"/><path d="M164.68,134.21L164.75,134.14L164.71,134.18"/><path d="M164.75,134.14L164.79,134.08"/><path d="M164.98,133.60L164.83,133.96L164.59,134.24"/><path d="M164.83,133.96L164.85,133.93"/><path d="M164.89,133.77L164.87,133.87"/><path d="M164.73,133.69L164.81,133.99"/><path d="M164.30,130.80L164.63,130.49L164.68,130.42"/><path d="M164.45,130.55L164.47,130.53"/><path d="M164.46,130.54L164.49,130.52"/><path d="M164.84,130.06L164.89,129.86"/><path d="M165.01,129.69L164.86,130.04"/><path d="M164.80,130.11L164.70,129.79"/><path d="M164.26,126.77L164.23,126.79L164.06,126.87"/><path d="M164.84,126.26L164.94,126.17L165.00,125.71"/><path d="M164.75,125.81L164.85,125.91L164.76,126.29"/><path d="M164.51,122.70L164.50,122.71"/><path d="M164.64,122.63L164.61,122.66L164.41,122.79"/><path d="M164.62,121.89L164.87,122.14L164.82,122.32"/><path d="M164.63,122.63L164.61,122.66L164.48,122.72"/><path d="M164.34,118.92L164.63,118.73"/><path d="M164.62,118.73L164.58,118.76"/><path d="M164.88,137.74L165.09,137.46"/><path d="M164.90,130.00L164.94,129.89"/><path d="M164.87,130.03L165.04,129.68"/><path d="M165.10,125.73L164.94,126.22"/><path d="M164.98,122.21L164.90,122.30"/></g></g><g id="Actor_.11"><g style="stroke:#000000;stroke-width:0.705"><path d="M132.79,108.86L134.23,109.95L135.87,110.78L136.76,111.50L137.81,111.81"/><path d="M134.23,109.95L138.99,112.16"/><path d="M135.93,110.70L135.91,110.73"/></g></g><g id="Actor_.12"><g style="stroke:#000000;stroke-width:0.705"><path d="M166.38,164.00L167.07,165.20L166.78,166.78L165.27,168.23L163.09,169.26L159.68,170.15L155.95,170.60L152.39,170.60L148.90,170.16L146.17,169.35L144.63,168.40L144.13,167.35L144.36,166.63"/><path d="M144.38,166.61L144.70,166.24L145.51,165.73"/><path d="M145.75,161.99L144.88,162.43L144.10,163.53L144.54,164.58L146.01,165.49L148.78,166.31L152.04,166.72L155.81,166.73L159.87,166.26L162.98,165.47L165.45,164.30L166.92,162.82L167.07,161.39L166.31,160.34"/><path d="M145.82,158.25L145.21,158.54L144.15,159.51L144.31,160.55L145.65,161.54L148.07,162.33L151.32,162.79L155.26,162.87L159.07,162.53L162.44,161.78L165.21,160.64L166.78,159.36L167.14,157.99L166.27,156.56L166.17,156.50"/><path d="M166.06,152.79L166.78,153.40L167.14,154.71L166.28,156.11L164.28,157.28L161.34,158.20L157.50,158.83L153.70,159.00L150.13,158.79L146.92,158.19L144.95,157.39L144.11,156.44L144.43,155.40L145.32,154.88L145.97,154.54"/><path d="M166.09,149.01L167.10,150.18L166.99,151.45L165.61,152.76L163.23,153.81L159.97,154.58L156.00,155.03L152.20,155.07L148.78,154.73L146.04,154.07L144.43,153.23L144.05,152.30L144.85,151.39L146.06,150.79"/><path d="M145.65,147.30L145.38,147.43L144.17,148.22L144.10,149.07L145.34,149.96L147.57,150.63L150.68,151.06L154.11,151.14L154.66,151.15L158.47,150.88L161.96,150.27L164.89,149.28L166.63,148.15L167.22,146.94L166.54,145.67L165.98,145.32"/><path d="M165.83,141.44L166.93,142.37L167.13,143.63L166.11,144.77L163.93,145.78L160.63,146.62L156.97,147.10L153.12,147.23L149.37,147.01L146.52,146.52L144.68,145.81L143.99,144.97L144.47,144.20L144.49,144.17L146.29,143.24"/><path d="M146.09,139.62L145.03,140.15L144.02,140.92L144.22,141.68L145.59,142.37L148.28,142.95L151.58,143.25L155.34,143.24L159.40,142.87L162.77,142.22L165.35,141.33L166.90,140.20L167.20,139.08L166.34,137.99L165.72,137.67"/><path d="M146.19,135.89L146.22,135.81L144.24,136.86L143.95,137.57L144.91,138.25L147.12,138.85L150.16,139.22L153.81,139.31L157.93,139.08L161.53,138.57L164.42,137.79L166.49,136.75L167.26,135.70L166.83,134.66L165.60,133.90"/><path d="M144.24,136.86L144.25,136.85"/><path d="M165.46,130.00L165.96,130.26L167.11,131.23L167.12,132.29L165.86,133.28L163.50,134.14L160.08,134.84L156.33,135.23L152.50,135.33L148.77,135.15L146.09,134.73L144.44,134.16L143.90,133.47L144.62,132.84L146.23,131.98"/><path d="M165.39,126.18L166.39,126.72L167.20,127.56L166.97,128.60L165.51,129.53L163.34,130.23L159.82,130.88L155.92,131.26L152.16,131.34L148.52,131.16L145.80,130.75L144.31,130.24L143.91,129.62L144.70,129.03L146.21,128.21"/><path d="M165.19,122.32L167.02,123.41L167.25,124.32L166.28,125.22L164.08,126.07L160.98,126.71L157.29,127.14L153.16,127.34L149.58,127.26L146.67,126.97L144.58,126.49L143.85,125.97L144.31,125.43L146.17,124.42"/><path d="M165.10,118.45L166.69,119.32L167.33,120.12L166.95,120.87L165.48,121.64L163.00,122.34L159.64,122.89L155.78,123.21L151.65,123.31L148.28,123.18L145.73,122.86L144.14,122.40L143.85,121.92L145.68,120.90L145.42,121.04"/><path d="M144.34,117.80L144.43,117.74L144.55,117.68L144.34,117.80L143.80,118.18L144.53,118.66L146.48,119.02L149.15,119.23L150.33,119.27L150.36,119.26"/><path d="M144.62,117.64L144.55,117.68L145.96,116.86L145.98,116.89"/><path d="M145.32,154.88L145.93,154.53"/><path d="M145.28,147.49L146.20,147.02"/><path d="M144.75,140.36L146.35,139.47"/><path d="M145.99,120.72L145.68,120.90L145.95,120.75"/><path d="M146.36,166.54L146.24,166.39L146.31,166.13"/><path d="M147.27,167.37L146.93,167.22L146.67,166.91"/><path d="M146.23,162.62L146.21,162.71L146.54,163.03"/><path d="M147.15,159.78L146.92,159.69L146.68,159.44"/><path d="M146.24,158.66L146.18,158.93L146.25,159.00"/><path d="M146.44,158.12L146.48,158.10"/><path d="M146.37,155.33L146.49,155.63L146.63,155.71"/><path d="M146.24,154.68L146.19,154.72L146.16,154.84L146.17,154.87"/><path d="M146.73,154.23L146.47,154.47"/><path d="M146.59,154.36L146.90,154.28"/><path d="M146.34,151.65L146.41,151.82L146.81,152.02"/><path d="M146.27,150.99L146.12,151.14L146.21,151.34"/><path d="M146.69,150.55L146.48,150.77"/><path d="M146.43,150.60L146.52,150.56"/><path d="M147.22,150.53L146.68,150.63L146.56,150.68"/><path d="M146.48,148.06L146.50,148.10L146.93,148.27"/><path d="M146.11,147.38L146.07,147.42L146.22,147.65"/><path d="M146.72,146.80L146.81,146.76L146.77,146.77"/><path d="M146.76,147.03L147.70,146.75L147.80,146.74"/><path d="M146.22,143.97L146.23,144.07L146.64,144.31"/><path d="M146.20,143.42L146.14,143.46L146.16,143.56"/><path d="M146.15,143.47L146.19,143.46"/><path d="M146.43,140.42L146.47,140.48L147.07,140.70"/><path d="M146.07,139.85L146.06,139.86L146.15,140.00"/><path d="M146.79,139.64L146.82,139.63"/><path d="M146.21,136.41L146.06,136.32L146.06,136.30"/><path d="M146.22,135.81L146.26,135.79"/><path d="M146.59,136.02L146.55,136.03"/><path d="M146.44,132.75L146.50,132.81L147.16,133.00"/><path d="M146.05,132.27L145.99,132.34L146.19,132.52"/><path d="M146.12,132.40L146.07,132.41"/><path d="M146.78,132.26L146.73,132.27"/><path d="M147.53,129.23L147.19,129.17L146.76,129.04"/><path d="M146.60,128.99L146.47,128.95L146.31,128.78"/><path d="M146.14,128.36L145.99,128.48L146.03,128.52"/><path d="M146.36,128.16L146.38,128.15"/><path d="M146.32,124.97L146.48,125.08L146.68,125.12"/><path d="M146.07,124.63L145.97,124.75L146.07,124.81"/><path d="M146.32,121.10L146.38,121.14L147.04,121.28"/><path d="M146.38,121.14L146.44,121.13"/><path d="M145.94,120.79L145.92,120.81L146.02,120.88"/><path d="M147.50,117.44L146.73,117.33L146.62,117.30"/><path d="M146.09,117.05L146.17,117.16L146.48,117.26"/><path d="M145.96,116.86L146.02,116.84"/><path d="M147.01,163.49L147.06,163.54L147.51,163.71"/><path d="M148.06,156.38L147.78,156.31L147.14,155.98"/><path d="M147.41,152.33L147.60,152.43L148.17,152.56"/><path d="M147.88,148.67L148.01,148.72L149.50,149.01"/><path d="M147.09,146.62L146.81,146.72"/><path d="M147.10,146.62L146.81,146.76L147.08,146.63"/><path d="M148.18,144.88L147.24,144.65L147.09,144.56"/><path d="M147.43,142.77L147.16,142.84"/><path d="M147.30,143.24L148.57,142.98"/><path d="M148.66,141.11L147.77,140.96L147.69,140.93"/><path d="M147.36,139.07L146.81,139.28"/><path d="M146.82,136.78L146.90,136.83L146.96,136.85L147.70,137.02"/><path d="M147.38,135.30L147.39,135.29"/><path d="M148.43,135.09L147.43,135.29"/><path d="M148.74,133.33L147.96,133.23L147.79,133.18"/><path d="M147.53,132.16L147.49,132.16"/><path d="M148.42,125.44L147.95,125.40L147.41,125.28"/><path d="M147.45,124.74L147.50,124.73"/><path d="M148.94,121.54L147.83,121.45L147.68,121.41"/><path d="M146.86,117.33L146.81,117.34"/><path d="M148.80,171.78L148.64,171.74L148.90,171.84L151.49,172.46L154.72,172.74L157.42,172.63"/><path d="M148.01,167.71L148.41,167.89L148.72,167.96"/><path d="M148.76,164.18L148.95,164.26L150.34,164.50"/><path d="M149.01,164.27L149.07,164.25"/><path d="M149.13,160.47L148.67,160.39L148.01,160.13"/><path d="M149.88,145.18L149.00,145.09L148.85,145.05"/><path d="M149.89,139.19L149.76,139.19L147.95,139.44"/><path d="M150.19,137.41L148.86,137.28L148.61,137.22"/><path d="M157.23,135.63L154.59,135.45L151.09,135.46L149.01,135.64"/><path d="M148.09,131.43L149.08,131.28"/><path d="M149.68,129.51L149.12,129.48L148.56,129.39"/><path d="M155.07,127.44L152.52,127.37L149.77,127.48L148.41,127.65"/><path d="M148.28,120.93L148.24,120.94"/><path d="M149.45,117.60L148.30,117.54L148.19,117.53"/><path d="M150.09,168.27L150.76,168.42L151.27,168.46"/><path d="M149.78,164.40L149.81,164.40"/><path d="M150.17,160.66L150.95,160.80L151.36,160.82"/><path d="M149.34,156.67L149.94,156.81L150.14,156.83"/><path d="M150.05,156.82L150.07,156.82"/><path d="M150.69,153.02L149.69,152.92L149.33,152.84"/><path d="M152.05,149.27L150.15,149.13L150.02,149.10"/><path d="M151.71,141.42L149.94,141.32L149.83,141.30"/><path d="M151.16,133.54L150.06,133.50L149.78,133.47"/><path d="M151.23,125.64L150.36,125.62L149.57,125.54"/><path d="M149.57,124.55L149.37,124.56"/><path d="M149.81,121.62L149.97,121.63L152.09,121.67L152.23,121.67"/><path d="M151.04,172.26L151.32,172.28"/><path d="M151.13,164.64L151.38,164.69L153.58,164.80"/><path d="M150.51,163.96L150.52,163.96"/><path d="M150.85,160.75L150.76,160.76"/><path d="M151.05,137.49L151.29,137.51L152.80,137.55L153.22,137.54"/><path d="M152.76,129.62L151.99,129.63L151.16,129.59"/><path d="M151.87,123.68L150.47,123.73"/><path d="M152.50,117.64L150.78,117.66L150.64,117.65"/><path d="M150.78,117.10L150.81,117.10"/><path d="M151.98,163.78L152.02,163.77"/><path d="M151.70,156.97L152.79,157.07L153.37,157.08"/><path d="M154.14,153.20L153.72,153.22L152.64,153.20L152.12,153.15"/><path d="M151.37,145.34L151.55,145.35L153.18,145.37"/><path d="M151.59,131.81L152.40,131.77L154.03,131.82"/><path d="M151.67,125.65L152.08,125.67L153.14,125.64"/><path d="M156.23,168.53L155.12,168.64L153.87,168.66L152.82,168.57"/><path d="M153.15,160.91L154.08,160.95L154.60,160.92"/><path d="M152.66,157.06L152.88,157.05"/><path d="M154.71,141.44L152.93,141.49L152.75,141.48"/><path d="M152.50,133.59L152.76,133.60L154.43,133.54"/><path d="M153.47,123.70L154.84,123.73"/><path d="M155.47,121.56L155.18,121.58L153.41,121.63"/><path d="M156.57,172.33L155.97,172.42L154.03,172.47L153.91,172.46"/><path d="M153.85,164.81L153.65,164.80"/><path d="M155.58,157.01L154.58,157.09L153.77,157.08"/><path d="M154.74,157.07L154.40,157.06"/><path d="M153.58,149.29L155.66,149.25L155.78,149.24"/><path d="M156.55,145.25L154.62,145.39L154.43,145.39"/><path d="M154.70,137.49L155.82,137.46L156.37,137.40"/><path d="M154.13,129.60L154.99,129.59L155.78,129.52"/><path d="M153.73,117.63L156.81,117.45L153.82,118.44"/><path d="M155.80,141.40L158.74,141.08"/><path d="M155.78,133.50L156.06,133.49L157.49,133.33"/><path d="M156.44,125.47L155.20,125.58L154.82,125.59"/><path d="M158.14,164.45L156.92,164.65L156.77,164.66"/><path d="M156.26,164.13L156.32,164.13"/><path d="M157.80,160.68L157.42,160.75L156.52,160.81"/><path d="M156.17,153.10L156.69,153.07L156.83,153.05"/><path d="M158.81,139.45L156.80,139.20L156.28,139.17"/><path d="M156.25,131.23L157.30,131.33"/><path d="M157.29,127.64L156.13,127.53"/><path d="M156.56,120.92L156.64,120.92"/><path d="M159.46,171.88L159.09,171.99L158.07,172.13"/><path d="M157.63,172.62L157.86,172.61L157.96,172.59"/><path d="M165.76,169.09L165.17,170.11L163.41,171.22L160.99,172.06L158.05,172.58"/><path d="M157.05,160.77L156.97,160.77"/><path d="M158.23,156.74L157.77,156.84L157.31,156.87"/><path d="M157.71,156.84L157.65,156.83"/><path d="M158.20,145.07L157.58,145.17L157.43,145.19"/><path d="M157.05,129.42L157.76,129.36L158.69,129.22"/><path d="M158.67,121.27L158.53,121.29L157.48,121.38"/><path d="M160.46,160.16L160.14,160.27L158.91,160.49"/><path d="M160.00,152.54L159.59,152.65L158.24,152.85"/><path d="M158.85,148.90L158.99,148.88L160.21,148.64L160.86,148.45"/><path d="M158.16,142.98L158.93,143.06L159.95,143.25"/><path d="M160.50,139.21L159.20,138.92"/><path d="M159.59,137.00L159.16,137.09L158.17,137.20"/><path d="M160.20,132.93L159.12,133.15L158.92,133.17"/><path d="M158.17,125.31L158.55,125.28L159.42,125.13"/><path d="M160.83,167.72L160.68,167.78L159.23,168.09"/><path d="M161.84,163.55L161.36,163.76L160.10,164.12L159.84,164.16"/><path d="M160.08,156.38L160.79,156.24L161.28,156.06"/><path d="M159.42,146.78L160.93,147.02"/><path d="M161.36,144.41L160.32,144.71L160.13,144.74"/><path d="M160.91,142.96L159.97,142.76"/><path d="M159.80,135.96L159.94,135.98"/><path d="M159.78,135.38L159.41,135.30"/><path d="M160.10,129.00L160.64,128.92L161.35,128.73"/><path d="M159.83,120.55L159.71,120.53"/><path d="M162.05,171.07L161.84,171.18L161.20,171.37"/><path d="M161.10,154.31L161.80,154.45L162.16,154.57"/><path d="M162.43,151.82L162.08,151.99L161.00,152.28"/><path d="M161.55,150.83L160.37,150.55"/><path d="M161.59,146.86L160.98,146.67"/><path d="M160.36,140.75L161.60,140.49L161.67,140.47"/><path d="M160.64,139.73L160.68,139.74"/><path d="M161.93,136.47L161.69,136.56L160.84,136.74"/><path d="M160.89,136.13L160.99,136.15"/><path d="M161.47,132.05L161.51,132.07"/><path d="M161.04,128.81L161.01,128.80"/><path d="M162.01,124.63L161.57,124.76L161.15,124.84"/><path d="M163.50,120.24L161.24,120.85"/><path d="M163.15,166.75L162.93,166.91L161.60,167.43"/><path d="M162.86,162.05L162.26,161.82"/><path d="M162.47,161.77L162.62,161.85L162.59,161.83"/><path d="M162.98,162.01L162.62,161.85L162.94,162.02"/><path d="M162.77,159.34L162.53,159.48L161.81,159.71"/><path d="M161.73,158.07L162.55,158.32"/><path d="M162.05,157.97L162.54,158.16"/><path d="M162.51,155.61L163.23,155.34L163.60,155.07"/><path d="M161.67,154.18L161.89,154.25"/><path d="M162.09,150.68L161.91,150.61"/><path d="M162.96,147.72L162.54,147.95L162.05,148.09"/><path d="M162.26,147.39L162.28,147.40"/><path d="M161.70,147.23L161.74,147.24"/><path d="M163.56,139.78L161.72,140.45"/><path d="M161.63,132.63L161.78,132.60L162.70,132.27"/><path d="M161.66,132.62L161.65,132.62"/><path d="M162.44,132.36L162.44,132.36"/><path d="M161.80,124.69L161.77,124.69"/><path d="M164.08,169.84L163.91,170.05L163.17,170.45"/><path d="M163.37,165.90L163.36,165.89"/><path d="M162.89,163.08L163.38,162.86L163.59,162.68"/><path d="M163.25,162.20L163.28,162.20L163.26,162.19"/><path d="M162.95,161.97L162.78,161.89"/><path d="M163.70,158.78L164.33,158.40L164.62,158.06"/><path d="M163.02,154.74L163.01,154.73"/><path d="M164.13,150.92L163.97,151.07L163.48,151.31"/><path d="M163.86,143.40L162.80,143.98L162.62,144.03"/><path d="M162.87,143.91L162.91,143.92"/><path d="M163.63,139.74L164.55,139.15L164.62,139.03"/><path d="M163.86,135.70L163.69,135.83L162.96,136.09"/><path d="M163.97,127.91L163.17,128.25L162.71,128.37"/><path d="M163.98,123.93L163.61,124.14L163.11,124.30"/><path d="M164.85,168.91L164.48,169.35"/><path d="M164.05,166.08L164.46,165.77L164.51,165.69"/><path d="M164.75,165.26L164.87,165.05"/><path d="M164.83,161.36L164.75,161.65L164.38,161.98"/><path d="M164.91,157.40L164.84,157.81L164.68,157.99"/><path d="M164.24,154.61L164.59,154.35L164.70,154.12"/><path d="M164.89,149.93L164.83,150.25L164.54,150.53"/><path d="M164.63,146.60L164.36,146.96L163.95,147.19"/><path d="M164.67,142.76L164.46,143.08L164.37,143.13"/><path d="M164.47,135.26L164.92,134.93L164.96,134.75"/><path d="M163.80,131.87L163.94,131.82L164.49,131.41"/><path d="M164.69,129.80L164.71,129.82"/><path d="M164.97,127.15L164.97,127.17L164.23,127.72"/><path d="M164.72,126.00L164.61,125.95L164.48,125.91"/><path d="M164.73,125.82L164.79,125.85"/><path d="M164.99,123.13L164.86,123.41L164.57,123.58"/><path d="M163.98,122.06L164.82,122.32"/><path d="M164.83,122.11L164.87,122.13"/><path d="M164.71,122.09L164.84,122.26"/><path d="M163.91,120.03L164.00,119.98"/><path d="M165.17,118.86L165.21,118.91L164.90,119.51L164.02,119.97"/><path d="M165.75,168.19L165.92,168.81L165.76,169.08"/><path d="M164.93,146.21L165.09,146.00L165.04,145.80"/><path d="M165.05,141.94L165.10,142.09L165.07,142.13"/><path d="M164.91,138.55L165.12,138.19L165.05,138.02"/><path d="M165.11,134.15L165.05,134.40"/><path d="M165.00,130.87L164.97,131.04L164.92,131.09"/><path d="M165.09,130.20L165.08,130.27"/><path d="M165.00,129.76L165.08,129.79"/><path d="M165.04,126.46L165.06,126.35"/><path d="M165.10,126.02L165.02,125.98"/><path d="M165.13,122.80L165.18,122.69L165.02,122.49"/></g></g><g id="Actor_.13"><g style="stroke:#000000;stroke-width:0.705"><path d="M131.88,31.51L137.10,27.95L135.94,28.46L135.23,29.21"/><path d="M137.10,27.95L138.24,27.55L136.93,28.07"/></g></g><g id="Actor_.14"><g style="stroke:#000000;stroke-width:0.705"><path d="M173.46,111.77L171.75,112.23L168.00,112.79L163.22,113.19L157.92,113.38L160.03,113.28L170.09,111.07L171.10,111.54L174.17,111.57"/></g></g><g id="Actor_.15"><g style="stroke:#000000;stroke-width:0.705"><path d="M138.24,27.55L143.46,27.40L145.17,27.84L155.72,25.75L157.92,25.70L152.20,25.78L146.64,26.14L141.84,26.76L139.42,27.30"/></g></g><g id="Actor_.16"><g style="stroke:#000000;stroke-width:0.705"><path d="M148.49,172.03L148.61,172.21L148.96,172.42"/><path d="M148.54,170.05L148.42,170.19"/><path d="M150.53,173.17L149.88,172.97L149.57,172.78"/><path d="M152.61,173.69L151.70,173.54L151.34,173.43"/><path d="M153.58,173.84L153.93,173.89L155.03,173.93"/><path d="M157.39,173.87L156.34,173.96L156.08,173.96"/><path d="M159.67,173.52L158.81,173.73L158.58,173.75"/><path d="M160.76,173.24L160.97,173.19L161.97,172.70"/><path d="M162.27,172.55L162.31,172.53L162.40,172.44"/><path d="M161.89,169.57L162.46,169.87"/></g></g><g id="Actor_.17"><g style="stroke:#000000;stroke-width:0.705"><path d="M136.13,110.99L136.14,111.14L136.49,111.28"/><path d="M136.13,110.83L136.13,110.82"/><path d="M140.13,112.33L138.99,112.16L138.31,112.00L138.08,111.91"/><path d="M144.85,112.94L143.59,112.85L143.16,112.78"/><path d="M148.66,113.21L149.68,113.28L150.82,113.30"/><path d="M158.10,113.37L157.92,113.38L156.56,113.40L155.21,113.38"/><path d="M165.72,112.98L164.57,113.10L163.95,113.12"/><path d="M169.12,112.62L170.02,112.53L170.64,112.39"/><path d="M172.99,111.89L173.69,111.74L174.17,111.57"/></g></g><g id="Actor_.18"><g style="stroke:#000000;stroke-width:0.705"><path d="M132.13,52.49L131.88,31.51L133.35,30.25L138.24,27.55L139.39,27.29L145.17,27.84L145.65,111.47L144.01,111.99L138.99,112.16L137.90,111.86L132.79,108.86L132.13,52.49"/></g></g><g id="Actor_.19"><g style="stroke:#000000;stroke-width:0.705"><path d="M138.99,112.16L140.11,112.33L145.65,111.47L148.59,112.28L157.92,113.38L152.43,113.37L147.08,113.14L142.46,112.72L138.99,112.16"/></g></g><g id="Actor_.20"><g style="stroke:#000000;stroke-width:0.705"><path d="M146.93,113.13L146.94,114.49L147.63,114.92L149.22,115.29L151.54,115.56L154.33,115.70L157.27,115.69L160.01,115.52L162.22,115.23L163.66,114.85L164.19,114.42L164.20,113.11"/></g></g><g id="Actor_.21"><g style="stroke:#000000;stroke-width:0.705"><path d="M170.09,111.08L173.50,111.77L174.17,111.57L177.07,109.28L177.95,108.17L178.66,31.98L175.49,28.38L174.80,27.97L171.61,27.72L170.56,28.12L170.09,111.08"/></g></g><g><g/></g><g/><g/><g id="ToolTip" visibility="hidden" opacity="0" transform="translate(0,0)"><rect id="ToolTipShadow" opacity="0.20" fill="black" stroke="none" x="0" y="0" width="30" height="8"/><rect id="ToolTipBG" fill="#ffffe1" stroke="black" x="0" y="0" width="30" height="8"/><text xml:space="preserve" id="ToolTipText" fill="black" x="0" y="0" width="30" height="8">tooltip</text></g></g></svg>
