<?xml version="1.0" encoding="UTF-8" standalone="no"?>
<svg xmlns="http://www.w3.org/2000/svg" xmlns:xlink="http://www.w3.org/1999/xlink" width="297.000mm" height="210.000mm" viewBox="0.000000 0.000000 297.000000 210.000000" stroke-linejoin="round" stroke-linecap="round" fill="none" fill-rule="evenodd"><desc>3DVIA Composer Export</desc><script type="text/ecmascript"><![CDATA[
if(typeof(top) != "undefined")
{
	top.ShowPaper = ShowPaper;
}
function ShowHotSpot(evt,hotspotid)
{
	var svgDocument = evt.target.ownerDocument;
	var strId = "hotspot."+hotspotid;
	var hotspot = svgDocument.getElementById(strId);
	if(hotspot)
		hotspot.setAttribute("opacity",".5");
}
function HideHotSpot(evt,hotspotid)
{
	var svgDocument = evt.target.ownerDocument;
	var strId = "hotspot."+hotspotid;
	var hotspot = svgDocument.getElementById(strId);
	if(hotspot)
		hotspot.setAttribute("opacity","0");

	var toolTip = svgDocument.getElementById('ToolTip');
	if(toolTip)
		toolTip.setAttribute("visibility","hidden");
}
function ShowToolTip(evt,hotspotid,strTooltip)
{
	if(strTooltip=="")
	return;

	// change text
	var svgDocument = evt.target.ownerDocument;
	var tiptext = svgDocument.getElementById('ToolTipText');
	if( !tiptext )
	return;
	tiptext.firstChild.nodeValue = " " + strTooltip + "  " ;

	// show tooltip before, else some refresh issue

	var toolTip = svgDocument.getElementById('ToolTip');
	if(!toolTip)
	return;

	toolTip.setAttribute("visibility","visible");
	toolTip.setAttribute("opacity",".95");

	// move tooltip
	// get viewbox

	var root = svgDocument.documentElement;
	var vbox = (root.getAttribute("viewBox")).split(' ');
	var x0 = parseFloat(vbox[0]);
	var y0 = parseFloat(vbox[1]);
	var vboxW = parseFloat(vbox[2]);
	var vboxH = parseFloat(vbox[3]);

	// get default width of svg

	var strW = root.getAttribute("width");
	var svgW = parseFloat(strW);
	if(strW.indexOf('mm') != -1)
	svgW *= 3.779;

	var strH = root.getAttribute("height");
	var svgH = parseFloat(strH);
	if(strH.indexOf('mm') != -1)
	svgH *= 3.779;  	// 96 dpi  -> 96/25.4 = 3.779

	// update the viewbox / width / height if svg is embedded in html with zoom fit all
	var realx0 = x0;
	var realy0 = y0;
	var realvboxW = vboxW;
	var realvboxH = vboxH;
	var realsvgW = svgW;
	var realsvgH = svgH;

	if ((typeof(top) == "undefined") || (typeof(top.svgctl1) != "undefined")) // embedded in html
	{
		// get window size in pxl

		svgW = window.innerWidth;
		svgH = window.innerHeight;

		// calculate real viewbox

		realsvgW = svgW;
		realsvgH = svgH;
		if((svgW / svgH) > (vboxW / vboxH))
		{
			realvboxW = (vboxH * svgW) / svgH;
			realvboxH = vboxH;
			realx0 = x0 - (realvboxW - vboxW)/2 ;
		}
		else
		{
			realvboxH = (vboxW * svgH) / svgW;
			realvboxW = vboxW;
			realy0 = y0 - (realvboxH - vboxH)/2 ;
		}
	}

	// get user zoom/pan

	var newScale = root.currentScale;
	var translation = root.currentTranslate;

	// transform pxl to user unit

	var xPos = (((evt.clientX+10- translation.x)/newScale) * realvboxW)/realsvgW  + realx0 ;
	var yPos = (((evt.clientY+5- translation.y)/newScale) * realvboxH)/ realsvgH  + realy0 ;
	var scaleForWidth = ( (1 / newScale) * realvboxH) / realsvgH;

	// move tooltip

	toolTip.setAttribute("transform", "translate(" + xPos + "," + yPos + ")" );

	// resize tooltip

	var fontsize = 12;
	tiptext.setAttribute("font-size",fontsize*scaleForWidth);
	tiptext.setAttribute("y", fontsize*scaleForWidth);
	var tipBG = svgDocument.getElementById('ToolTipBG');
	var outline = tiptext.getBBox();
	if(tipBG)
	{
		tipBG.setAttribute("stroke-width", 1*scaleForWidth);
		tipBG.setAttribute("width", Number(outline.width) );
		tipBG.setAttribute("height", Number(outline.height) + fontsize*.5*scaleForWidth );
	}
	var ToolTipShadow = svgDocument.getElementById('ToolTipShadow');
	if(ToolTipShadow)
	{
		ToolTipShadow.setAttribute("width", Number(outline.width) );
		ToolTipShadow.setAttribute("height", Number(outline.height) + fontsize*.5*scaleForWidth );
		ToolTipShadow.setAttribute("x", 3*scaleForWidth);
		ToolTipShadow.setAttribute("y", 3*scaleForWidth);
	}
}
function ShowPaper()
{
  var svgDocument = getDocument();
  var paper = svgDocument.getElementById("paperID");
  if(paper)
  {
    paper.setAttribute("transform","scale(1)");
    paper.setAttribute("opacity","1");
    paper.setAttribute("visibility","visible");
  }
  var svg = svgDocument.getRootElement();
  if(svg)
  {
    svg.setAttribute("width","307.000mm");
    svg.setAttribute("height","220.000mm");
    svg.setAttribute("viewBox","-5.000000 -5.000000 307.000000 220.000000");
  }
}
]]></script><defs/><g><path style="fill:#dcdcdc;fill-rule:evenodd" d="M235.96,84.41L236.21,85.04L235.13,84.16L235.13,83.66zM107.34,84.38L107.60,85.04L107.03,84.69L107.03,84.17zM238.79,88.30L241.35,92.99L242.90,97.65L243.67,102.04L243.67,108.34L243.42,110.41L242.64,113.77L241.09,117.91L238.49,122.56L235.42,126.47L232.70,128.93L229.59,131.25L225.22,133.61L220.57,135.17L216.42,135.94L209.26,135.94L205.11,135.17L200.46,133.61L196.09,131.25L193.48,129.46L193.15,128.92L193.44,128.93L194.79,129.97L199.17,132.32L204.07,134.15L208.74,134.91L215.90,134.91L220.05,134.14L223.92,132.83L227.55,131.03L229.33,129.96L232.57,127.51L235.91,124.12L239.28,118.95L241.08,114.80L242.38,109.89L242.64,108.08L242.64,101.01L241.60,95.83L239.79,91.17L237.75,87.52L236.69,85.96L236.68,85.47zM108.37,85.66L108.68,86.43L108.06,85.97L108.07,85.47zM109.41,87.00L112.00,91.40L113.51,95.06L114.27,97.66L115.06,101.53L115.06,108.85L114.56,111.97L113.78,114.81L112.40,118.09L110.33,121.97L107.46,125.83L103.58,129.46L100.98,131.25L96.61,133.61L91.96,135.17L87.81,135.94L80.65,135.94L76.50,135.17L71.85,133.61L67.48,131.25L65.66,129.98L65.47,129.65L66.70,130.22L71.07,132.59L75.72,134.14L79.87,134.91L87.29,134.91L91.44,134.14L96.10,132.59L99.94,130.48L102.54,128.68L105.64,125.83L107.22,124.04L109.11,121.53L111.10,118.09L112.99,113.25L113.52,111.45L114.03,108.34L114.03,101.01L113.50,97.91L111.96,92.73L108.68,86.43zM192.71,128.45L192.22,128.45L191.59,127.63L191.89,127.63zM63.84,128.19L63.33,128.19L62.98,127.62L63.28,127.62zM65.47,129.65L64.87,129.47L64.28,128.66L64.57,128.66zM188.05,138.62L185.86,138.53L188.06,136.46zM178.22,138.62L176.28,138.53L177.71,137.08L178.22,136.72zM168.64,138.62L166.71,138.53L168.14,137.08L168.65,136.72zM159.07,138.62L156.87,138.53L157.69,137.76L158.26,137.56L158.83,136.51L159.08,136.46zM149.49,138.62L147.30,138.53L149.50,136.46zM139.92,138.62L137.73,138.53L139.93,136.46zM130.34,138.62L128.15,138.53L130.35,136.46zM120.77,138.62L118.58,138.53L120.78,136.46zM111.20,138.62L109.00,138.53L111.20,136.46z"/><g id="Actor_.0"><g style="stroke:#000000;stroke-width:0.353"><path d="M166.50,136.12L167.44,137.06L167.44,137.44L166.50,138.39"/><path d="M167.44,137.06L167.82,137.06L167.82,137.44L167.44,137.44"/><path d="M167.82,137.44L168.77,138.39"/><path d="M167.82,137.06L168.77,136.12"/></g><g style="stroke:#000000;stroke-width:0.705"><path d="M168.41,138.39L168.77,138.39L166.50,138.39L166.50,138.03"/><path d="M166.50,138.39L166.50,136.12L166.86,136.12"/><path d="M166.50,136.12L168.77,136.12L168.77,136.48"/><path d="M168.77,138.39L168.77,136.15"/></g></g><g id="Actor_.1"><g style="stroke:#000000;stroke-width:0.353"><path d="M178.37,138.39L177.43,137.44L177.05,137.44L176.10,138.39"/><path d="M176.10,136.12L177.05,137.06L177.43,137.06L177.43,137.44"/><path d="M177.05,137.44L177.05,137.06"/><path d="M177.43,137.06L178.37,136.12"/></g><g style="stroke:#000000;stroke-width:0.705"><path d="M178.01,138.39L178.37,138.39L176.10,138.39L176.10,138.03"/><path d="M176.10,138.39L176.10,136.12L176.46,136.12"/><path d="M176.13,136.12L178.37,136.12L178.37,136.48"/><path d="M178.37,138.39L178.37,136.15"/></g></g><g id="Actor_.2"><g style="stroke:#000000;stroke-width:0.353"><path d="M111.14,138.39L110.20,137.44L109.82,137.44L108.87,138.39"/><path d="M111.14,136.12L110.20,137.06L109.82,137.06L108.87,136.12"/><path d="M109.82,137.44L109.82,137.06"/><path d="M110.20,137.44L110.20,137.06"/></g><g style="stroke:#000000;stroke-width:0.705"><path d="M108.87,138.03L108.87,138.39L108.87,136.12L109.24,136.12"/><path d="M108.87,138.39L111.14,138.39L110.78,138.39"/><path d="M108.87,136.12L111.14,136.12L111.14,136.48"/><path d="M111.14,138.39L111.14,136.15"/></g></g><g id="Actor_.3"><g style="stroke:#000000;stroke-width:0.353"><path d="M137.69,136.12L138.63,137.06L138.63,137.44L137.69,138.39"/><path d="M138.63,137.44L139.01,137.44L139.01,137.06L138.63,137.06"/><path d="M139.01,137.44L139.95,138.39"/><path d="M139.01,137.06L139.95,136.12"/></g><g style="stroke:#000000;stroke-width:0.705"><path d="M138.14,138.39L137.69,138.39L137.69,136.12L139.95,136.12L139.95,138.39L138.14,138.39"/><path d="M137.69,136.12L138.05,136.12"/><path d="M139.95,138.39L139.59,138.39"/></g></g><g id="Actor_.4"><g style="stroke:#000000;stroke-width:0.353"><path d="M118.48,136.12L119.42,137.06L119.42,137.44L118.48,138.39"/><path d="M119.42,137.44L119.80,137.44L120.75,138.39"/><path d="M119.80,137.44L119.80,137.06L119.42,137.06"/><path d="M119.80,137.06L120.75,136.12"/></g><g style="stroke:#000000;stroke-width:0.705"><path d="M120.75,136.48L120.75,136.15L120.75,138.39L118.48,138.39L118.48,138.03"/><path d="M118.48,138.39L118.48,136.12L120.75,136.12L120.75,136.15"/><path d="M118.48,136.12L118.84,136.12"/><path d="M120.75,138.39L120.39,138.39"/></g></g><g id="Actor_.5"><g style="stroke:#000000;stroke-width:0.353"><path d="M149.56,138.39L148.61,137.44L148.24,137.44L147.29,138.39"/><path d="M148.24,137.44L148.24,137.06L147.29,136.12"/><path d="M148.24,137.06L148.61,137.06L148.61,137.44"/><path d="M148.61,137.06L149.56,136.12"/></g><g style="stroke:#000000;stroke-width:0.705"><path d="M147.35,138.39L147.29,138.39L147.29,136.12L149.56,136.12L149.56,138.39L147.35,138.39"/><path d="M147.29,136.12L147.65,136.12"/><path d="M149.56,138.39L149.20,138.39"/></g></g><g id="Actor_.6"><g style="stroke:#000000;stroke-width:0.353"><path d="M185.71,136.12L186.65,137.06L186.65,137.44L185.71,138.39"/><path d="M186.65,137.06L187.03,137.06L187.03,137.44L186.65,137.44"/><path d="M187.03,137.44L187.97,138.39"/><path d="M187.03,137.06L187.97,136.12"/></g><g style="stroke:#000000;stroke-width:0.705"><path d="M187.97,136.48L187.97,136.15L187.97,138.39L185.71,138.39L185.71,138.03"/><path d="M185.71,138.39L185.71,136.12L186.07,136.12"/><path d="M185.71,136.12L187.97,136.12L187.97,136.15"/><path d="M187.61,138.39L187.97,138.39"/></g></g><g id="Actor_.7"><g style="stroke:#000000;stroke-width:0.353"><path d="M156.89,136.12L157.84,137.06L157.84,137.44L156.89,138.39"/><path d="M159.16,138.39L158.22,137.44L157.84,137.44"/><path d="M158.22,137.44L158.22,137.06L157.84,137.06"/><path d="M158.22,137.06L159.16,136.12"/></g><g style="stroke:#000000;stroke-width:0.705"><path d="M156.89,136.12L159.16,136.12L159.16,138.39L156.89,138.39L156.89,136.12L157.25,136.12"/><path d="M158.80,138.39L159.16,138.39"/></g></g><g id="Actor_.8"><g style="stroke:#000000;stroke-width:0.353"><path d="M130.35,138.39L129.41,137.44L129.03,137.44L128.08,138.39"/><path d="M130.35,136.12L129.41,137.06L129.03,137.06L128.08,136.12"/><path d="M129.03,137.44L129.03,137.06"/><path d="M129.41,137.44L129.41,137.06"/></g><g style="stroke:#000000;stroke-width:0.705"><path d="M130.35,136.48L130.35,136.15L130.35,138.39L128.08,138.39L128.08,138.03"/><path d="M128.08,138.39L128.08,136.12L128.44,136.12"/><path d="M128.08,136.12L130.35,136.12L130.35,136.15"/><path d="M129.99,138.39L130.35,138.39"/></g></g><g id="Actor_.9"><g style="stroke:#000000;stroke-width:0.353"><path d="M53.61,100.07L53.26,103.35L53.26,106.65L53.61,109.93"/><path d="M56.71,119.30L55.35,116.29L54.31,113.16"/><path d="M54.59,114.14L54.63,114.23"/><path d="M55.15,106.55L55.48,109.63L56.13,112.66L57.11,115.60L58.39,118.42L59.96,121.09L61.81,123.58L63.91,125.86L66.08,127.76L66.24,127.90L68.78,129.68L71.49,131.18L74.34,132.39L77.31,133.28L80.36,133.86L83.45,134.10L86.54,134.02L89.62,133.61L92.63,132.87L95.54,131.82L98.33,130.47L100.96,128.82L103.39,126.91L105.61,124.75L107.59,122.36L109.31,119.78L110.73,117.03L111.86,114.14L112.68,111.15L113.17,108.09L113.34,105.00L113.17,101.91L112.68,98.85L111.86,95.86L110.73,92.97L109.31,90.22L107.59,87.64L105.61,85.25L103.39,83.09L100.96,81.18L98.33,79.53L95.55,78.18L92.63,77.13L89.62,76.39L86.54,75.98L83.45,75.90L80.36,76.14L77.31,76.72L74.34,77.61L71.49,78.82L71.37,78.88L68.78,80.32L66.24,82.10L63.91,84.14L61.81,86.42L59.96,88.91L58.39,91.58L57.11,94.40L56.71,95.58L56.13,97.34L55.48,100.37L55.15,103.45L55.15,106.55"/><path d="M56.71,90.70L55.35,93.71L54.31,96.84"/><path d="M54.63,95.77L54.59,95.86"/><path d="M58.38,122.14L60.35,124.79L61.53,126.06L62.59,127.21L65.08,129.39"/><path d="M58.60,122.47L58.71,122.60"/><path d="M58.38,87.86L60.35,85.21L61.53,83.94L62.59,82.79L65.08,80.61"/><path d="M58.71,87.40L58.60,87.53"/><path d="M64.88,129.23L64.89,129.24"/><path d="M64.89,80.76L64.88,80.77"/><path d="M67.78,131.28L70.66,132.88L73.70,134.17"/><path d="M67.78,78.72L70.66,77.12L73.70,75.83"/><path d="M72.86,133.85L72.89,133.86"/><path d="M72.89,76.14L72.86,76.15"/><path d="M76.86,135.12L80.11,135.73L83.40,135.99L86.70,135.91"/><path d="M76.86,74.88L80.11,74.27L83.40,74.01L86.70,74.09"/><path d="M86.25,135.92L86.60,135.91"/><path d="M86.25,74.08L86.60,74.09"/><path d="M89.97,135.47L93.17,134.68L96.28,133.56"/><path d="M96.28,76.44L93.17,75.32L89.97,74.53"/><path d="M95.55,133.86L95.58,133.85"/><path d="M95.58,76.15L95.55,76.14"/><path d="M99.24,132.12L102.04,130.37L104.64,128.33"/><path d="M104.64,81.67L102.04,79.63L99.24,77.88"/><path d="M103.55,129.24L103.60,129.19"/><path d="M103.60,80.81L103.55,80.76"/><path d="M106.97,126.06L106.83,126.20"/><path d="M106.83,83.80L106.97,83.94"/><path d="M109.11,123.49L110.93,120.74L112.46,117.81"/><path d="M112.46,92.19L110.93,89.26L109.11,86.51"/><path d="M113.66,114.74L114.53,111.55L115.05,108.30"/><path d="M115.05,101.70L114.53,98.45L113.66,95.26"/></g><g style="stroke:#000000;stroke-width:0.705"><path d="M105.91,127.10L106.95,126.09L107.00,126.03L104.64,128.33L103.55,129.24L102.04,130.37L99.72,131.85L99.24,132.12L96.28,133.56L95.55,133.86L93.17,134.68L91.12,135.23L89.97,135.47L86.70,135.91L86.54,135.92L83.40,135.99L81.90,135.92L80.11,135.73L77.32,135.23L76.86,135.12L73.70,134.17L72.89,133.86L70.66,132.88L68.72,131.85L67.78,131.28L65.08,129.39L64.89,129.24L62.59,127.21L61.49,126.09L60.35,124.79L58.60,122.47L58.38,122.14L56.71,119.30L56.29,118.45L55.35,116.29L54.59,114.14L54.31,113.16L53.61,109.93L53.56,109.62L53.26,106.65L53.22,105.00L53.26,103.35L53.56,100.38L53.61,100.07L54.31,96.84L54.59,95.86L55.35,93.71L56.29,91.55L56.71,90.70L58.38,87.86L58.60,87.53L60.35,85.21L61.49,83.91L62.59,82.79L64.89,80.76L65.08,80.61L67.78,78.72L68.72,78.15L70.66,77.12L72.89,76.14L73.70,75.83L76.86,74.88L77.32,74.77L80.11,74.27L81.90,74.08L83.40,74.01L86.54,74.08L86.70,74.09L89.97,74.53L91.12,74.77L93.17,75.32L95.55,76.14L96.28,76.44L99.24,77.88L99.72,78.15L102.04,79.63L103.55,80.76L104.64,81.67L106.95,83.91L106.95,83.91L107.00,83.97L106.95,83.91"/><path d="M58.63,109.00L58.32,105.00L58.63,101.00L59.56,97.10L61.07,93.38L64.85,95.56L63.46,99.21L62.76,103.05L62.76,106.95L63.42,110.57L63.46,110.79L64.85,114.44L61.07,116.62L59.56,112.90L58.63,109.00"/><path d="M63.18,120.00L62.59,119.24L66.36,117.06L68.83,120.08L71.80,122.61L75.18,124.56L78.86,125.87L82.71,126.50L82.71,130.86L78.73,130.31L74.89,129.16L71.27,127.43L67.96,125.16L65.04,122.41L63.18,120.00"/><path d="M63.31,91.18L62.59,90.76L65.04,87.59L67.96,84.84L71.27,82.57L74.89,80.84L78.73,79.69L82.71,79.14L82.71,83.50L78.86,84.13L75.18,85.44L71.80,87.39L68.83,89.92L66.36,92.94L63.31,91.18"/><path d="M65.62,111.16L65.27,110.25L64.65,106.84L64.63,103.38L65.22,99.96L66.39,96.71L68.13,93.71L70.36,91.06L73.02,88.85L76.03,87.13L79.29,85.97L82.71,85.40L82.71,89.76L79.56,90.42L76.61,91.71L74.00,93.60L71.84,95.99L70.23,98.78L69.24,101.85L68.91,105.05L69.26,108.25L70.27,111.31L66.49,113.49L65.62,111.16"/><path d="M68.60,116.84L68.00,116.11L71.78,113.93L73.92,116.33L76.52,118.24L79.46,119.55L81.73,120.04L82.61,120.23L85.83,120.23L88.98,119.55L91.92,118.24L94.52,116.33L96.66,113.93L100.44,116.11L98.24,118.79L95.60,121.03L92.61,122.78L89.36,123.98L85.95,124.58L82.49,124.58L79.08,123.98L75.83,122.78L72.84,121.03L70.20,118.79L68.60,116.84"/><path d="M71.37,108.65L71.08,107.74L70.80,105.00L71.08,102.26L71.91,99.64L75.72,101.84L75.21,103.93L75.21,106.07L75.72,108.16L71.91,110.36L71.37,108.65"/><path d="M73.52,113.08L73.43,112.98L77.23,110.78L78.79,112.27L80.65,113.34L82.71,113.95L82.71,118.34L80.02,117.75L77.51,116.62L75.28,115.01L73.52,113.08"/><path d="M73.52,96.92L73.43,97.02L77.23,99.22L78.79,97.73L80.65,96.66L82.71,96.05L82.71,91.66L80.02,92.25L77.51,93.38L75.28,94.99L73.52,96.92"/><path d="M77.04,105.00L77.39,107.22L78.41,109.22L79.76,110.57L80.00,110.81L82.00,111.83L84.22,112.18L86.44,111.83L88.44,110.81L88.69,110.57L90.03,109.22L91.05,107.22L91.41,105.00L91.05,102.78L90.03,100.78L88.44,99.19L86.44,98.17L84.22,97.82L82.00,98.17L80.00,99.19L78.41,100.78L77.39,102.78L77.04,105.00"/><path d="M85.73,130.86L89.71,130.31L93.55,129.16L97.17,127.43L100.48,125.16L103.40,122.41L105.86,119.24L102.08,117.06L99.62,120.08L96.64,122.61L93.26,124.56L89.59,125.87L85.73,126.50L85.73,130.86"/><path d="M85.73,118.34L85.73,113.95L87.80,113.34L89.66,112.27L91.21,110.78L95.02,112.98L93.16,115.01L90.93,116.62L88.42,117.75L85.73,118.34"/><path d="M85.73,96.05L85.73,91.66L88.42,92.25L90.93,93.38L93.16,94.99L95.02,97.02L91.21,99.22L89.66,97.73L87.80,96.66L85.73,96.05"/><path d="M85.73,88.85L85.73,89.76L88.89,90.42L91.84,91.71L94.45,93.60L96.60,95.99L98.22,98.78L99.21,101.85L99.53,105.05L99.19,108.25L98.17,111.31L101.95,113.49L103.17,110.25L103.80,106.84L103.82,103.38L103.23,99.96L102.05,96.71L100.32,93.71L98.09,91.06L95.43,88.85L92.41,87.13L89.15,85.97L85.73,85.40L85.73,88.85"/><path d="M85.73,83.50L85.73,79.14L89.71,79.69L93.55,80.84L97.17,82.57L100.48,84.84L103.40,87.59L105.86,90.76L102.08,92.94L99.62,89.92L96.64,87.39L93.26,85.44L89.59,84.13L85.73,83.50"/><path d="M92.73,108.16L93.23,106.07L93.23,103.93L92.73,101.84L96.53,99.64L97.36,102.26L97.64,105.00L97.36,107.74L96.53,110.36L92.73,108.16"/><path d="M103.60,114.44L107.37,116.62L108.89,112.90L109.81,109.00L110.12,105.00L109.81,101.00L108.89,97.10L107.37,93.38L103.60,95.56L104.98,99.21L105.68,103.05L105.68,106.95L104.98,110.79L103.60,114.42L103.60,114.44"/><path d="M105.91,82.90L106.95,83.91"/><path d="M106.95,126.09L106.95,126.09L106.98,126.06"/><path d="M107.00,126.03L109.11,123.49L109.84,122.47L110.93,120.74L112.16,118.45L112.46,117.81L113.40,115.38L113.66,114.74L113.85,114.14L114.53,111.55L114.88,109.62L115.05,108.30L115.23,105.00L115.05,101.70L114.88,100.38L114.53,98.45L113.85,95.86L113.66,95.26L112.46,92.19L112.16,91.55L110.93,89.26L109.84,87.53L109.11,86.51L107.00,83.97"/></g></g><g id="Actor_.10"><g style="stroke:#000000;stroke-width:0.705"><path d="M52.27,146.97L52.27,63.03L244.73,63.03L244.73,146.97L52.27,146.97"/><path d="M55.26,140.00L54.64,138.86L54.35,137.14L54.64,135.42L55.47,133.89L56.75,132.71L58.34,132.01L60.08,131.86L61.77,132.29L63.23,133.24L64.30,134.62L64.87,136.27L64.87,138.01L64.30,139.66L63.23,141.03L61.77,141.99L60.08,142.41L58.34,142.27L56.75,141.57L55.47,140.39L55.26,140.00"/><path d="M54.87,75.00L54.64,74.58L54.35,72.86L54.64,71.14L55.47,69.61L56.75,68.43L58.34,67.73L60.08,67.59L61.77,68.01L63.23,68.97L64.30,70.34L64.87,71.99L64.94,72.86L64.87,73.73L64.30,75.38L63.23,76.76L61.77,77.71L60.08,78.14L58.34,77.99L56.75,77.29L55.47,76.11L54.87,75.00"/><path d="M232.28,138.46L232.35,138.86L233.18,140.39L234.46,141.57L236.06,142.27L237.79,142.41L239.48,141.99L240.94,141.03L242.01,139.66L242.58,138.01L242.65,137.14L242.58,136.27L242.01,134.62L240.94,133.24L239.44,132.28L237.79,131.86L236.06,132.01L234.46,132.71L233.18,133.89L232.35,135.42L232.06,137.14L232.28,138.46"/><path d="M232.35,74.58L233.18,76.11L234.46,77.29L236.06,77.99L237.79,78.14L239.48,77.71L240.94,76.76L242.01,75.38L242.58,73.73L242.58,71.99L242.01,70.34L240.94,68.97L239.58,68.08L239.48,68.01L237.79,67.59L236.06,67.73L234.46,68.43L233.18,69.61L232.35,71.14L232.06,72.86L232.35,74.58"/></g></g><g id="Actor_.11"><g style="stroke:#000000;stroke-width:0.353"><path d="M181.95,108.30L182.47,111.55L183.34,114.74"/><path d="M183.34,95.26L182.47,98.45L181.95,101.70"/><path d="M184.19,110.31L183.83,108.09L183.66,105.00L183.83,101.91L184.32,98.85L185.14,95.86L186.27,92.97L187.69,90.22L189.41,87.64L191.39,85.25L193.61,83.09L196.04,81.18L198.67,79.53L201.46,78.18L203.29,77.51L204.37,77.13L207.38,76.39L210.46,75.98L213.55,75.90L216.64,76.14L219.69,76.72L222.66,77.61L225.51,78.82L228.22,80.32L230.76,82.10L233.09,84.14L235.19,86.42L237.04,88.91L238.36,91.15L238.61,91.58L239.89,94.40L240.87,97.34L241.52,100.37L241.85,103.45L241.85,106.55L241.52,109.63L240.87,112.66L239.89,115.60L238.61,118.42L237.04,121.09L235.19,123.58L233.09,125.86L230.76,127.90L228.22,129.68L225.51,131.18L222.66,132.39L219.69,133.28L216.64,133.86L213.55,134.10L210.46,134.02L207.38,133.61L204.37,132.87L201.46,131.82L198.67,130.47L196.04,128.82L193.61,126.91L191.39,124.75L189.41,122.36L187.69,119.78L186.27,117.03L185.14,114.14L184.32,111.15L184.19,110.31"/><path d="M187.89,123.49L186.07,120.74L184.54,117.81"/><path d="M187.89,86.51L186.07,89.26L184.54,92.19"/><path d="M190.03,126.06L190.17,126.20"/><path d="M190.17,83.80L190.03,83.94"/><path d="M192.36,128.33L194.96,130.37L197.75,132.12"/><path d="M192.36,81.67L194.96,79.63L197.75,77.88"/><path d="M193.40,129.19L193.45,129.24"/><path d="M193.45,80.76L193.40,80.81"/><path d="M201.42,133.85L201.45,133.86"/><path d="M200.72,133.56L203.83,134.68L207.03,135.47"/><path d="M200.72,76.44L203.83,75.32L207.03,74.53"/><path d="M201.45,76.14L201.42,76.15"/><path d="M210.30,135.91L213.60,135.99L216.89,135.73L220.14,135.12"/><path d="M210.75,135.92L210.40,135.91"/><path d="M210.30,74.09L213.60,74.01L216.89,74.27L220.14,74.88"/><path d="M210.75,74.08L210.40,74.09"/><path d="M223.30,134.17L226.34,132.88L229.22,131.28"/><path d="M223.30,75.83L226.34,77.12L229.22,78.72"/><path d="M224.11,133.86L224.14,133.85"/><path d="M224.14,76.15L224.11,76.14"/><path d="M231.92,129.39L234.41,127.21L235.47,126.06L236.65,124.79L238.62,122.14"/><path d="M232.11,129.24L232.12,129.23"/><path d="M238.62,87.86L236.65,85.21L235.47,83.94L234.41,82.79L231.92,80.61"/><path d="M232.12,80.77L232.11,80.76"/><path d="M238.29,122.60L238.40,122.47"/><path d="M238.40,87.53L238.29,87.40"/><path d="M240.29,119.30L241.65,116.29L242.69,113.16"/><path d="M242.69,96.84L241.65,93.71L240.29,90.70"/><path d="M242.37,114.23L242.41,114.14"/><path d="M242.41,95.86L242.37,95.77"/><path d="M243.39,109.93L243.74,106.65L243.74,103.35L243.39,100.07"/></g><g style="stroke:#000000;stroke-width:0.705"><path d="M190.05,126.09L190.05,126.09L191.09,127.10L190.00,126.03L187.89,123.49L187.16,122.47L186.07,120.74L184.84,118.45L184.54,117.81L183.34,114.74L183.15,114.14L182.47,111.55L182.12,109.62L181.95,108.30L181.77,105.00L181.95,101.70L182.12,100.38L182.47,98.45L183.15,95.86L183.34,95.26L184.54,92.19L184.84,91.55L186.07,89.26L187.16,87.53L187.89,86.51L190.00,83.97L190.05,83.91L191.09,82.90L190.00,83.97"/><path d="M187.61,110.77L187.19,109.00L186.88,105.00L187.19,101.00L188.11,97.10L189.63,93.38L193.40,95.56L192.02,99.21L191.32,103.05L191.32,106.95L192.02,110.79L193.40,114.44L189.63,116.62L188.11,112.90L187.61,110.77"/><path d="M191.09,127.10L192.36,128.33L193.45,129.24L194.96,130.37L197.28,131.85L197.75,132.12L200.72,133.56L201.45,133.86L203.83,134.68L205.88,135.23L207.03,135.47L210.30,135.91L210.46,135.92L213.60,135.99L215.10,135.92L216.89,135.73L219.68,135.23L220.14,135.12L223.30,134.17L224.11,133.86L226.34,132.88L228.28,131.85L229.22,131.28L231.92,129.39L232.11,129.24L234.41,127.21L235.51,126.09L236.65,124.79L238.40,122.47L238.62,122.14L240.29,119.30L240.71,118.45L241.65,116.29L242.41,114.14L242.69,113.16L243.39,109.93L243.44,109.62L243.74,106.65L243.78,105.00L243.74,103.35L243.44,100.38L243.39,100.07L242.69,96.84L242.41,95.86L241.65,93.71L240.71,91.55L240.29,90.70L238.62,87.86L238.40,87.53L236.65,85.21L235.51,83.91L234.41,82.79L232.11,80.76L231.92,80.61L229.22,78.72L228.28,78.15L226.34,77.12L224.11,76.14L223.30,75.83L220.14,74.88L219.68,74.77L216.89,74.27L215.10,74.08L213.60,74.01L210.46,74.08L210.30,74.09L207.03,74.53L205.88,74.77L203.83,75.32L201.45,76.14L200.72,76.44L197.75,77.88L197.28,78.15L194.96,79.63L193.45,80.76L192.36,81.67L191.09,82.90"/><path d="M190.00,126.03L190.05,126.09"/><path d="M190.02,83.94L190.05,83.91L190.05,83.91"/><path d="M192.24,120.66L191.14,119.24L194.92,117.06L197.38,120.08L200.36,122.61L203.74,124.56L207.41,125.87L211.27,126.50L211.27,130.86L207.29,130.31L203.45,129.16L199.83,127.43L196.52,125.16L193.60,122.41L192.24,120.66"/><path d="M192.13,91.33L191.14,90.76L193.60,87.59L196.52,84.84L199.83,82.57L203.45,80.84L207.29,79.69L211.27,79.14L211.27,83.50L207.41,84.13L203.74,85.44L200.36,87.39L197.38,89.92L194.92,92.94L192.13,91.33"/><path d="M193.40,107.89L193.20,106.84L193.18,103.38L193.77,99.96L194.95,96.71L196.68,93.71L198.91,91.06L201.58,88.84L204.59,87.13L207.85,85.97L211.27,85.40L211.27,89.76L208.11,90.42L205.16,91.71L202.55,93.60L200.40,95.99L198.78,98.78L197.79,101.85L197.47,105.05L197.81,108.25L198.83,111.31L195.05,113.49L193.83,110.25L193.40,107.89"/><path d="M196.85,115.94L196.56,116.11L198.76,118.79L201.40,121.03L204.39,122.78L207.64,123.98L211.05,124.58L214.51,124.58L217.92,123.98L221.17,122.78L224.16,121.03L226.80,118.79L229.00,116.11L225.22,113.93L223.08,116.33L220.48,118.24L217.54,119.55L215.27,120.04L214.39,120.23L211.17,120.23L208.02,119.55L205.08,118.24L202.48,116.33L200.34,113.93L196.85,115.94"/><path d="M200.24,109.62L199.64,107.74L199.36,105.00L199.64,102.26L200.47,99.64L204.27,101.84L203.77,103.93L203.77,106.07L204.27,108.16L200.47,110.36L200.24,109.62"/><path d="M202.60,112.62L201.98,112.98L203.84,115.01L206.07,116.62L208.58,117.75L211.27,118.34L211.27,113.95L209.20,113.34L207.34,112.27L205.79,110.78L202.60,112.62"/><path d="M202.07,96.92L201.98,97.02L205.79,99.22L207.34,97.73L209.20,96.66L211.27,96.05L211.27,91.66L208.58,92.25L206.07,93.38L203.84,94.99L202.07,96.92"/><path d="M205.99,107.31L205.95,107.22L205.59,105.00L205.95,102.78L206.97,100.78L208.31,99.43L208.56,99.19L210.56,98.17L212.78,97.82L215.00,98.17L217.00,99.19L217.24,99.43L218.59,100.78L219.61,102.78L219.96,105.00L219.61,107.22L218.72,108.97L218.59,109.22L217.00,110.81L215.00,111.83L212.78,112.18L210.56,111.83L208.56,110.81L206.97,109.22L205.99,107.31"/><path d="M214.29,130.86L214.29,126.50L218.14,125.87L221.82,124.56L225.20,122.61L228.17,120.08L230.64,117.06L234.41,119.24L231.96,122.41L229.04,125.16L225.73,127.43L222.11,129.16L218.27,130.31L214.29,130.86"/><path d="M215.27,118.12L214.29,118.34L214.29,113.95L216.35,113.34L218.21,112.27L219.77,110.78L223.57,112.98L221.72,115.01L219.49,116.62L216.98,117.75L215.27,118.12"/><path d="M214.29,96.05L216.35,96.66L218.21,97.73L219.77,99.22L223.57,97.02L221.72,94.99L219.49,93.38L216.98,92.25L214.29,91.66L214.29,96.05"/><path d="M214.29,88.85L214.29,89.76L217.44,90.42L220.39,91.71L223.00,93.60L225.16,95.99L226.77,98.78L227.76,101.85L228.09,105.05L227.74,108.25L226.73,111.31L230.51,113.49L231.73,110.25L232.35,106.84L232.37,103.38L231.78,99.96L231.59,99.43L230.61,96.71L228.87,93.71L226.64,91.06L223.99,88.85L220.97,87.13L217.71,85.97L214.29,85.40L214.29,88.85"/><path d="M214.29,83.50L218.14,84.13L221.82,85.44L225.20,87.39L228.17,89.92L230.64,92.94L234.41,90.76L231.96,87.59L229.04,84.84L225.73,82.57L222.11,80.84L218.27,79.69L214.29,79.14L214.29,83.50"/><path d="M221.80,108.46L225.09,110.36L225.92,107.74L226.20,105.00L225.92,102.26L225.09,99.64L221.28,101.84L221.79,103.93L221.79,106.07L221.28,108.16L221.80,108.46"/><path d="M232.15,114.44L233.54,110.79L234.24,106.95L234.24,103.05L233.58,99.43L233.54,99.21L232.15,95.56L235.93,93.38L237.44,97.10L238.37,101.00L238.68,105.00L238.37,109.00L237.44,112.90L235.93,116.62L232.15,114.44"/></g></g><g><g/></g><g/><g id="paperID" visibility="hidden" opacity="0.00" transform="scale(0.000100)"><path style="stroke:#000000;stroke-width:0.500;fill:#e6e6e6;fill-rule:evenodd" d="M-2000.00,-2000.00L2297.00,-2000.00L2297.00,2210.00L-2000.00,2210.00zM0.00,0.00L297.00,0.00L297.00,210.00L0.00,210.00z"/><path style="fill:#000000;fill-opacity:0.118" d="M3.00,210.00L297.00,210.00L297.00,3.00L300.00,3.00L300.00,213.00L3.00,213.00z"/></g><g id="ToolTip" visibility="hidden" opacity="0" transform="translate(0,0)"><rect id="ToolTipShadow" opacity="0.20" fill="black" stroke="none" x="0" y="0" width="30" height="8"/><rect id="ToolTipBG" fill="#ffffe1" stroke="black" x="0" y="0" width="30" height="8"/><text xml:space="preserve" id="ToolTipText" fill="black" x="0" y="0" width="30" height="8">tooltip</text></g></g></svg>
