<?xml version="1.0" encoding="UTF-8" standalone="no"?>
<svg xmlns="http://www.w3.org/2000/svg" xmlns:xlink="http://www.w3.org/1999/xlink" width="297.000mm" height="210.000mm" viewBox="0.000000 0.000000 297.000000 210.000000" stroke-linejoin="round" stroke-linecap="round" fill="none" fill-rule="evenodd"><desc>3DVIA Composer Export</desc><script type="text/ecmascript"><![CDATA[
if(typeof(top) != "undefined")
{
	top.ShowPaper = ShowPaper;
}
function ShowHotSpot(evt,hotspotid)
{
	var svgDocument = evt.target.ownerDocument;
	var strId = "hotspot."+hotspotid;
	var hotspot = svgDocument.getElementById(strId);
	if(hotspot)
		hotspot.setAttribute("opacity",".5");
}
function HideHotSpot(evt,hotspotid)
{
	var svgDocument = evt.target.ownerDocument;
	var strId = "hotspot."+hotspotid;
	var hotspot = svgDocument.getElementById(strId);
	if(hotspot)
		hotspot.setAttribute("opacity","0");

	var toolTip = svgDocument.getElementById('ToolTip');
	if(toolTip)
		toolTip.setAttribute("visibility","hidden");
}
function ShowToolTip(evt,hotspotid,strTooltip)
{
	if(strTooltip=="")
	return;

	// change text
	var svgDocument = evt.target.ownerDocument;
	var tiptext = svgDocument.getElementById('ToolTipText');
	if( !tiptext )
	return;
	tiptext.firstChild.nodeValue = " " + strTooltip + "  " ;

	// show tooltip before, else some refresh issue

	var toolTip = svgDocument.getElementById('ToolTip');
	if(!toolTip)
	return;

	toolTip.setAttribute("visibility","visible");
	toolTip.setAttribute("opacity",".95");

	// move tooltip
	// get viewbox

	var root = svgDocument.documentElement;
	var vbox = (root.getAttribute("viewBox")).split(' ');
	var x0 = parseFloat(vbox[0]);
	var y0 = parseFloat(vbox[1]);
	var vboxW = parseFloat(vbox[2]);
	var vboxH = parseFloat(vbox[3]);

	// get default width of svg

	var strW = root.getAttribute("width");
	var svgW = parseFloat(strW);
	if(strW.indexOf('mm') != -1)
	svgW *= 3.779;

	var strH = root.getAttribute("height");
	var svgH = parseFloat(strH);
	if(strH.indexOf('mm') != -1)
	svgH *= 3.779;  	// 96 dpi  -> 96/25.4 = 3.779

	// update the viewbox / width / height if svg is embedded in html with zoom fit all
	var realx0 = x0;
	var realy0 = y0;
	var realvboxW = vboxW;
	var realvboxH = vboxH;
	var realsvgW = svgW;
	var realsvgH = svgH;

	if ((typeof(top) == "undefined") || (typeof(top.svgctl1) != "undefined")) // embedded in html
	{
		// get window size in pxl

		svgW = window.innerWidth;
		svgH = window.innerHeight;

		// calculate real viewbox

		realsvgW = svgW;
		realsvgH = svgH;
		if((svgW / svgH) > (vboxW / vboxH))
		{
			realvboxW = (vboxH * svgW) / svgH;
			realvboxH = vboxH;
			realx0 = x0 - (realvboxW - vboxW)/2 ;
		}
		else
		{
			realvboxH = (vboxW * svgH) / svgW;
			realvboxW = vboxW;
			realy0 = y0 - (realvboxH - vboxH)/2 ;
		}
	}

	// get user zoom/pan

	var newScale = root.currentScale;
	var translation = root.currentTranslate;

	// transform pxl to user unit

	var xPos = (((evt.clientX+10- translation.x)/newScale) * realvboxW)/realsvgW  + realx0 ;
	var yPos = (((evt.clientY+5- translation.y)/newScale) * realvboxH)/ realsvgH  + realy0 ;
	var scaleForWidth = ( (1 / newScale) * realvboxH) / realsvgH;

	// move tooltip

	toolTip.setAttribute("transform", "translate(" + xPos + "," + yPos + ")" );

	// resize tooltip

	var fontsize = 12;
	tiptext.setAttribute("font-size",fontsize*scaleForWidth);
	tiptext.setAttribute("y", fontsize*scaleForWidth);
	var tipBG = svgDocument.getElementById('ToolTipBG');
	var outline = tiptext.getBBox();
	if(tipBG)
	{
		tipBG.setAttribute("stroke-width", 1*scaleForWidth);
		tipBG.setAttribute("width", Number(outline.width) );
		tipBG.setAttribute("height", Number(outline.height) + fontsize*.5*scaleForWidth );
	}
	var ToolTipShadow = svgDocument.getElementById('ToolTipShadow');
	if(ToolTipShadow)
	{
		ToolTipShadow.setAttribute("width", Number(outline.width) );
		ToolTipShadow.setAttribute("height", Number(outline.height) + fontsize*.5*scaleForWidth );
		ToolTipShadow.setAttribute("x", 3*scaleForWidth);
		ToolTipShadow.setAttribute("y", 3*scaleForWidth);
	}
}
function ShowPaper()
{
  var svgDocument = getDocument();
  var paper = svgDocument.getElementById("paperID");
  if(paper)
  {
    paper.setAttribute("transform","scale(1)");
    paper.setAttribute("opacity","1");
    paper.setAttribute("visibility","visible");
  }
  var svg = svgDocument.getRootElement();
  if(svg)
  {
    svg.setAttribute("width","307.000mm");
    svg.setAttribute("height","220.000mm");
    svg.setAttribute("viewBox","-5.000000 -5.000000 307.000000 220.000000");
  }
}
]]></script><defs/><g><path style="fill:#dcdcdc;fill-rule:evenodd" d="M107.80,28.81L108.34,30.95L106.70,31.95L106.27,31.93L105.99,31.15L105.99,29.39L106.43,28.80L107.35,28.55zM112.89,51.04L111.44,53.48L110.40,56.57L109.89,59.95L109.89,64.26L110.40,68.15L111.95,74.11L113.77,78.49L114.04,79.34L112.74,80.13L111.89,80.40L109.36,73.85L108.34,69.44L107.82,65.82L107.82,60.72L108.26,57.80L109.37,54.52L110.44,52.73L112.11,50.78L113.73,49.48L114.02,49.48zM222.71,95.05L223.02,97.22L221.71,98.03L221.10,98.26L220.59,96.59L221.02,95.26L222.24,94.80zM181.05,103.68L181.55,100.04L182.78,96.61L183.67,95.17L185.18,93.32L186.95,91.92L187.26,91.92L186.12,93.48L184.68,95.92L183.62,99.01L183.38,100.83L183.38,108.00L183.63,110.07L184.66,114.48L187.29,121.54L185.89,122.51L185.12,122.58L183.11,117.58L181.56,111.63L181.05,107.48zM91.81,111.33L91.79,113.52L88.58,113.68L85.81,114.79L84.81,115.86L84.51,115.55L84.52,114.01L85.07,113.01L86.26,112.13L88.06,111.35L91.55,111.07zM103.71,121.53L102.30,121.45L99.98,121.97L98.91,122.76L98.44,122.85L98.22,122.53L98.23,121.00L99.19,119.89L101.26,119.12L103.69,119.11zM111.93,129.55L112.68,128.21L113.94,127.39L114.98,127.15L117.41,127.13L117.41,129.31L115.50,129.47L113.69,129.99L112.63,130.78L112.23,130.79zM120.00,133.45L120.66,132.56L123.52,131.54L125.43,131.53L125.43,133.97L122.74,134.13L120.65,135.17L119.99,135.20zM144.32,137.74L144.32,139.92L139.83,140.08L137.24,140.61L134.39,141.63L132.04,143.16L130.35,145.38L130.33,143.52L130.73,142.37L132.68,140.19L135.17,138.79L139.05,137.76L142.22,137.48zM160.64,154.39L159.50,154.31L156.90,154.83L155.84,155.62L155.37,155.71L155.15,155.39L155.19,153.90L155.86,153.01L157.43,152.26L158.19,151.98L160.62,151.98zM168.41,156.61L168.38,158.81L166.22,158.97L164.66,159.49L163.61,160.28L163.21,160.29L162.91,159.05L163.73,157.52L165.69,156.64L168.13,156.34zM182.38,164.63L182.36,166.83L178.89,167.25L177.58,168.03L176.92,168.06L176.93,166.32L177.59,165.43L179.41,164.66L182.12,164.38zM187.50,173.80L188.31,172.27L190.28,171.13L192.62,170.62L194.78,170.61L194.78,173.04L191.57,173.20L189.33,174.06L187.79,175.38L187.50,174.78zM231.18,167.78L229.99,169.70L195.48,189.79L191.05,189.86L191.05,187.43L195.74,187.20L229.18,167.85L229.44,101.35L231.28,100.49z"/><g id="Actor_.0"><g style="stroke:#000000;stroke-width:0.353"><path d="M67.77,116.04L190.99,187.18L190.99,189.64"/><path d="M84.30,114.37L84.65,113.30L85.53,112.34L86.14,111.93L86.86,111.57L88.52,111.07L90.37,110.87L92.24,110.99L93.97,111.43L95.39,112.13L96.39,113.05L96.88,114.10"/><path d="M98.02,121.67L98.21,120.77L98.91,119.95L99.42,119.60L100.03,119.30L101.45,118.90L103.02,118.79L104.57,118.97L105.93,119.44L106.95,120.14L107.53,120.99L107.59,121.90"/><path d="M229.23,170.01L229.23,167.56L101.76,93.96"/><path d="M106.70,28.44L106.18,28.80L105.87,29.43L105.80,30.28L105.99,31.25L106.41,32.24L107.02,33.13L107.75,33.84L108.52,34.29L109.25,34.42L109.85,34.22"/><path d="M144.38,100.96L142.26,102.02L139.89,102.59L137.31,102.64L134.58,102.19L131.74,101.23L128.85,99.79L125.95,97.89L123.11,95.57L120.38,92.87L119.50,91.83L117.81,89.84L115.44,86.54L113.32,83.04L111.49,79.38L109.98,75.65L108.83,71.93L108.59,70.77L108.05,68.24L107.65,64.69L107.65,61.34L108.05,58.25L108.83,55.48L109.98,53.08L111.37,51.24L111.49,51.09L113.32,49.55"/><path d="M190.99,187.18L195.24,187.18L229.23,167.56L229.23,101.32L222.86,90.28L108.13,24.04"/><path d="M111.83,129.65L112.02,128.74L112.72,127.92L113.23,127.57L113.84,127.27L115.26,126.87L116.83,126.76L118.38,126.95L119.74,127.41L120.76,128.11L121.34,128.96L121.40,129.88"/><path d="M119.69,134.19L119.88,133.28L120.58,132.46L121.09,132.11L121.70,131.81L123.12,131.41L124.69,131.30L126.24,131.49L127.62,131.97L128.62,132.65L129.20,133.50L129.26,134.41"/><path d="M130.11,144.06L130.46,142.58L131.36,141.17L132.76,139.90L133.63,139.34L134.58,138.85L136.79,138.04L139.22,137.52L141.80,137.32L144.39,137.44L146.87,137.88L149.14,138.62L151.07,139.62L152.59,140.84L153.62,142.22L154.11,143.69"/><path d="M154.96,154.55L155.15,153.64L155.85,152.82L156.36,152.47L156.97,152.17L158.39,151.77L159.96,151.66L161.51,151.85L162.87,152.32L163.89,153.01L164.47,153.86L164.53,154.78"/><path d="M162.82,159.09L163.01,158.18L163.71,157.36L164.22,157.01L164.83,156.71L166.25,156.31L167.82,156.20L169.38,156.39L170.73,156.85L171.75,157.55L172.33,158.40L172.39,159.32"/><path d="M176.63,167.06L176.82,166.15L177.50,165.35L178.03,164.98L178.64,164.69L180.06,164.28L181.63,164.17L183.18,164.36L184.54,164.83L185.56,165.52L186.14,166.37L186.20,167.29"/><path d="M217.67,143.28L215.55,144.34L213.18,144.91L210.61,144.96L207.88,144.51L205.04,143.55L202.15,142.11L199.25,140.21L196.63,138.07L196.41,137.89L193.68,135.19L191.11,132.16L188.74,128.86L186.62,125.35L184.79,121.70L183.28,117.97L182.13,114.23L181.34,110.56L180.95,107.01L180.95,105.58L180.95,103.66L181.34,100.57L182.13,97.80L183.28,95.40L184.79,93.40L186.62,91.86"/><path d="M187.34,173.86L187.69,172.79L188.57,171.83L189.11,171.52L189.90,171.07L191.56,170.56L193.41,170.36L195.28,170.48L197.00,170.91L198.43,171.62L199.43,172.54L199.92,173.59"/><path d="M195.24,189.64L195.24,187.18"/><path d="M221.42,94.68L220.90,95.03L220.60,95.67L220.53,96.52L220.72,97.49L221.14,98.47L221.75,99.37L222.47,100.08L222.86,100.34L223.24,100.52L223.97,100.66L224.58,100.46"/><path d="M222.86,90.28L224.98,89.05"/><path d="M229.23,167.56L231.36,166.33"/><path d="M229.23,101.32L231.36,100.09"/></g><g style="stroke:#000000;stroke-width:0.705"><path d="M102.00,27.59L110.26,22.82L224.98,89.05L231.36,100.09L231.36,166.33L231.25,167.15L230.95,168.01L230.48,168.82L229.89,169.51L229.23,170.01L195.24,189.64L190.99,189.64L67.77,118.49L67.77,113.59L101.76,93.96L101.76,27.72L102.09,27.53L101.82,27.69"/><path d="M96.88,114.10L96.81,115.18L96.18,116.21L95.07,117.08L93.55,117.73L91.78,118.09L89.90,118.13L88.08,117.84L86.49,117.27L85.26,116.44L84.51,115.45L84.30,114.37"/><path d="M84.70,115.70L85.53,114.80L86.14,114.38L86.86,114.03L88.52,113.52L90.37,113.32L92.24,113.44L93.97,113.88L95.39,114.58L96.39,115.50L96.49,115.71"/><path d="M98.02,121.67L98.34,122.57L99.15,123.35L100.36,123.94L101.84,124.28L103.42,124.31L104.93,124.05L106.22,123.52L107.14,122.78L107.59,121.90"/><path d="M107.10,122.81L106.95,122.59L105.93,121.90L104.57,121.43L103.02,121.24L101.45,121.35L100.03,121.75L99.42,122.05L98.91,122.40L98.58,122.79"/><path d="M103.56,26.68L104.41,26.19"/><path d="M106.70,28.44L107.37,28.41L108.13,28.70L108.89,29.29L109.57,30.10L110.09,31.06L110.40,32.05L110.46,32.97L109.87,32.62L109.15,31.91L108.54,31.01L108.12,30.02L107.93,29.05L107.96,28.64"/><path d="M107.89,24.18L109.05,23.51"/><path d="M144.85,100.56L144.38,100.80L142.01,101.36L139.44,101.42L136.64,100.94L133.86,100.00L130.97,98.56L128.08,96.66L125.24,94.34L122.52,91.66L120.66,89.47L119.93,88.62L117.56,85.32L115.45,81.81L113.62,78.15L112.11,74.42L110.95,70.68L110.17,67.01L109.78,63.46L109.78,62.65L109.78,60.12L110.17,57.03L110.95,54.25L112.11,51.85L113.62,49.86L114.96,48.73L113.32,49.55"/><path d="M109.85,34.22L110.27,33.72L110.46,32.97"/><path d="M121.40,129.88L120.95,130.75L120.03,131.49L118.74,132.03L117.23,132.29L115.64,132.25L114.17,131.92L112.96,131.33L112.15,130.54L111.83,129.65"/><path d="M120.91,130.78L120.76,130.57L119.74,129.87L118.38,129.40L116.83,129.21L115.26,129.33L113.84,129.73L113.23,130.02L112.72,130.37L112.39,130.77"/><path d="M114.96,48.73L115.44,48.48L117.81,47.92L120.38,47.87L123.11,48.32L125.95,49.28L128.85,50.72L131.74,52.62L134.58,54.94L137.31,57.64L139.89,60.67L142.14,63.81L144.38,67.47L146.21,71.13L147.71,74.86L148.87,78.60L149.65,82.27L150.04,85.86L150.04,89.17L149.65,92.26L148.87,95.03L147.71,97.43L146.21,99.42L144.38,100.96"/><path d="M120.25,135.31L120.58,134.91L121.09,134.56L121.70,134.27L123.12,133.86L124.69,133.75L126.24,133.94L127.62,134.42L128.62,135.10L128.77,135.32L127.89,136.03L126.60,136.56L125.09,136.83L123.51,136.79L122.03,136.46L120.83,135.87L120.01,135.08L119.69,134.19"/><path d="M128.77,135.32L129.26,134.41"/><path d="M154.11,143.69L154.04,145.19L153.55,146.31L153.41,146.65L152.25,147.99L150.62,149.16L148.60,150.10L146.27,150.77L143.75,151.13L141.15,151.17L138.60,150.89L136.21,150.29L134.10,149.42L132.37,148.30L131.10,147.01L130.33,145.58L130.46,145.03L131.36,143.62L132.76,142.36L133.63,141.80L134.58,141.31L136.79,140.49L139.22,139.97L141.80,139.77L144.39,139.89L146.87,140.33L149.14,141.07L151.07,142.07L152.59,143.29L153.62,144.67L153.90,145.51"/><path d="M130.33,145.58L130.11,144.06"/><path d="M154.96,154.55L155.28,155.44L156.09,156.23L157.30,156.82L158.77,157.15L160.35,157.19L161.87,156.93L163.16,156.40L164.08,155.65L164.53,154.78"/><path d="M155.51,155.67L155.85,155.27L156.36,154.92L156.97,154.63L158.39,154.23L159.96,154.11L161.51,154.30L162.87,154.77L163.89,155.47L164.04,155.68"/><path d="M162.82,159.09L163.14,159.98L163.95,160.76L165.16,161.36L166.63,161.69L168.22,161.73L169.73,161.46L171.02,160.93L171.94,160.19L172.39,159.32"/><path d="M171.90,160.22L171.75,160.00L170.73,159.31L169.38,158.84L167.82,158.65L166.25,158.76L164.83,159.17L164.22,159.46L163.71,159.81L163.38,160.21"/><path d="M186.20,167.29L185.75,168.16L184.83,168.91L183.54,169.44L182.03,169.70L180.44,169.66L178.97,169.33L177.76,168.74L176.95,167.95L176.63,167.07"/><path d="M185.71,168.20L185.56,167.98L184.54,167.28L183.18,166.81L181.63,166.63L180.06,166.74L178.64,167.14L178.03,167.44L177.50,167.80L177.18,168.18"/><path d="M217.67,143.28L218.11,142.91L217.68,143.12L215.31,143.68L212.73,143.73L209.99,143.27L207.16,142.32L204.27,140.88L201.38,138.98L198.54,136.66L195.81,133.96L193.23,130.93L190.86,127.64L188.75,124.14L186.91,120.47L185.41,116.74L184.25,113.00L183.47,109.33L183.07,105.78L183.07,102.43L183.47,99.35L184.25,96.57L185.41,94.17L186.91,92.18L188.26,91.04"/><path d="M186.62,91.86L188.74,90.80L191.11,90.24L193.68,90.18L196.41,90.64L199.25,91.60L202.15,93.04L205.04,94.94L207.88,97.26L210.61,99.96L212.43,102.10L213.18,102.99L215.55,106.28L217.67,109.79L219.50,113.45L221.01,117.18L222.17,120.92L222.95,124.59L223.34,128.14L223.34,131.48L222.94,134.59L222.17,137.35L221.01,139.75L219.50,141.74L218.11,142.91L218.15,142.88"/><path d="M187.74,175.19L188.57,174.29L189.90,173.52L191.56,173.01L193.41,172.81L195.28,172.93L197.00,173.37L198.43,174.07L199.43,174.99L199.53,175.20L199.23,175.70L198.11,176.57L196.59,177.22L194.82,177.58L192.94,177.62L191.13,177.34L189.53,176.76L188.30,175.94L187.55,174.94L187.34,173.86"/><path d="M199.53,175.20L199.85,174.68L199.92,173.59"/><path d="M221.42,94.68L222.10,94.65L222.86,94.94L223.62,95.53L224.30,96.34L224.82,97.29L225.13,98.29L225.19,99.21L224.60,98.85L223.87,98.14L223.26,97.25L222.84,96.26L222.66,95.29L222.69,94.88"/><path d="M224.58,100.46L225.00,99.96L225.19,99.21"/></g></g><g><g/></g><g/><g id="paperID" visibility="hidden" opacity="0.00" transform="scale(0.000100)"><path style="stroke:#000000;stroke-width:0.500;fill:#e6e6e6;fill-rule:evenodd" d="M-2000.00,-2000.00L2297.00,-2000.00L2297.00,2210.00L-2000.00,2210.00zM0.00,0.00L297.00,0.00L297.00,210.00L0.00,210.00z"/><path style="fill:#000000;fill-opacity:0.118" d="M3.00,210.00L297.00,210.00L297.00,3.00L300.00,3.00L300.00,213.00L3.00,213.00z"/></g><g id="ToolTip" visibility="hidden" opacity="0" transform="translate(0,0)"><rect id="ToolTipShadow" opacity="0.20" fill="black" stroke="none" x="0" y="0" width="30" height="8"/><rect id="ToolTipBG" fill="#ffffe1" stroke="black" x="0" y="0" width="30" height="8"/><text xml:space="preserve" id="ToolTipText" fill="black" x="0" y="0" width="30" height="8">tooltip</text></g></g></svg>
