<?xml version="1.0" encoding="UTF-8" standalone="no"?>
<!-- Generator: Adobe Illustrator 23.0.2, SVG Export Plug-In . SVG Version: 6.00 Build 0)  -->

<svg
   xmlns:dc="http://purl.org/dc/elements/1.1/"
   xmlns:cc="http://creativecommons.org/ns#"
   xmlns:rdf="http://www.w3.org/1999/02/22-rdf-syntax-ns#"
   xmlns:svg="http://www.w3.org/2000/svg"
   xmlns="http://www.w3.org/2000/svg"
   xmlns:xlink="http://www.w3.org/1999/xlink"
   xmlns:sodipodi="http://sodipodi.sourceforge.net/DTD/sodipodi-0.dtd"
   xmlns:inkscape="http://www.inkscape.org/namespaces/inkscape"
   version="1.1"
   id="图层_1"
   x="0px"
   y="0px"
   viewBox="0 0 592 575"
   style="enable-background:new 0 0 592 575;"
   xml:space="preserve"
   inkscape:version="0.48.1 "
   width="100%"
   height="100%"
   sodipodi:docname="掌控板.svg"><metadata
   id="metadata451"><rdf:RDF><cc:Work
       rdf:about=""><dc:format>image/svg+xml</dc:format><dc:type
         rdf:resource="http://purl.org/dc/dcmitype/StillImage" /></cc:Work></rdf:RDF></metadata><defs
   id="defs449">
	
	
	
	
	
	
	
	
	
	
	
	
	
	
	
	
	

		
		
		
		
		
		
		
		
	
		<linearGradient
   id="SVGID_1_"
   gradientUnits="userSpaceOnUse"
   x1="296"
   y1="513"
   x2="296"
   y2="76">
			<stop
   offset="0"
   style="stop-color:#252525"
   id="stop49" />
			<stop
   offset="1"
   style="stop-color:#434343"
   id="stop51" />
		</linearGradient>
		
		
		
	<linearGradient
   inkscape:collect="always"
   xlink:href="#SVGID_1_"
   id="linearGradient3249"
   gradientUnits="userSpaceOnUse"
   x1="296"
   y1="513"
   x2="296"
   y2="76" />
	<defs
   id="defs311">
		<path
   d="M510.9,513H80.7C67.6,513,57,502.4,57,489.3V435h478v53.9C535,502.2,524.2,513,510.9,513z"
   id="SVGID_7_" />
	</defs>
	<clipPath
   id="SVGID_8_">
		<use
   id="use315"
   style="overflow:visible;"
   xlink:href="#SVGID_7_" />
	</clipPath>
	
	
	
	
	
	<linearGradient
   y2="493"
   x2="107.5"
   y1="512"
   x1="107.5"
   gradientUnits="userSpaceOnUse"
   id="SVGID_10_">
		<stop
   id="stop337"
   style="stop-color:#C69E56"
   offset="0.5825" />
		<stop
   id="stop339"
   style="stop-color:#F3C36B"
   offset="0.9962" />
	</linearGradient>
	
	
	
		<linearGradient
   gradientTransform="matrix(0,-1,1,0,-1508.5,-1361.5)"
   y2="1666.5"
   x2="-1803.5"
   y1="1666.5"
   x1="-1848.5"
   gradientUnits="userSpaceOnUse"
   id="SVGID_11_">
		<stop
   id="stop346"
   style="stop-color:#C69E56"
   offset="0.5825" />
		<stop
   id="stop348"
   style="stop-color:#F3C36B"
   offset="0.9962" />
	</linearGradient>
	
	<linearGradient
   y2="442"
   x2="168.75"
   y1="510"
   x1="168.75"
   gradientUnits="userSpaceOnUse"
   id="SVGID_12_">
		<stop
   id="stop353"
   style="stop-color:#C69E56"
   offset="0.5825" />
		<stop
   id="stop355"
   style="stop-color:#F3C36B"
   offset="0.9962" />
	</linearGradient>
	
	
	
	<linearGradient
   y2="464"
   x2="223"
   y1="511"
   x1="223"
   gradientUnits="userSpaceOnUse"
   id="SVGID_13_">
		<stop
   id="stop364"
   style="stop-color:#C69E56"
   offset="0.5825" />
		<stop
   id="stop366"
   style="stop-color:#F3C36B"
   offset="0.9962" />
	</linearGradient>
	
	<linearGradient
   y2="464"
   x2="270"
   y1="511"
   x1="270"
   gradientUnits="userSpaceOnUse"
   id="SVGID_14_">
		<stop
   id="stop371"
   style="stop-color:#C69E56"
   offset="0.5825" />
		<stop
   id="stop373"
   style="stop-color:#F3C36B"
   offset="0.9962" />
	</linearGradient>
	
	<linearGradient
   y2="443"
   x2="247.0845"
   y1="512"
   x1="247.0845"
   gradientUnits="userSpaceOnUse"
   id="SVGID_15_">
		<stop
   id="stop378"
   style="stop-color:#C69E56"
   offset="0.5825" />
		<stop
   id="stop380"
   style="stop-color:#F3C36B"
   offset="0.9962" />
	</linearGradient>
	
	
	<linearGradient
   y2="441.5"
   x2="411"
   y1="513.5"
   x1="411"
   gradientUnits="userSpaceOnUse"
   id="SVGID_16_">
		<stop
   id="stop387"
   style="stop-color:#C69E56"
   offset="0.5825" />
		<stop
   id="stop389"
   style="stop-color:#F3C36B"
   offset="0.9962" />
	</linearGradient>
	
	
	<linearGradient
   y2="495"
   x2="329.5"
   y1="512"
   x1="329.5"
   gradientUnits="userSpaceOnUse"
   id="SVGID_17_">
		<stop
   id="stop396"
   style="stop-color:#C69E56"
   offset="0.5825" />
		<stop
   id="stop398"
   style="stop-color:#F3C36B"
   offset="0.9962" />
	</linearGradient>
	
	
	<linearGradient
   y2="443"
   x2="329.5"
   y1="460"
   x1="329.5"
   gradientUnits="userSpaceOnUse"
   id="SVGID_18_">
		<stop
   id="stop405"
   style="stop-color:#C69E56"
   offset="0.5825" />
		<stop
   id="stop407"
   style="stop-color:#F3C36B"
   offset="0.9962" />
	</linearGradient>
	
	
	<linearGradient
   y2="441"
   x2="329.5"
   y1="514"
   x1="329.5"
   gradientUnits="userSpaceOnUse"
   id="SVGID_19_">
		<stop
   id="stop414"
   style="stop-color:#C69E56"
   offset="0.5825" />
		<stop
   id="stop416"
   style="stop-color:#F3C36B"
   offset="0.9962" />
	</linearGradient>
	
	<linearGradient
   y2="442"
   x2="493.5"
   y1="515"
   x1="493.5"
   gradientUnits="userSpaceOnUse"
   id="SVGID_20_">
		<stop
   id="stop421"
   style="stop-color:#C69E56"
   offset="0.5825" />
		<stop
   id="stop423"
   style="stop-color:#F3C36B"
   offset="0.9962" />
	</linearGradient>
	
</defs><sodipodi:namedview
   pagecolor="#ffffff"
   bordercolor="#666666"
   borderopacity="1"
   objecttolerance="10"
   gridtolerance="10"
   guidetolerance="10"
   inkscape:pageopacity="0"
   inkscape:pageshadow="2"
   inkscape:window-width="1920"
   inkscape:window-height="1017"
   id="namedview447"
   showgrid="true"
   inkscape:zoom="1.387159"
   inkscape:cx="345.62034"
   inkscape:cy="289.42335"
   inkscape:window-x="1912"
   inkscape:window-y="-8"
   inkscape:window-maximized="1"
   inkscape:current-layer="图层_1" />
<style
   type="text/css"
   id="style3">
	.st0{fill:#ABB2B3;stroke:#050505;stroke-miterlimit:10;}
	.st1{fill:#B3B3B3;}
	.st2{fill:#C6C6C6;stroke:#CCCCCC;stroke-width:0.4;}
	.st3{fill:#666666;stroke:#CCCCCC;stroke-width:0.4;}
	.st4{fill:#E6E6E6;stroke:#CCCCCC;stroke-width:0.4978;}
	.st5{fill:#1A1A1A;}
	.st6{fill:#808080;}
	.st7{fill:#C6C6C6;}
	.st8{fill:#CCCCCC;}
	.st9{fill:#DDDDDD;}
	.st10{fill:#999999;}
	.st11{fill:#F9F8F2;}
	.st12{fill:#68686F;stroke:#050505;stroke-width:0.7;stroke-miterlimit:10;}
	.st13{fill:#80807F;}
	.st14{fill:#ABB2B3;}
	.st15{fill:url(#SVGID_1_);}
	.st16{fill:#FBE37D;stroke:#070707;stroke-width:0.6;stroke-miterlimit:10;}
	.st17{fill:#FFFFFF;}
	.st18{fill:#454549;}
	.st19{fill:url(#SVGID_2_);}
	.st20{fill:url(#SVGID_3_);}
	.st21{fill:#222224;}
	.st22{fill:#89898B;}
	.st23{fill:#040403;}
	.st24{fill:#1B1B1B;}
	.st25{fill:#413E4F;}
	.st26{fill:#17171D;}
	.st27{fill:#71F4F6;}
	.st28{fill:#F9F9F9;stroke:#000000;stroke-width:0.5;stroke-miterlimit:10;}
	.st29{fill:#3F3E4C;}
	.st30{fill:#65637C;}
	.st31{fill:#D8D7D3;stroke:#000000;stroke-width:0.4;stroke-miterlimit:10;}
	.st32{fill:#D8D7D3;stroke:#FFFFFF;stroke-width:0.9;stroke-miterlimit:10;}
	.st33{fill:#4A4A48;}
	.st34{fill:#FFFFFF;stroke:#ECBC65;stroke-width:2;stroke-miterlimit:10;}
	.st35{fill:#DBDBDB;stroke:#FFFFFF;stroke-miterlimit:10;}
	.st36{fill:#3A3A3A;stroke:#050505;stroke-miterlimit:10;}
	.st37{opacity:0.5;fill:#606060;}
	.st38{fill:#FCFCF8;stroke:#000000;stroke-miterlimit:10;}
	.st39{fill:#C69E56;}
	.st40{fill:#F3C36B;}
	.st41{fill:#232323;}
	.st42{fill:url(#SVGID_4_);}
	.st43{fill:url(#SVGID_5_);}
	.st44{opacity:0.6;fill:url(#SVGID_6_);}
	.st45{clip-path:url(#SVGID_8_);fill:#FAE47F;stroke:#050505;stroke-miterlimit:10;}
	.st46{clip-path:url(#SVGID_8_);}
	.st47{fill:#FAE47F;stroke:#050505;stroke-miterlimit:10;}
	.st48{fill:url(#SVGID_9_);}
	.st49{clip-path:url(#SVGID_8_);fill:url(#SVGID_10_);}
	.st50{clip-path:url(#SVGID_8_);fill:url(#SVGID_11_);}
	.st51{clip-path:url(#SVGID_8_);fill:url(#SVGID_12_);}
	.st52{clip-path:url(#SVGID_8_);fill:url(#SVGID_13_);}
	.st53{clip-path:url(#SVGID_8_);fill:url(#SVGID_14_);}
	.st54{clip-path:url(#SVGID_8_);fill:url(#SVGID_15_);}
	.st55{clip-path:url(#SVGID_8_);fill:url(#SVGID_16_);}
	.st56{clip-path:url(#SVGID_8_);fill:url(#SVGID_17_);}
	.st57{clip-path:url(#SVGID_8_);fill:url(#SVGID_18_);}
	.st58{clip-path:url(#SVGID_8_);fill:url(#SVGID_19_);}
	.st59{clip-path:url(#SVGID_8_);fill:url(#SVGID_20_);}
	.st60{fill:#EFEFE9;}
	.st61{fill:#444240;}
</style>










<path
   class="st15"
   d="M 510.1,513 H 81.9 C 68.2,513 57,501.8 57,488.1 V 100.9 C 57,87.2 68.2,76 81.9,76 H 510 c 13.7,0 24.9,11.2 24.9,24.9 V 488 c 0.1,13.8 -11.1,25 -24.8,25 z"
   id="path53"
   style="fill:url(#linearGradient3249)"
   inkscape:connector-curvature="0" /><g
   id="g55">
			<g
   id="g61401"
   transform="matrix(3.2515243,0,0,3.2515243,10.030217,-254.71721)">
				<path
   id="path90890-3"
   class="st16"
   d="m 53.7,124.5 c -5.8,0.2 -10.7,-4.4 -10.9,-10.2 -0.2,-5.9 4.4,-10.8 10.2,-11 5.8,-0.2 10.7,4.4 10.9,10.2 0.2,5.9 -4.3,10.8 -10.2,11"
   inkscape:connector-curvature="0"
   style="fill:#fbe37d;stroke:#070707;stroke-width:0.60000002;stroke-miterlimit:10" />
				<path
   id="path90925-8"
   class="st17"
   d="m 53.7,119.9 c -3.3,0.1 -6.1,-2.5 -6.2,-5.9 -0.1,-3.3 2.5,-6.2 5.8,-6.3 3.3,-0.1 6.1,2.5 6.2,5.9 0.1,3.4 -2.5,6.2 -5.8,6.3"
   inkscape:connector-curvature="0"
   style="fill:#ffffff" />
				<path
   id="path91527-2"
   class="st18"
   d="m 57,107.4 c -0.6,0 -1.1,-0.5 -1.2,-1.1 0,-0.6 0.5,-1.2 1.1,-1.2 0.6,0 1.1,0.5 1.2,1.1 0,0.6 -0.5,1.2 -1.1,1.2"
   inkscape:connector-curvature="0"
   style="fill:#454549" />
				<path
   id="path91527-7-3"
   class="st18"
   d="m 61.4,112 c -0.6,0 -1.1,-0.5 -1.2,-1.1 0,-0.6 0.5,-1.2 1.1,-1.2 0.6,0 1.1,0.5 1.2,1.1 0,0.7 -0.5,1.2 -1.1,1.2"
   inkscape:connector-curvature="0"
   style="fill:#454549" />
				<path
   id="path91527-7-4-2"
   class="st18"
   d="m 61.4,117.7 c -0.6,0 -1.1,-0.5 -1.2,-1.1 0,-0.6 0.5,-1.2 1.1,-1.2 0.6,0 1.1,0.5 1.2,1.1 0,0.7 -0.5,1.2 -1.1,1.2"
   inkscape:connector-curvature="0"
   style="fill:#454549" />
				<path
   id="path91527-7-9-1"
   class="st18"
   d="m 49.9,122.5 c -0.6,0 -1.1,-0.5 -1.2,-1.1 0,-0.6 0.5,-1.2 1.1,-1.2 0.6,0 1.1,0.5 1.2,1.1 0,0.7 -0.5,1.2 -1.1,1.2"
   inkscape:connector-curvature="0"
   style="fill:#454549" />
				<path
   id="path91527-7-0-04"
   class="st18"
   d="m 57,122.5 c -0.6,0 -1.1,-0.5 -1.2,-1.1 0,-0.6 0.5,-1.2 1.1,-1.2 0.6,0 1.1,0.5 1.2,1.1 0,0.7 -0.5,1.2 -1.1,1.2"
   inkscape:connector-curvature="0"
   style="fill:#454549" />
				<path
   id="path91527-7-48-0"
   class="st18"
   d="m 45.5,117.7 c -0.6,0 -1.1,-0.5 -1.2,-1.1 0,-0.6 0.5,-1.2 1.1,-1.2 0.6,0 1.1,0.5 1.2,1.1 0,0.7 -0.4,1.2 -1.1,1.2"
   inkscape:connector-curvature="0"
   style="fill:#454549" />
				<path
   id="path91527-7-8-7"
   class="st18"
   d="m 45.5,112 c -0.6,0 -1.1,-0.5 -1.2,-1.1 0,-0.6 0.5,-1.2 1.1,-1.2 0.6,0 1.1,0.5 1.2,1.1 0,0.7 -0.4,1.2 -1.1,1.2"
   inkscape:connector-curvature="0"
   style="fill:#454549" />
				<path
   id="path91527-7-2-59"
   class="st18"
   d="m 49.9,107.4 c -0.6,0 -1.1,-0.5 -1.2,-1.1 0,-0.6 0.5,-1.2 1.1,-1.2 0.6,0 1.1,0.5 1.2,1.1 0,0.6 -0.5,1.2 -1.1,1.2"
   inkscape:connector-curvature="0"
   style="fill:#454549" />
			</g>
			<linearGradient
   id="SVGID_2_"
   gradientUnits="userSpaceOnUse"
   x1="169.4268"
   y1="115.3367"
   x2="190.4966"
   y2="94.266998">
				<stop
   offset="0"
   style="stop-color:#FFFFFF"
   id="stop69" />
				<stop
   offset="0.5348"
   style="stop-color:#5E5E5E"
   id="stop71" />
				<stop
   offset="1"
   style="stop-color:#FFFFFF"
   id="stop73" />
			</linearGradient>
			<path
   class="st19"
   d="m 164.7,110.6 c 0,0 5.7,-10.7 15.4,-13.4 7,-2 12.2,1.1 14,2 2,1 3,1.7 3,1.7 0,0 -9,-8.7 -19.8,-4.2 -11.1,4.7 -12.6,13.9 -12.6,13.9 z"
   id="path75"
   style="fill:url(#SVGID_2_)"
   inkscape:connector-curvature="0" />
		</g><g
   id="g77">
			<g
   id="g61401_1_"
   transform="matrix(3.2515243,0,0,3.2515243,10.030217,-254.71721)">
				<path
   id="path90890-3_1_"
   class="st16"
   d="m 122.3,124.2 c -5.8,0.2 -10.7,-4.4 -10.9,-10.2 -0.2,-5.9 4.4,-10.8 10.2,-11 5.8,-0.2 10.7,4.4 10.9,10.2 0.2,5.9 -4.4,10.8 -10.2,11"
   inkscape:connector-curvature="0"
   style="fill:#fbe37d;stroke:#070707;stroke-width:0.60000002;stroke-miterlimit:10" />
				<path
   id="path90925-8_1_"
   class="st17"
   d="m 122.2,119.6 c -3.3,0.1 -6.1,-2.5 -6.2,-5.9 -0.1,-3.3 2.5,-6.2 5.8,-6.3 3.3,-0.1 6.1,2.5 6.2,5.9 0.2,3.4 -2.4,6.2 -5.8,6.3"
   inkscape:connector-curvature="0"
   style="fill:#ffffff" />
				<path
   id="path91527-2_1_"
   class="st18"
   d="m 125.6,107.1 c -0.6,0 -1.1,-0.5 -1.2,-1.1 0,-0.6 0.5,-1.2 1.1,-1.2 0.6,0 1.1,0.5 1.2,1.1 0,0.6 -0.5,1.1 -1.1,1.2"
   inkscape:connector-curvature="0"
   style="fill:#454549" />
				<path
   id="path91527-7-3_1_"
   class="st18"
   d="m 129.9,111.7 c -0.6,0 -1.1,-0.5 -1.2,-1.1 0,-0.6 0.5,-1.2 1.1,-1.2 0.6,0 1.1,0.5 1.2,1.1 0.1,0.7 -0.4,1.2 -1.1,1.2"
   inkscape:connector-curvature="0"
   style="fill:#454549" />
				<path
   id="path91527-7-4-2_1_"
   class="st18"
   d="m 129.9,117.4 c -0.6,0 -1.1,-0.5 -1.2,-1.1 0,-0.6 0.5,-1.2 1.1,-1.2 0.6,0 1.1,0.5 1.2,1.1 0.1,0.7 -0.4,1.2 -1.1,1.2"
   inkscape:connector-curvature="0"
   style="fill:#454549" />
				<path
   id="path91527-7-9-1_1_"
   class="st18"
   d="m 118.5,122.2 c -0.6,0 -1.1,-0.5 -1.2,-1.1 0,-0.6 0.5,-1.2 1.1,-1.2 0.6,0 1.1,0.5 1.2,1.1 0,0.7 -0.5,1.2 -1.1,1.2"
   inkscape:connector-curvature="0"
   style="fill:#454549" />
				<path
   id="path91527-7-0-04_1_"
   class="st18"
   d="m 125.6,122.2 c -0.6,0 -1.1,-0.5 -1.2,-1.1 0,-0.6 0.5,-1.2 1.1,-1.2 0.6,0 1.1,0.5 1.2,1.1 0,0.7 -0.5,1.2 -1.1,1.2"
   inkscape:connector-curvature="0"
   style="fill:#454549" />
				<path
   id="path91527-7-48-0_1_"
   class="st18"
   d="m 114.1,117.4 c -0.6,0 -1.1,-0.5 -1.2,-1.1 0,-0.6 0.5,-1.2 1.1,-1.2 0.6,0 1.1,0.5 1.2,1.1 0,0.7 -0.5,1.2 -1.1,1.2"
   inkscape:connector-curvature="0"
   style="fill:#454549" />
				<path
   id="path91527-7-8-7_1_"
   class="st18"
   d="m 114.1,111.7 c -0.6,0 -1.1,-0.5 -1.2,-1.1 0,-0.6 0.5,-1.2 1.1,-1.2 0.6,0 1.1,0.5 1.2,1.1 0,0.7 -0.5,1.2 -1.1,1.2"
   inkscape:connector-curvature="0"
   style="fill:#454549" />
				<path
   id="path91527-7-2-59_1_"
   class="st18"
   d="m 118.5,107.1 c -0.6,0 -1.1,-0.5 -1.2,-1.1 0,-0.6 0.5,-1.2 1.1,-1.2 0.6,0 1.1,0.5 1.2,1.1 0,0.6 -0.5,1.1 -1.1,1.2"
   inkscape:connector-curvature="0"
   style="fill:#454549" />
			</g>
			<linearGradient
   id="SVGID_3_"
   gradientUnits="userSpaceOnUse"
   x1="392.42679"
   y1="114.3367"
   x2="413.49661"
   y2="93.266998">
				<stop
   offset="0"
   style="stop-color:#FFFFFF"
   id="stop91" />
				<stop
   offset="0.5348"
   style="stop-color:#5E5E5E"
   id="stop93" />
				<stop
   offset="1"
   style="stop-color:#FFFFFF"
   id="stop95" />
			</linearGradient>
			<path
   class="st20"
   d="m 387.7,109.6 c 0,0 5.7,-10.7 15.4,-13.4 7,-2 12.2,1.1 14,2 2,1 3,1.7 3,1.7 0,0 -9,-8.7 -19.8,-4.2 -11.1,4.7 -12.6,13.9 -12.6,13.9 z"
   id="path97"
   style="fill:url(#SVGID_3_)"
   inkscape:connector-curvature="0" />
		</g><g
   id="g99">
		<path
   style="fill:#222224"
   inkscape:connector-curvature="0"
   id="path101"
   d="M 453.4,372 H 133.6 c -3.6,0 -6.6,-2.9 -6.6,-6.6 V 156.6 c 0,-3.6 2.9,-6.6 6.6,-6.6 h 319.8 c 3.6,0 6.6,2.9 6.6,6.6 v 208.8 c 0,3.7 -2.9,6.6 -6.6,6.6 z"
   class="st21" />
		<rect
   style="fill:#89898b"
   id="rect103"
   height="2"
   width="325"
   class="st22"
   y="148"
   x="130" />
		<rect
   style="fill:#89898b"
   id="rect105"
   height="212"
   width="2"
   class="st22"
   y="156"
   x="125" />
		<rect
   style="fill:#89898b"
   id="rect107"
   height="214"
   width="2"
   class="st22"
   y="154"
   x="460" />
		<g
   id="g109">
			<path
   style="fill:#040403"
   inkscape:connector-curvature="0"
   id="path111"
   d="m 125,368 v 1 h 3 v 1 h 3 v 3 c 0,0 0,2 4,2 4,0 322,0 322,0 0,0 1,-1 1,-3 0,-2 0,-2 0,-2 l 5,-1 v -1 h -5 -1 v 3 l -324,-1 v -2 h -4 l 0,0 h -4 z"
   class="st23" />
			<rect
   style="fill:#1b1b1b"
   id="rect113"
   height="2"
   width="325"
   class="st24"
   y="374"
   x="132" />
		</g>
	</g><g
   id="g115">
		<path
   style="fill:#413e4f"
   inkscape:connector-curvature="0"
   id="path117"
   d="M 430.9,307 H 157.1 C 151.5,307 147,302.5 147,296.9 V 177.1 c 0,-5.6 4.5,-10.1 10.1,-10.1 h 273.7 c 5.6,0 10.1,4.5 10.1,10.1 v 119.7 c 0.1,5.7 -4.4,10.2 -10,10.2 z"
   class="st25" />
		<path
   style="fill:#17171d"
   inkscape:connector-curvature="0"
   id="path119"
   d="M 430.9,167 H 157.1 c -5.6,0 -10.1,4.5 -10.1,10.1 v 2 c 0,-5.6 4.5,-10.1 10.1,-10.1 h 273.7 c 5.6,0 10.1,4.5 10.1,10.1 v -2 c 0.1,-5.6 -4.4,-10.1 -10,-10.1 z"
   class="st26" />
	</g><g
   id="g121">
		<g
   id="g123">
			<path
   style="fill:#71f4f6"
   inkscape:connector-curvature="0"
   id="path125"
   d="m 240.2,280.5 c -2.6,0.1 -5,0.2 -7.3,0.2 -3.5,0 -5.6,-0.1 -6.2,-0.2 -0.6,-0.1 -1.1,-0.5 -1.5,-1 -0.4,-0.5 -0.6,-1.3 -0.6,-2.4 0,-0.8 0.1,-2.1 0.4,-3.7 l 3.1,0.4 c -0.3,1.3 -0.5,2.4 -0.5,3.4 0,0.4 0.2,0.6 0.6,0.6 0.4,0 1.9,0 4.6,0 2.6,0 5.1,0 7.3,-0.1 v 2.8 z m -3.1,-12.7 H 225.7 V 265 h 11.4 v 2.8 z"
   class="st27" />
			<path
   style="fill:#71f4f6"
   inkscape:connector-curvature="0"
   id="path127"
   d="m 264.8,272.5 c -1.3,6.5 -3.6,9.8 -6.8,9.8 -2.1,0 -3.3,-1.4 -3.8,-4.3 -0.2,-1.1 -0.3,-1.8 -0.4,-2.2 -0.1,-0.3 -0.4,-0.5 -0.7,-0.5 -0.6,0 -1.3,0.2 -1.9,0.7 -0.6,0.5 -1.1,1 -1.4,1.7 l -2.2,4.5 -2.7,-1.3 8.9,-17.7 2.8,1.3 -4.2,8.4 c 0.7,-0.2 1.3,-0.4 1.6,-0.4 0.6,0 1.2,0.2 1.6,0.5 0.4,0.3 0.7,0.6 0.9,1 0.1,0.4 0.3,1.2 0.6,2.3 0.2,1.2 0.5,2 0.6,2.3 0.2,0.4 0.4,0.5 0.7,0.5 0.6,0 1.3,-0.7 1.9,-2 0.7,-1.4 1.3,-3.3 1.7,-5.7 l 2.8,1.1 z"
   class="st27" />
			<path
   style="fill:#71f4f6"
   inkscape:connector-curvature="0"
   id="path129"
   d="m 272.6,264.4 c -0.8,3.9 -1.2,7.3 -1.2,10.2 0,2 0.2,4.2 0.6,6.8 l -3.1,0.4 c -0.3,-2.5 -0.4,-4.8 -0.4,-7.2 0,-4.1 0.4,-7.8 1.3,-11 l 2.8,0.8 z m 13.9,15.6 c -1.7,0.1 -3.1,0.2 -4.1,0.2 -4.1,0 -7.2,-1 -9.2,-2.9 l 2,-2.2 c 1.4,1.5 3.8,2.3 7.2,2.3 1.2,0 2.5,-0.1 4.1,-0.3 l 0,2.9 z m -1.1,-13.4 -0.1,2.8 c -1.4,-0.1 -2.8,-0.2 -4,-0.2 -2.3,0 -4.5,0.2 -6.7,0.5 l -0.2,-2.9 c 2,-0.3 4.1,-0.5 6.4,-0.5 1.4,0.1 2.9,0.2 4.6,0.3 z"
   class="st27" />
			<path
   style="fill:#71f4f6"
   inkscape:connector-curvature="0"
   id="path131"
   d="m 296.3,273.5 c 1.9,-0.8 3.6,-1.2 5.1,-1.2 1.7,0 3.1,0.5 4.2,1.5 1.1,1 1.6,2.2 1.6,3.7 0,1.5 -0.7,2.8 -2.2,3.9 -1.5,1.1 -4.1,1.6 -8,1.6 l -1,-3 c 0.7,0.1 1.4,0.1 2,0.1 1.8,0 3.3,-0.2 4.4,-0.7 1.1,-0.5 1.7,-1.1 1.7,-2 0,-0.6 -0.3,-1.2 -0.8,-1.7 -0.5,-0.5 -1.3,-0.7 -2.3,-0.7 -2.3,0 -4.7,1 -7.1,2.9 l -1.8,-1.7 c 0.7,-1.6 1.5,-3.8 2.2,-6.4 -1.1,0 -2.4,0 -3.8,0 l -0.3,-2.8 c 0.8,0 1.7,0 2.6,0 0.9,0 1.6,0 2.2,0 0.4,-1.5 0.8,-3.1 1.2,-4.8 l 2.9,0.6 c -0.5,1.8 -0.8,3.1 -1.1,4 3.2,-0.1 5.9,-0.5 8.1,-0.9 l 0.2,2.8 c -1.4,0.3 -4.5,0.7 -9.2,1 0,1.4 -0.4,2.6 -0.8,3.8 z"
   class="st27" />
			<path
   style="fill:#71f4f6"
   inkscape:connector-curvature="0"
   id="path133"
   d="m 317.7,264.9 c -1.1,3.7 -1.6,7.2 -1.6,10.5 0,2.3 0.3,4.5 0.8,6.5 l -2.9,0.7 c -0.6,-2.2 -0.9,-4.6 -0.9,-7.1 0,-3.6 0.5,-7.3 1.6,-11.2 l 3,0.6 z m 14.8,14.7 -1.7,2.3 c -1.3,-1.1 -2.5,-1.9 -3.7,-2.6 -0.3,1 -0.8,1.7 -1.6,2.4 -0.8,0.7 -1.8,1 -3,1 -1.2,0 -2.3,-0.3 -3.1,-1 -0.8,-0.7 -1.2,-1.6 -1.2,-2.8 0,-1.1 0.4,-2 1.2,-2.7 0.8,-0.7 1.8,-1.1 3,-1.1 0.6,0 1.3,0.1 2.2,0.3 0,-0.7 0.1,-1.3 0.1,-2 0,-0.7 0,-1.4 -0.1,-2.1 -2.1,0 -4.2,0.2 -6.2,0.5 l -0.4,-2.7 c 2,-0.3 4.1,-0.4 6.4,-0.5 0,-1.5 -0.1,-3 -0.3,-4.4 l 2.9,-0.3 c 0.2,1.6 0.2,3.2 0.3,4.7 2,0 3.6,0 4.7,0.1 l -0.2,2.7 c -1,-0.1 -2.5,-0.2 -4.4,-0.2 0,1.9 0,3.7 0,5.3 1.9,0.7 3.6,1.8 5.1,3.1 z m -8.2,-1.4 c -0.6,-0.2 -1.2,-0.4 -1.8,-0.4 -0.5,0 -0.9,0.1 -1.1,0.3 -0.2,0.2 -0.3,0.4 -0.3,0.7 0,0.6 0.5,0.9 1.4,0.9 1,0.1 1.6,-0.4 1.8,-1.5 z"
   class="st27" />
		</g>
		<g
   id="g135">
			<path
   style="fill:#71f4f6"
   inkscape:connector-curvature="0"
   id="path137"
   d="m 334.8,267.5 h 2.3 v -3.9 h 3 v 3.9 h 2.9 v -4.7 h 3 v 4.7 h 4.3 v -4.7 h 3 v 4.7 h 2.7 v 2.8 h -2.7 v 7.5 H 343 v -7.5 h -2.9 v 10.3 h 15.4 v 2.8 H 337 v -13 h -2.3 v -2.9 z M 346,275 h 4.3 v -4.7 H 346 v 4.7 z"
   class="st27" />
			<path
   style="fill:#71f4f6"
   inkscape:connector-curvature="0"
   id="path139"
   d="m 369.9,276.7 h 0.9 c -1.3,-0.8 -2.4,-1.7 -3.2,-2.7 -0.8,0.9 -2,1.8 -3.4,2.7 h 1.2 c 0.1,2.3 -0.3,4 -1,4.9 -0.7,0.9 -2,1.8 -3.8,2.6 -0.7,-1 -1.4,-1.7 -2,-2.2 1.8,-0.8 2.9,-1.5 3.3,-2 0.4,-0.5 0.6,-1.3 0.6,-2.3 -1.2,0.6 -2.7,1.2 -4.3,1.8 -0.4,-0.9 -0.9,-1.7 -1.5,-2.7 3,-0.8 5.4,-1.7 7.2,-2.8 h -5.2 v -10.4 h 17.7 V 274 H 371 c 1.9,1.2 4.4,2.1 7.4,2.6 -0.5,0.8 -1,1.7 -1.5,2.8 -1.5,-0.5 -2.9,-1 -4.2,-1.6 v 6.3 h -3 v -7.4 z m -8.1,-9.1 h 4.4 v -1.7 h -4.4 v 1.7 z m 0,4 h 4.4 v -1.7 h -4.4 v 1.7 z m 11.8,-5.7 h -4.4 v 1.7 h 4.4 v -1.7 z m 0,5.7 v -1.7 h -4.4 v 1.7 h 4.4 z"
   class="st27" />
		</g>
	</g><g
   id="g141">
		<path
   style="fill:#71f4f6"
   inkscape:connector-curvature="0"
   id="path143"
   d="m 250.1,245.6 h -3.5 v -6.9 c 0,-1.9 -0.7,-2.8 -2,-2.8 -0.7,0 -1.2,0.3 -1.7,0.8 -0.5,0.5 -0.7,1.2 -0.7,2 v 6.9 h -3.5 v -17.8 h 3.5 v 7.6 h 0 c 0.9,-1.4 2.2,-2.1 3.7,-2.1 2.7,0 4.1,1.6 4.1,4.9 v 7.4 z"
   class="st27" />
		<path
   style="fill:#71f4f6"
   inkscape:connector-curvature="0"
   id="path145"
   d="m 263.8,240.5 h -7.9 c 0.1,1.9 1.2,2.8 3.4,2.8 1.3,0 2.5,-0.3 3.5,-1 v 2.6 c -1.1,0.6 -2.5,0.9 -4.3,0.9 -1.9,0 -3.4,-0.5 -4.5,-1.6 -1.1,-1.1 -1.6,-2.6 -1.6,-4.5 0,-1.9 0.6,-3.5 1.7,-4.7 1.1,-1.2 2.6,-1.8 4.3,-1.8 1.7,0 3,0.5 4,1.6 1,1 1.4,2.5 1.4,4.3 v 1.4 z m -3.3,-2.2 c 0,-1.8 -0.7,-2.7 -2.2,-2.7 -0.6,0 -1.1,0.2 -1.6,0.7 -0.5,0.5 -0.8,1.1 -0.9,2 h 4.7 z"
   class="st27" />
		<path
   style="fill:#71f4f6"
   inkscape:connector-curvature="0"
   id="path147"
   d="m 266,245.6 v -17.8 h 3.5 v 17.8 H 266 z"
   class="st27" />
		<path
   style="fill:#71f4f6"
   inkscape:connector-curvature="0"
   id="path149"
   d="m 272.6,245.6 v -17.8 h 3.5 v 17.8 h -3.5 z"
   class="st27" />
		<path
   style="fill:#71f4f6"
   inkscape:connector-curvature="0"
   id="path151"
   d="m 278.5,239.6 c 0,-2 0.6,-3.5 1.8,-4.7 1.2,-1.1 2.8,-1.7 4.8,-1.7 1.9,0 3.5,0.6 4.6,1.7 1.1,1.1 1.7,2.6 1.7,4.5 0,2 -0.6,3.5 -1.8,4.7 -1.2,1.2 -2.8,1.8 -4.7,1.8 -2,0 -3.5,-0.6 -4.7,-1.7 -1.1,-1.2 -1.7,-2.7 -1.7,-4.6 z m 3.6,-0.1 c 0,2.4 1,3.6 2.9,3.6 1.9,0 2.8,-1.2 2.8,-3.7 0,-2.4 -0.9,-3.5 -2.8,-3.5 -0.9,0 -1.6,0.3 -2.2,0.9 -0.6,0.6 -0.7,1.6 -0.7,2.7 z"
   class="st27" />
		<path
   style="fill:#71f4f6"
   inkscape:connector-curvature="0"
   id="path153"
   d="m 297.3,242.6 -1.8,5.9 h -2.7 l 1.2,-5.9 h 3.3 z"
   class="st27" />
		<path
   style="fill:#71f4f6"
   inkscape:connector-curvature="0"
   id="path155"
   d="m 317.5,233.5 -3.5,12 h -3.7 l -1.9,-7.2 c -0.1,-0.5 -0.2,-1 -0.2,-1.5 h -0.1 c -0.1,0.6 -0.1,1.1 -0.2,1.4 l -2,7.3 h -3.6 l -3.4,-12 h 3.6 l 1.8,8 c 0.1,0.3 0.1,0.8 0.2,1.3 h 0.1 c 0,-0.5 0.1,-1 0.2,-1.4 l 2.2,-8 h 3.3 l 1.9,8 c 0.1,0.2 0.1,0.7 0.2,1.3 h 0.1 c 0,-0.4 0.1,-0.8 0.2,-1.3 l 1.7,-8 h 3.1 z"
   class="st27" />
		<path
   style="fill:#71f4f6"
   inkscape:connector-curvature="0"
   id="path157"
   d="m 318.5,239.6 c 0,-2 0.6,-3.5 1.8,-4.7 1.2,-1.1 2.8,-1.7 4.8,-1.7 1.9,0 3.5,0.6 4.6,1.7 1.1,1.1 1.7,2.6 1.7,4.5 0,2 -0.6,3.5 -1.8,4.7 -1.2,1.2 -2.8,1.8 -4.7,1.8 -2,0 -3.5,-0.6 -4.7,-1.7 -1.2,-1.2 -1.7,-2.7 -1.7,-4.6 z m 3.5,-0.1 c 0,2.4 1,3.6 2.9,3.6 1.9,0 2.8,-1.2 2.8,-3.7 0,-2.4 -0.9,-3.5 -2.8,-3.5 -0.9,0 -1.6,0.3 -2.2,0.9 -0.6,0.6 -0.7,1.6 -0.7,2.7 z"
   class="st27" />
		<path
   style="fill:#71f4f6"
   inkscape:connector-curvature="0"
   id="path159"
   d="m 341.5,236.7 c -0.4,-0.2 -0.9,-0.4 -1.6,-0.4 -0.8,0 -1.4,0.3 -1.9,0.9 -0.5,0.6 -0.7,1.4 -0.7,2.5 v 5.8 h -3.5 v -12 h 3.5 v 2.3 h 0 c 0.6,-1.6 1.6,-2.5 3.2,-2.5 0.4,0 0.7,0 0.9,0.1 v 3.3 z"
   class="st27" />
		<path
   style="fill:#71f4f6"
   inkscape:connector-curvature="0"
   id="path161"
   d="m 343.2,245.6 v -17.8 h 3.5 v 17.8 h -3.5 z"
   class="st27" />
		<path
   style="fill:#71f4f6"
   inkscape:connector-curvature="0"
   id="path163"
   d="M 361.5,245.6 H 358 v -1.7 h 0 c -0.8,1.3 -2.1,2 -3.8,2 -1.5,0 -2.8,-0.5 -3.7,-1.6 -0.9,-1.1 -1.4,-2.6 -1.4,-4.4 0,-2 0.5,-3.6 1.5,-4.8 1,-1.2 2.3,-1.8 4,-1.8 1.6,0 2.7,0.6 3.3,1.7 h 0.1 v -7.2 h 3.5 v 17.8 z m -3.4,-6.9 c 0,-0.8 -0.2,-1.5 -0.7,-2 -0.5,-0.5 -1.1,-0.8 -1.8,-0.8 -0.9,0 -1.5,0.3 -2,1 -0.5,0.7 -0.7,1.6 -0.7,2.8 0,1.1 0.2,2 0.7,2.6 0.5,0.6 1.1,0.9 1.9,0.9 0.8,0 1.4,-0.3 1.9,-0.9 0.5,-0.6 0.8,-1.5 0.8,-2.5 v -1.1 z"
   class="st27" />
	</g><g
   id="g165">
		<path
   style="fill:#71f4f6"
   inkscape:connector-curvature="0"
   id="path167"
   d="m 260.1,191 2.9,0.9 c -0.5,1.6 -1.1,3.3 -1.8,4.8 v 15.4 h -2.9 v -9.6 c -0.5,0.9 -1,1.7 -1.6,2.6 l -0.9,-4.2 c 1.8,-2.9 3.2,-6.2 4.3,-9.9 z m 1.8,16.7 c 1,-2.1 1.9,-4.5 2.7,-7.2 l 2.8,0.7 c -0.8,2.7 -1.7,5.3 -2.8,7.7 -0.8,-0.4 -1.7,-0.8 -2.7,-1.2 z m 15.1,-14 v 2.5 l -1,3.8 -2.9,-0.6 0.8,-3.1 h -7.2 c -0.8,1.7 -1.6,3.1 -2.5,4.3 -0.6,-0.5 -1.3,-1.1 -2.3,-1.8 1.4,-2.1 2.6,-4.7 3.6,-7.8 l 3.1,0.4 c -0.3,0.8 -0.5,1.5 -0.8,2.2 h 9.2 z m -5.5,4 v 11.5 c 0,0.9 -0.2,1.5 -0.5,2 -0.4,0.5 -0.9,0.7 -1.8,0.8 -0.9,0.1 -2,0.1 -3.4,0.1 -0.1,-0.9 -0.3,-1.8 -0.5,-2.8 0.7,0.1 1.3,0.1 1.8,0.1 0.6,0 0.9,-0.1 1.1,-0.2 0.2,-0.1 0.3,-0.4 0.3,-0.8 v -10.6 h 3 z m 3.4,3 c 0.6,1.6 1.5,4.1 2.5,7.4 l -3,1 c -0.8,-3 -1.5,-5.5 -2.2,-7.7 l 2.7,-0.7 z"
   class="st27" />
		<path
   style="fill:#71f4f6"
   inkscape:connector-curvature="0"
   id="path169"
   d="m 278.1,194.8 h 2.6 c 0.2,-1.2 0.4,-2.6 0.5,-4 l 3,0.3 -0.6,3.7 h 4.3 c -0.1,4.9 -0.9,8.8 -2.3,11.5 l 3.1,2.6 -2.2,2.3 c -0.8,-0.9 -1.7,-1.7 -2.5,-2.5 -1.1,1.3 -2.4,2.5 -3.9,3.4 -0.7,-0.9 -1.3,-1.7 -2,-2.4 1.5,-0.8 2.7,-1.9 3.7,-3.1 -1,-0.9 -2,-1.8 -3,-2.7 0.5,-1.8 1,-4 1.4,-6.4 h -2.1 v -2.7 z m 3.8,8.4 1.4,1.2 c 0.8,-1.8 1.4,-4.1 1.6,-6.9 h -1.8 c -0.3,2 -0.7,3.9 -1.2,5.7 z m 6.1,-3 h 4.7 v -2.1 l 3,-3.4 h -6.9 v -2.9 h 10.7 v 3.1 l -3.7,4.3 v 1 h 4.1 v 2.9 h -4.1 v 5.4 c 0,0.5 -0.1,1 -0.3,1.6 -0.2,0.6 -0.5,1.1 -1.1,1.5 -0.5,0.4 -1.3,0.6 -2.5,0.6 -1.1,0 -2,0 -2.7,0 -0.1,-1 -0.3,-2 -0.5,-2.9 1.2,0.1 2.1,0.2 2.6,0.2 0.9,0 1.4,-0.6 1.4,-1.9 v -4.5 H 288 v -2.9 z"
   class="st27" />
		<path
   style="fill:#71f4f6"
   inkscape:connector-curvature="0"
   id="path171"
   d="m 300.7,195.8 h 2.3 v -3.9 h 3 v 3.9 h 2.9 v -4.7 h 3 v 4.7 h 4.3 v -4.7 h 3 v 4.7 h 2.7 v 2.8 h -2.7 v 7.5 h -10.3 v -7.5 H 306 v 10.3 h 15.4 v 2.8 H 303 v -13 h -2.3 v -2.9 z m 11.2,7.5 h 4.3 v -4.7 h -4.3 v 4.7 z"
   class="st27" />
		<path
   style="fill:#71f4f6"
   inkscape:connector-curvature="0"
   id="path173"
   d="m 335.8,205 h 0.9 c -1.3,-0.8 -2.4,-1.7 -3.2,-2.7 -0.8,0.9 -2,1.8 -3.4,2.7 h 1.2 c 0.1,2.3 -0.3,4 -1,4.9 -0.7,0.9 -2,1.8 -3.8,2.6 -0.7,-1 -1.4,-1.7 -2,-2.2 1.8,-0.8 2.9,-1.5 3.3,-2 0.4,-0.5 0.6,-1.3 0.6,-2.3 -1.2,0.6 -2.7,1.2 -4.3,1.8 -0.4,-0.9 -0.9,-1.7 -1.5,-2.7 3,-0.8 5.4,-1.7 7.2,-2.8 h -5.2 v -10.4 h 17.7 v 10.4 h -5.4 c 1.9,1.2 4.4,2.1 7.4,2.6 -0.5,0.8 -1,1.7 -1.5,2.8 -1.5,-0.5 -2.9,-1 -4.2,-1.6 v 6.3 h -3 V 205 z m -8.1,-9.1 h 4.4 v -1.7 h -4.4 v 1.7 z m 0,4 h 4.4 v -1.7 h -4.4 v 1.7 z m 11.8,-5.7 h -4.4 v 1.7 h 4.4 v -1.7 z m 0,5.7 v -1.7 h -4.4 v 1.7 h 4.4 z"
   class="st27" />
	</g><g
   id="g175">
		<g
   transform="translate(-78.074073,-464.65575)"
   id="g34521">
			<polygon
   style="fill:#f9f9f9;stroke:#000000;stroke-width:0.5;stroke-miterlimit:10"
   points="603.9,732.2 572.9,732.1 572.9,718.7 603.9,718.8 "
   class="st28"
   id="rect34459" />
			<rect
   style="fill:#cccccc"
   height="12"
   width="30.1"
   class="st8"
   y="719.20001"
   x="573.29999"
   id="rect34133" />
			<rect
   style="fill:#b3b3b3"
   height="9.8999996"
   width="4.5"
   class="st1"
   y="720.09998"
   x="597.90002"
   id="rect34253" />
			<rect
   style="fill:#b3b3b3"
   height="9.8999996"
   width="4.5"
   class="st1"
   y="720.09998"
   x="575.20001"
   id="rect34253_1_" />
			<rect
   style="fill:#1a1a1a"
   height="12.1"
   width="8.3000002"
   class="st5"
   y="719.5"
   x="581.29999"
   id="rect34310" />
			<rect
   style="fill:#3f3e4c"
   height="12.1"
   width="14.2"
   class="st29"
   y="719.5"
   x="582"
   id="rect34367" />
		</g>
		<rect
   style="fill:#65637c"
   id="rect184"
   height="0.80000001"
   width="13.6"
   class="st30"
   y="265.39999"
   x="503.89999" />
	</g><g
   id="g186"
   transform="translate(-4,0)">
		<g
   id="g188">
			<path
   style="fill:#d8d7d3;stroke:#000000;stroke-width:0.40000001;stroke-miterlimit:10"
   inkscape:connector-curvature="0"
   id="path190"
   d="m 527.9,302.7 -2,-2 h -22 l -2,2 V 278 c 0,-0.7 0.6,-1.2 1.2,-1.2 h 23.5 c 0.7,0 1.2,0.6 1.2,1.2 v 24.7 z"
   class="st31" />
			<path
   style="fill:#d8d7d3;stroke:#ffffff;stroke-width:0.89999998;stroke-miterlimit:10"
   inkscape:connector-curvature="0"
   id="path192"
   d="M 526.9,300.7 525,299 h -20.3 l -1.8,1.8 v -21.9 c 0,-0.6 0.5,-1.1 1.1,-1.1 h 21.7 c 0.6,0 1.1,0.5 1.1,1.1 v 21.8 z"
   class="st32" />
			<rect
   style="fill:#ffffff"
   id="rect194"
   height="1"
   width="20"
   class="st17"
   y="279.70001"
   x="504.89999" />
			<circle
   style="fill:#4a4a48"
   sodipodi:ry="1"
   sodipodi:rx="1"
   sodipodi:cy="297.70001"
   sodipodi:cx="514.90002"
   id="circle196"
   r="1"
   cy="297.70001"
   cx="514.90002"
   class="st33"
   d="m 515.90002,297.70001 c 0,0.55229 -0.44771,1 -1,1 -0.55228,0 -1,-0.44771 -1,-1 0,-0.55228 0.44772,-1 1,-1 0.55229,0 1,0.44772 1,1 z" />
		</g>
		<polygon
   id="polygon198"
   points="525.9,300.7 503.9,300.7 502.1,302.6 527.9,302.7 " />
	</g><circle
   style="fill:#ffffff;stroke:#ecbc65;stroke-width:2;stroke-miterlimit:10"
   sodipodi:ry="19.799999"
   sodipodi:rx="19.799999"
   sodipodi:cy="411.20001"
   sodipodi:cx="296"
   id="circle200"
   r="19.799999"
   cy="411.20001"
   cx="296"
   class="st34" /><g
   id="g202">
		<circle
   style="fill:#dbdbdb;stroke:#ffffff;stroke-miterlimit:10"
   sodipodi:ry="17.9"
   sodipodi:rx="17.9"
   sodipodi:cy="274.10001"
   sodipodi:cx="85.099998"
   id="circle204"
   r="17.9"
   cy="274.10001"
   cx="85.099998"
   class="st35" />
		<circle
   style="fill:#dbdbdb;stroke:#ffffff;stroke-miterlimit:10"
   sodipodi:ry="15.2"
   sodipodi:rx="15.2"
   sodipodi:cy="274.10001"
   sodipodi:cx="85.099998"
   id="circle206"
   r="15.2"
   cy="274.10001"
   cx="85.099998"
   class="st35" />
		<circle
   style="fill:#3a3a3a;stroke:#050505;stroke-miterlimit:10"
   sodipodi:ry="14.5"
   sodipodi:rx="14.5"
   sodipodi:cy="274.10001"
   sodipodi:cx="85.099998"
   id="circle208"
   r="14.5"
   cy="274.10001"
   cx="85.099998"
   class="st36" />
		<path
   style="opacity:0.5;fill:#606060"
   inkscape:connector-curvature="0"
   id="path210"
   d="m 88.4,264.5 c -0.2,-0.4 -0.5,-0.6 -1,-0.6 -0.6,0 -1.1,0.5 -1.1,1.1 0,0.4 0.3,0.8 0.6,1 0.2,0.4 0.5,0.6 1,0.6 0.6,0 1.1,-0.5 1.1,-1.1 0.1,-0.5 -0.2,-0.8 -0.6,-1 z"
   class="st37" />
		<path
   style="opacity:0.5;fill:#606060"
   inkscape:connector-curvature="0"
   id="path212"
   d="m 93.8,269.8 c -0.1,-0.4 -0.4,-0.6 -0.8,-0.6 -0.5,0 -0.8,0.5 -0.8,1.1 0,0.4 0.2,0.8 0.5,1 0.1,0.4 0.4,0.6 0.8,0.6 0.5,0 0.8,-0.5 0.8,-1.1 0,-0.5 -0.2,-0.9 -0.5,-1 z"
   class="st37" />
		<path
   style="opacity:0.5;fill:#606060"
   inkscape:connector-curvature="0"
   id="path214"
   d="m 85.7,274.8 c -0.1,-0.2 -0.2,-0.4 -0.4,-0.4 -0.2,0 -0.4,0.3 -0.4,0.6 0,0.3 0.1,0.5 0.2,0.6 0.1,0.2 0.2,0.4 0.4,0.4 0.2,0 0.4,-0.3 0.4,-0.6 0,-0.3 -0.1,-0.5 -0.2,-0.6 z"
   class="st37" />
		<path
   style="opacity:0.5;fill:#606060"
   inkscape:connector-curvature="0"
   id="path216"
   d="m 80.4,275.8 c -0.1,-0.2 -0.2,-0.4 -0.4,-0.4 -0.2,0 -0.4,0.3 -0.4,0.6 0,0.3 0.1,0.5 0.2,0.6 0.1,0.2 0.2,0.4 0.4,0.4 0.2,0 0.4,-0.3 0.4,-0.6 0.1,-0.3 0,-0.5 -0.2,-0.6 z"
   class="st37" />
		<path
   style="opacity:0.5;fill:#606060"
   inkscape:connector-curvature="0"
   id="path218"
   d="m 89.7,269 c 0,-0.3 -0.2,-0.6 -0.4,-0.6 -0.3,-0.1 -0.6,0.3 -0.7,0.7 -0.1,0.3 0,0.7 0.2,0.8 0,0.3 0.2,0.6 0.4,0.6 0.3,0.1 0.6,-0.3 0.7,-0.7 0,-0.3 0,-0.6 -0.2,-0.8 z"
   class="st37" />
	</g><path
   style="fill:#fcfcf8;stroke:#000000;stroke-miterlimit:10"
   inkscape:connector-curvature="0"
   id="path220"
   d="m 268,90.5 0,0 c -1.4,0 -2.5,-1.1 -2.5,-2.5 v -3 c 0,-1.4 1.1,-2.5 2.5,-2.5 l 0,0 c 1.4,0 2.5,1.1 2.5,2.5 v 3 c 0,1.4 -1.1,2.5 -2.5,2.5 z"
   class="st38" /><path
   style="fill:#fcfcf8;stroke:#000000;stroke-miterlimit:10"
   inkscape:connector-curvature="0"
   id="path222"
   d="m 325,90.5 0,0 c -1.4,0 -2.5,-1.1 -2.5,-2.5 v -3 c 0,-1.4 1.1,-2.5 2.5,-2.5 l 0,0 c 1.4,0 2.5,1.1 2.5,2.5 v 3 c 0,1.4 -1.1,2.5 -2.5,2.5 z"
   class="st38" /><path
   style="fill:#fcfcf8;stroke:#000000;stroke-miterlimit:10"
   inkscape:connector-curvature="0"
   id="path224"
   d="m 328.5,107 0,0 c 0,1.4 -1.1,2.5 -2.5,2.5 h -3 c -1.4,0 -2.5,-1.1 -2.5,-2.5 l 0,0 c 0,-1.4 1.1,-2.5 2.5,-2.5 h 3 c 1.4,0 2.5,1.1 2.5,2.5 z"
   class="st38" /><path
   style="fill:#fcfcf8;stroke:#000000;stroke-miterlimit:10"
   inkscape:connector-curvature="0"
   id="path226"
   d="m 272.5,106.8 v 0.4 c 0,1.3 -1,2.3 -2.3,2.3 h -3.4 c -1.3,0 -2.3,-1 -2.3,-2.3 v -0.4 c 0,-1.3 1,-2.3 2.3,-2.3 h 3.4 c 1.3,0 2.3,1 2.3,2.3 z"
   class="st38" /><path
   class="st0"
   d="m 267,130.2 0,-5.1 -1,0 0,-1.9 c 0,-0.6 -0.5,-1.1 -1.1,-1.2 l -23.1,-0.1 c -0.6,0 -1.1,0.5 -1.2,1.1 l 0,1.9 -1,0 0,5.1 1,0 0,6.2 c 0,-0.1 0,-0.1 -0.1,-0.1 l -0.8,0 c -0.1,0 -0.1,0 -0.1,0.1 l 0,4.9 c 0,0.1 0,0.1 0.1,0.1 l 0.8,0 c 0.1,0 0.1,0 0.1,-0.1 l 0,2 c 0,0.6 0.5,1.1 1.1,1.2 l 23.1,0.1 c 0.6,0 1.1,-0.5 1.2,-1.1 l 0,-2 c 0,0.1 0,0.1 0.1,0.1 l 0.8,0 c 0.1,0 0.1,0 0.1,-0.1 l 0,-4.9 c 0,-0.1 0,-0.1 -0.1,-0.1 l -0.8,0 c -0.1,0 -0.1,0 -0.1,0.1 l 0,-6.2 1,0 z"
   id="path230"
   inkscape:connector-curvature="0"
   style="fill:#abb2b3;stroke:#050505;stroke-miterlimit:10" /><path
   class="st11"
   d="m 263.8,143.6 h -21.7 c -0.6,0 -1.1,-0.5 -1.1,-1.1 v -18.9 c 0,-0.6 0.5,-1.1 1.1,-1.1 h 21.7 c 0.6,0 1.1,0.5 1.1,1.1 v 18.9 c 0,0.6 -0.5,1.1 -1.1,1.1 z"
   id="path232"
   inkscape:connector-curvature="0"
   style="fill:#f9f8f2" /><path
   class="st12"
   d="m 260.2,139.3 h -13.5 c -0.2,0 -0.4,-0.2 -0.4,-0.4 v -10.6 c 0,-0.2 0.2,-0.4 0.4,-0.4 h 13.5 c 0.2,0 0.4,0.2 0.4,0.4 v 10.6 c 0,0.2 -0.2,0.4 -0.4,0.4 z"
   id="path234"
   inkscape:connector-curvature="0"
   style="fill:#68686f;stroke:#050505;stroke-width:0.69999999;stroke-miterlimit:10" /><rect
   x="247.2"
   y="126.4"
   class="st13"
   width="12"
   height="1"
   id="rect236"
   style="fill:#80807f" /><rect
   x="264.89999"
   y="125.4"
   class="st14"
   width="1"
   height="4.8000002"
   id="rect238"
   style="fill:#abb2b3" /><path
   class="st14"
   d="M 265.8,140.7 H 265 c -0.1,0 -0.1,0 -0.1,-0.1 V 136 c 0,-0.1 0,-0.1 0.1,-0.1 h 0.8 c 0.1,0 0.1,0 0.1,0.1 l -0.1,4.7 c 0.1,0 0,0 0,0 z"
   id="path240"
   inkscape:connector-curvature="0"
   style="fill:#abb2b3" /><rect
   x="240"
   y="125.4"
   class="st14"
   width="1"
   height="4.8000002"
   id="rect242"
   style="fill:#abb2b3" /><path
   class="st14"
   d="M 240.8,140.7 H 240 c -0.1,0 -0.1,0 -0.1,-0.1 V 136 c 0,-0.1 0,-0.1 0.1,-0.1 h 0.8 c 0.1,0 0.1,0 0.1,0.1 l -0.1,4.7 c 0.1,0 0.1,0 0,0 z"
   id="path244"
   inkscape:connector-curvature="0"
   style="fill:#abb2b3" /><g
   id="g246">
		<path
   style="fill:#abb2b3;stroke:#050505;stroke-miterlimit:10"
   inkscape:connector-curvature="0"
   id="path248"
   d="m 310,130.2 0,-5.1 -1,0 0,-1.9 c 0,-0.6 -0.5,-1.1 -1.1,-1.2 l -23.1,-0.1 c -0.6,0 -1.1,0.5 -1.2,1.1 l 0,1.9 -1,0 0,5.1 1,0 0,6.2 c 0,-0.1 0,-0.1 -0.1,-0.1 l -0.8,0 c -0.1,0 -0.1,0 -0.1,0.1 l 0,4.9 c 0,0.1 0,0.1 0.1,0.1 l 0.8,0 c 0.1,0 0.1,0 0.1,-0.1 l 0,2 c 0,0.6 0.5,1.1 1.1,1.2 l 23.1,0.1 c 0.6,0 1.1,-0.5 1.2,-1.1 l 0,-2 c 0,0.1 0,0.1 0.1,0.1 l 0.8,0 c 0.1,0 0.1,0 0.1,-0.1 l 0,-4.9 c 0,-0.1 0,-0.1 -0.1,-0.1 l -0.8,0 c -0.1,0 -0.1,0 -0.1,0.1 l 0,-6.2 1,0 z"
   class="st0" />
		<path
   style="fill:#f9f8f2"
   inkscape:connector-curvature="0"
   id="path250"
   d="m 306.8,143.6 h -21.7 c -0.6,0 -1.1,-0.5 -1.1,-1.1 v -18.9 c 0,-0.6 0.5,-1.1 1.1,-1.1 h 21.7 c 0.6,0 1.1,0.5 1.1,1.1 v 18.9 c 0,0.6 -0.5,1.1 -1.1,1.1 z"
   class="st11" />
		<path
   style="fill:#68686f;stroke:#050505;stroke-width:0.69999999;stroke-miterlimit:10"
   inkscape:connector-curvature="0"
   id="path252"
   d="m 303.2,139.3 h -13.5 c -0.2,0 -0.4,-0.2 -0.4,-0.4 v -10.6 c 0,-0.2 0.2,-0.4 0.4,-0.4 h 13.5 c 0.2,0 0.4,0.2 0.4,0.4 v 10.6 c 0,0.2 -0.2,0.4 -0.4,0.4 z"
   class="st12" />
		<rect
   style="fill:#80807f"
   id="rect254"
   height="1"
   width="12"
   class="st13"
   y="126.4"
   x="290.20001" />
		<rect
   style="fill:#abb2b3"
   id="rect256"
   height="4.8000002"
   width="1"
   class="st14"
   y="125.4"
   x="307.89999" />
		<path
   style="fill:#abb2b3"
   inkscape:connector-curvature="0"
   id="path258"
   d="M 308.8,140.7 H 308 c -0.1,0 -0.1,0 -0.1,-0.1 V 136 c 0,-0.1 0,-0.1 0.1,-0.1 h 0.8 c 0.1,0 0.1,0 0.1,0.1 l -0.1,4.7 c 0.1,0 0,0 0,0 z"
   class="st14" />
		<rect
   style="fill:#abb2b3"
   id="rect260"
   height="4.8000002"
   width="1"
   class="st14"
   y="125.4"
   x="283" />
		<path
   style="fill:#abb2b3"
   inkscape:connector-curvature="0"
   id="path262"
   d="M 283.8,140.7 H 283 c -0.1,0 -0.1,0 -0.1,-0.1 V 136 c 0,-0.1 0,-0.1 0.1,-0.1 h 0.8 c 0.1,0 0.1,0 0.1,0.1 l -0.1,4.7 c 0.1,0 0.1,0 0,0 z"
   class="st14" />
	</g><g
   id="g264">
		<path
   style="fill:#abb2b3;stroke:#050505;stroke-miterlimit:10"
   inkscape:connector-curvature="0"
   id="path266"
   d="m 352,130.2 0,-5.1 -1,0 0,-1.9 c 0,-0.6 -0.5,-1.1 -1.1,-1.2 l -23.1,-0.1 c -0.6,0 -1.1,0.5 -1.2,1.1 l 0,1.9 -1,0 0,5.1 1,0 0,6.2 c 0,-0.1 0,-0.1 -0.1,-0.1 l -0.8,0 c -0.1,0 -0.1,0 -0.1,0.1 l 0,4.9 c 0,0.1 0,0.1 0.1,0.1 l 0.8,0 c 0.1,0 0.1,0 0.1,-0.1 l 0,2 c 0,0.6 0.5,1.1 1.1,1.2 l 23.1,0.1 c 0.6,0 1.1,-0.5 1.2,-1.1 l 0,-2 c 0,0.1 0,0.1 0.1,0.1 l 0.8,0 c 0.1,0 0.1,0 0.1,-0.1 l 0,-4.9 c 0,-0.1 0,-0.1 -0.1,-0.1 l -0.8,0 c -0.1,0 -0.1,0 -0.1,0.1 l 0,-6.2 1,0 z"
   class="st0" />
		<path
   style="fill:#f9f8f2"
   inkscape:connector-curvature="0"
   id="path268"
   d="m 348.8,143.6 h -21.7 c -0.6,0 -1.1,-0.5 -1.1,-1.1 v -18.9 c 0,-0.6 0.5,-1.1 1.1,-1.1 h 21.7 c 0.6,0 1.1,0.5 1.1,1.1 v 18.9 c 0,0.6 -0.5,1.1 -1.1,1.1 z"
   class="st11" />
		<path
   style="fill:#68686f;stroke:#050505;stroke-width:0.69999999;stroke-miterlimit:10"
   inkscape:connector-curvature="0"
   id="path270"
   d="m 345.2,139.3 h -13.5 c -0.2,0 -0.4,-0.2 -0.4,-0.4 v -10.6 c 0,-0.2 0.2,-0.4 0.4,-0.4 h 13.5 c 0.2,0 0.4,0.2 0.4,0.4 v 10.6 c 0,0.2 -0.2,0.4 -0.4,0.4 z"
   class="st12" />
		<rect
   style="fill:#80807f"
   id="rect272"
   height="1"
   width="12"
   class="st13"
   y="126.4"
   x="332.20001" />
		<rect
   style="fill:#abb2b3"
   id="rect274"
   height="4.8000002"
   width="1"
   class="st14"
   y="125.4"
   x="349.89999" />
		<path
   style="fill:#abb2b3"
   inkscape:connector-curvature="0"
   id="path276"
   d="M 350.8,140.7 H 350 c -0.1,0 -0.1,0 -0.1,-0.1 V 136 c 0,-0.1 0,-0.1 0.1,-0.1 h 0.8 c 0.1,0 0.1,0 0.1,0.1 l -0.1,4.7 c 0.1,0 0,0 0,0 z"
   class="st14" />
		<rect
   style="fill:#abb2b3"
   id="rect278"
   height="4.8000002"
   width="1"
   class="st14"
   y="125.4"
   x="325" />
		<path
   style="fill:#abb2b3"
   inkscape:connector-curvature="0"
   id="path280"
   d="M 325.8,140.7 H 325 c -0.1,0 -0.1,0 -0.1,-0.1 V 136 c 0,-0.1 0,-0.1 0.1,-0.1 h 0.8 c 0.1,0 0.1,0 0.1,0.1 l -0.1,4.7 c 0.1,0 0.1,0 0,0 z"
   class="st14" />
	</g>



<linearGradient
   id="SVGID_4_"
   gradientUnits="userSpaceOnUse"
   x1="-1297.5"
   y1="-31"
   x2="-1297.5"
   y2="-48">
	<stop
   offset="0.5825"
   style="stop-color:#C69E56"
   id="stop289" />
	<stop
   offset="0.9962"
   style="stop-color:#F3C36B"
   id="stop291" />
</linearGradient>

<linearGradient
   id="SVGID_5_"
   gradientUnits="userSpaceOnUse"
   x1="-1297.5"
   y1="-83"
   x2="-1297.5"
   y2="-100">
	<stop
   offset="0.5825"
   style="stop-color:#C69E56"
   id="stop296" />
	<stop
   offset="0.9962"
   style="stop-color:#F3C36B"
   id="stop298" />
</linearGradient>

<linearGradient
   id="SVGID_6_"
   gradientUnits="userSpaceOnUse"
   x1="-1297.5"
   y1="-29"
   x2="-1297.5"
   y2="-102">
	<stop
   offset="0.5825"
   style="stop-color:#C69E56"
   id="stop303" />
	<stop
   offset="0.9962"
   style="stop-color:#F3C36B"
   id="stop305" />
</linearGradient>

<path
   style="fill:#fae47f;stroke:#050505;stroke-miterlimit:10"
   inkscape:connector-curvature="0"
   clip-path="url(#SVGID_8_)"
   id="path317"
   d="m 519.9,441 h -52.8 c -3.9,0 -7.1,3.2 -7.1,7.1 v 60.8 c 0,3.9 3.2,7.1 7.1,7.1 H 480 v -5.8 -5.2 -40.2 c 0,-2.1 1.7,-3.8 3.8,-3.8 h 18.3 c 2.1,0 3.8,1.7 3.8,3.8 v 40.2 5.2 5.8 h 13.9 c 3.9,0 7.1,-3.2 7.1,-7.1 v -60.8 c 0.1,-3.9 -3.1,-7.1 -7,-7.1 z m -3.4,14 c -1.9,0 -3.5,-1.6 -3.5,-3.5 0,-1.9 1.6,-3.5 3.5,-3.5 1.9,0 3.5,1.6 3.5,3.5 0,1.9 -1.6,3.5 -3.5,3.5 z"
   class="st45" /><path
   style="fill:#fae47f;stroke:#050505;stroke-miterlimit:10"
   inkscape:connector-curvature="0"
   clip-path="url(#SVGID_8_)"
   id="path319"
   d="m 277,441 h -60 c -2.2,0 -4,1.8 -4,4 v 11 c 0,2.2 1.8,4 4,4 h 15.5 c 2.5,0 4.5,2 4.5,4.5 V 512 h 19 v -47.5 c 0,-2.5 2,-4.5 4.5,-4.5 H 277 c 2.2,0 4,-1.8 4,-4 v -11 c 0,-2.2 -1.8,-4 -4,-4 z m -5,15 c -2.8,0 -5,-2.2 -5,-5 0,-2.8 2.2,-5 5,-5 2.8,0 5,2.2 5,5 0,2.8 -2.2,5 -5,5 z"
   class="st45" /><path
   style="fill:#fae47f;stroke:#050505;stroke-miterlimit:10"
   inkscape:connector-curvature="0"
   clip-path="url(#SVGID_8_)"
   id="path321"
   d="m 194.3,440.5 h -11.5 c -2.3,0 -4.2,1.9 -4.2,4.2 v 44.7 c 0,1.1 -0.9,2 -2,2 h -32.7 c -2.3,0 -4.2,1.9 -4.2,4.2 v 11.5 c 0,2.3 1.9,4.2 4.2,4.2 h 50.5 c 2.3,0 4.2,-1.9 4.2,-4.2 v -8 -3.5 -51 c -0.1,-2.2 -2,-4.1 -4.3,-4.1 z M 189,456 c -2.8,0 -5,-2.2 -5,-5 0,-2.8 2.2,-5 5,-5 2.8,0 5,2.2 5,5 0,2.8 -2.2,5 -5,5 z"
   class="st45" /><g
   clip-path="url(#SVGID_8_)"
   id="g323"
   class="st46">
		<path
   style="fill:#fae47f;stroke:#050505;stroke-miterlimit:10"
   inkscape:connector-curvature="0"
   id="path325"
   d="M 121.7,440.5 H 67.3 c -3.2,0 -5.8,2.6 -5.8,5.8 v 59.5 c 0,3.2 2.6,5.8 5.8,5.8 h 14.1 c -0.5,-0.8 -0.9,-1.7 -0.9,-2.7 v -15.6 c 0,-2.6 2.1,-4.7 4.7,-4.7 h 37.6 c 2.6,0 4.7,-2.1 4.7,-4.7 v -37.6 c 0,-3.2 -2.6,-5.8 -5.8,-5.8 z m -3.2,14.5 c -2.5,0 -4.5,-2 -4.5,-4.5 0,-2.5 2,-4.5 4.5,-4.5 2.5,0 4.5,2 4.5,4.5 0,2.5 -2,4.5 -4.5,4.5 z"
   class="st47" />
		<linearGradient
   y2="441.79391"
   x2="94.517403"
   y1="510"
   x1="94.517403"
   gradientUnits="userSpaceOnUse"
   id="SVGID_9_">
			<stop
   id="stop328"
   style="stop-color:#C69E56"
   offset="0.5825" />
			<stop
   id="stop330"
   style="stop-color:#F3C36B"
   offset="0.9962" />
		</linearGradient>
		<path
   inkscape:connector-curvature="0"
   style="fill:url(#SVGID_9_)"
   id="path332"
   d="M 121.2,441.8 H 67.8 c -2.6,0 -4.8,2.5 -4.8,5.5 v 57.1 c 0,3 2.2,5.5 4.8,5.5 h 11.7 c -0.4,-0.7 -0.7,-1.6 -0.7,-2.6 v -15 c 0,-2.5 1.8,-5.5 3.9,-5.5 H 122 c 2.2,0 3.9,-2 3.9,-4.5 v -35.1 c 0.1,-2.9 -2.1,-5.4 -4.7,-5.4 z m -2.7,13.2 c -2.5,0 -4.5,-2 -4.5,-4.5 0,-2.5 2,-4.5 4.5,-4.5 2.5,0 4.5,2 4.5,4.5 0,2.5 -2,4.5 -4.5,4.5 z"
   class="st48" />
	</g><path
   style="fill:#fae47f;stroke:#050505;stroke-miterlimit:10"
   inkscape:connector-curvature="0"
   clip-path="url(#SVGID_8_)"
   id="path334"
   d="M 129,512 H 86 v -15.1 c 0,-2.7 2.2,-4.9 4.9,-4.9 H 124 c 2.7,0 4.9,2.2 4.9,4.9 V 512 z"
   class="st45" /><path
   inkscape:connector-curvature="0"
   style="fill:url(#SVGID_10_)"
   clip-path="url(#SVGID_8_)"
   id="path341"
   d="M 128,512 H 87 v -14.5 c 0,-2.5 2,-4.5 4.5,-4.5 h 31.9 c 2.5,0 4.5,2 4.5,4.5 V 512 z"
   class="st49" /><path
   style="fill:#fae47f;stroke:#050505;stroke-miterlimit:10"
   inkscape:connector-curvature="0"
   clip-path="url(#SVGID_8_)"
   id="path343"
   d="m 171.7,488.5 h -27.4 c -2.6,0 -4.8,-2.1 -4.8,-4.8 v -38.4 c 0,-2.6 2.1,-4.8 4.8,-4.8 h 27.4 c 2.6,0 4.8,2.1 4.8,4.8 v 38.4 c 0,2.7 -2.1,4.8 -4.8,4.8 z"
   class="st45" /><path
   inkscape:connector-curvature="0"
   style="fill:url(#SVGID_11_)"
   clip-path="url(#SVGID_8_)"
   id="path350"
   d="M 175,446.1 V 483 c 0,2.2 -1.8,4.1 -4.1,4.1 H 145 c -2.2,0 -4.1,-1.8 -4.1,-4.1 v -36.9 c 0,-2.2 1.8,-4.1 4.1,-4.1 h 25.9 c 2.3,0 4.1,1.8 4.1,4.1 z"
   class="st50" /><path
   inkscape:connector-curvature="0"
   style="fill:url(#SVGID_12_)"
   clip-path="url(#SVGID_8_)"
   id="path357"
   d="m 193,442 h -8.8 c -2.2,0 -4,1.2 -4,3.4 V 491 c 0,1 -0.8,1.8 -1.9,1.8 h -33.8 c -2.2,0 -4,1.7 -4,3.9 v 9.5 c 0,2.1 1.8,3.9 4,3.9 H 193 c 2.2,0 4,-1.7 4,-3.9 v -6.3 -3.2 -51.3 c 0,-2.2 -1.8,-3.4 -4,-3.4 z m -4,14 c -2.8,0 -5,-2.2 -5,-5 0,-2.8 2.2,-5 5,-5 2.8,0 5,2.2 5,5 0,2.8 -2.2,5 -5,5 z"
   class="st51" /><path
   style="fill:#fae47f;stroke:#050505;stroke-miterlimit:10"
   inkscape:connector-curvature="0"
   clip-path="url(#SVGID_8_)"
   id="path359"
   d="m 233,512 h -20 v -43.7 c 0,-2.9 2.4,-5.3 5.3,-5.3 h 9.4 c 2.9,0 5.3,2.4 5.3,5.3 V 512 z"
   class="st45" /><path
   style="fill:#fae47f;stroke:#050505;stroke-miterlimit:10"
   inkscape:connector-curvature="0"
   clip-path="url(#SVGID_8_)"
   id="path361"
   d="m 280,512 h -20 v -43.7 c 0,-2.9 2.4,-5.3 5.3,-5.3 h 9.4 c 2.9,0 5.3,2.4 5.3,5.3 V 512 z"
   class="st45" /><path
   inkscape:connector-curvature="0"
   style="fill:url(#SVGID_13_)"
   clip-path="url(#SVGID_8_)"
   id="path368"
   d="m 232,511 h -18 v -42.3 c 0,-2.6 2.1,-4.7 4.7,-4.7 h 8.6 c 2.6,0 4.7,2.1 4.7,4.7 V 511 z"
   class="st52" /><path
   inkscape:connector-curvature="0"
   style="fill:url(#SVGID_14_)"
   clip-path="url(#SVGID_8_)"
   id="path375"
   d="m 279,511 h -18 v -42.3 c 0,-2.6 2.1,-4.7 4.7,-4.7 h 8.6 c 2.6,0 4.7,2.1 4.7,4.7 V 511 z"
   class="st53" /><path
   inkscape:connector-curvature="0"
   style="fill:url(#SVGID_15_)"
   clip-path="url(#SVGID_8_)"
   id="path382"
   d="m 275.4,443 h -56.6 c -2.1,0 -3.8,1.7 -3.8,3.8 v 8.4 c 0,2.1 1.7,3.8 3.8,3.8 h 14.6 c 2.3,0 5.2,1.9 5.2,4.2 V 512 h 15.9 v -47.8 c 0,-2.3 1.4,-5.2 5.2,-5.2 h 15.6 c 2.6,0.1 3.8,-1.7 3.8,-3.8 v -8.4 c 0.1,-2.1 -1.6,-3.8 -3.7,-3.8 z m -3.4,13 c -2.8,0 -5,-2.2 -5,-5 0,-2.8 2.2,-5 5,-5 2.8,0 5,2.2 5,5 0,2.8 -2.2,5 -5,5 z"
   class="st54" /><path
   style="fill:#fae47f;stroke:#050505;stroke-miterlimit:10"
   inkscape:connector-curvature="0"
   clip-path="url(#SVGID_8_)"
   id="path384"
   d="m 382.9,514.5 c -3.5,0 -6.4,-2.8 -6.4,-6.4 v -61.3 c 0,-3.5 2.8,-6.4 6.4,-6.4 h 56.3 c 3.5,0 6.4,2.8 6.4,6.4 v 61.3 c 0,3.5 -2.8,6.4 -6.4,6.4 h -56.3 z m 20,-53 c -2.4,0 -4.4,2 -4.4,4.4 v 23.3 c 0,2.4 2,4.4 4.4,4.4 h 17.3 c 2.4,0 4.4,-2 4.4,-4.4 v -23.3 c 0,-2.4 -2,-4.4 -4.4,-4.4 H 402.9 z M 435.5,448 c -1.9,0 -3.5,1.6 -3.5,3.5 0,1.9 1.6,3.5 3.5,3.5 1.9,0 3.5,-1.6 3.5,-3.5 0,-1.9 -1.6,-3.5 -3.5,-3.5 z"
   class="st45" /><path
   inkscape:connector-curvature="0"
   style="fill:url(#SVGID_16_)"
   clip-path="url(#SVGID_8_)"
   id="path391"
   d="m 439.1,441.5 h -56.3 c -3,0 -5.4,2.4 -5.4,5.4 v 61.3 c 0,3 2.4,5.4 5.4,5.4 h 56.3 c 3,0 5.4,-2.4 5.4,-5.4 v -61.3 c 0,-3 -2.4,-5.4 -5.4,-5.4 z m -13.6,47.6 c 0,3 -2.4,5.4 -5.4,5.4 h -17.3 c -3,0 -5.4,-2.4 -5.4,-5.4 v -23.3 c 0,-3 2.4,-5.4 5.4,-5.4 h 17.3 c 3,0 5.4,2.4 5.4,5.4 v 23.3 z m 10,-33.1 c -2.5,0 -4.5,-2 -4.5,-4.5 0,-2.5 2,-4.5 4.5,-4.5 2.5,0 4.5,2 4.5,4.5 0,2.5 -2,4.5 -4.5,4.5 z"
   class="st55" /><rect
   style="fill:#fae47f;stroke:#050505;stroke-miterlimit:10"
   clip-path="url(#SVGID_8_)"
   id="rect393"
   height="19"
   width="19"
   class="st45"
   transform="matrix(0,1,-1,0,833,174)"
   y="494"
   x="320" /><rect
   style="fill:url(#SVGID_17_)"
   clip-path="url(#SVGID_8_)"
   id="rect400"
   height="17"
   width="17"
   class="st56"
   y="495"
   x="321" /><rect
   style="fill:#fae47f;stroke:#050505;stroke-miterlimit:10"
   clip-path="url(#SVGID_8_)"
   id="rect402"
   height="19"
   width="19"
   class="st45"
   transform="matrix(0,1,-1,0,781,122)"
   y="442"
   x="320" /><rect
   style="fill:url(#SVGID_18_)"
   clip-path="url(#SVGID_8_)"
   id="rect409"
   height="17"
   width="17"
   class="st57"
   y="443"
   x="321" /><path
   style="fill:#fae47f;stroke:#050505;stroke-miterlimit:10"
   inkscape:connector-curvature="0"
   clip-path="url(#SVGID_8_)"
   id="path411"
   d="m 343,515 v -25 h -27 v 24 h -20 v -67.9 c 0,-3.4 2.7,-6.1 6.1,-6.1 h 7.8 c 3.4,0 6.1,2.7 6.1,6.1 V 465 h 27 v -17.9 c 0,-3.4 2.7,-6.1 6.1,-6.1 h 7.8 c 3.4,0 6.1,2.7 6.1,6.1 V 515 h -20 z m 10,-67 c -1.7,0 -3,1.3 -3,3 0,1.7 1.3,3 3,3 1.7,0 3,-1.3 3,-3 0,-1.7 -1.3,-3 -3,-3 z"
   class="st45" /><path
   inkscape:connector-curvature="0"
   style="fill:url(#SVGID_19_)"
   clip-path="url(#SVGID_8_)"
   id="path418"
   d="m 356.9,442 h -7.8 c -2.8,0 -5.1,2.3 -5.1,5.1 V 466 h -29 v -19.9 c 0,-2.8 -2.3,-5.1 -5.1,-5.1 h -7.8 c -2.8,0 -5.1,2.3 -5.1,5.1 V 513 h 18 v -24 h 29 v 25 h 18 v -66.9 c 0,-2.8 -2.3,-5.1 -5.1,-5.1 z m -3.9,13 c -2.2,0 -4,-1.8 -4,-4 0,-2.2 1.8,-4 4,-4 2.2,0 4,1.8 4,4 0,2.2 -1.8,4 -4,4 z"
   class="st58" /><path
   inkscape:connector-curvature="0"
   style="fill:url(#SVGID_20_)"
   clip-path="url(#SVGID_8_)"
   id="path425"
   d="m 519.9,442 h -52.8 c -3.4,0 -6.1,2.7 -6.1,6.1 v 60.8 c 0,3.4 2.7,6.1 6.1,6.1 H 479 v -4.8 -3.2 -42.2 c 0,-2.7 2.2,-4.8 4.8,-4.8 h 18.3 c 2.7,0 4.8,2.2 4.8,4.8 v 42.2 3.2 4.8 h 12.9 c 3.4,0 6.1,-2.7 6.1,-6.1 v -60.8 c 0.1,-3.4 -2.6,-6.1 -6,-6.1 z m -3.4,14 c -2.5,0 -4.5,-2 -4.5,-4.5 0,-2.5 2,-4.5 4.5,-4.5 2.5,0 4.5,2 4.5,4.5 0,2.5 -2,4.5 -4.5,4.5 z"
   class="st59" />
<g
   id="g427">
	<path
   class="st60"
   d="M124.2,112.5c0,0.7-0.2,1.3-0.7,1.7c-0.5,0.4-1,0.7-1.6,0.7c-0.5,0-0.9-0.1-1.3-0.4c-0.4-0.3-0.7-0.7-0.9-1.2   l-2.1-4.9h-12.1l-2.1,4.9c-0.2,0.5-0.5,0.9-0.9,1.2c-0.4,0.3-0.8,0.4-1.3,0.4c-0.7,0-1.2-0.2-1.6-0.6s-0.5-0.9-0.5-1.5   c0-0.2,0-0.5,0.1-0.8l10.1-24.3c0.2-0.5,0.5-1,1-1.3c0.4-0.3,0.9-0.4,1.5-0.4c0.5,0,0.9,0.1,1.4,0.4c0.4,0.3,0.7,0.7,0.9,1.2   l10,23.8C124.2,111.9,124.2,112.2,124.2,112.5z M107.5,103.7h8.1l-4.1-9.5L107.5,103.7z"
   id="path429" />
</g>
<g
   id="g431">
	<path
   class="st60"
   d="M488.3,101.6c0.9,1.2,1.4,2.7,1.4,4.5c0,3.2-0.9,5.5-2.8,6.7c-1.8,1.3-4,1.9-6.6,1.9h-10.1   c-0.7,0-1.3-0.2-1.8-0.7c-0.5-0.5-0.7-1.1-0.7-1.8V88.8c0-0.7,0.2-1.3,0.7-1.8c0.5-0.5,1.1-0.7,1.8-0.7h10.2c5.1,0,7.7,2.4,7.7,7.2   c0,1.2-0.3,2.3-0.9,3.2s-1.4,1.7-2.5,2.2C486.2,99.5,487.4,100.4,488.3,101.6z M482.1,91.9c-0.6-0.6-1.3-0.8-2.3-0.8H473v6.3h6.8   c0.8,0,1.5-0.3,2.1-0.8c0.6-0.5,0.9-1.3,0.9-2.2C482.9,93.3,482.6,92.5,482.1,91.9z M483.3,109c0.7-0.7,1.1-1.7,1.1-3   c0-1.6-0.4-2.6-1.3-3.1c-0.8-0.5-1.9-0.7-3.1-0.7h-7v7.8h7.3C481.6,110,482.6,109.7,483.3,109z"
   id="path433" />
</g>
<g
   id="g435">
	<rect
   x="102"
   y="73"
   width="16"
   height="3"
   id="rect437" />
	<path
   class="st61"
   d="M101,69c0,0-3,1-2,3s4,1,4,1h19l-3-4H101z"
   id="path439" />
</g>
<g
   id="g441">
	<rect
   x="467"
   y="73"
   width="16"
   height="3"
   id="rect443" />
	<path
   class="st61"
   d="M466,69c0,0-3,1-2,3s4,1,4,1h19l-3-4H466z"
   id="path445" />
</g>
</svg>