<?xml version="1.0" encoding="UTF-8" standalone="no"?>
<svg xmlns="http://www.w3.org/2000/svg" xmlns:xlink="http://www.w3.org/1999/xlink" width="297.000mm" height="210.000mm" viewBox="0.000000 0.000000 297.000000 210.000000" stroke-linejoin="round" stroke-linecap="round" fill="none" fill-rule="evenodd"><desc>3DVIA Composer Export</desc><script type="text/ecmascript"><![CDATA[
if(typeof(top) != "undefined")
{
	top.ShowPaper = ShowPaper;
}
function ShowHotSpot(evt,hotspotid)
{
	var svgDocument = evt.target.ownerDocument;
	var strId = "hotspot."+hotspotid;
	var hotspot = svgDocument.getElementById(strId);
	if(hotspot)
		hotspot.setAttribute("opacity",".5");
}
function HideHotSpot(evt,hotspotid)
{
	var svgDocument = evt.target.ownerDocument;
	var strId = "hotspot."+hotspotid;
	var hotspot = svgDocument.getElementById(strId);
	if(hotspot)
		hotspot.setAttribute("opacity","0");

	var toolTip = svgDocument.getElementById('ToolTip');
	if(toolTip)
		toolTip.setAttribute("visibility","hidden");
}
function ShowToolTip(evt,hotspotid,strTooltip)
{
	if(strTooltip=="")
	return;

	// change text
	var svgDocument = evt.target.ownerDocument;
	var tiptext = svgDocument.getElementById('ToolTipText');
	if( !tiptext )
	return;
	tiptext.firstChild.nodeValue = " " + strTooltip + "  " ;

	// show tooltip before, else some refresh issue

	var toolTip = svgDocument.getElementById('ToolTip');
	if(!toolTip)
	return;

	toolTip.setAttribute("visibility","visible");
	toolTip.setAttribute("opacity",".95");

	// move tooltip
	// get viewbox

	var root = svgDocument.documentElement;
	var vbox = (root.getAttribute("viewBox")).split(' ');
	var x0 = parseFloat(vbox[0]);
	var y0 = parseFloat(vbox[1]);
	var vboxW = parseFloat(vbox[2]);
	var vboxH = parseFloat(vbox[3]);

	// get default width of svg

	var strW = root.getAttribute("width");
	var svgW = parseFloat(strW);
	if(strW.indexOf('mm') != -1)
	svgW *= 3.779;

	var strH = root.getAttribute("height");
	var svgH = parseFloat(strH);
	if(strH.indexOf('mm') != -1)
	svgH *= 3.779;  	// 96 dpi  -> 96/25.4 = 3.779

	// update the viewbox / width / height if svg is embedded in html with zoom fit all
	var realx0 = x0;
	var realy0 = y0;
	var realvboxW = vboxW;
	var realvboxH = vboxH;
	var realsvgW = svgW;
	var realsvgH = svgH;

	if ((typeof(top) == "undefined") || (typeof(top.svgctl1) != "undefined")) // embedded in html
	{
		// get window size in pxl

		svgW = window.innerWidth;
		svgH = window.innerHeight;

		// calculate real viewbox

		realsvgW = svgW;
		realsvgH = svgH;
		if((svgW / svgH) > (vboxW / vboxH))
		{
			realvboxW = (vboxH * svgW) / svgH;
			realvboxH = vboxH;
			realx0 = x0 - (realvboxW - vboxW)/2 ;
		}
		else
		{
			realvboxH = (vboxW * svgH) / svgW;
			realvboxW = vboxW;
			realy0 = y0 - (realvboxH - vboxH)/2 ;
		}
	}

	// get user zoom/pan

	var newScale = root.currentScale;
	var translation = root.currentTranslate;

	// transform pxl to user unit

	var xPos = (((evt.clientX+10- translation.x)/newScale) * realvboxW)/realsvgW  + realx0 ;
	var yPos = (((evt.clientY+5- translation.y)/newScale) * realvboxH)/ realsvgH  + realy0 ;
	var scaleForWidth = ( (1 / newScale) * realvboxH) / realsvgH;

	// move tooltip

	toolTip.setAttribute("transform", "translate(" + xPos + "," + yPos + ")" );

	// resize tooltip

	var fontsize = 12;
	tiptext.setAttribute("font-size",fontsize*scaleForWidth);
	tiptext.setAttribute("y", fontsize*scaleForWidth);
	var tipBG = svgDocument.getElementById('ToolTipBG');
	var outline = tiptext.getBBox();
	if(tipBG)
	{
		tipBG.setAttribute("stroke-width", 1*scaleForWidth);
		tipBG.setAttribute("width", Number(outline.width) );
		tipBG.setAttribute("height", Number(outline.height) + fontsize*.5*scaleForWidth );
	}
	var ToolTipShadow = svgDocument.getElementById('ToolTipShadow');
	if(ToolTipShadow)
	{
		ToolTipShadow.setAttribute("width", Number(outline.width) );
		ToolTipShadow.setAttribute("height", Number(outline.height) + fontsize*.5*scaleForWidth );
		ToolTipShadow.setAttribute("x", 3*scaleForWidth);
		ToolTipShadow.setAttribute("y", 3*scaleForWidth);
	}
}
function ShowPaper()
{
  var svgDocument = getDocument();
  var paper = svgDocument.getElementById("paperID");
  if(paper)
  {
    paper.setAttribute("transform","scale(1)");
    paper.setAttribute("opacity","1");
    paper.setAttribute("visibility","visible");
  }
  var svg = svgDocument.getRootElement();
  if(svg)
  {
    svg.setAttribute("width","307.000mm");
    svg.setAttribute("height","220.000mm");
    svg.setAttribute("viewBox","-5.000000 -5.000000 307.000000 220.000000");
  }
}
]]></script><defs/><g><path style="fill:#dcdcdc;fill-rule:evenodd" d="M182.31,74.59L191.31,70.19L191.68,70.23L191.71,70.59L183.18,82.49L182.26,83.27L182.04,83.90L179.67,87.47L177.72,88.63L176.96,90.41L175.86,91.86L173.77,92.88L171.74,93.12L170.63,94.83L167.83,96.27L166.10,96.21L164.68,98.22L162.73,99.38L160.43,99.62L159.59,101.04L157.61,102.46L154.52,103.04L154.31,103.40L153.37,104.72L151.42,105.89L149.12,106.13L148.00,107.84L145.49,109.28L143.21,109.55L142.62,110.66L140.40,112.40L138.95,112.65L139.34,116.34L139.34,119.26L139.06,121.24L138.41,123.42L136.79,126.04L135.41,127.20L132.17,128.78L124.27,132.19L119.81,132.18L117.27,131.33L113.91,129.32L111.02,127.04L110.97,126.77L113.31,127.65L116.42,128.51L120.39,129.06L125.11,129.06L127.96,128.80L128.57,128.57L129.44,126.90L130.00,124.34L130.00,120.01L128.88,114.63L127.64,111.48L136.52,106.51L136.23,105.02L135.84,104.12L136.10,103.85L136.52,103.84L137.35,105.03L137.84,107.09L142.71,108.52L143.03,107.66L142.44,103.62L141.47,100.75L141.78,100.44L142.14,100.49L143.02,101.91L143.56,103.91L148.41,105.37L148.67,104.55L148.39,101.35L147.22,97.94L147.16,97.40L147.83,97.13L148.67,98.52L149.15,100.58L154.03,102.01L154.35,101.46L154.04,97.95L152.81,94.22L153.07,93.95L153.49,93.95L154.32,95.13L154.80,97.20L158.84,98.54L159.90,98.54L159.98,96.26L159.13,92.58L158.53,91.44L158.47,90.89L159.15,90.62L159.99,92.01L160.54,94.00L163.08,94.86L165.55,95.43L165.64,92.86L165.06,90.33L164.12,87.71L164.38,87.45L164.79,87.45L165.64,88.62L166.12,90.69L170.14,92.03L171.30,92.13L171.29,89.47L170.17,85.23L169.81,84.36L170.49,84.08L171.30,85.51L171.85,87.50L176.95,89.02L176.95,86.08L176.10,82.68L175.43,81.21L175.70,80.95L176.43,81.21L177.25,82.66L177.43,84.18L179.77,84.97L180.62,85.06L180.63,82.40L180.06,80.14L178.66,77.28L178.54,76.48L179.69,75.86L180.36,75.85L181.51,77.28L182.91,79.27L183.09,80.83L183.73,80.83L183.73,79.29L183.17,77.03L182.30,75.33zM115.58,104.74L116.71,105.55L115.87,111.91L110.96,112.10L105.03,112.18L104.81,111.55L104.81,107.04L105.14,106.71L108.80,109.83L110.13,109.85L111.71,109.19L112.57,108.88L113.32,108.68L112.57,108.88L111.71,109.19L110.95,109.09L111.05,106.53L111.62,102.82L112.18,102.73zM119.85,111.95L119.35,111.71L120.11,111.50zM117.45,111.82L119.21,111.53L119.35,111.71L118.79,112.27L118.70,112.12zM114.84,114.24L117.59,112.78L118.79,112.27L118.72,112.76L117.71,114.04L111.90,123.78L111.63,123.73L111.05,120.86L111.06,118.13L115.34,114.47zM114.70,114.40L107.93,118.42L107.94,117.89L109.25,116.04L114.84,114.24z"/><g id="Actor_.0"><g style="stroke:#000000;stroke-width:0.353"><path d="M104.46,97.10L105.70,96.24L105.83,96.19L107.11,95.67L108.65,95.40L110.32,95.44L112.08,95.78L113.88,96.42L114.93,96.95L115.72,97.34L117.56,98.54L119.37,100.00L121.13,101.68L122.79,103.57L123.44,104.43L124.34,105.62L125.74,107.81L126.98,110.11L127.39,111.02L128.04,112.47L128.89,114.85L129.53,117.22L129.88,119.19L129.94,119.53L130.12,121.75L130.06,123.85L129.76,125.78L129.24,127.52L128.87,128.27L128.49,129.04L127.53,130.31L126.38,131.31L125.06,132.03"/><path d="M116.75,127.14L114.14,125.78L111.67,124.20L111.11,121.41L110.73,118.47L109.02,118.67L107.47,118.74L108.30,117.43L109.33,116.05L106.97,114.26L104.84,112.38L104.71,109.44L104.84,106.51"/><path d="M104.84,112.38L115.84,112.08"/><path d="M107.47,118.74L116.28,113.65L110.73,118.47"/><path d="M109.33,110.18L108.30,106.79L107.47,103.34"/><path d="M109.33,116.05L116.28,113.65L119.16,111.99L119.16,111.46"/><path d="M110.73,109.37L111.11,106.00L111.67,102.56"/><path d="M117.42,114.82L111.67,124.20"/><path d="M120.81,126.44L118.23,123.99L115.81,121.40"/><path d="M116.82,112.05L119.16,111.99L119.62,112.25"/><path d="M123.58,123.19L120.32,121.96L117.21,120.60"/><path d="M117.94,113.98L119.55,111.36"/><path d="M119.90,111.97L119.16,111.99L120.81,111.04"/><path d="M130.21,92.92L131.32,92.66L132.56,92.71L133.87,93.06L135.23,93.71L136.58,94.63L137.89,95.79L139.13,97.17L140.24,98.71L141.10,100.21L141.20,100.37L141.98,102.11L142.56,103.87L142.91,105.59L143.03,107.22L142.91,108.71L142.56,110.03L141.98,111.12L141.20,111.96"/><path d="M132.41,98.19L133.09,98.45L133.45,98.65L133.82,98.87L134.54,99.43L135.22,100.10L135.86,100.87L136.44,101.72L136.93,102.62L137.33,103.55L137.62,104.49L137.80,105.41L137.86,106.28L137.80,107.09L137.73,107.38"/><path d="M133.29,100.25L133.46,100.44L134.57,101.98L135.53,103.65L136.31,105.38L136.45,105.80"/><path d="M135.88,89.65L136.99,89.39L138.23,89.44L139.54,89.79L140.89,90.43L142.25,91.35L143.56,92.52L144.79,93.89L145.91,95.44L146.87,97.10L147.65,98.84L148.22,100.59L148.58,102.31L148.70,103.95L148.58,105.44L148.54,105.57L148.22,106.75L147.65,107.85L146.87,108.68"/><path d="M143.40,104.11L143.47,103.81L143.53,103.01L143.47,102.14L143.29,101.22L143.00,100.28L142.60,99.35L142.11,98.44L141.53,97.59L140.89,96.83L140.20,96.15L139.49,95.60L139.12,95.37L138.76,95.18L138.08,94.92"/><path d="M141.55,86.37L142.66,86.12L143.90,86.16L145.21,86.52L146.56,87.16L147.92,88.08L149.23,89.24L150.46,90.62L151.58,92.16L152.11,93.08L152.54,93.83L153.32,95.57L153.89,97.32L154.25,99.04L154.36,100.67L154.25,102.17L153.89,103.48L153.32,104.57L152.54,105.41"/><path d="M149.07,100.83L149.14,100.54L149.20,99.74L149.14,98.86L148.96,97.95L148.67,97.01L148.27,96.07L147.78,95.17L147.20,94.32L146.56,93.55L145.87,92.88L145.16,92.33L144.79,92.10L144.43,91.91L143.75,91.65"/><path d="M147.22,83.10L148.33,82.84L149.56,82.89L150.21,83.06L150.88,83.24L152.23,83.89L153.59,84.81L154.90,85.97L156.13,87.35L157.25,88.89L158.21,90.56L158.99,92.29L159.56,94.05L159.92,95.77L160.03,97.40L159.92,98.89L159.56,100.21L158.99,101.30L158.21,102.14"/><path d="M154.74,97.56L154.81,97.27L154.87,96.46L154.81,95.59L154.63,94.67L154.34,93.73L153.94,92.80L153.45,91.90L152.87,91.05L152.68,90.81L152.23,90.28L151.54,89.61L150.83,89.05L150.46,88.83L150.10,88.63L149.42,88.37"/><path d="M152.89,79.83L154.00,79.57L155.23,79.62L156.55,79.97L157.90,80.61L159.26,81.53L160.57,82.70L161.80,84.07L162.92,85.62L163.86,87.25L164.66,89.02L165.23,90.77L165.58,92.49L165.70,94.13L165.58,95.62L165.23,96.94L164.66,98.03L163.88,98.86"/><path d="M160.41,94.29L160.48,93.99L160.54,93.19L160.48,92.32L160.30,91.40L160.01,90.46L159.61,89.53L159.12,88.62L158.54,87.78L158.33,87.52L157.90,87.01L157.21,86.33L156.49,85.78L156.13,85.55L155.77,85.36L155.09,85.10"/><path d="M158.56,76.55L159.67,76.30L160.90,76.34L162.22,76.70L163.57,77.34L164.93,78.26L166.24,79.43L167.47,80.80L168.59,82.34L168.89,82.86L169.55,84.02L170.33,85.75L170.90,87.50L171.25,89.22L171.37,90.85L171.25,92.35L170.90,93.66L170.33,94.75L169.55,95.59"/><path d="M160.76,81.83L161.44,82.09L161.80,82.28L162.16,82.51L162.88,83.06L163.57,83.73L164.21,84.50L164.79,85.35L165.29,86.27L165.68,87.19L165.97,88.13L166.15,89.05L166.21,89.92L166.15,90.72L166.07,91.02"/><path d="M164.23,73.28L165.34,73.02L166.57,73.07L167.89,73.42L169.24,74.07L170.60,74.99L171.91,76.15L173.14,77.53L174.26,79.07L175.22,80.74L176.00,82.47L176.57,84.23L176.92,85.95L177.04,87.58L176.92,89.08L176.57,90.39L176.00,91.48L175.22,92.32"/><path d="M171.74,87.74L171.82,87.45L171.88,86.64L171.82,85.77L171.64,84.85L171.35,83.91L170.95,82.98L170.45,82.08L169.88,81.23L169.24,80.46L168.55,79.79L167.83,79.24L167.47,79.01L167.10,78.81L166.43,78.56"/><path d="M170.72,71.83L171.83,71.81L173.01,72.09L174.24,72.67L175.47,73.51L176.66,74.60L177.76,75.89L178.73,77.34L179.55,78.89L179.77,79.46L180.17,80.49L180.57,82.07L180.75,83.59L180.69,84.98L180.40,86.21L179.88,87.21"/><path d="M177.41,84.47L177.49,84.18L177.55,83.37L177.49,82.50L177.31,81.58L177.02,80.64L176.62,79.71L176.12,78.80L175.55,77.96L174.91,77.19L174.22,76.52L173.50,75.96L173.14,75.73L172.77,75.54L172.10,75.28"/><path d="M174.39,71.51L174.49,71.51"/><path d="M176.15,71.98L176.40,71.90L177.04,71.87L177.72,71.99L178.44,72.27L178.81,72.46L179.17,72.69L179.89,73.24L180.58,73.91L181.22,74.68L181.79,75.53L182.29,76.43L182.69,77.37L182.98,78.31L183.16,79.23L183.22,80.10L183.16,80.90L182.98,81.61L182.69,82.21L182.34,82.63"/><path d="M176.93,71.25L177.94,71.43L178.14,71.51L179.01,71.90L180.08,72.66L181.09,73.65L182.00,74.83L182.05,74.92L182.76,76.15L183.33,77.53L183.68,78.90L183.80,80.20L183.76,80.59L183.68,81.37L183.33,82.33"/><path d="M182.00,74.83L192.27,69.78L183.33,77.53"/></g><g style="stroke:#000000;stroke-width:0.705"><path d="M102.41,112.58L102.20,111.92L101.68,109.57L101.38,107.30L101.33,105.13L101.50,103.11L101.91,101.27L102.55,99.64L103.40,98.24L104.46,97.10L112.40,91.31L113.70,90.41L115.18,89.81L116.81,89.52L118.56,89.56L120.40,89.92L122.30,90.59L124.24,91.56L126.18,92.83L128.08,94.36L129.93,96.12L131.67,98.11L133.30,100.27L134.78,102.58L136.08,104.99L137.20,107.47L138.09,109.97L138.76,112.46L139.20,114.90L139.38,117.24L139.32,119.44L139.01,121.48L138.46,123.31L137.67,124.90L136.67,126.24L135.46,127.29L134.06,128.05L125.06,132.03L123.58,132.45L122.07,132.56L121.97,132.57L120.26,132.38L118.47,131.89L117.21,131.35L116.64,131.11L114.80,130.04L112.97,128.71L111.18,127.14L109.47,125.35L107.86,123.38L106.38,121.25L105.06,119.00L103.91,116.67L102.95,114.30L102.41,112.58"/><path d="M104.84,106.51L106.97,108.39L109.33,110.18L116.28,107.79L116.38,107.73"/><path d="M107.47,103.34L109.02,106.37L110.73,109.37L116.28,107.79"/><path d="M123.58,123.19L123.58,117.33L120.32,116.09L117.21,114.73L120.81,111.04L115.81,112.31L116.18,108.94L116.75,105.50L111.67,102.56"/><path d="M116.75,127.14L116.18,124.34L115.81,121.40L121.36,116.58L117.21,120.60L118.95,123.58L120.81,126.44"/><path d="M121.36,116.58L121.46,116.53"/><path d="M129.93,93.08L130.21,92.92L129.25,93.47L128.47,94.31L128.32,94.59"/><path d="M130.40,96.66L131.62,97.49L132.93,98.65L134.17,100.03L135.28,101.57L136.24,103.24L137.02,104.98L137.59,106.73L137.95,108.45L138.05,109.85"/><path d="M130.21,92.92L130.86,92.54L129.96,93.07"/><path d="M138.82,112.76L139.13,112.77L140.24,112.51L141.91,111.55L142.69,110.71L143.26,109.62L143.62,108.31L143.73,106.81L143.62,105.18L143.26,103.46L142.69,101.70L141.91,99.97L140.95,98.30L139.83,96.76L138.60,95.38L137.29,94.22L135.93,93.30L134.58,92.65L133.27,92.30L132.03,92.25L130.92,92.51L130.86,92.54"/><path d="M135.41,89.92L135.83,89.68L134.92,90.20L134.14,91.04L133.56,92.13L133.50,92.36"/><path d="M135.83,89.68L136.55,89.26L135.83,89.68"/><path d="M136.55,89.26L136.59,89.24L137.70,88.98L138.94,89.03L140.25,89.38L141.60,90.03L142.96,90.94L144.27,92.11L145.50,93.48L146.62,95.03L147.58,96.69L148.36,98.43L148.93,100.18L149.29,101.90L149.40,103.54L149.29,105.03L148.93,106.35L148.36,107.44L147.58,108.27L145.91,109.24L144.79,109.49L143.56,109.45L143.33,109.38"/><path d="M141.10,86.63L141.55,86.37L140.59,86.93L139.81,87.76L139.23,88.86L139.17,89.09"/><path d="M140.27,112.49L140.24,112.51L140.25,112.50"/><path d="M141.91,111.55L141.89,111.56"/><path d="M141.55,86.37L141.73,86.27L141.30,86.52"/><path d="M141.73,86.27L142.26,85.96L143.38,85.71L144.60,85.75L145.92,86.11L147.27,86.75L148.63,87.67L149.94,88.84L151.17,90.21L152.29,91.75L153.25,93.42L154.03,95.16L154.60,96.91L154.95,98.63L155.07,100.26L154.95,101.76L154.60,103.07L154.03,104.16L153.25,105.00L151.58,105.96L150.46,106.22L149.23,106.17L149.00,106.11"/><path d="M144.84,85.82L144.90,85.58L145.48,84.49L146.26,83.65L147.22,83.10L146.79,83.35"/><path d="M145.91,109.24L145.92,109.23"/><path d="M147.22,83.10L147.62,82.86L146.97,83.25"/><path d="M147.62,82.86L147.93,82.69L149.04,82.43L150.27,82.48L151.59,82.83L151.65,82.86L152.94,83.48L154.30,84.40L155.61,85.56L156.84,86.94L157.96,88.48L158.92,90.15L159.70,91.88L160.27,93.64L160.62,95.36L160.74,96.99L160.62,98.49L160.27,99.80L159.70,100.89L158.92,101.73L157.25,102.69L156.13,102.95L154.90,102.90L154.67,102.84"/><path d="M150.51,82.54L150.57,82.31L151.15,81.22L151.93,80.38L152.89,79.83L152.48,80.06"/><path d="M152.89,79.83L153.52,79.46L152.63,79.97"/><path d="M153.52,79.46L153.60,79.42L154.71,79.16L155.94,79.21L157.26,79.56L158.61,80.21L159.97,81.12L161.28,82.29L162.51,83.66L163.63,85.21L164.59,86.87L165.37,88.61L165.94,90.36L166.29,92.08L166.41,93.72L166.29,95.21L165.94,96.53L165.36,97.62L164.59,98.45L162.92,99.42L161.80,99.68L160.57,99.63L160.34,99.56"/><path d="M166.00,96.29L166.24,96.35L167.47,96.40L168.59,96.14L170.26,95.18L171.04,94.34L171.61,93.25L171.96,91.95L172.05,90.81L172.08,90.44L171.96,88.81L171.61,87.09L171.04,85.34L170.26,83.60L169.29,81.93L168.18,80.39L166.95,79.02L165.63,77.85L164.28,76.93L162.93,76.29L161.61,75.93L160.38,75.89L159.27,76.14L157.60,77.11L156.82,77.94L156.24,79.04L156.18,79.27"/><path d="M157.26,102.68L157.25,102.69L157.28,102.67"/><path d="M158.88,101.75L158.92,101.73L158.85,101.76"/><path d="M158.17,76.78L158.56,76.55"/><path d="M159.27,76.14L158.30,76.70"/><path d="M163.86,73.49L164.23,73.28L163.26,73.84L162.48,74.67L161.91,75.76L161.85,76.00"/><path d="M163.97,73.43L164.94,72.87L164.23,73.28"/><path d="M171.67,93.02L171.92,93.08L173.14,93.13L174.26,92.87L175.93,91.91L176.71,91.07L177.28,89.98L177.63,88.67L177.75,87.17L177.63,85.54L177.28,83.82L176.71,82.06L175.93,80.33L174.96,78.66L173.85,77.12L172.62,75.74L171.30,74.58L169.95,73.66L168.59,73.01L167.28,72.66L166.05,72.61L164.94,72.87"/><path d="M168.71,73.07L168.93,72.76L169.74,72.15L170.72,71.83L174.49,71.51L175.60,71.73L176.77,72.26L177.93,73.08L179.04,74.14L180.06,75.40L180.93,76.81L181.62,78.30L182.10,79.81L182.34,81.27L182.34,82.62L182.09,83.81L181.62,84.77L179.88,87.21L179.16,87.96L178.27,88.43L177.64,88.54"/><path d="M182.18,83.38L182.76,83.05L183.33,82.33L192.27,69.78L176.93,71.25L176.02,71.38L175.47,71.70"/></g></g><g id="paperID" visibility="hidden" opacity="0.00" transform="scale(0.000100)"><path style="stroke:#000000;stroke-width:0.500;fill:#e6e6e6;fill-rule:evenodd" d="M-2000.00,-2000.00L2297.00,-2000.00L2297.00,2210.00L-2000.00,2210.00zM0.00,0.00L297.00,0.00L297.00,210.00L0.00,210.00z"/><path style="fill:#000000;fill-opacity:0.118" d="M3.00,210.00L297.00,210.00L297.00,3.00L300.00,3.00L300.00,213.00L3.00,213.00z"/></g><g id="ToolTip" visibility="hidden" opacity="0" transform="translate(0,0)"><rect id="ToolTipShadow" opacity="0.20" fill="black" stroke="none" x="0" y="0" width="30" height="8"/><rect id="ToolTipBG" fill="#ffffe1" stroke="black" x="0" y="0" width="30" height="8"/><text xml:space="preserve" id="ToolTipText" fill="black" x="0" y="0" width="30" height="8">tooltip</text></g></g></svg>
