<?xml version="1.0" encoding="UTF-8" standalone="no"?>
<svg xmlns="http://www.w3.org/2000/svg" xmlns:xlink="http://www.w3.org/1999/xlink" width="297.000mm" height="210.000mm" viewBox="0.000000 0.000000 297.000000 210.000000" stroke-linejoin="round" stroke-linecap="round" fill="none" fill-rule="evenodd"><desc>3DVIA Composer Export</desc><script type="text/ecmascript"><![CDATA[
if(typeof(top) != "undefined")
{
	top.ShowPaper = ShowPaper;
}
function ShowHotSpot(evt,hotspotid)
{
	var svgDocument = evt.target.ownerDocument;
	var strId = "hotspot."+hotspotid;
	var hotspot = svgDocument.getElementById(strId);
	if(hotspot)
		hotspot.setAttribute("opacity",".5");
}
function HideHotSpot(evt,hotspotid)
{
	var svgDocument = evt.target.ownerDocument;
	var strId = "hotspot."+hotspotid;
	var hotspot = svgDocument.getElementById(strId);
	if(hotspot)
		hotspot.setAttribute("opacity","0");

	var toolTip = svgDocument.getElementById('ToolTip');
	if(toolTip)
		toolTip.setAttribute("visibility","hidden");
}
function ShowToolTip(evt,hotspotid,strTooltip)
{
	if(strTooltip=="")
	return;

	// change text
	var svgDocument = evt.target.ownerDocument;
	var tiptext = svgDocument.getElementById('ToolTipText');
	if( !tiptext )
	return;
	tiptext.firstChild.nodeValue = " " + strTooltip + "  " ;

	// show tooltip before, else some refresh issue

	var toolTip = svgDocument.getElementById('ToolTip');
	if(!toolTip)
	return;

	toolTip.setAttribute("visibility","visible");
	toolTip.setAttribute("opacity",".95");

	// move tooltip
	// get viewbox

	var root = svgDocument.documentElement;
	var vbox = (root.getAttribute("viewBox")).split(' ');
	var x0 = parseFloat(vbox[0]);
	var y0 = parseFloat(vbox[1]);
	var vboxW = parseFloat(vbox[2]);
	var vboxH = parseFloat(vbox[3]);

	// get default width of svg

	var strW = root.getAttribute("width");
	var svgW = parseFloat(strW);
	if(strW.indexOf('mm') != -1)
	svgW *= 3.779;

	var strH = root.getAttribute("height");
	var svgH = parseFloat(strH);
	if(strH.indexOf('mm') != -1)
	svgH *= 3.779;  	// 96 dpi  -> 96/25.4 = 3.779

	// update the viewbox / width / height if svg is embedded in html with zoom fit all
	var realx0 = x0;
	var realy0 = y0;
	var realvboxW = vboxW;
	var realvboxH = vboxH;
	var realsvgW = svgW;
	var realsvgH = svgH;

	if ((typeof(top) == "undefined") || (typeof(top.svgctl1) != "undefined")) // embedded in html
	{
		// get window size in pxl

		svgW = window.innerWidth;
		svgH = window.innerHeight;

		// calculate real viewbox

		realsvgW = svgW;
		realsvgH = svgH;
		if((svgW / svgH) > (vboxW / vboxH))
		{
			realvboxW = (vboxH * svgW) / svgH;
			realvboxH = vboxH;
			realx0 = x0 - (realvboxW - vboxW)/2 ;
		}
		else
		{
			realvboxH = (vboxW * svgH) / svgW;
			realvboxW = vboxW;
			realy0 = y0 - (realvboxH - vboxH)/2 ;
		}
	}

	// get user zoom/pan

	var newScale = root.currentScale;
	var translation = root.currentTranslate;

	// transform pxl to user unit

	var xPos = (((evt.clientX+10- translation.x)/newScale) * realvboxW)/realsvgW  + realx0 ;
	var yPos = (((evt.clientY+5- translation.y)/newScale) * realvboxH)/ realsvgH  + realy0 ;
	var scaleForWidth = ( (1 / newScale) * realvboxH) / realsvgH;

	// move tooltip

	toolTip.setAttribute("transform", "translate(" + xPos + "," + yPos + ")" );

	// resize tooltip

	var fontsize = 12;
	tiptext.setAttribute("font-size",fontsize*scaleForWidth);
	tiptext.setAttribute("y", fontsize*scaleForWidth);
	var tipBG = svgDocument.getElementById('ToolTipBG');
	var outline = tiptext.getBBox();
	if(tipBG)
	{
		tipBG.setAttribute("stroke-width", 1*scaleForWidth);
		tipBG.setAttribute("width", Number(outline.width) );
		tipBG.setAttribute("height", Number(outline.height) + fontsize*.5*scaleForWidth );
	}
	var ToolTipShadow = svgDocument.getElementById('ToolTipShadow');
	if(ToolTipShadow)
	{
		ToolTipShadow.setAttribute("width", Number(outline.width) );
		ToolTipShadow.setAttribute("height", Number(outline.height) + fontsize*.5*scaleForWidth );
		ToolTipShadow.setAttribute("x", 3*scaleForWidth);
		ToolTipShadow.setAttribute("y", 3*scaleForWidth);
	}
}
function ShowPaper()
{
  var svgDocument = getDocument();
  var paper = svgDocument.getElementById("paperID");
  if(paper)
  {
    paper.setAttribute("transform","scale(1)");
    paper.setAttribute("opacity","1");
    paper.setAttribute("visibility","visible");
  }
  var svg = svgDocument.getRootElement();
  if(svg)
  {
    svg.setAttribute("width","307.000mm");
    svg.setAttribute("height","220.000mm");
    svg.setAttribute("viewBox","-5.000000 -5.000000 307.000000 220.000000");
  }
}
]]></script><defs/><g><path style="fill:#dcdcdc;fill-rule:evenodd" d="M204.76,47.41L205.18,47.05L206.32,47.05L206.31,48.71L205.26,48.62L204.77,48.34zM209.30,49.40L211.71,47.83L211.71,49.22L211.46,49.73L210.33,50.43L209.92,50.41L209.37,49.86zM210.69,51.92L210.91,65.05L211.71,66.06L212.46,66.16L212.74,64.79L212.64,63.74L212.97,63.70L222.53,69.35L223.01,70.43L223.01,71.28L222.65,72.21L223.27,72.98L223.27,75.66L222.73,76.92L212.39,94.82L210.83,96.59L209.31,97.41L208.62,97.41L207.86,97.12L206.50,98.17L204.49,98.17L194.93,92.49L196.47,91.99L197.08,91.57L197.34,91.06L197.32,88.91L194.25,86.85L190.90,85.05L190.05,85.05L189.28,85.32L116.20,127.50L114.29,129.18L109.04,138.05L107.72,140.58L107.68,142.89L107.99,143.18L97.87,160.79L97.35,160.80L96.43,162.15L94.57,163.89L92.57,163.88L81.04,157.18L80.70,156.65L81.55,156.79L81.79,154.69L82.33,153.30L81.54,152.82L81.51,152.40L91.83,134.85L92.08,135.08L92.83,135.21L94.13,132.38L94.12,118.27L210.09,51.39L210.40,51.42zM146.49,81.04L147.17,80.68L148.04,80.68L148.04,82.34L146.99,82.25L146.49,81.97zM88.22,114.67L88.90,114.31L89.77,114.30L89.77,115.96L88.72,115.88L88.22,115.60zM92.32,118.51L89.70,119.98L88.38,120.06L88.38,118.42L89.95,118.19L92.35,116.89zM85.65,134.37L85.92,134.83L85.27,135.59L84.62,137.01L84.12,136.95L83.61,136.65L83.32,135.45L83.87,134.44L84.54,134.06L85.15,134.05zM79.76,145.63L79.11,146.11L78.46,147.53L77.44,147.44L77.08,146.42L77.71,145.22L78.11,144.86L79.26,144.84zM216.35,73.76L216.06,74.87L215.24,75.84L214.18,75.92L214.28,74.12L215.20,73.21L215.81,73.22zM220.70,75.83L220.72,76.40L219.85,77.65L219.06,77.72L219.15,76.16L219.82,75.53zM206.31,77.36L206.32,78.74L205.80,79.76L204.96,80.45L203.73,80.45L203.72,78.45L204.93,77.08L205.81,77.07zM182.72,78.62L182.71,79.50L182.19,80.53L181.60,80.97L180.63,80.97L180.62,79.47L181.94,78.12zM213.26,79.90L213.24,81.55L212.98,82.31L211.71,84.38L210.08,85.35L209.39,85.34L208.55,84.87L208.34,84.31L208.36,82.82L208.87,81.29L210.08,79.67L211.36,78.86L211.70,78.87zM207.59,88.87L207.34,90.03L206.48,90.95L205.45,91.06L205.55,89.26L206.48,88.36L207.08,88.37zM211.49,91.97L211.47,92.59L210.58,93.79L209.84,93.88L209.55,93.02L210.16,91.81L211.21,91.69zM124.46,112.25L124.44,113.13L123.92,114.16L123.32,114.60L122.36,114.60L122.35,113.10L123.30,111.99L124.19,111.97zM101.06,137.66L101.56,138.42L101.32,139.57L100.20,141.01L98.92,141.10L98.71,140.80L98.74,139.29L99.66,137.91L100.57,137.43zM91.04,146.12L90.80,147.28L89.93,148.21L88.99,148.23L88.97,146.48L89.68,145.63L90.31,145.38zM96.72,147.16L96.63,148.99L95.32,151.53L93.54,152.59L92.61,152.57L92.31,152.34L91.79,151.57L91.81,150.08L92.33,148.55L93.60,147.00L94.30,146.41L95.19,146.17zM99.81,151.02L99.80,151.63L99.27,152.66L98.41,153.37L97.72,153.37L97.70,151.61L98.41,150.76L99.03,150.52zM86.22,153.58L86.20,154.20L85.30,155.40L84.56,155.49L84.27,154.63L84.88,153.42L85.94,153.31zM95.44,158.99L95.44,159.59L95.16,160.11L94.30,160.82L93.87,160.81L93.85,159.31L94.64,158.52L94.93,158.48z"/><g id="Actor_.0"><g style="stroke:#000000;stroke-width:0.353"><path d="M77.67,147.57L77.35,147.29L77.16,146.90L77.10,146.43L77.19,145.95L77.41,145.49L77.75,145.11L78.16,144.86L78.60,144.75L79.02,144.80"/><path d="M79.29,151.48L89.59,133.64L84.86,130.91"/><path d="M80.45,152.15L80.36,152.10"/><path d="M79.92,151.84L81.91,152.99"/><path d="M82.40,158.03L81.86,157.49L81.58,156.65L81.58,155.60L81.86,154.43L82.40,153.27L92.70,135.43L92.21,135.15"/><path d="M80.84,152.38L80.94,152.43"/><path d="M83.85,136.86L83.53,136.59L83.33,136.15L83.28,135.73L83.37,135.24L83.59,134.79L83.93,134.41L84.34,134.15L84.78,134.05L85.20,134.10"/><path d="M84.05,117.87L84.05,116.19L83.67,115.89L83.47,115.54"/><path d="M85.98,153.21L86.13,153.44L86.18,153.77L86.13,154.15L85.98,154.55L85.75,154.93L85.47,155.24L85.15,155.45L84.85,155.53L84.59,155.49"/><path d="M87.33,119.76L87.33,118.08L84.05,116.19"/><path d="M85.98,160.10L86.02,160.12"/><path d="M87.33,118.08L87.85,118.30L88.46,118.42L89.10,118.42L89.72,118.30L90.24,118.08L90.24,119.76"/><path d="M91.04,115.25L91.02,114.96L90.84,114.68L90.51,114.46L90.07,114.31L89.57,114.25L89.07,114.28L88.61,114.41L88.25,114.62L88.03,114.89L87.97,115.18"/><path d="M90.79,145.52L90.97,145.81L91.03,146.21L90.97,146.68L90.79,147.18L90.50,147.64L90.15,148.02L89.77,148.28L89.40,148.38L89.08,148.33"/><path d="M89.59,133.64L90.91,134.40"/><path d="M90.75,134.31L90.81,134.35"/><path d="M90.24,118.08L92.42,116.82L92.42,118.50"/><path d="M91.24,134.59L91.27,134.61"/><path d="M91.02,134.46L91.08,134.50"/><path d="M91.93,133.39L93.39,134.24L92.70,135.43L91.72,134.87"/><path d="M92.70,163.98L92.62,163.93"/><path d="M96.25,146.44L96.66,147.06L96.79,147.94L96.66,148.97L96.25,150.05L95.64,151.07L94.87,151.90L94.03,152.46L93.22,152.69L92.52,152.57"/><path d="M92.79,130.52L94.24,131.36L94.14,132.29L93.85,133.27L93.39,134.24"/><path d="M94.24,131.36L94.24,119.97L94.15,119.27L93.90,118.54L93.49,117.84L92.99,117.25L92.42,116.82L211.13,48.28L211.13,49.97"/><path d="M95.25,158.56L95.40,158.79L95.45,159.12L95.40,159.50L95.25,159.91L95.02,160.28L94.73,160.59L94.42,160.80L94.12,160.89L93.86,160.84"/><path d="M94.24,119.97L210.77,52.70"/><path d="M97.33,160.71L107.63,142.87L107.73,142.92"/><path d="M97.64,160.88L97.74,160.94"/><path d="M97.85,153.38L98.15,153.44L98.52,153.33L98.91,153.07L99.26,152.69L99.54,152.23L99.72,151.74L99.79,151.26L99.72,150.86L99.54,150.58"/><path d="M99.05,141.18L99.46,141.25L99.94,141.12L100.43,140.79L100.88,140.30L101.24,139.71L101.47,139.07L101.56,138.47L101.47,137.95L101.24,137.59"/><path d="M108.04,143.10L107.63,142.87"/><path d="M122.59,114.69L122.91,114.75L123.28,114.64L123.66,114.39L124.01,114.01L124.29,113.54L124.48,113.05L124.54,112.57L124.48,112.17L124.29,111.89"/><path d="M146.23,81.54L146.29,81.25L146.51,80.98L146.87,80.78L147.33,80.65L147.83,80.61L148.33,80.67L148.77,80.82L149.10,81.04L149.28,81.32L149.30,81.61"/><path d="M180.85,81.05L181.17,81.11L181.54,81.01L181.92,80.75L182.27,80.37L182.56,79.91L182.74,79.41L182.80,78.94L182.74,78.54L182.56,78.25"/><path d="M188.95,89.16L188.88,89.12L189.54,89.50L190.57,87.71L190.17,87.48"/><path d="M192.09,90.97L192.22,91.05"/><path d="M191.68,85.38L192.24,85.71L191.98,85.56"/><path d="M192.34,91.11L193.08,91.54"/><path d="M194.64,88.88L192.59,87.69L192.78,87.80"/><path d="M192.56,87.68L192.59,87.69L192.34,87.55"/><path d="M193.13,86.22L192.24,85.71L192.49,85.85"/><path d="M194.66,92.46L195.70,93.06L194.40,92.31L194.49,92.36"/><path d="M193.98,92.07L194.40,92.31L194.27,92.23L194.90,92.45L195.59,92.42L196.27,92.16L196.89,91.69L197.38,91.05L207.68,97.00"/><path d="M194.02,88.52L193.71,88.34"/><path d="M195.70,93.06L197.35,94.01"/><path d="M195.01,90.28L194.98,90.26"/><path d="M194.93,89.04L195.13,89.16"/><path d="M195.34,89.28L195.06,89.12"/><path d="M196.53,88.18L194.64,87.09"/><path d="M195.50,87.59L195.07,87.34"/><path d="M196.85,93.72L198.44,94.64"/><path d="M195.92,90.21L197.38,91.05L197.38,89.37L195.92,88.53"/><path d="M197.74,94.23L197.89,94.32"/><path d="M197.38,89.37L197.33,88.96L197.18,88.64L196.95,88.43"/><path d="M199.10,95.02L198.84,94.87"/><path d="M198.66,94.76L198.61,94.74"/><path d="M198.25,94.53L198.27,94.54"/><path d="M204.57,98.18L198.31,94.57"/><path d="M199.88,95.47L199.56,95.28"/><path d="M200.37,95.75L200.77,95.98"/><path d="M206.13,77.03L206.36,77.40L206.44,77.91L206.36,78.52L206.13,79.15L205.76,79.74L205.31,80.23L204.83,80.56L204.34,80.70L203.94,80.62"/><path d="M207.57,47.97L207.55,47.68L207.36,47.41L207.03,47.18L206.59,47.03L206.10,46.97L205.59,47.01L205.13,47.14L204.91,47.27L204.78,47.35L204.55,47.61L204.49,47.90"/><path d="M207.31,88.36L207.49,88.64L207.56,89.04L207.49,89.51L207.31,90.01L207.03,90.47L206.68,90.85L206.29,91.11L205.92,91.22L205.60,91.16"/><path d="M207.89,97.12L208.19,97.30"/><path d="M209.04,85.29L209.74,85.42L210.56,85.19L211.39,84.62L212.16,83.79L212.78,82.78L213.18,81.70L213.32,80.66L213.18,79.79L212.78,79.16"/><path d="M211.26,91.58L211.41,91.81L211.46,92.14L211.41,92.52L211.26,92.93L211.03,93.30L210.74,93.61L210.43,93.82L210.13,93.91L209.87,93.86"/><path d="M216.29,65.70L216.42,65.77L210.77,62.51"/><path d="M210.99,62.64L211.25,62.79"/><path d="M211.13,48.28L211.51,47.98L211.71,47.63L211.71,47.26"/><path d="M211.81,63.12L212.28,63.53L212.60,64.14L212.72,64.86L212.62,65.63L212.31,66.37L222.61,72.32"/><path d="M212.09,63.27L211.90,63.16"/><path d="M216.06,73.19L216.25,73.48L216.31,73.88L216.25,74.35L216.06,74.85L215.78,75.31L215.43,75.69L215.05,75.95L214.68,76.05L214.36,76.00"/><path d="M215.86,65.45L215.77,65.40"/><path d="M217.02,66.12L217.05,66.13L216.42,65.77L216.63,65.89"/><path d="M216.42,65.77L218.42,66.93L217.60,66.45"/><path d="M217.17,66.20L216.97,66.09"/><path d="M218.42,66.93L222.08,69.04"/><path d="M219.14,77.81L219.40,77.85L219.70,77.77L220.01,77.56L220.30,77.25L220.53,76.87L220.67,76.47L220.73,76.09L220.67,75.76L220.53,75.53"/></g><g style="stroke:#000000;stroke-width:0.705"><path d="M82.40,153.27L74.56,148.75L74.16,148.40L73.90,147.91L73.80,147.33L73.88,146.71L74.13,146.12L82.37,131.85L82.76,131.34L83.25,130.96L83.80,130.75L84.36,130.73L84.86,130.91L91.60,134.80L90.94,134.42"/><path d="M79.02,144.81L79.38,145.01L79.64,145.35L79.77,145.79L79.75,146.27L79.59,146.75L79.31,147.17L78.93,147.49L78.50,147.67L78.06,147.70L77.67,147.57"/><path d="M78.68,147.59L78.65,147.32L78.73,146.84L78.96,146.38L79.29,146.01L79.75,145.74"/><path d="M80.97,157.21L81.73,157.64L80.94,157.19L80.41,156.65L80.13,155.81L80.13,154.76L80.41,153.59L80.94,152.43"/><path d="M81.00,157.22L83.71,158.79"/><path d="M80.98,152.45L81.42,152.71"/><path d="M82.88,158.31L84.03,158.97L82.88,158.31L83.69,158.77"/><path d="M83.85,136.86L84.24,137.00L84.68,136.97L85.11,136.78L85.49,136.46L85.77,136.04L85.93,135.57L85.95,135.08L85.82,134.65L85.56,134.31L85.20,134.10"/><path d="M91.24,134.59L91.93,133.39L92.40,132.43L92.69,131.45L92.79,130.52L92.79,119.13L92.72,118.85L92.54,118.59L92.42,118.50L90.24,119.76L89.72,119.98L89.10,120.10L88.46,120.10L87.85,119.98L87.33,119.76L84.05,117.87L83.67,117.57L83.47,117.22L83.47,115.16L83.67,114.81L84.03,114.52L204.94,44.71L205.46,44.49L206.06,44.38L206.72,44.38L207.33,44.49L207.85,44.71L210.66,46.33L211.13,46.60L211.51,46.90L211.71,47.26L211.71,49.31L211.51,49.67L211.13,49.97L210.04,50.60"/><path d="M85.19,159.64L86.34,160.30L84.03,158.97"/><path d="M84.59,155.49L84.40,155.31L84.30,155.03L84.30,154.67L84.40,154.27L84.59,153.88L84.85,153.53L85.15,153.27L85.47,153.12L85.75,153.10L85.98,153.21"/><path d="M85.93,135.03L85.47,135.30L85.14,135.68L84.91,136.13L84.83,136.62L84.86,136.89"/><path d="M86.34,160.30L90.78,162.87"/><path d="M88.48,161.54L87.63,161.05"/><path d="M87.97,115.18L88.07,115.46L88.33,115.72L88.72,115.91L89.19,116.01L89.70,116.02L90.19,115.94L90.60,115.77L90.90,115.53L91.04,115.25"/><path d="M89.79,162.30L91.02,163.00"/><path d="M89.08,148.33L88.84,148.11L88.72,147.76L88.72,147.32L88.84,146.83L89.08,146.35L89.40,145.92L89.77,145.59L90.15,145.41L90.50,145.39L90.79,145.52"/><path d="M89.52,145.82L89.33,146.34L89.05,146.80L88.78,147.09"/><path d="M90.62,134.23L90.22,134.00L90.75,134.31"/><path d="M90.94,162.96L92.09,163.63L91.20,163.11"/><path d="M91.90,151.81L92.58,151.62L93.41,151.06L94.18,150.23L94.80,149.21L95.20,148.13L95.34,147.09L95.20,146.22L95.17,146.17"/><path d="M92.52,152.57L92.00,152.10L91.73,151.34L91.73,150.37L92.00,149.30L92.52,148.24L93.22,147.30L94.03,146.60L94.87,146.19L95.64,146.14L96.25,146.44"/><path d="M92.21,135.15L91.60,134.80"/><path d="M107.94,143.04L107.63,142.87L108.04,143.10L97.74,160.94L97.35,160.71L96.82,161.60L96.08,162.64L95.22,163.47L94.30,163.99L93.44,164.17L92.70,163.98L92.47,163.85L92.62,163.93L92.60,163.92"/><path d="M92.47,163.85L92.09,163.63"/><path d="M95.23,146.44L92.17,151.74"/><path d="M93.86,160.84L93.67,160.67L93.57,160.38L93.57,160.02L93.67,159.63L93.86,159.23L94.12,158.88L94.42,158.62L94.73,158.47L95.02,158.45L95.25,158.56"/><path d="M97.35,160.71L97.64,160.88L97.46,160.78"/><path d="M97.64,160.88L97.43,160.76"/><path d="M97.83,153.38L97.60,153.17L97.47,152.82L97.47,152.38L97.60,151.89L97.83,151.40L98.15,150.97L98.52,150.65L98.91,150.47L99.26,150.44L99.54,150.58"/><path d="M98.27,150.87L98.08,151.39L97.80,151.85L97.53,152.15"/><path d="M99.05,141.18L98.75,140.91L98.59,140.46L98.59,139.89L98.75,139.27L99.05,138.64L99.46,138.10L99.94,137.68L100.43,137.45L100.88,137.41L101.24,137.59"/><path d="M100.10,137.61L100.02,138.23L99.79,138.87L99.42,139.46L98.97,139.95L98.59,140.20"/><path d="M107.63,142.87L107.63,141.18L107.68,140.72L107.83,140.23L108.06,139.75L113.55,130.24L114.30,129.14L115.18,128.21L116.12,127.53L188.89,85.51L189.83,85.11L190.71,85.03L191.46,85.26L191.98,85.56"/><path d="M122.59,114.69L122.35,114.48L122.23,114.13L122.23,113.69L122.35,113.20L122.59,112.71L122.91,112.29L123.28,111.96L123.66,111.78L124.01,111.75L124.29,111.89"/><path d="M123.02,112.18L122.84,112.70L122.56,113.16L122.28,113.46"/><path d="M149.30,81.61L149.16,81.89L148.87,82.13L148.45,82.30L147.96,82.39L147.46,82.37L146.98,82.27L146.59,82.08L146.33,81.83L146.23,81.54"/><path d="M180.85,81.05L180.61,80.84L180.49,80.50L180.49,80.05L180.61,79.56L180.85,79.07L181.17,78.65L181.54,78.32L181.92,78.14L182.27,78.12L182.56,78.25"/><path d="M181.29,78.55L181.10,79.06L180.82,79.53L180.54,79.82"/><path d="M190.57,87.71L191.09,88.02L189.81,87.28L188.79,89.07L189.94,89.73L189.54,89.50"/><path d="M189.67,89.57L190.40,90.00L190.14,89.85"/><path d="M190.40,90.00L191.10,90.40L190.75,90.20"/><path d="M192.31,87.53L192.59,87.69L192.31,87.53L191.79,88.42L191.09,88.02L191.79,88.42L191.75,88.40"/><path d="M191.95,90.89L191.10,90.40L192.24,91.06L191.95,90.89"/><path d="M192.24,91.06L193.12,91.57"/><path d="M195.05,90.30L195.01,90.28L195.30,90.45L191.72,88.38"/><path d="M191.68,85.38L194.55,87.04L194.09,86.78"/><path d="M192.31,91.10L193.40,91.73L192.95,91.47"/><path d="M193.40,91.73L194.55,92.39L193.40,91.73"/><path d="M192.59,87.69L194.98,89.08"/><path d="M194.55,92.39L195.70,93.06L194.55,92.39L195.70,93.06L195.29,92.82"/><path d="M194.40,92.31L194.11,92.14"/><path d="M193.40,88.16L193.44,88.18"/><path d="M195.02,92.66L195.43,92.90"/><path d="M196.53,93.54L196.85,93.72L194.75,92.51L195.70,93.06L194.75,92.51L195.04,92.68"/><path d="M195.30,90.45L195.42,90.49L195.56,90.49L195.70,90.43L195.82,90.34L195.92,90.21L195.92,89.62L195.34,89.28L195.37,89.29"/><path d="M195.70,89.49L195.92,89.62L195.92,88.53L195.87,88.12L195.73,87.80L195.50,87.59L195.70,87.70L194.55,87.04L194.64,87.09"/><path d="M195.52,89.39L194.64,88.88"/><path d="M195.34,89.28L194.90,89.03"/><path d="M196.95,88.43L195.70,87.70L196.18,87.98"/><path d="M197.47,94.08L196.85,93.72L198.63,94.75"/><path d="M198.94,94.93L199.01,94.97L198.40,94.62L198.94,94.93"/><path d="M198.86,94.88L199.15,95.05L198.40,94.62L198.86,94.88"/><path d="M199.76,95.40L199.15,95.05L200.30,95.71L199.15,95.05L200.30,95.71L200.19,95.65"/><path d="M199.01,94.97L199.08,95.01"/><path d="M198.05,94.42L198.17,94.48L198.02,94.39L198.40,94.62L198.02,94.39L198.40,94.62L198.02,94.39L198.36,94.59"/><path d="M198.02,94.39L198.21,94.51"/><path d="M198.27,94.54L198.19,94.49"/><path d="M200.44,95.79L200.30,95.71L201.45,96.38L200.73,95.96"/><path d="M200.78,95.99L200.68,95.93"/><path d="M200.93,96.08L201.45,96.38L200.93,96.08"/><path d="M201.45,96.38L204.57,98.18L205.20,98.39L205.89,98.37L206.57,98.11L207.19,97.64L207.68,97.00L207.89,97.12"/><path d="M203.47,79.65L203.86,79.39L204.31,78.90L204.67,78.31L204.90,77.68L204.98,77.05"/><path d="M203.94,80.62L203.64,80.35L203.47,79.91L203.47,79.34L203.60,78.85L203.64,78.71L203.94,78.09L204.34,77.55L204.62,77.31L204.83,77.13L205.31,76.89L205.76,76.86L206.13,77.03"/><path d="M204.49,47.90L204.59,48.19L204.85,48.44L205.24,48.63L205.72,48.74L206.22,48.75L206.71,48.67L207.13,48.49L207.42,48.26L207.57,47.97"/><path d="M205.60,91.16L205.37,90.95L205.24,90.60L205.24,90.16L205.37,89.66L205.60,89.18L205.92,88.75L206.29,88.43L206.68,88.25L207.03,88.22L207.31,88.36"/><path d="M206.04,88.65L205.85,89.17L205.57,89.63L205.30,89.93"/><path d="M218.43,66.94L218.72,67.10L218.41,66.92L222.08,69.04L222.58,69.47L222.90,70.08L223.02,70.81L222.92,71.58L222.61,72.32L223.15,72.86L223.43,73.70L223.43,74.75L223.15,75.92L222.61,77.08L217.57,85.81L212.31,94.92L211.58,95.96L210.71,96.79L209.80,97.31L208.93,97.49L208.19,97.30L207.68,97.00"/><path d="M209.04,85.29L208.53,84.83L208.25,84.07L208.25,83.10L208.53,82.03L209.04,80.96L209.74,80.03L210.56,79.32L211.39,78.92L212.16,78.86L212.78,79.16"/><path d="M211.69,78.90L211.72,78.94L211.86,79.82L211.72,80.86L211.32,81.94L210.71,82.95L209.94,83.78L209.10,84.35L208.42,84.54"/><path d="M208.95,49.55L209.51,49.98L210.02,50.57L210.42,51.26L210.68,52.00L210.77,52.70L210.77,62.52L210.88,62.57"/><path d="M209.87,93.86L209.68,93.69L209.58,93.41L209.58,93.05L209.68,92.65L209.87,92.25L210.13,91.91L210.43,91.64L210.74,91.49L211.03,91.47L211.26,91.58"/><path d="M212.31,66.37L211.62,65.97L211.16,65.55L210.87,64.90L210.77,64.09L210.77,62.52L211.81,63.11L211.06,62.68"/><path d="M211.67,63.03L210.77,62.52L211.78,63.10"/><path d="M211.34,62.84L211.81,63.11L211.22,62.77"/><path d="M212.16,63.31L212.42,63.46L211.81,63.11L212.03,63.24"/><path d="M212.14,63.30L212.42,63.46L211.81,63.11L211.90,63.16"/><path d="M213.60,64.15L214.12,64.44L212.10,63.28"/><path d="M214.36,76.00L214.12,75.78L213.99,75.44L213.99,75.00L214.12,74.52L214.36,74.02L214.68,73.59L215.05,73.27L215.43,73.08L215.78,73.06L216.06,73.19"/><path d="M214.79,73.49L214.61,74.01L214.32,74.47L214.05,74.76"/><path d="M214.12,64.44L214.41,64.62L214.21,64.50"/><path d="M214.41,64.62L216.42,65.77L216.30,65.70"/><path d="M215.77,65.40L215.91,65.48"/><path d="M216.16,65.62L216.42,65.77L215.56,65.28"/><path d="M215.27,65.11L216.42,65.77L215.27,65.11L216.42,65.77L215.98,65.52"/><path d="M216.42,65.77L217.57,66.44L216.42,65.77L217.17,66.20L217.11,66.17"/><path d="M217.17,66.20L218.41,66.92L218.38,66.90"/><path d="M217.57,66.44L217.60,66.45"/><path d="M220.53,75.53L220.30,75.42L220.01,75.44L219.70,75.59L219.40,75.85L219.14,76.20L218.95,76.59L218.85,76.99L218.85,77.35L218.95,77.63L219.14,77.81"/><path d="M222.08,69.04L222.05,69.03"/></g></g><g id="paperID" visibility="hidden" opacity="0.00" transform="scale(0.000100)"><path style="stroke:#000000;stroke-width:0.500;fill:#e6e6e6;fill-rule:evenodd" d="M-2000.00,-2000.00L2297.00,-2000.00L2297.00,2210.00L-2000.00,2210.00zM0.00,0.00L297.00,0.00L297.00,210.00L0.00,210.00z"/><path style="fill:#000000;fill-opacity:0.118" d="M3.00,210.00L297.00,210.00L297.00,3.00L300.00,3.00L300.00,213.00L3.00,213.00z"/></g><g id="ToolTip" visibility="hidden" opacity="0" transform="translate(0,0)"><rect id="ToolTipShadow" opacity="0.20" fill="black" stroke="none" x="0" y="0" width="30" height="8"/><rect id="ToolTipBG" fill="#ffffe1" stroke="black" x="0" y="0" width="30" height="8"/><text xml:space="preserve" id="ToolTipText" fill="black" x="0" y="0" width="30" height="8">tooltip</text></g></g></svg>
