<?xml version="1.0" encoding="UTF-8" standalone="no"?>
<svg xmlns="http://www.w3.org/2000/svg" xmlns:xlink="http://www.w3.org/1999/xlink" width="297.000mm" height="210.000mm" viewBox="0.000000 0.000000 297.000000 210.000000" stroke-linejoin="round" stroke-linecap="round" fill="none" fill-rule="evenodd"><desc>3DVIA Composer Export</desc><script type="text/ecmascript"><![CDATA[
if(typeof(top) != "undefined")
{
	top.ShowPaper = ShowPaper;
}
function ShowHotSpot(evt,hotspotid)
{
	var svgDocument = evt.target.ownerDocument;
	var strId = "hotspot."+hotspotid;
	var hotspot = svgDocument.getElementById(strId);
	if(hotspot)
		hotspot.setAttribute("opacity",".5");
}
function HideHotSpot(evt,hotspotid)
{
	var svgDocument = evt.target.ownerDocument;
	var strId = "hotspot."+hotspotid;
	var hotspot = svgDocument.getElementById(strId);
	if(hotspot)
		hotspot.setAttribute("opacity","0");

	var toolTip = svgDocument.getElementById('ToolTip');
	if(toolTip)
		toolTip.setAttribute("visibility","hidden");
}
function ShowToolTip(evt,hotspotid,strTooltip)
{
	if(strTooltip=="")
	return;

	// change text
	var svgDocument = evt.target.ownerDocument;
	var tiptext = svgDocument.getElementById('ToolTipText');
	if( !tiptext )
	return;
	tiptext.firstChild.nodeValue = " " + strTooltip + "  " ;

	// show tooltip before, else some refresh issue

	var toolTip = svgDocument.getElementById('ToolTip');
	if(!toolTip)
	return;

	toolTip.setAttribute("visibility","visible");
	toolTip.setAttribute("opacity",".95");

	// move tooltip
	// get viewbox

	var root = svgDocument.documentElement;
	var vbox = (root.getAttribute("viewBox")).split(' ');
	var x0 = parseFloat(vbox[0]);
	var y0 = parseFloat(vbox[1]);
	var vboxW = parseFloat(vbox[2]);
	var vboxH = parseFloat(vbox[3]);

	// get default width of svg

	var strW = root.getAttribute("width");
	var svgW = parseFloat(strW);
	if(strW.indexOf('mm') != -1)
	svgW *= 3.779;

	var strH = root.getAttribute("height");
	var svgH = parseFloat(strH);
	if(strH.indexOf('mm') != -1)
	svgH *= 3.779;  	// 96 dpi  -> 96/25.4 = 3.779

	// update the viewbox / width / height if svg is embedded in html with zoom fit all
	var realx0 = x0;
	var realy0 = y0;
	var realvboxW = vboxW;
	var realvboxH = vboxH;
	var realsvgW = svgW;
	var realsvgH = svgH;

	if ((typeof(top) == "undefined") || (typeof(top.svgctl1) != "undefined")) // embedded in html
	{
		// get window size in pxl

		svgW = window.innerWidth;
		svgH = window.innerHeight;

		// calculate real viewbox

		realsvgW = svgW;
		realsvgH = svgH;
		if((svgW / svgH) > (vboxW / vboxH))
		{
			realvboxW = (vboxH * svgW) / svgH;
			realvboxH = vboxH;
			realx0 = x0 - (realvboxW - vboxW)/2 ;
		}
		else
		{
			realvboxH = (vboxW * svgH) / svgW;
			realvboxW = vboxW;
			realy0 = y0 - (realvboxH - vboxH)/2 ;
		}
	}

	// get user zoom/pan

	var newScale = root.currentScale;
	var translation = root.currentTranslate;

	// transform pxl to user unit

	var xPos = (((evt.clientX+10- translation.x)/newScale) * realvboxW)/realsvgW  + realx0 ;
	var yPos = (((evt.clientY+5- translation.y)/newScale) * realvboxH)/ realsvgH  + realy0 ;
	var scaleForWidth = ( (1 / newScale) * realvboxH) / realsvgH;

	// move tooltip

	toolTip.setAttribute("transform", "translate(" + xPos + "," + yPos + ")" );

	// resize tooltip

	var fontsize = 12;
	tiptext.setAttribute("font-size",fontsize*scaleForWidth);
	tiptext.setAttribute("y", fontsize*scaleForWidth);
	var tipBG = svgDocument.getElementById('ToolTipBG');
	var outline = tiptext.getBBox();
	if(tipBG)
	{
		tipBG.setAttribute("stroke-width", 1*scaleForWidth);
		tipBG.setAttribute("width", Number(outline.width) );
		tipBG.setAttribute("height", Number(outline.height) + fontsize*.5*scaleForWidth );
	}
	var ToolTipShadow = svgDocument.getElementById('ToolTipShadow');
	if(ToolTipShadow)
	{
		ToolTipShadow.setAttribute("width", Number(outline.width) );
		ToolTipShadow.setAttribute("height", Number(outline.height) + fontsize*.5*scaleForWidth );
		ToolTipShadow.setAttribute("x", 3*scaleForWidth);
		ToolTipShadow.setAttribute("y", 3*scaleForWidth);
	}
}
function ShowPaper()
{
  var svgDocument = getDocument();
  var paper = svgDocument.getElementById("paperID");
  if(paper)
  {
    paper.setAttribute("transform","scale(1)");
    paper.setAttribute("opacity","1");
    paper.setAttribute("visibility","visible");
  }
  var svg = svgDocument.getRootElement();
  if(svg)
  {
    svg.setAttribute("width","307.000mm");
    svg.setAttribute("height","220.000mm");
    svg.setAttribute("viewBox","-5.000000 -5.000000 307.000000 220.000000");
  }
}
]]></script><defs/><g><path style="fill:#dcdcdc;fill-rule:evenodd" d="M179.51,38.96L179.00,47.97L178.74,49.22L178.78,50.70L177.91,51.58L175.96,52.61L173.47,53.09L168.75,53.17L169.49,42.68L169.99,41.91L170.09,41.93L169.50,51.87L170.07,51.96L170.57,43.50L171.01,42.18L171.09,42.19L170.75,51.96L171.23,51.88L171.83,42.54L172.33,41.94L171.73,51.95L172.30,51.96L173.04,42.47L173.32,42.19L173.22,44.17L172.98,51.71L173.54,51.71L174.05,43.51L174.29,42.17L173.97,51.71L176.27,51.18L177.17,40.95L177.76,41.26L178.03,40.73L178.77,40.49L178.48,39.30L179.02,38.20zM163.23,40.87L163.91,40.97L164.14,42.79L164.39,41.28L164.89,40.95L165.13,41.81L165.89,41.20L165.37,51.22L164.82,51.22L164.63,50.35L164.37,50.94L163.62,50.89L162.34,50.19L162.66,40.75L163.11,40.72zM166.36,51.47L165.80,51.47L166.11,42.76L166.50,41.62L166.90,41.46zM167.35,51.72L166.78,51.70L167.26,42.18L167.87,41.69zM168.59,50.69L168.35,51.73L168.12,51.98L168.10,48.71L168.35,43.51L168.62,41.98L168.86,41.93zM171.74,56.06L177.02,55.65L180.91,54.58L183.70,53.17L185.28,51.52L185.21,52.44L184.84,53.07L182.85,54.80L179.92,56.07L174.71,57.05L168.01,57.15L168.01,56.05zM167.00,64.81L167.27,59.27L175.45,59.04L180.24,58.37L184.95,56.89L187.31,55.54L188.91,54.16L189.66,53.08L189.40,56.88L188.92,59.13L188.16,60.11L186.83,61.25L184.98,62.37L182.15,63.50L177.76,64.56L173.47,64.98L168.35,64.98zM150.30,68.50L149.21,69.46L148.45,69.46L150.30,68.21zM198.09,67.06L197.58,68.28L196.75,69.44L195.01,71.43L195.51,71.45L208.91,63.94L209.22,63.97L209.22,64.81L121.47,113.54L120.46,113.63L120.47,112.54L122.42,111.77L188.94,74.97L188.35,74.87L186.10,75.63L132.87,104.88L131.61,104.93L131.42,104.38L131.10,96.18L132.37,95.96L166.12,78.40L166.52,78.64L186.92,68.02L191.30,66.46L193.14,65.58L195.75,63.97L197.33,62.58L198.32,61.35L198.83,60.27zM210.30,65.38L208.90,74.42L209.35,74.39L220.34,67.90L219.39,73.50L219.11,73.96L207.90,80.83L199.56,134.92L199.22,135.81L193.79,140.29L193.38,141.86L137.14,187.45L136.91,186.34L128.16,193.30L126.40,193.38L121.51,132.62L121.37,132.52L121.29,129.61L121.23,132.41L121.37,132.52L121.21,134.34L98.42,148.48L97.76,148.48L96.64,141.51L120.71,127.13L121.04,129.23L120.79,123.68L120.30,117.49L120.21,114.76L123.27,113.86L210.13,65.20zM118.07,94.21L118.07,97.28L115.08,96.94L114.60,91.48L114.51,89.00L117.58,89.00zM76.70,108.33L77.46,112.87L73.90,113.04L71.93,113.54L68.91,114.99L66.93,116.72L66.04,118.55L64.57,119.30L63.75,119.57L62.33,113.54L62.25,112.55L64.48,111.54L65.44,109.53L67.21,108.08L70.43,106.59L72.66,106.10L76.21,106.09zM99.26,112.11L88.28,117.75L86.60,117.75L86.54,116.26L88.76,115.51L99.02,110.31zM97.76,122.45L98.79,129.44L95.94,129.38L94.45,129.63L91.48,130.62L90.25,131.37L89.11,132.21L87.52,134.09L86.84,136.13L84.63,137.41L83.39,131.61L83.39,129.96L85.64,128.74L86.25,126.87L87.34,125.49L88.84,124.26L90.81,123.26L93.46,122.44L94.95,122.20L97.28,122.18zM119.11,187.35L119.08,187.67L118.23,187.68L118.06,186.34zM121.37,132.52L121.23,132.41L121.29,129.61z"/><g id="Actor_.0"><g style="stroke:#000000;stroke-width:0.353"><path d="M160.76,48.62L160.98,49.49L161.72,50.32L162.95,51.09L164.60,51.72L166.57,52.19L168.75,52.46L171.00,52.52L173.17,52.35L175.14,51.98L176.77,51.42L177.98,50.72L178.69,49.91L178.87,49.05"/><path d="M160.80,48.42L161.08,39.08L161.07,39.02"/><path d="M160.96,48.87L161.24,39.50L161.21,39.44"/><path d="M161.06,38.65L161.68,38.25"/><path d="M178.44,49.55L178.37,49.87L177.68,50.65L176.52,51.33L174.94,51.87L173.05,52.22L170.95,52.38L168.79,52.33L166.69,52.07L164.79,51.62L163.19,51.00L162.01,50.27L161.29,49.46L161.25,49.29"/><path d="M162.21,49.78L162.12,49.77L162.21,49.84"/><path d="M161.27,49.31L161.56,39.92L161.51,39.86"/><path d="M161.22,49.18L161.15,48.90"/><path d="M161.71,49.74L162.01,40.32L161.94,40.27"/><path d="M162.01,40.32L162.81,39.79"/><path d="M161.24,39.50L161.98,39.03"/><path d="M161.56,39.92L162.33,39.42"/><path d="M161.08,39.08L161.76,38.64"/><path d="M162.92,36.59L162.17,37.24L161.90,37.96L162.11,38.70L162.81,39.41L163.96,40.06L165.50,40.60L167.35,41.00L169.38,41.24L171.48,41.28L173.51,41.14L175.34,40.82L176.87,40.35L177.99,39.75L178.66,39.06L178.83,38.33L178.51,37.60L177.72,36.90"/><path d="M161.74,37.86L161.18,38.24"/><path d="M161.45,37.84L161.93,37.48"/><path d="M161.07,38.61L161.07,38.60"/><path d="M162.99,50.53L163.32,41.07L163.21,41.02"/><path d="M162.90,50.17L162.70,50.16L162.89,50.27"/><path d="M162.29,50.15L162.60,40.71L162.51,40.66"/><path d="M162.60,40.71L163.42,40.14"/><path d="M163.32,41.07L164.14,40.46"/><path d="M163.80,50.87L164.15,41.40L164.04,41.36"/><path d="M164.21,50.85L164.58,50.98L164.57,50.83L164.21,50.85"/><path d="M163.69,50.65L163.40,50.52L163.70,50.52"/><path d="M164.15,41.40L164.96,40.75L164.96,41.65L165.09,41.69L165.88,41.00L165.98,41.91L166.12,41.94L165.72,51.44"/><path d="M165.58,51.41L165.98,41.91"/><path d="M164.72,51.18L165.09,41.69"/><path d="M164.57,50.83L164.96,40.75"/><path d="M165.52,51.24L165.46,51.09L165.11,51.14L165.52,51.24"/><path d="M165.46,51.09L165.88,41.00"/><path d="M164.59,51.14L164.96,41.65"/><path d="M166.10,51.38L166.43,51.32L166.53,51.46L166.10,51.38"/><path d="M166.65,51.63L167.07,42.11L166.87,41.21L166.12,41.94"/><path d="M166.43,51.32L166.87,41.21"/><path d="M167.77,51.79L168.21,42.27L168.37,42.28L169.01,41.49L169.40,42.37L169.56,42.38L169.08,51.91"/><path d="M167.14,51.57L167.60,51.63L167.45,51.49L167.14,51.57"/><path d="M166.80,51.65L167.22,42.14L167.92,41.37L167.45,51.49"/><path d="M167.07,42.11L167.22,42.14"/><path d="M167.92,41.37L168.21,42.27"/><path d="M168.24,51.71L168.71,51.75L168.52,51.62L168.24,51.71"/><path d="M168.52,51.62L169.01,41.49"/><path d="M168.92,51.90L169.40,42.37"/><path d="M167.92,51.81L168.37,42.28"/><path d="M170.10,51.95L170.60,42.42L170.76,42.42L170.25,51.95"/><path d="M169.84,51.81L169.60,51.68L169.36,51.79L169.84,51.81"/><path d="M169.60,51.68L170.12,41.56L169.56,42.38"/><path d="M170.12,41.56L170.60,42.42"/><path d="M171.26,51.94L171.79,42.41L171.95,42.40L171.42,51.93"/><path d="M170.49,51.82L170.96,51.81L170.70,51.70L170.49,51.82"/><path d="M170.70,51.70L171.24,41.57L170.76,42.42"/><path d="M171.24,41.57L171.79,42.41"/><path d="M172.41,51.87L172.96,42.34L172.35,41.53L171.95,42.40"/><path d="M171.77,51.66L171.61,51.79L172.07,51.76L171.77,51.66L172.35,41.53"/><path d="M173.08,51.65L173.14,51.65L172.82,51.56L172.70,51.70L173.08,51.65"/><path d="M172.82,51.56L173.42,41.44L174.09,42.22L174.23,42.20L174.44,41.30L173.81,51.41L173.74,51.56L174.16,51.48L173.81,51.41"/><path d="M172.56,51.85L173.12,42.33L172.96,42.34"/><path d="M173.51,51.74L174.09,42.22"/><path d="M173.12,42.33L173.42,41.44"/><path d="M174.71,51.36L175.10,51.26L174.74,51.21L174.71,51.36"/><path d="M174.68,51.53L175.29,42.02L175.15,42.04L174.44,41.30"/><path d="M174.55,51.56L175.15,42.04"/><path d="M173.65,51.72L174.23,42.20"/><path d="M174.74,51.21L175.38,41.11L176.13,41.82L176.25,41.79"/><path d="M175.65,50.97L175.95,51.00L175.64,51.10"/><path d="M175.51,51.32L176.13,41.82"/><path d="M175.38,41.11L175.29,42.02"/><path d="M176.50,50.68L176.71,50.69L176.49,50.79"/><path d="M176.37,51.03L177.01,41.55L177.12,41.51"/><path d="M177.01,41.55L176.25,40.88"/><path d="M177.01,40.61L177.78,41.24L177.87,41.20"/><path d="M177.23,50.41L177.34,50.35L177.24,50.35"/><path d="M177.75,50.34L178.42,40.89L178.50,40.85"/><path d="M177.12,50.71L177.78,41.24"/><path d="M177.85,49.97L177.85,49.97"/><path d="M177.67,40.30L178.42,40.89"/><path d="M178.20,37.30L178.19,37.29"/><path d="M178.62,49.53L179.30,40.12L178.61,39.60"/><path d="M178.84,49.09L179.53,39.71L179.55,39.65"/><path d="M178.26,49.95L178.93,40.52L178.99,40.47"/><path d="M178.20,39.96L178.93,40.52"/><path d="M179.30,40.12L179.34,40.07"/><path d="M179.01,38.84L179.61,39.29"/><path d="M178.88,39.23L179.53,39.71"/><path d="M178.87,38.05L179.32,38.44"/><path d="M179.01,38.44L179.54,38.86"/><path d="M179.28,38.39L179.28,38.40"/></g><g style="stroke:#000000;stroke-width:0.705"><path d="M160.83,48.42L160.76,48.62L160.72,49.91"/><path d="M160.94,48.45L160.80,48.42L160.79,48.36L161.07,39.02L161.68,38.25"/><path d="M161.76,38.64L161.21,39.44L160.93,48.81L160.96,48.87L161.23,48.92"/><path d="M161.74,37.86L161.07,38.60L161.06,38.65L160.78,47.97L160.80,47.98"/><path d="M162.12,49.77L161.71,49.74L161.64,49.68L161.94,40.27L162.33,39.42"/><path d="M162.81,39.79L162.51,40.66L162.20,50.09L162.29,50.15L162.70,50.16"/><path d="M161.65,49.36L161.27,49.31L161.22,49.25L161.51,39.86L161.98,39.03"/><path d="M161.45,37.95L161.45,37.84L161.49,37.78L162.21,37.15L161.85,37.46L161.85,37.47"/><path d="M161.18,38.48L161.18,38.24L161.21,38.18L161.93,37.48"/><path d="M163.42,40.14L163.21,41.02L162.89,50.48L162.99,50.53L163.40,50.52"/><path d="M179.31,38.57L179.32,38.44L179.28,38.39L178.59,37.66L178.19,37.29L177.72,36.90L176.53,36.29L174.99,35.79L173.20,35.42L171.26,35.22L169.27,35.17L167.35,35.30L165.58,35.59L164.08,36.02L162.92,36.59L162.25,37.11L162.21,37.15"/><path d="M164.21,50.85L163.80,50.87L163.69,50.83L164.04,41.36L164.14,40.46"/><path d="M166.10,51.38L165.72,51.44L165.58,51.41L165.52,51.24"/><path d="M164.58,50.98L164.59,51.14L164.72,51.18L165.11,51.14"/><path d="M167.14,51.57L166.80,51.65L166.65,51.63L166.53,51.46"/><path d="M167.60,51.63L167.77,51.79L167.92,51.81L168.24,51.71"/><path d="M169.36,51.79L169.08,51.91L168.92,51.90L168.71,51.75"/><path d="M169.84,51.81L170.10,51.95L170.25,51.95L170.49,51.82"/><path d="M171.61,51.79L171.42,51.93L171.26,51.94L170.96,51.81"/><path d="M172.70,51.70L172.56,51.85L172.41,51.87L172.07,51.76"/><path d="M173.74,51.56L173.65,51.72L173.51,51.74L173.14,51.65"/><path d="M174.16,51.48L174.55,51.56L174.68,51.53L174.71,51.36"/><path d="M176.25,40.88L176.25,41.79L175.63,51.28L175.51,51.32L175.10,51.26"/><path d="M175.95,51.00L176.37,51.03L176.48,50.99L177.12,41.51L177.01,40.61L177.01,40.61"/><path d="M177.67,40.30L177.87,41.20L177.21,50.66L177.12,50.71L176.71,50.69"/><path d="M177.34,50.35L177.75,50.34L177.83,50.29L178.50,40.85L178.20,39.96"/><path d="M178.61,39.60L178.99,40.47L178.31,49.89L178.26,49.95L177.85,49.97"/><path d="M178.86,49.02L178.87,49.05L178.76,50.58"/><path d="M178.34,49.56L178.62,49.53L178.66,49.47L179.34,40.07L178.88,39.23"/><path d="M179.01,38.84L179.55,39.65L178.86,49.03L178.84,49.09L178.68,49.12"/><path d="M178.89,48.65L178.92,48.64L179.61,39.29L179.61,39.23L179.01,38.44"/><path d="M178.87,38.05L179.52,38.81L179.54,38.86L179.52,39.12"/><path d="M178.59,37.66L178.97,38.04L178.97,38.06"/></g></g><g id="Actor_.1"><g style="stroke:#000000;stroke-width:0.353"><path d="M91.49,160.62L86.85,135.99"/><path d="M125.14,191.81L120.61,139.09L117.35,136.62"/><path d="M128.60,191.81L124.74,139.09L123.96,139.46L123.07,139.66L122.15,139.66L121.30,139.46L120.61,139.09"/><path d="M124.74,139.09L206.71,86.77L199.27,134.90"/><path d="M206.71,86.77L207.01,86.48L207.10,86.14"/></g><g style="stroke:#000000;stroke-width:0.705"><path d="M207.10,86.14L199.64,134.19L199.54,134.57L199.27,134.90L128.60,191.81L127.96,192.20L127.21,192.40L126.44,192.40L125.73,192.20L125.14,191.81L91.49,160.62L91.19,160.21L86.64,136.11"/></g></g><g id="Actor_.2"><g style="stroke:#000000;stroke-width:0.353"><path d="M56.34,107.72L62.08,112.50L64.47,111.38L64.95,110.08L65.99,108.84L67.50,107.73L69.36,106.82L71.45,106.18L73.62,105.84L75.74,105.82L77.68,106.13L79.28,106.74L80.45,107.62L81.10,108.71"/><path d="M63.81,119.51L62.08,112.50"/><path d="M66.13,118.37L64.47,111.38"/><path d="M66.99,116.59L83.11,130.03L84.54,137.30"/><path d="M79.28,97.35L79.36,97.63L79.70,98.00L77.52,86.43L118.45,113.89L119.52,126.38L99.29,111.96L88.59,117.50L88.26,115.58L87.65,115.82L86.99,115.94L86.34,115.94L85.76,115.82L85.30,115.58L85.04,115.27L84.95,114.88"/><path d="M77.52,86.43L77.18,86.08"/><path d="M78.47,85.56L78.51,85.77L78.68,85.94L119.66,113.22L119.56,111.96L78.47,84.78L78.68,85.94"/><path d="M78.26,84.41L78.30,84.61L78.47,84.78"/><path d="M95.25,109.08L79.70,98.00"/><path d="M83.11,130.03L85.58,128.69L86.94,135.94"/><path d="M85.58,128.69L85.95,127.14L86.93,125.66L88.44,124.33L90.35,123.26L91.38,122.90L92.55,122.49L94.88,122.09L97.19,122.06L99.33,122.43L101.16,123.16L102.55,124.20L103.41,125.50L103.67,126.98"/><path d="M88.59,117.50L87.99,117.73L87.33,117.86L86.68,117.86L86.10,117.73L85.65,117.50L85.38,117.17L85.30,116.79"/><path d="M89.00,134.94L96.61,141.28L120.81,126.89L120.24,126.74L119.52,126.38"/><path d="M88.26,115.58L99.02,110.07L99.29,111.96"/><path d="M100.54,86.26L90.89,80.37L89.66,72.21L130.23,95.82L130.67,104.69L131.04,104.85L131.48,104.94L131.96,104.94L132.41,104.85L132.81,104.69L132.42,95.82L165.88,78.40L165.86,78.81L166.10,78.63L166.21,78.43"/><path d="M89.66,72.21L89.48,72.05L89.43,71.87"/><path d="M90.89,80.37L90.71,80.20L90.66,80.01"/><path d="M97.80,148.69L96.61,141.28"/><path d="M96.63,108.38L99.02,110.07"/><path d="M100.79,88.24L101.22,89.95L102.23,91.59L103.81,93.10L105.93,94.43L108.52,95.53L111.50,96.37L114.80,96.90L118.28,97.12L117.60,88.87L114.04,88.67L110.68,88.15L107.63,87.33L104.99,86.26L102.83,84.97L101.22,83.50L100.20,81.91L99.77,80.24"/><path d="M99.93,78.56L117.60,88.87"/><path d="M118.45,113.89L119.19,114.24L120.10,114.43L121.09,114.43L122.05,114.24L122.90,113.89L124.74,139.09"/><path d="M118.28,97.12L130.67,104.69"/><path d="M119.66,113.22L120.03,113.39L120.49,113.48L120.98,113.48L121.46,113.39L121.88,113.22L121.79,111.96L121.36,112.14L120.88,112.23L120.39,112.23L119.94,112.14L119.56,111.96"/><path d="M120.61,139.09L120.25,134.83"/><path d="M121.41,134.12L120.81,126.89"/><path d="M121.88,113.22L209.07,64.73L209.23,64.60L209.27,64.44"/><path d="M121.79,111.96L191.91,73.24L189.19,74.45L185.97,75.52L132.81,104.69"/><path d="M122.90,113.89L210.06,65.10L206.71,86.77"/><path d="M132.42,95.82L132.02,95.98L131.55,96.06L131.06,96.06L130.61,95.98L130.23,95.82"/><path d="M148.33,69.37L149.50,68.75L150.25,68.02L150.54,67.22"/><path d="M148.73,69.55L149.50,69.14L150.25,68.40L150.53,67.61"/><path d="M149.74,56.61L150.20,57.96L151.19,59.28L152.68,60.54L154.65,61.71L155.80,62.24L157.06,62.74L159.84,63.61L162.91,64.28L166.19,64.73L169.57,64.94L172.95,64.91L176.23,64.64L179.31,64.13L182.08,63.41L184.48,62.50L186.44,61.43L187.91,60.23L188.87,58.95L189.30,57.62"/><path d="M149.75,51.03L150.23,52.34L151.22,53.62L152.74,54.85L154.74,55.98L155.91,56.50L157.18,56.98L160.00,57.82L163.12,58.48L166.44,58.91L169.88,59.12L173.31,59.09L176.64,58.82L179.75,58.33L182.57,57.63L185.00,56.75L186.98,55.71L188.47,54.55L189.44,53.30L189.86,52.01"/><path d="M154.11,50.40L154.35,51.53L155.10,52.65L156.34,53.72L158.04,54.70L159.06,55.14L160.17,55.55L162.63,56.25L165.36,56.76L168.25,57.06L171.20,57.14L174.10,57.00L176.84,56.65L179.32,56.09L181.46,55.35L183.18,54.46L184.43,53.46L185.18,52.37L185.42,51.25"/><path d="M154.13,49.27L154.37,50.40L155.12,51.51L156.36,52.57L158.07,53.54L159.09,53.98L160.20,54.39L162.67,55.08L165.41,55.59L168.31,55.89L171.27,55.97L174.17,55.83L176.92,55.48L179.41,54.92L181.55,54.19L183.28,53.31L184.53,52.31L185.28,51.23L185.52,50.11"/><path d="M160.59,48.88L160.78,48.55"/><path d="M165.86,78.81L186.71,67.92L185.97,75.52"/><path d="M166.23,78.02L166.12,78.23L165.88,78.40"/><path d="M179.02,49.52L178.86,49.19"/><path d="M186.71,67.92L189.99,66.88L192.82,65.66L195.17,64.28L197.00,62.78L198.28,61.19L199.02,59.55"/><path d="M191.91,73.24L192.26,73.04L191.91,73.24"/><path d="M209.07,64.73L209.23,63.67L192.26,73.04"/><path d="M192.36,72.99L194.30,71.76L196.10,70.21L197.37,68.57L198.10,66.87"/><path d="M220.37,67.67L208.91,74.49"/><path d="M210.06,65.10L210.37,64.83L210.46,64.52"/><path d="M209.23,63.67L209.39,63.54L209.43,63.38"/><path d="M212.15,66.99L212.18,66.26L211.77,65.52"/></g><g style="stroke:#000000;stroke-width:0.705"><path d="M78.91,113.00L77.15,112.71L75.07,112.73L72.94,113.08L70.89,113.73L69.08,114.66L67.61,115.79L66.60,117.05L66.13,118.37L63.81,119.51L58.14,114.64L56.34,107.72L79.28,97.35L77.10,85.67L77.30,85.24L77.74,84.83L78.28,84.54"/><path d="M102.00,130.27L100.36,129.60L98.26,129.23L96.00,129.25L93.73,129.66L91.58,130.43L89.71,131.53L88.25,132.87L87.30,134.38L86.94,135.94L84.54,137.30L68.65,123.67L66.99,116.59L69.40,115.42L71.60,115.48L73.89,115.18L76.09,114.54L78.05,113.62L79.62,112.49L80.68,111.23L81.19,109.94L81.10,108.72"/><path d="M78.47,85.56L78.26,84.41L78.35,84.19L78.57,83.99L78.90,83.82L90.50,78.99"/><path d="M85.30,116.79L84.95,114.88L85.09,114.48L85.41,114.11L85.90,113.79L96.63,108.38"/><path d="M103.67,126.98L103.29,128.52L102.29,130.02L100.73,131.38L98.71,132.48L96.38,133.24L93.90,133.60L91.48,133.53L89.00,134.94L90.33,142.27L97.80,148.69L121.41,134.12"/><path d="M90.66,80.01L89.43,71.87L89.51,71.67L89.71,71.48L90.02,71.33L122.86,58.37L123.18,58.27L123.55,58.22L123.93,58.22L124.28,58.27L124.57,58.37L139.37,65.22L140.71,64.71L142.28,64.38L143.97,64.25L145.68,64.33L147.28,64.61L148.65,65.08L149.70,65.70L150.35,66.43L150.54,67.22L150.53,67.61"/><path d="M100.79,88.24L99.77,80.24L99.93,78.56"/><path d="M117.35,136.62L120.62,139.09L121.31,139.46L122.15,139.66L123.07,139.66L123.96,139.46L124.74,139.09L206.71,86.77L207.01,86.48L207.10,86.14L210.46,64.52L210.31,64.20L209.95,63.89L209.40,63.63"/><path d="M124.12,58.25L143.85,50.44L145.87,49.20L148.25,48.08L150.93,47.12L152.14,46.79L151.40,47.33L150.36,48.50L149.81,49.74L149.75,51.03L149.74,56.61"/><path d="M148.33,69.37L165.77,77.44L166.04,77.61L166.20,77.81L166.23,78.02L166.21,78.43"/><path d="M152.14,46.79L152.87,46.26L154.74,45.32L156.95,44.52L159.45,43.88L160.91,43.62"/><path d="M154.11,50.40L154.13,49.27L154.39,48.18L155.13,47.14L156.32,46.18L157.90,45.35L159.84,44.65L160.89,44.39"/><path d="M160.59,48.88L160.61,49.73L161.13,50.58L162.13,51.37L163.56,52.07L165.35,52.62L167.40,53.00L169.59,53.18L171.79,53.16L173.88,52.92L175.71,52.50L175.92,52.42L177.23,51.90L178.31,51.18L178.91,50.37L179.02,49.52"/><path d="M185.42,51.25L185.52,50.11L185.25,48.99L184.49,47.91L183.29,46.89L181.68,45.96L179.72,45.16L179.19,45.00"/><path d="M189.30,57.62L189.86,52.01L189.76,50.71L189.14,49.43L188.05,48.20L186.51,47.05L184.58,46.02L182.31,45.11L179.77,44.35L179.24,44.23"/><path d="M187.79,48.01L190.37,49.02L192.84,50.25L194.97,51.61L196.72,53.07L198.03,54.62L198.87,56.23L199.21,57.89L198.10,66.87"/><path d="M209.27,64.44L209.43,63.38L209.36,63.22L209.18,63.07L208.91,62.94L199.04,59.29"/><path d="M211.41,67.82L211.77,65.52L212.89,64.89L220.37,67.67L219.28,73.70L207.94,80.70"/><path d="M209.84,68.51L210.77,68.22L211.67,67.66L212.15,66.99"/></g></g><g id="Actor_.3"><g style="stroke:#000000;stroke-width:0.353"><path d="M91.19,160.21L91.49,160.62L91.67,161.61"/><path d="M91.49,160.62L125.14,191.81L125.23,192.82"/><path d="M97.80,168.25L118.10,187.20L117.98,186.08"/><path d="M118.20,187.46L118.10,187.20"/><path d="M128.68,192.82L128.60,191.81L127.96,192.20L127.21,192.40L126.44,192.40L125.73,192.20L125.14,191.81"/><path d="M128.60,191.81L199.27,134.90L199.12,135.86"/><path d="M137.02,186.07L137.07,187.20L137.03,187.46L136.89,187.60"/><path d="M137.07,187.20L193.57,141.31"/><path d="M199.27,134.90L199.54,134.57L199.64,134.19"/></g><g style="stroke:#000000;stroke-width:0.705"><path d="M119.32,187.32L119.05,187.49L118.69,187.61L118.40,187.60L118.20,187.46L97.91,168.51L97.80,168.25L97.61,167.13L91.67,161.61L91.38,161.20L91.19,160.21"/><path d="M117.98,186.08L125.23,192.82L125.82,193.21L126.52,193.41L127.29,193.41L128.03,193.21L128.68,192.82L137.02,186.07"/><path d="M135.81,187.05L136.04,187.25L136.37,187.49L136.66,187.61L136.89,187.60L193.29,141.75L193.47,141.57L193.57,141.31L193.72,140.23L199.12,135.86L199.40,135.53L199.49,135.15L199.64,134.19"/></g></g><g><g/></g><g/><g id="paperID" visibility="hidden" opacity="0.00" transform="scale(0.000100)"><path style="stroke:#000000;stroke-width:0.500;fill:#e6e6e6;fill-rule:evenodd" d="M-2000.00,-2000.00L2297.00,-2000.00L2297.00,2210.00L-2000.00,2210.00zM0.00,0.00L297.00,0.00L297.00,210.00L0.00,210.00z"/><path style="fill:#000000;fill-opacity:0.118" d="M3.00,210.00L297.00,210.00L297.00,3.00L300.00,3.00L300.00,213.00L3.00,213.00z"/></g><g id="ToolTip" visibility="hidden" opacity="0" transform="translate(0,0)"><rect id="ToolTipShadow" opacity="0.20" fill="black" stroke="none" x="0" y="0" width="30" height="8"/><rect id="ToolTipBG" fill="#ffffe1" stroke="black" x="0" y="0" width="30" height="8"/><text xml:space="preserve" id="ToolTipText" fill="black" x="0" y="0" width="30" height="8">tooltip</text></g></g></svg>
