<?xml version="1.0" encoding="UTF-8" standalone="no"?>
<svg xmlns="http://www.w3.org/2000/svg" xmlns:xlink="http://www.w3.org/1999/xlink" width="297.000mm" height="210.000mm" viewBox="0.000000 0.000000 297.000000 210.000000" stroke-linejoin="round" stroke-linecap="round" fill="none" fill-rule="evenodd"><desc>3DVIA Composer Export</desc><script type="text/ecmascript"><![CDATA[
if(typeof(top) != "undefined")
{
	top.ShowPaper = ShowPaper;
}
function ShowHotSpot(evt,hotspotid)
{
	var svgDocument = evt.target.ownerDocument;
	var strId = "hotspot."+hotspotid;
	var hotspot = svgDocument.getElementById(strId);
	if(hotspot)
		hotspot.setAttribute("opacity",".5");
}
function HideHotSpot(evt,hotspotid)
{
	var svgDocument = evt.target.ownerDocument;
	var strId = "hotspot."+hotspotid;
	var hotspot = svgDocument.getElementById(strId);
	if(hotspot)
		hotspot.setAttribute("opacity","0");

	var toolTip = svgDocument.getElementById('ToolTip');
	if(toolTip)
		toolTip.setAttribute("visibility","hidden");
}
function ShowToolTip(evt,hotspotid,strTooltip)
{
	if(strTooltip=="")
	return;

	// change text
	var svgDocument = evt.target.ownerDocument;
	var tiptext = svgDocument.getElementById('ToolTipText');
	if( !tiptext )
	return;
	tiptext.firstChild.nodeValue = " " + strTooltip + "  " ;

	// show tooltip before, else some refresh issue

	var toolTip = svgDocument.getElementById('ToolTip');
	if(!toolTip)
	return;

	toolTip.setAttribute("visibility","visible");
	toolTip.setAttribute("opacity",".95");

	// move tooltip
	// get viewbox

	var root = svgDocument.documentElement;
	var vbox = (root.getAttribute("viewBox")).split(' ');
	var x0 = parseFloat(vbox[0]);
	var y0 = parseFloat(vbox[1]);
	var vboxW = parseFloat(vbox[2]);
	var vboxH = parseFloat(vbox[3]);

	// get default width of svg

	var strW = root.getAttribute("width");
	var svgW = parseFloat(strW);
	if(strW.indexOf('mm') != -1)
	svgW *= 3.779;

	var strH = root.getAttribute("height");
	var svgH = parseFloat(strH);
	if(strH.indexOf('mm') != -1)
	svgH *= 3.779;  	// 96 dpi  -> 96/25.4 = 3.779

	// update the viewbox / width / height if svg is embedded in html with zoom fit all
	var realx0 = x0;
	var realy0 = y0;
	var realvboxW = vboxW;
	var realvboxH = vboxH;
	var realsvgW = svgW;
	var realsvgH = svgH;

	if ((typeof(top) == "undefined") || (typeof(top.svgctl1) != "undefined")) // embedded in html
	{
		// get window size in pxl

		svgW = window.innerWidth;
		svgH = window.innerHeight;

		// calculate real viewbox

		realsvgW = svgW;
		realsvgH = svgH;
		if((svgW / svgH) > (vboxW / vboxH))
		{
			realvboxW = (vboxH * svgW) / svgH;
			realvboxH = vboxH;
			realx0 = x0 - (realvboxW - vboxW)/2 ;
		}
		else
		{
			realvboxH = (vboxW * svgH) / svgW;
			realvboxW = vboxW;
			realy0 = y0 - (realvboxH - vboxH)/2 ;
		}
	}

	// get user zoom/pan

	var newScale = root.currentScale;
	var translation = root.currentTranslate;

	// transform pxl to user unit

	var xPos = (((evt.clientX+10- translation.x)/newScale) * realvboxW)/realsvgW  + realx0 ;
	var yPos = (((evt.clientY+5- translation.y)/newScale) * realvboxH)/ realsvgH  + realy0 ;
	var scaleForWidth = ( (1 / newScale) * realvboxH) / realsvgH;

	// move tooltip

	toolTip.setAttribute("transform", "translate(" + xPos + "," + yPos + ")" );

	// resize tooltip

	var fontsize = 12;
	tiptext.setAttribute("font-size",fontsize*scaleForWidth);
	tiptext.setAttribute("y", fontsize*scaleForWidth);
	var tipBG = svgDocument.getElementById('ToolTipBG');
	var outline = tiptext.getBBox();
	if(tipBG)
	{
		tipBG.setAttribute("stroke-width", 1*scaleForWidth);
		tipBG.setAttribute("width", Number(outline.width) );
		tipBG.setAttribute("height", Number(outline.height) + fontsize*.5*scaleForWidth );
	}
	var ToolTipShadow = svgDocument.getElementById('ToolTipShadow');
	if(ToolTipShadow)
	{
		ToolTipShadow.setAttribute("width", Number(outline.width) );
		ToolTipShadow.setAttribute("height", Number(outline.height) + fontsize*.5*scaleForWidth );
		ToolTipShadow.setAttribute("x", 3*scaleForWidth);
		ToolTipShadow.setAttribute("y", 3*scaleForWidth);
	}
}
function ShowPaper()
{
  var svgDocument = getDocument();
  var paper = svgDocument.getElementById("paperID");
  if(paper)
  {
    paper.setAttribute("transform","scale(1)");
    paper.setAttribute("opacity","1");
    paper.setAttribute("visibility","visible");
  }
  var svg = svgDocument.getRootElement();
  if(svg)
  {
    svg.setAttribute("width","307.000mm");
    svg.setAttribute("height","220.000mm");
    svg.setAttribute("viewBox","-5.000000 -5.000000 307.000000 220.000000");
  }
}
]]></script><defs/><g><path style="fill:#dcdcdc;fill-rule:evenodd" d="M185.44,43.18L200.06,50.61L205.27,53.81L205.75,57.55L206.49,70.43L206.25,80.42L205.50,87.10L204.26,94.04L201.79,103.45L199.24,110.56L195.76,118.73L192.05,126.16L188.34,132.60L183.70,139.61L179.25,145.56L175.55,150.04L170.10,155.74L165.65,159.95L158.33,166.01L154.48,168.84L147.71,172.24L141.78,174.23L135.16,175.78L126.74,177.02L116.75,177.68L107.82,177.69L108.41,174.29L108.90,167.36L108.90,162.08L107.91,150.19L105.93,138.80L102.21,122.94L97.93,108.04L106.07,101.36L110.90,97.28L114.99,93.69L118.34,90.59L122.80,86.38L129.96,79.18L137.06,71.17L145.06,61.09L151.25,52.17L156.71,43.27L161.91,33.61L162.34,32.77L162.64,32.74zM179.27,94.93L179.49,96.19L179.49,101.22L178.75,105.68L177.02,111.63L175.75,114.36L175.77,114.75L177.27,115.51L181.46,116.98L180.74,118.81L176.77,125.74L172.06,132.18L168.74,135.55L167.37,137.15L166.64,137.67L166.06,137.90L162.93,132.54L162.68,132.34L159.46,134.69L155.72,136.65L151.16,137.82L148.03,137.56L147.03,137.33L143.32,134.60L141.84,132.36L140.85,128.89L140.61,126.90L140.61,122.03L141.58,116.32L144.24,109.07L147.47,102.88L151.90,96.66L156.13,92.23L161.41,88.34L164.14,87.25z"/><g id="Actor_.0"><g style="stroke:#000000;stroke-width:0.353"><path d="M74.73,91.66L97.88,107.90L102.17,122.72L103.90,129.47L106.38,140.78L107.95,150.45L109.73,158.45L112.85,165.18L117.04,170.21L122.09,173.57L127.76,175.32L133.88,175.60L140.00,174.60L146.23,172.51L152.73,169.27L159.14,165.10L165.37,160.13"/><path d="M97.88,107.90L105.57,101.71L111.77,96.47L117.88,90.99L128.30,80.80L136.90,71.30L129.15,81.44L121.94,93.15L115.99,105.44L111.54,117.78L108.71,129.68L107.53,140.69L107.95,150.45L108.74,158.73L108.91,162.83L108.90,166.65L108.71,170.55L108.37,174.14L107.83,177.81"/><path d="M102.09,54.19L102.04,54.23"/><path d="M162.42,32.54L159.07,38.94L157.47,41.77L155.76,44.78L152.13,50.69L148.58,56.04L144.72,61.43L136.90,71.30"/><path d="M136.95,71.22L145.37,62.30L150.82,57.74L154.38,54.75L163.28,49.18L171.74,45.65L179.51,44.11L186.41,44.43L192.09,46.32L196.80,49.54L200.67,54.12L203.50,59.72L205.31,66.13L206.18,73.15L206.16,80.63L205.35,88.20"/><path d="M139.17,134.59L138.99,133.99L138.80,127.22L140.14,119.43L142.99,111.12L147.19,102.91L152.44,95.39L158.32,89.12L164.41,84.51L170.27,81.77L175.55,80.99L179.96,82.07L183.32,84.82L185.53,88.95L186.57,94.18L186.46,100.19L185.28,106.69L183.12,113.39L180.08,120.04L176.31,126.38L171.93,132.17L167.11,137.18L162.03,141.18L156.88,143.95L151.90,145.29L147.35,145.03L143.49,143.06L140.62,139.34L139.17,134.59"/><path d="M173.69,86.29L176.55,88.43L178.50,91.74L179.48,95.97L179.50,100.89L178.61,106.25L176.88,111.80L174.39,117.30L171.27,122.55L167.62,127.32L163.61,131.40L159.38,134.62L155.11,136.78L151.01,137.73L147.30,137.36L144.18,135.60"/><path d="M146.66,111.39L147.49,110.22L146.73,111.32"/><path d="M147.95,109.53L148.29,109.06L147.49,110.22L147.95,109.53"/><path d="M148.29,109.06L149.10,107.90L148.29,109.06"/><path d="M152.55,101.61L149.96,106.66L149.10,107.90L149.87,106.77L152.62,101.39"/><path d="M182.25,141.55L182.12,141.74"/></g><g style="stroke:#000000;stroke-width:0.705"><path d="M75.41,105.16L75.21,102.89L74.91,97.64L74.73,91.66L79.02,84.74L82.95,78.75L87.00,72.94L90.75,67.85L94.64,62.90L102.04,54.23L109.89,46.02L114.39,41.70L118.98,37.50L124.22,32.97L129.58,28.55L135.72,23.73L162.43,32.52L171.70,36.71L178.66,39.90L186.29,43.49L192.09,46.32L196.79,48.71L200.71,50.83L203.07,52.21L205.37,53.67L206.00,60.33L206.33,65.52L206.48,70.91L206.44,75.60L206.23,80.18L205.37,88.09L203.89,95.71L201.66,103.75L198.79,111.77L195.33,119.69L191.33,127.42L186.84,134.89L182.12,141.74L177.02,148.21L171.35,154.46L165.37,160.13L162.68,162.32L158.11,166.11L155.86,167.77L153.60,169.20L151.08,170.58L148.50,171.77L145.77,172.85L140.00,174.60L133.28,175.99L129.19,176.59L124.85,177.06L119.71,177.44L114.26,177.69L107.83,177.81L88.18,159.45L86.20,153.77L84.47,148.51L82.93,143.55L81.59,138.93L80.36,134.30L78.40,125.85L76.86,117.40L76.19,112.74L75.66,108.10L75.41,105.16"/><path d="M144.18,135.60L141.89,132.46L140.66,128.21L140.61,128.03L140.48,122.54L141.56,116.29L143.84,109.68L147.17,103.17L151.33,97.21L156.01,92.21L160.90,88.48L165.66,86.23L170.00,85.51L173.69,86.29"/><path d="M141.52,116.53L142.99,115.36L146.73,111.32"/><path d="M154.80,93.50L153.74,97.42L151.09,103.57L147.62,109.36L143.45,114.56L141.56,116.33"/><path d="M144.81,135.96L144.08,135.46"/><path d="M152.55,101.61L154.39,96.36L154.97,93.32"/></g></g><g/><g><g/></g><g id="paperID" visibility="hidden" opacity="0.00" transform="scale(0.000100)"><path style="stroke:#000000;stroke-width:0.500;fill:#e6e6e6;fill-rule:evenodd" d="M-2000.00,-2000.00L2297.00,-2000.00L2297.00,2210.00L-2000.00,2210.00zM0.00,0.00L297.00,0.00L297.00,210.00L0.00,210.00z"/><path style="fill:#000000;fill-opacity:0.118" d="M3.00,210.00L297.00,210.00L297.00,3.00L300.00,3.00L300.00,213.00L3.00,213.00z"/></g><g id="ToolTip" visibility="hidden" opacity="0" transform="translate(0,0)"><rect id="ToolTipShadow" opacity="0.20" fill="black" stroke="none" x="0" y="0" width="30" height="8"/><rect id="ToolTipBG" fill="#ffffe1" stroke="black" x="0" y="0" width="30" height="8"/><text xml:space="preserve" id="ToolTipText" fill="black" x="0" y="0" width="30" height="8">tooltip</text></g></g></svg>
