<?xml version="1.0" encoding="UTF-8" standalone="no"?>
<svg xmlns="http://www.w3.org/2000/svg" xmlns:xlink="http://www.w3.org/1999/xlink" width="297.000mm" height="210.000mm" viewBox="0.000000 0.000000 297.000000 210.000000" stroke-linejoin="round" stroke-linecap="round" fill="none" fill-rule="evenodd"><desc>3DVIA Composer Export</desc><script type="text/ecmascript"><![CDATA[
if(typeof(top) != "undefined")
{
	top.ShowPaper = ShowPaper;
}
function ShowHotSpot(evt,hotspotid)
{
	var svgDocument = evt.target.ownerDocument;
	var strId = "hotspot."+hotspotid;
	var hotspot = svgDocument.getElementById(strId);
	if(hotspot)
		hotspot.setAttribute("opacity",".5");
}
function HideHotSpot(evt,hotspotid)
{
	var svgDocument = evt.target.ownerDocument;
	var strId = "hotspot."+hotspotid;
	var hotspot = svgDocument.getElementById(strId);
	if(hotspot)
		hotspot.setAttribute("opacity","0");

	var toolTip = svgDocument.getElementById('ToolTip');
	if(toolTip)
		toolTip.setAttribute("visibility","hidden");
}
function ShowToolTip(evt,hotspotid,strTooltip)
{
	if(strTooltip=="")
	return;

	// change text
	var svgDocument = evt.target.ownerDocument;
	var tiptext = svgDocument.getElementById('ToolTipText');
	if( !tiptext )
	return;
	tiptext.firstChild.nodeValue = " " + strTooltip + "  " ;

	// show tooltip before, else some refresh issue

	var toolTip = svgDocument.getElementById('ToolTip');
	if(!toolTip)
	return;

	toolTip.setAttribute("visibility","visible");
	toolTip.setAttribute("opacity",".95");

	// move tooltip
	// get viewbox

	var root = svgDocument.documentElement;
	var vbox = (root.getAttribute("viewBox")).split(' ');
	var x0 = parseFloat(vbox[0]);
	var y0 = parseFloat(vbox[1]);
	var vboxW = parseFloat(vbox[2]);
	var vboxH = parseFloat(vbox[3]);

	// get default width of svg

	var strW = root.getAttribute("width");
	var svgW = parseFloat(strW);
	if(strW.indexOf('mm') != -1)
	svgW *= 3.779;

	var strH = root.getAttribute("height");
	var svgH = parseFloat(strH);
	if(strH.indexOf('mm') != -1)
	svgH *= 3.779;  	// 96 dpi  -> 96/25.4 = 3.779

	// update the viewbox / width / height if svg is embedded in html with zoom fit all
	var realx0 = x0;
	var realy0 = y0;
	var realvboxW = vboxW;
	var realvboxH = vboxH;
	var realsvgW = svgW;
	var realsvgH = svgH;

	if ((typeof(top) == "undefined") || (typeof(top.svgctl1) != "undefined")) // embedded in html
	{
		// get window size in pxl

		svgW = window.innerWidth;
		svgH = window.innerHeight;

		// calculate real viewbox

		realsvgW = svgW;
		realsvgH = svgH;
		if((svgW / svgH) > (vboxW / vboxH))
		{
			realvboxW = (vboxH * svgW) / svgH;
			realvboxH = vboxH;
			realx0 = x0 - (realvboxW - vboxW)/2 ;
		}
		else
		{
			realvboxH = (vboxW * svgH) / svgW;
			realvboxW = vboxW;
			realy0 = y0 - (realvboxH - vboxH)/2 ;
		}
	}

	// get user zoom/pan

	var newScale = root.currentScale;
	var translation = root.currentTranslate;

	// transform pxl to user unit

	var xPos = (((evt.clientX+10- translation.x)/newScale) * realvboxW)/realsvgW  + realx0 ;
	var yPos = (((evt.clientY+5- translation.y)/newScale) * realvboxH)/ realsvgH  + realy0 ;
	var scaleForWidth = ( (1 / newScale) * realvboxH) / realsvgH;

	// move tooltip

	toolTip.setAttribute("transform", "translate(" + xPos + "," + yPos + ")" );

	// resize tooltip

	var fontsize = 12;
	tiptext.setAttribute("font-size",fontsize*scaleForWidth);
	tiptext.setAttribute("y", fontsize*scaleForWidth);
	var tipBG = svgDocument.getElementById('ToolTipBG');
	var outline = tiptext.getBBox();
	if(tipBG)
	{
		tipBG.setAttribute("stroke-width", 1*scaleForWidth);
		tipBG.setAttribute("width", Number(outline.width) );
		tipBG.setAttribute("height", Number(outline.height) + fontsize*.5*scaleForWidth );
	}
	var ToolTipShadow = svgDocument.getElementById('ToolTipShadow');
	if(ToolTipShadow)
	{
		ToolTipShadow.setAttribute("width", Number(outline.width) );
		ToolTipShadow.setAttribute("height", Number(outline.height) + fontsize*.5*scaleForWidth );
		ToolTipShadow.setAttribute("x", 3*scaleForWidth);
		ToolTipShadow.setAttribute("y", 3*scaleForWidth);
	}
}
function ShowPaper()
{
  var svgDocument = getDocument();
  var paper = svgDocument.getElementById("paperID");
  if(paper)
  {
    paper.setAttribute("transform","scale(1)");
    paper.setAttribute("opacity","1");
    paper.setAttribute("visibility","visible");
  }
  var svg = svgDocument.getRootElement();
  if(svg)
  {
    svg.setAttribute("width","307.000mm");
    svg.setAttribute("height","220.000mm");
    svg.setAttribute("viewBox","-5.000000 -5.000000 307.000000 220.000000");
  }
}
]]></script><defs/><g><path style="fill:#dcdcdc;fill-rule:evenodd" d="M181.15,65.55L197.06,69.66L197.84,86.60L197.84,93.87L196.05,106.97L191.68,120.82L181.66,135.96L179.61,138.54L171.68,146.77L170.26,148.44L153.06,161.82L152.41,161.83L144.17,160.03L133.40,156.68L119.75,151.81L119.46,151.54L125.44,126.47L125.44,117.15L125.19,108.42L125.19,100.03L126.49,99.02L147.78,81.55L163.71,59.47L163.96,59.39zM175.76,97.38L176.55,98.39L176.96,101.57L177.27,101.78L182.21,102.48L182.47,102.74L182.43,106.96L181.16,113.13L177.99,120.49L172.83,128.16L171.06,129.73L167.44,133.30L161.06,136.93L155.41,137.78L152.90,133.08L149.31,131.78L148.05,130.99L146.74,128.97L146.23,126.65L146.24,124.67L146.73,118.75L149.57,110.29L153.82,103.00L159.09,96.97L164.89,92.76L166.18,92.23L167.04,92.22z"/><g id="Actor_.0"><g style="stroke:#000000;stroke-width:0.353"><path d="M105.37,89.08L124.90,100.37L147.58,81.73L163.74,59.35L144.20,48.07"/><path d="M119.43,151.66L125.65,125.42L124.90,100.37"/><path d="M133.27,137.39L133.48,125.32L137.04,112.04L143.56,98.99L152.34,87.59L162.42,79.07L172.72,74.35L182.12,73.95L189.59,77.91L194.33,85.79L195.83,96.76L193.92,109.61L188.81,122.95L181.05,135.35L177.38,139.23L171.49,145.45L161.16,152.16L151.18,154.75L142.63,152.95L136.43,146.94L133.27,137.39"/><path d="M147.44,132.07L150.64,136.14L150.82,136.21L155.33,137.83L161.00,136.95L167.04,133.60L172.13,128.78L172.79,128.15L177.63,121.19L181.04,113.46L182.64,105.81L182.26,99.07L179.95,93.98L176.34,91.34L175.95,91.05L170.70,90.64"/><path d="M171.06,91.59L174.61,94.17L175.64,96.44L176.67,98.71L177.00,104.69L175.58,111.48L172.55,118.34L168.26,124.51L163.16,129.35L157.80,132.31L152.77,133.09L148.61,131.60"/><path d="M163.74,59.35L182.05,65.85L197.11,69.62"/></g><g style="stroke:#000000;stroke-width:0.705"><path d="M99.77,137.42L98.98,117.85L100.96,103.20L105.37,89.08L116.21,72.79L120.66,68.10L127.43,60.94L144.20,48.07L151.68,49.63L160.96,52.38L177.57,58.34L197.11,69.62L198.02,92.15L196.04,106.80L191.63,120.92L180.79,137.21L172.86,145.58L169.57,149.06L152.80,161.93L145.32,160.37L136.04,157.62L119.43,151.66L99.91,140.39L99.77,137.42"/><path d="M147.44,132.07L146.08,126.07L146.70,118.77L149.24,110.98L149.66,110.22L153.42,103.53L158.78,97.24L164.76,92.78L170.70,90.64"/><path d="M148.61,131.60L146.82,129.32"/><path d="M171.06,91.59L168.60,91.39"/></g></g><g id="paperID" visibility="hidden" opacity="0.00" transform="scale(0.000100)"><path style="stroke:#000000;stroke-width:0.500;fill:#e6e6e6;fill-rule:evenodd" d="M-2000.00,-2000.00L2297.00,-2000.00L2297.00,2210.00L-2000.00,2210.00zM0.00,0.00L297.00,0.00L297.00,210.00L0.00,210.00z"/><path style="fill:#000000;fill-opacity:0.118" d="M3.00,210.00L297.00,210.00L297.00,3.00L300.00,3.00L300.00,213.00L3.00,213.00z"/></g><g id="ToolTip" visibility="hidden" opacity="0" transform="translate(0,0)"><rect id="ToolTipShadow" opacity="0.20" fill="black" stroke="none" x="0" y="0" width="30" height="8"/><rect id="ToolTipBG" fill="#ffffe1" stroke="black" x="0" y="0" width="30" height="8"/><text xml:space="preserve" id="ToolTipText" fill="black" x="0" y="0" width="30" height="8">tooltip</text></g></g></svg>
