<?xml version="1.0" encoding="UTF-8" standalone="no"?>
<svg xmlns="http://www.w3.org/2000/svg" xmlns:xlink="http://www.w3.org/1999/xlink" width="297.000mm" height="210.000mm" viewBox="0.000000 0.000000 297.000000 210.000000" stroke-linejoin="round" stroke-linecap="round" fill="none" fill-rule="evenodd"><desc>3DVIA Composer Export</desc><script type="text/ecmascript"><![CDATA[
if(typeof(top) != "undefined")
{
	top.ShowPaper = ShowPaper;
}
function ShowHotSpot(evt,hotspotid)
{
	var svgDocument = evt.target.ownerDocument;
	var strId = "hotspot."+hotspotid;
	var hotspot = svgDocument.getElementById(strId);
	if(hotspot)
		hotspot.setAttribute("opacity",".5");
}
function HideHotSpot(evt,hotspotid)
{
	var svgDocument = evt.target.ownerDocument;
	var strId = "hotspot."+hotspotid;
	var hotspot = svgDocument.getElementById(strId);
	if(hotspot)
		hotspot.setAttribute("opacity","0");

	var toolTip = svgDocument.getElementById('ToolTip');
	if(toolTip)
		toolTip.setAttribute("visibility","hidden");
}
function ShowToolTip(evt,hotspotid,strTooltip)
{
	if(strTooltip=="")
	return;

	// change text
	var svgDocument = evt.target.ownerDocument;
	var tiptext = svgDocument.getElementById('ToolTipText');
	if( !tiptext )
	return;
	tiptext.firstChild.nodeValue = " " + strTooltip + "  " ;

	// show tooltip before, else some refresh issue

	var toolTip = svgDocument.getElementById('ToolTip');
	if(!toolTip)
	return;

	toolTip.setAttribute("visibility","visible");
	toolTip.setAttribute("opacity",".95");

	// move tooltip
	// get viewbox

	var root = svgDocument.documentElement;
	var vbox = (root.getAttribute("viewBox")).split(' ');
	var x0 = parseFloat(vbox[0]);
	var y0 = parseFloat(vbox[1]);
	var vboxW = parseFloat(vbox[2]);
	var vboxH = parseFloat(vbox[3]);

	// get default width of svg

	var strW = root.getAttribute("width");
	var svgW = parseFloat(strW);
	if(strW.indexOf('mm') != -1)
	svgW *= 3.779;

	var strH = root.getAttribute("height");
	var svgH = parseFloat(strH);
	if(strH.indexOf('mm') != -1)
	svgH *= 3.779;  	// 96 dpi  -> 96/25.4 = 3.779

	// update the viewbox / width / height if svg is embedded in html with zoom fit all
	var realx0 = x0;
	var realy0 = y0;
	var realvboxW = vboxW;
	var realvboxH = vboxH;
	var realsvgW = svgW;
	var realsvgH = svgH;

	if ((typeof(top) == "undefined") || (typeof(top.svgctl1) != "undefined")) // embedded in html
	{
		// get window size in pxl

		svgW = window.innerWidth;
		svgH = window.innerHeight;

		// calculate real viewbox

		realsvgW = svgW;
		realsvgH = svgH;
		if((svgW / svgH) > (vboxW / vboxH))
		{
			realvboxW = (vboxH * svgW) / svgH;
			realvboxH = vboxH;
			realx0 = x0 - (realvboxW - vboxW)/2 ;
		}
		else
		{
			realvboxH = (vboxW * svgH) / svgW;
			realvboxW = vboxW;
			realy0 = y0 - (realvboxH - vboxH)/2 ;
		}
	}

	// get user zoom/pan

	var newScale = root.currentScale;
	var translation = root.currentTranslate;

	// transform pxl to user unit

	var xPos = (((evt.clientX+10- translation.x)/newScale) * realvboxW)/realsvgW  + realx0 ;
	var yPos = (((evt.clientY+5- translation.y)/newScale) * realvboxH)/ realsvgH  + realy0 ;
	var scaleForWidth = ( (1 / newScale) * realvboxH) / realsvgH;

	// move tooltip

	toolTip.setAttribute("transform", "translate(" + xPos + "," + yPos + ")" );

	// resize tooltip

	var fontsize = 12;
	tiptext.setAttribute("font-size",fontsize*scaleForWidth);
	tiptext.setAttribute("y", fontsize*scaleForWidth);
	var tipBG = svgDocument.getElementById('ToolTipBG');
	var outline = tiptext.getBBox();
	if(tipBG)
	{
		tipBG.setAttribute("stroke-width", 1*scaleForWidth);
		tipBG.setAttribute("width", Number(outline.width) );
		tipBG.setAttribute("height", Number(outline.height) + fontsize*.5*scaleForWidth );
	}
	var ToolTipShadow = svgDocument.getElementById('ToolTipShadow');
	if(ToolTipShadow)
	{
		ToolTipShadow.setAttribute("width", Number(outline.width) );
		ToolTipShadow.setAttribute("height", Number(outline.height) + fontsize*.5*scaleForWidth );
		ToolTipShadow.setAttribute("x", 3*scaleForWidth);
		ToolTipShadow.setAttribute("y", 3*scaleForWidth);
	}
}
function ShowPaper()
{
  var svgDocument = getDocument();
  var paper = svgDocument.getElementById("paperID");
  if(paper)
  {
    paper.setAttribute("transform","scale(1)");
    paper.setAttribute("opacity","1");
    paper.setAttribute("visibility","visible");
  }
  var svg = svgDocument.getRootElement();
  if(svg)
  {
    svg.setAttribute("width","307.000mm");
    svg.setAttribute("height","220.000mm");
    svg.setAttribute("viewBox","-5.000000 -5.000000 307.000000 220.000000");
  }
}
]]></script><defs/><g><path style="fill:#dcdcdc;fill-rule:evenodd" d="M221.91,44.83L221.78,44.67L222.76,44.75zM227.13,46.29L226.60,46.32L225.54,45.74L225.48,45.50L225.78,45.49zM216.65,45.95L216.77,45.80L219.17,45.78zM221.72,46.31L220.68,46.30L219.55,46.04L221.22,46.02zM216.53,46.11L215.96,46.04L216.65,45.95zM225.58,48.10L225.06,48.12L223.99,47.54L223.94,47.30L224.52,47.29zM220.17,47.86L219.39,47.86L217.75,47.32L219.16,47.31zM229.69,47.82L231.00,49.34L231.24,49.96L229.95,48.84L228.82,47.55zM223.00,49.11L224.03,50.16L223.55,50.15L221.17,48.56L221.12,48.33zM219.17,49.89L218.64,49.92L216.78,49.13L216.50,48.83L217.07,48.84zM213.34,50.05L210.82,49.64L212.21,49.64zM228.64,50.66L229.19,51.75L228.15,50.90L227.55,49.85L227.84,49.86zM232.27,50.93L232.26,51.51L232.02,51.46L231.61,50.41zM221.21,50.91L222.52,52.16L222.77,52.78L220.70,51.15L220.35,50.63zM217.37,51.68L216.84,51.72L215.22,50.63L215.79,50.63zM212.22,51.68L212.81,52.12L210.41,51.43L209.92,51.16L205.95,50.92L210.17,50.90zM226.33,52.20L226.93,53.39L225.84,52.44L224.98,51.14L225.27,51.14zM215.80,53.74L216.66,54.68L216.07,54.50L213.77,52.69L213.59,52.36L214.02,52.44zM212.76,54.73L215.87,58.04L215.05,57.57L212.22,54.76L208.01,52.70L208.89,52.69zM221.49,55.24L221.80,55.96L219.42,53.72L219.08,52.92L219.37,52.93zM227.40,53.76L227.39,54.07L227.13,54.04L226.93,53.39zM224.82,55.03L224.82,55.62L224.57,55.57L223.73,54.25L223.75,53.73zM205.12,54.17L203.12,53.74L204.27,53.73zM217.39,54.98L219.42,57.56L219.88,58.50L219.39,58.12L216.66,54.68zM209.64,56.05L210.24,56.74L208.91,56.02L206.91,54.67L207.61,54.75zM204.52,56.33L203.73,56.33L201.07,55.28L202.47,55.27zM222.53,56.58L222.48,56.92L222.18,56.93L221.80,55.96zM198.18,56.73L196.77,56.54L196.73,56.28zM211.02,57.24L210.42,57.08L210.24,56.74L210.69,56.80zM207.33,57.85L208.89,59.40L208.39,59.40L206.06,57.33L205.20,56.79L205.78,56.79zM198.29,56.89L198.18,56.73L199.14,56.82zM200.51,57.24L199.53,57.07L200.39,57.08zM214.01,60.41L214.29,61.27L214.05,61.21L211.18,57.59L211.02,57.24L211.45,57.32zM203.74,58.87L205.56,60.39L207.61,62.71L208.65,64.02L208.65,64.60L205.56,60.90L203.77,59.36L200.68,57.57L200.51,57.24L201.19,57.32zM216.58,58.61L217.11,59.98L216.88,59.92L215.87,58.04zM197.07,58.64L196.29,58.63L194.39,58.11L195.79,58.10zM200.15,59.90L201.00,60.84L199.92,60.38L198.02,59.10L198.59,59.10zM192.47,59.64L189.58,59.67L189.27,59.37zM209.95,60.10L211.47,62.48L211.47,63.06L209.32,59.87zM197.34,61.68L197.67,62.12L192.86,59.90L194.00,59.89zM201.75,61.38L201.18,61.18L201.00,60.84L201.46,60.90zM202.99,62.19L205.80,65.80L205.59,66.16L203.25,63.22L201.96,61.94L201.75,61.38zM234.04,61.97L234.07,62.27L232.93,65.04L230.47,67.72L229.07,68.37L227.14,70.03L225.13,70.84L225.06,70.43L224.68,70.64L225.13,70.84L225.06,71.03L223.16,72.48L222.24,72.49L219.81,74.55L219.17,74.56L216.50,76.33L215.33,77.22L213.67,77.87L212.24,79.00L210.84,79.66L208.87,81.04L208.12,81.23L206.86,82.36L205.20,83.00L204.03,84.15L202.44,84.89L203.78,92.84L200.17,96.97L195.68,101.72L193.39,103.80L188.88,108.27L110.99,160.30L109.78,160.02L106.18,158.23L104.88,157.41L104.83,157.17L105.67,157.46L107.47,157.71L108.67,157.71L110.23,157.47L112.76,155.63L114.41,151.64L114.66,150.09L114.65,147.27L114.85,146.39L119.56,147.20L120.21,147.19L121.11,146.24L120.83,145.38L117.77,141.51L113.11,133.84L111.57,131.53L111.07,129.98L109.27,126.39L108.49,123.83L105.93,112.53L105.70,112.25L105.41,111.25L104.90,107.66L104.83,106.37L193.40,61.91L193.72,61.94L194.78,63.73L196.53,65.06L199.66,68.90L199.66,69.48L199.41,69.43L198.12,67.58L195.52,64.76L195.41,64.79L200.40,76.33L201.63,80.75L201.92,80.97L201.87,82.27L202.16,82.34L202.63,78.62L204.80,78.86L205.07,79.14L204.85,80.60L204.33,82.15L204.18,82.28L204.25,82.85L204.33,82.15L204.85,80.60L205.29,80.01L205.54,79.24L205.71,76.82L207.84,77.36L208.10,78.24L208.87,75.30L210.67,75.82L210.93,76.95L211.35,73.75L212.73,73.76L213.49,74.02L213.59,74.96L213.32,75.73L212.95,76.39L212.96,77.19L213.26,76.70L213.32,75.73L213.59,74.96L214.02,74.11L214.17,71.96L215.30,71.96L216.36,72.46L216.31,74.12L217.08,70.41L219.13,70.91L219.12,71.80L219.42,71.30L219.57,68.87L220.43,68.88L221.49,69.37L221.54,70.34L221.29,71.38L221.12,71.50L221.19,72.07L221.29,71.38L221.54,70.34L222.23,68.46L222.39,67.33L224.28,67.60L224.38,68.01L223.74,69.49L223.76,70.02L224.29,69.24L224.38,68.01L225.03,65.80L226.36,66.03L226.64,66.30L226.57,67.69L227.11,66.41L227.28,64.50L228.93,64.75L229.24,65.21L229.09,65.33L229.15,65.90L229.24,65.21L229.69,64.63L229.85,62.95L231.72,63.24L231.82,63.41L231.67,63.53L231.72,64.11L231.82,63.41L231.98,63.28L232.14,61.69L233.27,61.69zM201.67,65.57L202.72,67.34L202.51,67.70L200.43,65.01L197.67,62.12L198.10,62.20zM82.10,92.21L82.35,92.83L81.28,91.96L81.28,91.46zM80.28,96.36L78.64,96.36L79.25,96.11zM75.90,98.77L75.85,98.22L76.38,97.84zM91.82,100.74L91.03,100.74L90.51,100.42L90.45,100.18zM87.45,107.39L88.67,108.22L90.02,108.67L94.17,112.48L94.62,113.61L94.93,113.28L95.42,114.06L96.16,117.93L97.97,122.80L100.80,128.18L103.90,132.81L103.82,133.30L104.18,134.16L103.37,133.54L103.03,133.54L102.23,134.09L101.85,134.10L100.32,132.26L97.98,128.70L95.66,124.08L94.37,120.50L93.61,116.63L93.36,112.78L90.27,111.97L90.02,111.73L89.74,112.62L90.02,116.38L90.26,117.93L91.80,123.32L94.13,128.44L97.20,133.58L98.78,135.63L98.78,135.97L98.39,136.42L98.00,136.41L96.97,135.09L94.64,131.78L93.63,130.22L91.29,125.11L90.01,121.01L89.77,119.70L87.11,119.71L81.03,120.57L80.26,118.18L79.75,113.30L79.74,111.83L80.52,108.51L82.47,106.60L85.92,106.61zM112.69,136.05L112.50,135.37L112.60,135.35zM112.96,136.83L112.69,136.05L112.85,136.17zM113.14,137.51L112.96,136.83L113.12,136.96zM231.72,64.11L231.67,63.53L231.82,63.41zM229.15,65.90L229.09,65.33L229.24,65.21zM231.24,65.61L230.69,66.42L230.67,65.90L231.24,65.04zM228.42,67.91L227.61,68.98L227.62,68.50L228.30,67.58zM224.29,69.24L223.76,70.02L223.74,69.49L224.38,68.01zM225.13,70.84L224.68,70.64L225.06,70.43zM221.19,72.07L221.12,71.50L221.29,71.38zM213.26,76.70L212.96,77.19L212.95,76.39L213.32,75.73zM207.62,79.99L207.08,80.80L207.05,80.28L207.62,79.42zM204.25,82.85L204.18,82.28L204.33,82.15z"/><g id="Actor_.0"><g style="stroke:#000000;stroke-width:0.705"><path d="M88.56,99.15L90.80,100.59L104.62,106.50L105.41,112.01L110.06,128.32L105.66,119.46L100.19,111.03L94.26,104.04L88.56,99.15"/></g></g><g id="Actor_.1"><g style="stroke:#000000;stroke-width:0.705"><path d="M197.19,100.18L198.50,98.81L203.80,92.79L203.28,88.78L200.47,76.57"/></g></g><g id="Actor_.2"><g style="stroke:#000000;stroke-width:0.705"><path d="M90.54,109.20L87.82,109.44L85.13,111.70L84.15,113.87L85.09,110.27L87.18,108.16"/><path d="M89.72,113.23L90.01,116.91L90.12,117.46L91.81,123.30L94.39,129.04L97.54,134.14L100.71,137.91L104.05,140.73L104.87,141.08"/><path d="M93.59,112.05L93.55,112.16L93.48,116.09L94.33,120.34L95.95,124.83L98.26,129.33L100.72,132.86L103.56,135.80L106.26,137.53L107.06,137.62"/><path d="M106.60,135.46L104.01,132.86L101.05,128.71L98.16,123.31L96.18,117.96L95.37,113.88"/><path d="M95.02,104.93L94.84,104.96"/><path d="M102.19,124.15L101.91,123.67L101.68,123.14"/><path d="M105.66,111.18L105.25,110.84"/><path d="M105.20,110.52L105.61,110.94"/><path d="M105.65,111.10L105.22,110.64"/></g></g><g id="Actor_.3"><g style="stroke:#000000;stroke-width:0.705"><path d="M79.26,127.33L82.88,134.43L87.22,141.29L91.98,147.38L95.05,150.59L95.35,150.86"/><path d="M91.98,147.38L96.83,152.27"/></g></g><g id="Actor_.4"><g style="stroke:#000000;stroke-width:0.705"><path d="M74.83,113.81L73.83,108.35L74.22,101.64L74.54,100.58L77.38,96.78L82.16,96.16L88.56,99.15L89.94,100.17L97.27,107.33L104.29,117.13L110.06,128.32L110.95,130.53L114.11,141.15L114.73,149.75L112.93,155.46L112.33,156.19L108.23,157.92L102.88,156.48L96.83,152.27L95.62,151.17L89.55,144.44L83.97,136.30L79.26,127.33L78.47,125.54L75.33,116.55L74.83,113.81"/><path d="M80.43,118.85L80.06,117.51L79.64,112.26L80.50,108.58L82.54,106.58L85.73,106.50L89.79,108.52L94.59,112.86L99.44,119.19L102.98,125.39L105.92,132.56L107.40,138.88L107.37,144.14L105.75,147.49L103.37,148.49L99.83,147.68L95.92,145.12L91.64,140.81L87.48,135.16L84.44,129.82L81.75,123.59L80.43,118.85"/></g></g><g id="Actor_.5"><g style="stroke:#000000;stroke-width:0.705"><path d="M104.76,106.43L104.63,106.51L108.70,124.85L110.06,128.32L118.15,142.14L121.25,145.97L203.80,92.79L201.28,79.23L200.47,76.57L195.58,65.27L193.64,61.85L104.76,106.43"/></g></g><g id="Actor_.6"><g style="stroke:#000000;stroke-width:0.705"><path d="M182.34,56.05L191.14,60.28L193.64,61.85L199.55,73.94L200.47,76.57L200.47,76.57"/></g></g><g id="Actor_.7"><g style="stroke:#000000;stroke-width:0.705"><path d="M188.50,59.01L189.34,58.54L193.49,57.98L197.74,58.99L201.57,61.41L205.03,65.25L207.34,69.75L208.24,74.18L207.84,78.61L206.20,82.15L203.96,84.22L202.56,84.89L202.40,84.95"/><path d="M189.58,59.53L193.18,60.02L197.50,62.17L201.01,65.52L203.62,69.74L205.15,74.69L205.18,79.09L203.94,82.83L202.34,84.70"/><path d="M205.69,82.86L206.66,82.53L209.22,80.17L210.79,76.70L211.08,72.10L210.06,67.59L207.79,63.33L204.23,59.62L200.31,57.34L196.22,56.46L192.16,57.18L190.57,58.19"/><path d="M193.34,56.81L193.92,56.30L197.51,55.10L201.55,55.37L205.86,57.19L209.43,60.19L212.11,64.20L213.71,68.90L213.92,73.32L212.76,77.18L210.44,80.14L207.95,81.47"/><path d="M201.87,82.38L202.27,78.24L201.29,73.29L199.10,68.78L195.86,65.02L195.18,64.57"/><path d="M210.85,79.76L211.36,79.64L214.13,77.57L216.10,74.04L216.75,69.99L216.10,65.58L213.96,60.99L210.93,57.39L207.18,54.87L202.82,53.70L198.91,54.04L195.65,55.67"/><path d="M213.72,77.93L215.19,77.33L217.73,74.73L219.15,71.08L219.33,66.66L218.18,62.20L215.77,58.16L212.23,54.79L208.29,52.80L204.26,52.27L200.25,53.25L199.51,53.79"/><path d="M215.99,76.64L218.94,74.79L221.04,71.82L222.03,67.98L221.65,63.31L220.04,59.06L217.30,55.35L213.42,52.47L209.43,51.07L205.48,51.09L201.73,52.66L201.60,52.78"/><path d="M204.34,51.56L206.62,50.21L210.47,49.62L214.75,50.49L218.54,52.67L221.66,56.05L223.83,60.31L224.67,64.69L224.12,68.83L222.35,72.28L219.64,74.65L218.98,74.86"/><path d="M221.13,73.42L223.29,72.36L225.63,69.66L227.00,65.68L227.03,61.51L225.77,57.28L223.07,53.20L219.70,50.32L215.82,48.66L211.53,48.43L207.90,49.57L207.35,50.00"/><path d="M210.05,48.75L212.82,47.42L216.70,47.09L220.71,48.22L224.51,50.74L227.40,54.21L229.14,58.39L229.62,62.77L228.80,66.75L226.75,69.91L223.84,71.97L223.57,72.03"/><path d="M212.82,47.42L214.69,46.36L218.34,45.83L222.66,46.73L226.37,48.87L229.28,52.03L231.37,56.31L232.07,60.26L231.58,64.18L229.75,67.72L226.87,70.22L226.13,70.48"/><path d="M233.15,64.68L234.02,62.38L234.44,58.58L233.69,54.66L231.60,50.63L228.50,47.37L225.00,45.41L221.03,44.64L217.04,45.23L214.99,46.32"/><path d="M230.50,67.69L230.27,67.92L229.12,68.42"/><path d="M230.92,67.28L230.54,67.66"/><path d="M231.01,67.19L232.45,65.77L233.14,64.70"/></g></g><g id="Actor_.8"><g style="stroke:#000000;stroke-width:0.705"><path d="M78.24,124.88L78.09,124.50L76.43,120.16L74.51,113.11L74.44,111.70"/><path d="M74.51,113.08L73.75,106.76L74.22,101.64L74.22,101.64"/><path d="M79.26,127.32L79.26,127.33L76.43,120.16"/></g></g><g id="Actor_.9"><g style="stroke:#000000;stroke-width:0.705"><path d="M110.80,160.42L110.84,159.59L112.93,155.46L113.90,154.17L121.24,145.98L203.80,92.79L202.42,94.46L197.19,100.18L195.80,101.58L188.12,108.89L110.80,160.42"/></g></g><g id="Actor_.10"><g style="stroke:#000000;stroke-width:0.705"><path d="M74.22,101.64L73.89,103.28L73.99,104.12"/><path d="M168.44,52.21L79.92,89.76L78.01,92.92L76.37,96.69"/><path d="M91.57,101.76L91.59,101.75"/><path d="M92.71,101.23L92.51,101.32"/></g></g><g id="Actor_.11"><g style="stroke:#000000;stroke-width:0.705"><path d="M91.34,140.32L91.29,140.35"/><path d="M99.56,154.28L98.79,153.85L96.83,152.27"/><path d="M98.29,136.32L99.02,135.90"/><path d="M103.27,133.45L102.00,134.18"/><path d="M103.57,133.27L104.11,132.96"/><path d="M110.73,160.38L110.80,160.42L188.12,108.89"/></g></g><g id="Actor_.12"><g style="stroke:#000000;stroke-width:0.705"><path d="M74.40,101.05L74.22,101.64L75.98,97.97L79.09,96.12L83.41,96.49L88.56,99.15L81.39,92.12L79.93,89.75L74.75,99.86L74.54,100.58"/></g></g><g id="Actor_.13"><g style="stroke:#000000;stroke-width:0.705"><path d="M104.57,156.93L106.18,157.70L101.62,155.79L96.83,152.27"/><path d="M103.86,156.74L106.94,158.70L110.80,160.42L112.15,156.62L112.93,155.46L110.08,157.62L106.18,157.70"/></g></g><g id="Actor_.14"><g style="stroke:#000000;stroke-width:0.705"><path d="M230.43,67.73L230.64,67.62L231.24,66.92"/><path d="M233.83,62.87L233.69,63.54L233.15,64.69L233.07,64.78"/><path d="M234.40,57.27L234.40,57.35L234.59,59.40L234.10,61.65"/><path d="M234.59,59.40L234.11,54.97L234.39,57.26"/><path d="M234.39,57.51L234.33,58.00"/><path d="M234.11,54.97L234.04,54.69L234.20,55.86"/></g></g><g id="Actor_.15"><g style="stroke:#000000;stroke-width:0.705"><path d="M110.51,129.31L110.06,128.32L113.12,137.00L114.66,144.92L114.54,151.24L112.93,155.46L118.71,148.64L121.25,145.97L111.60,131.69L110.51,129.31"/></g></g><g id="Actor_.16"><g style="stroke:#000000;stroke-width:0.705"><path d="M87.73,108.01L89.12,108.31"/><path d="M101.06,139.18L98.42,136.51L95.36,132.21L92.40,126.69L91.50,124.59L89.69,118.95L89.31,116.12"/><path d="M91.54,110.24L90.35,111.34L89.46,114.04L89.31,116.04L89.31,116.16"/><path d="M89.81,120.46L89.82,120.48"/><path d="M92.31,127.37L91.16,124.82"/><path d="M94.80,132.01L93.37,129.64"/><path d="M106.80,136.32L106.60,136.26L103.93,134.22L101.42,131.32L98.72,127.11L96.63,122.62L95.29,118.13L94.73,114.52"/><path d="M105.36,135.31L102.26,131.78L100.57,129.32L97.80,124.30L95.84,119.26L94.96,115.38L95.29,118.13"/><path d="M94.79,113.27L94.74,113.67L94.96,115.38L94.95,115.35"/><path d="M94.52,113.00L94.56,113.65L95.05,116.21"/><path d="M95.38,105.36L95.26,105.37"/><path d="M97.16,135.33L95.95,133.83"/><path d="M100.17,138.49L98.92,137.39"/><path d="M99.62,138.00L100.26,138.56"/><path d="M101.90,139.86L103.38,140.57"/><path d="M102.21,114.13L101.92,113.82"/><path d="M105.85,135.88L105.87,135.90L103.93,134.22"/><path d="M104.86,141.08L105.69,141.03"/><path d="M105.87,135.90L106.87,136.64"/><path d="M105.53,112.13L105.35,110.92"/><path d="M105.41,111.99L106.00,112.68"/><path d="M105.31,110.63L105.17,109.71L105.20,109.11"/><path d="M105.16,108.91L104.95,108.79"/><path d="M107.34,139.97L106.73,140.68"/><path d="M111.44,131.33L111.38,130.58"/><path d="M113.42,138.84L113.48,138.82"/></g></g><g id="Actor_.17"><g style="stroke:#000000;stroke-width:0.705"><path d="M80.75,130.26L80.58,130.02L79.26,127.33"/><path d="M91.34,140.32L91.29,140.35"/><path d="M91.57,101.76L91.59,101.75"/><path d="M92.71,101.23L92.51,101.32"/><path d="M98.29,136.32L99.02,135.90"/><path d="M102.00,134.18L103.27,133.45"/><path d="M103.57,133.27L104.11,132.96"/></g></g><g id="Actor_.18"><g style="stroke:#000000;stroke-width:0.705"><path d="M202.37,84.80L204.18,82.87L205.51,79.22L205.55,74.82L204.18,69.89L201.66,65.62L198.15,62.20L193.91,59.93L189.78,59.23L189.23,59.36"/><path d="M206.28,81.99L207.67,79.93L208.64,75.70L208.18,71.21L206.42,66.72L203.33,62.46L199.62,59.58L195.55,58.03L191.22,57.92L189.87,58.47"/><path d="M206.70,82.50L206.80,82.48L209.40,80.21L211.03,76.78L211.48,72.25L210.57,67.75L208.35,63.45L204.91,59.66L201.02,57.26L196.89,56.32L192.82,56.88L192.38,57.14"/><path d="M194.38,56.15L194.56,56.00L197.19,55.21"/><path d="M194.77,63.85L196.53,65.10L199.70,68.93L201.82,73.42L202.65,78.38L202.12,82.58L201.96,82.89"/><path d="M196.59,55.20L196.12,55.43L196.11,55.44"/><path d="M210.01,80.37L210.55,80.11L213.01,77.23L214.19,73.44L214.12,69.08L212.65,64.30L210.03,60.31L206.52,57.22L202.23,55.23L198.20,54.90L197.54,55.10"/><path d="M199.01,54.03L199.56,53.76L203.51,53.54L207.82,54.87L211.57,57.45L214.52,61.11L216.51,65.74L217.10,70.15L216.35,74.14L214.25,77.56L212.17,79.04"/><path d="M200.47,53.20L200.86,52.93L204.93,52.11L208.97,52.75L212.85,54.78L216.34,58.29L218.64,62.37L219.72,66.77L219.40,71.21L217.87,74.76L215.34,77.29L214.91,77.44"/><path d="M204.35,51.56L202.32,52.31L202.13,52.49"/><path d="M206.11,82.24L205.61,82.98L204.67,83.56"/><path d="M204.61,51.40L204.18,51.62"/><path d="M205.62,51.09L206.10,50.91L210.10,50.95L214.07,52.45L217.87,55.46L220.56,59.21L222.07,63.47L222.29,68.12L221.23,71.92L219.07,74.80L217.49,75.70"/><path d="M220.75,73.69L222.07,72.77L224.19,69.44L224.96,65.63L224.42,61.05L222.49,56.58L219.67,53.20L215.77,50.63L211.46,49.46L207.70,49.82L207.08,50.14"/><path d="M208.49,49.38L209.28,48.89L211.11,48.56"/><path d="M211.95,47.84L210.72,48.22L210.05,48.76"/><path d="M211.77,48.44L213.26,48.17L217.60,48.98L221.30,51.02L224.53,54.45L226.73,58.81L227.50,63.01L226.98,67.00L225.66,69.56"/><path d="M212.59,47.53L213.00,47.17L213.73,46.90"/><path d="M216.51,47.11L214.70,46.99L213.49,47.36"/><path d="M214.97,46.32L215.09,46.27"/><path d="M229.83,67.58L230.96,66.23L232.17,62.69L232.17,58.27L230.78,53.83L228.36,50.32L224.75,47.43L220.58,45.85L216.78,45.80L215.58,46.23"/><path d="M226.91,69.66L228.16,68.35L229.66,64.57L229.85,60.22L228.73,56.05L226.27,52.10L222.67,48.92L218.84,47.26L216.84,47.13"/><path d="M217.33,45.19L218.06,44.84L221.54,44.49L225.99,45.57L229.71,47.94L232.32,51.05L234.03,54.70L234.24,56.10"/><path d="M218.86,74.93L219.00,74.90L219.12,74.81"/><path d="M221.53,73.23L222.45,72.94L222.90,72.55"/><path d="M225.59,69.70L225.11,70.64L223.79,71.78"/><path d="M226.52,70.07L225.73,70.90L224.77,71.31"/><path d="M227.66,69.54L228.59,69.05L229.57,67.88"/><path d="M234.38,57.45L234.33,58.00"/><path d="M234.30,56.54L234.40,57.22L234.40,57.27"/></g></g><g id="Actor_.19"><g style="stroke:#000000;stroke-width:0.705"><path d="M168.44,52.21L180.13,55.26L182.34,56.05"/></g></g><g id="Actor_.20"><g style="stroke:#000000;stroke-width:0.705"><path d="M80.58,119.38L80.06,117.51L79.64,112.20L80.64,108.33L83.04,106.42L86.70,106.81L91.21,109.62L91.24,109.63L96.14,114.66L100.77,121.33L104.51,128.76L106.87,135.97L107.58,142.04L106.65,146.28L104.30,148.32L100.86,148.10L96.76,145.79L92.43,141.72L88.26,136.34L84.60,130.15L81.78,123.68L80.58,119.38"/><path d="M85.57,111.33L84.15,113.87L84.19,112.98L85.14,109.69L87.28,108.08L87.73,108.01L88.83,108.14"/><path d="M88.11,109.41L87.27,109.90"/><path d="M93.41,129.70L91.29,125.22L89.81,120.46L89.30,116.04L89.31,113.85L90.16,111.20L91.62,110.18"/><path d="M101.93,139.87L99.23,137.75L96.13,134.13L93.57,130.04L93.42,129.72"/><path d="M107.36,140.14L107.14,140.54L105.20,141.20L102.37,140.22L101.94,139.88"/></g></g><g id="Actor_.21"><g style="stroke:#000000;stroke-width:0.705"><path d="M80.14,90.00L86.57,97.66L88.56,99.15L100.15,104.94L104.62,106.50L193.64,61.85L184.45,56.89L182.34,56.05L171.98,52.98L168.44,52.21L79.93,89.76L80.14,90.00"/></g></g><g/><g><g/></g><g id="paperID" visibility="hidden" opacity="0.00" transform="scale(0.000100)"><path style="stroke:#000000;stroke-width:0.500;fill:#e6e6e6;fill-rule:evenodd" d="M-2000.00,-2000.00L2297.00,-2000.00L2297.00,2210.00L-2000.00,2210.00zM0.00,0.00L297.00,0.00L297.00,210.00L0.00,210.00z"/><path style="fill:#000000;fill-opacity:0.118" d="M3.00,210.00L297.00,210.00L297.00,3.00L300.00,3.00L300.00,213.00L3.00,213.00z"/></g><g id="ToolTip" visibility="hidden" opacity="0" transform="translate(0,0)"><rect id="ToolTipShadow" opacity="0.20" fill="black" stroke="none" x="0" y="0" width="30" height="8"/><rect id="ToolTipBG" fill="#ffffe1" stroke="black" x="0" y="0" width="30" height="8"/><text xml:space="preserve" id="ToolTipText" fill="black" x="0" y="0" width="30" height="8">tooltip</text></g></g></svg>
