<?xml version="1.0" encoding="UTF-8" standalone="no"?>
<svg xmlns="http://www.w3.org/2000/svg" xmlns:xlink="http://www.w3.org/1999/xlink" width="297.000mm" height="210.000mm" viewBox="0.000000 0.000000 297.000000 210.000000" stroke-linejoin="round" stroke-linecap="round" fill="none" fill-rule="evenodd"><desc>3DVIA Composer Export</desc><script type="text/ecmascript"><![CDATA[
if(typeof(top) != "undefined")
{
	top.ShowPaper = ShowPaper;
}
function ShowHotSpot(evt,hotspotid)
{
	var svgDocument = evt.target.ownerDocument;
	var strId = "hotspot."+hotspotid;
	var hotspot = svgDocument.getElementById(strId);
	if(hotspot)
		hotspot.setAttribute("opacity",".5");
}
function HideHotSpot(evt,hotspotid)
{
	var svgDocument = evt.target.ownerDocument;
	var strId = "hotspot."+hotspotid;
	var hotspot = svgDocument.getElementById(strId);
	if(hotspot)
		hotspot.setAttribute("opacity","0");

	var toolTip = svgDocument.getElementById('ToolTip');
	if(toolTip)
		toolTip.setAttribute("visibility","hidden");
}
function ShowToolTip(evt,hotspotid,strTooltip)
{
	if(strTooltip=="")
	return;

	// change text
	var svgDocument = evt.target.ownerDocument;
	var tiptext = svgDocument.getElementById('ToolTipText');
	if( !tiptext )
	return;
	tiptext.firstChild.nodeValue = " " + strTooltip + "  " ;

	// show tooltip before, else some refresh issue

	var toolTip = svgDocument.getElementById('ToolTip');
	if(!toolTip)
	return;

	toolTip.setAttribute("visibility","visible");
	toolTip.setAttribute("opacity",".95");

	// move tooltip
	// get viewbox

	var root = svgDocument.documentElement;
	var vbox = (root.getAttribute("viewBox")).split(' ');
	var x0 = parseFloat(vbox[0]);
	var y0 = parseFloat(vbox[1]);
	var vboxW = parseFloat(vbox[2]);
	var vboxH = parseFloat(vbox[3]);

	// get default width of svg

	var strW = root.getAttribute("width");
	var svgW = parseFloat(strW);
	if(strW.indexOf('mm') != -1)
	svgW *= 3.779;

	var strH = root.getAttribute("height");
	var svgH = parseFloat(strH);
	if(strH.indexOf('mm') != -1)
	svgH *= 3.779;  	// 96 dpi  -> 96/25.4 = 3.779

	// update the viewbox / width / height if svg is embedded in html with zoom fit all
	var realx0 = x0;
	var realy0 = y0;
	var realvboxW = vboxW;
	var realvboxH = vboxH;
	var realsvgW = svgW;
	var realsvgH = svgH;

	if ((typeof(top) == "undefined") || (typeof(top.svgctl1) != "undefined")) // embedded in html
	{
		// get window size in pxl

		svgW = window.innerWidth;
		svgH = window.innerHeight;

		// calculate real viewbox

		realsvgW = svgW;
		realsvgH = svgH;
		if((svgW / svgH) > (vboxW / vboxH))
		{
			realvboxW = (vboxH * svgW) / svgH;
			realvboxH = vboxH;
			realx0 = x0 - (realvboxW - vboxW)/2 ;
		}
		else
		{
			realvboxH = (vboxW * svgH) / svgW;
			realvboxW = vboxW;
			realy0 = y0 - (realvboxH - vboxH)/2 ;
		}
	}

	// get user zoom/pan

	var newScale = root.currentScale;
	var translation = root.currentTranslate;

	// transform pxl to user unit

	var xPos = (((evt.clientX+10- translation.x)/newScale) * realvboxW)/realsvgW  + realx0 ;
	var yPos = (((evt.clientY+5- translation.y)/newScale) * realvboxH)/ realsvgH  + realy0 ;
	var scaleForWidth = ( (1 / newScale) * realvboxH) / realsvgH;

	// move tooltip

	toolTip.setAttribute("transform", "translate(" + xPos + "," + yPos + ")" );

	// resize tooltip

	var fontsize = 12;
	tiptext.setAttribute("font-size",fontsize*scaleForWidth);
	tiptext.setAttribute("y", fontsize*scaleForWidth);
	var tipBG = svgDocument.getElementById('ToolTipBG');
	var outline = tiptext.getBBox();
	if(tipBG)
	{
		tipBG.setAttribute("stroke-width", 1*scaleForWidth);
		tipBG.setAttribute("width", Number(outline.width) );
		tipBG.setAttribute("height", Number(outline.height) + fontsize*.5*scaleForWidth );
	}
	var ToolTipShadow = svgDocument.getElementById('ToolTipShadow');
	if(ToolTipShadow)
	{
		ToolTipShadow.setAttribute("width", Number(outline.width) );
		ToolTipShadow.setAttribute("height", Number(outline.height) + fontsize*.5*scaleForWidth );
		ToolTipShadow.setAttribute("x", 3*scaleForWidth);
		ToolTipShadow.setAttribute("y", 3*scaleForWidth);
	}
}
function ShowPaper()
{
  var svgDocument = getDocument();
  var paper = svgDocument.getElementById("paperID");
  if(paper)
  {
    paper.setAttribute("transform","scale(1)");
    paper.setAttribute("opacity","1");
    paper.setAttribute("visibility","visible");
  }
  var svg = svgDocument.getRootElement();
  if(svg)
  {
    svg.setAttribute("width","307.000mm");
    svg.setAttribute("height","220.000mm");
    svg.setAttribute("viewBox","-5.000000 -5.000000 307.000000 220.000000");
  }
}
]]></script><defs/><g><path style="fill:#dcdcdc;fill-rule:evenodd" d="M186.29,67.41L189.11,68.88L192.47,71.69L195.30,75.28L197.58,79.92L198.86,84.03L199.63,88.91L199.63,97.98L199.12,102.34L197.83,108.24L196.03,114.14L193.39,120.74L190.14,127.24L186.98,132.55L182.58,138.68L178.58,143.41L174.73,147.26L172.96,148.83L168.20,152.55L163.18,155.74L157.53,158.30L152.59,159.78L150.01,160.02L144.70,160.02L142.37,159.78L137.79,158.20L111.36,142.79L109.30,141.25L106.21,138.18L103.89,134.33L103.25,131.53L127.24,145.43L127.77,145.47L127.75,136.74L128.19,131.52L129.21,125.62L130.31,121.07L132.88,113.37L134.95,108.50L138.28,101.83L141.90,95.69L145.11,91.20L149.60,85.68L153.96,81.05L159.10,76.70L163.62,73.51L168.49,70.68L173.62,68.63L177.47,67.60L182.43,67.08zM146.77,111.22L148.58,112.75L150.10,114.82L152.42,116.36L152.65,117.40L152.41,120.32L152.07,121.26L150.60,124.16L147.95,127.67L144.18,132.12L142.41,133.68L140.25,135.16L139.75,135.21L139.54,134.62L139.31,131.52L139.31,126.21L140.06,120.29L141.88,114.13L142.38,114.04L143.70,114.66L143.70,113.52L142.55,112.85L142.62,112.09L144.20,108.92zM149.37,118.44L149.34,118.77L148.81,118.72L146.52,117.39L146.13,117.64L145.49,117.67L144.41,116.11L144.43,115.60zM177.82,84.53L179.38,87.08L180.36,89.19L180.88,89.69L182.69,90.71L183.46,94.04L183.89,97.99L186.04,97.73L186.03,94.30L184.89,88.66L189.36,91.23L190.39,96.36L190.39,101.57L190.13,104.91L188.86,111.08L185.77,119.54L182.18,126.22L177.70,132.52L176.17,134.32L172.19,138.56L166.26,143.16L159.78,146.43L154.63,147.44L152.91,147.44L149.31,146.93L148.31,146.65L145.18,144.84L145.12,144.60L148.80,144.87L150.01,144.87L155.15,143.86L160.88,141.09L160.90,140.52L160.37,138.99L158.22,139.99L152.59,141.81L147.00,141.80L144.11,140.51L148.58,137.80L151.78,135.09L155.48,131.86L157.02,130.84L157.69,130.48L159.36,130.47L159.86,131.25L161.39,132.03L162.16,133.06L163.43,138.71L163.43,140.60L168.08,137.27L170.53,135.10L171.15,133.67L171.38,132.36L176.27,125.69L178.07,122.88L181.41,116.72L183.48,111.35L185.43,109.19L186.03,107.47L186.80,101.83L186.81,99.94L184.67,101.24L179.02,102.78L177.29,102.78L176.29,102.24L175.48,100.99L175.17,98.15L177.04,88.48L177.30,84.26zM149.47,99.43L150.49,97.87L155.39,91.98L160.36,87.71L161.82,86.60L167.46,83.26L170.40,82.24L170.37,85.14L170.11,86.68L169.01,90.20L167.21,94.81L165.16,98.93L163.08,101.21L160.55,102.53L158.29,102.53L150.60,99.95zM167.05,102.79L167.07,103.36L166.68,103.81L165.74,103.82L164.97,103.27L164.93,102.85L165.66,102.22zM164.21,104.82L164.98,105.36L163.86,105.59L161.63,106.70L159.74,108.40L158.30,110.29L156.94,113.04L156.00,117.21L155.23,116.89L155.22,115.42L156.00,113.13L157.53,110.04L159.48,107.11L161.56,104.82L162.33,104.56zM174.08,105.73L174.74,109.20L174.23,112.87L173.44,115.17L172.17,118.00L169.85,121.59L167.44,124.05L164.61,126.10L162.60,126.92L158.80,126.92L158.03,126.66L157.51,126.16L157.51,124.91L159.50,122.80L162.92,119.80L165.90,116.10L167.22,115.87L167.32,115.10L166.69,115.60L165.47,115.61L165.46,115.18L165.93,114.31L167.02,114.42L170.90,107.49L172.34,105.85L173.11,105.58zM156.81,120.73L156.80,121.08L156.42,121.51L155.19,121.54L154.88,121.34L154.97,120.02L155.48,119.94zM180.44,113.67L179.10,117.23L174.99,124.41L171.89,128.53L171.91,124.67L172.15,122.60L173.70,119.02L175.53,116.74L177.81,114.92L180.07,113.52z"/><g id="Actor_.0"><g style="stroke:#000000;stroke-width:0.353"><path d="M109.80,141.79L106.85,138.72L104.50,134.88L102.80,130.33L101.78,125.17L101.47,119.49L101.86,113.41L102.96,107.05L104.73,100.53L107.16,93.97L110.18,87.51L112.57,83.32L113.73,81.27L117.76,75.37L122.18,69.92L126.91,65.04L131.85,60.81L136.91,57.33L141.98,54.65L146.98,52.83L151.80,51.90L156.35,51.89L160.54,52.79"/><path d="M137.96,158.26L134.46,156.03L131.50,152.96L129.15,149.11L127.45,144.56L126.44,139.40L126.12,133.73L126.52,127.65L127.61,121.29L127.67,121.08L129.39,114.76L131.81,108.21L134.83,101.74L138.39,95.50L142.42,89.60L146.84,84.16L151.56,79.27L156.50,75.06L161.56,71.56L166.64,68.88L171.64,67.06L176.46,66.14L181.01,66.12L185.05,66.99L185.20,67.03L188.94,68.82"/><path d="M131.16,140.38L130.90,139.07L130.60,133.75L130.98,128.04L132.00,122.07L133.67,115.95L135.94,109.80L138.78,103.73L141.96,98.15L142.12,97.88L145.90,92.34L150.05,87.23L154.48,82.64L159.12,78.68L163.86,75.41L168.63,72.89L173.32,71.18L177.84,70.32L182.11,70.31L186.04,71.15L189.56,72.84L191.14,73.98L192.60,75.33L195.09,78.58L196.99,82.53L198.27,87.10L198.90,92.20L198.86,97.72L198.16,103.57L196.81,109.64L194.83,115.79L192.27,121.91L189.21,127.83L185.61,133.60L181.63,138.95L177.32,143.80L172.79,148.08L168.08,151.71L163.32,154.61L158.58,156.72L153.96,158.02L149.56,158.46L145.44,158.04L145.07,157.91L141.71,156.77L138.42,154.67L135.65,151.79L133.45,148.18L131.85,143.92L131.16,140.38"/><path d="M185.12,78.49L189.13,81.79L192.00,86.60L193.60,92.71L193.85,99.84L192.75,107.64L190.33,115.75L186.72,123.80L182.09,131.40L176.65,138.21L170.65,143.90L164.37,148.21L164.19,148.29L158.12,150.93L152.18,151.94L146.83,151.19L142.31,148.72"/></g><g style="stroke:#000000;stroke-width:0.705"><path d="M101.67,128.03L100.90,124.13L100.59,118.52L100.59,117.89L100.97,111.97L102.04,105.78L103.77,99.43L106.13,93.04L109.07,86.75L112.53,80.67L116.46,74.92L120.76,69.62L125.36,64.86L130.17,60.75L135.10,57.35L135.63,57.05L140.65,54.40L145.59,52.60L150.36,51.68L151.18,51.66L155.72,51.65L159.90,52.55L160.54,52.79L164.29,54.59L188.94,68.82L192.71,71.91L195.36,75.37L195.76,76.11L197.77,80.28L199.12,85.09L199.78,90.46L199.74,96.86L199.01,102.93L197.61,109.22L195.56,115.61L192.90,121.96L189.69,128.16L185.99,134.09L181.86,139.63L177.40,144.67L172.68,149.12L167.80,152.88L162.29,156.22L157.29,158.45L152.52,159.78L152.43,159.81L147.79,160.27L146.94,160.29L142.57,159.85L138.60,158.50L137.96,158.26L113.30,144.02L109.80,141.79L109.27,141.36L106.32,138.29L103.98,134.46L103.58,133.73L101.90,129.23L101.67,128.03"/><path d="M185.12,78.49L180.15,76.87L174.47,77.00L168.34,78.88L162.04,82.42L155.87,87.45L150.11,93.73L145.05,100.98L140.90,108.85L137.87,116.98L136.10,124.98L136.07,125.54L135.67,132.49L136.60,139.15L138.85,144.64L142.31,148.72"/></g></g><g id="Actor_.1"><g style="stroke:#000000;stroke-width:0.353"><path d="M142.07,148.52L138.68,144.35L136.51,138.77L135.66,132.06L136.15,124.74L136.17,124.51L138.02,116.49L141.12,108.36L145.33,100.52L150.44,93.32L156.06,87.29L156.23,87.10L162.42,82.16L168.72,78.72L174.83,76.95L180.48,76.92L185.39,78.64"/><path d="M139.22,130.85L140.73,131.72"/><path d="M149.26,113.53L151.51,114.82L152.17,115.73L152.39,116.26L152.65,117.57L152.66,118.27L152.65,118.39L152.48,119.84L152.29,120.61L151.70,122.26L151.33,123.03L150.38,124.56L150.25,124.74L147.09,128.81L144.57,131.68L142.57,133.57L141.69,134.25L140.06,135.21L139.69,135.36"/><path d="M143.86,140.48L147.17,141.87L152.22,141.93L157.75,140.23L160.33,138.90L160.00,138.71L160.30,138.77L160.76,138.67"/><path d="M160.33,138.90L161.01,141.08L155.09,143.90L149.41,145.00L144.47,144.34"/><path d="M151.51,114.82L149.46,112.91L147.48,111.13L146.12,109.96L144.72,108.82L144.27,108.47"/><path d="M149.48,119.11L146.47,117.37"/><path d="M148.00,123.45L150.25,124.74"/><path d="M183.01,82.76L186.72,86.04L189.25,90.84L190.46,96.91L190.29,103.92L188.74,111.49L185.90,119.21L181.92,126.67L177.02,133.46L171.45,139.23L165.63,143.57L165.53,143.65L159.57,146.49L153.89,147.59L148.80,146.91"/><path d="M149.39,99.46L150.20,99.79L151.06,100.13L153.03,100.83L155.49,101.64L158.57,102.59L156.33,101.29"/><path d="M153.70,133.41L159.35,136.66"/><path d="M154.21,120.99L154.19,120.83L154.44,117.63L155.34,114.23L156.83,110.83L158.82,107.64L161.19,104.89L163.79,102.72L166.44,101.28L168.99,100.66L170.92,100.87L171.28,100.91L173.16,101.99L174.52,103.86L175.19,106.14L175.25,106.37L175.34,109.39L174.76,112.72L173.55,116.15L171.79,119.46L169.60,122.46L167.10,124.94L164.45,126.76L161.83,127.79L159.39,127.98L157.29,127.31L155.66,125.83L154.60,123.62L154.21,120.99"/><path d="M154.45,120.07L154.77,120.41L154.73,120.71L154.75,121.01L154.83,121.27L154.92,121.42L155.01,121.50"/><path d="M155.48,119.95L155.31,119.95L155.13,120.03L154.95,120.18L154.77,120.41"/><path d="M155.74,118.13L154.93,116.69L154.91,116.49"/><path d="M171.57,101.91L172.98,103.22L173.99,105.44L174.33,108.24L173.99,111.44L172.98,114.82L172.54,115.75L171.39,118.14L169.31,121.19L166.89,123.74L164.29,125.64L161.69,126.75L159.26,126.99L157.18,126.34L155.72,124.99"/><path d="M156.67,120.62L156.53,120.59L156.36,120.62L156.18,120.72L156.02,120.88L155.87,121.08L155.77,121.30L155.72,121.53L155.72,121.71L155.77,121.89L155.87,122.00"/><path d="M156.86,118.78L156.05,117.34L155.82,115.35L156.20,113.05L157.15,110.68L158.55,108.49L160.27,106.72L162.12,105.57L163.88,105.15L165.38,105.53"/><path d="M157.02,121.09L158.42,120.95L160.30,120.15L162.19,118.78L162.75,118.19"/><path d="M157.37,117.55L157.15,117.16L156.94,115.38L157.28,113.31L158.13,111.17L159.40,109.20L160.95,107.61L162.61,106.57L164.20,106.20L165.55,106.54L166.51,107.54L166.99,109.10L166.92,111.06L166.31,113.19L165.24,115.27L163.81,117.08L162.21,118.40L160.54,119.12L159.05,119.14L158.42,118.89L157.88,118.46L157.37,117.55"/><path d="M157.75,130.52L159.87,131.74"/><path d="M164.29,95.24L166.53,96.54L165.70,98.14L165.23,98.85L164.12,100.22L163.55,100.79L162.29,101.77L161.68,102.12L160.41,102.60L159.84,102.70L158.70,102.62L158.57,102.59"/><path d="M161.27,98.69L158.26,96.95"/><path d="M160.59,130.62L161.38,131.31L161.67,131.75L161.96,132.48L159.72,131.19"/><path d="M160.00,138.71L161.05,138.02"/><path d="M161.96,132.48L162.88,135.82L163.35,138.15L163.45,139.66L163.39,140.19L163.08,140.92L162.90,141.09"/><path d="M164.26,104.88L162.76,104.51L161.60,104.78"/><path d="M164.64,102.52L165.04,102.62L164.97,102.77L164.90,103.00L164.90,103.22L164.95,103.40L165.06,103.51"/><path d="M165.04,102.62L165.27,102.44L165.52,102.31L165.75,102.25L165.83,102.24L165.95,102.24L166.10,102.28"/><path d="M166.97,114.68L166.83,114.64L166.78,114.65L166.66,114.67L166.49,114.77L166.32,114.93L166.18,115.13L166.07,115.36L166.02,115.58L166.02,115.78L166.07,115.94L166.18,116.05"/><path d="M167.15,110.50L167.34,109.86L167.59,107.54L167.34,105.50L166.76,104.22"/><path d="M166.18,104.15L166.07,104.05L166.02,103.87L166.02,103.69L166.07,103.46L166.18,103.24L166.32,103.04L166.49,102.88L166.66,102.78L166.73,102.76L166.83,102.74L166.97,102.78"/><path d="M170.47,82.22L170.50,82.38L170.51,84.11L170.18,86.28L169.57,88.62L168.25,92.37L166.53,96.54"/><path d="M166.22,83.88L167.82,84.81"/><path d="M171.16,101.67L169.92,101.29"/><path d="M183.36,111.33L181.41,116.62L177.44,124.08L172.53,130.88L171.45,132.02"/><path d="M171.76,128.65L174.81,124.75L178.83,117.80L180.68,113.19"/><path d="M177.42,101.38L175.30,100.15"/><path d="M175.76,95.20L181.41,98.45"/><path d="M176.50,102.36L177.43,102.82L177.94,102.91L179.09,102.81L176.85,101.52"/><path d="M180.51,81.92L182.24,83.45L184.77,88.25L185.98,94.32L186.07,97.68L183.84,98.18L183.70,95.29L182.41,89.65L179.83,85.30L176.97,83.13"/><path d="M179.09,102.81L182.03,102.05L184.42,101.29L185.69,100.72L186.57,100.11L186.97,99.52L187.02,99.29"/><path d="M183.43,99.24L183.50,97.99L183.84,98.18"/><path d="M183.50,97.99L183.83,98.47"/><path d="M185.91,108.00L185.91,107.98"/></g><g style="stroke:#000000;stroke-width:0.705"><path d="M146.96,145.84L147.36,146.07L144.57,144.46L141.42,140.39L139.54,134.92L139.02,128.34L139.89,121.00L142.10,113.30L145.53,105.66L150.00,98.49L155.27,92.16L161.07,87.03L167.03,83.38L172.89,81.40L178.31,81.19L183.01,82.76"/><path d="M139.36,132.57L140.16,132.16L141.41,131.19L142.88,129.75L144.40,128.04L144.80,127.56L148.00,123.45L148.13,123.27L149.08,121.73L149.45,120.96L150.05,119.31L150.24,118.54L150.42,116.97L150.40,116.28L150.15,114.97L149.93,114.44L149.26,113.53L147.62,111.99L145.60,110.16L144.09,108.87"/><path d="M139.59,123.51L140.73,122.85L142.77,121.26L144.64,119.44L146.47,117.37"/><path d="M143.39,149.28L142.07,148.52"/><path d="M142.79,148.93L146.53,151.09L151.84,151.94L157.75,151.04L163.99,148.42L170.27,144.20L176.30,138.59L181.78,131.84L186.47,124.28L190.15,116.24L192.64,108.12L193.82,100.29L193.80,99.29L193.65,93.12L192.13,86.94L189.33,82.03L185.39,78.64"/><path d="M141.88,140.99L142.20,140.96L142.79,140.84L144.40,140.30L146.17,139.41L148.02,138.19L150.79,136.00L153.66,133.45L154.78,132.40L156.05,131.37L156.66,130.99L157.94,130.44L158.52,130.30L159.67,130.29L160.16,130.42L160.59,130.62"/><path d="M141.96,113.79L143.83,114.87L143.50,111.96L143.96,109.15"/><path d="M143.83,114.87L143.86,115.13L145.16,117.44L145.97,117.93"/><path d="M160.89,135.75L155.51,138.93L149.98,140.63L144.92,140.58L144.33,140.33"/><path d="M147.36,146.07L148.80,146.91"/><path d="M149.67,114.08L149.32,116.85L149.51,119.53L149.68,120.33"/><path d="M167.86,83.10L167.92,83.45L167.81,85.05L167.73,85.48L167.07,88.02L165.68,91.90L165.23,93.00L164.29,95.24L163.46,96.84L162.99,97.56L161.88,98.93L161.31,99.49L160.05,100.47L159.44,100.82L158.17,101.30L157.59,101.40L156.46,101.33L156.33,101.29L152.81,100.20L151.33,99.71L149.62,99.10"/><path d="M149.67,99.12L150.62,98.14L153.57,96.30L156.39,95.64L158.53,96.17"/><path d="M155.12,95.94L153.10,94.77"/><path d="M155.76,125.07L154.81,123.08"/><path d="M154.82,123.13L154.42,120.45L154.65,117.48L155.52,114.17L156.97,110.87L158.90,107.79L159.07,107.60L161.20,105.11L163.72,103.00"/><path d="M155.01,121.50L155.87,122.00L156.20,122.10L156.40,122.09L156.68,121.98L156.84,121.86L156.96,121.71L157.03,121.52L157.06,121.33L157.01,121.03L156.92,120.85L156.82,120.76L156.67,120.62L155.48,119.95"/><path d="M155.94,131.46L158.78,133.12L155.92,131.47"/><path d="M155.74,118.13L156.94,118.83"/><path d="M156.86,118.78L157.64,119.23L157.32,119.05"/><path d="M156.50,118.57L156.59,118.62"/><path d="M162.43,98.25L161.65,98.50L159.23,99.68L157.02,101.36"/><path d="M158.78,133.12L160.00,133.82"/><path d="M165.24,115.51L165.35,115.38L166.00,114.12L166.97,114.68L167.12,114.81L167.22,114.91L167.31,115.09L167.36,115.38L167.34,115.57L167.26,115.76L167.14,115.92L166.98,116.03L166.70,116.14L166.50,116.15L166.18,116.05L165.24,115.51L163.83,117.30L162.10,118.71L161.97,118.79L160.18,119.57L158.32,119.59L158.17,119.53L157.64,119.23"/><path d="M158.26,96.95L158.92,95.02L159.74,91.97L160.13,89.29L160.18,88.19L160.16,87.82"/><path d="M159.92,133.77L160.52,134.12"/><path d="M160.76,138.67L161.03,138.25L161.11,137.49L161.00,136.34L160.73,134.95L160.64,134.56L159.72,131.19L159.43,130.46L159.32,130.29"/><path d="M186.07,97.68L186.66,98.29L186.87,98.63L187.02,99.29L186.85,100.76L186.37,105.54L185.84,108.37L185.31,109.41L184.85,109.98L183.41,111.30L181.03,112.98L177.38,115.20L176.12,116.12L175.55,116.66L174.41,117.99L173.92,118.68L173.02,120.26L172.68,121.03L172.14,122.68L171.97,123.45L171.83,124.98L171.76,128.57L171.52,131.62L171.20,133.34L170.71,134.72L170.11,135.58L167.97,137.42L164.07,140.23L162.90,141.09L162.27,141.31L161.97,141.30L161.01,141.08"/><path d="M160.30,138.77L160.95,138.38L160.30,138.77"/><path d="M160.68,138.69L160.80,138.61"/><path d="M166.00,114.12L166.49,113.16L167.13,110.89L167.20,108.64L166.69,106.93L166.59,106.75L165.52,105.63L165.38,105.53L164.26,104.88"/><path d="M168.62,101.10L166.17,101.69L163.66,103.05"/><path d="M165.06,103.51L166.18,104.15L166.50,104.25L166.70,104.25L166.98,104.14L167.14,104.02L167.26,103.86L167.34,103.68L167.36,103.49L167.31,103.19L167.22,103.01L166.97,102.78L166.10,102.28"/><path d="M168.48,101.14L170.63,101.36L172.41,102.39"/><path d="M168.18,101.21L168.70,101.16"/><path d="M177.00,115.47L176.59,116.51L172.57,123.46L171.89,124.33"/><path d="M176.50,102.36L176.13,102.02L175.54,101.05L175.35,100.50L175.15,99.14L175.16,98.43L175.39,96.83L175.78,95.13L176.41,92.16L177.03,88.22L177.19,85.55L177.16,84.44L176.88,82.55L176.71,81.92L176.44,81.26"/><path d="M175.88,101.60L176.85,101.52L178.45,101.12L179.22,100.91L181.73,100.13L183.09,99.52L183.27,99.40L183.78,98.90L183.83,98.47"/><path d="M175.21,98.12L178.20,99.83L175.21,98.09"/><path d="M177.03,83.59L177.59,84.01L180.16,88.36L181.46,94.00L181.39,100.24"/><path d="M179.78,100.74L178.20,99.83L178.75,100.15"/></g></g><g id="paperID" visibility="hidden" opacity="0.00" transform="scale(0.000100)"><path style="stroke:#000000;stroke-width:0.500;fill:#e6e6e6;fill-rule:evenodd" d="M-2000.00,-2000.00L2297.00,-2000.00L2297.00,2210.00L-2000.00,2210.00zM0.00,0.00L297.00,0.00L297.00,210.00L0.00,210.00z"/><path style="fill:#000000;fill-opacity:0.118" d="M3.00,210.00L297.00,210.00L297.00,3.00L300.00,3.00L300.00,213.00L3.00,213.00z"/></g><g id="ToolTip" visibility="hidden" opacity="0" transform="translate(0,0)"><rect id="ToolTipShadow" opacity="0.20" fill="black" stroke="none" x="0" y="0" width="30" height="8"/><rect id="ToolTipBG" fill="#ffffe1" stroke="black" x="0" y="0" width="30" height="8"/><text xml:space="preserve" id="ToolTipText" fill="black" x="0" y="0" width="30" height="8">tooltip</text></g></g></svg>
