<?xml version="1.0" encoding="UTF-8" standalone="no"?>
<svg xmlns="http://www.w3.org/2000/svg" xmlns:xlink="http://www.w3.org/1999/xlink" width="297.000mm" height="210.000mm" viewBox="0.000000 0.000000 297.000000 210.000000" stroke-linejoin="round" stroke-linecap="round" fill="none" fill-rule="evenodd"><desc>3DVIA Composer Export</desc><script type="text/ecmascript"><![CDATA[
if(typeof(top) != "undefined")
{
	top.ShowPaper = ShowPaper;
}
function ShowHotSpot(evt,hotspotid)
{
	var svgDocument = evt.target.ownerDocument;
	var strId = "hotspot."+hotspotid;
	var hotspot = svgDocument.getElementById(strId);
	if(hotspot)
		hotspot.setAttribute("opacity",".5");
}
function HideHotSpot(evt,hotspotid)
{
	var svgDocument = evt.target.ownerDocument;
	var strId = "hotspot."+hotspotid;
	var hotspot = svgDocument.getElementById(strId);
	if(hotspot)
		hotspot.setAttribute("opacity","0");

	var toolTip = svgDocument.getElementById('ToolTip');
	if(toolTip)
		toolTip.setAttribute("visibility","hidden");
}
function ShowToolTip(evt,hotspotid,strTooltip)
{
	if(strTooltip=="")
	return;

	// change text
	var svgDocument = evt.target.ownerDocument;
	var tiptext = svgDocument.getElementById('ToolTipText');
	if( !tiptext )
	return;
	tiptext.firstChild.nodeValue = " " + strTooltip + "  " ;

	// show tooltip before, else some refresh issue

	var toolTip = svgDocument.getElementById('ToolTip');
	if(!toolTip)
	return;

	toolTip.setAttribute("visibility","visible");
	toolTip.setAttribute("opacity",".95");

	// move tooltip
	// get viewbox

	var root = svgDocument.documentElement;
	var vbox = (root.getAttribute("viewBox")).split(' ');
	var x0 = parseFloat(vbox[0]);
	var y0 = parseFloat(vbox[1]);
	var vboxW = parseFloat(vbox[2]);
	var vboxH = parseFloat(vbox[3]);

	// get default width of svg

	var strW = root.getAttribute("width");
	var svgW = parseFloat(strW);
	if(strW.indexOf('mm') != -1)
	svgW *= 3.779;

	var strH = root.getAttribute("height");
	var svgH = parseFloat(strH);
	if(strH.indexOf('mm') != -1)
	svgH *= 3.779;  	// 96 dpi  -> 96/25.4 = 3.779

	// update the viewbox / width / height if svg is embedded in html with zoom fit all
	var realx0 = x0;
	var realy0 = y0;
	var realvboxW = vboxW;
	var realvboxH = vboxH;
	var realsvgW = svgW;
	var realsvgH = svgH;

	if ((typeof(top) == "undefined") || (typeof(top.svgctl1) != "undefined")) // embedded in html
	{
		// get window size in pxl

		svgW = window.innerWidth;
		svgH = window.innerHeight;

		// calculate real viewbox

		realsvgW = svgW;
		realsvgH = svgH;
		if((svgW / svgH) > (vboxW / vboxH))
		{
			realvboxW = (vboxH * svgW) / svgH;
			realvboxH = vboxH;
			realx0 = x0 - (realvboxW - vboxW)/2 ;
		}
		else
		{
			realvboxH = (vboxW * svgH) / svgW;
			realvboxW = vboxW;
			realy0 = y0 - (realvboxH - vboxH)/2 ;
		}
	}

	// get user zoom/pan

	var newScale = root.currentScale;
	var translation = root.currentTranslate;

	// transform pxl to user unit

	var xPos = (((evt.clientX+10- translation.x)/newScale) * realvboxW)/realsvgW  + realx0 ;
	var yPos = (((evt.clientY+5- translation.y)/newScale) * realvboxH)/ realsvgH  + realy0 ;
	var scaleForWidth = ( (1 / newScale) * realvboxH) / realsvgH;

	// move tooltip

	toolTip.setAttribute("transform", "translate(" + xPos + "," + yPos + ")" );

	// resize tooltip

	var fontsize = 12;
	tiptext.setAttribute("font-size",fontsize*scaleForWidth);
	tiptext.setAttribute("y", fontsize*scaleForWidth);
	var tipBG = svgDocument.getElementById('ToolTipBG');
	var outline = tiptext.getBBox();
	if(tipBG)
	{
		tipBG.setAttribute("stroke-width", 1*scaleForWidth);
		tipBG.setAttribute("width", Number(outline.width) );
		tipBG.setAttribute("height", Number(outline.height) + fontsize*.5*scaleForWidth );
	}
	var ToolTipShadow = svgDocument.getElementById('ToolTipShadow');
	if(ToolTipShadow)
	{
		ToolTipShadow.setAttribute("width", Number(outline.width) );
		ToolTipShadow.setAttribute("height", Number(outline.height) + fontsize*.5*scaleForWidth );
		ToolTipShadow.setAttribute("x", 3*scaleForWidth);
		ToolTipShadow.setAttribute("y", 3*scaleForWidth);
	}
}
function ShowPaper()
{
  var svgDocument = getDocument();
  var paper = svgDocument.getElementById("paperID");
  if(paper)
  {
    paper.setAttribute("transform","scale(1)");
    paper.setAttribute("opacity","1");
    paper.setAttribute("visibility","visible");
  }
  var svg = svgDocument.getRootElement();
  if(svg)
  {
    svg.setAttribute("width","307.000mm");
    svg.setAttribute("height","220.000mm");
    svg.setAttribute("viewBox","-5.000000 -5.000000 307.000000 220.000000");
  }
}
]]></script><defs/><g><path style="fill:#dcdcdc;fill-rule:evenodd" d="M200.93,27.80L200.92,30.20L193.90,87.37L79.90,156.94L79.24,156.97L62.80,84.30L62.80,82.82L71.03,68.72L197.36,22.15zM206.83,101.33L204.42,101.48L202.13,102.37L202.18,101.04L202.63,100.46L204.17,99.69L205.20,99.43L207.10,99.44zM198.97,106.02L198.61,107.69L196.46,107.90L195.28,108.51L194.99,108.21L194.99,107.21L195.69,106.36L196.71,105.84L198.87,105.84zM185.01,113.90L186.45,112.78L187.49,112.53L189.13,112.52L188.86,114.41L186.19,114.83L185.40,115.35L185.01,115.38zM178.86,118.27L179.51,117.39L181.58,116.63L183.23,116.64L182.96,118.53L180.29,118.94L179.12,119.81L178.82,119.51zM169.62,123.93L169.34,124.42L165.15,124.59L163.87,124.85L161.04,125.88L158.97,127.39L157.52,129.56L157.52,127.74L158.20,126.36L159.51,124.85L161.04,123.82L163.88,122.80L164.90,122.54L169.61,122.53zM152.92,139.57L151.03,139.74L149.32,140.33L147.78,141.65L147.76,139.80L148.98,138.46L149.75,137.94L150.78,137.69L152.92,137.67zM145.22,144.97L142.04,145.38L140.22,146.94L139.75,147.04L139.81,145.45L140.35,144.46L141.53,143.59L143.59,142.82L145.22,142.81zM131.10,154.90L127.67,155.39L125.72,156.78L125.18,157.79L124.95,157.75L124.92,155.72L125.98,154.21L127.92,153.08L128.96,152.83L130.85,152.82zM117.50,163.45L116.19,163.34L113.55,163.86L111.49,164.89L109.78,166.77L109.01,168.57L108.74,168.00L108.74,166.24L109.52,164.46L110.73,163.10L111.75,162.32L113.54,161.54L114.84,161.30L117.50,161.29zM110.97,187.47L116.14,187.25L225.19,104.02L225.49,103.75L225.83,103.79L225.58,105.44L116.36,189.52L111.06,189.55zM197.86,28.30L198.13,28.55L198.11,30.22L197.58,31.49L196.47,32.68L195.27,32.68L195.00,32.19L195.00,29.93L195.94,28.04zM186.80,43.99L188.88,46.01L189.91,47.80L190.92,50.13L191.67,53.75L193.50,54.48L193.47,61.01L193.21,62.81L191.92,68.19L189.62,74.36L186.54,80.01L182.47,85.43L179.12,88.50L176.02,90.53L172.61,92.00L170.80,92.24L169.34,92.24L167.78,92.01L166.00,91.23L164.23,89.92L162.41,87.11L161.63,85.33L160.87,81.21L160.87,75.39L161.57,70.95L163.10,65.29L165.66,59.39L168.98,53.97L171.17,51.29L172.70,49.48L174.73,47.66L177.81,45.35L181.39,43.79L182.61,43.47L186.04,43.46zM118.52,74.78L121.34,75.82L123.94,77.84L125.98,80.41L128.03,84.27L129.82,85.30L130.31,86.61L131.09,89.94L131.35,94.90L130.83,99.52L129.73,103.80L128.26,107.98L126.99,110.81L124.41,115.17L122.61,117.74L120.57,120.31L118.54,122.39L115.20,125.47L110.99,128.45L105.34,131.27L101.56,132.37L98.41,132.81L94.90,132.81L92.08,132.29L90.03,130.75L87.71,129.98L84.90,128.43L82.86,125.85L81.28,123.06L80.25,119.98L79.75,117.40L79.41,112.27L80.18,106.62L81.28,102.59L83.09,97.98L85.80,92.99L87.99,89.79L90.04,87.22L92.61,84.39L95.92,81.55L98.42,79.68L103.62,76.66L108.16,75.04L110.73,74.54L115.43,74.28zM76.14,76.61L76.69,77.88L76.43,79.77L75.39,81.55L73.52,82.76L71.00,82.77L69.73,81.73L69.21,80.18L69.21,79.24L69.73,77.69L70.93,76.07L72.46,75.29L74.12,75.29z"/><g id="Actor_.0"><g style="stroke:#000000;stroke-width:0.353"><path d="M60.56,81.82L62.55,83.22L79.79,159.48"/><path d="M62.55,83.22L70.90,68.77L68.83,67.50"/><path d="M70.69,82.68L71.81,83.03L73.03,82.95L74.24,82.46L75.30,81.61L76.10,80.49L76.57,79.23L76.64,77.95L76.32,76.78L75.63,75.86"/><path d="M70.90,68.77L197.42,22.14"/><path d="M77.57,155.62L110.77,187.49L115.83,187.49L116.10,189.72"/><path d="M79.29,157.28L193.98,87.34"/><path d="M121.45,75.81L124.08,77.34L126.33,79.33L128.18,81.73L129.61,84.46L130.61,87.49L131.19,90.76L131.35,94.19L131.10,97.77L130.45,101.37L129.41,105.01L128.02,108.61L126.28,112.13L124.22,115.52L121.88,118.73L119.28,121.72L116.45,124.45L113.43,126.87L110.26,128.94L106.98,130.62L103.64,131.88L100.30,132.68L96.99,132.98L93.79,132.77L90.76,132.03L87.96,130.75L85.45,128.92"/><path d="M108.74,168.18L108.62,166.60L109.11,165.02L110.21,163.54L111.67,162.40L113.51,161.58L115.51,161.19L117.52,161.24L119.36,161.75L120.88,162.67L121.95,163.92L122.46,165.40"/><path d="M111.08,189.72L110.77,187.49"/><path d="M115.83,187.49L226.01,103.45"/><path d="M124.80,157.53L124.72,156.30L125.18,155.09L126.13,154.05L127.46,153.27L129.02,152.84L130.66,152.79L132.21,153.13L133.49,153.83L134.39,154.81L134.79,155.99"/><path d="M149.23,145.73L148.77,144.66L147.86,143.76L146.59,143.12L145.09,142.81L143.53,142.85L142.06,143.25L140.84,143.96L140.00,144.92L139.63,146.01"/><path d="M156.87,141.36L156.89,140.29L156.41,139.27L155.49,138.41L154.23,137.81L152.76,137.51L151.23,137.55L149.81,137.93L148.65,138.61L147.86,139.52L147.54,140.56"/><path d="M157.26,129.57L157.39,128.01L158.02,126.53L159.12,125.20L160.62,124.08L162.47,123.21L164.57,122.62L166.83,122.34L169.16,122.38L171.46,122.74L173.63,123.40L175.58,124.34L177.22,125.51L178.48,126.89L179.28,128.39L179.58,129.97"/><path d="M186.37,43.55L188.19,44.27L189.77,45.43L191.11,47.00L192.17,48.93L192.96,51.18L193.46,53.70L193.68,56.43L193.61,59.34L193.27,62.36L192.67,65.45L191.83,68.56L190.75,71.65L189.46,74.66L187.98,77.56L186.33,80.31L184.53,82.87L182.61,85.19L180.60,87.24L178.52,88.99L176.41,90.40L174.29,91.45L172.20,92.11L170.18,92.36L168.26,92.18L166.48,91.57"/><path d="M178.68,119.08L178.83,118.24L179.42,117.50L180.38,116.95L181.61,116.64L182.98,116.61L184.34,116.85L185.56,117.34L186.50,118.04L187.06,118.86L187.17,119.73"/><path d="M184.79,114.87L184.91,114.06L185.46,113.35L186.39,112.83L187.58,112.53L188.92,112.50L190.26,112.73L191.47,113.20L192.41,113.87L192.98,114.66L193.12,115.49"/><path d="M194.98,107.14L195.48,106.49L196.34,106.00L197.47,105.72L198.76,105.69L200.07,105.91L201.25,106.35L202.19,106.97L202.78,107.70L202.96,108.47"/><path d="M197.40,27.09L197.85,27.34L198.15,27.88L198.28,28.65L198.22,29.55L197.98,30.50L197.59,31.40L197.08,32.14L196.52,32.65L196.24,32.80L195.96,32.88L195.46,32.80"/><path d="M212.19,103.39L212.28,102.55L211.92,101.69L211.15,100.91L209.99,100.21L208.63,99.72L207.13,99.44L205.64,99.41L204.27,99.62L203.15,100.07L202.37,100.71L202.01,101.48"/></g><g style="stroke:#000000;stroke-width:0.705"><path d="M61.22,84.70L60.56,81.82L68.83,67.50L195.26,21.56L197.42,22.14L201.13,28.17L193.98,87.34L225.16,101.50L226.01,103.45L225.59,105.43L116.10,189.72L111.08,189.72L79.79,159.48L79.23,158.85L78.68,158.08L78.19,157.23L77.81,156.38L77.57,155.62L61.22,84.70"/><path d="M70.69,82.68L69.81,81.94L69.26,80.89L69.12,79.63L69.38,78.30L70.04,77.06L71.02,76.05L72.20,75.37L73.45,75.11L74.64,75.28L75.63,75.86"/><path d="M74.05,75.19L74.27,75.49L74.60,76.65L74.53,77.92L74.07,79.17L73.27,80.28L72.22,81.12L71.02,81.60L69.79,81.67L69.65,81.63"/><path d="M85.45,128.92L83.30,126.58L81.57,123.73L80.32,120.43L79.58,116.74L79.40,112.72L79.80,108.47L80.77,104.08L82.30,99.66L84.36,95.32L86.91,91.17L89.87,87.30L93.18,83.82L96.73,80.81L100.46,78.33L104.26,76.41L108.04,75.10L111.72,74.40L115.22,74.30L118.49,74.78L121.45,75.81"/><path d="M120.98,75.64L122.02,76.25L124.28,78.24L126.14,80.63L127.59,83.37L128.61,86.39L129.21,89.64L129.39,93.06L129.15,96.60L128.51,100.21L127.50,103.83L126.11,107.41L124.39,110.91L122.35,114.28L120.01,117.46L117.42,120.43L114.60,123.13L111.59,125.53L108.43,127.57L105.15,129.23L101.81,130.46L98.47,131.24L95.16,131.52L91.96,131.29L88.93,130.54L86.12,129.24L84.98,128.41"/><path d="M122.46,165.40L122.36,167.00L121.89,168.03L121.65,168.56L120.39,169.94L118.67,171.02L116.66,171.68L114.54,171.87L112.54,171.56L111.38,171.05L110.78,170.79L110.07,170.24L109.48,169.62L108.74,168.18"/><path d="M108.97,168.63L109.40,167.23L110.44,165.78L111.94,164.61L113.76,163.79L115.75,163.39L117.75,163.44L119.57,163.95L121.08,164.87L122.14,166.13L122.37,166.81"/><path d="M134.79,155.99L134.65,157.22L133.97,158.39L132.82,159.35L131.33,160.00L129.65,160.26L127.99,160.10L126.53,159.55L125.92,159.14L125.42,158.65L124.80,157.53"/><path d="M134.59,157.31L134.49,157.00L133.60,156.01L132.32,155.31L130.79,154.97L129.16,155.02L127.61,155.46L126.29,156.24L125.35,157.28L125.07,158.01"/><path d="M148.95,147.25L148.77,146.82L147.87,145.92L146.60,145.28L145.12,144.96L143.56,145.01L142.11,145.41L140.89,146.12L140.05,147.08L139.95,147.39"/><path d="M149.23,145.73L149.17,146.86L148.59,147.92L147.55,148.80L146.16,149.39L144.58,149.63L142.99,149.49L141.55,148.98L140.95,148.60L140.45,148.16L139.78,147.13L139.63,146.01"/><path d="M147.54,140.56L147.73,141.63L148.41,142.60L148.91,143.02L149.52,143.38L150.93,143.86L152.49,144.00L154.03,143.77L155.36,143.21L156.34,142.37L156.87,141.36"/><path d="M156.59,141.90L156.36,141.41L155.46,140.57L154.19,139.94L152.73,139.65L151.21,139.69L149.80,140.07L148.65,140.75L147.86,141.66L147.83,141.77"/><path d="M179.58,129.97L179.36,131.54L178.62,133.04L177.37,134.37L175.68,135.49L173.62,136.32L171.29,136.81L168.82,136.95L166.32,136.72L163.93,136.14L161.78,135.23L160.82,134.68L159.96,134.06L158.57,132.67L157.66,131.15L157.26,129.57"/><path d="M157.37,130.01L157.96,128.62L159.05,127.29L160.55,126.16L162.38,125.29L164.47,124.70L166.72,124.42L169.03,124.46L171.32,124.82L173.47,125.48L175.41,126.42L177.06,127.62L178.29,128.98L179.09,130.50L179.31,131.66"/><path d="M166.48,91.57L164.87,90.51L163.48,89.02L162.34,87.10L161.47,84.79L160.90,82.12L160.67,79.12L160.77,75.87L161.22,72.42L162.01,68.85L163.14,65.24L164.57,61.67L166.29,58.23L168.25,55.00L170.39,52.06L172.68,49.47L175.06,47.28L177.47,45.55L179.85,44.30L182.14,43.56L183.30,43.43L184.35,43.31L186.37,43.55"/><path d="M165.52,90.94L166.38,91.24L168.31,91.43L170.34,91.19L172.43,90.54L174.55,89.50L176.67,88.10L178.75,86.37L180.76,84.33L182.68,82.02L184.46,79.49L184.82,78.90L186.11,76.75L187.58,73.86L188.86,70.86L189.92,67.79L190.75,64.69L191.34,61.61L191.66,58.60L191.71,55.71L191.47,52.98L190.96,50.47L190.15,48.23L189.07,46.30L187.72,44.73L186.12,43.57L185.94,43.50"/><path d="M187.17,119.73L186.83,120.55L186.05,121.22L184.92,121.68L183.58,121.86L182.14,121.75L180.82,121.36L180.24,121.07L179.72,120.74L178.98,119.95L178.68,119.08"/><path d="M186.67,120.69L186.27,120.10L185.34,119.40L184.13,118.90L182.78,118.66L181.42,118.69L180.19,119.00L179.24,119.55L178.97,119.89"/><path d="M193.12,115.49L192.80,116.27L192.06,116.92L190.98,117.35L189.66,117.53L188.27,117.42L186.96,117.05L186.37,116.77L185.86,116.45L185.11,115.69L184.79,114.87"/><path d="M192.56,116.48L192.15,115.91L191.22,115.24L190.02,114.76L188.69,114.53L187.36,114.56L186.16,114.86L185.25,115.39L185.08,115.61"/><path d="M194.98,107.14L194.91,107.90L195.26,108.66L196.02,109.36L196.53,109.66L197.10,109.91L198.38,110.26L199.73,110.36L200.99,110.20L202.01,109.79L202.69,109.19L202.96,108.47"/><path d="M194.84,31.64L194.98,31.52L195.48,30.78L195.87,29.89L196.11,28.94L196.16,28.04L196.11,27.73"/><path d="M195.46,32.80L195.08,32.41L194.85,31.76L194.81,30.91L194.95,29.96L195.27,29.01L195.74,28.16L196.29,27.52L196.86,27.15L197.40,27.09"/><path d="M202.32,109.52L201.87,108.95L200.96,108.35L199.75,107.90L198.48,107.69L197.20,107.72L196.07,108.00L195.19,108.52"/><path d="M212.19,103.39L211.65,104.13L210.69,104.70L209.58,105.01L209.40,105.05L207.91,105.15L206.35,104.99L204.86,104.58L203.58,103.95L202.64,103.18L202.10,102.33L202.01,101.48"/><path d="M202.23,102.55L202.85,102.03L203.97,101.58L205.33,101.37L206.82,101.40L208.31,101.68L209.67,102.18L210.79,102.86L211.57,103.66L211.72,104.02"/></g></g><g><g/></g><g/><g id="paperID" visibility="hidden" opacity="0.00" transform="scale(0.000100)"><path style="stroke:#000000;stroke-width:0.500;fill:#e6e6e6;fill-rule:evenodd" d="M-2000.00,-2000.00L2297.00,-2000.00L2297.00,2210.00L-2000.00,2210.00zM0.00,0.00L297.00,0.00L297.00,210.00L0.00,210.00z"/><path style="fill:#000000;fill-opacity:0.118" d="M3.00,210.00L297.00,210.00L297.00,3.00L300.00,3.00L300.00,213.00L3.00,213.00z"/></g><g id="ToolTip" visibility="hidden" opacity="0" transform="translate(0,0)"><rect id="ToolTipShadow" opacity="0.20" fill="black" stroke="none" x="0" y="0" width="30" height="8"/><rect id="ToolTipBG" fill="#ffffe1" stroke="black" x="0" y="0" width="30" height="8"/><text xml:space="preserve" id="ToolTipText" fill="black" x="0" y="0" width="30" height="8">tooltip</text></g></g></svg>
