<?xml version="1.0" encoding="UTF-8" standalone="no"?>
<svg xmlns="http://www.w3.org/2000/svg" xmlns:xlink="http://www.w3.org/1999/xlink" width="297.000mm" height="210.000mm" viewBox="0.000000 0.000000 297.000000 210.000000" stroke-linejoin="round" stroke-linecap="round" fill="none" fill-rule="evenodd"><desc>3DVIA Composer Export</desc><script type="text/ecmascript"><![CDATA[
if(typeof(top) != "undefined")
{
	top.ShowPaper = ShowPaper;
}
function ShowHotSpot(evt,hotspotid)
{
	var svgDocument = evt.target.ownerDocument;
	var strId = "hotspot."+hotspotid;
	var hotspot = svgDocument.getElementById(strId);
	if(hotspot)
		hotspot.setAttribute("opacity",".5");
}
function HideHotSpot(evt,hotspotid)
{
	var svgDocument = evt.target.ownerDocument;
	var strId = "hotspot."+hotspotid;
	var hotspot = svgDocument.getElementById(strId);
	if(hotspot)
		hotspot.setAttribute("opacity","0");

	var toolTip = svgDocument.getElementById('ToolTip');
	if(toolTip)
		toolTip.setAttribute("visibility","hidden");
}
function ShowToolTip(evt,hotspotid,strTooltip)
{
	if(strTooltip=="")
	return;

	// change text
	var svgDocument = evt.target.ownerDocument;
	var tiptext = svgDocument.getElementById('ToolTipText');
	if( !tiptext )
	return;
	tiptext.firstChild.nodeValue = " " + strTooltip + "  " ;

	// show tooltip before, else some refresh issue

	var toolTip = svgDocument.getElementById('ToolTip');
	if(!toolTip)
	return;

	toolTip.setAttribute("visibility","visible");
	toolTip.setAttribute("opacity",".95");

	// move tooltip
	// get viewbox

	var root = svgDocument.documentElement;
	var vbox = (root.getAttribute("viewBox")).split(' ');
	var x0 = parseFloat(vbox[0]);
	var y0 = parseFloat(vbox[1]);
	var vboxW = parseFloat(vbox[2]);
	var vboxH = parseFloat(vbox[3]);

	// get default width of svg

	var strW = root.getAttribute("width");
	var svgW = parseFloat(strW);
	if(strW.indexOf('mm') != -1)
	svgW *= 3.779;

	var strH = root.getAttribute("height");
	var svgH = parseFloat(strH);
	if(strH.indexOf('mm') != -1)
	svgH *= 3.779;  	// 96 dpi  -> 96/25.4 = 3.779

	// update the viewbox / width / height if svg is embedded in html with zoom fit all
	var realx0 = x0;
	var realy0 = y0;
	var realvboxW = vboxW;
	var realvboxH = vboxH;
	var realsvgW = svgW;
	var realsvgH = svgH;

	if ((typeof(top) == "undefined") || (typeof(top.svgctl1) != "undefined")) // embedded in html
	{
		// get window size in pxl

		svgW = window.innerWidth;
		svgH = window.innerHeight;

		// calculate real viewbox

		realsvgW = svgW;
		realsvgH = svgH;
		if((svgW / svgH) > (vboxW / vboxH))
		{
			realvboxW = (vboxH * svgW) / svgH;
			realvboxH = vboxH;
			realx0 = x0 - (realvboxW - vboxW)/2 ;
		}
		else
		{
			realvboxH = (vboxW * svgH) / svgW;
			realvboxW = vboxW;
			realy0 = y0 - (realvboxH - vboxH)/2 ;
		}
	}

	// get user zoom/pan

	var newScale = root.currentScale;
	var translation = root.currentTranslate;

	// transform pxl to user unit

	var xPos = (((evt.clientX+10- translation.x)/newScale) * realvboxW)/realsvgW  + realx0 ;
	var yPos = (((evt.clientY+5- translation.y)/newScale) * realvboxH)/ realsvgH  + realy0 ;
	var scaleForWidth = ( (1 / newScale) * realvboxH) / realsvgH;

	// move tooltip

	toolTip.setAttribute("transform", "translate(" + xPos + "," + yPos + ")" );

	// resize tooltip

	var fontsize = 12;
	tiptext.setAttribute("font-size",fontsize*scaleForWidth);
	tiptext.setAttribute("y", fontsize*scaleForWidth);
	var tipBG = svgDocument.getElementById('ToolTipBG');
	var outline = tiptext.getBBox();
	if(tipBG)
	{
		tipBG.setAttribute("stroke-width", 1*scaleForWidth);
		tipBG.setAttribute("width", Number(outline.width) );
		tipBG.setAttribute("height", Number(outline.height) + fontsize*.5*scaleForWidth );
	}
	var ToolTipShadow = svgDocument.getElementById('ToolTipShadow');
	if(ToolTipShadow)
	{
		ToolTipShadow.setAttribute("width", Number(outline.width) );
		ToolTipShadow.setAttribute("height", Number(outline.height) + fontsize*.5*scaleForWidth );
		ToolTipShadow.setAttribute("x", 3*scaleForWidth);
		ToolTipShadow.setAttribute("y", 3*scaleForWidth);
	}
}
function ShowPaper()
{
  var svgDocument = getDocument();
  var paper = svgDocument.getElementById("paperID");
  if(paper)
  {
    paper.setAttribute("transform","scale(1)");
    paper.setAttribute("opacity","1");
    paper.setAttribute("visibility","visible");
  }
  var svg = svgDocument.getRootElement();
  if(svg)
  {
    svg.setAttribute("width","307.000mm");
    svg.setAttribute("height","220.000mm");
    svg.setAttribute("viewBox","-5.000000 -5.000000 307.000000 220.000000");
  }
}
]]></script><defs/><g><path style="fill:#dcdcdc;fill-rule:evenodd" d="M190.64,57.58L186.72,58.10L184.23,59.22L181.15,61.27L178.83,63.31L175.78,66.68L172.45,71.57L170.11,75.90L167.79,81.79L166.52,87.19L166.00,91.30L166.00,94.56L166.52,97.89L185.54,107.88L196.31,113.36L196.57,112.89L198.02,105.60L199.89,99.51L202.72,92.84L206.08,86.45L209.79,80.92L212.49,77.72L214.54,75.41L216.21,74.00L219.06,71.96L221.61,70.67L222.91,70.43L224.80,70.42L225.56,70.68L227.36,72.47L228.38,75.06L228.90,77.36L228.90,82.32L228.64,84.37L227.61,89.25L225.81,94.63L224.20,98.41L221.46,103.88L217.60,109.78L213.91,114.30L211.59,116.35L209.02,118.40L206.31,119.80L203.66,120.48L202.20,120.48L200.14,119.98L180.90,109.68L180.04,109.69L167.98,117.67L167.13,118.09L167.06,116.61L163.18,114.29L162.84,114.30L161.90,114.92L161.90,116.63L165.78,118.77L165.92,117.63L166.24,117.61L167.13,118.09L167.05,118.29L151.31,128.69L151.89,129.98L152.92,133.05L153.40,138.43L153.17,141.87L152.14,147.01L150.34,152.40L148.04,157.28L145.46,161.89L141.62,167.55L138.02,171.91L135.48,174.50L132.01,177.71L127.23,181.40L121.74,184.63L117.16,186.47L112.78,187.49L107.73,187.48L106.17,187.25L103.88,186.46L101.59,185.15L98.75,182.58L98.49,181.32L98.22,180.82L97.72,177.99L97.72,171.91L98.67,166.44L100.54,160.61L102.34,156.51L103.88,153.43L106.34,149.21L108.91,145.36L111.74,141.77L115.07,137.92L118.94,134.09L123.39,130.58L128.78,126.98L134.35,124.34L139.99,122.80L144.19,122.56L112.10,102.00L110.05,101.22L107.47,100.72L102.52,100.72L98.40,101.48L95.34,102.52L90.70,104.57L85.84,107.66L81.98,110.73L78.23,114.43L74.13,119.57L71.17,124.31L69.23,128.27L67.35,133.59L66.40,138.54L66.40,144.87L66.90,147.96L68.18,151.30L70.02,154.09L79.78,163.99L78.89,164.38L77.70,165.23L76.05,166.67L75.01,168.20L74.34,169.84L74.36,171.05L76.42,173.10L77.89,173.12L80.78,171.65L82.23,170.03L83.09,168.83L83.53,167.96L84.11,167.94L87.21,171.04L74.77,179.26L74.04,179.36L55.86,110.23L55.79,108.93L201.62,42.65L201.94,42.68L201.94,44.07L199.90,60.27L199.65,60.74L191.67,57.85zM197.85,48.58L200.18,49.60L199.89,51.77L198.35,54.85L197.23,55.78L195.53,55.79L195.00,54.53L195.01,53.05L195.52,50.99L196.83,48.71L197.58,48.11zM221.21,77.86L221.80,78.29L219.56,78.62L219.07,78.92L218.28,78.99L218.55,77.07L219.13,77.07zM226.61,78.66L226.63,78.96L224.81,81.31L223.18,78.87L223.75,78.86L224.54,79.22L225.45,78.13zM221.47,80.42L222.23,81.71L222.99,85.31L224.02,85.83L224.02,88.48L223.51,91.04L221.70,96.44L220.64,96.38L220.33,96.17L221.71,91.56L221.97,90.02L221.97,86.60L221.46,85.05L220.43,84.03L219.93,83.76L218.54,83.77L217.77,84.06L217.27,84.06L217.83,81.00L218.05,80.71L219.30,80.17L220.95,80.17zM227.10,82.49L227.10,84.88L226.85,86.42L225.75,91.24L223.66,96.88L222.99,96.90L222.39,96.68L224.53,89.76L225.05,86.42L225.32,82.59L225.84,81.97zM219.16,86.07L220.68,86.85L218.78,89.44L218.41,89.42L217.38,88.92L216.48,89.00L217.01,85.83L218.65,85.28zM216.84,91.98L217.89,92.47L217.86,94.13L216.83,97.21L215.29,99.77L212.92,102.02L211.45,101.99L210.94,101.48L210.92,98.48L212.13,95.07L214.21,92.01L216.00,90.66L216.30,90.70zM204.91,93.02L207.74,87.85L211.46,82.33L215.43,78.09L217.11,76.85L216.59,80.27L215.72,80.95L212.88,83.75L209.53,88.37L206.80,93.37zM210.05,94.04L212.23,90.30L214.17,87.87L215.32,87.11L214.79,90.29L213.64,91.44L211.68,94.39zM220.94,91.56L220.68,92.84L219.66,95.92L218.26,95.92L219.13,91.03L220.62,89.11L220.93,89.14zM205.52,96.07L204.76,98.23L203.40,103.29L202.97,108.53L202.46,108.45L201.95,108.13L201.95,109.70L203.25,110.44L201.16,113.38L200.91,112.53L200.64,108.52L201.17,104.39L202.63,98.67L203.67,95.84zM210.42,97.13L209.60,101.31L209.34,101.51L209.59,101.74L207.61,104.69L207.59,101.31L208.60,97.45L208.80,96.87L209.92,96.85zM218.36,98.65L217.08,101.05L215.21,103.54L213.76,105.19L213.75,103.62L214.01,102.34L215.21,100.97L216.99,98.37L217.88,98.39zM220.44,98.93L220.48,99.24L219.58,100.98L216.49,105.59L214.29,108.27L211.72,110.58L208.81,112.03L206.55,112.03L205.56,111.48L205.02,110.70L205.02,110.07L206.71,107.90L208.61,108.70L209.56,108.69L211.86,107.89L215.33,104.68L218.29,100.20L219.27,98.66zM222.47,99.42L220.35,103.54L217.26,108.16L213.90,112.25L212.22,113.66L212.21,112.35L212.47,111.07L215.55,107.99L218.55,103.80L220.85,99.68L221.12,99.17L221.99,99.16zM212.22,103.78L211.98,106.47L210.61,107.15L209.11,107.15L208.09,106.34L208.10,105.97L209.84,103.53zM205.52,104.52L205.19,104.55L205.19,105.42L206.35,106.10L206.34,106.45L204.54,108.78L204.23,108.47L204.25,104.14L204.76,101.31L206.05,96.95L208.39,91.84L211.33,87.09L213.65,84.26L215.74,82.18L216.05,82.20L216.06,83.60L215.74,85.08L213.39,87.60L210.85,90.96L208.10,96.43L206.81,100.79L206.33,104.90zM69.74,109.45L71.54,110.72L72.31,112.26L72.30,114.15L71.71,116.12L70.25,118.26L68.46,119.80L65.81,120.75L63.82,120.75L62.57,119.95L61.03,118.67L60.73,118.19L60.75,115.17L61.18,113.81L62.57,111.86L64.34,110.29L66.05,109.43L67.35,109.19L68.97,109.18zM172.16,113.04L172.16,114.43L171.66,114.35L171.14,114.04L170.88,115.20L170.37,115.13L166.96,113.04L167.29,111.58L168.34,110.99zM205.78,113.57L208.04,113.57L210.70,112.53L210.41,115.17L207.01,116.91L203.99,116.90L202.73,116.10L201.95,115.35L201.95,114.15L203.50,112.26zM167.06,116.61L167.13,118.09L166.24,117.61L165.92,117.63L165.78,118.77L161.90,116.63L161.90,114.92L162.84,114.30L163.18,114.29zM159.84,118.94L161.66,120.21L161.64,121.37L160.53,121.22L160.39,122.36L156.43,120.05L156.43,118.44L157.19,117.90L158.06,117.90zM156.01,123.80L155.98,125.22L155.52,125.10L155.20,124.80L154.89,124.81L154.70,125.99L154.23,125.88L150.78,123.64L150.78,122.03L152.17,121.26zM142.40,128.94L144.44,129.73L146.76,131.37L143.95,135.00L143.41,135.15L140.30,133.29L140.29,133.69L136.15,133.58L133.06,134.35L128.78,136.25L128.42,132.27L132.88,130.06L136.92,128.96L139.55,128.68zM147.80,134.06L149.32,135.37L150.09,137.94L150.09,144.44L149.57,147.01L148.32,151.65L148.05,151.90L145.46,152.41L145.45,151.35L146.25,148.81L146.75,145.47L146.75,141.79L145.98,138.71L145.18,137.17L145.21,136.51L147.52,133.59zM140.09,135.87L141.12,136.39L142.16,137.65L142.91,139.21L144.46,140.24L145.21,143.08L145.21,146.75L144.95,148.29L143.86,152.59L142.30,152.83L140.75,152.84L141.62,149.06L141.62,146.16L141.38,144.60L140.36,142.53L138.54,140.77L137.22,139.96L136.96,139.97L136.95,140.36L134.35,140.25L132.02,140.75L129.73,141.81L128.96,141.90L128.96,137.94L133.32,136.14L135.37,135.63L138.54,135.63zM125.73,138.03L122.80,140.51L118.66,144.59L116.10,147.68L113.15,151.91L110.31,157.29L109.72,157.73L107.90,157.96L106.08,157.96L109.19,151.80L112.24,147.16L114.81,143.82L118.41,139.97L121.25,137.17L125.46,134.09zM125.97,140.74L125.98,144.21L122.79,146.93L121.10,148.83L118.15,152.80L116.34,156.13L114.91,159.58L114.15,163.18L114.14,166.96L114.41,167.98L114.40,169.49L115.70,170.56L115.73,171.14L112.76,174.93L112.29,175.00L110.80,173.12L110.03,171.07L109.79,169.51L109.78,164.98L110.80,160.61L112.61,155.99L115.10,151.55L117.13,148.70L119.69,145.62L123.57,141.79L125.60,140.24zM137.54,143.04L134.71,146.80L134.17,146.96L133.11,146.12L132.82,146.12L133.16,146.67L131.78,146.92L130.25,147.46L129.47,147.55L129.30,146.41L129.21,143.85L132.29,142.55L133.58,142.31L135.98,142.29zM139.57,145.38L140.07,147.44L140.08,149.83L139.50,152.59L139.00,153.38L136.12,153.68L136.23,149.49L135.89,148.43L138.67,144.86zM126.49,149.59L125.72,150.37L123.93,152.43L121.51,155.91L117.97,156.50L117.97,156.01L120.71,151.52L123.80,147.93L126.23,145.89zM134.21,150.22L134.69,151.28L134.69,153.42L134.10,155.40L132.81,157.97L130.84,160.62L129.19,162.05L127.28,163.22L126.14,163.62L124.14,163.63L122.87,162.59L122.30,162.39L122.08,161.84L122.09,158.54L123.57,155.14L125.21,152.94L126.12,151.79L128.78,149.83L129.98,149.23L131.01,148.98L132.65,148.96zM130.31,162.69L132.37,160.61L134.85,156.93L138.01,156.39L137.43,157.71L134.33,162.31L132.92,163.98L130.58,166.03zM120.31,163.37L120.54,163.85L120.58,164.72L117.64,168.76L117.25,168.76L116.47,167.45L115.94,165.42L115.95,162.41L116.45,159.83L120.32,159.24zM127.78,168.08L126.36,168.97L124.15,169.85L122.02,170.28L120.57,170.28L119.71,169.24L122.25,165.90L125.97,165.50L127.18,164.85L127.50,164.87zM107.98,164.97L107.73,168.06L107.73,169.77L108.23,172.87L109.28,175.41L110.60,176.67L110.84,177.29L107.63,181.34L107.24,181.34L105.16,179.02L104.12,177.24L103.35,174.41L103.10,170.12L103.81,164.90L104.57,161.82L107.39,161.30L108.78,161.30zM122.55,172.10L125.87,170.80L129.19,168.72L131.76,166.67L134.17,164.21L136.22,161.63L139.05,157.02L139.49,156.18L142.40,155.64L142.43,155.97L142.04,156.68L139.56,161.12L135.71,166.26L132.27,169.75L127.50,173.45L122.88,175.76L119.47,176.71L116.98,176.70L115.70,175.67L114.81,175.41L117.41,172.09zM143.85,160.79L140.33,166.00L135.61,171.55L131.50,175.44L131.02,175.53L131.10,172.17L133.81,169.75L136.23,167.29L139.81,162.66L142.82,157.71L144.08,155.38L146.80,154.91zM128.53,177.60L127.01,178.61L122.54,181.07L119.02,182.42L115.86,183.12L113.38,183.12L112.37,182.08L110.27,181.84L110.29,181.17L112.78,178.22L114.14,178.51L119.21,178.51L122.37,177.56L126.98,175.25L127.95,174.60L128.27,174.63z"/><g id="Actor_.0"><g style="stroke:#000000;stroke-width:0.353"><path d="M156.35,118.50L160.42,120.96L161.53,121.59L161.75,121.44"/><path d="M160.37,122.46L160.42,120.96L161.72,120.11"/><path d="M161.53,121.59L161.52,121.84"/></g><g style="stroke:#000000;stroke-width:0.705"><path d="M156.32,119.99L160.37,122.46L161.52,121.84L161.74,121.69L161.75,121.44L161.72,120.11L157.66,117.67"/></g></g><g id="Actor_.1"><g style="stroke:#000000;stroke-width:0.353"><path d="M161.79,115.04L165.86,117.41L166.94,118.03L167.14,117.89"/><path d="M165.78,118.89L165.86,117.41L167.11,116.59"/><path d="M166.94,118.03L166.92,118.28"/></g><g style="stroke:#000000;stroke-width:0.705"><path d="M163.05,114.24L167.11,116.59L167.14,117.89L167.13,118.14L166.92,118.28L165.78,118.89L161.74,116.51"/></g></g><g id="Actor_.2"><g style="stroke:#000000;stroke-width:0.353"><path d="M223.61,69.72L222.31,69.58L220.88,69.75L219.33,70.23L217.68,71.03L215.95,72.14L214.15,73.55L212.33,75.26L210.49,77.23L208.67,79.45L206.89,81.88L205.18,84.49L203.61,87.19L202.07,90.11L200.71,93.04L199.51,95.98L198.49,98.90L197.65,101.75L197.01,104.50L196.56,107.11L196.32,109.55L196.29,111.79L196.45,113.80L196.80,115.56L197.33,117.07L198.03,118.30L198.88,119.25L199.88,119.92"/><path d="M199.07,114.23L198.92,113.40L198.79,111.51L198.84,109.40L199.09,107.11L199.52,104.66L200.14,102.08L200.94,99.41L201.91,96.67L203.04,93.91L204.31,91.18L205.72,88.49L207.23,85.91L208.83,83.46L210.50,81.17L212.20,79.09L213.91,77.23L215.62,75.62L217.30,74.28L218.91,73.23L220.46,72.46L221.90,71.99L223.24,71.81L224.45,71.93L225.53,72.32L226.46,72.99L227.23,73.91L227.85,75.06L228.31,76.44L228.60,78.01L228.74,79.76L228.72,81.66L228.54,83.69L228.21,85.83L227.74,88.06L227.13,90.36L226.40,92.69L225.54,95.05L224.57,97.40L223.51,99.74L222.34,102.03L221.10,104.26L219.79,106.40L218.42,108.45L217.00,110.38L215.54,112.17L214.06,113.81L212.58,115.28L211.10,116.56L209.63,117.64L208.20,118.50L206.82,119.14L205.50,119.53L204.25,119.68L203.10,119.57L202.06,119.19L201.13,118.55L200.35,117.65L199.71,116.48L199.23,115.06L199.07,114.23"/><path d="M201.01,120.31L201.03,120.31"/><path d="M201.08,113.45L203.33,110.41L203.01,108.26L203.07,105.65L203.52,102.69L204.35,99.46L205.55,96.09"/><path d="M201.91,109.69L203.33,110.41"/><path d="M203.75,116.85L205.17,117.16L206.78,116.98L208.54,116.32L210.39,115.23L210.92,112.28"/><path d="M205.99,113.62L204.76,112.96L203.82,111.73"/><path d="M205.10,105.38L206.53,106.08L204.30,109.10"/><path d="M204.90,93.09L206.70,93.47L208.42,90.16L210.35,87.08L212.41,84.33L214.53,82.02L216.61,80.24L217.25,76.66"/><path d="M205.20,92.79L206.70,93.47"/><path d="M220.59,98.94L219.22,101.54L217.70,103.99L216.08,106.22L214.41,108.17L212.71,109.80L211.05,111.04L209.46,111.87L207.99,112.23L206.70,112.12"/><path d="M207.80,108.38L206.99,107.43"/><path d="M206.53,106.08L206.37,104.20L206.57,101.92L207.13,99.37L208.04,96.65L209.24,93.91L210.69,91.27L212.31,88.88L214.01,86.84L215.72,85.26L216.34,81.77"/><path d="M208.28,101.10L209.71,101.78L207.49,104.78"/><path d="M209.04,114.54L210.39,115.23"/><path d="M210.53,105.94L211.92,106.61L210.68,107.16L209.57,107.27L208.65,106.93"/><path d="M210.75,103.68L210.15,103.16"/><path d="M209.71,101.78L209.72,100.40L209.99,98.79L210.51,97.03"/><path d="M209.95,94.15L211.63,94.50L212.63,92.82L213.72,91.35L214.85,90.18L215.45,86.76"/><path d="M210.17,93.84L211.63,94.50"/><path d="M217.26,90.64L217.82,91.31L218.03,92.46L217.90,93.99L217.42,95.73L216.66,97.54L215.68,99.23L214.58,100.66L213.45,101.69L212.40,102.22L211.54,102.19"/><path d="M222.60,99.32L221.06,102.30L219.38,105.15L217.58,107.80L215.70,110.22L213.77,112.34L211.84,114.13"/><path d="M211.92,106.61L212.48,103.49"/><path d="M213.39,105.54L214.76,104.18L216.10,102.52L217.37,100.62L218.51,98.55"/><path d="M213.38,89.54L214.85,90.18"/><path d="M214.23,84.63L215.72,85.26"/><path d="M215.10,79.62L216.61,80.24"/><path d="M218.06,89.13L217.30,88.93L216.36,89.16"/><path d="M217.25,84.26L218.73,83.74L219.99,83.79"/><path d="M218.09,95.86L219.58,96.17L218.19,95.55"/><path d="M218.61,89.74L220.76,86.84L220.16,85.89L219.31,85.37"/><path d="M218.16,79.25L220.00,78.52L221.63,78.40L222.97,78.88"/><path d="M219.58,96.17L220.34,94.01L220.86,91.92L221.12,90.00L221.10,88.32"/><path d="M219.31,86.23L220.76,86.84"/><path d="M220.22,96.30L221.65,96.61L222.66,93.91L223.44,91.26L223.95,88.74L224.19,86.41L224.13,84.35L223.77,82.62L223.11,81.29L222.17,80.41"/><path d="M220.32,96.01L221.65,96.61"/><path d="M222.37,96.46L223.64,97.02L222.26,96.73"/><path d="M223.64,97.02L224.85,93.95L225.83,90.90L226.57,87.93L227.03,85.12L227.21,82.52L227.10,80.19"/><path d="M224.71,81.49L226.81,78.66L226.16,76.96L225.21,75.69L223.97,74.89"/><path d="M225.35,78.08L226.81,78.66"/></g><g style="stroke:#000000;stroke-width:0.705"><path d="M166.92,99.34L166.39,97.72L165.96,94.84L165.92,91.61L166.28,88.09L167.04,84.37L168.20,80.55L169.71,76.73L171.55,73.03L173.67,69.54L175.99,66.37L178.47,63.59L181.02,61.29L183.58,59.52L186.08,58.30L188.45,57.67L190.64,57.61L192.60,58.12L223.61,69.72L224.76,70.16L225.19,70.42L226.17,71.14L227.30,72.49L227.94,73.72L228.55,75.58L228.86,77.21L228.99,79.03L228.97,81.01L228.78,83.12L228.40,85.60L227.92,87.88L227.31,90.21L226.56,92.59L225.63,95.12L224.70,97.39L223.61,99.77L222.42,102.10L221.45,103.85L221.16,104.37L219.82,106.56L218.42,108.64L216.98,110.61L215.50,112.43L213.99,114.10L212.26,115.82L210.72,117.15L209.20,118.27L207.72,119.17L206.28,119.83L205.88,119.99L204.48,120.41L203.17,120.57L202.70,120.58L201.47,120.47L199.88,119.92L171.43,104.61L169.75,103.63L168.32,102.15L167.19,100.17L166.92,99.34"/><path d="M201.08,113.45L200.67,111.32L200.60,108.78L200.87,105.87L201.49,102.67L202.46,99.27L203.74,95.75L205.55,96.09"/><path d="M203.93,95.78L202.88,98.76L202.06,101.98L201.62,104.94L201.57,107.54L201.91,109.69L200.68,111.35"/><path d="M203.75,116.85L202.54,116.05L201.60,114.75L203.82,111.73"/><path d="M202.81,116.23L203.80,116.44L205.42,116.27L207.18,115.62L209.04,114.54L209.28,113.17"/><path d="M203.42,112.28L204.60,112.91L205.99,113.62L207.46,113.71L209.12,113.25L210.92,112.28"/><path d="M206.70,112.12L205.61,111.51L204.79,110.43L206.99,107.43"/><path d="M204.30,109.10L204.03,107.17L204.09,104.86L204.49,102.24L205.21,99.40L206.25,96.43L207.56,93.44L209.09,90.54L210.81,87.83L212.63,85.41L214.50,83.37L216.34,81.77"/><path d="M214.44,83.43L214.23,84.63L212.52,86.20L210.82,88.23L209.21,90.61L207.77,93.24L206.57,95.98L205.67,98.68L205.12,101.23L204.93,103.50L205.10,105.38L204.04,106.81"/><path d="M204.90,93.09L206.65,89.62L208.61,86.33L210.71,83.31L212.89,80.64L215.09,78.41L217.25,76.66"/><path d="M216.35,103.32L214.72,105.56L213.04,107.51L211.34,109.13L209.67,110.36L208.08,111.18L206.61,111.53L205.56,111.44"/><path d="M215.35,78.21L215.10,79.62L213.01,81.39L210.90,83.69L208.84,86.42L206.91,89.49L205.20,92.79L205.07,92.76"/><path d="M220.59,98.94L219.15,98.67L217.83,101.09L216.35,103.31L214.79,105.25L213.20,106.83L211.64,107.98L210.18,108.64L208.88,108.78L207.80,108.38L206.70,107.83"/><path d="M208.65,106.93L207.95,106.14L210.15,103.16"/><path d="M208.33,106.57L209.28,106.48L210.53,105.94L210.92,103.70"/><path d="M207.49,104.78L207.38,103.14L207.57,101.19L208.05,99.02L208.82,96.71L210.51,97.03"/><path d="M208.95,96.74L208.54,98.12L208.28,99.73L208.28,101.10L207.47,102.19"/><path d="M210.02,103.33L210.75,103.68L211.54,103.79L212.48,103.49"/><path d="M215.45,86.76L214.00,88.13L212.55,89.87L211.18,91.91L209.95,94.15"/><path d="M213.52,88.71L213.38,89.54L212.25,90.70L211.16,92.17L210.17,93.84L210.12,93.83"/><path d="M211.54,102.19L210.94,101.59L210.68,100.48L210.79,98.95L211.25,97.16L212.03,95.28L213.05,93.52L214.20,92.05L215.36,91.02L216.42,90.54L217.26,90.64"/><path d="M216.30,90.59L216.38,90.68L216.60,91.83L216.47,93.35L216.00,95.10L215.24,96.90L214.27,98.58L213.17,100.01L212.04,101.03L210.99,101.55L210.93,101.55"/><path d="M211.84,114.13L212.37,111.19L214.27,109.39L216.16,107.21L217.97,104.72L219.67,101.97L221.21,99.06L222.60,99.32"/><path d="M216.69,106.48L216.23,107.15L214.35,109.56L212.42,111.67L212.25,111.83"/><path d="M213.39,105.54L213.96,102.43L215.03,101.27L216.07,99.86L217.01,98.26L218.51,98.55"/><path d="M215.86,100.15L214.71,101.87L213.87,102.91"/><path d="M216.36,89.16L216.98,85.75L218.24,85.32L219.31,85.37"/><path d="M218.61,89.74L218.06,89.13L216.61,88.51L216.49,88.48"/><path d="M218.75,85.35L219.31,86.23L217.37,88.84"/><path d="M217.25,84.26L217.88,80.78L219.51,80.13L220.96,80.01L222.17,80.41"/><path d="M217.45,83.13L218.52,83.18L219.99,83.79L220.99,84.41L221.67,85.54L222.02,87.13L222.04,89.09L221.73,91.34L221.11,93.78L220.22,96.30"/><path d="M218.09,95.86L218.62,94.17L218.92,92.58L218.97,91.20L221.10,88.32"/><path d="M219.55,90.42L219.44,91.30L218.93,93.38L218.30,95.19"/><path d="M218.16,79.25L218.80,75.69L220.73,74.88L222.47,74.62L223.97,74.89"/><path d="M224.71,81.49L224.01,79.93L222.97,78.88L221.49,78.29L220.13,77.81L218.50,77.92L218.39,77.96"/><path d="M221.17,93.54L221.26,93.30L222.03,90.66L222.54,88.14L222.76,85.82L222.69,83.76L222.31,82.03L221.64,80.70L220.91,80.02"/><path d="M222.26,96.73L223.41,93.71L224.17,91.15L224.06,91.51"/><path d="M223.14,74.74L223.72,75.11L224.68,76.38L225.35,78.08L223.99,79.91"/><path d="M225.78,81.98L225.61,84.54L225.16,87.35L224.44,90.30L224.17,91.15L224.28,90.74L224.86,87.91L225.11,85.30L225.02,83.00L227.10,80.19"/></g></g><g id="Actor_.3"><g style="stroke:#000000;stroke-width:0.353"><path d="M150.71,122.10L154.78,124.65L154.75,126.16"/><path d="M156.15,125.13L155.92,125.28L154.78,124.65L156.13,123.77"/><path d="M155.92,125.28L155.92,125.53"/></g><g style="stroke:#000000;stroke-width:0.705"><path d="M152.06,121.23L156.13,123.77L156.15,125.13L156.14,125.38L155.92,125.53L154.75,126.16L150.70,123.59"/></g></g><g id="Actor_.4"><g style="stroke:#000000;stroke-width:0.353"><path d="M100.26,184.09L98.75,182.34L97.55,180.21L96.68,177.72L96.17,174.91L96.04,171.80L96.29,168.42L96.94,164.83L97.98,161.07L99.40,157.21L101.18,153.30L103.30,149.41L105.55,145.86L105.72,145.59L108.41,141.91L111.31,138.42L114.39,135.17L117.59,132.22L120.86,129.60L124.15,127.34L127.41,125.47L130.60,124.00L133.67,122.93L136.59,122.28L139.33,122.02L141.86,122.15L144.16,122.67L146.20,123.53"/><path d="M100.15,177.70L99.68,175.00L99.59,172.08L99.85,168.91L100.48,165.55L101.47,162.04L102.81,158.42L104.49,154.76L106.16,151.70L106.48,151.11L108.74,147.53L111.25,144.08L113.97,140.80L116.84,137.75L119.82,134.96L122.87,132.48L125.94,130.34L128.99,128.55L131.97,127.14L134.85,126.10L137.59,125.45L140.16,125.17L142.53,125.26L144.69,125.70L146.61,126.48L148.28,127.57L149.70,128.96L150.85,130.62L151.74,132.52L152.36,134.63L152.72,136.94L152.81,139.41L152.65,142.02L152.24,144.74L151.59,147.55L150.71,150.42L149.61,153.34L148.30,156.27L146.79,159.19L145.10,162.08L143.23,164.92L141.21,167.68L139.04,170.34L136.74,172.88L134.34,175.27L131.84,177.50L129.27,179.54L126.66,181.37L124.01,182.96L121.36,184.30L118.73,185.35L116.16,186.12L113.66,186.56L111.26,186.68L109.01,186.46L106.93,185.88L105.04,184.94L103.40,183.64L102.01,181.98L100.91,179.98L100.15,177.70"/><path d="M124.15,137.01L125.73,138.17L121.99,141.18L118.42,144.78L115.16,148.85L112.37,153.19L110.15,157.65L105.91,158.29"/><path d="M107.51,181.55L110.98,177.11L109.22,175.13L108.07,172.44L107.61,169.12L107.88,165.28L108.88,161.07"/><path d="M127.09,176.44L128.49,177.66L125.06,179.85L121.62,181.56L118.24,182.72L115.00,183.30L111.99,183.25L109.29,182.53"/><path d="M108.62,156.35L110.15,157.65"/><path d="M109.54,175.79L110.98,177.11"/><path d="M112.48,175.20L115.92,170.81L114.46,169.52"/><path d="M113.72,102.69L113.70,102.68"/><path d="M114.20,176.24L116.53,176.84L119.16,176.79L122.00,176.12L124.97,174.89L127.98,173.13L130.94,170.91L133.78,168.31L136.43,165.40L138.83,162.25L140.92,158.95L142.65,155.57"/><path d="M115.92,170.81L114.66,168.98L114.01,166.53L114.02,163.57L114.70,160.22L116.04,156.67L117.96,153.09L120.38,149.67L123.15,146.59L126.14,144.01L124.58,142.83"/><path d="M117.41,168.91L120.82,164.55L120.18,163.14L120.01,161.33L120.33,159.21"/><path d="M117.70,156.53L121.57,155.95L122.94,153.64L124.63,151.50L126.53,149.66L126.26,145.74"/><path d="M127.59,164.71L127.83,168.18L125.42,169.46L123.09,170.22L120.94,170.41L119.06,170.02"/><path d="M119.35,163.30L120.82,164.55"/><path d="M120.06,154.72L121.57,155.95"/><path d="M133.44,149.23L134.42,150.32L134.81,151.97L134.59,154.03L133.78,156.30L132.47,158.57L130.77,160.64L128.83,162.33L126.83,163.46L124.96,163.92L123.40,163.65"/><path d="M125.01,148.48L126.53,149.66"/><path d="M125.43,133.98L125.73,138.17"/><path d="M126.39,166.97L127.83,168.18"/><path d="M126.14,144.01L125.85,139.96"/><path d="M128.49,177.66L128.27,174.43"/><path d="M144.74,129.84L146.84,131.33L143.68,135.36L141.51,134.06L138.85,133.47L135.75,133.63L132.31,134.58L128.64,136.31"/><path d="M137.69,143.01L134.43,147.18L132.98,146.84L131.25,147.03L129.34,147.77"/><path d="M129.00,142.13L131.96,140.80L134.69,140.21L137.08,140.34L139.04,141.18"/><path d="M146.96,154.87L145.06,158.70L142.81,162.48L140.23,166.13L137.38,169.60L134.30,172.82L131.03,175.72"/><path d="M138.14,156.31L136.65,159.04L134.83,161.67L132.74,164.11L130.46,166.25"/><path d="M132.91,146.04L134.43,147.18"/><path d="M136.06,153.79L139.33,153.30L137.85,152.18"/><path d="M139.33,153.30L139.97,150.67L140.14,148.25L139.84,146.12L139.07,144.38"/><path d="M142.19,137.04L143.70,138.67L144.72,140.80L145.23,143.34L145.25,146.21L144.77,149.34L143.83,152.63L140.72,153.09"/><path d="M142.36,151.54L143.83,152.63"/><path d="M142.13,134.30L143.68,135.36"/><path d="M145.15,152.43L148.13,151.99L149.31,148.22L150.04,144.59L150.30,141.16L150.07,138.01L149.34,135.20L148.10,132.81"/><path d="M146.84,131.33L145.28,130.29"/><path d="M146.67,150.93L148.13,151.99"/></g><g style="stroke:#000000;stroke-width:0.705"><path d="M66.77,147.29L66.19,143.61L66.28,139.12L67.12,134.36L68.70,129.46L70.98,124.57L73.90,119.82L77.36,115.38L78.28,114.44L81.28,111.36L85.50,107.87L89.91,105.02L94.38,102.84L98.79,101.39L103.01,100.67L106.96,100.67L110.54,101.36L113.70,102.68L146.20,123.53L147.97,124.72L148.40,125.13L149.89,126.62L151.11,128.39L152.27,130.91L152.91,133.14L153.28,135.57L153.38,138.61L153.21,141.32L152.78,144.14L152.11,147.05L151.20,150.02L150.06,153.03L148.70,156.06L147.15,159.08L145.39,162.06L143.90,164.34L143.46,165.00L141.37,167.85L139.13,170.60L136.76,173.23L134.28,175.70L131.70,178.01L129.04,180.12L126.33,182.02L123.59,183.67L120.84,185.06L118.11,186.17L115.43,186.97L114.95,187.09L112.31,187.58L109.78,187.71L107.40,187.49L106.82,187.39L104.59,186.79L102.57,185.80L102.05,185.47L100.26,184.09L70.12,154.30L68.16,151.28L66.83,147.69L66.77,147.29"/><path d="M108.88,161.07L104.63,161.76L103.51,166.20L103.05,170.31L103.26,173.99L104.11,177.13L105.54,179.66L107.51,181.55"/><path d="M105.91,158.29L108.13,153.61L110.90,149.00L114.13,144.61L117.71,140.56L121.52,136.99L125.43,133.98"/><path d="M106.99,161.38L106.38,163.96L106.13,167.78L106.61,171.10L107.77,173.79L109.54,175.79L106.08,180.18"/><path d="M124.01,135.08L124.15,137.01L120.42,139.99L116.86,143.56L113.61,147.59L110.83,151.91L108.62,156.35L106.69,156.63"/><path d="M109.29,182.53L112.72,178.14L115.35,178.80L118.33,178.71L121.55,177.92L124.89,176.47L128.27,174.43"/><path d="M109.91,181.74L110.58,181.92L113.59,181.99L116.83,181.44L120.21,180.29L123.66,178.61L127.09,176.44L127.00,175.19"/><path d="M112.48,175.20L110.96,173.40L109.96,171.01L109.56,168.08L109.77,164.71L110.61,161.02L112.06,157.14L114.06,153.21L116.55,149.39L119.42,145.82L122.56,142.64L125.85,139.96"/><path d="M124.46,141.10L124.58,142.83L121.60,145.40L118.84,148.45L116.43,151.85L114.52,155.41L113.20,158.95L112.52,162.28L112.53,165.24L113.19,167.69L114.46,169.52L111.19,173.68"/><path d="M114.20,176.24L117.59,171.90L119.79,172.37L122.31,172.14L125.03,171.23L127.85,169.72L130.63,167.66L133.29,165.17L135.71,162.33L137.82,159.26L139.53,156.08L140.44,155.94L139.47,157.84L137.39,161.12L135.00,164.25L132.35,167.14L129.51,169.72L126.55,171.91L123.55,173.65L120.58,174.87L117.73,175.51L115.09,175.54L114.80,175.47"/><path d="M117.41,168.91L116.38,167.31L115.86,165.20L115.88,162.67L116.45,159.84L120.33,159.21"/><path d="M118.61,159.49L118.52,160.08L118.70,161.89L119.35,163.30L116.34,167.13"/><path d="M117.70,156.53L119.35,153.49L121.39,150.59L123.73,147.97L126.26,145.74"/><path d="M127.59,164.71L125.71,165.55L123.95,165.89L122.42,165.71L119.06,170.02"/><path d="M118.57,154.94L120.06,154.72L121.43,152.43L123.11,150.30L125.01,148.48L124.89,146.94"/><path d="M126.26,165.30L126.39,166.97L123.98,168.23L121.64,168.98L119.75,169.14"/><path d="M123.40,163.65L122.32,162.66L121.82,161.03L121.99,158.92L122.81,156.53L124.19,154.13L126.00,151.97L128.04,150.26L130.10,149.19L131.96,148.84L133.44,149.23"/><path d="M132.82,149.07L132.91,149.18L133.31,150.83L133.10,152.88L132.30,155.14L130.99,157.40L129.30,159.46L127.36,161.13L125.37,162.25L123.49,162.70L122.26,162.48"/><path d="M129.00,142.13L128.75,138.10L131.99,136.56L135.04,135.69L137.81,135.50L140.21,135.96L142.19,137.04"/><path d="M128.89,140.34L130.40,139.67L133.14,139.09L135.54,139.24L137.51,140.08L139.04,141.18L140.49,142.66L141.39,144.69L141.72,147.19L141.49,150.02L140.72,153.09"/><path d="M128.64,136.31L128.39,132.14L132.22,130.29L135.85,129.14L139.19,128.70L142.18,128.94L144.74,129.84"/><path d="M144.55,129.77L145.28,130.29L142.13,134.30L139.96,132.99L137.28,132.39L134.17,132.53L130.73,133.46L128.53,134.48"/><path d="M129.34,147.77L129.10,143.86L131.61,142.74L133.94,142.23L135.84,142.32L132.91,146.04L131.46,145.69L129.73,145.88L129.23,146.07"/><path d="M131.03,175.72L130.84,172.49L134.02,169.62L137.02,166.36L139.71,162.84L142.05,159.14L143.97,155.36L146.96,154.87"/><path d="M130.89,173.41L132.89,171.65L135.96,168.46L138.82,165.01L141.38,161.37L143.63,157.61L144.81,155.22"/><path d="M130.46,166.25L130.25,162.79L132.01,161.01L133.58,158.99L134.86,156.84L138.14,156.31"/><path d="M130.31,163.85L131.29,162.94L133.37,160.52L135.19,157.90L135.85,156.68"/><path d="M136.06,153.79L136.42,151.76L136.35,149.97L135.85,148.51L139.07,144.38"/><path d="M136.31,152.40L137.85,152.18L138.48,149.56L138.64,147.14L138.37,145.28"/><path d="M137.69,143.01L135.99,142.33L135.84,142.32"/><path d="M140.44,155.94L142.65,155.57"/><path d="M141.06,151.73L142.36,151.54L143.29,148.26L143.76,145.14L143.73,142.27L143.20,139.73L142.17,137.61L141.08,136.44"/><path d="M145.15,152.43L146.23,148.74L146.77,145.23L146.75,142.01L146.16,139.17L144.98,136.80L148.10,132.81"/><path d="M147.50,133.58L147.81,134.17L148.55,136.97L148.80,140.13L148.55,143.55L147.84,147.17L146.67,150.93L145.54,151.09"/></g></g><g id="Actor_.5"><g style="stroke:#000000;stroke-width:0.353"><path d="M172.35,114.46L172.15,114.60L171.10,113.98L167.04,111.69"/><path d="M171.00,115.45L171.10,113.98L172.31,113.19"/><path d="M172.15,114.60L172.13,114.84"/></g><g style="stroke:#000000;stroke-width:0.705"><path d="M168.26,110.92L172.31,113.19L172.35,114.46L172.33,114.71L172.13,114.84L171.00,115.45L166.97,113.15"/></g></g><g id="Actor_.6"><g style="stroke:#000000;stroke-width:0.353"><path d="M53.16,106.99L55.57,109.02L74.09,179.66"/><path d="M55.57,109.02L202.13,42.44"/><path d="M71.08,110.10L72.05,111.44L72.31,112.25L72.42,113.14L72.16,115.03L71.30,116.91L69.95,118.60L68.22,119.91L66.29,120.72L64.37,120.91L62.65,120.48L61.34,119.44"/><path d="M83.65,167.67L82.95,169.18L81.81,170.67L80.37,171.94L78.79,172.85L77.23,173.31L75.86,173.25L74.83,172.67"/><path d="M199.08,47.56L199.70,47.97L200.09,48.79L200.20,49.94L200.03,51.28L199.61,52.67L198.96,53.96L198.17,55.04L197.31,55.77L196.48,56.08L195.75,55.93"/></g><g style="stroke:#000000;stroke-width:0.705"><path d="M87.10,171.08L74.09,179.66L71.99,177.40L53.16,106.99L199.55,41.61L202.13,42.44L199.79,60.81"/><path d="M61.34,119.44L60.59,117.91L60.48,116.04L61.05,114.05L62.22,112.17L63.86,110.61L65.79,109.54L67.78,109.09L69.61,109.29L71.08,110.10"/><path d="M69.44,109.27L69.61,109.50L69.87,110.31L69.99,111.19L69.73,113.08L68.89,114.94L67.55,116.60L65.82,117.89L63.90,118.68L61.99,118.86L60.92,118.59"/><path d="M74.83,172.67L74.26,171.63L74.21,170.24L74.71,168.66L75.70,167.06L77.06,165.62L78.64,164.51L79.92,163.98"/><path d="M74.24,171.06L75.10,171.10L76.66,170.66L78.23,169.77L79.66,168.51L80.79,167.04L81.50,165.54"/><path d="M180.47,109.48L151.27,128.74"/><path d="M195.75,55.93L195.22,55.34L194.94,54.36L194.95,53.10L195.25,51.69L195.80,50.28L196.55,49.05L197.41,48.12L198.29,47.61L199.08,47.56"/><path d="M195.03,54.67L195.66,54.14L196.45,53.08L197.09,51.78L197.51,50.40L197.67,49.07L197.56,48.04"/></g></g><g><g/></g><g/><g id="paperID" visibility="hidden" opacity="0.00" transform="scale(0.000100)"><path style="stroke:#000000;stroke-width:0.500;fill:#e6e6e6;fill-rule:evenodd" d="M-2000.00,-2000.00L2297.00,-2000.00L2297.00,2210.00L-2000.00,2210.00zM0.00,0.00L297.00,0.00L297.00,210.00L0.00,210.00z"/><path style="fill:#000000;fill-opacity:0.118" d="M3.00,210.00L297.00,210.00L297.00,3.00L300.00,3.00L300.00,213.00L3.00,213.00z"/></g><g id="ToolTip" visibility="hidden" opacity="0" transform="translate(0,0)"><rect id="ToolTipShadow" opacity="0.20" fill="black" stroke="none" x="0" y="0" width="30" height="8"/><rect id="ToolTipBG" fill="#ffffe1" stroke="black" x="0" y="0" width="30" height="8"/><text xml:space="preserve" id="ToolTipText" fill="black" x="0" y="0" width="30" height="8">tooltip</text></g></g></svg>
