<?xml version="1.0" encoding="UTF-8" standalone="no"?>
<svg xmlns="http://www.w3.org/2000/svg" xmlns:xlink="http://www.w3.org/1999/xlink" width="297.000mm" height="210.000mm" viewBox="0.000000 0.000000 297.000000 210.000000" stroke-linejoin="round" stroke-linecap="round" fill="none" fill-rule="evenodd"><desc>3DVIA Composer Export</desc><script type="text/ecmascript"><![CDATA[
if(typeof(top) != "undefined")
{
	top.ShowPaper = ShowPaper;
}
function ShowHotSpot(evt,hotspotid)
{
	var svgDocument = evt.target.ownerDocument;
	var strId = "hotspot."+hotspotid;
	var hotspot = svgDocument.getElementById(strId);
	if(hotspot)
		hotspot.setAttribute("opacity",".5");
}
function HideHotSpot(evt,hotspotid)
{
	var svgDocument = evt.target.ownerDocument;
	var strId = "hotspot."+hotspotid;
	var hotspot = svgDocument.getElementById(strId);
	if(hotspot)
		hotspot.setAttribute("opacity","0");

	var toolTip = svgDocument.getElementById('ToolTip');
	if(toolTip)
		toolTip.setAttribute("visibility","hidden");
}
function ShowToolTip(evt,hotspotid,strTooltip)
{
	if(strTooltip=="")
	return;

	// change text
	var svgDocument = evt.target.ownerDocument;
	var tiptext = svgDocument.getElementById('ToolTipText');
	if( !tiptext )
	return;
	tiptext.firstChild.nodeValue = " " + strTooltip + "  " ;

	// show tooltip before, else some refresh issue

	var toolTip = svgDocument.getElementById('ToolTip');
	if(!toolTip)
	return;

	toolTip.setAttribute("visibility","visible");
	toolTip.setAttribute("opacity",".95");

	// move tooltip
	// get viewbox

	var root = svgDocument.documentElement;
	var vbox = (root.getAttribute("viewBox")).split(' ');
	var x0 = parseFloat(vbox[0]);
	var y0 = parseFloat(vbox[1]);
	var vboxW = parseFloat(vbox[2]);
	var vboxH = parseFloat(vbox[3]);

	// get default width of svg

	var strW = root.getAttribute("width");
	var svgW = parseFloat(strW);
	if(strW.indexOf('mm') != -1)
	svgW *= 3.779;

	var strH = root.getAttribute("height");
	var svgH = parseFloat(strH);
	if(strH.indexOf('mm') != -1)
	svgH *= 3.779;  	// 96 dpi  -> 96/25.4 = 3.779

	// update the viewbox / width / height if svg is embedded in html with zoom fit all
	var realx0 = x0;
	var realy0 = y0;
	var realvboxW = vboxW;
	var realvboxH = vboxH;
	var realsvgW = svgW;
	var realsvgH = svgH;

	if ((typeof(top) == "undefined") || (typeof(top.svgctl1) != "undefined")) // embedded in html
	{
		// get window size in pxl

		svgW = window.innerWidth;
		svgH = window.innerHeight;

		// calculate real viewbox

		realsvgW = svgW;
		realsvgH = svgH;
		if((svgW / svgH) > (vboxW / vboxH))
		{
			realvboxW = (vboxH * svgW) / svgH;
			realvboxH = vboxH;
			realx0 = x0 - (realvboxW - vboxW)/2 ;
		}
		else
		{
			realvboxH = (vboxW * svgH) / svgW;
			realvboxW = vboxW;
			realy0 = y0 - (realvboxH - vboxH)/2 ;
		}
	}

	// get user zoom/pan

	var newScale = root.currentScale;
	var translation = root.currentTranslate;

	// transform pxl to user unit

	var xPos = (((evt.clientX+10- translation.x)/newScale) * realvboxW)/realsvgW  + realx0 ;
	var yPos = (((evt.clientY+5- translation.y)/newScale) * realvboxH)/ realsvgH  + realy0 ;
	var scaleForWidth = ( (1 / newScale) * realvboxH) / realsvgH;

	// move tooltip

	toolTip.setAttribute("transform", "translate(" + xPos + "," + yPos + ")" );

	// resize tooltip

	var fontsize = 12;
	tiptext.setAttribute("font-size",fontsize*scaleForWidth);
	tiptext.setAttribute("y", fontsize*scaleForWidth);
	var tipBG = svgDocument.getElementById('ToolTipBG');
	var outline = tiptext.getBBox();
	if(tipBG)
	{
		tipBG.setAttribute("stroke-width", 1*scaleForWidth);
		tipBG.setAttribute("width", Number(outline.width) );
		tipBG.setAttribute("height", Number(outline.height) + fontsize*.5*scaleForWidth );
	}
	var ToolTipShadow = svgDocument.getElementById('ToolTipShadow');
	if(ToolTipShadow)
	{
		ToolTipShadow.setAttribute("width", Number(outline.width) );
		ToolTipShadow.setAttribute("height", Number(outline.height) + fontsize*.5*scaleForWidth );
		ToolTipShadow.setAttribute("x", 3*scaleForWidth);
		ToolTipShadow.setAttribute("y", 3*scaleForWidth);
	}
}
function ShowPaper()
{
  var svgDocument = getDocument();
  var paper = svgDocument.getElementById("paperID");
  if(paper)
  {
    paper.setAttribute("transform","scale(1)");
    paper.setAttribute("opacity","1");
    paper.setAttribute("visibility","visible");
  }
  var svg = svgDocument.getRootElement();
  if(svg)
  {
    svg.setAttribute("width","307.000mm");
    svg.setAttribute("height","220.000mm");
    svg.setAttribute("viewBox","-5.000000 -5.000000 307.000000 220.000000");
  }
}
]]></script><defs/><g><path style="fill:#dcdcdc;fill-opacity:0.098;fill-rule:evenodd" d="M234.50,106.71L235.95,106.72L237.50,105.29L248.45,90.64L248.69,89.28L249.70,90.54L249.42,91.62L238.50,106.28L236.94,107.71L235.50,107.70L230.79,105.43L230.20,105.42L222.50,115.90L222.10,115.93L205.95,108.18L204.87,108.19L202.69,108.75L199.25,110.78L197.39,112.90L195.50,115.72L194.24,119.44L194.18,123.43L213.40,132.58L213.89,132.65L214.13,128.89L215.39,125.17L217.14,122.21L219.85,119.70L222.50,118.13L224.50,117.64L225.59,117.62L229.81,121.59L227.31,123.18L224.60,125.68L222.73,128.78L221.58,132.11L221.35,135.11L221.35,136.27L240.25,145.23L235.26,146.29L233.53,146.49L230.31,144.71L226.33,140.97L223.09,141.52L217.87,138.99L217.05,139.00L141.50,154.17L141.56,155.43L141.84,155.89L149.05,162.60L150.26,163.37L153.42,163.36L248.12,144.49L249.71,143.84L251.42,142.32L258.81,132.31L259.13,131.39L259.10,128.83L258.76,128.34L271.98,110.69L273.08,110.30L275.03,108.52L275.68,108.18L277.53,108.18L278.01,108.44L280.25,110.18L290.46,119.85L291.94,121.11L292.70,122.08L293.17,123.10L293.18,125.67L292.34,127.56L292.96,128.32L292.95,128.64L279.66,146.47L278.17,146.42L277.19,147.96L276.77,150.02L276.68,164.20L277.95,164.12L279.01,163.84L279.02,165.69L278.68,166.10L276.42,166.58L275.96,166.86L123.34,197.25L123.40,196.75L123.70,196.26L123.68,179.76L123.17,178.54L121.96,178.01L121.47,177.53L119.37,178.55L118.71,178.55L113.24,175.79L110.28,173.28L107.77,170.82L104.32,169.05L102.04,167.60L100.81,166.10L97.58,165.61L95.35,164.85L93.37,163.85L92.29,163.86L66.02,169.16L59.97,170.17L59.97,168.07L89.64,162.13L83.91,159.36L65.52,162.94L58.98,164.10L58.06,164.45L57.85,149.92L54.36,148.18L41.93,136.50L41.59,136.00L45.14,137.52L46.91,138.76L47.53,138.77L48.65,137.26L48.89,137.49L49.30,137.53L49.41,137.02L47.62,135.54L46.39,134.78L45.65,134.52L45.16,135.09L42.43,133.77L41.93,133.03L41.41,132.81L40.87,132.28L40.85,132.01L41.67,132.07L41.40,131.32L41.41,129.39L41.91,127.90L44.92,123.70L56.48,108.42L57.98,107.44L59.54,107.18L60.56,107.44L61.81,108.45L63.05,108.42L65.52,109.68L65.23,109.92L64.69,110.66L67.00,112.17L66.71,112.43L66.74,112.89L67.52,113.43L66.50,113.42L59.33,109.92L57.72,109.91L57.10,110.53L44.18,127.68L43.64,128.63L43.66,130.31L43.92,130.54L51.87,134.33L52.37,134.04L53.36,134.78L54.11,134.87L54.07,133.87L54.61,132.40L55.99,131.29L56.81,131.12L57.31,130.30L56.85,130.05L54.00,130.32L64.45,116.36L64.45,118.94L65.04,119.17L66.28,118.51L66.25,117.72L66.79,116.24L67.91,115.13L69.03,114.98L69.04,114.41L67.49,112.87L67.45,112.63L67.73,112.63L68.50,113.23L69.01,112.39L67.26,110.93L66.75,110.63L66.69,110.41L66.99,110.39L68.54,111.42L69.16,111.44L70.17,110.14L70.50,110.15L81.72,120.59L81.96,121.19L80.84,122.86L80.19,122.88L78.69,122.08L77.38,122.60L78.22,123.58L80.44,125.59L87.15,132.04L88.81,132.05L153.00,119.20L98.36,93.25L94.87,90.27L86.42,82.32L85.33,81.07L85.61,81.08L149.28,111.17L151.04,112.43L151.41,112.43L152.18,111.39L152.51,111.39L159.48,117.89L182.82,113.23L184.47,112.39L186.31,110.26L192.94,101.24L193.28,100.58L193.26,97.75L191.79,96.99L191.46,96.22L195.99,98.27L196.92,98.27L198.26,97.36L202.23,92.13L201.99,91.78L175.64,79.34L175.45,79.03L176.13,79.10zM75.71,120.62L76.31,120.80L76.50,121.43L74.95,120.60L74.87,120.13L75.30,120.01zM164.20,44.67L163.38,45.33L162.93,46.16L162.18,46.07L162.17,45.65L162.85,44.56L163.70,44.30zM168.16,47.55L169.68,49.03L169.67,49.88L169.41,50.37L168.35,51.30L167.18,51.26L164.96,49.27L164.37,48.55L166.18,46.89L166.56,46.29zM115.00,52.26L115.31,52.67L114.25,52.78L113.72,52.25L113.64,51.77L113.96,51.74zM118.73,53.25L118.71,55.61L117.47,55.21L117.23,55.00L113.39,59.98L113.00,60.01L111.77,59.21L110.94,58.20L111.22,58.21L112.28,58.98L112.90,59.00L116.49,54.09L116.43,53.47L117.00,53.76L117.38,53.80L117.72,52.57L117.98,52.51zM116.00,53.01L115.51,53.03L115.31,52.67L115.78,52.76zM154.31,56.96L154.13,56.26L154.89,55.24L156.01,55.26L156.04,55.57L155.18,56.26L154.76,57.06zM161.47,59.71L161.47,60.82L160.87,61.71L159.88,62.24L159.21,62.25L156.47,59.71L156.47,59.33L158.42,57.23L158.71,57.20zM123.45,60.23L122.21,60.24L121.62,59.45L122.18,59.45zM126.92,61.21L126.84,62.98L125.90,62.97L125.31,62.71L121.68,67.51L120.71,67.42L119.19,66.15L119.13,65.91L119.42,65.91L120.47,66.70L120.84,66.70L124.68,61.57L124.36,60.94L124.64,60.93L125.42,61.54L125.92,59.95zM183.06,63.52L183.99,62.46L184.47,62.20L185.58,62.21L185.56,63.03L184.95,63.42L183.98,64.70L183.07,64.72zM223.10,72.42L223.13,72.73L222.07,73.99L221.53,74.01L221.53,72.91L222.61,72.14zM177.42,73.10L177.65,73.74L176.38,74.74L175.85,75.73L175.13,75.64L174.86,75.37L174.84,74.72L175.39,73.74L176.53,72.87L177.11,72.87zM227.81,75.88L228.83,77.13L228.83,77.70L227.72,79.10L226.56,79.39L223.82,76.85L223.74,76.40L225.07,75.22L225.84,74.13zM200.03,76.37L199.98,76.94L199.24,77.47L198.15,78.87L197.23,78.88L197.22,77.68L198.40,76.38L198.89,76.11L199.75,76.09zM175.45,79.03L173.87,78.62L171.62,77.33L171.56,77.10L171.86,77.09zM173.90,80.09L174.21,80.50L173.15,80.61L172.62,80.08L172.54,79.61L172.86,79.57zM177.40,80.82L177.87,82.11L177.59,83.43L177.12,83.37L176.61,83.06L176.02,83.05L172.54,87.82L171.89,87.84L169.88,86.28L169.83,86.04L170.12,86.04L171.16,86.82L171.87,86.91L175.65,81.93L175.70,81.55L176.35,81.69L176.87,80.34zM174.96,81.02L174.38,80.85L174.21,80.50L174.65,80.58zM175.70,81.55L175.13,81.34L174.96,81.02L175.40,81.07zM215.19,83.33L215.15,83.64L214.83,83.85L213.87,84.92L213.40,84.86L213.37,83.90L214.13,83.15L214.91,83.05zM219.88,87.07L220.52,87.09L221.01,86.80L222.12,86.79L222.39,87.05L222.09,88.39L221.38,89.17L219.29,90.06L218.12,90.04L215.86,87.82L215.54,87.62L215.61,87.17L217.02,86.05L217.56,85.06L217.86,85.04zM182.85,88.31L181.35,88.32L180.82,87.79L180.75,87.31L181.33,87.28zM185.82,88.79L185.81,90.89L184.80,90.80L184.20,90.53L180.75,95.27L179.84,95.28L178.37,94.25L178.03,93.75L178.32,93.74L179.60,94.56L180.00,94.53L183.84,89.38L184.48,89.32L184.82,88.11L185.32,88.02zM244.58,90.19L244.72,90.86L243.73,91.38L242.96,92.62L241.96,92.54L241.96,91.61L242.74,90.39L243.37,90.04zM198.51,93.03L198.51,93.61L197.53,94.89L196.23,95.31L195.93,95.11L195.98,93.84L196.91,92.78L197.41,92.51L197.99,92.50zM236.52,101.00L236.55,101.57L235.65,102.19L234.75,103.56L234.02,103.49L234.01,102.04L234.68,101.23L236.02,100.70zM268.25,106.16L268.82,106.22L268.88,106.50L268.55,106.49zM265.63,109.91L265.61,110.51L265.09,111.51L264.28,112.18L263.09,112.18L263.11,110.76L264.24,109.67L265.37,109.65zM76.31,120.80L75.71,120.62L75.30,120.01L75.73,120.10zM257.38,120.62L257.39,121.70L256.89,122.44L255.81,123.13L255.13,123.15L254.81,122.93L254.89,121.93L255.55,120.85L256.89,120.34zM256.88,127.08L258.39,128.33L257.91,128.33L257.39,127.82L253.18,125.82L252.34,125.06L252.90,125.06zM241.51,144.75L241.51,145.04L240.50,144.96L239.46,144.19L239.42,143.95zM59.21,164.87L59.73,164.56L60.31,164.59L60.32,165.44L59.28,165.34zM64.03,166.43L63.22,166.85L61.45,166.93L61.45,166.09L63.47,165.60L64.06,165.35zM118.24,193.11L118.11,192.72L119.21,192.42L119.21,193.29L118.43,193.22zM122.44,194.50L122.14,194.71L120.69,195.02L120.61,193.92L122.44,193.66zM122.18,197.24L118.63,198.01L118.63,195.92L122.19,195.15zM91.63,85.34L91.13,85.36L90.10,84.54L90.06,84.30L90.62,84.30zM221.92,87.94L221.49,88.58L221.01,88.57L221.88,87.82zM99.87,92.79L99.83,93.12L99.36,93.04L98.31,92.27L98.24,91.78L98.56,91.74zM209.66,95.51L192.00,119.19L191.80,121.19L187.30,119.12L183.24,117.22L183.34,115.00L195.44,98.74L195.74,98.71L197.23,99.51L198.42,99.51L199.98,98.33L203.89,93.02L204.44,93.00zM114.25,98.01L113.78,98.00L112.47,96.97L112.43,96.73L112.98,96.73zM136.62,108.45L136.12,108.47L134.84,107.67L134.77,107.18L135.08,107.16zM278.04,110.89L278.01,112.25L277.18,112.41L276.54,112.76L275.77,114.97L274.95,115.41L274.03,115.42L274.02,112.73L275.05,111.27L275.93,110.67L277.04,110.45zM150.57,112.87L150.81,113.47L149.29,112.64L148.94,112.11L149.29,111.91zM278.52,113.86L278.00,114.96L276.95,115.24L276.43,114.12L276.68,113.67L278.30,113.64zM69.76,116.90L69.77,117.72L68.95,118.90L67.77,118.87L67.27,118.37L67.25,117.20L67.92,116.37L68.76,116.37zM74.72,118.13L77.19,119.87L76.69,120.69L76.31,120.80L75.73,120.10L75.30,120.01L74.22,119.13L72.89,118.45L72.93,117.95L73.17,117.62L73.72,117.60zM158.98,120.87L158.49,120.89L157.21,120.10L157.14,119.61L157.45,119.59zM272.29,120.37L272.31,122.20L271.47,123.10L270.02,123.09L269.97,122.63L270.81,121.95L271.07,121.46L271.30,119.85zM290.21,122.33L290.20,123.69L289.09,123.83L288.19,125.16L287.95,126.41L286.88,126.86L286.21,126.86L285.95,125.43L286.38,123.85L287.47,122.45L288.62,121.85L289.45,121.84zM278.02,124.63L278.49,124.68L278.70,124.09L278.99,124.04L279.49,124.36L280.27,125.88L279.94,126.09L278.75,127.40L278.28,128.89L273.79,126.83L273.77,125.65L275.05,123.95L276.02,123.57zM290.70,125.29L290.18,126.40L289.19,126.66L288.61,125.55L288.86,125.10L290.48,125.07zM174.15,127.56L174.14,128.66L173.88,129.15L172.81,130.09L172.14,130.09L171.39,129.56L171.38,127.64L172.12,126.89L173.14,126.81zM277.76,130.06L277.20,130.58L275.23,130.58L274.92,130.27L276.79,129.56zM284.00,131.54L283.99,132.39L283.49,133.38L282.92,133.81L281.46,133.78L281.48,133.39L282.48,132.38L282.75,131.62L282.67,130.76L282.95,130.77zM86.66,133.04L105.80,142.00L104.54,141.99L100.72,142.22L91.38,154.50L91.36,158.41L92.37,161.39L91.88,161.40L72.97,152.44L72.46,151.95L71.72,149.71L71.49,148.45L71.47,145.28L80.91,132.85L82.84,132.55L84.41,132.55zM57.56,133.30L57.59,134.38L56.74,135.28L55.84,135.28L55.06,134.29L55.52,132.81L56.33,132.52zM214.13,137.35L142.48,151.69L141.73,151.69L142.09,150.76L142.10,150.19L140.47,148.16L140.70,147.94L208.43,134.51zM127.16,136.27L128.42,137.25L128.41,138.60L127.91,139.58L125.67,137.99L123.84,138.50L122.33,139.48L108.41,157.87L107.26,160.20L107.29,163.20L106.78,163.15L106.28,162.86L106.03,161.88L105.82,159.85L99.59,156.89L98.83,155.90L98.24,155.72L98.31,154.98L98.96,153.39L99.79,152.23L102.11,151.56L110.53,140.35L110.74,137.83L111.27,136.87L112.42,136.03L113.77,135.28L114.75,135.76L115.46,136.54L120.70,139.04L121.10,139.01L122.18,138.08L124.44,137.53L122.43,136.51L122.40,136.11L123.37,134.78L123.92,134.75zM47.19,139.71L47.43,140.31L45.89,139.50L45.89,138.73zM57.58,144.50L57.51,144.98L56.84,144.98L54.77,142.71L55.05,142.70zM126.21,144.21L125.82,145.21L124.61,145.56L124.40,145.26L124.41,144.05L125.95,143.95zM121.67,143.30L122.70,141.59L123.59,140.98L125.68,140.98L125.67,142.57L124.83,142.72L123.93,143.57L123.68,145.30L122.61,145.74L121.69,145.74zM55.60,147.71L55.09,147.74L53.83,146.94L53.83,146.53L54.10,146.46zM130.91,148.68L130.90,150.29L130.06,151.18L128.36,151.17L128.32,150.94L129.41,150.29L129.88,148.69L129.80,148.19L130.11,148.16zM124.92,154.44L125.69,154.43L126.64,154.93L126.93,155.39L128.66,156.16L128.07,156.39L125.38,159.96L125.43,160.97L124.93,160.91L120.70,158.89L120.71,156.50L122.69,154.01L123.94,153.91zM113.52,157.36L113.49,158.72L112.41,159.13L111.73,159.95L111.50,161.45L110.69,161.88L109.50,161.88L109.50,159.45L110.74,157.71L111.65,157.14L113.27,157.12zM239.50,158.14L240.01,158.89L239.74,160.21L238.68,161.15L237.73,161.16L237.24,160.65L236.98,159.46L237.66,158.13L238.17,157.87zM100.32,158.67L101.32,158.61L105.80,162.85L108.04,164.33L107.31,165.21L105.95,165.88L105.29,165.88L100.49,163.83L102.57,166.10L102.07,166.12L100.33,165.34L99.81,164.62L99.06,162.38L98.73,158.38L99.32,157.92zM114.00,160.39L114.03,160.70L113.41,161.62L112.42,161.71L112.21,161.41L112.23,160.20L113.51,160.11zM123.93,160.88L123.36,161.15L122.69,161.15L121.60,160.61L123.45,160.61zM119.48,164.08L119.47,165.45L119.21,165.93L118.40,166.61L116.94,166.59L116.96,166.20L117.97,165.44L118.23,164.95L118.38,163.59L118.69,163.57zM105.55,167.09L106.54,168.09L106.07,168.08L104.69,167.12L104.69,166.85L105.02,166.80zM163.47,173.78L163.45,174.89L162.96,175.88L162.39,176.30L161.18,176.31L160.68,175.81L160.69,174.11L161.62,173.02L162.20,173.03zM113.49,174.54L114.50,175.55L113.99,175.57L112.65,174.50L113.00,174.29z"/><g id="Actor_.0"><g style="stroke:#000000;stroke-width:0.353"><path d="M102.29,162.11L100.94,163.92L100.62,163.80L100.47,163.81"/><path d="M118.50,178.47L104.98,165.82L100.94,163.92"/><path d="M103.86,166.14L103.83,166.21L103.94,166.40L104.54,166.99L104.97,167.33L105.43,167.66L106.21,168.13L106.47,168.22L106.57,168.20"/><path d="M106.98,163.72L108.22,164.30L107.62,164.96L106.93,165.49L106.21,165.82L105.54,165.94L104.98,165.82"/><path d="M106.98,157.58L108.22,158.16L107.52,159.40L107.15,160.77L107.15,162.13L107.52,163.34L108.22,164.30L122.65,177.80L121.47,177.25"/><path d="M108.22,158.16L121.74,140.13L120.50,139.54"/><path d="M114.68,175.79L114.57,175.81L114.32,175.72L113.54,175.25L113.09,174.92L112.30,174.25L112.05,173.99L111.94,173.80L111.98,173.73"/><path d="M113.03,193.78L113.11,194.00L113.40,194.20L113.40,196.37"/><path d="M116.19,197.69L116.19,195.52L113.40,194.20"/><path d="M116.19,195.52L116.67,195.68L117.29,195.79L117.99,195.83L118.70,195.81L119.35,195.72L119.35,197.89"/><path d="M122.53,194.57L122.43,194.62L121.59,194.86L120.56,195.00L119.44,195.02L118.35,194.94L117.41,194.75L116.72,194.48L116.36,194.15"/><path d="M122.53,193.48L122.43,193.54L121.59,193.77L120.56,193.91L119.44,193.94L118.35,193.85L117.41,193.66L116.72,193.39L116.36,193.06"/><path d="M118.64,163.32L119.06,163.55L119.37,163.96L119.53,164.45L119.53,165.02L119.37,165.59L119.06,166.11L118.64,166.50L118.15,166.74L117.65,166.79L117.19,166.65"/><path d="M118.05,192.98L118.05,192.81L118.23,192.64L118.58,192.51L119.05,192.41L119.60,192.37L120.16,192.39L120.67,192.46L121.09,192.57L121.35,192.72L121.44,192.89"/><path d="M119.35,195.72L122.42,195.11"/><path d="M121.94,160.91L122.95,161.21L124.04,161.10L124.23,161.01"/><path d="M121.74,140.13L122.71,139.14L123.84,138.49L125.04,138.25L126.18,138.45"/><path d="M123.93,134.79L122.57,136.59L122.26,136.47L122.10,136.49"/><path d="M122.22,197.32L122.22,195.15L122.31,195.17"/><path d="M122.69,197.42L123.13,197.23L123.47,196.80L123.69,196.14L123.77,195.34L276.73,164.87"/><path d="M122.53,180.06L123.77,180.65L123.77,195.34"/><path d="M122.65,177.80L123.26,178.58L123.64,179.55L123.77,180.65"/><path d="M122.57,136.59L126.61,138.50L126.69,138.58"/><path d="M125.11,153.62L126.03,154.12L126.71,154.98L126.82,155.33"/><path d="M124.94,137.86L124.99,137.89"/><path d="M128.68,151.32L129.14,151.46L129.64,151.41L130.13,151.17L130.55,150.77L130.86,150.26L131.02,149.69L131.02,149.12L130.86,148.61L130.56,148.24L130.13,147.99"/><path d="M141.34,152.33L127.82,139.68L128.27,138.95L128.52,138.22L128.55,137.56L128.36,137.03"/><path d="M131.21,166.74L130.93,166.77L130.33,166.59"/><path d="M131.58,166.69L131.56,166.70"/><path d="M132.20,162.33L132.73,162.62L132.89,162.81"/><path d="M133.05,163.01L133.15,163.20"/><path d="M150.10,163.33L151.25,163.64L152.49,163.58L151.25,162.99"/><path d="M152.49,163.58L248.01,144.55L246.77,143.97"/><path d="M161.17,176.32L161.63,176.46L162.13,176.41L162.62,176.17L163.04,175.78L163.35,175.26L163.52,174.69L163.52,174.12L163.35,173.61L163.04,173.22L162.62,172.99"/><path d="M237.65,161.09L238.11,161.23L238.62,161.17L239.10,160.94L239.52,160.54L239.83,160.03L239.99,159.47L240.00,158.88L239.84,158.40L239.52,157.98L239.10,157.76"/><path d="M248.01,144.55L249.25,144.12L250.40,143.35L251.39,142.29L250.15,141.70"/><path d="M251.39,142.29L258.59,132.68L257.35,132.09"/><path d="M251.56,124.37L251.89,124.65L255.91,126.55L256.47,126.85L257.15,127.28L257.86,127.79L258.55,128.34L259.15,128.86L259.15,131.03L257.91,130.45"/><path d="M251.89,124.65L253.23,125.91"/><path d="M252.91,125.64L252.89,125.60"/><path d="M257.28,120.51L256.98,120.36L256.58,120.37L256.13,120.53L255.69,120.82L255.29,121.22L254.98,121.67L254.80,122.14L254.76,122.57L254.87,122.91"/><path d="M255.91,126.55L269.43,108.51"/><path d="M258.59,132.68L258.89,132.17L259.09,131.61L259.15,131.03"/><path d="M257.91,128.28L259.15,128.86L273.35,109.93L272.11,109.34"/><path d="M262.98,112.08L262.87,111.74L262.91,111.32L263.09,110.85L263.40,110.40L263.80,110.00L264.25,109.71L264.69,109.55L265.09,109.54L265.40,109.69"/><path d="M268.02,139.16L268.61,139.34L269.25,139.27L269.88,138.97L270.42,138.46L270.81,137.80L271.02,137.07L271.02,136.34L270.81,135.69L270.42,135.19L269.88,134.89"/><path d="M271.60,119.81L272.02,120.04L272.33,120.43L272.49,120.93L272.49,121.28L272.49,121.51L272.33,122.08L272.02,122.59L271.60,122.99L271.11,123.22L270.61,123.28L270.14,123.14"/><path d="M273.35,109.93L274.32,108.93L275.45,108.29L276.65,108.05L277.79,108.24"/><path d="M274.90,130.44L275.91,130.74L277.01,130.63L277.95,130.17"/><path d="M278.05,166.28L278.05,164.11L276.73,164.37"/><path d="M278.05,164.11L278.57,163.96L278.93,163.77L279.08,163.56"/><path d="M279.48,146.65L279.45,146.46L279.20,146.12L278.76,145.67L292.28,127.64"/><path d="M278.07,123.15L278.99,123.65L279.67,124.50L280.00,125.52"/><path d="M283.09,130.56L283.51,130.79L283.82,131.18L283.98,131.69L283.98,132.26L283.82,132.83L283.51,133.34L283.09,133.74L282.60,133.98L282.10,134.03L281.64,133.89"/></g><g style="stroke:#000000;stroke-width:0.705"><path d="M127.82,139.68L127.15,139.05L126.18,138.45L124.94,137.86L123.80,137.67L122.60,137.90L121.46,138.55L120.50,139.54L106.98,157.58L106.27,158.82L105.91,160.18L105.91,161.54L106.27,162.76L106.98,163.72L106.72,163.95L106.44,164.04L106.33,164.02L102.29,162.11L101.99,162.00L101.82,162.01L100.47,163.81L100.50,163.96L100.70,164.23L101.05,164.60L111.87,174.72L112.90,175.57L114.01,176.32L114.46,176.57L118.50,178.47L119.06,178.59L119.73,178.47L120.45,178.14L121.14,177.61L121.74,176.95"/><path d="M103.86,166.14L104.05,166.17L104.35,166.32L104.75,166.56L105.64,167.20L106.35,167.84L106.53,168.07L106.57,168.20"/><path d="M106.91,163.62L106.33,163.22L105.53,162.75L104.92,162.46L104.56,162.39L104.12,162.97"/><path d="M111.98,173.73L112.16,173.76L112.46,173.91L113.31,174.45L113.75,174.79L114.46,175.43L114.65,175.66L114.68,175.79"/><path d="M116.36,192.77L114.07,193.23L113.54,193.38L113.20,193.56L113.03,193.78L113.03,195.95L113.11,196.17L113.40,196.37L116.19,197.69L116.67,197.85L117.29,197.96L117.99,198.00L118.70,197.98L119.35,197.89L122.22,197.32L122.69,197.42L275.66,166.94L276.09,166.76L276.43,166.32L276.65,165.67L276.73,164.87L276.73,150.18L276.86,149.03L277.24,147.90L277.85,146.88L278.76,145.67"/><path d="M116.36,194.15L116.36,192.72L116.73,192.39L117.42,192.12L118.37,191.93L119.46,191.85L120.58,191.88L121.61,192.02L122.44,192.25L122.53,192.30"/><path d="M117.19,166.65L116.81,166.34L116.57,165.89L116.49,165.34L116.57,164.76L116.81,164.21L117.19,163.75L117.65,163.43L118.15,163.28L118.64,163.32"/><path d="M118.05,192.98L118.22,193.14L118.57,193.28L119.04,193.37L119.59,193.42L120.15,193.40L120.66,193.33L121.08,193.22L121.35,193.07L121.44,192.89"/><path d="M120.75,191.90L122.53,191.55"/><path d="M125.11,153.62L124.04,153.53L122.95,153.85L121.94,154.55L121.13,155.56L120.60,156.77L120.42,158.04L120.60,159.23L121.13,160.23L121.94,160.91"/><path d="M122.31,195.17L122.40,195.13L122.47,195.05L122.53,194.76L122.53,180.06L122.39,178.96L122.01,177.99L121.45,177.27"/><path d="M123.23,137.78L122.33,136.91L122.13,136.64L122.10,136.49L123.45,134.69L123.61,134.67L123.93,134.79L127.96,136.70L128.36,137.03L141.88,149.68L142.07,150.21L142.04,150.87L141.79,151.60L141.34,152.33L141.34,154.50L141.41,155.05L141.60,155.54L141.90,155.93L149.11,162.67L150.10,163.33"/><path d="M126.69,138.57L126.72,138.79"/><path d="M128.68,151.32L128.31,151.01L128.07,150.56L127.98,150.01L128.07,149.43L128.31,148.88L128.68,148.42L129.14,148.10L129.64,147.95L130.13,147.99"/><path d="M130.33,166.59L129.87,166.20L129.55,165.61L129.45,164.91L129.55,164.16L129.86,163.46L130.33,162.87L130.93,162.46L131.57,162.27L132.19,162.32"/><path d="M272.67,110.83L271.38,109.76L270.67,109.25L269.99,108.82L269.43,108.51L265.40,106.61L264.95,106.51L264.41,106.61L263.83,106.88L263.28,107.29L262.80,107.82L251.99,122.25L251.63,122.84L251.43,123.43L251.40,123.95L251.56,124.37L252.91,125.64L253.23,125.91L257.26,127.81L257.65,128.06L257.91,128.28L257.91,130.45L257.85,131.02L257.65,131.58L257.35,132.09L250.15,141.70L249.16,142.76L248.00,143.53L246.77,143.97L151.25,162.99L150.01,163.06L149.47,162.91"/><path d="M161.17,176.32L160.80,176.01L160.56,175.56L160.48,175.01L160.56,174.43L160.80,173.88L161.17,173.42L161.63,173.10L162.13,172.95L162.62,172.99"/><path d="M162.07,172.97L162.11,173.02L162.28,173.53L162.28,174.10L162.11,174.68L161.80,175.19L161.38,175.59L160.89,175.82L160.71,175.84"/><path d="M237.65,161.09L237.28,160.78L237.04,160.32L236.96,159.77L237.04,159.19L237.28,158.64L237.65,158.18L238.11,157.86L238.62,157.71L239.10,157.76"/><path d="M237.19,160.61L237.36,160.59L237.86,160.35L238.28,159.95L238.59,159.44L238.75,158.87L238.75,158.30L238.59,157.79L238.55,157.73"/><path d="M254.87,122.91L255.12,123.12L255.47,123.19L255.90,123.11L256.36,122.88L256.78,122.53L257.14,122.10L257.39,121.63L257.50,121.18L257.47,120.79L257.29,120.51"/><path d="M265.40,109.69L265.58,109.97L265.62,110.35L265.50,110.81L265.26,111.27L264.90,111.71L264.47,112.06L264.02,112.28L263.59,112.37L263.23,112.30L262.98,112.09"/><path d="M268.02,139.16L267.54,138.76L267.23,138.13L267.13,137.48L267.24,136.73L267.54,136.03L268.02,135.44L268.61,135.03L269.25,134.84L269.88,134.89"/><path d="M271.04,119.79L271.09,119.84L271.25,120.35L271.25,120.92L271.09,121.49L270.78,122.00L270.35,122.41L269.87,122.64L269.69,122.66"/><path d="M270.14,123.14L269.78,122.83L269.54,122.37L269.45,121.82L269.54,121.24L269.78,120.69L270.14,120.23L270.61,119.91L271.11,119.77L271.60,119.81"/><path d="M278.32,146.25L279.29,146.67L279.48,146.65L293.00,128.61L292.97,128.42L292.72,128.09L292.28,127.64L292.98,126.40L293.35,125.03L293.35,123.67L292.98,122.46L292.28,121.50L278.76,108.85L277.79,108.24L276.55,107.66L275.41,107.46L274.21,107.70L273.08,108.35L272.11,109.34L271.64,109.96"/><path d="M274.90,130.44L274.09,129.76L273.56,128.76L273.38,127.56L273.56,126.29L274.09,125.09L274.90,124.08L275.91,123.38L277.01,123.06L278.07,123.15"/><path d="M276.72,129.57L275.76,130.04L274.67,130.15L274.50,130.11"/><path d="M276.73,162.20L278.71,163.14L279.01,163.34L279.08,163.56L279.08,165.73L278.93,165.94L278.57,166.13L278.05,166.28L276.18,166.65"/><path d="M278.76,124.93L278.43,123.92L277.80,123.13"/><path d="M282.58,130.59L282.74,131.10L282.74,131.67L282.58,132.24L282.27,132.76L281.85,133.15L281.36,133.39L281.18,133.41"/><path d="M281.64,133.89L281.27,133.58L281.03,133.12L280.94,132.58L281.03,132.00L281.21,131.57"/><path d="M283.09,130.56L282.63,130.52"/></g></g><g id="Actor_.1"><g style="stroke:#000000;stroke-width:0.353"><path d="M113.39,60.10L113.36,59.97L113.18,59.75L112.88,59.45L112.48,59.11L112.04,58.77L111.59,58.46L111.19,58.22L110.88,58.07L110.69,58.03"/><path d="M118.68,55.60L118.66,55.45L118.52,55.22L118.13,54.78L118.08,54.73L117.48,54.18L117.41,54.11L117.15,53.90L116.67,53.51L116.59,53.44L115.80,52.86L115.68,52.78L114.92,52.29L114.84,52.24L114.21,51.89L114.15,51.86L113.71,51.70L113.67,51.69L113.47,51.72"/><path d="M117.45,54.69L117.41,54.56L117.24,54.34L116.93,54.04L116.54,53.70L116.09,53.36L115.64,53.05L115.24,52.81L114.93,52.66L114.74,52.62"/></g><g style="stroke:#000000;stroke-width:0.705"><path d="M114.74,52.62L110.69,58.03L110.65,58.11L110.75,58.28L110.99,58.55L111.35,58.87L111.77,59.21L112.23,59.54L112.66,59.82L113.02,60.02L113.27,60.12L113.39,60.10L117.45,54.69"/><path d="M114.48,52.98L114.07,52.61L114.02,52.55L113.63,52.11L113.49,51.89L113.47,51.74L113.47,51.72L114.03,51.37L114.27,51.29L115.29,51.03L115.78,51.03"/><path d="M113.62,51.70L113.72,51.61L114.03,51.37"/><path d="M117.20,55.02L117.31,55.09L117.92,55.43L117.98,55.46L118.43,55.63L118.47,55.64L118.67,55.62L118.68,55.60L118.89,54.69L118.87,54.45L118.75,53.40L118.69,53.21L118.53,52.98L118.22,52.66L117.79,52.29L117.29,51.90L116.96,51.67L116.48,51.35L116.08,51.13L115.80,51.03L114.95,51.15"/></g></g><g id="Actor_.2"><g style="stroke:#000000;stroke-width:0.353"><path d="M220.79,88.86L221.03,88.81L221.47,88.54L221.84,88.13L222.04,87.71"/></g></g><g id="Actor_.3"><g style="stroke:#000000;stroke-width:0.353"><path d="M105.92,160.13L100.16,157.41"/><path d="M100.12,154.32L106.99,157.57"/><path d="M119.83,140.43L112.97,137.19"/><path d="M130.81,166.72L130.27,166.46L129.86,166.00L129.63,165.38L129.61,164.67L129.79,163.95L130.15,163.30L130.61,162.83L130.66,162.78L131.27,162.46L131.90,162.36L132.48,162.50"/></g><g style="stroke:#000000;stroke-width:0.705"><path d="M106.24,163.17L101.36,158.61"/><path d="M111.75,138.60L101.22,152.66"/><path d="M115.17,136.34L120.96,139.07"/><path d="M121.39,177.34L121.83,177.75"/><path d="M132.08,162.31L132.48,162.50L132.96,162.87L133.29,163.42L133.41,164.09L133.34,164.82L133.06,165.51L132.62,166.11L132.05,166.53L131.43,166.75L130.81,166.72L130.08,166.38"/></g></g><g id="Actor_.4"><g style="stroke:#000000;stroke-width:0.353"><path d="M85.24,80.97L85.40,80.96L85.71,81.08L86.72,79.73"/><path d="M85.71,81.08L149.04,110.99L149.49,111.23L150.03,111.58L150.60,111.99L151.15,112.42L151.63,112.84L162.45,122.96L162.81,123.32L163.01,123.59L163.03,123.74"/><path d="M89.17,83.60L89.25,83.77L89.47,84.02L89.81,84.35L90.24,84.70L90.71,85.05L91.16,85.35L91.55,85.57L91.84,85.70L91.99,85.70"/><path d="M100.11,93.29L99.95,93.29L99.67,93.16L99.27,92.94L98.82,92.64L98.35,92.29L97.93,91.94L97.58,91.61L97.36,91.36L97.28,91.19"/><path d="M114.41,98.18L114.25,98.18L113.96,98.05L113.55,97.82L113.08,97.51L112.60,97.15L112.16,96.78L111.80,96.45L111.57,96.19L111.49,96.02"/><path d="M133.84,106.57L133.92,106.74L134.15,107.01L134.51,107.34L135.09,107.81L135.43,108.06L135.90,108.38L136.31,108.61L136.60,108.73L136.76,108.74"/><path d="M150.97,113.56L150.82,113.56L150.53,113.43L150.14,113.21L149.69,112.91L149.22,112.56L148.79,112.21L148.45,111.88L148.23,111.63L148.15,111.46"/><path d="M149.04,110.99L150.05,109.64"/><path d="M151.63,112.84L152.65,111.49"/><path d="M159.09,121.15L158.93,121.15L158.65,121.02L158.26,120.80L157.80,120.50L157.33,120.15L156.91,119.80L156.56,119.47L156.34,119.22L156.26,119.05"/><path d="M162.45,122.96L163.46,121.61"/></g><g style="stroke:#000000;stroke-width:0.705"><path d="M86.30,82.20L85.82,81.76L85.47,81.39L85.27,81.12L85.24,80.97L86.26,79.62L86.41,79.60L86.73,79.72L150.05,109.64L150.50,109.88L151.04,110.22L151.61,110.63L152.17,111.07L152.65,111.49L163.46,121.61L163.82,121.97L164.02,122.24L164.04,122.39L163.03,123.74L162.88,123.76L162.56,123.64L99.23,93.73L98.78,93.48L98.25,93.14L97.67,92.73L97.12,92.29L96.64,91.88L86.30,82.20"/><path d="M89.17,83.60L89.24,83.55L89.47,83.62L89.81,83.79L90.24,84.06L90.71,84.39L91.16,84.74L91.55,85.09L91.84,85.38L91.99,85.59L91.99,85.70"/><path d="M97.28,91.19L97.36,91.14L97.58,91.21L97.92,91.38L98.35,91.65L98.82,91.98L99.27,92.33L99.66,92.68L99.95,92.97L100.11,93.18L100.11,93.29"/><path d="M111.49,96.02L111.57,95.96L111.80,96.03L112.16,96.21L112.60,96.49L113.08,96.83L113.55,97.19L113.95,97.55L114.25,97.85L114.41,98.07L114.41,98.18"/><path d="M136.76,108.74L136.76,108.63L136.60,108.41L136.30,108.11L135.90,107.75L135.43,107.39L134.95,107.05L134.51,106.77L134.15,106.59L133.92,106.52L133.84,106.57"/><path d="M148.15,111.46L148.22,111.41L148.45,111.48L148.79,111.65L149.22,111.92L149.69,112.25L150.14,112.61L150.53,112.95L150.82,113.24L150.95,113.42L150.97,113.45L150.97,113.56"/><path d="M156.26,119.05L156.34,119.00L156.56,119.07L156.91,119.25L157.33,119.51L157.80,119.84L158.25,120.20L158.64,120.54L158.93,120.83L159.09,121.04L159.09,121.15"/></g></g><g id="Actor_.5"><g style="stroke:#000000;stroke-width:0.353"><path d="M126.77,162.21L126.04,161.77L125.52,161.03L125.28,160.09L120.45,157.81"/><path d="M125.28,160.09L128.15,156.27L123.00,153.84"/><path d="M128.15,156.27L129.02,156.37"/></g><g style="stroke:#000000;stroke-width:0.705"><path d="M120.58,159.08L120.70,159.25L121.44,159.69L126.77,162.21L127.64,162.31L130.51,158.48L130.27,157.54L129.75,156.81L129.02,156.37L123.68,153.84L123.17,153.79"/><path d="M122.49,154.17L120.69,156.57"/></g></g><g id="Actor_.6"><g style="stroke:#000000;stroke-width:0.353"><path d="M262.68,107.62L262.89,107.72"/><path d="M268.81,106.24L267.56,105.93L266.00,105.48L265.18,106.56"/><path d="M266.00,105.48L265.09,105.05"/></g><g style="stroke:#000000;stroke-width:0.705"><path d="M268.88,106.58L268.81,106.24L267.89,105.81L266.75,105.47L265.94,105.25L265.09,105.05L264.22,105.78L263.50,106.51L262.68,107.62L262.69,107.97"/></g></g><g id="Actor_.7"><g style="stroke:#000000;stroke-width:0.353"><path d="M281.09,131.64L278.22,128.95L273.50,126.72"/><path d="M278.22,128.95L278.46,127.92L278.98,126.98L279.72,126.24L280.59,125.80"/></g><g style="stroke:#000000;stroke-width:0.705"><path d="M275.73,123.50L280.59,125.80L283.46,128.48L283.22,129.51L282.70,130.46L281.96,131.19L281.09,131.64L275.75,129.11L273.47,126.98"/></g></g><g id="Actor_.8"><g style="stroke:#000000;stroke-width:0.353"><path d="M221.27,136.24L240.33,145.25"/></g><g style="stroke:#000000;stroke-width:0.705"><path d="M248.79,128.49L232.76,120.91L229.68,121.70L226.77,123.46L224.30,126.04L222.46,129.22L221.42,132.72L221.27,136.24L230.71,145.08L233.82,146.55"/></g></g><g id="Actor_.9"><g style="stroke:#000000;stroke-width:0.353"><path d="M98.74,158.43L103.65,160.74"/></g><g style="stroke:#000000;stroke-width:0.705"><path d="M107.34,170.48L104.25,169.02L101.77,167.43L99.93,164.98L98.89,161.89L98.74,158.43L99.25,157.75"/></g></g><g id="Actor_.10"><g style="stroke:#000000;stroke-width:0.353"><path d="M124.24,146.00L123.89,145.62L123.68,145.10L123.67,144.71L123.66,144.51L123.81,143.90L124.11,143.35L124.55,142.92L125.06,142.66L125.20,142.62L125.22,142.61L125.75,142.61L126.21,142.81L126.56,143.19L126.76,143.70L126.80,144.09L126.71,144.70L126.46,145.28L126.06,145.76L125.57,146.08L125.52,146.10L125.22,146.19L124.70,146.20L124.24,146.00"/><path d="M124.44,143.92L125.68,143.88L125.13,145.07L124.36,144.11"/><path d="M124.12,144.62L124.12,144.63"/><path d="M124.67,145.60L125.78,145.38L126.33,144.18L125.78,143.21"/><path d="M125.78,145.38L125.13,145.07L124.45,145.21"/><path d="M126.33,144.18L125.68,143.88L125.35,143.29"/></g><g style="stroke:#000000;stroke-width:0.705"><path d="M122.09,146.30L122.15,146.37L122.78,146.84L122.86,146.88L123.63,147.06L124.20,147.01L124.48,146.92L125.17,146.71L125.46,146.55L126.22,145.91L126.37,145.65L126.89,144.73L127.07,143.70L126.89,142.66L126.73,142.26L126.31,141.54L126.25,141.47L125.62,141.00L125.54,140.96L124.77,140.78L124.20,140.83L123.57,141.04L123.48,141.08L122.85,141.52L122.73,141.61L122.65,141.68L122.05,142.45L122.00,142.54L121.62,143.45L121.59,143.55L121.57,143.74L121.47,144.50L121.48,144.60L121.64,145.49L121.67,145.58L122.09,146.30"/><path d="M125.78,143.21L124.67,143.43L124.12,144.62L124.67,145.60"/></g></g><g id="Actor_.11"><g style="stroke:#000000;stroke-width:0.353"><path d="M214.34,82.56L214.83,82.42L215.25,82.46L215.36,82.51L215.62,82.77L215.72,83.17L215.66,83.66L215.42,84.18L215.20,84.52L214.76,84.97L214.26,85.32L213.76,85.51L213.30,85.53L213.06,85.45L212.80,85.19L212.70,84.79L212.77,84.30L212.94,83.90L213.00,83.78L213.37,83.28"/><path d="M214.00,84.97L214.23,84.26L215.13,83.65"/><path d="M213.17,84.68L213.52,83.61L214.23,84.26L214.63,84.54"/><path d="M213.52,83.61L214.56,82.90L215.25,83.28"/><path d="M213.83,82.85L214.09,82.70"/><path d="M215.19,83.48L214.56,82.90"/></g><g style="stroke:#000000;stroke-width:0.705"><path d="M214.16,82.66L214.02,82.73L213.83,82.85L213.37,83.28L213.21,83.46L213.00,83.78L212.69,84.42L212.50,85.50L212.68,86.58L212.72,86.71L212.80,86.87L213.03,87.32L213.34,87.56L213.76,87.70L213.83,87.71L214.54,87.67L214.63,87.65L215.41,87.33L215.50,87.28L216.27,86.74L216.36,86.67L217.03,85.95L217.12,85.83L217.60,85.03L217.65,84.93L217.90,84.13L217.92,84.05L217.91,83.34L217.89,83.27L217.62,82.73L217.31,82.49L216.87,82.34L216.22,82.18L216.11,82.19L215.02,82.29L214.34,82.56L214.09,82.70"/><path d="M215.25,83.28L214.90,84.36L213.86,85.06L213.17,84.68"/><path d="M217.67,84.88L220.50,87.53L220.70,87.79L220.76,88.17L220.67,88.61L220.44,89.08L220.09,89.52L219.67,89.88L219.22,90.13L218.78,90.24L218.41,90.19L218.15,90.00L215.34,87.36"/></g></g><g id="Actor_.12"><g style="stroke:#000000;stroke-width:0.353"><path d="M241.50,145.01L239.43,144.04"/><path d="M246.07,144.10L239.43,140.97"/><path d="M267.92,139.05L267.48,138.63L267.22,138.09"/><path d="M267.14,137.44L267.17,137.71"/><path d="M268.41,135.17L268.64,135.02"/><path d="M269.88,134.94L269.27,134.86L268.66,135.01"/><path d="M271.74,109.83L270.97,109.46"/></g><g style="stroke:#000000;stroke-width:0.705"><path d="M251.74,124.55L239.43,140.97L239.08,141.59L238.89,142.27L238.89,142.95L239.08,143.56L239.43,144.04L240.66,145.18"/><path d="M269.74,134.88L269.88,134.94L270.39,135.26L270.75,135.77L270.93,136.42L270.91,137.13L270.68,137.85L270.27,138.47L269.73,138.95L269.11,139.21L268.49,139.25L267.92,139.05L267.83,139.00"/><path d="M272.93,108.50L267.48,105.93"/></g></g><g id="Actor_.13"><g style="stroke:#000000;stroke-width:0.353"><path d="M121.50,67.70L121.48,67.58L121.32,67.36L121.04,67.09L121.03,67.07L120.64,66.74L120.19,66.40L119.74,66.08L119.34,65.83L119.01,65.67L118.81,65.62L118.76,65.68"/><path d="M126.77,63.22L126.78,63.04L126.76,63.01L126.67,62.89L126.51,62.66L126.46,62.61L125.98,62.11L125.91,62.05L125.24,61.47L125.16,61.40L124.39,60.80L124.30,60.74L123.52,60.19L123.43,60.13L122.72,59.69L122.65,59.65L122.20,59.42L121.89,59.30L121.62,59.28L121.60,59.29"/><path d="M125.55,62.28L125.54,62.17L125.37,61.95L125.08,61.66L124.69,61.33L124.25,60.98L123.80,60.67L123.39,60.42L123.28,60.37L123.07,60.26L122.87,60.21L122.81,60.27"/></g><g style="stroke:#000000;stroke-width:0.705"><path d="M125.55,62.28L121.50,67.70L121.36,67.70L121.10,67.59L120.73,67.39L120.29,67.10L119.84,66.77L119.42,66.43L119.08,66.11L118.85,65.85L118.76,65.68L122.81,60.27"/><path d="M122.59,60.57L122.49,60.48L122.40,60.40L121.91,59.90L121.87,59.86L121.61,59.50L121.60,59.47L121.60,59.29L121.72,59.21L122.20,58.96L122.79,58.76L123.43,58.62L123.89,58.62L124.15,58.71L124.26,58.76L124.68,59.00L125.18,59.33L125.68,59.70L126.15,60.09L126.52,60.44L126.75,60.71L126.82,60.87L127.01,61.85L126.95,62.50L126.77,63.22L126.75,63.23L126.49,63.21L126.18,63.09L125.75,62.87L125.68,62.83L125.31,62.61"/></g></g><g id="Actor_.14"><g style="stroke:#000000;stroke-width:0.353"><path d="M162.31,44.56L162.74,44.16L163.07,43.94L163.57,43.73L164.03,43.69L164.40,43.82L164.62,44.12L164.68,44.54L164.57,45.05L164.44,45.31L164.30,45.57L163.91,46.06L163.43,46.46L163.27,46.55L162.76,46.76L162.30,46.80L161.94,46.67L161.72,46.37L161.66,46.10L161.71,45.62L161.92,45.10"/><path d="M162.11,45.85L162.58,44.75L163.28,45.41L162.94,46.20"/><path d="M164.10,44.95L163.28,45.41L163.70,45.77"/><path d="M162.58,44.75L163.64,44.15L164.23,44.65"/><path d="M163.64,44.15L164.21,44.69"/></g><g style="stroke:#000000;stroke-width:0.705"><path d="M161.89,48.44L161.89,48.46L161.93,48.51L162.38,48.87L162.44,48.89L163.08,48.99L163.16,48.99L163.91,48.81L164.46,48.55L165.06,48.15L165.14,48.08L165.84,47.39L165.91,47.31L166.41,46.57L166.45,46.51L166.50,46.42L166.81,45.61L166.83,45.52L166.89,44.78L166.88,44.70L166.68,44.12L166.64,44.07L166.19,43.71L166.13,43.68L165.63,43.53L164.77,43.45L163.91,43.57L163.13,43.89L162.74,44.16L162.52,44.36L162.28,44.59L161.92,45.10L161.70,45.53L161.58,46.28L161.46,47.04L161.68,47.87L161.89,48.44"/><path d="M164.23,44.65L163.76,45.74L162.70,46.34L162.11,45.85"/><path d="M166.60,46.15L169.61,48.96L169.71,49.30L169.67,49.73L169.48,50.20L169.17,50.65L168.77,51.05L168.32,51.33L167.87,51.49L167.48,51.49L167.18,51.34L164.28,48.63"/></g></g><g id="Actor_.15"><g style="stroke:#000000;stroke-width:0.353"><path d="M112.07,162.23L111.72,161.85L111.52,161.34L111.50,160.95L111.49,160.74L111.64,160.14L111.95,159.59L112.38,159.15L112.89,158.89L113.06,158.85L113.58,158.84L114.04,159.04L114.39,159.42L114.59,159.94L114.63,160.32L114.54,160.93L114.29,161.51L113.89,161.99L113.40,162.31L113.06,162.43L112.53,162.43L112.07,162.23"/><path d="M111.95,160.85L111.95,160.86"/><path d="M113.18,159.53L113.51,160.11L112.96,161.31L113.61,161.61L112.50,161.83"/><path d="M112.19,160.34L112.96,161.31L112.28,161.44"/><path d="M113.61,159.44L114.16,160.42L113.51,160.11L112.28,160.16"/><path d="M113.61,161.61L114.16,160.42"/></g><g style="stroke:#000000;stroke-width:0.705"><path d="M109.47,161.71L109.47,161.72L109.50,161.81L109.92,162.53L109.98,162.60L110.61,163.08L110.69,163.11L111.46,163.29L112.03,163.25L112.31,163.15L113.00,162.95L113.30,162.78L114.05,162.15L114.21,161.88L114.73,160.96L114.90,159.93L114.73,158.90L114.56,158.49L114.14,157.77L114.08,157.71L113.45,157.23L113.37,157.19L112.60,157.02L112.03,157.06L111.40,157.27L111.31,157.31L110.56,157.84L110.48,157.92L109.88,158.68L109.83,158.77L109.45,159.68L109.42,159.78L109.31,160.73L109.31,160.84L109.47,161.71"/><path d="M112.50,161.83L111.95,160.86L112.50,159.66L113.61,159.44"/></g></g><g id="Actor_.16"><g style="stroke:#000000;stroke-width:0.353"><path d="M44.03,130.90L52.56,134.93"/><path d="M44.03,127.83L52.72,131.93L52.37,132.55L52.19,133.24L52.19,133.55"/><path d="M52.72,131.93L53.03,131.52"/><path d="M53.78,130.53L64.77,115.87"/><path d="M69.72,154.93L78.41,159.04L54.80,136.94"/><path d="M56.88,110.69L65.57,114.80L65.48,114.92"/><path d="M65.57,114.80L66.05,114.30L66.62,113.98L67.01,113.90"/><path d="M78.41,159.04L78.90,159.34"/></g><g style="stroke:#000000;stroke-width:0.705"><path d="M67.31,113.73L59.10,109.85L58.53,109.76L57.93,109.88L57.36,110.20L56.88,110.69L44.03,127.83L43.68,128.45L43.50,129.13L43.50,129.81L43.68,130.42L44.03,130.90L69.72,154.93L70.21,155.24L78.90,159.34L79.47,159.44L80.06,159.32L80.63,159.00L81.12,158.50L81.34,158.20"/><path d="M89.97,134.57L70.96,116.77"/></g></g><g id="Actor_.17"><g style="stroke:#000000;stroke-width:0.353"><path d="M96.70,165.45L94.22,163.86L92.39,161.42L91.35,158.33L91.19,154.86L71.33,145.48"/><path d="M80.77,132.88L100.63,142.27L103.71,141.83L106.62,142.43"/><path d="M91.19,154.86L100.63,142.27"/></g><g style="stroke:#000000;stroke-width:0.705"><path d="M100.63,165.91L99.60,166.05L96.70,165.45L76.83,156.07L74.36,154.48L72.52,152.03L71.48,148.94L71.33,145.48L80.77,132.88L83.85,132.44L86.75,133.04L106.62,142.43L108.15,143.41"/></g></g><g id="Actor_.18"><g style="stroke:#000000;stroke-width:0.353"><path d="M172.36,77.85L171.34,76.90L171.02,76.63"/><path d="M171.34,76.90L234.67,106.82L235.68,107.77"/><path d="M175.09,75.68L174.87,75.42L174.80,75.04L174.87,74.59L175.10,74.10L175.44,73.64L175.87,73.26L176.34,72.99L176.79,72.86L177.18,72.89L177.47,73.08"/><path d="M185.58,62.26L185.30,62.07L184.90,62.04L184.45,62.16L183.98,62.44L183.55,62.82L183.21,63.28L182.99,63.77L182.91,64.22L182.98,64.60L183.21,64.86"/><path d="M197.43,78.96L197.20,78.70L197.12,78.31L197.20,77.84L197.43,77.34L197.79,76.86L198.23,76.46L198.71,76.18L199.18,76.05L199.59,76.09L199.88,76.28"/><path d="M222.23,86.84L221.94,86.64L221.53,86.61L221.06,86.74L220.58,87.02L220.26,87.31"/><path d="M234.07,103.54L233.85,103.28L233.78,102.90L233.85,102.45L234.08,101.96L234.42,101.50L234.85,101.12L235.32,100.85L235.77,100.72L236.16,100.75L236.45,100.94"/><path d="M234.67,106.82L235.12,106.91L235.66,106.82L236.23,106.55L236.78,106.13L237.26,105.60L238.27,106.55"/><path d="M237.26,105.60L248.08,91.17L248.43,90.58L248.63,90.00L248.66,89.47L248.51,89.05"/><path d="M244.56,90.12L244.27,89.93L243.88,89.90L243.43,90.02L242.96,90.30L242.53,90.68L242.19,91.14L241.97,91.63L241.89,92.09L241.96,92.46L242.19,92.72"/><path d="M248.08,91.17L249.09,92.12"/></g><g style="stroke:#000000;stroke-width:0.705"><path d="M174.58,78.90L172.36,77.85L172.04,77.58L171.02,76.63L170.87,76.21L170.89,75.69L171.10,75.10L171.45,74.51L182.27,60.08L182.75,59.56L183.30,59.14L183.87,58.87L184.41,58.77L184.86,58.87L220.82,75.85"/><path d="M177.61,73.86L177.35,73.93L176.89,74.21L176.46,74.59L176.11,75.05L175.89,75.54L175.85,75.74"/><path d="M175.09,75.68L175.44,75.79L175.87,75.74L176.33,75.54L176.79,75.21L177.18,74.78L177.47,74.30L177.62,73.82L177.62,73.40L177.47,73.08"/><path d="M227.71,79.11L248.19,88.78L248.51,89.05L249.52,90.00L249.67,90.42L249.65,90.95L249.45,91.53L249.09,92.12L240.96,102.96L238.27,106.55L237.80,107.08L237.24,107.50L236.67,107.77L236.13,107.86L235.68,107.77L176.00,79.57"/><path d="M183.21,64.86L183.55,64.97L183.98,64.92L184.45,64.72L184.92,64.36L185.29,63.95L185.58,63.48L185.73,63.00L185.73,62.58L185.58,62.26"/><path d="M185.72,63.04L185.46,63.11L185.00,63.38L184.57,63.77L184.22,64.23L184.00,64.71L183.96,64.92"/><path d="M198.17,79.03L198.22,78.79L198.45,78.29L198.80,77.81L199.24,77.41L199.73,77.13L200.04,77.05L199.88,77.54L199.58,78.03L199.18,78.48L198.71,78.82L198.23,79.03L197.79,79.08L197.43,78.96"/><path d="M200.04,77.05L200.04,76.61L199.88,76.28"/><path d="M220.01,89.59L220.14,89.63L220.58,89.59L221.06,89.38L221.53,89.03L221.93,88.59L222.23,88.10L222.39,87.60L222.08,87.69L221.59,87.97L221.15,88.37L220.80,88.84L220.57,89.34L220.52,89.59"/><path d="M222.23,86.84L222.39,87.17L222.39,87.60"/><path d="M222.79,76.78L224.66,77.67"/><path d="M234.07,103.54L234.42,103.65L234.85,103.60L235.31,103.40L235.77,103.07L236.16,102.64L236.45,102.16L236.60,101.68L236.60,101.26L236.45,100.94"/><path d="M236.59,101.72L236.33,101.80L235.86,102.07L235.44,102.45L235.09,102.91L234.87,103.40L234.83,103.60"/><path d="M242.19,92.72L242.53,92.83L242.96,92.78L243.43,92.58L243.88,92.24L244.27,91.82L244.56,91.34L244.71,90.86L244.71,90.44L244.56,90.12"/><path d="M244.70,90.90L244.44,90.97L243.98,91.24L243.55,91.63L243.21,92.09L242.98,92.58L242.94,92.78"/></g></g><g id="Actor_.19"><g style="stroke:#000000;stroke-width:0.353"><path d="M57.54,130.41L56.60,130.69L55.72,130.87L54.51,131.02L54.17,132.08L53.75,133.04L52.99,134.30L52.07,133.87"/><path d="M52.99,134.30L53.97,135.84L54.51,136.98"/><path d="M53.59,130.58L54.51,131.02"/><path d="M54.92,136.14L54.41,135.62L54.11,134.90L54.05,134.07L54.23,133.21L54.59,132.51L54.64,132.42L55.23,131.78L55.94,131.37L56.68,131.22L57.39,131.35L57.98,131.75L58.39,132.38L58.57,133.17L58.51,134.03L58.21,134.86L57.71,135.59L57.05,136.12L56.31,136.41L55.57,136.42L54.92,136.14"/><path d="M54.92,133.84L54.88,134.12L54.95,134.63L55.18,135.06L55.53,135.35L55.96,135.48L56.43,135.43L56.89,135.21L57.28,134.84L57.57,134.36L57.73,133.82L57.73,133.28L57.57,132.81L57.28,132.44L56.89,132.23L56.43,132.19L55.96,132.32L55.53,132.63L55.18,133.06L54.95,133.57L54.92,133.84"/><path d="M55.57,135.03L55.93,135.14L56.31,135.10L56.69,134.91L57.01,134.61L57.25,134.22L57.37,133.78L57.37,133.34L57.25,132.95L57.01,132.65L56.69,132.47"/><path d="M55.28,134.44L55.63,134.20L55.92,133.84L56.10,133.42L56.16,132.97L56.10,132.55"/></g><g style="stroke:#000000;stroke-width:0.705"><path d="M52.68,135.12L52.54,134.88L52.07,133.87L52.75,132.00L53.59,130.58L54.95,130.21L56.63,129.98L57.54,130.41L58.13,131.29L58.59,132.08L59.06,133.09L58.38,134.96L57.54,136.38L56.18,136.75L54.51,136.98L53.59,136.55L53.00,135.67L52.68,135.12"/><path d="M55.57,135.03L55.29,134.79L55.10,134.44L55.04,134.02L55.10,133.57L55.29,133.15L55.57,132.80L55.93,132.55L56.31,132.44L56.69,132.47"/><path d="M55.28,134.44L55.13,134.49"/><path d="M56.10,132.55L56.15,132.86L56.07,133.37L55.87,133.84L55.55,134.24L55.24,134.45"/><path d="M56.10,132.55L56.08,132.51"/></g></g><g id="Actor_.20"><g style="stroke:#000000;stroke-width:0.353"><path d="M225.36,117.42L222.28,118.21L219.38,119.97L216.90,122.54L215.06,125.72L214.05,129.14L214.02,129.22L213.87,132.75L194.00,123.37"/><path d="M213.87,132.75L223.31,141.58"/></g><g style="stroke:#000000;stroke-width:0.705"><path d="M226.19,140.85L223.31,141.58L203.44,132.20L194.00,123.37L194.16,119.84L195.20,116.34L197.03,113.16L199.51,110.58L202.41,108.82L205.50,108.04L225.36,117.42L229.88,121.65"/></g></g><g id="Actor_.21"><g style="stroke:#000000;stroke-width:0.353"><path d="M54.55,148.27L41.03,135.62L40.63,135.28"/><path d="M41.03,135.62L45.07,137.52L45.52,137.77L46.63,138.52L47.66,139.37L49.01,137.57"/><path d="M41.17,132.63L42.41,133.22L43.73,134.45"/><path d="M42.30,133.75L42.26,133.64L42.27,133.51L42.41,133.22L41.71,132.26L41.34,131.04L41.34,129.68L41.71,128.32L42.41,127.08L41.17,126.49"/><path d="M42.41,127.08L55.93,109.04L54.69,108.45"/><path d="M47.55,140.36L47.37,140.33L47.07,140.19L46.67,139.94L45.77,139.30L45.07,138.66L44.89,138.43L44.85,138.30"/><path d="M45.07,137.52L46.42,135.72"/><path d="M47.66,139.37L58.47,149.50L58.83,149.86L59.03,150.13L59.06,150.28"/><path d="M52.96,145.89L53.00,146.02L53.18,146.25L53.88,146.89L54.78,147.54L55.48,147.92L55.66,147.95"/><path d="M54.73,168.65L54.73,166.48L54.44,166.28L54.36,166.07"/><path d="M54.73,166.48L57.53,167.80L57.53,169.97"/><path d="M55.93,109.04L56.90,108.05L58.04,107.40L59.23,107.17L60.37,107.36"/><path d="M57.53,167.80L58.00,167.97L58.62,168.08L59.32,168.12L60.03,168.10L60.68,168.01L60.68,170.18"/><path d="M64.13,165.95L64.12,166.29L63.75,166.62L63.06,166.89L62.12,167.08L61.03,167.16L59.90,167.13L58.87,166.99L58.05,166.76L57.51,166.46L57.33,166.11"/><path d="M57.33,165.03L57.51,165.37L58.05,165.67L58.87,165.91L59.90,166.05L61.03,166.08L62.12,165.99L63.06,165.81L63.75,165.53L64.12,165.21L64.13,164.86"/><path d="M57.97,164.43L57.96,164.26L83.43,159.18"/><path d="M57.96,164.26L57.96,149.88"/><path d="M62.44,164.95L62.26,164.78L61.91,164.65L61.44,164.55L60.90,164.51L60.34,164.52L59.82,164.59L59.40,164.71L59.14,164.86L59.04,165.03"/><path d="M58.47,149.50L59.83,147.69"/><path d="M60.68,168.01L89.82,162.20"/><path d="M62.39,164.12L84.54,159.71"/><path d="M64.47,110.89L62.01,108.60L62.27,108.36L62.42,108.29L62.55,108.27L62.66,108.29L64.85,110.34"/><path d="M62.66,108.29L66.70,110.20L67.15,110.44L68.26,111.19L69.29,112.05L70.64,110.25"/><path d="M64.50,110.81L64.87,110.88L65.49,111.18L66.28,111.65L67.17,112.26L68.07,112.94L68.86,113.62L69.49,114.23L69.84,114.67L69.88,114.81"/><path d="M67.66,113.54L66.95,113.05L66.16,112.38L65.91,112.11L65.80,111.93L65.84,111.85"/><path d="M70.59,114.03L70.52,113.77L70.15,113.31L69.54,112.72L68.74,112.04L67.85,111.36L66.95,110.75L66.16,110.27L65.54,109.98L65.18,109.91"/><path d="M66.70,110.20L68.05,108.40"/><path d="M68.55,113.92L68.50,113.93"/><path d="M80.69,122.95L80.67,122.80L80.47,122.53L80.11,122.17L69.29,112.05"/><path d="M70.98,116.07L72.97,117.93"/><path d="M78.03,122.52L77.95,122.26L77.59,121.81L76.97,121.21L76.18,120.53L75.28,119.85L74.39,119.24L73.59,118.76L72.98,118.47L72.72,118.42"/><path d="M73.94,119.57L73.92,119.52L73.95,119.44"/><path d="M73.29,117.50L73.66,117.57L74.27,117.86L75.06,118.34L75.96,118.95L76.85,119.63L77.65,120.31L78.27,120.90L78.63,121.36L78.71,121.62"/><path d="M76.66,121.51L76.55,121.53L76.30,121.44L75.94,121.24L75.18,120.72"/><path d="M80.11,122.17L81.46,120.37"/><path d="M87.57,132.32L153.24,119.24"/><path d="M208.02,134.36L139.99,147.91"/><path d="M209.14,134.89L140.65,148.53"/><path d="M141.62,151.88L214.42,137.38"/><path d="M180.96,112.88L182.20,113.47L159.58,117.97"/><path d="M173.52,126.76L173.89,127.07L174.13,127.53L174.21,128.08L174.13,128.66L173.89,129.21L173.52,129.67L173.05,129.99L172.55,130.14L172.07,130.09"/><path d="M184.34,110.62L185.58,111.20L184.59,112.26L183.44,113.03L182.20,113.47"/><path d="M185.58,111.20L192.77,101.61L192.77,101.59L191.54,101.01"/><path d="M191.38,96.21L191.57,96.19L191.96,96.34L196.00,98.25L196.45,98.34L196.99,98.25L197.56,97.98L198.11,97.56L198.59,97.03L199.94,98.30"/><path d="M192.77,101.59L193.09,101.08L193.28,100.52L193.34,99.95L192.10,99.36"/><path d="M192.10,97.19L193.34,97.78L193.43,97.66"/><path d="M191.96,96.34L197.07,89.53"/><path d="M193.34,99.95L193.34,97.78L193.20,97.58"/><path d="M196.00,98.25L197.35,99.51"/><path d="M196.00,95.17L195.82,94.89L195.78,94.50L195.89,94.05L196.13,93.60L196.50,93.15L196.93,92.80L197.38,92.57L197.81,92.49L198.17,92.56L198.41,92.77"/><path d="M198.59,97.03L202.35,92.02"/><path d="M212.89,136.66L211.82,136.52L211.01,136.29L210.48,135.98L210.29,135.64"/></g><g style="stroke:#000000;stroke-width:0.705"><path d="M42.30,133.75L42.38,133.81L46.42,135.72L46.87,135.96L47.98,136.72L48.53,137.15L59.83,147.69L60.18,148.05L60.39,148.32L60.41,148.47L59.06,150.28L58.90,150.29L58.59,150.17L54.55,148.27L54.15,147.93L40.63,135.28L40.44,134.76L40.47,134.09L40.72,133.36L41.17,132.63L40.47,131.67L40.10,130.45L40.10,129.09L40.47,127.73L41.17,126.49L54.69,108.45L55.66,107.46L56.79,106.82L57.99,106.58L59.13,106.77L60.37,107.36L61.34,107.96L62.01,108.60"/><path d="M44.85,138.30L44.96,138.28L45.20,138.37L45.99,138.84L46.44,139.17L47.23,139.84L47.48,140.10L47.59,140.29L47.55,140.36"/><path d="M50.63,139.09L50.92,138.70L50.99,138.55L50.77,138.18L50.27,137.65L49.56,137.01L48.70,136.31L47.79,135.66L46.93,135.11L46.22,134.72L45.72,134.53L45.50,134.58L45.11,135.10"/><path d="M55.66,147.95L55.70,147.88L55.59,147.69L55.00,147.11L54.56,146.76L53.67,146.16L53.32,145.96L53.07,145.87L52.96,145.89"/><path d="M57.33,165.13L55.40,165.52L54.87,165.66L54.51,165.85L54.36,166.07L54.36,168.24L54.44,168.45L54.73,168.65L57.53,169.97L58.00,170.14L58.62,170.25L59.32,170.29L60.03,170.27L60.68,170.18L93.05,163.73"/><path d="M53.91,142.15L54.33,142.31L55.04,142.70L55.90,143.25L56.81,143.90L57.67,144.59L58.38,145.24L58.88,145.77L59.10,146.14L59.03,146.29L58.74,146.67"/><path d="M56.96,165.20L56.79,164.54L56.72,163.67L56.72,149.29"/><path d="M57.33,166.11L57.33,165.03L57.52,164.69L58.06,164.39L58.89,164.15L59.92,164.01L61.04,163.99L62.14,164.07L63.07,164.26L63.76,164.54L64.13,164.86L64.13,165.95"/><path d="M62.44,164.95L62.44,165.12L62.25,165.28L61.91,165.42L61.44,165.51L60.89,165.56L60.33,165.54L59.81,165.47L59.40,165.35L59.13,165.20L59.04,165.03"/><path d="M78.42,122.00L80.22,122.85L80.54,122.97L80.69,122.95L82.04,121.15L82.02,121.00L81.82,120.73L81.46,120.37L70.17,109.83L69.61,109.39L68.50,108.64L68.05,108.40L64.01,106.49L63.45,106.37L62.76,106.50L62.06,106.83L61.37,107.35L61.00,107.75"/><path d="M65.18,109.91L64.50,110.81L64.43,110.96L64.66,111.33L65.15,111.86L65.87,112.51L66.72,113.20L67.40,113.69"/><path d="M68.55,113.92L68.51,113.78L68.32,113.56L67.62,112.92L66.73,112.27L66.33,112.03L66.02,111.89L65.84,111.85"/><path d="M69.97,114.87L70.59,114.03"/><path d="M72.65,118.36L73.29,117.50"/><path d="M76.66,121.51L76.62,121.37L76.44,121.15L75.73,120.51L74.84,119.86L74.44,119.62L74.13,119.48L73.97,119.45"/><path d="M78.71,121.62L78.03,122.52L77.81,122.57L77.33,122.39L76.41,121.87"/><path d="M86.84,131.63L151.99,118.65"/><path d="M141.34,154.11L217.65,138.91"/><path d="M196.57,89.29L191.38,96.21L191.40,96.40L191.66,96.74L192.10,97.19L192.10,99.36L192.03,99.95L191.85,100.50L191.54,101.01L184.34,110.62L183.35,111.68L182.20,112.45L180.96,112.88L158.84,117.29"/><path d="M172.07,130.09L171.64,129.86L171.33,129.48L171.17,128.97L171.17,128.40L171.33,127.82L171.64,127.31L172.07,126.91L172.55,126.68L173.05,126.62L173.52,126.76"/><path d="M171.38,129.53L171.81,129.40L172.27,129.08L172.65,128.62L172.89,128.07L172.97,127.49L172.89,126.94L172.74,126.66"/><path d="M204.05,92.82L199.94,98.30L199.47,98.83L198.91,99.24L198.34,99.51L197.80,99.61L197.35,99.51L193.32,97.61L193.20,97.58"/><path d="M196.00,95.17L196.31,95.31L196.70,95.31L197.15,95.15L197.60,94.85L198.00,94.46L198.30,94.00L198.49,93.54L198.52,93.11L198.41,92.77"/><path d="M210.29,135.64L210.29,135.43"/><path d="M230.38,105.26L222.34,115.99"/></g></g><g id="Actor_.22"><g style="stroke:#000000;stroke-width:0.353"><path d="M64.47,118.91L65.39,119.34L66.86,120.30L67.80,120.96"/><path d="M68.59,113.97L67.73,114.70L66.92,115.25L65.78,115.85L64.87,115.41"/><path d="M65.78,115.85L65.79,116.98L65.69,118.00L65.39,119.34"/><path d="M67.25,120.00L67.20,119.98L66.66,119.50L66.32,118.82L66.21,118.00L66.35,117.14L66.72,116.33L67.27,115.65L67.97,115.19L68.71,114.99L69.43,115.07L70.05,115.43L70.50,116.02L70.72,116.78L70.71,117.63L70.45,118.48L69.98,119.23L69.35,119.81L68.62,120.14L67.88,120.20L67.25,120.00"/><path d="M67.19,118.20L67.35,118.62L67.64,118.93L68.02,119.10L68.45,119.11L68.88,118.95L69.27,118.65L69.57,118.23L69.76,117.74L69.80,117.24L69.70,116.78L69.47,116.41L69.13,116.16L68.72,116.07L68.29,116.15L67.87,116.38"/><path d="M68.89,116.24L69.19,116.46L69.40,116.79L69.48,117.20L69.44,117.65L69.28,118.08L69.01,118.45L68.67,118.72L68.48,118.79L68.29,118.86L67.91,118.85L67.57,118.70"/></g><g style="stroke:#000000;stroke-width:0.705"><path d="M64.65,119.04L64.47,118.91L64.54,116.92L64.87,115.41L66.12,114.40L67.67,113.54L68.59,113.97L69.45,114.52L70.17,115.00L71.00,115.59L70.93,117.57L70.60,119.08L69.35,120.09L67.80,120.96L66.88,120.53L66.01,119.97L65.30,119.49L64.65,119.04"/><path d="M67.24,118.23L67.25,118.23L67.62,118.02L67.93,117.70L68.15,117.29L68.25,116.85L68.23,116.41L68.16,116.23"/><path d="M67.57,118.70L67.31,118.43L67.18,118.09"/><path d="M67.19,118.20L67.16,117.71L67.28,117.21L67.52,116.75L67.87,116.38"/><path d="M68.89,116.24L68.53,116.17L68.14,116.23L67.87,116.39"/></g></g><g id="Actor_.23"><g style="stroke:#000000;stroke-width:0.353"><path d="M183.61,117.67L192.30,121.77L191.95,121.29L191.76,120.69L191.76,120.01L191.95,119.32L192.30,118.71L183.61,114.60"/><path d="M192.30,121.77L205.15,133.79L196.45,129.69"/><path d="M192.30,118.71L209.70,95.49"/><path d="M205.63,134.09L205.15,133.79"/></g><g style="stroke:#000000;stroke-width:0.705"><path d="M195.55,98.66L183.61,114.60L183.26,115.22L183.07,115.90L183.07,116.58L183.26,117.19L183.61,117.67L196.45,129.69L196.94,129.99L205.63,134.09L206.20,134.19L206.80,134.07L207.07,133.91"/><path d="M229.24,104.72L221.19,115.45"/></g></g><g id="Actor_.24"><g style="stroke:#000000;stroke-width:0.353"><path d="M221.72,72.21L222.22,71.85L222.55,71.69L223.04,71.59L223.44,71.67L223.71,71.91L223.83,72.30L223.82,72.61L223.66,73.12L223.35,73.64L222.92,74.11L222.43,74.47L221.92,74.68L221.46,74.72L221.10,74.58L220.87,74.29L220.81,73.86L220.83,73.71L220.99,73.20L221.18,72.88"/><path d="M222.59,73.81L222.20,73.64L221.50,72.98L221.34,74.01"/><path d="M221.50,72.98L222.48,72.13L223.19,72.79L222.20,73.64L222.12,74.17"/><path d="M222.48,72.13L223.31,72.31"/><path d="M223.23,72.80L223.19,72.79L223.21,72.94"/></g><g style="stroke:#000000;stroke-width:0.705"><path d="M220.66,75.24L220.73,75.60L220.94,76.18L221.05,76.37L221.09,76.43L221.53,76.78L221.60,76.81L222.24,76.90L222.32,76.90L223.07,76.72L223.16,76.68L223.95,76.25L224.04,76.19L224.77,75.55L224.85,75.47L225.44,74.70L225.50,74.61L225.89,73.79L226.02,73.25L226.05,72.72L226.04,72.64L225.84,72.05L225.81,72.00L225.36,71.63L225.30,71.60L224.12,71.34L223.22,71.49L222.65,71.63L222.22,71.85L221.86,72.11L221.72,72.21L221.30,72.68L221.18,72.88L220.95,73.24L220.76,73.83L220.64,74.50L220.62,75.02L220.66,75.24"/><path d="M223.31,72.31L223.15,73.34L222.16,74.18L221.34,74.01"/><path d="M225.77,74.04L228.64,76.73L228.82,77.00L228.87,77.39L228.76,77.84L228.52,78.30L228.17,78.74L227.74,79.09L227.29,79.33L226.86,79.42L226.49,79.36L226.24,79.15L223.44,76.53"/></g></g><g id="Actor_.25"><g style="stroke:#000000;stroke-width:0.353"><path d="M172.34,87.98L172.37,87.90L172.25,87.71L172.00,87.44L171.64,87.12L171.20,86.77L170.75,86.45L170.32,86.17L169.97,85.98L169.73,85.90L169.63,85.92"/><path d="M177.66,83.46L177.60,83.23L177.58,83.19L177.25,82.79L177.20,82.74L176.66,82.21L176.59,82.15L175.88,81.55L175.80,81.49L175.23,81.05L174.68,80.66L173.93,80.17L173.85,80.12L173.21,79.76L173.15,79.73L172.70,79.56L172.66,79.55L172.46,79.58"/><path d="M173.68,80.51L173.79,80.48L174.03,80.57L174.38,80.76L174.81,81.03L175.26,81.36L175.69,81.71L176.05,82.03L176.31,82.30L176.42,82.49L176.39,82.57"/></g><g style="stroke:#000000;stroke-width:0.705"><path d="M176.39,82.57L172.34,87.98L172.16,87.95L171.86,87.81L171.50,87.59L171.47,87.57L171.02,87.27L170.57,86.93L170.17,86.59L169.86,86.29L169.67,86.06L169.63,85.92L173.68,80.51"/><path d="M173.44,80.83L172.89,80.30L172.84,80.25L172.53,79.85L172.50,79.82L172.45,79.59L172.46,79.58L173.36,79.11L174.44,78.92L174.72,78.89L174.94,78.95L175.31,79.13L175.77,79.41L176.27,79.76L176.60,80.02L177.06,80.40L177.41,80.74L177.63,81.00L177.75,81.36L177.88,82.44L177.66,83.46L177.65,83.48L177.45,83.50L177.41,83.49L176.96,83.32L176.90,83.29L176.26,82.94L176.16,82.88"/></g></g><g id="Actor_.26"><g style="stroke:#000000;stroke-width:0.353"><path d="M101.24,152.67L100.52,152.75L100.19,153.82L99.77,154.78L99.01,156.04L98.09,155.61"/><path d="M99.01,156.04L99.99,157.58L100.52,158.72"/><path d="M99.61,152.32L100.52,152.75"/></g><g style="stroke:#000000;stroke-width:0.705"><path d="M101.37,158.60L100.52,158.72L99.61,158.29L99.02,157.41L98.56,156.62L98.09,155.61L98.77,153.74L99.61,152.32L100.97,151.95L101.84,151.83"/></g></g><g id="Actor_.27"><g style="stroke:#000000;stroke-width:0.353"><path d="M288.87,127.12L288.69,127.05L288.34,126.67L288.14,126.15L288.11,125.56L288.26,124.95L288.57,124.40L289.00,123.97L289.51,123.71L289.68,123.66L290.20,123.66L290.66,123.86L291.02,124.24L291.22,124.75L291.26,125.14L291.17,125.75L290.91,126.33L290.51,126.80L290.02,127.13L289.68,127.24L289.16,127.25L288.87,127.12"/><path d="M289.13,126.65L290.23,126.43L289.58,126.12L290.14,124.93L288.90,124.97"/><path d="M288.81,125.15L289.58,126.12L288.91,126.26"/><path d="M288.58,125.67L288.58,125.67"/><path d="M290.23,126.43L290.78,125.23L290.14,124.93L289.81,124.34"/><path d="M290.23,124.26L290.78,125.23"/></g><g style="stroke:#000000;stroke-width:0.705"><path d="M286.55,127.35L286.13,126.63L286.09,126.54L285.93,125.65L285.93,125.55L286.01,124.91L286.04,124.60L286.07,124.49L286.45,123.59L286.51,123.49L287.11,122.73L287.18,122.66L287.31,122.57L287.93,122.13L288.02,122.09L288.65,121.88L289.22,121.83L289.99,122.01L290.07,122.05L290.70,122.52L290.76,122.59L291.18,123.31L291.35,123.71L291.53,124.74L291.35,125.78L290.83,126.70L290.68,126.96L289.92,127.60L289.62,127.76L288.94,127.97L288.65,128.06L288.09,128.11L287.32,127.93L287.24,127.89L286.61,127.42L286.55,127.35"/><path d="M289.13,126.65L288.57,125.67L289.05,124.65L289.13,124.48L290.23,124.26"/></g></g><g id="Actor_.28"><g style="stroke:#000000;stroke-width:0.353"><path d="M177.73,93.52L177.82,93.48L178.05,93.56L178.40,93.74L178.82,94.01L179.27,94.33L179.71,94.67L180.08,95.00L180.34,95.28L180.48,95.47L180.46,95.57"/><path d="M185.78,90.96L185.77,90.94L185.57,90.61L185.53,90.57L185.09,90.10L185.03,90.04L184.39,89.47L184.31,89.40L183.56,88.80L183.47,88.74L182.68,88.17L182.59,88.11L181.86,87.65L181.78,87.60L181.30,87.34L180.96,87.20L180.64,87.13L180.62,87.14"/><path d="M184.52,90.16L184.53,90.06L184.40,89.87L184.13,89.59L183.80,89.30L183.76,89.26L183.33,88.92L182.87,88.59L182.45,88.33L182.11,88.15L181.88,88.07L181.79,88.11"/></g><g style="stroke:#000000;stroke-width:0.705"><path d="M184.52,90.16L180.46,95.57L180.30,95.55L180.01,95.42L179.62,95.19L179.32,94.99L179.18,94.89L178.73,94.56L178.32,94.21L178.00,93.91L177.79,93.67L177.73,93.52L181.79,88.11"/><path d="M181.56,88.42L181.33,88.22L181.25,88.14L180.80,87.67L180.77,87.62L180.57,87.30L180.56,87.27L180.62,87.14L180.74,87.06L181.25,86.82L181.78,86.59L182.46,86.48L182.91,86.49L183.20,86.60L183.32,86.66L183.76,86.92L184.26,87.27L184.77,87.65L185.21,88.03L185.56,88.36L185.76,88.61L185.85,88.97L185.98,89.74L185.94,90.41L185.78,90.96L185.71,91.10L185.69,91.10L185.37,91.04L185.03,90.89L184.58,90.65L184.50,90.60L184.28,90.47"/></g></g><g id="Actor_.29"><g style="stroke:#000000;stroke-width:0.353"><path d="M155.07,54.70L155.58,54.52L156.02,54.53L156.13,54.56L156.43,54.79L156.56,55.16L156.53,55.64L156.33,56.16L156.12,56.50L155.70,56.97L155.21,57.34L154.71,57.57L154.24,57.63L153.98,57.57L153.69,57.35L153.55,56.97L153.58,56.50L153.72,56.15L153.78,55.98L154.12,55.47"/><path d="M154.03,56.83L154.31,55.77L155.01,56.42L155.97,55.71"/><path d="M154.31,55.77L155.34,55.01L156.08,55.31"/><path d="M154.57,55.02L154.83,54.86"/><path d="M155.41,56.66L155.01,56.42L154.84,57.08"/><path d="M155.34,55.01L156.00,55.62"/><path d="M158.02,54.51L158.03,54.51"/></g><g style="stroke:#000000;stroke-width:0.705"><path d="M157.26,54.35L157.22,54.34L158.03,54.51L158.38,54.73L158.70,55.21L158.72,55.28L158.78,55.96L158.77,56.04L158.57,56.83L158.53,56.92L158.09,57.74L158.01,57.86L157.37,58.60L157.29,58.67L156.91,58.97L156.53,59.26L156.44,59.32L155.65,59.68L155.57,59.71L154.83,59.81L154.76,59.81L154.31,59.71L153.97,59.50L153.65,59.01L153.61,58.94L153.40,57.93L153.36,57.72L153.49,56.64L153.78,55.98L153.97,55.67L154.12,55.47L154.57,55.02L154.74,54.90L154.83,54.86L155.08,54.70L155.72,54.43L155.91,54.38L156.94,54.25L157.81,54.46"/><path d="M154.03,56.83L154.77,57.13L155.80,56.37L156.08,55.31"/><path d="M158.51,56.98L161.28,59.58L161.51,59.81L161.60,60.17L161.54,60.60L161.34,61.07L161.02,61.52L160.61,61.90L160.16,62.18L159.72,62.32L159.33,62.30L159.04,62.14L156.16,59.45"/></g></g><g id="Actor_.30"><g style="stroke:#000000;stroke-width:0.353"><path d="M110.88,137.15L111.80,137.59L112.94,136.98L113.20,136.81L113.75,136.44L114.60,135.71"/><path d="M111.81,138.63L111.80,137.59"/></g><g style="stroke:#000000;stroke-width:0.705"><path d="M116.53,136.98L116.19,136.74L115.47,136.26L114.60,135.71L113.69,135.27L112.13,136.14L110.88,137.15L110.55,138.66L110.50,140.27"/></g></g><g id="Actor_.31"><g style="stroke:#000000;stroke-width:0.353"><path d="M276.83,115.79L276.53,115.66L276.17,115.28L275.97,114.77L275.94,114.17L276.09,113.57L276.40,113.02L276.83,112.58L277.34,112.32L277.51,112.28L278.03,112.27L278.50,112.47L278.85,112.85L279.05,113.37L279.09,113.75L279.00,114.36L278.74,114.94L278.35,115.42L277.86,115.74L277.51,115.86L276.99,115.86L276.83,115.79"/><path d="M276.74,114.87L277.42,114.74L277.97,113.54L276.73,113.59"/><path d="M276.96,115.26L278.06,115.04L277.42,114.74L276.65,113.77"/><path d="M276.41,114.28L276.41,114.29"/><path d="M278.06,112.87L278.61,113.85L277.97,113.54L277.64,112.96"/><path d="M278.06,115.04L278.61,113.85"/></g><g style="stroke:#000000;stroke-width:0.705"><path d="M274.38,115.96L274.44,116.03L275.07,116.51L275.15,116.54L275.92,116.72L276.49,116.68L276.77,116.58L277.46,116.38L277.75,116.21L278.51,115.58L278.66,115.31L279.18,114.39L279.36,113.36L279.18,112.33L279.01,111.92L278.59,111.20L278.53,111.14L277.90,110.66L277.82,110.62L277.05,110.45L276.49,110.49L275.86,110.70L275.77,110.74L275.01,111.27L274.94,111.35L274.34,112.11L274.28,112.20L273.90,113.11L273.88,113.21L273.76,114.16L273.76,114.27L273.81,114.54L273.93,115.15L273.96,115.24L274.38,115.96"/><path d="M278.06,112.87L276.96,113.09L276.83,113.38L276.41,114.29L276.96,115.26"/></g></g><g><g/></g><g><g><path style="stroke:#ff0000;stroke-width:0.500;stroke-dasharray:0.5 0.5" d="M169.08,50.74L184.59,64.61"/><path style="stroke:#ff0000;stroke-width:0.500;stroke-dasharray:0.5 0.5" d="M199.08,77.56L199.59,78.01"/></g></g><g><g><path style="stroke:#ff0000;stroke-width:0.500;stroke-dasharray:0.5 0.5" d="M176.49,75.43L160.97,61.57"/><path style="stroke:#ff0000;stroke-width:0.500;stroke-dasharray:0.5 0.5" d="M197.15,93.88L186.88,84.71"/></g></g><g><g><path style="stroke:#ff0000;stroke-width:0.500;stroke-dasharray:0.5 0.5" d="M99.23,92.30L78.56,117.65"/><path style="stroke:#ff0000;stroke-width:0.500;stroke-dasharray:0.5 0.5" d="M103.16,87.48L120.13,66.67"/></g></g><g><g><path style="stroke:#ff0000;stroke-width:0.500;stroke-dasharray:0.5 0.5" d="M91.28,84.85L70.76,110.35"/><path style="stroke:#ff0000;stroke-width:0.500;stroke-dasharray:0.5 0.5" d="M112.02,59.08L93.01,82.69"/></g></g><g><g/></g><g><g/></g><g><g><path style="stroke:#ff0000;stroke-width:0.500;stroke-dasharray:0.5 0.5" d="M228.22,78.67L243.31,92.63"/><path style="stroke:#ff0000;stroke-width:0.500;stroke-dasharray:0.5 0.5" d="M263.37,111.18L246.50,95.57"/></g></g><g><g><path style="stroke:#ff0000;stroke-width:0.500;stroke-dasharray:0.5 0.5" d="M235.62,103.18L220.13,89.48"/><path style="stroke:#ff0000;stroke-width:0.500;stroke-dasharray:0.5 0.5" d="M256.53,121.66L238.74,105.93"/></g></g><g><g><path style="stroke:#ff0000;stroke-width:0.500;stroke-dasharray:0.5 0.5" d="M157.86,119.89L136.85,144.98"/><path style="stroke:#ff0000;stroke-width:0.500;stroke-dasharray:0.5 0.5" d="M159.52,117.92L179.11,94.53"/></g></g><g><g><path style="stroke:#ff0000;stroke-width:0.500;stroke-dasharray:0.5 0.5" d="M149.75,112.30L128.74,137.39"/><path style="stroke:#ff0000;stroke-width:0.500;stroke-dasharray:0.5 0.5" d="M171.00,86.94L151.32,110.42"/></g></g><g/><g id="paperID" visibility="hidden" opacity="0.00" transform="scale(0.000100)"><path style="stroke:#000000;stroke-width:0.500;fill:#e6e6e6;fill-rule:evenodd" d="M-2000.00,-2000.00L2297.00,-2000.00L2297.00,2210.00L-2000.00,2210.00zM0.00,0.00L297.00,0.00L297.00,210.00L0.00,210.00z"/><path style="fill:#000000;fill-opacity:0.118" d="M3.00,210.00L297.00,210.00L297.00,3.00L300.00,3.00L300.00,213.00L3.00,213.00z"/></g><g id="ToolTip" visibility="hidden" opacity="0" transform="translate(0,0)"><rect id="ToolTipShadow" opacity="0.20" fill="black" stroke="none" x="0" y="0" width="30" height="8"/><rect id="ToolTipBG" fill="#ffffe1" stroke="black" x="0" y="0" width="30" height="8"/><text xml:space="preserve" id="ToolTipText" fill="black" x="0" y="0" width="30" height="8">tooltip</text></g></g></svg>
