<?xml version="1.0" encoding="UTF-8" standalone="no"?>
<svg xmlns="http://www.w3.org/2000/svg" xmlns:xlink="http://www.w3.org/1999/xlink" width="297.000mm" height="210.000mm" viewBox="0.000000 0.000000 297.000000 210.000000" stroke-linejoin="round" stroke-linecap="round" fill="none" fill-rule="evenodd"><desc>3DVIA Composer Export</desc><script type="text/ecmascript"><![CDATA[
if(typeof(top) != "undefined")
{
	top.ShowPaper = ShowPaper;
}
function ShowHotSpot(evt,hotspotid)
{
	var svgDocument = evt.target.ownerDocument;
	var strId = "hotspot."+hotspotid;
	var hotspot = svgDocument.getElementById(strId);
	if(hotspot)
		hotspot.setAttribute("opacity",".5");
}
function HideHotSpot(evt,hotspotid)
{
	var svgDocument = evt.target.ownerDocument;
	var strId = "hotspot."+hotspotid;
	var hotspot = svgDocument.getElementById(strId);
	if(hotspot)
		hotspot.setAttribute("opacity","0");

	var toolTip = svgDocument.getElementById('ToolTip');
	if(toolTip)
		toolTip.setAttribute("visibility","hidden");
}
function ShowToolTip(evt,hotspotid,strTooltip)
{
	if(strTooltip=="")
	return;

	// change text
	var svgDocument = evt.target.ownerDocument;
	var tiptext = svgDocument.getElementById('ToolTipText');
	if( !tiptext )
	return;
	tiptext.firstChild.nodeValue = " " + strTooltip + "  " ;

	// show tooltip before, else some refresh issue

	var toolTip = svgDocument.getElementById('ToolTip');
	if(!toolTip)
	return;

	toolTip.setAttribute("visibility","visible");
	toolTip.setAttribute("opacity",".95");

	// move tooltip
	// get viewbox

	var root = svgDocument.documentElement;
	var vbox = (root.getAttribute("viewBox")).split(' ');
	var x0 = parseFloat(vbox[0]);
	var y0 = parseFloat(vbox[1]);
	var vboxW = parseFloat(vbox[2]);
	var vboxH = parseFloat(vbox[3]);

	// get default width of svg

	var strW = root.getAttribute("width");
	var svgW = parseFloat(strW);
	if(strW.indexOf('mm') != -1)
	svgW *= 3.779;

	var strH = root.getAttribute("height");
	var svgH = parseFloat(strH);
	if(strH.indexOf('mm') != -1)
	svgH *= 3.779;  	// 96 dpi  -> 96/25.4 = 3.779

	// update the viewbox / width / height if svg is embedded in html with zoom fit all
	var realx0 = x0;
	var realy0 = y0;
	var realvboxW = vboxW;
	var realvboxH = vboxH;
	var realsvgW = svgW;
	var realsvgH = svgH;

	if ((typeof(top) == "undefined") || (typeof(top.svgctl1) != "undefined")) // embedded in html
	{
		// get window size in pxl

		svgW = window.innerWidth;
		svgH = window.innerHeight;

		// calculate real viewbox

		realsvgW = svgW;
		realsvgH = svgH;
		if((svgW / svgH) > (vboxW / vboxH))
		{
			realvboxW = (vboxH * svgW) / svgH;
			realvboxH = vboxH;
			realx0 = x0 - (realvboxW - vboxW)/2 ;
		}
		else
		{
			realvboxH = (vboxW * svgH) / svgW;
			realvboxW = vboxW;
			realy0 = y0 - (realvboxH - vboxH)/2 ;
		}
	}

	// get user zoom/pan

	var newScale = root.currentScale;
	var translation = root.currentTranslate;

	// transform pxl to user unit

	var xPos = (((evt.clientX+10- translation.x)/newScale) * realvboxW)/realsvgW  + realx0 ;
	var yPos = (((evt.clientY+5- translation.y)/newScale) * realvboxH)/ realsvgH  + realy0 ;
	var scaleForWidth = ( (1 / newScale) * realvboxH) / realsvgH;

	// move tooltip

	toolTip.setAttribute("transform", "translate(" + xPos + "," + yPos + ")" );

	// resize tooltip

	var fontsize = 12;
	tiptext.setAttribute("font-size",fontsize*scaleForWidth);
	tiptext.setAttribute("y", fontsize*scaleForWidth);
	var tipBG = svgDocument.getElementById('ToolTipBG');
	var outline = tiptext.getBBox();
	if(tipBG)
	{
		tipBG.setAttribute("stroke-width", 1*scaleForWidth);
		tipBG.setAttribute("width", Number(outline.width) );
		tipBG.setAttribute("height", Number(outline.height) + fontsize*.5*scaleForWidth );
	}
	var ToolTipShadow = svgDocument.getElementById('ToolTipShadow');
	if(ToolTipShadow)
	{
		ToolTipShadow.setAttribute("width", Number(outline.width) );
		ToolTipShadow.setAttribute("height", Number(outline.height) + fontsize*.5*scaleForWidth );
		ToolTipShadow.setAttribute("x", 3*scaleForWidth);
		ToolTipShadow.setAttribute("y", 3*scaleForWidth);
	}
}
function ShowPaper()
{
  var svgDocument = getDocument();
  var paper = svgDocument.getElementById("paperID");
  if(paper)
  {
    paper.setAttribute("transform","scale(1)");
    paper.setAttribute("opacity","1");
    paper.setAttribute("visibility","visible");
  }
  var svg = svgDocument.getRootElement();
  if(svg)
  {
    svg.setAttribute("width","307.000mm");
    svg.setAttribute("height","220.000mm");
    svg.setAttribute("viewBox","-5.000000 -5.000000 307.000000 220.000000");
  }
}
]]></script><defs/><g><path style="fill:#dcdcdc;fill-rule:evenodd" d="M112.63,60.61L113.44,60.09L114.03,60.10L114.04,61.00L112.94,60.92zM113.69,72.80L116.14,71.79L116.14,72.08L113.84,74.25L113.44,73.83L114.06,73.44zM111.65,74.06L110.76,74.55L111.39,73.80L111.69,73.80zM112.65,74.92L113.84,74.25L111.09,77.21L110.63,77.23L110.35,76.95L110.70,76.44L109.80,76.41L107.94,77.69L107.80,78.22L106.94,78.78L106.43,78.76L110.76,74.55L110.93,75.16L111.33,75.14L112.12,74.61zM115.86,77.96L115.54,78.26L114.72,78.34L114.82,77.25L115.08,77.18zM136.85,78.22L136.84,78.85L136.04,79.37L135.73,79.05L135.72,78.30L135.96,77.97L136.55,77.92zM109.35,78.33L108.22,78.57L108.23,78.29L109.13,77.73zM113.29,79.76L113.20,80.05L112.37,80.14L112.37,79.52L113.02,79.49zM121.80,80.31L120.68,80.67L120.67,79.25L121.53,79.26zM155.42,81.18L156.14,80.79L156.72,80.80L156.74,81.96L155.40,81.86zM117.92,83.49L117.58,83.73L117.06,83.76L116.85,83.45L116.87,81.43L117.33,81.03L117.65,81.05zM129.45,85.24L128.94,85.24L129.51,84.67L129.80,84.67zM121.55,88.04L121.22,88.37L120.68,88.42L120.40,87.76L120.65,87.51L121.27,87.55zM127.75,86.61L127.49,88.41L127.16,88.64L126.63,88.69L126.71,86.86L127.88,85.95L128.51,85.71zM124.04,89.87L124.69,89.65L124.65,90.23L124.10,90.15zM119.23,90.16L119.23,90.46L118.70,90.78L118.70,89.84zM126.21,91.25L122.35,94.40L118.33,96.64L117.80,96.61L122.49,92.99L125.89,91.14zM184.79,102.69L184.94,103.40L184.30,103.86L183.82,103.96L183.90,102.90L184.34,102.52zM218.37,108.53L218.36,108.83L217.51,108.48L217.46,108.23L218.07,108.21zM213.64,109.65L214.08,109.27L214.97,109.29L214.67,110.68L213.92,110.59L213.64,110.31zM216.21,114.27L216.43,113.69L217.74,113.45L220.68,111.37L220.29,112.90L217.22,115.26L216.15,120.18L216.50,121.97L216.28,122.31L215.40,122.58L215.19,121.99L215.21,120.50L216.21,115.21zM249.92,118.31L249.92,118.96L249.61,119.48L249.36,118.15L249.65,118.06zM237.22,122.88L236.97,123.13L236.89,121.66L237.18,121.67zM227.89,140.36L227.60,140.44L218.29,124.29L218.32,123.76zM206.43,126.46L205.64,127.26L205.63,125.66L206.41,125.57zM218.09,128.15L217.48,128.46L216.67,128.53L216.73,128.01L217.85,127.91zM237.64,128.14L246.67,119.87L248.36,118.61L248.36,119.20L243.05,124.02L238.00,128.79zM235.96,122.55L234.36,124.12L227.29,130.25L225.71,131.82L225.20,131.89L225.20,131.31L235.59,122.18L235.92,122.22zM198.15,133.05L197.83,133.38L196.99,133.44L196.98,133.13L197.53,132.80zM210.59,135.51L209.79,136.31L209.50,135.71L209.50,134.45L210.03,133.63L210.32,133.62zM197.34,136.48L198.41,136.73L196.82,136.74L196.29,136.42L196.24,136.18L196.83,136.17zM205.58,136.79L205.81,136.46L206.69,136.46L206.72,136.79L206.31,137.25L205.63,137.25zM224.02,138.29L222.61,138.62L222.69,138.10L223.50,137.98zM179.50,145.26L179.27,148.22L164.67,159.75L156.22,166.59L155.69,162.60L154.92,160.26L154.64,159.76L154.65,158.80L177.88,141.08L178.19,141.10zM203.61,142.39L202.50,142.75L202.51,142.25L203.35,142.13zM210.31,143.55L209.51,144.07L209.43,143.47L210.10,143.19zM227.39,143.03L226.60,143.82L226.60,141.73L227.39,141.11zM223.50,144.24L221.66,144.53L221.31,144.27L221.30,143.98L222.72,143.96zM202.55,145.76L203.58,146.04L202.25,146.05L201.72,145.74L201.68,145.49L202.26,145.49zM201.81,147.84L201.78,148.19L200.66,148.11L200.38,147.85L201.52,147.55zM198.41,150.13L198.30,151.24L197.90,151.23L197.57,150.69L197.52,150.18L198.18,149.90zM192.47,167.22L191.81,168.04L191.40,168.06L191.39,167.06L192.21,166.96zM181.05,168.80L180.42,169.60L179.94,169.69L180.02,168.60L180.54,168.52zM195.03,168.64L201.65,162.57L203.48,161.02L203.58,162.18L203.06,162.95L201.26,164.51L195.44,169.85L195.03,169.87zM184.94,174.22L184.71,174.62L184.67,173.71zM172.87,174.86L173.02,175.66L172.71,175.65L172.76,174.74zM188.22,174.99L188.51,175.00L188.83,175.80L188.84,176.67L188.54,177.18zM176.41,176.28L176.39,177.97L175.80,175.98L176.13,175.80zM174.50,183.01L174.83,183.02L174.88,183.63L174.58,183.59zM163.22,184.16L162.97,184.12L162.89,183.01L163.15,182.98zM178.22,184.86L177.93,185.72L177.93,184.07zM166.06,184.82L166.04,185.99L165.67,184.34zM162.97,194.45L162.96,194.75L162.45,195.05L162.12,194.71L162.07,194.15L162.40,194.12zM151.59,194.39L151.48,194.70L150.96,194.78L150.71,194.12L151.31,194.13zM154.67,196.60L154.05,197.54L153.27,197.55L154.01,195.40L154.65,195.17zM166.32,197.11L165.41,198.06L164.93,198.08L165.66,195.94L166.32,195.45z"/><g><g><path style="stroke:#000000;stroke-width:0.500" d="M231.70,84.42L244.47,122.02"/></g><g><path style="fill:#000000" d="M245.38,122.00L245.37,121.90L245.36,121.80L245.33,121.71L245.30,121.62L245.26,121.53L245.21,121.44L245.15,121.36L245.08,121.29L245.01,121.23L244.93,121.17L244.85,121.12L244.76,121.08L244.67,121.04L244.57,121.02L244.47,121.00L244.38,121.00L244.28,121.00L244.18,121.02L244.09,121.04L243.99,121.08L243.90,121.12L243.82,121.17L243.74,121.23L243.67,121.29L243.60,121.36L243.54,121.44L243.49,121.53L243.45,121.62L243.42,121.71L243.39,121.80L243.38,121.90L243.38,122.00L243.38,122.10L243.39,122.19L243.42,122.29L243.45,122.38L243.49,122.47L243.54,122.55L243.60,122.63L243.67,122.71L243.74,122.77L243.82,122.83L243.90,122.88L243.99,122.92L244.09,122.96L244.18,122.98L244.28,122.99L244.38,123.00L244.47,122.99L244.57,122.98L244.67,122.96L244.76,122.92L244.85,122.88L244.93,122.83L245.01,122.77L245.08,122.71L245.15,122.63L245.21,122.55L245.26,122.47L245.30,122.38L245.33,122.29L245.36,122.19L245.37,122.10z"/></g><g><path style="fill:#fffbf0" d="M196.39,85.21L266.85,85.21L266.85,79.00L196.39,79.00z"/><path style="stroke:#000000;stroke-width:0.500;stroke-opacity:0.98" d="M196.39,85.21L266.85,85.21L266.85,79.00L196.39,79.00z"/><text xml:space="preserve" fill="#000000" stroke-width="0" x="197.16" y="83.47" font-size="3.79" opacity="1.00" font-family="MS Shell Dlg">M2.5 Pan Headed Machine Screw 25mm</text></g></g><g><g><path style="stroke:#000000;stroke-width:0.500" d="M234.13,171.09L230.25,171.09L187.64,176.27"/></g><g><path style="fill:#000000" d="M188.62,176.22L188.61,176.12L188.60,176.03L188.57,175.93L188.54,175.84L188.50,175.75L188.45,175.67L188.39,175.59L188.32,175.51L188.25,175.45L188.17,175.39L188.09,175.34L188.00,175.30L187.91,175.26L187.81,175.24L187.71,175.23L187.62,175.22L187.52,175.23L187.42,175.24L187.33,175.26L187.23,175.30L187.14,175.34L187.06,175.39L186.98,175.45L186.91,175.51L186.84,175.59L186.78,175.67L186.73,175.75L186.69,175.84L186.66,175.93L186.63,176.03L186.62,176.12L186.62,176.22L186.62,176.32L186.63,176.42L186.66,176.51L186.69,176.60L186.73,176.69L186.78,176.78L186.84,176.86L186.91,176.93L186.98,176.99L187.06,177.05L187.14,177.10L187.23,177.15L187.33,177.18L187.42,177.20L187.52,177.22L187.62,177.22L187.71,177.22L187.81,177.20L187.91,177.18L188.00,177.15L188.09,177.10L188.17,177.05L188.25,176.99L188.32,176.93L188.39,176.86L188.45,176.78L188.50,176.69L188.54,176.60L188.57,176.51L188.60,176.42L188.61,176.32z"/></g><g><path style="fill:#fffbf0" d="M233.30,174.14L264.54,174.14L264.54,167.94L233.30,167.94z"/><path style="stroke:#000000;stroke-width:0.500;stroke-opacity:0.98" d="M233.30,174.14L264.54,174.14L264.54,167.94L233.30,167.94z"/><text xml:space="preserve" fill="#000000" stroke-width="0" x="234.08" y="172.40" font-size="3.77" opacity="1.00" font-family="MS Shell Dlg">M2.5 Flat Washer</text></g></g><g><g><path style="stroke:#ffffff;stroke-width:2.500;stroke-opacity:0.50" d="M234.43,178.93L230.54,178.93L177.50,185.81"/><path style="stroke:#000000;stroke-width:0.500" d="M234.43,178.93L230.54,178.93L177.50,185.81"/></g><g><path style="fill:#000000" d="M178.48,185.74L178.47,185.65L178.46,185.55L178.43,185.45L178.40,185.36L178.36,185.27L178.31,185.19L178.25,185.11L178.18,185.04L178.11,184.97L178.03,184.91L177.95,184.86L177.86,184.82L177.77,184.79L177.67,184.76L177.57,184.75L177.48,184.74L177.38,184.75L177.28,184.76L177.19,184.79L177.09,184.82L177.01,184.86L176.92,184.91L176.84,184.97L176.77,185.04L176.70,185.11L176.65,185.19L176.59,185.27L176.55,185.36L176.52,185.45L176.50,185.55L176.48,185.65L176.48,185.74L176.48,185.84L176.50,185.94L176.52,186.03L176.55,186.13L176.59,186.22L176.65,186.30L176.70,186.38L176.77,186.45L176.84,186.52L176.92,186.58L177.01,186.63L177.09,186.67L177.19,186.70L177.28,186.72L177.38,186.74L177.48,186.74L177.57,186.74L177.67,186.72L177.77,186.70L177.86,186.67L177.95,186.63L178.03,186.58L178.11,186.52L178.18,186.45L178.25,186.38L178.31,186.30L178.36,186.22L178.40,186.13L178.43,186.03L178.46,185.94L178.47,185.84z"/></g><g><path style="fill:#fffbf0" d="M233.58,181.97L274.96,181.97L274.96,175.77L233.58,175.77z"/><path style="stroke:#000000;stroke-width:0.500;stroke-opacity:0.98" d="M233.58,181.97L274.96,181.97L274.96,175.77L233.58,175.77z"/><text xml:space="preserve" fill="#000000" stroke-width="0" x="234.36" y="180.23" font-size="3.78" opacity="1.00" font-family="MS Shell Dlg">M2.5 Split Lock Washer</text></g></g><g><g><path style="stroke:#000000;stroke-width:0.500" d="M234.16,186.79L230.28,186.79L165.33,197.60"/></g><g><path style="fill:#000000" d="M166.31,197.50L166.31,197.41L166.30,197.31L166.27,197.21L166.24,197.12L166.20,197.03L166.15,196.95L166.09,196.87L166.02,196.80L165.95,196.73L165.87,196.67L165.79,196.62L165.70,196.58L165.61,196.55L165.51,196.52L165.41,196.51L165.31,196.50L165.22,196.51L165.12,196.52L165.02,196.55L164.93,196.58L164.84,196.62L164.76,196.67L164.68,196.73L164.61,196.80L164.54,196.87L164.48,196.95L164.43,197.03L164.39,197.12L164.36,197.21L164.33,197.31L164.32,197.41L164.31,197.50L164.32,197.60L164.33,197.70L164.36,197.79L164.39,197.89L164.43,197.97L164.48,198.06L164.54,198.14L164.61,198.21L164.68,198.28L164.76,198.33L164.84,198.39L164.93,198.43L165.02,198.46L165.12,198.48L165.22,198.50L165.31,198.50L165.41,198.50L165.51,198.48L165.61,198.46L165.70,198.43L165.79,198.39L165.87,198.33L165.95,198.28L166.02,198.21L166.09,198.14L166.15,198.06L166.20,197.97L166.24,197.89L166.27,197.79L166.30,197.70L166.31,197.60z"/></g><g><path style="fill:#fffbf0" d="M233.30,189.81L257.73,189.81L257.73,183.60L233.30,183.60z"/><path style="stroke:#000000;stroke-width:0.500;stroke-opacity:0.98" d="M233.30,189.81L257.73,189.81L257.73,183.60L233.30,183.60z"/><text xml:space="preserve" fill="#000000" stroke-width="0" x="234.08" y="188.06" font-size="3.76" opacity="1.00" font-family="MS Shell Dlg">M2.5 Hex Nut</text></g></g><g id="Actor_.0"><g style="stroke:#000000;stroke-width:0.353"><path d="M196.72,147.77L196.25,148.18"/></g><g style="stroke:#000000;stroke-width:0.705"><path d="M197.98,151.17L198.45,150.76L198.35,149.99L198.00,149.18L197.43,148.40L196.72,147.77L196.10,147.92"/></g></g><g id="Actor_.1"><g style="stroke:#000000;stroke-width:0.353"><path d="M161.00,135.63L171.93,131.78L172.36,131.74L172.85,131.88L173.36,132.19L173.84,132.65L174.23,133.20L194.60,168.49L203.34,160.47"/><path d="M171.93,131.78L181.35,125.02"/><path d="M174.23,133.20L183.65,126.35"/><path d="M182.12,170.82L181.91,171.00L181.60,171.04L181.23,170.94L180.83,170.70L180.45,170.35L180.13,169.93L180.00,169.69L179.90,169.49L179.79,169.07L179.81,168.72L179.96,168.47"/><path d="M193.79,169.35L193.55,169.55L193.20,169.59L192.78,169.48L192.34,169.23L191.93,168.86L191.58,168.42L191.34,167.95L191.23,167.50L191.27,167.12L191.44,166.86"/><path d="M194.60,168.49L194.87,169.07L194.97,169.61L194.90,170.06L194.66,170.37"/></g><g style="stroke:#000000;stroke-width:0.705"><path d="M185.59,171.56L194.29,170.51L194.66,170.37L203.36,162.32L203.60,162.01L203.69,161.56L203.60,161.03L203.34,160.47L183.65,126.35L183.26,125.81L182.79,125.38L182.29,125.08L181.79,124.96L181.35,125.02L170.20,129.14L160.71,135.83L160.55,136.18L160.54,136.43"/><path d="M183.17,171.85L181.99,171.99L181.57,171.95L181.09,171.74L180.60,171.40L180.15,170.94L179.79,170.41L170.73,154.73"/><path d="M179.96,168.47L180.22,168.35L180.56,168.38L180.96,168.56L181.36,168.85L181.72,169.24L182.00,169.68L182.17,170.13L182.21,170.52L182.12,170.82"/><path d="M191.44,166.86L191.74,166.73L192.13,166.76L192.56,166.94L193.00,167.26L193.39,167.67L193.69,168.14L193.87,168.61L193.90,169.03L193.79,169.35"/></g></g><g id="Actor_.2"><g style="stroke:#000000;stroke-width:0.353"><path d="M138.85,151.74L146.34,149.54L148.95,151.56L151.44,154.27L153.58,157.41L155.14,160.68L155.99,163.76L156.06,166.38"/><path d="M146.34,149.54L170.40,132.32"/></g><g style="stroke:#000000;stroke-width:0.705"><path d="M139.50,155.81L139.05,154.30L138.85,151.74L162.37,135.14L170.40,132.32L172.98,134.06L175.39,136.47L177.40,139.34L178.80,142.38L179.48,145.31L179.37,147.86L156.06,166.38L148.10,167.76L145.64,165.73L143.35,163.15L141.39,160.24L139.92,157.21L139.50,155.81"/></g></g><g id="Actor_.3"><g style="stroke:#000000;stroke-width:0.353"><path d="M106.38,78.67L106.37,78.61L106.46,78.46L110.62,74.19L110.85,74.00L111.16,73.77L111.92,73.33L112.30,73.16L111.58,71.92"/><path d="M106.46,78.46L105.78,77.27"/><path d="M107.97,78.43L108.08,78.25L108.38,77.97L108.83,77.64L109.39,77.29L109.99,76.96L110.56,76.69L111.05,76.50L111.41,76.42L111.58,76.45"/><path d="M107.63,77.84L107.74,77.65L108.04,77.37L108.49,77.04L109.04,76.69L109.64,76.36L110.22,76.09L110.71,75.90L111.06,75.82L111.24,75.85"/><path d="M108.88,77.95L108.92,77.99L109.06,77.98L109.27,77.91L109.84,77.64L110.38,77.30L110.57,77.15L110.67,77.03L110.68,76.96"/><path d="M109.91,72.96L110.62,74.19"/><path d="M109.83,62.08L109.70,60.72L215.12,113.10L214.81,114.73"/><path d="M109.70,60.72L109.48,60.56L109.39,60.37"/><path d="M111.02,77.15L111.31,76.86"/><path d="M111.10,75.26L111.23,75.06L111.54,74.77L112.01,74.43L112.58,74.07L113.19,73.73L113.78,73.45L114.28,73.26L114.63,73.19L114.80,73.23"/><path d="M114.45,72.62L114.28,72.58L113.93,72.65L113.43,72.84L112.84,73.11L112.22,73.45L111.65,73.81L111.18,74.16L110.87,74.45L110.75,74.65"/><path d="M113.26,80.72L113.13,80.77L112.96,80.74L112.77,80.61L112.60,80.42L112.45,80.17L112.34,79.90L112.29,79.64L112.30,79.41L112.36,79.23L112.48,79.13"/><path d="M114.51,73.66L111.41,76.76"/><path d="M112.74,74.80L111.40,76.15"/><path d="M113.88,73.75L113.87,73.83L113.76,73.95L113.56,74.11L113.00,74.47L112.42,74.74L112.21,74.81L112.07,74.82L112.03,74.77"/><path d="M112.30,73.16L115.93,71.61L114.62,72.92"/><path d="M114.82,60.32L114.76,60.17L114.58,60.04L114.31,59.95L113.97,59.91L113.60,59.92L113.25,59.97L112.95,60.07L112.73,60.21L112.61,60.36L112.61,60.52"/><path d="M115.80,79.05L115.62,79.12L115.41,79.07L115.18,78.92L114.96,78.68L114.77,78.37L114.64,78.03L114.57,77.70L114.58,77.41L114.67,77.19L114.82,77.06"/><path d="M114.60,73.57L116.38,71.80L116.22,71.64L116.12,71.60L116.02,71.59L115.93,71.61"/><path d="M116.71,95.52L117.40,96.72L117.29,96.82L117.28,96.87"/><path d="M119.36,85.27L118.96,85.41L118.49,85.29L117.98,84.95L117.50,84.42L117.09,83.75L116.80,83.01L116.66,82.29L116.69,81.66L116.88,81.19L117.21,80.93"/><path d="M116.01,59.48L217.26,108.19L217.66,107.97L217.99,107.97"/><path d="M117.40,96.72L121.98,93.11L121.26,91.87"/><path d="M118.57,89.68L118.45,89.77L118.37,89.93L118.36,90.16L118.41,90.42L118.52,90.68L118.67,90.93L118.85,91.13L119.03,91.26L119.21,91.30L119.35,91.26"/><path d="M121.26,94.58L121.02,94.77L120.52,95.09L119.94,95.41L119.54,95.58L119.46,95.59"/><path d="M121.34,94.90L127.18,90.35L123.30,92.28L122.54,92.73L121.98,93.11"/><path d="M121.65,89.19L121.47,89.25L121.25,89.19L121.02,89.03L120.79,88.79L120.61,88.48L120.48,88.14L120.41,87.82L120.43,87.53L120.52,87.32L120.68,87.21"/><path d="M120.82,78.95L120.62,79.11L120.50,79.39L120.48,79.78L120.56,80.21L120.73,80.66L120.97,81.06L121.27,81.38L121.57,81.58L121.87,81.64L122.11,81.56"/><path d="M123.67,92.09L122.95,90.85"/><path d="M122.91,92.89L122.98,92.88L123.39,92.71L123.98,92.39L124.50,92.05L124.75,91.85"/><path d="M126.55,89.07L126.60,88.99L126.62,88.89L126.61,88.79L126.57,88.68L125.27,89.71"/><path d="M127.64,88.16L126.57,88.68L126.50,87.47L127.57,86.95"/><path d="M126.50,87.47L126.51,87.17L126.59,86.93L126.72,86.76L130.07,84.06"/><path d="M126.72,86.76L127.79,86.24"/><path d="M127.18,90.35L127.55,90.07"/><path d="M137.08,79.96L136.86,80.03L136.60,79.98L136.32,79.81L136.07,79.54L135.86,79.20L135.72,78.83L135.66,78.46L135.70,78.13L135.82,77.89L136.01,77.75"/><path d="M157.77,81.42L157.77,81.20L157.64,81.00L157.39,80.83L157.04,80.71L156.63,80.65L156.22,80.66L155.83,80.74L155.51,80.87L155.31,81.05L155.23,81.26"/><path d="M183.99,102.50L183.78,102.75L183.68,103.09L183.70,103.50L183.85,103.93L184.09,104.32L184.41,104.65L184.77,104.87L185.14,104.96L185.47,104.91"/><path d="M192.74,134.82L193.89,134.47L193.67,133.95L193.57,133.39L193.61,132.86L193.79,132.41L194.08,132.07L192.93,132.43"/><path d="M199.88,147.19L201.08,146.91L193.89,134.47"/><path d="M194.08,132.07L197.54,129.37L197.87,129.17L198.09,129.08L206.93,144.37"/><path d="M198.26,136.60L197.62,136.75L196.93,136.62L196.27,136.21L195.72,135.57L195.32,134.77L195.13,133.90L195.16,133.06L195.42,132.33L195.87,131.79L196.46,131.51"/><path d="M198.85,136.43L198.21,136.58L197.52,136.45L196.86,136.04L196.30,135.40L195.90,134.60L195.71,133.73L195.75,132.88L196.00,132.15L196.44,131.62L197.04,131.33"/><path d="M198.32,135.18L198.58,134.97L198.75,134.65L198.82,134.25L198.78,133.82L198.63,133.40L198.39,133.03L198.09,132.77L197.75,132.63L197.41,132.63"/><path d="M197.54,129.37L206.37,144.66"/><path d="M202.66,147.77L202.24,147.80L201.81,147.66L201.41,147.35L201.08,146.91"/><path d="M201.79,140.74L201.21,141.04L200.85,141.50L200.77,141.60L200.52,142.34L200.49,143.20L200.69,144.08L201.09,144.88L201.64,145.51L202.30,145.91L202.97,146.03"/><path d="M202.38,140.59L201.80,140.89L201.37,141.45L201.12,142.19L201.09,143.05L201.29,143.93L201.69,144.73L202.25,145.37L202.90,145.77L203.58,145.89"/><path d="M202.76,141.90L203.09,141.89L203.43,142.02L203.73,142.28L203.97,142.65L204.12,143.07L204.17,143.51L204.10,143.91L203.93,144.24L203.67,144.46L203.36,144.55"/><path d="M207.70,138.47L207.41,138.61L207.04,138.61L206.64,138.47L206.26,138.22L205.92,137.87L205.67,137.47L205.54,137.05L205.53,136.67L205.66,136.36"/><path d="M208.19,128.36L207.80,128.56L207.32,128.58L206.79,128.42L206.28,128.10L205.84,127.65L205.52,127.12L205.34,126.57L205.34,126.05L205.50,125.63L205.82,125.34"/><path d="M211.03,144.95L210.78,145.05L210.48,145.04L210.15,144.93L209.83,144.71L209.56,144.43L209.36,144.10L209.25,143.76L209.25,143.46L209.35,143.21"/><path d="M209.68,133.69L209.39,134.39L209.39,135.24L209.68,136.17L210.24,137.07L210.99,137.85L211.87,138.42L212.78,138.72L213.62,138.72L214.31,138.42"/><path d="M212.76,129.81L214.15,129.40L222.05,143.07L220.60,143.40"/><path d="M212.88,127.21L214.27,126.78L213.97,127.15L213.81,127.64L213.78,128.22L213.90,128.82L214.15,129.40"/><path d="M216.59,110.05L216.50,109.76L216.25,109.47L215.88,109.24L215.41,109.07L214.90,108.98L214.41,108.99L213.99,109.10L213.68,109.29L213.51,109.54"/><path d="M214.27,126.78L217.78,123.91L227.46,140.67"/><path d="M216.37,124.35L215.66,123.12L216.72,122.26"/><path d="M215.66,123.12L215.25,122.22L215.07,121.33L215.10,120.50L216.17,119.65"/><path d="M215.10,120.50L216.16,115.08"/><path d="M217.69,114.73L218.02,113.10L217.58,113.32L217.02,113.44L216.37,113.44L215.72,113.32L215.12,113.10"/><path d="M218.01,130.47L218.31,130.32L218.54,130.03L218.65,129.63L218.65,129.17L218.54,128.70L218.32,128.27L218.25,128.19L218.02,127.92L217.68,127.69L217.32,127.61L216.99,127.69"/><path d="M217.36,123.37L216.30,124.23L216.45,124.21L216.47,124.23"/><path d="M217.78,123.91L218.10,123.59L218.22,123.37"/><path d="M218.02,113.10L220.53,111.15L220.19,112.77"/><path d="M220.53,111.15L220.78,110.84"/><path d="M223.72,144.02L223.28,144.05L222.83,143.89L222.40,143.55L222.05,143.07"/><path d="M223.88,140.63L224.17,140.47L224.39,140.17L224.50,139.76L224.50,139.30L224.38,138.82L224.16,138.39L223.88,138.05L223.52,137.82L223.17,137.75"/><path d="M225.74,144.45L226.26,143.80L226.48,142.93L226.35,141.91L226.29,141.76"/></g><g style="stroke:#000000;stroke-width:0.705"><path d="M107.82,78.17L106.75,78.62L106.51,78.68L106.38,78.67L105.70,77.49L105.68,77.41L105.78,77.27L109.87,72.99L110.13,72.76L110.44,72.54L111.21,72.09L115.22,70.39L115.69,70.28L116.20,70.34L116.70,70.55L117.06,70.83"/><path d="M111.24,75.85L111.58,76.45L111.56,76.59L111.35,76.83L110.97,77.13L110.46,77.47L109.89,77.81L109.30,78.11L108.76,78.35L108.33,78.49L108.06,78.52L107.97,78.43L107.63,77.84"/><path d="M110.68,76.96L110.59,76.94L110.17,77.08L109.59,77.38L109.09,77.72L108.94,77.86L108.88,77.95"/><path d="M217.26,108.19L219.87,109.45L220.35,109.75L220.69,110.10L220.84,110.48L220.45,112.46L220.19,112.77L217.69,114.73L217.26,114.96L216.70,115.08L216.06,115.08L215.40,114.95L214.81,114.73L109.83,62.08L109.61,61.91L109.52,61.72L109.39,60.37L109.45,60.17L109.64,59.98L109.96,59.82L112.57,58.82L112.97,58.70L113.42,58.64L113.87,58.64L114.29,58.70L114.63,58.82L116.01,59.48L116.46,59.39L116.88,59.48L217.99,107.97L218.20,108.18L218.29,108.60L218.28,108.68"/><path d="M110.99,77.11L111.02,77.15L110.77,77.57L110.68,78.19L110.75,78.92L110.98,79.71L111.34,80.48L118.05,92.09L118.51,92.75L119.01,93.25"/><path d="M114.45,72.62L114.80,73.23L114.77,73.39L114.55,73.64L114.15,73.95L113.63,74.31L113.04,74.65L112.43,74.96L111.89,75.20L111.46,75.33L111.18,75.36L111.10,75.26L110.75,74.65"/><path d="M112.48,79.13L112.63,79.12L112.81,79.20L113.00,79.36L113.16,79.59L113.29,79.85L113.37,80.12L113.39,80.38L113.36,80.58L113.26,80.72"/><path d="M113.88,73.75L113.80,73.73L113.62,73.77L113.08,74.00L112.50,74.34L112.25,74.52L112.09,74.67L112.03,74.77"/><path d="M114.82,60.32L114.77,60.48L114.60,60.63L114.33,60.75L114.00,60.83L113.63,60.86L113.27,60.84L112.97,60.78L112.74,60.66L112.61,60.52"/><path d="M115.80,79.05L115.92,78.88L115.97,78.62L115.94,78.30L115.84,77.96L115.68,77.63L115.47,77.35L115.24,77.15L115.02,77.05L114.82,77.06"/><path d="M126.55,89.07L126.48,89.12L122.58,91.04L121.50,91.69L116.71,95.52L116.60,95.63L116.60,95.68L117.28,96.87L117.62,96.76L117.92,96.61L121.35,94.89L127.55,90.07L127.80,89.67L127.90,89.18L127.84,88.66L127.64,88.16L127.57,86.95L127.58,86.65L127.66,86.41L127.79,86.24L130.79,83.83"/><path d="M116.79,65.57L117.14,69.90L117.13,70.53L117.00,71.05L116.75,71.42L116.38,71.80"/><path d="M117.75,94.69L117.54,94.33L117.57,94.22L117.80,94.02L118.20,93.74L119.31,93.07L119.90,92.75L120.56,92.43"/><path d="M119.65,84.82L119.55,84.80L119.04,84.46L118.56,83.93L118.15,83.26L117.87,82.53L117.73,81.81L117.76,81.18L117.84,80.99"/><path d="M117.21,80.93L117.65,80.91L118.16,81.13L118.66,81.58L119.12,82.19L119.48,82.92L119.70,83.66L119.75,84.35L119.63,84.91L119.36,85.27"/><path d="M119.35,91.26L119.45,91.13L119.49,90.94L119.47,90.69L119.39,90.42L119.26,90.16L119.10,89.93L118.91,89.77L118.73,89.68L118.57,89.68"/><path d="M119.46,95.59L119.48,95.54L119.80,95.31L120.35,94.97L121.11,94.59L121.23,94.56L121.26,94.58"/><path d="M124.85,89.92L124.57,89.45L124.33,89.51L123.92,89.69L122.78,90.27L121.64,90.96L121.22,91.26L120.98,91.47L120.93,91.58L121.15,91.96"/><path d="M121.65,89.19L121.78,89.03L121.84,88.78L121.82,88.47L121.72,88.13L121.56,87.81L121.35,87.52L121.11,87.32L120.88,87.21L120.68,87.21"/><path d="M122.11,81.56L122.27,81.34L122.35,81.00L122.32,80.58L122.19,80.13L121.98,79.70L121.71,79.34L121.40,79.06L121.09,78.93L120.82,78.95"/><path d="M122.34,80.88L122.05,80.56L121.81,80.16L121.64,79.73L121.56,79.28L121.56,79.21"/><path d="M122.91,92.89L122.94,92.83L123.06,92.73L123.27,92.59L123.84,92.24L124.40,91.95L124.73,91.83L124.75,91.85"/><path d="M130.07,84.06L130.55,83.83L131.12,83.83L131.75,84.07L190.88,115.93L191.79,116.55L192.60,117.37L193.28,118.32L198.01,126.52L198.20,126.93L198.30,127.34L198.30,127.72L198.09,129.08"/><path d="M136.01,77.75L136.26,77.74L136.53,77.85L136.81,78.08L137.03,78.38L137.21,78.75L137.31,79.13L137.32,79.48L137.24,79.77L137.08,79.96"/><path d="M136.81,78.08L136.84,78.30L136.98,78.67L137.19,79.01L137.31,79.15"/><path d="M155.23,81.26L155.29,81.47L155.49,81.66L155.79,81.81L156.17,81.90L156.59,81.93L157.01,81.88L157.36,81.77L157.63,81.61L157.77,81.42"/><path d="M183.99,102.50L184.28,102.37L184.64,102.39L185.01,102.55L185.36,102.83L185.65,103.20L185.85,103.62L185.93,104.04L185.88,104.44L185.73,104.73L185.47,104.91"/><path d="M184.79,102.46L184.81,102.79L184.95,103.21L185.19,103.61L185.51,103.93L185.92,104.16"/><path d="M227.30,140.82L227.36,140.97L227.49,141.99L227.27,142.86L226.74,143.50L225.74,144.45L224.95,144.80L211.62,147.66L210.76,147.68L209.81,147.39L208.87,146.83L208.03,146.06L207.37,145.14L206.93,144.37L206.70,144.46L206.37,144.66L203.02,147.56L202.66,147.77L201.46,148.04L201.04,148.07L200.61,147.93L200.21,147.62L199.88,147.19L192.74,134.82L192.51,134.29L192.42,133.74L192.46,133.22L192.64,132.76L192.93,132.43L196.39,129.74L196.86,129.40L197.43,129.06L198.15,128.67"/><path d="M197.41,132.63L197.12,132.77L196.89,133.04L196.77,133.41L196.76,133.64L196.75,133.83L196.85,134.26L197.05,134.66L197.33,134.98L197.65,135.19L198.00,135.26L198.32,135.18"/><path d="M197.06,134.68L197.03,134.34L196.88,133.92L196.76,133.73"/><path d="M196.46,131.51L197.04,131.33L197.71,131.33L198.39,131.61L198.99,132.14L199.48,132.87L199.77,133.70L199.86,134.57L199.72,135.36L199.37,136.01L198.85,136.43L198.26,136.60"/><path d="M202.76,141.90L202.47,142.05L202.25,142.33L202.13,142.70L202.12,143.13L202.22,143.57L202.42,143.97L202.70,144.28L203.02,144.48L203.36,144.55"/><path d="M202.12,143.01L202.18,143.09L202.33,143.51L202.36,143.85"/><path d="M202.97,146.03L204.21,145.72L204.72,145.28L205.06,144.61L205.19,143.80L205.10,142.93L204.80,142.08L204.32,141.36L203.71,140.84L203.04,140.57L202.38,140.59L201.79,140.74"/><path d="M207.70,138.47L207.89,138.22L207.96,137.87L207.89,137.46L207.69,137.04L207.40,136.66L207.02,136.35L206.62,136.15L206.23,136.08L205.90,136.16L205.66,136.36"/><path d="M208.19,128.36L208.43,128.02L208.52,127.53L208.43,126.99L208.18,126.43L207.78,125.93L207.30,125.54L206.77,125.29L206.25,125.23L205.82,125.34"/><path d="M206.56,136.14L206.70,136.61L206.94,137.01L207.28,137.36L207.67,137.61L207.93,137.70"/><path d="M208.49,127.73L208.37,127.74L207.84,127.58L207.33,127.26L206.89,126.81L206.57,126.28L206.39,125.73L206.39,125.25"/><path d="M211.03,144.95L211.18,144.75L211.24,144.47L211.18,144.14L211.03,143.80L210.78,143.49L210.48,143.24L210.15,143.07L209.83,143.01L209.56,143.06L209.35,143.21"/><path d="M211.12,144.01L210.84,143.83L210.57,143.54L210.36,143.17"/><path d="M214.31,138.42L214.75,137.84L214.92,137.05L214.77,136.13L214.33,135.18L213.65,134.32L212.81,133.64L211.89,133.19L211.00,133.06L210.23,133.23L209.68,133.69"/><path d="M210.58,133.15L210.42,133.52L210.42,134.38L210.71,135.30L211.27,136.20L212.02,136.97L212.90,137.54L213.81,137.84L214.65,137.84L214.77,137.78"/><path d="M216.47,124.23L216.38,124.34L212.88,127.21L212.58,127.57L212.42,128.06L212.39,128.64L212.51,129.24L212.76,129.81L216.00,135.42L220.60,143.40L220.96,143.87L221.38,144.21L221.83,144.37L222.26,144.34L223.72,144.02L224.09,143.80L227.46,140.67L227.76,140.33L227.85,140.06L218.22,123.37L218.12,123.25L217.83,123.25L217.36,123.37L216.72,122.26L216.32,121.37L216.13,120.48L216.17,119.65L217.08,114.99"/><path d="M216.59,110.05L216.51,110.33L216.27,110.56L215.89,110.71L215.43,110.77L214.92,110.73L214.42,110.60L213.99,110.39L213.68,110.12L213.51,109.83L213.51,109.54"/><path d="M218.01,130.47L217.66,130.47L217.31,130.31L216.98,130.02L216.71,129.62L216.55,129.16L216.49,128.69L216.55,128.26L216.73,127.91L216.99,127.69"/><path d="M223.17,137.75L222.85,137.83L222.59,138.07L222.42,138.42L222.36,138.86L222.42,139.34L222.59,139.81L222.86,140.21L223.18,140.49L223.54,140.64L223.87,140.64"/></g></g><g id="Actor_.4"><g style="stroke:#000000;stroke-width:0.353"><path d="M149.74,194.23L149.63,193.90L149.57,193.60L149.55,193.34L149.57,193.11L149.62,192.94L149.63,192.92L149.74,192.77L149.89,192.68L150.08,192.64L150.29,192.65L150.53,192.71L150.79,192.79L150.95,192.82L151.10,192.85L151.29,192.88L151.48,192.90L151.70,192.91L152.59,192.13L152.81,192.31L152.99,192.48L153.18,192.65L153.33,192.82L153.49,192.99L153.75,193.32L153.99,193.66L154.22,194.06L154.34,194.29L154.45,194.53"/><path d="M152.37,196.15L152.27,196.20L152.11,196.19L151.91,196.11L151.69,195.98L151.46,195.79L151.23,195.57L151.03,195.31L150.84,195.04L150.70,194.76L150.60,194.50L150.55,194.27L150.54,194.16L150.55,194.07L150.60,193.93"/><path d="M152.32,196.19L152.17,196.22L151.99,196.17L151.78,196.07L151.55,195.91L151.33,195.70L151.11,195.46L150.91,195.19L150.75,194.92L150.62,194.65L150.55,194.40L150.52,194.18L150.55,194.01"/><path d="M150.66,193.88L150.61,193.92"/><path d="M154.57,194.81L153.68,195.60L153.46,195.42L153.27,195.25L153.09,195.07L152.93,194.91L152.77,194.73L152.51,194.40L152.25,194.07L151.97,193.75L151.67,193.46L151.37,193.20L151.07,192.99L150.79,192.82L150.53,192.71L150.29,192.61L150.06,192.48L149.95,192.40L149.84,192.32L149.72,192.21"/><path d="M152.36,195.83L152.26,195.87L152.12,195.87L151.96,195.81L151.78,195.70L151.59,195.55L151.41,195.36L151.39,195.34L151.24,195.15L151.09,194.93L150.97,194.70L150.89,194.48L150.84,194.29L150.85,194.13L150.89,194.01"/><path d="M151.70,192.91L151.81,193.18L151.92,193.42L152.04,193.65L152.15,193.85L152.27,194.05L152.51,194.40L152.75,194.75L152.97,195.11L153.15,195.47L153.30,195.83L153.41,196.16L153.47,196.46L153.49,196.73L153.50,196.47L153.52,196.32L153.55,196.16L153.58,195.99L153.62,195.81L153.68,195.60"/><path d="M153.64,197.54L153.59,197.42L153.56,197.31L153.53,197.19L153.51,197.08L153.49,196.96L153.49,196.73L153.46,196.95L153.39,197.14L153.28,197.28L153.12,197.37L152.93,197.41L152.71,197.39L152.47,197.32L152.21,197.21L151.93,197.04"/><path d="M152.43,196.10L152.42,196.12"/><path d="M152.59,192.13L152.47,192.03L152.36,191.94"/></g><g style="stroke:#000000;stroke-width:0.705"><path d="M154.55,194.77L154.53,194.72L154.39,194.38L154.20,194.02L153.99,193.66L153.75,193.32L153.49,192.99L153.21,192.67L152.91,192.38L152.61,192.12L152.36,191.94L152.24,191.86L152.13,191.80L152.01,191.73L151.77,191.64L151.51,191.56L151.35,191.53L151.20,191.50L151.01,191.48L150.83,191.46L150.61,191.45L149.72,192.21L149.63,192.59L149.60,192.77L149.56,193.07L149.55,193.34L149.56,193.58L149.57,193.70L149.60,193.81L149.63,193.93L149.67,194.04L149.74,194.23L149.88,194.58L150.06,194.93L150.28,195.29L150.51,195.63L150.77,195.96L151.05,196.27L151.34,196.56L151.64,196.82L151.93,197.04L152.00,197.08L152.11,197.15L152.23,197.22L152.47,197.32L152.74,197.41L152.89,197.44L153.05,197.47L153.23,197.50L153.42,197.52L153.64,197.54L154.53,196.75L154.58,196.55L154.62,196.37L154.66,196.19L154.68,196.04L154.70,195.89L154.72,195.63L154.71,195.39L154.68,195.15L154.65,195.03L154.57,194.81L154.45,194.53"/><path d="M152.32,196.19L152.43,196.11L152.48,195.96L152.49,195.87L152.49,195.77L152.44,195.53L152.33,195.27L152.19,194.99L152.01,194.71L151.79,194.46L151.57,194.23L151.34,194.04L151.12,193.91L150.92,193.84L150.75,193.83L150.63,193.89L150.55,194.01"/><path d="M150.89,194.01L150.97,193.94L151.10,193.92L151.16,193.93"/><path d="M152.36,195.83L152.43,195.73L152.45,195.61"/></g></g><g id="Actor_.5"><g style="stroke:#000000;stroke-width:0.353"><path d="M235.82,127.31L235.99,127.21L236.19,127.16L236.42,127.16L236.66,127.22L236.90,127.33L237.12,127.48L237.31,127.67L237.47,127.88L237.54,128.02L237.58,128.11L237.64,128.34L237.64,128.55L237.59,128.75L237.49,128.91"/><path d="M247.86,119.38L247.88,119.38L248.02,119.32L248.14,119.24L248.24,119.14L248.32,119.03L248.37,118.89L248.40,118.75L248.40,118.59L248.38,118.43L248.32,118.27L248.24,118.11L248.14,117.96L248.02,117.82L247.88,117.69L247.73,117.58L247.57,117.49L247.40,117.43L247.26,117.39L247.22,117.38L247.05,117.37L246.89,117.37L246.74,117.41L246.60,117.46L246.48,117.54L246.38,117.64L246.30,117.76L246.27,117.85"/><path d="M245.81,116.79L246.05,116.64L246.32,116.54L246.63,116.50L246.95,116.50L247.28,116.55L247.62,116.66L247.95,116.81L248.26,117.00L248.54,117.24L248.79,117.50L249.00,117.80L249.16,118.10L249.28,118.42L249.34,118.73L249.34,119.04L249.29,119.32L249.18,119.58L249.02,119.81L248.82,120.00"/><path d="M246.50,117.64L246.61,117.57L246.74,117.51L246.87,117.49L247.03,117.48L247.19,117.50L247.35,117.54L247.51,117.60L247.66,117.68L247.80,117.78L247.93,117.90L248.04,118.03L248.13,118.17L248.21,118.32L248.26,118.46L248.28,118.61L248.28,118.76L248.25,118.89L248.20,119.02L248.13,119.13L248.04,119.22"/><path d="M249.55,119.29L249.63,119.17L249.69,119.04L249.73,118.91L249.77,118.77L249.79,118.62L249.79,118.47L249.78,118.32L249.76,118.16L249.72,118.00L249.68,117.85L249.61,117.69L249.54,117.54L249.45,117.38L249.35,117.24L249.24,117.09L249.12,116.96L248.99,116.83L248.85,116.71L248.71,116.60L248.55,116.49L248.40,116.40L248.23,116.32L248.07,116.25L247.90,116.19L247.74,116.14L247.57,116.11L247.40,116.09L247.24,116.08L247.08,116.09L246.92,116.11L246.78,116.14L246.63,116.18L246.50,116.24"/></g><g style="stroke:#000000;stroke-width:0.705"><path d="M243.15,120.67L235.82,127.31L235.69,127.45L235.61,127.63L235.59,127.84L235.62,128.07L235.71,128.30L235.84,128.52L236.02,128.72L236.23,128.89L236.46,129.02L236.69,129.10L236.93,129.13L237.15,129.11L237.34,129.04L237.49,128.91L248.04,119.22"/><path d="M246.50,117.64L246.50,117.64L244.33,119.60"/><path d="M247.05,120.13L247.33,120.22L247.66,120.28L247.99,120.28L248.29,120.24L248.57,120.14L248.82,120.00L249.37,119.49L249.47,119.40L249.55,119.29L249.65,119.14L249.71,119.01L249.75,118.88L249.79,118.74L249.81,118.59L249.81,118.41L249.80,118.26L249.78,118.11L249.75,117.95L249.70,117.80L249.64,117.64L249.56,117.49L249.48,117.34L249.38,117.20L249.27,117.06L249.15,116.92L249.02,116.80L248.89,116.68L248.75,116.57L248.60,116.47L248.44,116.38L248.28,116.30L248.12,116.23L247.96,116.17L247.79,116.13L247.63,116.09L247.47,116.07L247.27,116.07L247.11,116.07L246.96,116.09L246.81,116.12L246.67,116.16L246.54,116.22L246.37,116.31L246.26,116.39L246.15,116.48L245.81,116.79L245.61,116.98L245.45,117.21L245.35,117.47L245.30,117.75L245.31,118.06L245.37,118.37L245.45,118.59"/></g></g><g id="Actor_.6"><g style="stroke:#000000;stroke-width:0.353"><path d="M162.01,182.73L162.02,182.63L162.07,182.48L162.14,182.36L162.24,182.27L162.35,182.20L162.49,182.16L162.64,182.14L162.80,182.16L162.99,182.20L163.18,182.27L163.38,182.36L163.58,182.49L163.79,182.63L164.00,182.80L164.21,182.99L164.41,183.19L164.61,183.41L164.79,183.64L164.96,183.88L165.11,184.12L165.25,184.37L165.37,184.61L165.46,184.85L165.54,185.08L165.59,185.30L165.61,185.51L165.61,185.70L165.59,185.87L165.54,186.01L165.47,186.14L165.38,186.23L165.27,186.30L165.14,186.35L164.99,186.36L164.82,186.35L164.64,186.31L164.45,186.24L164.25,186.15L164.05,186.03L163.84,185.89L163.63,185.73L163.43,185.54L163.23,185.34L163.03,185.13L162.85,184.90L162.68,184.67L162.53,184.43L162.39,184.19L162.27,183.95L162.17,183.71L162.09,183.48L162.04,183.26L162.00,183.05L162.00,182.93L161.97,182.91L161.96,182.90L161.94,182.86L161.93,182.84L161.93,182.80"/><path d="M162.00,182.93L162.54,183.36L162.56,183.49L162.60,183.68L162.66,183.88L162.75,184.08L162.86,184.29L162.99,184.50L163.12,184.69L163.14,184.70L163.29,184.90L163.46,185.08L163.64,185.24L163.82,185.39L164.00,185.51L164.17,185.61L164.34,185.67L164.50,185.71L164.64,185.72L164.77,185.70L164.87,185.65L164.96,185.57L165.02,185.46L165.05,185.33L165.06,185.18L165.04,185.00L165.00,184.81L164.93,184.61L164.84,184.40L164.73,184.19L164.60,183.98L164.45,183.78L164.29,183.58L164.11,183.40L163.93,183.24L163.75,183.10L163.57,182.98L163.40,182.89L163.23,182.82L163.08,182.79L162.94,182.79L162.81,182.81L162.71,182.87L162.63,182.95L162.58,183.06L162.55,183.16"/><path d="M162.54,183.36L162.58,183.39L162.60,183.40L162.65,183.41L162.67,183.41L162.72,183.42L162.74,183.41L162.79,183.40L162.82,183.38L162.84,183.36L162.85,183.46L162.89,183.63L162.95,183.80L163.02,183.98L163.12,184.16L163.23,184.35L163.36,184.52L163.50,184.69L163.65,184.85L163.80,185.00L163.96,185.12L164.12,185.23L164.27,185.31L164.42,185.37L164.55,185.40L164.68,185.41L164.79,185.39L164.88,185.35"/><path d="M164.96,185.26L164.93,185.27L164.82,185.29L164.70,185.28L164.56,185.25L164.41,185.19L164.26,185.10L164.10,185.00L163.94,184.87L163.79,184.73L163.64,184.57L163.50,184.40L163.37,184.22L163.26,184.04L163.17,183.86L163.09,183.68L163.03,183.50L163.00,183.34L162.98,183.24L162.84,183.36"/><path d="M162.98,183.24L163.01,183.22L163.03,183.19L163.03,183.17L163.04,183.13L163.04,183.12"/><path d="M162.99,182.92L162.92,182.99L162.87,183.09L162.85,183.16"/><path d="M162.99,183.04L163.01,182.96L163.05,182.89"/><path d="M162.25,181.97L162.37,181.90L162.52,181.85L162.68,181.83L162.86,181.85L163.06,181.90L163.27,181.97L163.49,182.08L163.71,182.21L163.94,182.37L164.17,182.55L164.39,182.75L164.61,182.97L164.82,183.21L165.02,183.46L165.21,183.72L165.37,183.99L165.52,184.25L165.65,184.52L165.75,184.78L165.83,185.03L165.89,185.27L165.89,185.29L165.91,185.49L165.92,185.70L165.89,185.88L165.84,186.04L165.76,186.17L165.66,186.28"/><path d="M165.91,186.05L165.98,185.91L166.03,185.75L166.06,185.57L166.06,185.37L166.03,185.14L165.98,184.90L165.90,184.65L165.79,184.39L165.66,184.13L165.52,183.86L165.35,183.60L165.16,183.34L164.96,183.09L164.75,182.85L164.53,182.63L164.31,182.42L164.08,182.24L163.85,182.08L163.63,181.95L163.41,181.85L163.20,181.77L163.00,181.73L162.82,181.71L162.66,181.73L162.51,181.77"/><path d="M165.54,186.36L165.54,186.36"/></g><g style="stroke:#000000;stroke-width:0.705"><path d="M163.06,182.90L163.04,182.96L163.04,182.98L163.02,183.02L162.99,183.04L162.84,183.17L162.80,183.20L162.76,183.21L162.74,183.21L162.69,183.21L162.67,183.21L162.62,183.20L162.60,183.19L162.55,183.16L162.01,182.73L161.97,182.69L161.95,182.65L161.94,182.63L161.94,182.59L161.94,182.58L161.96,182.46L162.03,182.25L162.11,182.12L162.14,182.07L162.25,181.97L162.39,181.85L162.56,181.74L162.71,181.70L162.76,181.69L162.93,181.67L163.11,181.69L163.30,181.73L163.35,181.74L163.55,181.82L163.76,181.92L163.98,182.05L164.20,182.20L164.42,182.37L164.63,182.57L164.85,182.79L165.05,183.02L165.24,183.26L165.42,183.51L165.58,183.76L165.73,184.02L165.85,184.28L165.95,184.53L166.03,184.77L166.08,185.00L166.11,185.22L166.11,185.27L166.11,185.47L166.09,185.65L166.02,185.87L165.94,186.00L165.91,186.05L165.80,186.15L165.66,186.28L165.49,186.39L165.34,186.43L165.29,186.44L165.13,186.46L164.95,186.45L164.76,186.40L164.71,186.39L164.51,186.32L164.30,186.22L164.09,186.10L163.87,185.95L163.65,185.78L163.43,185.58L163.22,185.37L163.15,185.29L163.02,185.15L162.83,184.91L162.65,184.67L162.49,184.41L162.34,184.16L162.22,183.91L162.11,183.66L162.03,183.42L161.97,183.19L161.94,182.97L161.93,182.83"/><path d="M161.97,182.69L161.95,182.73L161.94,182.74L161.93,182.79L161.93,182.80L161.94,182.92"/><path d="M164.70,185.22L164.55,185.15L164.38,185.07L164.22,184.95L164.10,184.86L164.05,184.82L163.89,184.67L163.73,184.50L163.58,184.32L163.45,184.13L163.33,183.94L163.23,183.75L163.15,183.56L163.09,183.37L163.05,183.20L163.04,183.12L163.03,183.07L163.02,183.06L163.00,183.03"/><path d="M163.05,182.92L163.07,182.89"/><path d="M162.94,182.95L163.03,182.90L163.10,182.88"/><path d="M163.08,182.88L163.21,182.89L163.31,182.91"/><path d="M163.30,182.91L163.45,182.96L163.62,183.05L163.78,183.16L163.95,183.29L164.12,183.44L164.28,183.61L164.43,183.79L164.56,183.98L164.69,184.17L164.79,184.37L164.88,184.56L164.94,184.75L164.98,184.92L164.99,185.08"/><path d="M164.92,185.33L164.96,185.24"/><path d="M164.88,185.35L164.93,185.30"/><path d="M164.65,185.21L164.80,185.24L164.92,185.25"/><path d="M164.87,185.26L164.96,185.24"/><path d="M164.95,185.29L164.98,185.17L164.99,185.04"/></g></g><g id="Actor_.7"><g style="stroke:#000000;stroke-width:0.353"><path d="M183.19,171.82L183.42,171.66L183.69,171.56L184.00,171.52L184.34,171.55L184.71,171.64L185.10,171.79L185.51,171.99L185.91,172.26L186.31,172.57L186.70,172.92L187.06,173.31L187.40,173.72L187.70,174.16L187.96,174.60L188.16,175.04L188.29,175.41"/><path d="M186.61,175.78L186.45,175.86L186.24,175.88L186.01,175.84L185.75,175.73L185.49,175.57L185.23,175.36L185.00,175.11L184.79,174.84L184.63,174.56L184.51,174.28L184.45,174.01L184.45,173.77L184.51,173.58L184.62,173.44"/><path d="M188.05,177.41L188.24,177.21L188.37,176.94L188.39,176.86"/></g><g style="stroke:#000000;stroke-width:0.705"><path d="M188.61,176.83L188.58,176.89L188.39,177.10L188.05,177.41L187.82,177.57L187.54,177.65L187.23,177.68L186.88,177.65L186.51,177.55L186.12,177.39L185.72,177.18L185.62,177.12L185.32,176.92L184.93,176.61L184.55,176.26L184.19,175.88L183.86,175.47L183.57,175.05L183.32,174.61L183.12,174.18L182.96,173.75L182.86,173.35L182.82,172.96L182.83,172.61L182.89,172.30L183.02,172.03L183.19,171.82L183.53,171.51L183.76,171.36L184.03,171.26L184.34,171.22L184.68,171.24L185.05,171.33L185.45,171.48L185.85,171.69L186.25,171.95L186.65,172.26L187.04,172.61L187.41,173.00L187.74,173.41L188.04,173.84L188.30,174.29L188.50,174.73L188.66,175.16L188.71,175.36"/><path d="M184.82,173.34L184.79,173.47L184.79,173.70L184.85,173.97L184.97,174.25L185.13,174.53L185.34,174.80L185.57,175.05L185.83,175.26L186.09,175.42L186.35,175.53L186.58,175.57L186.75,175.56"/><path d="M186.61,175.78L186.73,175.64L186.78,175.44L186.78,175.21L186.72,174.94L186.61,174.66L186.44,174.37L186.23,174.09L185.99,173.84L185.74,173.63L185.47,173.47L185.22,173.37L184.98,173.33L184.78,173.35L184.62,173.44"/></g></g><g id="Actor_.8"><g style="stroke:#000000;stroke-width:0.353"><path d="M173.52,182.18L173.53,182.23L173.54,182.24L173.57,182.28L173.58,182.30L173.60,182.32L173.61,182.45L173.63,182.67L173.69,182.91L173.77,183.15L173.87,183.40L174.00,183.66L174.14,183.92L174.31,184.17L174.49,184.42L174.69,184.66L174.90,184.89L175.12,185.11L175.35,185.30L175.58,185.48L175.81,185.63L176.04,185.75L176.26,185.85L176.47,185.93L176.68,185.97L176.86,185.98L177.04,185.96L177.19,185.92L177.32,185.84L177.43,185.74L177.47,185.68"/><path d="M173.60,182.32L174.21,182.78L174.22,182.92L174.26,183.12L174.32,183.33L174.41,183.55L174.53,183.77L174.67,183.99L174.83,184.21L175.00,184.42L175.18,184.61L175.38,184.79L175.58,184.94L175.78,185.07L175.97,185.17L176.16,185.24L176.34,185.28L176.50,185.29L176.64,185.27L176.77,185.22L176.86,185.13L176.94,185.02L176.98,184.88L177.00,184.71L176.99,184.52L176.95,184.32L176.88,184.11L176.78,183.88L176.66,183.66L176.52,183.43L176.36,183.22L176.18,183.01L175.99,182.82L175.80,182.64L175.60,182.49L175.40,182.36L175.20,182.27L175.01,182.20L174.84,182.16L174.68,182.16L174.54,182.19L174.42,182.25L174.33,182.34L174.26,182.46L174.23,182.56"/><path d="M177.61,184.99L177.59,184.84L177.55,184.61L177.47,184.36L177.37,184.11L177.25,183.85L177.11,183.58L176.94,183.32L176.76,183.07L176.56,182.82L176.34,182.59L176.12,182.37L175.89,182.17L175.66,181.99L175.43,181.84L175.20,181.71L174.97,181.61L174.76,181.53L174.55,181.49L174.36,181.47L174.19,181.49L174.04,181.53L173.90,181.61L173.79,181.71L173.71,181.84L173.65,181.99L173.62,182.10"/><path d="M174.21,182.78L174.25,182.81L174.27,182.81L174.32,182.83L174.34,182.83L174.40,182.83L174.41,182.83L174.47,182.82L174.51,182.80L174.53,182.78L174.53,182.89L174.57,183.06L174.63,183.25L174.71,183.44L174.81,183.63L174.93,183.83L175.07,184.02L175.19,184.17L175.22,184.20L175.38,184.37L175.55,184.52L175.72,184.66L175.90,184.77L176.07,184.86L176.24,184.92L176.39,184.96L176.53,184.96L176.66,184.94L176.76,184.90L176.84,184.83"/><path d="M178.08,184.93L178.08,184.91L178.06,184.67L178.01,184.42L177.93,184.15L177.82,183.87L177.69,183.59L177.53,183.30L177.35,183.02L177.15,182.74L176.93,182.48L176.70,182.22L176.46,181.99L176.21,181.77L175.96,181.57L175.71,181.41L175.46,181.27L175.21,181.16L174.98,181.08L174.76,181.03L174.55,181.01L174.36,181.03L174.19,181.08L174.05,181.16"/><path d="M173.90,181.29L174.05,181.21L174.22,181.16L174.40,181.14L174.61,181.16L174.83,181.21L175.07,181.29L175.31,181.40L175.56,181.54L175.80,181.70L175.81,181.71L176.07,181.90L176.32,182.12L176.56,182.36L176.79,182.61L177.00,182.88L177.20,183.15L177.38,183.44L177.54,183.72L177.68,184.01L177.78,184.28L177.86,184.55L177.92,184.81L177.93,184.95"/><path d="M176.87,184.78L176.80,184.81L176.68,184.83L176.54,184.82L176.38,184.79L176.22,184.72L176.04,184.64L175.87,184.52L175.70,184.39L175.53,184.24L175.36,184.07L175.21,183.89L175.08,183.70L174.95,183.50L174.85,183.31L174.77,183.11L174.71,182.93L174.68,182.75L174.67,182.65L174.53,182.78"/><path d="M174.69,182.43L174.72,182.35L174.76,182.29"/><path d="M174.67,182.65L174.69,182.62L174.71,182.59L174.72,182.58L174.72,182.53"/><path d="M174.55,182.56L174.57,182.48L174.63,182.38L174.70,182.31"/></g><g style="stroke:#000000;stroke-width:0.705"><path d="M177.50,185.96L177.42,186.00L177.26,186.06L177.20,186.07L177.01,186.08L176.81,186.07L176.59,186.02L176.54,186.01L176.32,185.94L176.09,185.83L175.85,185.70L175.60,185.54L175.36,185.36L175.13,185.15L174.89,184.93L174.67,184.69L174.47,184.43L174.27,184.17L174.10,183.90L173.94,183.63L173.81,183.36L173.70,183.10L173.62,182.84L173.56,182.59L173.53,182.36L173.53,182.31L173.52,182.16L173.53,182.12L173.54,182.10L173.57,182.06L173.58,182.06L173.55,182.01L173.55,182.00L173.54,181.95L173.54,181.94L173.57,181.82L173.59,181.76L173.65,181.59L173.75,181.45L173.78,181.40L173.90,181.29L174.05,181.16L174.10,181.13L174.25,181.05L174.41,181.00L174.47,180.99L174.66,180.97L174.86,180.99L175.08,181.03L175.13,181.05L175.35,181.12L175.59,181.23L175.83,181.37L176.08,181.53L176.32,181.72L176.56,181.93L176.80,182.16L177.02,182.40L177.23,182.66L177.42,182.93L177.59,183.20L177.75,183.48L177.88,183.75L177.98,184.02L178.06,184.28L178.11,184.52L178.11,184.58L178.14,184.81L178.13,184.92"/><path d="M174.77,182.28L174.75,182.30L174.74,182.37L174.71,182.41L174.69,182.43L174.54,182.57L174.49,182.60L174.45,182.61L174.43,182.62L174.37,182.62L174.35,182.62L174.29,182.60L174.28,182.60L174.23,182.57L173.62,182.10L173.58,182.06L173.58,182.06"/><path d="M174.73,182.62L174.76,182.79L174.82,182.99L174.91,183.19L175.02,183.40L175.15,183.60L175.29,183.80L175.45,184.00L175.62,184.17L175.80,184.34L175.99,184.48L176.17,184.60L176.35,184.69L176.52,184.75"/><path d="M174.73,182.66L174.72,182.51L174.71,182.47L174.70,182.45L174.69,182.43"/><path d="M174.66,182.33L174.77,182.28L174.84,182.27"/><path d="M174.83,182.26L174.97,182.27L175.10,182.29"/><path d="M175.08,182.29L175.26,182.35L175.44,182.44L175.62,182.56L175.76,182.66L175.81,182.70L175.99,182.86L176.17,183.04L176.33,183.23L176.48,183.43L176.61,183.64L176.72,183.85L176.81,184.05L176.87,184.25L176.91,184.44"/><path d="M176.48,184.75L176.64,184.78L176.78,184.79L176.86,184.78"/><path d="M176.85,184.78L176.88,184.77"/><path d="M176.81,184.87L176.88,184.77L176.90,184.69"/><path d="M176.90,184.70L176.92,184.56L176.91,184.42"/></g></g><g id="Actor_.9"><g style="stroke:#000000;stroke-width:0.353"><path d="M223.43,130.57L223.58,130.47L223.76,130.43L223.97,130.44L224.19,130.49L224.40,130.60L224.61,130.74L224.79,130.92L224.94,131.12L225.05,131.34L225.10,131.55L225.11,131.76L225.07,131.95L224.98,132.10"/><path d="M235.42,122.88L235.46,122.87L235.59,122.82L235.69,122.75L235.78,122.65L235.85,122.54L235.90,122.42L235.92,122.28L235.92,122.13L235.89,121.98L235.84,121.83L235.76,121.68L235.67,121.53L235.55,121.40L235.42,121.28L235.28,121.17L235.13,121.09L234.97,121.02L234.82,120.98L234.66,120.96L234.51,120.96L234.37,120.99L234.25,121.04L234.14,121.12L234.05,121.21L233.98,121.32L233.96,121.38"/><path d="M236.33,123.47L236.51,123.29L236.65,123.08L236.74,122.83L236.78,122.56L236.77,122.28L236.71,121.98L236.60,121.68L236.45,121.39L236.25,121.11L236.01,120.86L235.75,120.63L235.46,120.44L235.16,120.30L234.85,120.19L234.55,120.14L234.25,120.13L233.98,120.18L233.73,120.27L233.51,120.40"/><path d="M234.16,121.21L234.26,121.15L234.37,121.10L234.50,121.07L234.64,121.07L234.78,121.09L234.93,121.13L235.07,121.19L235.12,121.22L235.21,121.27L235.34,121.36L235.46,121.47L235.57,121.60L235.66,121.73L235.73,121.87L235.78,122.01L235.80,122.15L235.81,122.29L235.79,122.42L235.74,122.53L235.68,122.64L235.60,122.72"/><path d="M237.04,122.79L237.10,122.68L237.15,122.56L237.19,122.43L237.22,122.30L237.23,122.16L237.23,122.02L237.22,121.88L237.20,121.73L237.16,121.58L237.11,121.43L237.05,121.28L236.98,121.13L236.90,120.99L236.80,120.85L236.70,120.71L236.59,120.58L236.47,120.46L236.34,120.34L236.20,120.24L236.06,120.14L235.91,120.05L235.77,119.97L235.61,119.90L235.46,119.84L235.31,119.80L235.15,119.76L235.00,119.74L234.85,119.73L234.71,119.74L234.57,119.75L234.43,119.78L234.30,119.82L234.18,119.87"/></g><g style="stroke:#000000;stroke-width:0.705"><path d="M234.15,121.22L234.16,121.21L223.43,130.57L223.31,130.70L223.25,130.87L223.23,131.07L223.27,131.28L223.35,131.50L223.48,131.70L223.64,131.90L223.83,132.06L224.04,132.18L224.26,132.26L224.48,132.30L224.67,132.28L224.84,132.21L224.98,132.10L235.60,122.72"/><path d="M234.66,123.55L234.68,123.55L234.98,123.66L235.28,123.72L235.58,123.73L235.86,123.69L236.11,123.60L236.33,123.47L236.87,122.98L236.96,122.89L237.06,122.76L237.12,122.65L237.17,122.53L237.21,122.40L237.24,122.27L237.26,122.10L237.26,121.96L237.25,121.82L237.22,121.67L237.19,121.53L237.14,121.38L237.08,121.24L237.01,121.09L236.93,120.95L236.83,120.81L236.73,120.68L236.62,120.55L236.50,120.43L236.38,120.31L236.24,120.21L236.11,120.11L235.96,120.02L235.82,119.95L235.67,119.88L235.52,119.82L235.36,119.78L235.21,119.75L235.06,119.73L234.92,119.72L234.74,119.72L234.60,119.74L234.46,119.76L234.34,119.80L234.22,119.85L234.07,119.94L233.96,120.01L233.51,120.40L233.33,120.58L233.20,120.79L233.11,121.04L233.07,121.31L233.08,121.59L233.14,121.89L233.20,122.05"/></g></g><g id="Actor_.10"><g style="stroke:#000000;stroke-width:0.353"><path d="M171.36,173.05L171.55,172.91L171.79,172.82L172.06,172.78L172.37,172.81L172.70,172.89L173.05,173.04L173.41,173.23L173.78,173.48L174.14,173.77L174.49,174.10L174.83,174.47L175.14,174.86L175.42,175.26L175.50,175.41L175.66,175.68L175.86,176.10L176.01,176.50L176.11,176.89L176.16,177.25L176.15,177.58L176.10,177.88L175.99,178.12L175.84,178.31"/><path d="M174.51,176.78L174.37,176.86L174.19,176.87L173.98,176.83L173.75,176.73L173.51,176.58L173.28,176.38L173.06,176.15L172.87,175.89L172.72,175.62L172.61,175.36L172.55,175.11L172.54,174.89L172.58,174.71L172.67,174.57"/></g><g style="stroke:#000000;stroke-width:0.705"><path d="M171.96,176.31L172.07,176.48L172.37,176.86L172.70,177.22L173.05,177.55L173.40,177.84L173.77,178.09L174.12,178.29L174.47,178.43L174.81,178.53L175.11,178.56L175.39,178.54L175.63,178.45L175.84,178.31L176.17,178.02L176.32,177.82L176.43,177.58L176.49,177.29L176.49,176.96L176.44,176.59L176.34,176.21L176.19,175.80L175.99,175.38L175.75,174.97L175.47,174.56L175.16,174.17L174.83,173.81L174.48,173.48L174.11,173.19L173.75,172.94L173.38,172.74L173.03,172.60L172.70,172.52L172.40,172.49L172.12,172.53L171.89,172.62L171.69,172.77L171.36,173.05L171.21,173.25L171.11,173.50L171.06,173.79L171.07,174.12L171.12,174.48L171.22,174.86L171.37,175.26L171.57,175.67L171.80,176.08L171.96,176.31"/><path d="M174.62,176.57L174.52,176.58L174.31,176.54L174.08,176.44L173.84,176.29L173.61,176.09L173.40,175.86L173.20,175.60L173.05,175.33L172.94,175.07L172.88,174.82L172.87,174.60L172.90,174.49"/><path d="M174.51,176.78L174.61,176.65L174.65,176.46L174.64,176.24L174.58,175.99L174.47,175.73L174.37,175.56L174.31,175.46L174.12,175.20L173.90,174.96L173.67,174.77L173.43,174.61L173.20,174.52L172.99,174.48L172.81,174.49L172.67,174.57"/></g></g><g id="Actor_.11"><g style="stroke:#000000;stroke-width:0.353"><path d="M161.12,194.76L160.97,194.39L160.87,194.09L160.86,194.04L160.80,193.71L160.79,193.43L160.82,193.18L160.91,192.98L161.04,192.82L161.21,192.72L161.43,192.68L161.68,192.69L161.95,192.76L161.68,192.66L161.41,192.52L161.28,192.43L161.15,192.34L161.01,192.23"/><path d="M163.91,196.44L163.79,196.49L163.60,196.48L163.37,196.40L163.12,196.26L162.87,196.06L162.75,195.94L162.62,195.82L162.40,195.54L162.20,195.25L162.05,194.95L161.94,194.67L161.89,194.42L161.89,194.31L161.90,194.21L161.96,194.08"/><path d="M163.85,196.49L163.68,196.51L163.47,196.47L163.23,196.36L162.98,196.18L162.73,195.96L162.49,195.70L162.27,195.41L162.10,195.12L161.97,194.83L161.89,194.56L161.87,194.33L161.91,194.15"/><path d="M162.03,194.01L161.99,194.05"/><path d="M161.95,192.76L162.24,192.84L162.41,192.88L162.59,192.91L162.80,192.94L163.01,192.96L163.25,192.97L163.38,193.26L163.50,193.52L163.63,193.76L163.75,193.98L163.89,194.20L164.15,194.57L163.86,194.22L163.55,193.88L163.22,193.56L162.89,193.29L162.56,193.06L162.24,192.88L161.95,192.76"/><path d="M163.03,197.16L163.36,197.39L163.68,197.57L163.97,197.70L164.24,197.77L164.50,197.79L164.72,197.75L164.90,197.66L165.03,197.51L165.12,197.30L165.16,197.06L165.19,196.79L165.22,196.63L165.25,196.46L165.29,196.27L165.34,196.08L165.40,195.85L166.32,195.01"/><path d="M162.28,194.15L162.22,194.28L162.21,194.45L162.25,194.66L162.34,194.89L162.47,195.13L162.63,195.37L162.81,195.59L163.02,195.79L163.22,195.96L163.43,196.07L163.61,196.14L163.77,196.15L163.89,196.10"/><path d="M163.98,196.37L163.96,196.41"/><path d="M165.28,197.93L165.24,197.81L165.21,197.69L165.18,197.56L165.17,197.44L165.16,197.31L165.16,197.06L165.16,196.78L165.10,196.45L164.99,196.10L164.84,195.72L164.64,195.33L164.40,194.94L164.15,194.57L164.43,194.93L164.60,195.11L164.77,195.29L164.97,195.48L165.17,195.66L165.40,195.85"/><path d="M163.25,192.97L164.17,192.14"/><path d="M165.94,194.21L165.68,193.78L165.42,193.41L165.14,193.06L164.97,192.87L164.80,192.70L164.61,192.51L164.40,192.33"/></g><g style="stroke:#000000;stroke-width:0.705"><path d="M165.37,197.84L165.28,197.93L165.03,197.91L164.82,197.89L164.62,197.86L164.44,197.83L164.27,197.79L163.97,197.70L163.70,197.58L163.56,197.51L163.43,197.44L163.29,197.35L163.03,197.16L162.70,196.88L162.38,196.57L162.07,196.23L161.80,195.88L161.54,195.52L161.31,195.14L161.12,194.76L161.04,194.59L160.92,194.31L160.88,194.18L160.84,194.06L160.82,193.93L160.80,193.81L160.79,193.68L160.79,193.43L160.81,193.15L160.87,192.82L160.91,192.63L161.01,192.23L161.93,191.40L162.17,191.42L162.38,191.44L162.58,191.46L162.76,191.49L162.93,191.53L163.22,191.61L163.50,191.71L163.63,191.78L163.77,191.85L163.90,191.94L164.04,192.03L164.17,192.14L164.40,192.33"/><path d="M161.91,194.15L162.01,194.02L162.15,193.96L162.34,193.97L162.57,194.05L162.82,194.19L163.07,194.38L163.32,194.63L163.55,194.91L163.75,195.20L163.90,195.50L164.01,195.78L164.06,196.03L164.06,196.14L164.04,196.24L163.97,196.40L163.85,196.49"/><path d="M162.28,194.15L162.38,194.08L162.52,194.05L162.62,194.07"/><path d="M164.00,195.75L164.01,195.85L163.97,196.00L163.89,196.10"/><path d="M165.97,194.27L165.91,194.16L165.68,193.77L165.42,193.41L165.14,193.06L164.83,192.71L164.50,192.40L164.17,192.13L164.04,192.03"/><path d="M165.94,194.21L166.07,194.46L166.19,194.71L166.32,195.01L166.39,195.25L166.41,195.38L166.44,195.63L166.43,195.89L166.40,196.16L166.38,196.32L166.34,196.48L166.32,196.60"/></g></g><g><g><path style="stroke:#ff0000;stroke-width:0.500;stroke-dasharray:0.6 0.6" d="M152.05,194.79L151.51,195.27"/><path style="stroke:#ff0000;stroke-width:0.500;stroke-dasharray:0.6 0.6" d="M164.49,183.88L153.74,193.31"/><path style="stroke:#ff0000;stroke-width:0.500;stroke-dasharray:0.6 0.6" d="M165.23,183.24L174.23,175.34"/><path style="stroke:#ff0000;stroke-width:0.500;stroke-dasharray:0.6 0.6" d="M181.48,168.99L175.33,174.38"/><path style="stroke:#ff0000;stroke-width:0.500;stroke-dasharray:0.6 0.6" d="M210.67,143.39L199.26,153.39"/><path style="stroke:#ff0000;stroke-width:0.500;stroke-dasharray:0.6 0.6" d="M224.33,131.42L223.36,132.27"/></g></g><g><g><path style="stroke:#ff0000;stroke-width:0.500;stroke-dasharray:0.6 0.6" d="M163.59,194.96L163.00,195.49"/><path style="stroke:#ff0000;stroke-width:0.500;stroke-dasharray:0.6 0.6" d="M165.37,193.34L176.38,183.30"/><path style="stroke:#ff0000;stroke-width:0.500;stroke-dasharray:0.6 0.6" d="M186.33,174.22L177.16,182.58"/><path style="stroke:#ff0000;stroke-width:0.500;stroke-dasharray:0.6 0.6" d="M193.44,167.74L187.52,173.14"/><path style="stroke:#ff0000;stroke-width:0.500;stroke-dasharray:0.6 0.6" d="M202.68,159.31L220.44,143.12"/><path style="stroke:#ff0000;stroke-width:0.500;stroke-dasharray:0.6 0.6" d="M236.81,128.19L226.45,137.63"/></g></g><g><g><path style="stroke:#000000;stroke-width:0.500" d="M231.70,84.42L244.47,122.02"/></g><g><path style="fill:#000000" d="M245.38,122.00L245.37,121.90L245.36,121.80L245.33,121.71L245.30,121.62L245.26,121.53L245.21,121.44L245.15,121.36L245.08,121.29L245.01,121.23L244.93,121.17L244.85,121.12L244.76,121.08L244.67,121.04L244.57,121.02L244.47,121.00L244.38,121.00L244.28,121.00L244.18,121.02L244.09,121.04L243.99,121.08L243.90,121.12L243.82,121.17L243.74,121.23L243.67,121.29L243.60,121.36L243.54,121.44L243.49,121.53L243.45,121.62L243.42,121.71L243.39,121.80L243.38,121.90L243.38,122.00L243.38,122.10L243.39,122.19L243.42,122.29L243.45,122.38L243.49,122.47L243.54,122.55L243.60,122.63L243.67,122.71L243.74,122.77L243.82,122.83L243.90,122.88L243.99,122.92L244.09,122.96L244.18,122.98L244.28,122.99L244.38,123.00L244.47,122.99L244.57,122.98L244.67,122.96L244.76,122.92L244.85,122.88L244.93,122.83L245.01,122.77L245.08,122.71L245.15,122.63L245.21,122.55L245.26,122.47L245.30,122.38L245.33,122.29L245.36,122.19L245.37,122.10z"/></g><g><path style="fill:#fffbf0" d="M196.39,85.21L266.85,85.21L266.85,79.00L196.39,79.00z"/><path style="stroke:#000000;stroke-width:0.500;stroke-opacity:0.98" d="M196.39,85.21L266.85,85.21L266.85,79.00L196.39,79.00z"/><text xml:space="preserve" fill="#000000" stroke-width="0" x="197.16" y="83.47" font-size="3.79" opacity="1.00" font-family="MS Shell Dlg">M2.5 Pan Headed Machine Screw 25mm</text></g></g><g><g><path style="stroke:#000000;stroke-width:0.500" d="M234.13,171.09L230.25,171.09L187.64,176.27"/></g><g><path style="fill:#000000" d="M188.62,176.22L188.61,176.12L188.60,176.03L188.57,175.93L188.54,175.84L188.50,175.75L188.45,175.67L188.39,175.59L188.32,175.51L188.25,175.45L188.17,175.39L188.09,175.34L188.00,175.30L187.91,175.26L187.81,175.24L187.71,175.23L187.62,175.22L187.52,175.23L187.42,175.24L187.33,175.26L187.23,175.30L187.14,175.34L187.06,175.39L186.98,175.45L186.91,175.51L186.84,175.59L186.78,175.67L186.73,175.75L186.69,175.84L186.66,175.93L186.63,176.03L186.62,176.12L186.62,176.22L186.62,176.32L186.63,176.42L186.66,176.51L186.69,176.60L186.73,176.69L186.78,176.78L186.84,176.86L186.91,176.93L186.98,176.99L187.06,177.05L187.14,177.10L187.23,177.15L187.33,177.18L187.42,177.20L187.52,177.22L187.62,177.22L187.71,177.22L187.81,177.20L187.91,177.18L188.00,177.15L188.09,177.10L188.17,177.05L188.25,176.99L188.32,176.93L188.39,176.86L188.45,176.78L188.50,176.69L188.54,176.60L188.57,176.51L188.60,176.42L188.61,176.32z"/></g><g><path style="fill:#fffbf0" d="M233.30,174.14L264.54,174.14L264.54,167.94L233.30,167.94z"/><path style="stroke:#000000;stroke-width:0.500;stroke-opacity:0.98" d="M233.30,174.14L264.54,174.14L264.54,167.94L233.30,167.94z"/><text xml:space="preserve" fill="#000000" stroke-width="0" x="234.08" y="172.40" font-size="3.77" opacity="1.00" font-family="MS Shell Dlg">M2.5 Flat Washer</text></g></g><g><g><path style="stroke:#ffffff;stroke-width:2.500;stroke-opacity:0.50" d="M234.43,178.93L230.54,178.93L177.50,185.81"/><path style="stroke:#000000;stroke-width:0.500" d="M234.43,178.93L230.54,178.93L177.50,185.81"/></g><g><path style="fill:#000000" d="M178.48,185.74L178.47,185.65L178.46,185.55L178.43,185.45L178.40,185.36L178.36,185.27L178.31,185.19L178.25,185.11L178.18,185.04L178.11,184.97L178.03,184.91L177.95,184.86L177.86,184.82L177.77,184.79L177.67,184.76L177.57,184.75L177.48,184.74L177.38,184.75L177.28,184.76L177.19,184.79L177.09,184.82L177.01,184.86L176.92,184.91L176.84,184.97L176.77,185.04L176.70,185.11L176.65,185.19L176.59,185.27L176.55,185.36L176.52,185.45L176.50,185.55L176.48,185.65L176.48,185.74L176.48,185.84L176.50,185.94L176.52,186.03L176.55,186.13L176.59,186.22L176.65,186.30L176.70,186.38L176.77,186.45L176.84,186.52L176.92,186.58L177.01,186.63L177.09,186.67L177.19,186.70L177.28,186.72L177.38,186.74L177.48,186.74L177.57,186.74L177.67,186.72L177.77,186.70L177.86,186.67L177.95,186.63L178.03,186.58L178.11,186.52L178.18,186.45L178.25,186.38L178.31,186.30L178.36,186.22L178.40,186.13L178.43,186.03L178.46,185.94L178.47,185.84z"/></g><g><path style="fill:#fffbf0" d="M233.58,181.97L274.96,181.97L274.96,175.77L233.58,175.77z"/><path style="stroke:#000000;stroke-width:0.500;stroke-opacity:0.98" d="M233.58,181.97L274.96,181.97L274.96,175.77L233.58,175.77z"/><text xml:space="preserve" fill="#000000" stroke-width="0" x="234.36" y="180.23" font-size="3.78" opacity="1.00" font-family="MS Shell Dlg">M2.5 Split Lock Washer</text></g></g><g><g><path style="stroke:#000000;stroke-width:0.500" d="M234.16,186.79L230.28,186.79L165.33,197.60"/></g><g><path style="fill:#000000" d="M166.31,197.50L166.31,197.41L166.30,197.31L166.27,197.21L166.24,197.12L166.20,197.03L166.15,196.95L166.09,196.87L166.02,196.80L165.95,196.73L165.87,196.67L165.79,196.62L165.70,196.58L165.61,196.55L165.51,196.52L165.41,196.51L165.31,196.50L165.22,196.51L165.12,196.52L165.02,196.55L164.93,196.58L164.84,196.62L164.76,196.67L164.68,196.73L164.61,196.80L164.54,196.87L164.48,196.95L164.43,197.03L164.39,197.12L164.36,197.21L164.33,197.31L164.32,197.41L164.31,197.50L164.32,197.60L164.33,197.70L164.36,197.79L164.39,197.89L164.43,197.97L164.48,198.06L164.54,198.14L164.61,198.21L164.68,198.28L164.76,198.33L164.84,198.39L164.93,198.43L165.02,198.46L165.12,198.48L165.22,198.50L165.31,198.50L165.41,198.50L165.51,198.48L165.61,198.46L165.70,198.43L165.79,198.39L165.87,198.33L165.95,198.28L166.02,198.21L166.09,198.14L166.15,198.06L166.20,197.97L166.24,197.89L166.27,197.79L166.30,197.70L166.31,197.60z"/></g><g><path style="fill:#fffbf0" d="M233.30,189.81L257.73,189.81L257.73,183.60L233.30,183.60z"/><path style="stroke:#000000;stroke-width:0.500;stroke-opacity:0.98" d="M233.30,189.81L257.73,189.81L257.73,183.60L233.30,183.60z"/><text xml:space="preserve" fill="#000000" stroke-width="0" x="234.08" y="188.06" font-size="3.76" opacity="1.00" font-family="MS Shell Dlg">M2.5 Hex Nut</text></g></g><g/><g id="paperID" visibility="hidden" opacity="0.00" transform="scale(0.000100)"><path style="stroke:#000000;stroke-width:0.500;fill:#e6e6e6;fill-rule:evenodd" d="M-2000.00,-2000.00L2297.00,-2000.00L2297.00,2210.00L-2000.00,2210.00zM0.00,0.00L297.00,0.00L297.00,210.00L0.00,210.00z"/><path style="fill:#000000;fill-opacity:0.118" d="M3.00,210.00L297.00,210.00L297.00,3.00L300.00,3.00L300.00,213.00L3.00,213.00z"/></g><g id="ToolTip" visibility="hidden" opacity="0" transform="translate(0,0)"><rect id="ToolTipShadow" opacity="0.20" fill="black" stroke="none" x="0" y="0" width="30" height="8"/><rect id="ToolTipBG" fill="#ffffe1" stroke="black" x="0" y="0" width="30" height="8"/><text xml:space="preserve" id="ToolTipText" fill="black" x="0" y="0" width="30" height="8">tooltip</text></g></g></svg>
