<?xml version="1.0" encoding="UTF-8" standalone="no"?>
<svg xmlns="http://www.w3.org/2000/svg" xmlns:xlink="http://www.w3.org/1999/xlink" width="297.000mm" height="210.000mm" viewBox="0.000000 0.000000 297.000000 210.000000" stroke-linejoin="round" stroke-linecap="round" fill="none" fill-rule="evenodd"><desc>3DVIA Composer Export</desc><script type="text/ecmascript"><![CDATA[
if(typeof(top) != "undefined")
{
	top.ShowPaper = ShowPaper;
}
function ShowHotSpot(evt,hotspotid)
{
	var svgDocument = evt.target.ownerDocument;
	var strId = "hotspot."+hotspotid;
	var hotspot = svgDocument.getElementById(strId);
	if(hotspot)
		hotspot.setAttribute("opacity",".5");
}
function HideHotSpot(evt,hotspotid)
{
	var svgDocument = evt.target.ownerDocument;
	var strId = "hotspot."+hotspotid;
	var hotspot = svgDocument.getElementById(strId);
	if(hotspot)
		hotspot.setAttribute("opacity","0");

	var toolTip = svgDocument.getElementById('ToolTip');
	if(toolTip)
		toolTip.setAttribute("visibility","hidden");
}
function ShowToolTip(evt,hotspotid,strTooltip)
{
	if(strTooltip=="")
	return;

	// change text
	var svgDocument = evt.target.ownerDocument;
	var tiptext = svgDocument.getElementById('ToolTipText');
	if( !tiptext )
	return;
	tiptext.firstChild.nodeValue = " " + strTooltip + "  " ;

	// show tooltip before, else some refresh issue

	var toolTip = svgDocument.getElementById('ToolTip');
	if(!toolTip)
	return;

	toolTip.setAttribute("visibility","visible");
	toolTip.setAttribute("opacity",".95");

	// move tooltip
	// get viewbox

	var root = svgDocument.documentElement;
	var vbox = (root.getAttribute("viewBox")).split(' ');
	var x0 = parseFloat(vbox[0]);
	var y0 = parseFloat(vbox[1]);
	var vboxW = parseFloat(vbox[2]);
	var vboxH = parseFloat(vbox[3]);

	// get default width of svg

	var strW = root.getAttribute("width");
	var svgW = parseFloat(strW);
	if(strW.indexOf('mm') != -1)
	svgW *= 3.779;

	var strH = root.getAttribute("height");
	var svgH = parseFloat(strH);
	if(strH.indexOf('mm') != -1)
	svgH *= 3.779;  	// 96 dpi  -> 96/25.4 = 3.779

	// update the viewbox / width / height if svg is embedded in html with zoom fit all
	var realx0 = x0;
	var realy0 = y0;
	var realvboxW = vboxW;
	var realvboxH = vboxH;
	var realsvgW = svgW;
	var realsvgH = svgH;

	if ((typeof(top) == "undefined") || (typeof(top.svgctl1) != "undefined")) // embedded in html
	{
		// get window size in pxl

		svgW = window.innerWidth;
		svgH = window.innerHeight;

		// calculate real viewbox

		realsvgW = svgW;
		realsvgH = svgH;
		if((svgW / svgH) > (vboxW / vboxH))
		{
			realvboxW = (vboxH * svgW) / svgH;
			realvboxH = vboxH;
			realx0 = x0 - (realvboxW - vboxW)/2 ;
		}
		else
		{
			realvboxH = (vboxW * svgH) / svgW;
			realvboxW = vboxW;
			realy0 = y0 - (realvboxH - vboxH)/2 ;
		}
	}

	// get user zoom/pan

	var newScale = root.currentScale;
	var translation = root.currentTranslate;

	// transform pxl to user unit

	var xPos = (((evt.clientX+10- translation.x)/newScale) * realvboxW)/realsvgW  + realx0 ;
	var yPos = (((evt.clientY+5- translation.y)/newScale) * realvboxH)/ realsvgH  + realy0 ;
	var scaleForWidth = ( (1 / newScale) * realvboxH) / realsvgH;

	// move tooltip

	toolTip.setAttribute("transform", "translate(" + xPos + "," + yPos + ")" );

	// resize tooltip

	var fontsize = 12;
	tiptext.setAttribute("font-size",fontsize*scaleForWidth);
	tiptext.setAttribute("y", fontsize*scaleForWidth);
	var tipBG = svgDocument.getElementById('ToolTipBG');
	var outline = tiptext.getBBox();
	if(tipBG)
	{
		tipBG.setAttribute("stroke-width", 1*scaleForWidth);
		tipBG.setAttribute("width", Number(outline.width) );
		tipBG.setAttribute("height", Number(outline.height) + fontsize*.5*scaleForWidth );
	}
	var ToolTipShadow = svgDocument.getElementById('ToolTipShadow');
	if(ToolTipShadow)
	{
		ToolTipShadow.setAttribute("width", Number(outline.width) );
		ToolTipShadow.setAttribute("height", Number(outline.height) + fontsize*.5*scaleForWidth );
		ToolTipShadow.setAttribute("x", 3*scaleForWidth);
		ToolTipShadow.setAttribute("y", 3*scaleForWidth);
	}
}
function ShowPaper()
{
  var svgDocument = getDocument();
  var paper = svgDocument.getElementById("paperID");
  if(paper)
  {
    paper.setAttribute("transform","scale(1)");
    paper.setAttribute("opacity","1");
    paper.setAttribute("visibility","visible");
  }
  var svg = svgDocument.getRootElement();
  if(svg)
  {
    svg.setAttribute("width","307.000mm");
    svg.setAttribute("height","220.000mm");
    svg.setAttribute("viewBox","-5.000000 -5.000000 307.000000 220.000000");
  }
}
]]></script><defs/><g><path style="fill:#dcdcdc;fill-rule:evenodd" d="M225.79,72.15L225.79,108.07L192.49,127.41L189.57,129.14L181.58,133.64L183.16,133.63L186.26,132.59L188.45,131.14L189.47,129.82L189.57,129.14L189.73,131.65L189.38,132.33L187.80,134.13L185.31,135.52L182.63,136.22L177.97,136.27L177.68,135.95L158.78,146.85L157.74,147.22L157.81,111.40L161.13,105.64L222.31,70.33L222.90,70.33zM219.06,83.54L220.34,85.11L221.10,86.68L222.14,87.46L222.65,89.03L222.65,93.00L222.14,95.86L221.01,98.88L219.01,102.85L216.32,106.64L213.21,109.49L209.94,111.41L207.27,112.10L205.27,112.11L203.72,111.58L202.44,110.79L201.12,109.00L200.34,106.67L200.34,101.03L201.38,97.14L204.16,91.62L206.21,89.01L208.15,86.80L210.38,85.14L213.82,83.40L214.78,83.06L217.99,83.06zM179.87,106.13L180.64,106.92L181.87,109.32L182.99,110.02L183.49,111.85L183.49,115.30L182.98,118.42L181.85,121.44L179.86,125.41L177.17,129.20L173.93,132.19L170.45,134.15L168.37,134.66L165.86,134.67L164.81,134.42L162.77,132.83L161.44,130.53L161.19,129.48L161.19,123.60L162.23,119.70L164.99,114.17L167.06,111.57L168.74,109.62L172.00,107.18L174.85,105.88L176.15,105.62L178.57,105.62zM129.83,32.49L126.62,32.49L125.07,33.02L122.22,34.83L119.72,37.27L117.11,41.14L115.48,45.22L115.04,47.36L115.03,51.96L115.31,52.71L127.78,59.99L128.27,60.09L128.26,57.73L128.77,54.35L130.00,50.92L130.75,49.33L132.44,46.61L134.89,43.62L138.55,41.05L140.62,40.27L143.57,40.27L144.63,41.02L146.15,43.39L146.67,45.73L146.67,47.88L146.42,49.70L145.63,52.28L144.34,55.14L142.01,58.77L139.83,61.01L137.23,62.81L135.20,63.63L131.36,63.63L123.63,59.21L108.22,68.03L108.04,70.44L107.51,73.03L106.22,76.67L105.19,78.48L103.37,81.07L101.20,83.31L98.59,85.11L96.56,85.93L92.73,85.93L84.99,81.51L76.15,86.54L76.15,57.48L133.73,24.20L133.74,34.65zM181.16,54.80L183.26,55.81L185.57,57.13L186.63,58.15L187.91,59.98L189.20,63.10L189.72,65.95L189.72,70.18L188.87,74.52L187.30,78.66L185.83,81.59L182.98,85.74L180.41,88.36L177.28,90.93L173.31,92.93L170.19,93.69L166.37,93.70L164.04,92.92L163.01,92.13L161.74,91.59L159.92,90.05L158.60,87.99L157.82,85.40L157.56,83.58L157.56,80.29L158.07,76.91L159.38,72.51L162.67,65.95L165.50,62.30L167.69,59.83L171.48,56.88L175.38,55.07L177.45,54.54L180.12,54.54zM144.09,76.83L147.98,78.91L150.04,80.99L151.61,84.09L152.38,87.47L152.38,92.74L151.86,95.59L150.48,99.66L148.23,104.15L146.07,107.18L144.23,109.23L141.13,112.09L137.26,114.44L134.73,115.28L132.59,115.73L129.03,115.74L126.74,114.93L123.10,112.60L121.78,110.81L120.99,109.27L120.48,107.19L120.21,103.90L120.66,99.40L121.70,95.77L123.51,91.36L126.21,86.80L128.55,83.95L130.51,81.77L134.66,78.65L138.04,77.11L140.11,76.58L143.04,76.58zM206.32,102.87L204.14,103.02L202.68,103.92L202.68,102.59L204.14,101.72L206.32,101.72zM147.71,115.04L147.38,115.27L146.85,115.32L146.84,112.35L147.72,112.35zM179.59,117.05L180.66,117.30L177.70,117.54L176.74,117.88L174.68,118.93L173.01,120.42L172.52,120.50L172.89,119.22L173.23,118.52L173.93,118.16L173.57,118.01L173.23,118.52L172.09,119.48L172.10,118.16L173.55,116.77L175.37,115.99L176.67,115.74L179.36,115.72zM179.68,118.23L180.00,118.33L180.63,118.03L179.86,119.45L179.58,118.87L179.58,118.10zM177.99,118.81L178.53,118.84L178.76,119.90L178.28,119.93L177.94,119.69L178.26,119.10zM136.33,119.07L136.32,121.54L136.04,122.04L135.18,122.06L135.18,119.11L136.07,118.80zM176.22,119.95L175.91,120.16L175.18,121.01L175.18,119.69L175.89,118.83L176.53,118.60zM167.14,121.53L167.13,120.73L167.36,120.15L167.98,119.91zM165.33,121.29L166.16,120.93L166.13,121.80L165.32,121.70zM180.50,121.35L179.83,122.85L179.54,122.86L179.51,121.16L180.40,121.18zM170.29,123.35L169.21,124.64L166.80,124.64L166.88,123.57L167.08,123.00L169.23,122.56L170.29,121.43zM170.84,125.32L170.80,125.66L170.47,125.89L169.99,125.86L170.00,125.14L170.55,125.02zM164.83,126.98L163.70,127.14L162.63,127.66L162.15,127.77L162.21,126.68L162.92,126.10L163.70,125.84L164.83,125.83zM154.67,131.10L155.66,130.24L156.53,130.24L156.52,131.38L155.40,131.84L154.70,131.82zM151.09,134.50L149.69,134.66L147.88,135.48L147.36,135.53L147.43,134.73L147.87,134.13L149.69,133.36L151.09,133.35zM194.65,135.27L194.31,136.22L192.74,138.57L193.26,138.59L200.90,134.16L200.80,134.63L180.03,146.63L179.49,146.66L179.50,146.38L188.17,141.47L188.16,141.38L183.41,142.44L176.92,142.54L176.92,139.32L180.56,139.33L184.79,138.89L188.94,137.60L191.56,136.07L193.35,134.49L194.66,132.32zM201.41,139.96L192.72,145.03L191.19,145.01L190.50,145.38L190.22,146.40L180.04,152.30L180.12,155.41L187.64,159.86L188.16,159.92L188.34,156.96L191.55,155.21L191.59,154.88L191.31,154.60L188.92,154.38L187.40,153.58L187.13,153.33L187.13,151.60L188.59,150.73L189.63,150.48L191.03,150.47L191.19,153.68L192.83,154.11L193.65,154.85L194.13,156.22L194.64,156.30L194.91,153.16L202.88,148.62L203.20,148.64L203.20,151.60L201.57,152.56L201.38,175.45L197.24,177.79L196.98,179.09L184.79,186.11L184.55,185.23L180.31,187.58L179.52,187.67L179.52,147.10L181.08,146.59L201.30,134.90L201.41,134.93zM198.51,145.37L199.22,144.51L200.25,143.98L202.43,143.99L202.43,146.94L201.58,147.12L201.37,147.71L200.33,147.64L199.07,147.09L198.51,146.34zM195.35,148.68L194.54,148.75L194.54,148.17L195.47,147.91zM209.71,147.74L207.35,149.26L206.49,149.55L206.57,146.42L209.71,144.78zM175.74,185.78L175.73,186.06L175.40,186.30L174.90,186.29L174.59,186.00L174.94,185.21zM132.96,27.55L132.94,28.70L132.67,29.47L131.55,30.68L130.26,30.77L130.05,30.46L130.07,28.94L130.62,27.94L131.55,27.02L132.15,27.03zM144.09,43.49L143.20,44.70L142.81,44.70L142.27,44.16L141.49,43.90L139.58,43.90L138.29,44.28L138.29,42.87L139.58,42.35L142.54,42.34zM145.10,45.22L145.38,46.25L145.38,49.44L145.12,50.74L144.60,52.04L143.73,52.04L144.01,50.14L144.08,47.28L143.81,46.25L143.83,45.02L144.36,44.69zM141.75,44.94L143.08,46.73L143.57,47.79L143.56,49.95L143.03,52.04L141.92,51.69L142.27,50.47L142.27,48.57L141.52,46.99L140.97,46.50L140.19,46.23L139.33,46.23L138.37,46.60L138.37,45.02L139.33,44.68L141.24,44.67zM140.75,47.53L140.75,47.88L140.10,48.57L138.28,48.67L138.30,47.28L138.79,47.00L139.94,47.01zM141.76,49.63L141.50,51.78L140.34,51.77L140.43,49.43L141.16,48.52L141.48,48.56zM139.66,50.14L139.68,52.04L138.79,53.74L137.26,54.82L136.28,54.83L135.76,54.31L135.77,52.28L136.45,50.88L137.76,49.60L138.91,49.61zM137.10,45.05L136.06,45.83L134.12,48.03L132.42,50.99L131.26,50.91L133.34,47.25L135.93,44.39L137.10,43.64zM137.10,49.46L135.70,51.17L134.65,51.26L134.71,50.73L136.20,48.81L137.10,48.05zM135.04,52.69L134.99,54.78L134.38,55.85L133.89,55.95L133.93,52.78L134.16,52.45L134.76,52.41zM140.76,53.22L140.74,53.58L138.79,56.11L138.30,56.21L138.39,54.89L139.83,52.94L140.48,52.94zM144.06,53.49L142.52,56.43L140.19,59.29L138.79,60.52L138.30,60.62L138.30,59.21L141.12,56.59L143.17,53.24zM104.42,62.33L101.98,62.57L99.40,63.62L96.29,65.95L93.67,69.04L91.62,72.69L90.06,76.83L89.63,80.55L89.67,82.35L86.55,80.70L76.67,75.02L76.40,73.99L76.40,69.66L77.36,65.95L78.99,62.65L81.36,59.32L83.58,57.13L86.43,55.32L87.98,54.79L91.20,54.79zM137.07,47.36L136.59,47.65L134.90,49.59L133.64,52.22L133.18,54.37L133.11,56.35L133.45,56.85L132.43,58.01L132.13,57.70L131.89,56.36L131.89,54.62L132.67,51.51L134.77,47.90L136.75,45.93L137.07,45.95zM137.11,55.59L137.01,57.15L134.97,57.16L134.65,56.94L134.88,56.33L135.43,55.53zM131.38,54.62L131.30,58.48L131.68,59.02L130.89,60.09L130.33,59.22L130.07,58.18L130.08,55.14L130.58,52.79L130.77,52.21L131.88,52.17zM134.73,57.93L136.75,57.92L138.52,56.85L139.42,56.19L141.40,53.24L142.52,53.22L142.49,53.48L140.35,56.85L138.52,58.40L136.75,59.48L135.43,59.74L133.69,59.49L133.19,59.20L133.19,58.27L133.88,57.62zM79.53,58.41L79.53,59.83L78.13,61.54L76.92,61.54L76.67,61.28L76.65,59.79L77.21,58.80L78.12,57.88L79.01,57.89zM133.44,60.26L136.23,60.26L137.11,59.99L137.00,61.55L135.19,62.07L133.44,62.07L131.92,61.52L131.28,60.74L132.09,59.72L132.40,59.68zM105.46,65.71L105.49,66.02L104.56,67.00L104.17,67.00L103.63,66.46L102.86,66.20L100.95,66.20L99.66,66.58L99.66,65.17L100.95,64.65L103.90,64.64zM186.63,68.78L186.86,69.84L186.86,73.29L186.09,76.66L184.01,81.07L181.58,84.34L179.09,86.52L175.65,88.26L172.33,88.27L170.54,87.20L169.48,85.67L168.97,83.58L168.97,80.30L169.68,77.11L171.22,73.47L173.66,69.94L176.41,67.25L179.77,65.42L180.92,65.42zM106.24,67.22L106.75,68.28L106.74,71.73L106.16,74.26L105.08,74.33L105.44,72.25L105.45,69.31L105.17,68.56L105.19,67.32L105.73,66.98zM103.12,67.24L104.44,69.03L104.93,70.09L104.93,72.25L104.39,74.34L103.88,74.31L103.54,74.06L103.64,70.87L102.88,69.29L102.33,68.80L101.55,68.53L100.70,68.53L99.74,68.90L99.74,67.32L100.69,66.98L102.61,66.97zM102.12,69.83L102.11,70.18L101.47,70.87L99.65,70.97L99.66,69.58L100.16,69.30L101.31,69.31zM103.12,71.65L102.87,74.08L101.70,74.06L101.78,71.74L102.53,70.82L102.83,70.86zM101.03,72.44L101.04,74.34L100.77,75.10L99.64,76.56L98.63,77.12L97.65,77.13L97.12,76.61L97.13,74.57L98.07,72.92L99.12,71.90L100.27,71.90zM223.69,72.96L223.70,73.81L223.43,74.59L222.56,75.54L221.54,75.63L221.31,75.31L221.33,74.32L222.07,72.97L222.56,72.66L223.17,72.66zM98.46,67.35L97.58,68.02L95.48,70.32L93.78,73.29L92.63,73.21L94.70,69.55L97.29,66.69L98.46,65.94zM98.46,71.76L97.07,73.47L96.01,73.56L96.07,73.03L97.56,71.11L98.46,70.35zM96.40,74.99L96.35,77.08L95.75,78.15L95.34,78.17L95.30,75.08L95.52,74.75L96.12,74.71zM102.12,75.52L102.11,75.88L101.21,77.10L99.75,78.77L99.75,77.19L101.23,75.28L101.83,75.24zM105.43,75.79L104.67,77.44L102.33,80.81L100.15,82.82L99.67,82.92L99.67,81.51L102.63,78.77L104.57,75.51zM98.44,69.66L97.56,70.33L95.88,72.54L94.80,75.09L94.48,78.65L94.81,79.15L93.80,80.31L93.50,80.00L93.16,77.38L94.03,73.81L96.13,70.20L98.12,68.23L98.44,68.25zM98.48,77.89L98.37,79.45L96.33,79.46L96.01,79.24L96.10,78.77L96.83,77.87zM92.74,77.18L92.64,80.23L93.03,81.33L92.24,82.38L91.69,81.52L91.44,80.21L91.45,77.70L92.14,74.51L93.25,74.47zM96.10,80.22L98.12,80.22L99.89,79.15L100.79,78.49L102.77,75.54L103.89,75.52L103.85,75.78L101.71,79.15L99.89,80.70L98.12,81.78L96.79,82.04L95.06,81.79L94.55,81.50L94.56,80.57L95.25,79.92zM79.53,80.71L79.53,82.13L78.13,83.83L76.92,83.84L76.67,83.58L76.65,82.09L77.60,80.46L78.13,80.19L79.01,80.19zM94.80,82.56L97.60,82.56L98.48,82.29L98.37,83.85L96.56,84.37L94.81,84.36L93.79,84.09L92.72,83.31L92.73,82.91L93.45,82.02L93.76,81.98zM182.11,56.60L178.05,60.07L174.18,63.46L170.55,67.61L167.19,72.54L161.19,83.66L159.90,85.25L159.90,81.07L160.67,76.92L161.97,73.03L164.48,68.02L167.32,64.12L169.39,61.78L171.05,60.33L173.05,58.70L175.63,57.13L178.48,56.09L179.78,55.84L182.22,55.84zM149.06,90.53L149.53,91.61L149.52,95.85L148.41,99.67L146.67,103.11L144.63,106.00L141.77,108.58L138.31,110.30L134.99,110.30L133.21,109.24L131.88,106.68L131.63,105.36L131.63,103.11L132.14,99.98L133.45,96.63L135.55,93.02L138.14,90.17L140.71,88.33L142.43,87.46L143.84,87.46zM122.56,103.63L123.07,100.25L124.37,95.85L127.66,89.29L130.50,85.64L132.69,83.16L136.48,80.21L139.59,78.66L142.44,77.88L145.15,77.88L145.05,78.37L142.01,81.07L137.23,85.11L133.47,89.39L129.97,94.44L124.81,104.06L122.82,107.25L122.55,106.97zM162.26,108.45L162.25,109.61L161.19,110.90L160.39,111.11L160.08,110.90L160.14,109.32L161.47,107.95zM173.93,118.16L173.23,118.52L173.57,118.01zM189.47,129.82L188.45,131.14L186.26,132.59L183.16,133.63L181.58,133.64L189.57,129.14z"/><g id="Actor_.0"><g style="stroke:#000000;stroke-width:0.353"><path d="M136.24,162.06L136.36,162.27L136.58,162.45L136.58,163.11"/><path d="M136.58,162.45L178.86,186.86L178.86,187.52"/><path d="M140.62,166.19L174.82,185.94L174.85,186.13L174.93,186.27L175.06,186.34"/><path d="M174.82,185.94L174.82,185.19"/><path d="M178.86,186.86L179.17,186.98L179.53,187.05L179.92,187.05L180.28,186.99L180.59,186.85L180.59,187.52"/><path d="M201.22,175.61L201.22,174.94L180.59,186.85"/><path d="M184.39,186.34L184.52,186.27L184.60,186.13L184.63,185.94L184.63,185.19"/><path d="M184.63,185.94L197.18,178.69"/><path d="M201.57,174.33L201.57,174.55L201.45,174.76L201.22,174.94"/></g><g style="stroke:#000000;stroke-width:0.705"><path d="M176.04,185.90L175.40,186.27L175.22,186.34L175.06,186.34L140.73,166.52L140.65,166.38L140.62,166.19L140.62,165.45L136.58,163.11L136.36,162.93L136.24,162.72L136.24,162.06"/><path d="M184.63,185.19L180.59,187.52L180.28,187.65L179.92,187.72L179.53,187.72L179.17,187.65L178.86,187.52L174.82,185.19"/><path d="M201.57,174.33L201.57,175.22L201.45,175.43L201.22,175.61L197.18,177.94L197.18,178.69L197.16,178.88L197.07,179.02L184.39,186.34L184.23,186.34L184.05,186.27L183.40,185.90"/></g></g><g id="Actor_.1"><g style="stroke:#000000;stroke-width:0.353"><path d="M136.24,126.93L127.92,122.13"/><path d="M132.23,121.10L132.27,120.55"/><path d="M134.34,118.42L135.16,118.89L136.11,118.86L137.03,118.98L137.87,119.24L138.56,119.62L139.02,120.05"/><path d="M135.16,122.05L135.16,118.89"/><path d="M136.58,133.29L136.58,122.46L147.91,129.00"/><path d="M136.58,122.46L136.36,122.28L136.24,122.07L136.24,121.85"/><path d="M136.84,121.40L136.84,121.51L136.90,121.62L137.01,121.71L137.01,122.21L148.34,128.75"/><path d="M137.01,122.21L136.90,122.12L136.84,122.01L136.84,121.90"/><path d="M137.01,121.71L148.77,128.50"/><path d="M149.20,128.25L141.92,124.04L141.81,123.95L141.75,123.85L141.75,123.74"/><path d="M141.92,124.04L141.92,120.54L141.81,120.45L141.75,120.35L141.75,120.24"/><path d="M141.92,120.54L152.24,126.50"/><path d="M142.38,118.11L142.38,117.94L142.53,118.03"/><path d="M142.38,117.94L142.22,117.81L142.14,117.66L142.14,117.51"/><path d="M143.82,113.89L143.77,114.44"/><path d="M150.47,113.30L150.11,112.96L149.41,112.58L148.58,112.32L147.65,112.20L146.70,112.22L146.70,115.39"/><path d="M146.70,112.22L145.89,111.75"/><path d="M154.99,132.09L156.31,132.85"/><path d="M155.37,131.80L156.57,132.50"/><path d="M168.81,141.06L178.86,146.87L178.86,157.70"/><path d="M169.24,140.82L179.29,146.62L179.29,146.12L169.67,140.57"/><path d="M179.29,146.12L179.45,146.18L179.63,146.22L179.82,146.22L180.00,146.18L180.16,146.12L190.47,140.16L188.96,140.93L187.28,141.57L185.47,142.08L183.56,142.45L181.58,142.67L179.57,142.73L177.57,142.64L175.60,142.40L173.70,142.01L171.91,141.48L170.25,140.82L169.71,140.54"/><path d="M173.20,138.53L173.70,138.68L175.60,139.07L177.57,139.31L179.57,139.40L181.58,139.33L183.56,139.12L185.47,138.75L187.28,138.24L188.96,137.59L190.47,136.83L191.80,135.95L192.92,134.99L193.80,133.94L194.43,132.84L194.81,131.70L194.93,130.54"/><path d="M189.92,130.50L189.83,131.45L189.47,132.38L188.85,133.25L188.00,134.07L186.94,134.79L185.69,135.40L184.28,135.89L182.76,136.25L181.16,136.45L179.52,136.51L177.89,136.42L177.08,136.29"/><path d="M178.86,146.87L179.17,147.00L179.53,147.07L179.92,147.07L180.28,147.00L180.59,146.87L180.59,152.03L180.28,152.16L180.04,152.22L180.04,155.38"/><path d="M180.04,152.22L188.38,157.03L188.38,160.20"/><path d="M179.29,146.62L179.45,146.68L179.63,146.72L179.82,146.72L180.00,146.68L180.16,146.62L180.16,146.12"/><path d="M180.59,157.70L180.59,155.70"/><path d="M180.59,152.03L190.29,146.43L190.29,145.60L194.18,147.86L194.40,147.94L194.67,147.99L194.94,147.99L195.20,147.94L195.42,147.85L195.58,147.72L195.67,147.57"/><path d="M180.59,146.87L201.22,134.95L201.22,140.12L192.25,145.30"/><path d="M180.16,146.62L200.79,134.70L200.79,134.21L190.47,140.16L191.80,139.29L192.92,138.32L193.80,137.27L194.43,136.17L194.81,135.03L194.93,133.87"/><path d="M189.83,128.93L189.47,129.88L188.85,130.76L188.00,131.57L186.94,132.29L185.69,132.90L184.28,133.39L182.76,133.75L181.12,133.96"/><path d="M186.93,152.25L187.17,151.72L187.64,151.24L188.31,150.85L189.13,150.58L190.05,150.44L191.00,150.45L191.91,150.60L192.72,150.89L193.37,151.29L193.82,151.77L194.03,152.31"/><path d="M188.38,157.03L191.92,154.99"/><path d="M190.29,146.43L194.18,148.68L194.18,147.86"/><path d="M190.29,145.60L191.53,144.88"/><path d="M193.99,152.85L194.80,153.32L203.46,148.33"/><path d="M194.80,153.32L194.80,156.49"/><path d="M194.18,148.68L194.40,148.78L194.67,148.83L194.94,148.83L195.20,148.78L195.42,148.68L195.58,148.56L195.67,148.40"/><path d="M205.57,145.64L205.36,145.11L204.92,144.62L204.27,144.22L203.46,143.94L202.54,143.79L201.59,143.78L200.68,143.92L199.85,144.19L199.18,144.57L198.71,145.05L198.47,145.58"/><path d="M201.22,140.12L201.45,139.94L201.54,139.80"/><path d="M200.79,134.70L200.90,134.62L200.96,134.51"/><path d="M201.22,134.95L201.45,134.78L201.57,134.57"/><path d="M200.79,134.21L200.90,134.12L200.96,134.01"/><path d="M209.88,144.62L206.35,146.66L205.53,146.19"/><path d="M206.35,149.82L206.35,146.66"/></g><g style="stroke:#000000;stroke-width:0.705"><path d="M136.24,130.09L127.92,125.29L127.92,122.13L131.46,120.08L132.27,120.55L132.27,121.21"/><path d="M136.24,122.96L135.26,122.96L134.35,122.80L133.54,122.52L132.89,122.12L132.44,121.64L132.23,121.10"/><path d="M143.82,114.54L143.82,113.89L143.00,113.42L134.34,118.42L134.34,121.58L135.16,122.05L136.11,122.03L136.24,122.05"/><path d="M138.53,134.41L136.58,133.29L136.36,133.11L136.24,132.90L136.24,121.85L136.36,121.64L136.58,121.46L137.01,121.21L136.90,121.30L136.84,121.40L136.84,121.90"/><path d="M137.01,121.21L148.98,114.30"/><path d="M141.75,123.74L141.75,120.24L141.81,120.13L141.92,120.04L156.67,111.53"/><path d="M142.14,118.25L142.14,117.51L142.22,117.36L142.38,117.23L142.60,117.13L142.86,117.08L143.14,117.08L143.40,117.13L143.62,117.23L143.77,117.31"/><path d="M143.77,114.44L143.98,114.97L144.43,115.46L145.08,115.85L145.83,116.12"/><path d="M153.17,111.88L149.42,109.71L148.31,110.36L145.89,111.75L145.89,114.92L146.70,115.39L147.11,115.38"/><path d="M147.51,116.81L147.64,116.14L148.05,115.31L148.70,114.53L149.56,113.82L150.00,113.57L150.63,113.21L151.85,112.71L153.20,112.34L154.64,112.10L155.81,112.02"/><path d="M151.46,112.87L157.50,109.38"/><path d="M182.32,156.70L180.59,157.70L180.28,157.83L179.92,157.90L179.53,157.90L179.17,157.83L178.86,157.70L159.43,146.48"/><path d="M161.15,108.94L160.10,109.55"/><path d="M172.87,114.59L167.26,111.35"/><path d="M186.93,152.25L186.94,152.79L187.21,153.32L187.70,153.79L188.39,154.17L189.23,154.42L190.16,154.54L191.10,154.52L191.92,154.99L191.92,158.16L188.38,160.20L180.04,155.38"/><path d="M198.47,145.58L198.49,146.13L198.75,146.66L199.24,147.12L199.93,147.50L200.77,147.76L201.70,147.88L202.65,147.86L203.46,148.33L203.46,151.49L194.80,156.49L193.99,156.02L193.99,155.36L193.82,154.94L193.37,154.45L192.72,154.05L191.91,153.77L191.00,153.62L190.05,153.61L189.13,153.75L188.31,154.02L188.22,154.07"/><path d="M189.92,130.50L189.92,128.87"/><path d="M191.53,144.88L195.42,147.13L195.59,147.26L195.67,147.41L195.67,148.40"/><path d="M193.99,155.36L193.99,152.85L194.03,152.31"/><path d="M193.42,126.85L193.68,127.14L194.36,128.24L194.77,129.38L194.93,130.54L194.93,133.87"/><path d="M194.89,130.30L201.22,133.95L201.45,134.13L201.57,134.34L201.57,139.82L201.54,139.80"/><path d="M205.53,148.70L205.36,148.27L204.92,147.79L204.27,147.39L203.46,147.10L202.54,146.95L201.59,146.94L200.68,147.08L199.85,147.35L199.76,147.41"/><path d="M200.50,133.54L200.79,133.70L200.90,133.79L200.96,133.90L200.96,134.51"/><path d="M205.57,145.64L205.53,146.19L205.53,149.36L206.35,149.82L209.88,147.78L209.88,144.62L201.57,139.82"/></g></g><g id="Actor_.2"><g style="stroke:#000000;stroke-width:0.353"><path d="M180.72,121.02L180.50,121.06L180.16,121.10L179.81,121.11L179.46,121.11L179.11,121.08L178.77,121.03L178.44,120.96L178.13,120.87L177.83,120.76L177.56,120.64L177.31,120.49L177.09,120.33L176.90,120.16L176.75,119.98L176.62,119.79L176.54,119.60L176.49,119.40L176.48,119.19"/><path d="M177.83,119.59L178.11,119.36L178.40,119.13L178.69,118.92"/><path d="M178.69,118.67L178.14,118.79L177.60,118.95"/><path d="M179.47,119.41L178.64,117.87L178.36,118.01L178.32,118.03L178.09,118.17L177.83,118.34"/><path d="M179.22,122.99L179.13,122.96L179.02,122.91L178.93,122.84L178.88,122.80"/><path d="M178.64,117.87L178.92,117.96L179.21,118.07L179.50,118.20L179.72,119.35L179.72,119.88L179.67,119.98"/><path d="M179.19,122.75L179.22,122.76L179.49,122.79L179.76,122.80L179.90,122.79"/><path d="M179.72,120.18L179.72,119.88L179.90,119.55"/><path d="M181.62,118.34L181.36,118.17L181.09,118.01L180.81,117.87L179.97,119.41"/><path d="M179.78,119.98L179.54,119.55"/><path d="M179.80,119.92L179.72,119.88L179.65,119.92"/><path d="M179.50,118.20L179.61,117.95L179.72,117.73L179.72,119.35L179.94,118.20L180.23,118.07L180.39,118.01L180.52,117.96L180.81,117.87"/><path d="M179.94,118.20L179.84,117.95L179.72,117.73"/><path d="M180.75,118.92L181.04,119.13L181.33,119.36L181.35,119.37"/><path d="M180.75,118.67L181.30,118.79L181.51,118.85"/></g><g style="stroke:#000000;stroke-width:0.705"><path d="M179.91,122.77L179.81,122.78L179.45,122.77L179.08,122.74L178.72,122.69L178.38,122.62L178.04,122.52L177.73,122.41L177.45,122.27L177.19,122.12L176.95,121.96L176.91,121.92L176.76,121.78L176.59,121.59L176.46,121.39L176.38,121.18L176.33,120.97L176.32,120.76L176.48,119.19L176.51,118.99L176.58,118.79L176.68,118.60L176.82,118.41L177.00,118.23L177.20,118.07L177.43,117.92L177.69,117.79L177.98,117.67L178.28,117.57L178.60,117.49L178.94,117.43L179.28,117.39L179.49,117.38L179.63,117.37L179.99,117.38L180.33,117.41L180.67,117.45L181.00,117.52L181.32,117.61L181.61,117.72L181.83,117.82"/><path d="M178.05,122.52L178.02,122.58L177.98,122.73L177.97,122.80"/><path d="M177.83,118.34L177.83,118.34L178.11,118.43L178.40,118.54L178.69,118.67L178.91,119.81L178.69,118.92L178.14,118.92L177.60,118.95"/><path d="M177.83,119.59L178.09,119.74L178.64,120.06L178.92,119.82L179.06,119.72L179.21,119.60L179.50,119.39L179.72,120.18L179.94,119.39L180.23,119.60L180.51,119.81L180.81,120.06L181.20,119.83"/><path d="M179.83,122.92L179.76,122.93L179.49,122.92L179.22,122.89L178.97,122.83L178.74,122.75L178.53,122.66L178.51,122.64"/><path d="M178.91,119.81L178.91,119.83"/><path d="M181.49,118.93L181.30,118.92L180.75,118.92L180.53,119.81L180.53,119.83"/><path d="M180.53,119.81L180.75,118.67L181.04,118.54L181.33,118.43L181.62,118.34"/></g></g><g id="Actor_.3"><g style="stroke:#000000;stroke-width:0.353"><path d="M136.58,162.45L136.58,133.29L136.36,133.11L136.24,132.90"/><path d="M136.58,133.29L138.53,134.41"/><path d="M159.43,146.48L178.86,157.70L178.86,186.86"/><path d="M178.86,157.70L179.17,157.83L179.53,157.90L179.92,157.90L180.28,157.83L180.59,157.70L180.59,186.85"/><path d="M180.59,157.70L182.32,156.70"/><path d="M201.22,174.94L201.22,152.78"/><path d="M201.22,147.82L201.22,147.00"/></g><g style="stroke:#000000;stroke-width:0.705"><path d="M136.24,132.79L136.24,162.06L136.36,162.27L136.58,162.45L169.41,181.40L178.86,186.86L179.17,186.98L179.53,187.05L179.92,187.05L180.28,186.98L180.59,186.85L201.22,174.94L201.45,174.76L201.57,174.55L201.57,152.58"/><path d="M201.57,147.86L201.57,146.95"/></g></g><g id="Actor_.4"><g style="stroke:#000000;stroke-width:0.353"><path d="M105.41,62.86L104.70,62.47L103.92,62.21L103.08,62.09L102.19,62.10L101.26,62.25L100.29,62.54L99.31,62.95L99.26,62.98L98.32,63.49L97.33,64.16L96.36,64.93L95.41,65.81L94.49,66.78L93.62,67.84L92.81,68.97L92.07,70.15L91.39,71.38L90.80,72.64L90.30,73.92L89.89,75.20L89.58,76.46L89.37,77.70L89.26,78.90L89.26,79.29L89.26,80.05L89.37,81.13L89.58,82.13L89.89,83.03L90.30,83.84L90.80,84.53L91.39,85.11L92.07,85.57"/><path d="M90.99,82.82L90.69,81.96L90.50,81.03L90.40,80.01L90.40,78.94L90.50,77.81L90.69,76.65L90.87,75.94L90.99,75.46L91.37,74.26L91.84,73.06L92.40,71.87L93.03,70.72L93.71,69.64L94.49,68.55L95.31,67.56L96.17,66.64L97.06,65.82L97.97,65.09L98.90,64.47L99.83,63.96L100.32,63.75L100.76,63.57L101.66,63.30L102.54,63.16L103.37,63.15L104.16,63.26L104.90,63.50L105.56,63.87L106.16,64.35L106.67,64.95L107.10,65.66L107.44,66.47L107.69,67.36L107.83,68.34L107.88,69.38L107.83,70.48L107.69,71.63L107.44,72.81L107.10,74.01L106.67,75.21L106.16,76.40L105.56,77.57L104.90,78.71L104.16,79.80L103.37,80.82L102.54,81.78L101.66,82.65L100.76,83.42L99.83,84.10L98.90,84.67L97.97,85.12L97.06,85.45L96.17,85.65L95.31,85.73L94.49,85.68L93.73,85.50L93.03,85.19L92.40,84.77L91.84,84.23L91.37,83.57L90.99,82.82"/><path d="M93.31,74.52L92.90,76.03L92.68,77.48L92.68,78.83L92.88,79.98L92.90,80.04L93.31,81.07L92.18,82.48"/><path d="M92.74,80.74L93.31,81.07"/><path d="M98.11,66.91L98.68,67.24L97.52,68.12L96.42,69.21L95.40,70.48L94.51,71.87L93.77,73.35L92.63,73.25"/><path d="M93.20,73.02L93.77,73.35"/><path d="M98.11,83.34L98.68,83.67L97.49,84.17L96.33,84.44L95.24,84.46L94.25,84.25L93.37,83.80"/><path d="M93.77,81.72L94.51,82.34"/><path d="M93.81,80.46L94.94,79.04L94.64,78.16L94.53,77.11L94.63,75.94L94.93,74.70L95.41,73.46L96.06,72.25L96.85,71.14L97.57,70.36L97.73,70.18L98.68,69.41L98.68,67.89"/><path d="M94.92,81.65L95.71,81.97L96.61,82.06L97.59,81.91L98.61,81.53L99.65,80.93L100.68,80.13L101.66,79.15L102.55,78.02L103.35,76.78L104.01,75.47"/><path d="M95.40,79.69L96.04,80.15"/><path d="M94.94,79.04L94.37,78.72"/><path d="M96.45,79.46L97.12,79.63L97.26,79.62L97.87,79.59L98.68,79.32L98.11,79.00"/><path d="M95.44,78.43L96.58,77.01L96.43,76.37L96.43,76.07L96.43,75.62L96.58,74.81"/><path d="M96.01,76.68L96.58,77.01"/><path d="M95.89,73.54L97.03,73.64L97.50,72.86L98.06,72.16L98.68,71.59L98.11,71.26"/><path d="M97.03,73.64L96.46,73.31"/><path d="M100.88,71.96L101.19,72.48L101.29,73.19L101.19,74.02L100.88,74.89L100.40,75.72L99.80,76.42L99.13,76.93L98.47,77.19L97.87,77.18L97.80,77.14"/><path d="M98.11,69.08L98.68,69.41"/><path d="M98.68,83.67L98.68,82.16"/><path d="M99.59,83.14L100.78,82.26L101.86,81.27L101.94,81.20L103.03,79.97L104.02,78.61L104.90,77.15L105.64,75.62"/><path d="M98.68,79.32L98.68,77.80"/><path d="M99.59,78.80L100.40,78.13L101.15,77.30L101.82,76.36L102.38,75.33"/><path d="M98.68,71.59L98.68,70.07"/><path d="M100.67,70.89L101.24,71.21L100.77,70.97L100.21,70.92L99.59,71.07"/><path d="M99.59,68.88L100.54,68.56L101.42,68.50L102.21,68.70"/><path d="M99.59,66.71L100.75,66.26L101.85,66.08L102.87,66.17L103.76,66.53"/><path d="M98.68,67.24L98.68,65.72"/><path d="M102.83,70.44L103.08,71.20L103.17,72.10L103.08,73.10L102.83,74.16L101.69,74.06"/><path d="M101.24,71.21L102.38,69.79L101.81,69.46"/><path d="M102.38,69.79L101.82,69.41"/><path d="M102.83,74.16L102.26,73.83"/><path d="M103.33,74.20L104.46,74.30L104.83,72.97L105.00,71.79L105.02,71.68L105.02,70.47L104.85,69.39L104.49,68.46L103.97,67.72L103.30,67.19"/><path d="M103.89,73.98L104.46,74.30"/><path d="M104.96,74.35L106.09,74.45L105.52,74.12"/><path d="M104.90,65.07L105.64,65.74L104.50,67.15"/><path d="M105.07,65.41L105.64,65.74"/><path d="M106.09,74.45L106.55,72.90L106.71,71.99L106.82,71.38L106.92,69.94L106.82,68.61L106.55,67.41L106.09,66.39"/></g><g style="stroke:#000000;stroke-width:0.705"><path d="M77.11,76.08L76.60,74.87L76.29,73.48L76.18,71.94L76.29,70.28L76.60,68.53L77.11,66.74L77.80,64.95L78.66,63.21L79.69,61.50L80.84,59.93L82.10,58.51L83.43,57.27L84.80,56.24L86.20,55.43L87.57,54.88L88.90,54.58L90.16,54.56L91.31,54.80L92.33,55.30L105.41,62.86L106.04,63.37L106.20,63.51L106.74,64.14L107.20,64.89L107.29,65.06L107.64,65.91L107.90,66.85L108.06,67.88L108.11,68.98L108.11,69.13L108.06,70.27L107.90,71.46L107.65,72.69L107.30,73.93L106.85,75.18L106.46,76.07L106.32,76.42L105.70,77.63L105.01,78.81L104.25,79.94L103.43,81.00L102.56,81.99L101.65,82.90L100.71,83.70L99.75,84.41L98.78,84.99L98.65,85.07L97.68,85.54L96.71,85.89L95.78,86.10L94.87,86.18L94.68,86.20L93.81,86.14L93.01,85.95L92.81,85.89L92.07,85.57L78.67,77.82L77.80,77.07L77.11,76.08"/><path d="M93.31,74.52L92.18,74.42L91.72,75.97L91.44,77.49L91.35,78.93L91.44,80.26L91.72,81.46L92.18,82.48"/><path d="M91.88,81.81L92.74,80.74L92.33,79.72L92.12,78.51L92.12,77.15L92.33,75.70L92.67,74.46"/><path d="M93.77,81.72L92.63,83.13L93.37,83.80"/><path d="M93.28,83.72L93.68,83.92L94.67,84.13L95.76,84.11L96.92,83.84L98.11,83.34L98.11,82.38"/><path d="M98.68,67.89L97.65,68.68L96.68,69.64L95.77,70.77L94.97,72.00L94.30,73.31L93.79,74.63L93.42,75.98L93.25,77.27L93.25,78.47L93.44,79.54L93.81,80.46"/><path d="M92.63,73.25L93.37,71.72L94.25,70.26L95.24,68.90L96.33,67.67L96.51,67.50L97.49,66.60L98.68,65.72"/><path d="M98.11,66.14L98.11,66.91L96.95,67.79L95.85,68.89L94.83,70.15L93.94,71.54L93.20,73.02L92.76,72.98"/><path d="M98.68,82.16L97.52,82.61L96.42,82.79L95.40,82.70L94.51,82.34L93.94,82.01L93.70,81.80"/><path d="M95.40,79.69L94.26,81.10L94.92,81.65"/><path d="M98.11,68.33L98.11,69.08L97.16,69.85L96.28,70.82L95.49,71.92L94.85,73.13L94.36,74.37L94.06,75.61L94.02,76.07L93.96,76.78L94.07,77.83L94.37,78.72L93.53,79.76"/><path d="M103.31,75.41L102.78,76.46L101.99,77.69L101.09,78.82L100.11,79.80L99.09,80.60L98.05,81.20L97.02,81.58L96.04,81.73L95.15,81.64L94.69,81.46"/><path d="M95.36,79.74L95.47,79.82L96.04,80.15L96.82,80.36L97.70,80.31L98.65,80.00L99.62,79.44L100.56,78.66L101.45,77.69L102.23,76.58L102.87,75.37L104.01,75.47"/><path d="M95.44,78.43L95.19,77.66L95.10,76.76L95.19,75.76L95.44,74.71L96.58,74.81"/><path d="M95.96,74.76L95.86,75.30L95.86,76.04L96.01,76.68L95.20,77.69"/><path d="M96.45,79.46L95.89,79.07L97.03,77.65L97.50,77.90L98.06,77.95L98.68,77.80"/><path d="M98.11,77.94L98.11,79.00L97.30,79.26L96.55,79.30L96.03,79.17"/><path d="M98.68,70.07L97.87,70.74L97.12,71.56L96.45,72.51L95.89,73.54"/><path d="M96.03,73.27L96.46,73.31L96.93,72.53L97.49,71.83L98.11,71.26L98.11,70.54"/><path d="M97.79,77.14L97.39,76.91L97.08,76.39L96.98,75.68L97.08,74.85L97.39,73.98L97.87,73.15L98.47,72.45L99.13,71.94L99.80,71.68L100.40,71.68L100.88,71.96"/><path d="M100.34,71.68L100.62,72.15L100.72,72.86L100.62,73.69L100.31,74.56L99.91,75.26L99.83,75.39L99.23,76.09L98.57,76.60L97.90,76.86L97.36,76.86"/><path d="M99.59,83.14L99.59,81.63L100.75,80.75L101.85,79.65L102.87,78.39L103.76,77.00L104.50,75.52L105.64,75.62"/><path d="M104.94,75.56L104.33,76.82L103.45,78.28L102.46,79.64L101.37,80.87L100.22,81.94L99.59,82.40"/><path d="M102.38,75.33L101.24,75.23L100.77,76.01L100.21,76.71L99.59,77.28L99.59,78.80"/><path d="M101.67,75.27L101.25,76.03L100.58,76.97L99.83,77.80L99.59,78.00"/><path d="M99.59,71.07L99.59,69.54L100.40,69.28L101.01,69.24L101.15,69.24L101.82,69.41"/><path d="M101.67,69.37L101.81,69.46L100.67,70.89L100.20,70.64L99.64,70.59L99.59,70.60"/><path d="M99.59,68.88L99.59,67.37L100.62,66.97L101.60,66.81L102.50,66.88L103.30,67.19"/><path d="M99.59,68.36L99.97,68.24L100.85,68.17L101.64,68.38L102.21,68.70L102.86,69.16L103.34,69.85L103.64,70.74L103.74,71.79L103.63,72.97L103.33,74.20"/><path d="M99.59,66.71L99.59,65.20L100.79,64.70L101.94,64.43L103.03,64.40L104.02,64.62L104.90,65.07"/><path d="M99.59,66.16L100.18,65.93L101.28,65.75L102.30,65.84L103.19,66.20L103.76,66.53L104.50,67.15"/><path d="M101.69,74.06L101.84,73.24L101.84,72.50L101.69,71.86L102.83,70.44"/><path d="M102.50,70.85L102.51,70.88L102.60,71.78L102.51,72.78L102.26,73.83L101.74,73.78"/><path d="M103.00,67.08L103.40,67.39L103.92,68.14L104.28,69.06L104.45,70.14L104.45,71.35L104.26,72.64L103.89,73.98L103.39,73.93"/><path d="M105.82,66.72L105.98,67.08L106.26,68.28L106.35,69.61L106.26,71.05L105.98,72.57L105.52,74.12L105.03,74.08"/><path d="M104.96,74.35L105.37,72.84L105.58,71.39L105.58,70.03L105.37,68.82L104.96,67.80L106.09,66.39"/><path d="M104.00,66.73L105.07,65.41L104.42,64.82"/></g></g><g id="Actor_.5"><g style="stroke:#000000;stroke-width:0.353"><path d="M74.76,56.89L75.90,57.54L75.90,86.67"/><path d="M75.90,57.54L133.73,24.15"/><path d="M79.19,80.00L79.51,80.30L79.68,80.77L79.68,81.37L79.51,82.04L79.19,82.71L78.75,83.29L78.25,83.73L77.72,83.98L77.25,84.02L76.86,83.83"/><path d="M79.19,57.70L79.51,57.99L79.68,58.47L79.71,58.76L79.68,59.07L79.51,59.74L79.19,60.40L78.75,60.99L78.66,61.07L78.25,61.43L77.72,61.68L77.25,61.71L76.86,61.53"/><path d="M130.26,30.70L130.64,30.88L131.12,30.85L131.65,30.60L132.15,30.16L132.59,29.57L132.91,28.91L133.08,28.24L133.08,27.64L132.91,27.16L132.59,26.87"/></g><g style="stroke:#000000;stroke-width:0.705"><path d="M84.94,81.45L75.90,86.67L74.76,86.01L74.76,56.89L132.59,23.50L133.73,24.15L133.73,34.60"/><path d="M76.86,83.83L76.61,83.44L76.52,82.90L76.61,82.25L76.86,81.57L77.25,80.94L77.72,80.42L77.82,80.36L78.25,80.07L78.75,79.93L79.19,80.00"/><path d="M78.51,80.00L78.55,80.11L78.55,80.72L78.38,81.39L78.06,82.05L77.62,82.63L77.11,83.08L76.59,83.33"/><path d="M79.19,57.70L78.75,57.62L78.25,57.77L77.72,58.12L77.25,58.64L76.86,59.27L76.61,59.95L76.52,60.59L76.61,61.14L76.86,61.53"/><path d="M78.51,57.69L78.55,57.81L78.57,58.10L78.55,58.41L78.38,59.08L78.06,59.75L77.62,60.33L77.11,60.77L76.59,61.02"/><path d="M123.58,59.14L108.07,68.10"/><path d="M132.59,26.87L132.15,26.79L131.65,26.94L131.12,27.29L130.64,27.81L130.26,28.44L130.01,29.12L129.92,29.76L130.01,30.31L130.26,30.70"/><path d="M131.91,26.86L131.95,26.98L131.95,27.58L131.78,28.25L131.46,28.92L131.02,29.50L130.51,29.94L129.99,30.19"/></g></g><g id="Actor_.6"><g style="stroke:#000000;stroke-width:0.353"><path d="M143.69,40.34L142.95,40.02L142.14,39.83L141.27,39.78L140.60,39.84L140.36,39.86L139.41,40.08L138.43,40.43L137.44,40.91L136.45,41.51L135.47,42.23L134.51,43.06L133.57,43.98L132.68,45.00L131.84,46.09L131.06,47.25L130.37,48.43L129.72,49.70L129.17,50.98L128.71,52.26L128.35,53.53L128.09,54.79L127.93,56.01L127.88,57.18L127.93,58.29L128.09,59.33L128.35,60.29L128.71,61.15L129.17,61.90L129.72,62.54L130.35,63.05"/><path d="M129.46,60.10L129.21,59.20L129.17,58.93L129.06,58.23L129.02,57.18L129.06,56.08L129.21,54.93L129.46,53.76L129.51,53.57L129.80,52.56L130.23,51.35L130.74,50.16L131.34,48.99L132.00,47.85L132.74,46.77L133.52,45.74L134.36,44.79L134.91,44.24L135.24,43.92L136.14,43.14L137.07,42.46L138.00,41.90L138.92,41.45L139.84,41.12L140.73,40.91L141.59,40.84L142.40,40.89L143.17,41.07L143.87,41.37L144.50,41.79L145.05,42.34L145.53,42.99L145.91,43.75L146.20,44.60L146.40,45.54L146.50,46.55L146.50,47.62L146.45,48.21L146.40,48.75L146.20,49.92L145.91,51.11L145.53,52.31L145.05,53.51L144.50,54.69L143.87,55.84L143.17,56.96L142.40,58.02L141.59,59.01L140.73,59.92L139.84,60.75L138.92,61.47L138.00,62.09L137.07,62.60L136.14,62.99L135.24,63.26L134.36,63.40L133.52,63.41L132.74,63.30L132.00,63.06L131.34,62.69L130.74,62.21L130.23,61.61L129.80,60.90L129.46,60.10"/><path d="M130.81,60.18L131.94,58.77L131.53,57.74L131.31,56.53L131.31,55.71L131.31,55.18L131.53,53.72L131.94,52.22"/><path d="M131.37,58.44L131.94,58.77"/><path d="M136.74,44.61L137.31,44.93L136.15,45.82L135.05,46.91L134.03,48.17L133.14,49.57L132.40,51.05L131.26,50.94"/><path d="M131.83,50.72L132.40,51.05"/><path d="M132.00,61.50L132.88,61.95L133.87,62.16L134.96,62.13L136.11,61.87L137.31,61.36L137.31,59.85"/><path d="M133.14,60.03L132.40,59.41"/><path d="M133.00,56.41L133.57,56.74L132.44,58.15"/><path d="M133.55,59.35L134.34,59.67L135.24,59.76L136.17,59.61L136.22,59.61L137.24,59.23L138.28,58.63L139.31,57.82L140.29,56.84L141.18,55.72L141.98,54.48L142.64,53.17"/><path d="M133.57,56.74L133.27,55.85L133.16,54.80L133.26,53.64L133.56,52.40L134.04,51.15L134.69,49.95L135.10,49.38L135.48,48.84L136.36,47.88L137.31,47.11L137.31,45.59"/><path d="M135.08,57.16L135.75,57.33L135.89,57.32L136.50,57.28L137.31,57.02L136.74,56.69"/><path d="M134.67,57.85L134.03,57.39"/><path d="M134.64,54.38L135.21,54.70L134.07,56.13"/><path d="M135.21,54.70L135.06,54.07L135.06,53.32L135.21,52.51"/><path d="M136.74,48.96L137.31,49.29L136.69,49.86L136.13,50.55L135.66,51.34L134.52,51.23"/><path d="M139.10,49.42L139.51,49.66L139.82,50.18L139.92,50.88L139.82,51.72L139.54,52.50L139.51,52.59L139.03,53.41L138.43,54.12L137.76,54.62L137.10,54.89L136.49,54.88L136.02,54.60"/><path d="M135.66,51.34L135.10,51.01"/><path d="M136.74,61.04L137.31,61.36"/><path d="M137.31,47.11L136.74,46.78"/><path d="M144.26,53.32L143.53,54.84L142.65,56.31L141.66,57.67L140.57,58.90L140.53,58.93L139.41,59.96L138.22,60.84"/><path d="M137.31,57.02L137.31,55.50"/><path d="M138.22,56.50L139.03,55.83L139.78,55.00L140.45,54.05L141.01,53.03"/><path d="M137.31,49.29L137.31,47.77"/><path d="M139.30,48.58L139.86,48.91L139.40,48.67L138.84,48.62L138.22,48.76"/><path d="M138.22,46.58L139.17,46.26L140.05,46.20L140.84,46.40"/><path d="M138.22,44.41L139.38,43.96L140.48,43.77L141.50,43.86L142.39,44.23"/><path d="M137.31,44.93L137.31,43.42"/><path d="M140.32,51.75L141.46,51.86L141.71,50.80L141.80,49.80L141.71,48.90L141.46,48.14"/><path d="M139.86,48.91L141.01,47.49L140.45,47.11"/><path d="M140.44,47.16L141.01,47.49"/><path d="M141.46,51.86L140.89,51.53"/><path d="M141.96,51.90L143.09,52.00L143.46,50.66L143.65,49.37L143.65,48.17L143.47,47.09L143.12,46.16L142.60,45.42L141.93,44.89"/><path d="M142.52,51.67L143.09,52.00"/><path d="M143.59,52.04L144.72,52.15L144.15,51.82"/><path d="M143.13,44.85L144.26,43.44L143.53,42.76"/><path d="M144.72,52.15L145.18,50.59L145.45,49.08L145.55,47.64L145.45,46.30L145.34,45.82L145.18,45.11L144.72,44.08"/><path d="M144.26,43.44L143.70,43.11"/></g><g style="stroke:#000000;stroke-width:0.705"><path d="M115.74,53.77L115.23,52.57L114.92,51.18L114.81,49.64L114.92,47.97L115.23,46.23L115.74,44.44L116.43,42.64L116.86,41.79L117.30,40.89L118.32,39.20L119.47,37.63L120.73,36.21L122.06,34.97L123.43,33.93L124.83,33.13L126.20,32.57L127.53,32.28L128.79,32.25L129.94,32.49L130.96,33.00L143.70,40.34L144.37,40.80L144.52,40.93L145.11,41.51L145.61,42.20L146.11,43.17L146.41,44.07L146.62,45.06L146.72,46.12L146.72,47.39L146.62,48.56L146.42,49.77L146.11,51.00L145.71,52.25L145.22,53.50L144.65,54.73L144.11,55.71L143.99,55.92L143.26,57.08L142.47,58.18L141.63,59.21L140.74,60.15L139.81,61.01L138.86,61.77L137.90,62.41L136.80,63.02L135.82,63.43L134.87,63.71L133.95,63.86L133.76,63.87L132.87,63.89L132.03,63.76L131.06,63.44L130.35,63.05L117.30,55.52L116.43,54.76L115.74,53.77"/><path d="M130.81,60.18L130.35,59.15L130.07,57.96L129.98,56.62L130.07,55.18L130.35,53.67L130.81,52.12L131.94,52.22"/><path d="M131.30,52.16L130.96,53.40L130.75,54.85L130.75,56.20L130.96,57.41L131.37,58.44L130.51,59.51"/><path d="M132.00,61.50L131.26,60.82L132.40,59.41"/><path d="M132.44,58.15L132.07,57.24L131.88,56.17L131.88,54.97L132.05,53.68L132.41,52.35L132.93,51.00L133.60,49.70L134.40,48.47L135.30,47.35L136.28,46.38L137.31,45.59"/><path d="M136.74,43.84L136.74,44.61L135.58,45.49L134.48,46.58L133.46,47.85L132.57,49.24L131.83,50.72L131.39,50.68"/><path d="M131.26,50.94L132.00,49.42L132.88,47.96L133.87,46.59L134.96,45.37L136.11,44.30L137.31,43.42"/><path d="M136.74,60.07L136.74,61.04L135.55,61.54L134.39,61.80L133.30,61.83L132.31,61.62L131.91,61.41"/><path d="M137.31,59.85L136.15,60.30L135.05,60.49L134.03,60.40L133.14,60.03L132.57,59.71L132.33,59.50"/><path d="M134.03,57.39L132.89,58.80L133.55,59.35"/><path d="M136.74,46.03L136.74,46.78L135.79,47.55L134.91,48.51L134.12,49.62L133.47,50.83L132.99,52.07L132.69,53.31L132.59,54.48L132.61,54.64L132.70,55.53L133.00,56.41L132.16,57.46"/><path d="M141.94,53.11L141.41,54.15L140.62,55.39L139.72,56.52L138.74,57.50L137.72,58.30L136.68,58.90L135.65,59.28L134.67,59.43L133.78,59.34L133.32,59.15"/><path d="M142.64,53.17L141.50,53.07L140.86,54.28L140.08,55.39L139.19,56.35L138.25,57.13L137.28,57.69L136.33,58.01L135.45,58.06L134.67,57.85L134.10,57.52L133.98,57.44"/><path d="M134.07,56.13L133.82,55.36L133.73,54.46L133.82,53.46L134.07,52.41L135.21,52.51"/><path d="M134.59,52.45L134.49,52.99L134.49,53.74L134.64,54.38L133.82,55.39"/><path d="M137.31,55.50L136.69,55.64L136.13,55.59L135.66,55.35L134.52,56.77L135.08,57.16"/><path d="M136.74,55.63L136.74,56.69L135.93,56.95L135.18,57.00L134.66,56.87"/><path d="M134.52,51.23L135.08,50.21L135.75,49.26L136.50,48.44L137.31,47.77"/><path d="M136.74,48.24L136.74,48.96L136.12,49.53L135.56,50.22L135.09,51.01L134.66,50.97"/><path d="M136.02,54.60L135.71,54.09L135.60,53.38L135.71,52.55L136.02,51.67L136.49,50.85L137.10,50.15L137.76,49.64L138.43,49.37L139.03,49.38L139.10,49.42"/><path d="M135.99,54.55L136.53,54.56L137.20,54.30L137.86,53.79L138.46,53.09L138.94,52.26L139.25,51.39L139.35,50.56L139.25,49.85L138.97,49.38"/><path d="M138.22,60.84L138.22,59.33L139.38,58.44L140.48,57.35L141.50,56.09L142.39,54.69L143.13,53.22L144.26,53.32"/><path d="M138.22,60.09L138.84,59.63L140.00,58.57L141.09,57.34L142.08,55.98L142.96,54.52L143.57,53.26"/><path d="M141.01,53.03L139.86,52.92L139.40,53.71L138.84,54.40L138.22,54.97L138.22,56.50"/><path d="M138.22,55.70L138.46,55.50L139.21,54.67L139.88,53.73L140.30,52.96"/><path d="M138.22,48.76L138.22,47.24L139.03,46.98L139.78,46.93L140.45,47.11"/><path d="M140.30,47.07L140.44,47.16L139.30,48.58L138.83,48.34L138.27,48.29L138.22,48.30"/><path d="M138.22,46.58L138.22,45.07L139.24,44.67L140.23,44.51L141.13,44.58L141.93,44.89"/><path d="M141.96,51.90L142.26,50.66L142.37,49.49L142.27,48.44L141.97,47.54L141.48,46.86L140.84,46.40L140.27,46.07L139.48,45.87L138.60,45.93L138.22,46.06"/><path d="M138.22,44.41L138.22,42.90L139.41,42.40L140.57,42.13L141.66,42.10L142.65,42.31L143.53,42.76"/><path d="M143.13,44.85L142.39,44.23L141.82,43.90L140.93,43.54L139.91,43.45L138.81,43.63L138.22,43.86"/><path d="M141.46,48.14L140.32,49.56L140.47,50.19L140.47,50.36L140.47,50.94L140.32,51.75"/><path d="M140.37,51.48L140.89,51.53L141.14,50.47L141.23,49.47L141.14,48.57L141.13,48.54"/><path d="M141.63,44.77L142.03,45.09L142.55,45.83L142.91,46.76L143.08,47.84L143.08,49.05L143.04,49.29L142.89,50.34L142.52,51.67L142.02,51.63"/><path d="M143.59,52.04L144.00,50.54L144.18,49.29L144.21,49.08L144.21,47.73L144.00,46.52L143.59,45.49L144.72,44.08"/><path d="M143.66,51.77L144.15,51.82L144.61,50.27L144.88,48.75L144.98,47.31L144.88,45.98L144.61,44.78L144.45,44.42"/><path d="M143.05,42.52L143.70,43.11L142.63,44.43"/><path d="M146.72,47.18L146.72,47.14L146.72,47.37"/><path d="M146.72,47.14L146.72,46.14"/></g></g><g id="Actor_.7"><g style="stroke:#000000;stroke-width:0.353"><path d="M156.58,131.38L156.59,131.87L156.67,132.03"/><path d="M164.43,128.69L164.26,128.68"/><path d="M170.36,124.91L170.28,124.94L170.05,125.13L169.94,125.35"/><path d="M172.60,120.21L172.86,119.39L173.39,118.63L174.18,117.94L174.91,117.51"/><path d="M172.71,121.19L172.86,120.70L173.39,119.94L174.18,119.25L175.19,118.66L175.31,118.62"/><path d="M174.19,121.92L174.27,122.23"/><path d="M175.94,122.80L175.57,122.61L174.85,122.01L174.38,121.33L174.19,120.61"/><path d="M176.40,119.93L175.97,120.18L175.38,120.76L175.17,121.17"/><path d="M176.86,118.37L176.80,118.39L175.97,118.87L175.38,119.45L175.05,120.09L175.02,120.77"/></g><g style="stroke:#000000;stroke-width:0.705"><path d="M156.57,131.38L156.57,132.89"/><path d="M170.35,125.96L170.10,125.79L169.95,125.58L169.94,125.35"/><path d="M172.70,121.18L172.64,121.03L172.60,120.21"/><path d="M174.19,121.92L174.19,120.61L174.30,119.88L174.70,119.18L175.37,118.56L176.27,118.04L177.35,117.66L178.55,117.43L179.81,117.36L180.23,117.40"/><path d="M178.12,123.03L177.54,122.91L176.57,122.53L175.80,122.03L175.27,121.43L175.02,120.77"/><path d="M177.38,122.23L177.58,122.54L178.10,122.89L178.54,123.04"/><path d="M181.88,117.65L181.07,117.47L180.34,117.41"/><path d="M200.60,107.46L201.20,107.66L201.53,107.85"/></g></g><g id="Actor_.8"><g style="stroke:#000000;stroke-width:0.353"><path d="M140.41,76.53L139.22,76.74L138.01,77.09L136.77,77.56L135.52,78.17L134.27,78.91L133.02,79.76L131.79,80.73L130.57,81.80L129.39,82.97L128.26,84.23L127.16,85.58L126.13,86.99L125.16,88.47L124.26,90.00L123.44,91.57L122.70,93.16L122.05,94.77L121.49,96.39L121.03,98.01L120.67,99.60L120.42,101.16L120.27,102.69L120.22,104.16L120.28,105.57L120.45,106.91L120.74,108.21L121.10,109.33L121.57,110.40"/><path d="M131.85,115.83L131.90,115.82"/><path d="M131.68,107.74L131.98,108.43L132.35,109.05L132.78,109.60L133.27,110.07L133.81,110.46L134.40,110.76L135.04,110.98L135.71,111.11L136.42,111.15L137.16,111.10L137.93,110.97L138.72,110.74L139.52,110.43L140.33,110.04L141.14,109.56L141.95,109.01L142.75,108.38L143.53,107.69L144.30,106.93L145.03,106.11L145.74,105.24L146.41,104.33L147.04,103.37L147.62,102.38L148.15,101.37L148.63,100.33L149.05,99.29L149.41,98.24L149.71,97.20L149.94,96.16L150.11,95.15L150.21,94.16L150.24,93.21L150.20,92.30L150.09,91.43L149.91,90.62L149.67,89.86L149.36,89.17L148.99,88.55L148.56,88.01L148.07,87.54L147.53,87.15L146.94,86.85L146.31,86.63L145.63,86.50L144.92,86.46L144.18,86.50L143.41,86.64L142.63,86.87L141.82,87.17L141.02,87.57L140.20,88.04L139.40,88.60L138.60,89.22L137.81,89.92L137.05,90.68L136.31,91.49L135.60,92.36L134.94,93.28L134.31,94.24L133.72,95.23L133.19,96.24L132.71,97.27L132.29,98.32L131.93,99.37L131.63,100.41L131.40,101.44L131.24,102.46L131.14,103.44L131.11,104.40L131.15,105.31L131.26,106.18L131.43,106.99L131.68,107.74"/><path d="M146.99,87.61L147.92,88.28L148.67,89.20L149.23,90.34L149.60,91.68L149.76,93.19L149.70,94.82L149.43,96.56L148.96,98.34L148.29,100.14L147.44,101.90L146.87,102.86L146.44,103.59L145.29,105.17L144.05,106.60L142.72,107.85L141.53,108.74L141.34,108.88L139.95,109.68L138.58,110.23L137.25,110.50L136.01,110.50L134.87,110.23L133.87,109.69"/></g><g style="stroke:#000000;stroke-width:0.705"><path d="M125.73,114.14L125.31,113.99L124.39,113.52L123.56,112.92L122.81,112.20L122.14,111.36L121.57,110.40L121.23,109.68L120.76,108.64L120.40,107.50L120.20,106.80L119.94,105.61L119.78,104.34L119.72,103.69L119.67,102.40L119.71,101.05L119.85,99.66L119.92,99.17L120.14,97.79L120.46,96.39L120.86,94.98L121.35,93.55L121.92,92.14L122.57,90.74L123.30,89.36L124.09,88.02L124.19,87.86L124.94,86.72L125.85,85.48L126.80,84.30L127.80,83.19L128.84,82.16L129.90,81.21L131.39,80.04L132.53,79.27L133.68,78.59L134.83,78.04L135.43,77.76L136.60,77.30L137.76,76.97L138.48,76.79L139.64,76.58L141.55,76.46L142.65,76.52L143.70,76.72L144.68,77.06L145.59,77.52L146.42,78.12L146.53,78.22"/><path d="M123.30,110.44L122.99,109.48L122.72,108.22L122.56,106.88L122.49,105.47L122.54,104.00L122.69,102.48L122.95,100.91L123.31,99.32L123.77,97.71L124.32,96.09L124.97,94.47L125.71,92.88L126.53,91.31L127.43,89.78L128.40,88.31L129.44,86.89L130.53,85.55L131.67,84.28L132.85,83.11L134.06,82.04L135.29,81.07L136.54,80.22L137.79,79.48L139.04,78.88L140.28,78.40L141.50,78.05L142.68,77.84L143.83,77.77L144.93,77.83L145.97,78.03L146.95,78.37L147.86,78.84L148.70,79.44L149.45,80.16L150.11,81.00L150.68,81.96L151.03,82.68L151.49,83.72L151.86,84.85L152.06,85.56L152.32,86.75L152.48,88.02L152.53,88.67L152.59,89.96L152.55,91.31L152.41,92.70L152.34,93.19L152.11,94.56L151.80,95.97L151.39,97.38L150.90,98.80L150.33,100.22L149.68,101.62L148.96,103.00L148.17,104.34L147.32,105.64L146.41,106.88L145.45,108.06L144.45,109.17L143.41,110.20L142.35,111.14L140.86,112.31L139.72,113.09L138.57,113.76L137.43,114.32L136.83,114.60L135.65,115.06L134.50,115.39L133.78,115.57L132.62,115.77L130.70,115.90L129.60,115.84L128.56,115.64L127.59,115.31L126.67,114.83L125.83,114.24L125.08,113.51L124.42,112.67L123.84,111.71L123.37,110.64L123.30,110.44"/><path d="M133.87,109.69L133.03,108.90L132.37,107.86L131.90,106.62L131.64,105.19L131.59,103.62L131.75,101.92L132.13,100.16L132.70,98.37L133.46,96.58L134.39,94.85L135.46,93.21L136.66,91.70L137.95,90.36L139.31,89.21L140.70,88.29L142.08,87.62L143.44,87.21L144.73,87.07L145.92,87.20L146.99,87.61"/><path d="M131.60,104.01L132.25,103.64L133.63,102.60L134.96,101.35L136.21,99.92L137.35,98.34L138.35,96.65L139.20,94.89L139.87,93.09L140.34,91.31L140.61,89.58L140.65,88.32"/></g></g><g id="Actor_.9"><g style="stroke:#000000;stroke-width:0.353"><path d="M158.86,88.37L158.39,87.30L158.01,86.14L157.74,84.88L157.57,83.54L157.51,82.13L157.56,80.66L157.71,79.13L157.97,77.57L158.32,75.98L158.78,74.36L159.30,72.86L159.34,72.74L159.99,71.13L160.73,69.53L161.55,67.97L162.45,66.44L163.42,64.96L164.46,63.55L165.55,62.20L166.69,60.94L167.87,59.77L169.08,58.70L170.31,57.73L171.55,56.88L172.81,56.14L174.06,55.53L175.30,55.06L176.52,54.71L177.70,54.50"/><path d="M169.14,93.80L169.19,93.79"/><path d="M169.27,86.40L168.97,85.71L168.72,84.96L168.55,84.15L168.44,83.28L168.40,82.37L168.43,81.41L168.53,80.43L168.69,79.41L168.93,78.38L169.22,77.34L169.58,76.29L170.01,75.24L170.48,74.21L171.02,73.20L171.60,72.21L172.23,71.25L172.90,70.33L173.60,69.46L174.34,68.65L175.10,67.89L175.89,67.19L176.69,66.57L177.49,66.01L178.31,65.54L179.12,65.14L179.92,64.83L180.70,64.61L181.47,64.47L182.21,64.43L182.92,64.47L183.60,64.60L184.23,64.81L184.82,65.12L185.36,65.51L185.85,65.97L186.28,66.52L186.65,67.14L186.96,67.83L187.20,68.59L187.38,69.40L187.49,70.27L187.53,71.18L187.50,72.13L187.40,73.12L187.23,74.13L187.00,75.17L186.74,76.07L186.70,76.21L186.34,77.26L185.92,78.30L185.44,79.34L184.91,80.35L184.33,81.34L183.70,82.30L183.03,83.21L182.32,84.08L181.59,84.90L180.82,85.66L180.04,86.35L179.24,86.98L178.43,87.53L177.62,88.01L176.81,88.40L176.01,88.71L175.22,88.93L174.46,89.07L173.71,89.12L173.00,89.08L172.33,88.95L171.69,88.73L171.10,88.43L170.56,88.04L170.07,87.57L169.64,87.02L169.27,86.40"/><path d="M184.28,65.58L185.21,66.25L185.96,67.17L186.53,68.31L186.89,69.64L187.05,71.16L186.99,72.79L186.81,73.93L186.72,74.53L186.25,76.31L185.58,78.11L184.73,79.87L183.81,81.43L183.73,81.56L182.59,83.14L181.34,84.57L180.01,85.82L178.72,86.79L178.63,86.85L177.24,87.65L175.87,88.19L174.54,88.47L173.30,88.47L172.16,88.20L171.16,87.66"/></g><g style="stroke:#000000;stroke-width:0.705"><path d="M183.82,56.19L183.71,56.09L182.88,55.49L181.97,55.02L180.99,54.69L180.13,54.52L179.94,54.49L178.85,54.43L176.93,54.55L175.77,54.76L175.05,54.94L173.90,55.27L172.72,55.72L172.12,56.01L170.97,56.56L170.59,56.79L169.83,57.24L168.68,58.01L167.20,59.18L166.13,60.13L165.10,61.16L164.10,62.26L163.14,63.44L162.23,64.69L161.38,65.99L160.59,67.33L159.86,68.71L159.22,70.11L158.69,71.42L158.64,71.52L158.15,72.95L157.75,74.36L157.44,75.76L157.21,77.14L157.14,77.62L157.00,79.02L156.96,80.37L157.01,81.66L157.07,82.31L157.23,83.58L157.49,84.77L157.69,85.47L158.05,86.61L158.52,87.65L158.86,88.37L159.44,89.32L160.10,90.17L160.85,90.89L161.69,91.49L162.60,91.96L163.02,92.11"/><path d="M160.83,88.99L160.66,88.61L160.29,87.45L160.01,86.19L159.85,84.85L159.79,83.44L159.83,81.97L159.98,80.45L160.24,78.88L160.60,77.29L161.06,75.67L161.61,74.06L162.26,72.44L163.00,70.85L163.83,69.28L164.72,67.75L165.69,66.27L166.73,64.86L167.82,63.51L168.96,62.25L170.14,61.08L171.35,60.01L172.58,59.04L173.83,58.19L175.09,57.45L176.34,56.85L176.91,56.62L177.57,56.37L178.79,56.02L179.97,55.81L181.12,55.74L182.22,55.80L183.26,56.00L184.24,56.34L185.15,56.81L185.99,57.41L186.74,58.13L187.40,58.97L187.97,59.93L188.32,60.64L188.78,61.69L189.15,62.82L189.35,63.53L189.61,64.72L189.77,65.99L189.82,66.64L189.88,67.93L189.84,69.28L189.70,70.67L189.63,71.16L189.40,72.53L189.09,73.93L188.68,75.35L188.19,76.77L187.62,78.19L186.97,79.59L186.25,80.97L185.46,82.31L184.61,83.61L183.70,84.85L182.74,86.03L181.74,87.14L180.71,88.17L179.64,89.11L178.16,90.28L177.01,91.06L175.86,91.73L174.72,92.29L174.12,92.57L172.94,93.03L171.79,93.36L171.07,93.54L169.91,93.74L167.99,93.87L166.89,93.81L165.85,93.61L164.87,93.27L163.96,92.80L163.12,92.21L162.37,91.48L161.71,90.64L161.14,89.68L160.83,88.99"/><path d="M184.28,65.58L183.21,65.17L182.02,65.04L180.73,65.18L179.38,65.59L177.99,66.26L176.60,67.18L175.25,68.33L173.95,69.67L172.76,71.18L171.68,72.82L170.75,74.55L170.56,75.00L169.99,76.34L169.42,78.13L169.05,79.89L168.88,81.58L168.93,83.16L169.19,84.59L169.66,85.83L170.32,86.87L171.16,87.66"/><path d="M177.94,66.29L177.90,67.55L177.63,69.28L177.16,71.06L176.49,72.86L175.64,74.62L174.64,76.31L173.50,77.89L172.25,79.32L170.92,80.57L169.54,81.60L168.89,81.98"/></g></g><g id="Actor_.10"><g style="stroke:#000000;stroke-width:0.353"><path d="M156.67,147.55L156.67,146.24L138.49,135.74L138.49,134.43"/><path d="M138.49,137.06L138.49,135.74"/><path d="M154.08,135.18L153.89,134.61L153.42,134.10L152.71,133.68L151.82,133.41L150.83,133.31L149.83,133.37L148.91,133.60L148.15,133.98L147.61,134.47L147.35,135.03"/><path d="M154.69,131.66L154.72,131.18L155.04,130.71L155.58,130.35L156.30,130.10L156.67,130.05"/><path d="M157.59,147.54L157.75,147.27L157.81,146.90L156.67,146.24"/><path d="M156.67,110.82L157.81,111.47L157.81,146.90L225.98,107.54"/><path d="M157.81,111.47L161.22,105.57L160.08,104.91"/><path d="M160.30,111.01L160.62,111.12L161.01,111.05L161.42,110.81L161.81,110.43L162.13,109.95L162.36,109.42L162.46,108.91L162.43,108.45L162.26,108.11L161.98,107.92"/><path d="M161.22,105.57L222.57,70.15"/><path d="M167.19,127.28L167.09,126.79L166.72,126.35L166.44,126.17L166.12,126.01L165.36,125.79L164.52,125.73L163.69,125.83L162.96,126.08L162.41,126.46L162.11,126.91L162.07,127.40"/><path d="M180.60,106.42L181.58,107.24L182.38,108.31L183.00,109.59L183.42,111.07L183.63,112.73L183.63,114.52L183.42,116.41L183.00,118.38L182.38,120.38L181.58,122.37L180.60,124.33L179.46,126.20L178.20,127.97L176.82,129.59L175.36,131.03L173.84,132.27L172.29,133.28L170.75,134.06L169.23,134.57L167.77,134.81L166.39,134.78L165.12,134.48L163.99,133.91"/><path d="M171.40,124.85L171.29,124.37L170.92,123.93L170.64,123.74L170.32,123.58L170.18,123.54"/><path d="M171.85,119.04L172.11,118.26L172.66,117.52L173.47,116.87L174.51,116.33L175.72,115.94L177.05,115.70L178.43,115.64L179.81,115.74L181.11,116.02L182.14,116.40"/><path d="M201.85,107.27L201.74,106.79L201.37,106.35L201.09,106.16L200.77,106.00L200.27,105.86"/><path d="M202.46,103.22L202.72,102.66L203.25,102.17L204.01,101.79L204.94,101.56L205.94,101.49L206.94,101.60L207.81,101.87L208.19,102.06L208.52,102.28L208.99,102.80L209.18,103.37"/><path d="M219.80,83.79L220.77,84.61L221.58,85.67L222.20,86.96L222.61,88.44L222.81,90.00L222.83,91.89L222.61,93.78L222.20,95.75L221.58,97.75L220.77,99.74L219.79,101.70L218.66,103.57L217.39,105.34L216.02,106.95L214.74,108.21L214.56,108.40L213.04,109.64L211.49,110.65L209.94,111.42L208.42,111.94L206.96,112.18L205.59,112.15L204.32,111.85L203.19,111.28"/><path d="M221.65,75.59L221.97,75.70L222.36,75.63L222.77,75.39L223.16,75.01L223.49,74.53L223.71,74.00L223.81,73.48L223.78,73.03L223.61,72.69L223.34,72.50"/></g><g style="stroke:#000000;stroke-width:0.705"><path d="M156.67,146.24L156.67,110.82L160.08,104.91L221.43,69.49L225.98,72.12L225.98,107.54L225.92,107.91L225.76,108.18L157.34,147.69L157.02,147.69L156.67,147.55L138.49,137.06L138.49,134.44L156.67,123.94"/><path d="M147.35,135.03L147.39,135.61L147.72,136.16L148.32,136.63L149.13,136.97L150.08,137.17L151.08,137.19L152.05,137.04L152.91,136.73L153.56,136.29L153.96,135.76L154.08,135.18"/><path d="M147.56,135.90L147.61,135.79L148.15,135.29L148.91,134.91L149.83,134.68L150.83,134.62L151.82,134.73L152.72,135.00L153.42,135.41L153.86,135.89"/><path d="M156.67,132.91L156.11,132.81L155.42,132.53L154.93,132.13L154.69,131.66"/><path d="M156.67,131.37L156.30,131.41L155.58,131.66L155.03,132.03L154.95,132.15"/><path d="M161.98,107.92L161.62,107.91L161.22,108.06L160.81,108.38L160.45,108.81L160.17,109.32L160.00,109.85L159.97,110.34L160.07,110.75L160.30,111.01"/><path d="M159.97,110.36L160.29,110.15L160.67,109.78L161.00,109.30L161.22,108.77L161.32,108.25L161.31,108.03"/><path d="M180.60,106.42L179.46,105.85L178.20,105.55L176.82,105.52L175.36,105.76L173.84,106.28L172.29,107.05L170.75,108.06L169.23,109.30L167.77,110.75L166.39,112.36L165.12,114.13L163.99,116.00L163.01,117.96L162.20,119.95L161.59,121.95L161.55,122.14L161.17,123.92L160.96,125.81L160.96,127.61L161.17,129.26L161.59,130.74L162.20,132.03L162.97,133.04L163.01,133.09L163.99,133.91"/><path d="M162.07,127.40L162.31,127.87L162.81,128.27L163.49,128.55L164.31,128.69L165.15,128.67L165.94,128.49L166.59,128.18L167.02,127.76L167.19,127.28"/><path d="M166.89,127.88L166.72,127.67L166.44,127.48L166.12,127.32L165.36,127.11L164.52,127.05L163.69,127.15L162.96,127.40L162.41,127.77L162.34,127.89"/><path d="M181.97,109.33L161.91,120.91"/><path d="M179.72,105.98L180.44,106.58L181.24,107.65L181.86,108.94L182.28,110.42L182.49,112.07L182.49,113.86L182.28,115.76L181.86,117.72L181.24,119.72L180.44,121.72L179.46,123.67L178.33,125.55L177.06,127.31L175.68,128.93L174.22,130.37L172.70,131.61L171.16,132.63L169.61,133.40L168.34,133.83L168.09,133.91L166.63,134.16L165.25,134.13L163.99,133.83L163.74,133.70"/><path d="M167.08,125.87L167.70,126.12L168.51,126.26L169.35,126.24L170.14,126.06L170.79,125.75L171.22,125.33L171.40,124.85"/><path d="M171.10,125.45L170.92,125.24L170.64,125.05L170.32,124.89L169.56,124.68L168.85,124.63"/><path d="M179.83,122.93L178.78,123.04L177.39,123.02L176.04,122.83L174.80,122.47L173.71,121.97L172.84,121.34L172.22,120.63L171.89,119.85L171.85,119.04"/><path d="M181.88,117.62L181.11,117.33L179.81,117.06L178.43,116.95L177.05,117.01L175.72,117.25L174.51,117.64L173.47,118.18L172.66,118.83L172.11,119.57L171.96,120.02"/><path d="M219.79,83.79L218.66,83.22L217.39,82.92L216.02,82.89L214.56,83.13L213.04,83.64L211.49,84.42L209.94,85.43L208.42,86.67L206.96,88.11L205.59,89.73L204.32,91.50L203.19,93.37L202.20,95.36L201.40,97.32L200.78,99.32L200.37,101.29L200.16,103.18L200.16,104.97L200.37,106.63L200.78,108.11L201.40,109.39L202.21,110.46L203.19,111.28"/><path d="M200.89,108.34L201.24,108.17L201.67,107.75L201.85,107.27"/><path d="M200.54,107.25L200.77,107.31L201.09,107.47L201.37,107.66L201.55,107.87"/><path d="M201.11,98.28L204.39,96.39L206.66,96.39L217.64,102.72"/><path d="M209.18,103.37L209.07,103.94L208.67,104.47L208.01,104.92L207.16,105.22L206.19,105.37L205.18,105.35L204.23,105.16L203.42,104.82L202.83,104.35L202.49,103.80L202.46,103.22"/><path d="M202.93,111.07L203.18,111.19L204.45,111.50L205.83,111.53L207.29,111.28L208.81,110.77L210.35,110.00L211.90,108.98L213.37,107.78L214.88,106.30L216.26,104.68L217.52,102.92L218.66,101.04L219.64,99.09L220.44,97.09L220.98,95.36L221.06,95.09L221.48,93.13L221.69,91.23L221.69,89.44L221.48,87.79L221.06,86.30L220.44,85.02L219.64,83.95L218.91,83.34"/><path d="M202.66,104.08L202.72,103.97L203.25,103.48L204.01,103.10L204.94,102.87L205.94,102.80L206.94,102.92L207.81,103.18L208.19,103.37L208.52,103.59L208.97,104.08"/><path d="M223.34,72.50L222.97,72.49L222.57,72.64L222.16,72.95L221.80,73.39L221.52,73.90L221.36,74.43L221.32,74.92L221.42,75.32L221.65,75.59"/><path d="M221.32,74.92L221.64,74.73L222.03,74.35L222.35,73.87L222.58,73.35L222.68,72.83L222.66,72.61"/><path d="M221.95,69.79L223.02,70.41"/><path d="M225.16,71.65L224.09,71.03"/></g></g><g id="Actor_.11"><g style="stroke:#000000;stroke-width:0.353"><path d="M170.32,120.94L170.34,121.17L170.31,121.41L170.22,121.65L170.09,121.87L169.90,122.09L169.67,122.29L169.52,122.38L169.39,122.47L169.08,122.63L168.74,122.76L168.37,122.87L167.97,122.95L167.57,123.00L167.15,123.02L166.74,123.00L166.58,122.99L166.33,122.96L165.93,122.89L165.56,122.79L165.21,122.66L164.89,122.51L164.80,122.46L164.60,122.33L164.36,122.14L164.16,121.93L164.01,121.71L163.91,121.47L163.87,121.23L163.87,120.99"/><path d="M166.07,120.57L165.52,120.69L164.98,120.85"/><path d="M166.83,127.81L166.65,127.79L166.36,127.73L166.10,127.64L165.86,127.53L165.66,127.39L165.51,127.24L165.44,127.13"/><path d="M166.53,126.72L166.36,126.69L166.10,126.60L165.86,126.48L165.73,126.39"/><path d="M165.35,124.82L165.41,124.99L165.51,125.16L165.66,125.31L165.86,125.44L166.10,125.56L166.36,125.65L166.65,125.71L166.95,125.74L167.25,125.74L167.56,125.71L167.84,125.65L168.11,125.56L168.34,125.44L168.54,125.31L168.69,125.16L168.80,124.99L168.85,124.82"/><path d="M165.21,121.49L165.64,121.14L166.07,120.82"/><path d="M166.88,120.10L166.99,119.85L167.10,119.63L167.10,121.25L166.88,120.10L166.44,119.92L166.02,119.77L165.60,119.99L165.21,120.24"/><path d="M166.85,121.31L166.02,119.77"/><path d="M167.95,124.70L167.86,124.77L167.80,124.81L167.74,124.84L167.61,124.89L167.46,124.94L167.31,124.96L167.14,124.97L166.98,124.97L166.82,124.95L166.67,124.92L166.53,124.87L166.40,124.81L166.29,124.73L166.26,124.70"/><path d="M167.60,124.66L167.56,124.66L167.25,124.70L166.95,124.70L166.65,124.66L166.58,124.65"/><path d="M167.18,121.82L167.10,121.78L167.16,121.88"/><path d="M167.28,121.45L167.10,121.78L167.10,121.25L167.32,120.10L167.76,119.92L168.19,119.77L168.60,119.99L169.00,120.24"/><path d="M167.03,121.82L167.10,121.78L166.92,121.45"/><path d="M167.10,122.08L167.10,121.78L167.05,121.88"/><path d="M167.10,119.63L167.22,119.85L167.32,120.10"/><path d="M167.38,125.99L167.46,125.98L167.61,125.94L167.74,125.88L167.80,125.85L167.86,125.81L167.95,125.74"/><path d="M168.19,119.77L167.35,121.31"/><path d="M168.13,120.57L168.68,120.69L169.22,120.85"/><path d="M168.13,120.82L168.57,121.14L169.00,121.49"/><path d="M168.85,125.86L168.80,126.03L168.69,126.20L168.63,126.26"/></g><g style="stroke:#000000;stroke-width:0.705"><path d="M164.01,123.53L163.85,123.30L163.75,123.05L163.70,122.80L163.71,122.55L163.87,120.99L163.93,120.76L164.04,120.54L164.04,120.53L164.21,120.31L164.42,120.10L164.62,119.94L164.67,119.91L164.96,119.74L165.29,119.59L165.65,119.47L166.03,119.38L166.43,119.31L166.84,119.28L167.26,119.28L167.67,119.30L168.07,119.36L168.46,119.45L168.83,119.56L169.16,119.70L169.47,119.86L169.73,120.05L169.95,120.25L170.12,120.47L170.25,120.70L170.32,120.94L170.49,122.49L170.51,122.74L170.47,122.99L170.38,123.24L170.24,123.48L170.04,123.70L169.80,123.91L169.51,124.10L169.18,124.27L168.82,124.41L168.43,124.52L168.02,124.60L167.59,124.66L167.16,124.68L166.72,124.66L166.29,124.62L165.87,124.54L165.48,124.44L165.11,124.31L164.77,124.14L164.47,123.96L164.22,123.76L164.01,123.53"/><path d="M164.98,120.85L165.52,120.83L166.07,120.82L166.29,121.71L166.07,120.57L165.64,120.38L165.21,120.24"/><path d="M166.83,127.94L166.65,127.92L166.36,127.86L166.10,127.77L165.86,127.66L165.66,127.52L165.51,127.37L165.41,127.20L165.38,127.11"/><path d="M165.73,126.53L165.86,126.62L166.10,126.73L166.36,126.82L166.53,126.85"/><path d="M168.77,124.42L168.80,124.46L168.85,124.64L168.85,124.95L168.80,125.12L168.69,125.29L168.54,125.44L168.34,125.57L168.11,125.69L167.84,125.78L167.56,125.84L167.25,125.87L166.95,125.87L166.65,125.84L166.36,125.78L166.10,125.69L165.86,125.57L165.66,125.44L165.51,125.29L165.41,125.12L165.35,124.95L165.35,124.64L165.41,124.46L165.43,124.42"/><path d="M165.89,124.55L166.10,124.65L166.36,124.73L166.65,124.79L166.95,124.83L167.25,124.83L167.56,124.79L167.84,124.73L168.11,124.65L168.32,124.54"/><path d="M169.00,121.49L168.19,121.96L167.76,121.61L167.32,121.29L167.10,122.08L166.88,121.29L166.44,121.61L166.02,121.96L165.21,121.49"/><path d="M166.29,121.73L166.29,121.71"/><path d="M169.00,120.24L168.57,120.38L168.13,120.57L167.91,121.71L167.91,121.73"/><path d="M167.91,121.71L168.13,120.82L168.68,120.83L169.22,120.85"/><path d="M168.85,125.86L168.85,125.99L168.85,125.68L168.80,125.51L168.69,125.34L168.67,125.31"/><path d="M168.85,125.99L168.80,126.16L168.74,126.26"/><path d="M168.85,125.81L168.85,125.68"/><path d="M168.85,124.64L168.85,124.82"/><path d="M168.85,124.77L168.85,124.95"/></g></g><g><g/></g><g><g><path style="stroke:#ff0000;stroke-width:0.500;stroke-dasharray:0.6 0.6" d="M137.77,52.13L161.00,66.62"/><path style="stroke:#ff0000;stroke-width:0.500;stroke-dasharray:0.6 0.6" d="M171.49,73.17L192.44,86.23"/><path style="stroke:#ff0000;stroke-width:0.500;stroke-dasharray:0.6 0.6" d="M231.44,110.55L203.38,93.05"/></g></g><g><g><path style="stroke:#ff0000;stroke-width:0.500;stroke-dasharray:0.6 0.6" d="M98.55,74.09L123.44,89.11"/><path style="stroke:#ff0000;stroke-width:0.500;stroke-dasharray:0.6 0.6" d="M157.38,109.59L134.04,95.51"/><path style="stroke:#ff0000;stroke-width:0.500;stroke-dasharray:0.6 0.6" d="M165.06,114.23L195.01,132.30"/></g></g><g/><g id="paperID" visibility="hidden" opacity="0.00" transform="scale(0.000100)"><path style="stroke:#000000;stroke-width:0.500;fill:#e6e6e6;fill-rule:evenodd" d="M-2000.00,-2000.00L2297.00,-2000.00L2297.00,2210.00L-2000.00,2210.00zM0.00,0.00L297.00,0.00L297.00,210.00L0.00,210.00z"/><path style="fill:#000000;fill-opacity:0.118" d="M3.00,210.00L297.00,210.00L297.00,3.00L300.00,3.00L300.00,213.00L3.00,213.00z"/></g><g id="ToolTip" visibility="hidden" opacity="0" transform="translate(0,0)"><rect id="ToolTipShadow" opacity="0.20" fill="black" stroke="none" x="0" y="0" width="30" height="8"/><rect id="ToolTipBG" fill="#ffffe1" stroke="black" x="0" y="0" width="30" height="8"/><text xml:space="preserve" id="ToolTipText" fill="black" x="0" y="0" width="30" height="8">tooltip</text></g></g></svg>
