<?xml version="1.0" encoding="UTF-8" standalone="no"?>
<svg xmlns="http://www.w3.org/2000/svg" xmlns:xlink="http://www.w3.org/1999/xlink" width="297.000mm" height="210.000mm" viewBox="0.000000 0.000000 297.000000 210.000000" stroke-linejoin="round" stroke-linecap="round" fill="none" fill-rule="evenodd"><desc>3DVIA Composer Export</desc><script type="text/ecmascript"><![CDATA[
if(typeof(top) != "undefined")
{
	top.ShowPaper = ShowPaper;
}
function ShowHotSpot(evt,hotspotid)
{
	var svgDocument = evt.target.ownerDocument;
	var strId = "hotspot."+hotspotid;
	var hotspot = svgDocument.getElementById(strId);
	if(hotspot)
		hotspot.setAttribute("opacity",".5");
}
function HideHotSpot(evt,hotspotid)
{
	var svgDocument = evt.target.ownerDocument;
	var strId = "hotspot."+hotspotid;
	var hotspot = svgDocument.getElementById(strId);
	if(hotspot)
		hotspot.setAttribute("opacity","0");

	var toolTip = svgDocument.getElementById('ToolTip');
	if(toolTip)
		toolTip.setAttribute("visibility","hidden");
}
function ShowToolTip(evt,hotspotid,strTooltip)
{
	if(strTooltip=="")
	return;

	// change text
	var svgDocument = evt.target.ownerDocument;
	var tiptext = svgDocument.getElementById('ToolTipText');
	if( !tiptext )
	return;
	tiptext.firstChild.nodeValue = " " + strTooltip + "  " ;

	// show tooltip before, else some refresh issue

	var toolTip = svgDocument.getElementById('ToolTip');
	if(!toolTip)
	return;

	toolTip.setAttribute("visibility","visible");
	toolTip.setAttribute("opacity",".95");

	// move tooltip
	// get viewbox

	var root = svgDocument.documentElement;
	var vbox = (root.getAttribute("viewBox")).split(' ');
	var x0 = parseFloat(vbox[0]);
	var y0 = parseFloat(vbox[1]);
	var vboxW = parseFloat(vbox[2]);
	var vboxH = parseFloat(vbox[3]);

	// get default width of svg

	var strW = root.getAttribute("width");
	var svgW = parseFloat(strW);
	if(strW.indexOf('mm') != -1)
	svgW *= 3.779;

	var strH = root.getAttribute("height");
	var svgH = parseFloat(strH);
	if(strH.indexOf('mm') != -1)
	svgH *= 3.779;  	// 96 dpi  -> 96/25.4 = 3.779

	// update the viewbox / width / height if svg is embedded in html with zoom fit all
	var realx0 = x0;
	var realy0 = y0;
	var realvboxW = vboxW;
	var realvboxH = vboxH;
	var realsvgW = svgW;
	var realsvgH = svgH;

	if ((typeof(top) == "undefined") || (typeof(top.svgctl1) != "undefined")) // embedded in html
	{
		// get window size in pxl

		svgW = window.innerWidth;
		svgH = window.innerHeight;

		// calculate real viewbox

		realsvgW = svgW;
		realsvgH = svgH;
		if((svgW / svgH) > (vboxW / vboxH))
		{
			realvboxW = (vboxH * svgW) / svgH;
			realvboxH = vboxH;
			realx0 = x0 - (realvboxW - vboxW)/2 ;
		}
		else
		{
			realvboxH = (vboxW * svgH) / svgW;
			realvboxW = vboxW;
			realy0 = y0 - (realvboxH - vboxH)/2 ;
		}
	}

	// get user zoom/pan

	var newScale = root.currentScale;
	var translation = root.currentTranslate;

	// transform pxl to user unit

	var xPos = (((evt.clientX+10- translation.x)/newScale) * realvboxW)/realsvgW  + realx0 ;
	var yPos = (((evt.clientY+5- translation.y)/newScale) * realvboxH)/ realsvgH  + realy0 ;
	var scaleForWidth = ( (1 / newScale) * realvboxH) / realsvgH;

	// move tooltip

	toolTip.setAttribute("transform", "translate(" + xPos + "," + yPos + ")" );

	// resize tooltip

	var fontsize = 12;
	tiptext.setAttribute("font-size",fontsize*scaleForWidth);
	tiptext.setAttribute("y", fontsize*scaleForWidth);
	var tipBG = svgDocument.getElementById('ToolTipBG');
	var outline = tiptext.getBBox();
	if(tipBG)
	{
		tipBG.setAttribute("stroke-width", 1*scaleForWidth);
		tipBG.setAttribute("width", Number(outline.width) );
		tipBG.setAttribute("height", Number(outline.height) + fontsize*.5*scaleForWidth );
	}
	var ToolTipShadow = svgDocument.getElementById('ToolTipShadow');
	if(ToolTipShadow)
	{
		ToolTipShadow.setAttribute("width", Number(outline.width) );
		ToolTipShadow.setAttribute("height", Number(outline.height) + fontsize*.5*scaleForWidth );
		ToolTipShadow.setAttribute("x", 3*scaleForWidth);
		ToolTipShadow.setAttribute("y", 3*scaleForWidth);
	}
}
function ShowPaper()
{
  var svgDocument = getDocument();
  var paper = svgDocument.getElementById("paperID");
  if(paper)
  {
    paper.setAttribute("transform","scale(1)");
    paper.setAttribute("opacity","1");
    paper.setAttribute("visibility","visible");
  }
  var svg = svgDocument.getRootElement();
  if(svg)
  {
    svg.setAttribute("width","307.000mm");
    svg.setAttribute("height","220.000mm");
    svg.setAttribute("viewBox","-5.000000 -5.000000 307.000000 220.000000");
  }
}
]]></script><defs/><g><path style="fill:#dcdcdc;fill-rule:evenodd" d="M104.83,32.04L104.90,31.56L105.90,31.18L106.48,31.18L106.40,32.26L105.43,32.27zM106.14,48.07L109.01,46.99L109.61,47.01L109.65,47.35L106.38,51.15L103.79,54.26L102.43,54.98L102.84,54.25L101.64,54.45L101.98,54.01L103.13,53.57L103.17,53.24L102.88,52.94L102.25,52.96L101.56,53.33L99.21,54.90L99.23,55.91L98.09,56.39L97.57,56.44L97.65,55.95L103.13,49.46L104.86,48.55L105.44,48.55L103.12,50.22L103.03,51.28L103.52,51.19L105.10,49.87L107.02,48.81L106.72,48.34zM135.56,54.02L135.56,54.63L134.93,55.08L134.15,55.17L134.22,53.57L135.01,53.47zM109.06,54.55L109.38,55.06L109.35,55.39L109.03,55.61L108.03,55.60L108.04,54.34L108.56,54.24zM100.97,55.07L101.01,55.31L101.47,55.35L102.43,54.98L102.34,55.15L100.44,56.11L99.64,56.19L99.72,55.69L101.21,54.53L101.64,54.45zM158.39,56.55L158.24,55.86L158.76,55.56L159.91,55.56L159.91,56.71zM116.61,56.60L116.89,57.75L116.26,58.19L115.49,58.27L115.27,56.95L115.48,56.36L116.36,56.32zM106.26,57.65L106.16,58.17L105.37,58.28L105.37,57.10L105.69,57.08zM112.18,61.03L112.46,62.20L111.08,62.67L110.87,62.08L110.89,59.55L111.31,59.19L112.17,59.17zM124.35,66.02L124.37,68.11L124.05,68.30L123.00,68.65L123.08,66.30L127.49,62.11L128.00,62.03zM116.90,68.03L116.87,68.35L116.55,68.58L115.55,68.56L115.56,67.30L116.08,67.21zM119.95,69.90L120.50,69.83L120.50,70.45L119.95,70.38zM114.06,71.12L114.05,71.48L113.23,72.02L113.14,70.85L113.76,70.83zM123.61,71.21L121.93,72.67L117.41,76.96L112.37,79.45L111.56,79.43L116.51,74.77L118.33,73.47L123.59,71.10zM196.45,83.84L195.18,84.71L194.88,84.40L194.88,83.39L195.32,82.77L196.20,82.79zM239.03,88.56L237.90,88.22L237.86,87.98L238.76,87.96zM232.66,89.56L234.00,89.01L234.55,88.98L234.32,90.94L233.28,90.83L232.76,90.31zM235.79,96.61L236.12,94.54L237.88,94.23L242.13,91.37L241.78,93.46L237.95,96.38L236.91,102.59L236.95,106.75L236.01,107.44L235.54,107.54L235.35,106.66L235.35,104.15L236.39,97.93L236.38,96.82zM282.02,103.90L282.57,103.54L282.57,105.46L282.02,105.98zM280.77,104.81L280.76,105.19L266.22,117.15L266.22,116.08L280.37,104.57zM251.43,129.48L251.97,130.86L251.73,130.80L239.23,109.48L239.16,108.97L239.46,108.97zM265.61,109.54L266.23,108.99L266.22,110.94L265.97,111.20zM224.47,113.47L223.57,114.19L223.11,114.28L222.80,113.14L223.61,112.06L224.19,112.08zM238.79,114.44L238.74,114.76L237.61,115.23L236.81,115.22L237.59,114.16L238.50,114.15zM249.87,121.28L264.07,109.98L264.39,110.01L264.39,110.88L250.31,121.99L249.86,121.97zM213.64,122.48L213.59,122.80L212.44,123.29L211.92,123.35L212.01,122.56L212.44,122.20L213.35,122.18zM229.90,125.19L228.62,126.21L228.34,125.62L228.34,123.84L228.88,122.83L229.32,122.43L229.64,122.45zM212.06,126.59L213.34,127.18L213.34,127.48L212.52,127.43L211.22,126.86L211.14,126.36L211.75,126.33zM246.80,127.91L244.94,128.54L244.94,127.75L245.38,127.37L245.98,127.37zM223.39,127.20L224.12,126.58L224.72,126.60L224.76,127.51L223.83,128.18L223.43,128.21zM185.83,131.03L186.86,134.92L186.89,138.92L155.49,161.22L154.98,157.22L153.68,153.07L153.07,151.74L184.98,129.95L185.30,129.99zM251.70,133.12L251.37,134.68L250.12,136.06L250.12,132.43L251.11,131.76L251.43,131.79zM220.83,134.66L219.72,135.20L218.92,135.19L219.44,134.37L220.34,134.39zM244.97,135.16L246.27,135.44L245.39,135.71L243.10,135.69L243.03,135.19L244.68,134.89zM229.64,135.96L229.03,136.74L228.26,136.83L228.35,136.05L228.78,135.67zM219.05,138.77L220.30,139.34L220.26,139.58L219.80,139.62L218.77,139.31L218.13,138.77L218.38,138.52L218.76,138.52zM218.26,141.64L219.30,141.93L218.42,142.19L216.90,142.21L216.57,141.97L216.58,141.70L217.98,141.38zM212.64,142.82L212.82,144.09L212.30,144.61L211.77,143.98L211.75,143.05L212.20,142.66zM219.03,156.65L219.03,158.10L207.76,167.61L207.27,167.71L206.97,166.02L218.80,156.42zM204.27,163.93L203.47,164.83L202.60,165.11L202.67,163.77L204.03,163.69zM189.98,167.08L188.83,168.13L188.34,168.23L188.41,166.88L189.48,166.80zM193.59,172.91L193.28,172.90L193.37,171.78L193.62,171.73zM198.54,173.81L198.55,176.00L198.25,176.50L198.29,175.13L197.91,173.26L198.27,173.04zM178.50,174.30L178.81,174.29L178.84,175.47L178.59,175.42zM183.25,176.13L183.25,178.62L182.98,178.86L182.98,177.45L182.61,175.85L182.98,175.63zM187.63,176.48L187.29,176.39L187.68,176.18zM187.92,177.45L187.38,177.45L187.29,176.90L187.61,176.90zM191.81,178.20L191.82,180.14L191.48,180.66L191.19,180.58L191.56,179.59L191.52,177.69zM172.94,178.90L172.79,178.48L173.08,178.43zM173.39,179.80L172.86,179.79L172.84,179.08L172.94,178.90zM176.76,180.50L176.75,181.96L176.38,180.31zM178.30,185.48L177.96,186.01L177.29,186.02L176.99,185.72L176.91,185.23L177.81,185.21zM163.81,187.27L163.43,187.83L163.03,187.83L162.67,186.98L163.02,186.77zM182.46,188.17L182.20,188.94L181.33,189.89L180.03,189.91L180.66,189.47L180.92,188.96L181.14,187.36L181.94,186.57L182.46,186.50zM167.69,189.99L166.81,191.18L165.75,191.19L166.13,190.77L166.36,189.18L167.35,188.03L167.67,188.05zM106.54,49.98L104.91,51.00L104.91,50.50L106.43,49.58L106.74,49.58zM100.97,55.07L101.64,54.45L102.84,54.25L102.43,54.98L101.47,55.35L101.01,55.31zM120.43,73.17L118.91,74.07L118.83,73.78L120.18,72.92L120.48,72.92zM116.36,76.92L114.76,77.97L114.69,77.67L116.03,76.81z"/><g id="Actor_.0"><g style="stroke:#000000;stroke-width:0.353"><path d="M210.69,140.19L209.99,140.72"/></g><g style="stroke:#000000;stroke-width:0.705"><path d="M209.84,140.45L210.69,140.19L211.61,140.99L212.34,142.00L212.81,143.08L212.96,144.11L212.26,144.65"/></g></g><g id="Actor_.1"><g style="stroke:#000000;stroke-width:0.353"><path d="M191.87,169.43L192.21,169.27L192.59,169.19L193.02,169.20L193.49,169.29L193.98,169.46L194.49,169.70L195.01,170.02L195.52,170.41L196.02,170.86L196.49,171.36L196.92,171.90L197.31,172.46L197.65,173.04L197.92,173.63L198.14,174.21L198.28,174.77L198.34,175.29L198.33,175.77L198.25,176.20L198.10,176.57L197.88,176.87"/><path d="M196.02,174.77L195.81,174.89L195.56,174.94L195.26,174.90L194.94,174.78L194.61,174.58L194.28,174.31L193.98,174.00L193.71,173.64L193.50,173.27L193.34,172.90L193.26,172.54L193.24,172.22L193.30,171.95L193.44,171.74"/></g><g style="stroke:#000000;stroke-width:0.705"><path d="M191.18,170.77L191.25,170.34L191.39,169.97L191.60,169.66L191.87,169.43L192.34,169.06L192.67,168.90L193.06,168.82L193.49,168.83L193.95,168.91L194.45,169.08L194.96,169.33L195.47,169.65L195.99,170.04L196.48,170.48L196.68,170.70L196.95,170.98L197.39,171.52L197.78,172.08L198.11,172.66L198.39,173.25L198.60,173.83L198.74,174.38L198.81,174.91L198.80,175.39L198.72,175.82L198.56,176.19L198.34,176.49L197.88,176.87L197.59,177.10L197.25,177.24L196.85,177.31L196.42,177.29L195.95,177.19L195.46,177.01L194.95,176.75L194.45,176.43L193.94,176.04L193.46,175.60L193.00,175.11L192.58,174.58L192.23,174.06L192.20,174.03L191.87,173.46L191.60,172.88L191.39,172.32L191.26,171.82L191.25,171.77L191.18,171.25L191.18,170.77"/><path d="M196.02,174.77L196.15,174.56L196.22,174.29L196.21,173.97L196.12,173.61L195.97,173.24L195.75,172.86L195.48,172.50L195.17,172.18L194.84,171.92L194.51,171.72L194.18,171.60L193.89,171.56L193.64,171.61L193.44,171.74"/><path d="M193.77,171.59L193.71,171.84L193.72,172.16L193.80,172.52L193.96,172.89L194.17,173.27L194.44,173.62L194.74,173.94L195.07,174.20L195.40,174.40L195.73,174.52L196.02,174.56L196.16,174.54"/></g></g><g id="Actor_.2"><g style="stroke:#000000;stroke-width:0.353"><path d="M263.69,115.40L263.90,115.25L264.17,115.17L264.46,115.17L264.78,115.23L265.08,115.36L265.37,115.55L265.63,115.79L265.84,116.07L265.99,116.37L266.07,116.68L266.07,116.97L266.01,117.24L265.88,117.47L265.68,117.64"/><path d="M277.51,102.41L277.82,102.19L278.18,102.04L278.58,101.96L279.00,101.95L279.43,102.00L279.87,102.12L280.30,102.31L280.71,102.56L281.08,102.86L281.41,103.20L281.69,103.58L281.91,103.99L282.06,104.41L282.14,104.83L282.15,105.24L282.08,105.63L281.95,105.98L281.75,106.30L281.48,106.56"/><path d="M280.45,105.55L280.57,105.42L280.67,105.27L280.68,105.22L280.73,105.10L280.76,104.91L280.76,104.72L280.72,104.52L280.66,104.32L280.56,104.13L280.44,103.94L280.29,103.77L280.12,103.62L279.93,103.50L279.73,103.39L279.53,103.32L279.32,103.27L279.11,103.26L278.92,103.28L278.73,103.32L278.57,103.40L278.42,103.50"/><path d="M280.13,105.81L280.25,105.78L280.43,105.70L280.59,105.58L280.72,105.44L280.82,105.28L280.89,105.10L280.92,104.90L280.92,104.69L280.88,104.47L280.81,104.26L280.71,104.05L280.57,103.85L280.41,103.67L280.23,103.51L280.03,103.37L279.81,103.26L279.59,103.18L279.37,103.13L279.14,103.11L278.93,103.13L278.73,103.18L278.55,103.26L278.40,103.38L278.27,103.52L278.17,103.68L278.16,103.72"/><path d="M282.36,105.79L282.47,105.64L282.57,105.47L282.64,105.30L282.70,105.12L282.74,104.93L282.77,104.73L282.77,104.52L282.76,104.32L282.73,104.11L282.68,103.90L282.61,103.69L282.53,103.48L282.43,103.28L282.31,103.08L282.18,102.88L282.03,102.70L281.87,102.52L281.70,102.35L281.52,102.20L281.33,102.05L281.13,101.92L280.92,101.81L280.71,101.71L280.49,101.62L280.27,101.55L280.05,101.50L279.84,101.46L279.62,101.45L279.41,101.44L279.20,101.46L279.00,101.49L278.80,101.55L278.62,101.61"/></g><g style="stroke:#000000;stroke-width:0.705"><path d="M278.42,103.51L278.42,103.51L263.69,115.40L263.52,115.60L263.43,115.85L263.40,116.13L263.44,116.43L263.56,116.73L263.74,117.02L263.97,117.28L264.24,117.50L264.54,117.66L264.85,117.76L265.16,117.79L265.44,117.75L265.68,117.64L280.45,105.55"/><path d="M278.98,106.75L279.12,106.81L279.55,106.94L279.98,107.00L280.41,106.99L280.80,106.91L281.16,106.77L281.48,106.56L282.10,106.05L282.24,105.93L282.36,105.79L282.50,105.59L282.60,105.43L282.67,105.26L282.73,105.08L282.77,104.89L282.79,104.69L282.80,104.45L282.79,104.25L282.76,104.04L282.71,103.84L282.64,103.63L282.56,103.43L282.46,103.23L282.35,103.03L282.22,102.84L282.07,102.66L281.92,102.48L281.75,102.32L281.57,102.17L281.38,102.03L281.19,101.90L280.98,101.78L280.78,101.68L280.56,101.60L280.35,101.53L280.13,101.48L279.92,101.45L279.66,101.42L279.45,101.42L279.24,101.44L279.04,101.47L278.85,101.52L278.67,101.59L278.45,101.70L278.28,101.79L278.13,101.91L277.51,102.41L277.25,102.67L277.06,102.99L276.93,103.35L276.87,103.73L276.88,104.14L276.96,104.55L277.00,104.65"/></g></g><g id="Actor_.3"><g style="stroke:#000000;stroke-width:0.353"><path d="M186.32,176.08L186.35,175.93L186.42,175.71L186.53,175.53L186.67,175.37L186.83,175.25L187.02,175.17L187.24,175.13L187.48,175.13L187.73,175.16L188.01,175.23L188.29,175.34L188.58,175.49L188.87,175.67L189.17,175.89L189.46,176.13L189.74,176.40L190.01,176.69L190.27,177.00L190.50,177.32L190.71,177.65L190.90,177.99L191.06,178.33L191.19,178.67L191.29,178.99L191.35,179.31L191.38,179.60L191.38,179.88L191.34,180.13L191.27,180.35L191.16,180.54L191.03,180.69L190.86,180.82L190.67,180.90L190.46,180.94L190.22,180.95L189.96,180.92L189.70,180.85L189.58,180.80L189.41,180.74L189.13,180.60L188.84,180.42L188.54,180.21L188.26,179.97L187.98,179.71L187.95,179.68L187.71,179.43L187.46,179.13L187.22,178.81L187.06,178.56L187.01,178.48L186.82,178.15L186.66,177.82L186.52,177.49L186.42,177.16L186.35,176.85L186.31,176.56L186.30,176.38L186.27,176.35L186.26,176.34L186.22,176.28L186.21,176.27L186.20,176.21"/><path d="M186.30,176.38L187.07,176.93L187.08,177.11L187.14,177.38L187.22,177.66L187.34,177.95L187.49,178.24L187.67,178.52L187.87,178.80L188.09,179.06L188.33,179.29L188.57,179.51L188.82,179.69L189.08,179.84L189.32,179.96L189.56,180.03L189.78,180.06L189.99,180.06L190.17,180.01L190.32,179.92L190.44,179.79L190.53,179.62L190.58,179.43L190.60,179.20L190.58,178.95L190.53,178.68L190.44,178.39L190.31,178.10L190.16,177.81L189.98,177.52L189.91,177.43L189.77,177.25L189.55,176.99L189.31,176.75L189.06,176.54L188.80,176.36L188.55,176.21L188.30,176.11L188.07,176.04L187.85,176.01L187.65,176.03L187.47,176.08L187.32,176.18L187.21,176.32L187.13,176.49L187.09,176.63"/><path d="M186.67,174.99L186.85,174.86L187.06,174.77L187.29,174.72L187.55,174.72L187.83,174.75L188.13,174.83L188.44,174.95L188.75,175.11L189.07,175.31L189.39,175.54L189.71,175.81L190.01,176.10L190.21,176.31L190.31,176.41L190.58,176.75L190.84,177.10L191.07,177.46L191.27,177.83L191.45,178.20L191.59,178.56L191.69,178.92L191.76,179.26L191.78,179.45L191.80,179.58L191.79,179.88L191.75,180.15L191.67,180.39L191.56,180.60L191.41,180.77"/><path d="M186.52,175.15L186.52,175.16"/><path d="M190.38,179.45L190.22,179.49L190.04,179.50L189.85,179.47L189.64,179.41L189.43,179.31L189.21,179.18L188.99,179.01L188.77,178.83L188.56,178.62L188.37,178.39L188.19,178.15L188.04,177.90L187.91,177.65L187.80,177.40L187.73,177.15L187.68,176.92L187.67,176.78L187.48,176.93L187.49,177.08L187.54,177.31L187.61,177.55L187.72,177.80L187.85,178.06L188.00,178.31L188.18,178.55L188.37,178.77L188.58,178.98L188.79,179.17L189.01,179.33L189.24,179.46L189.45,179.56L189.66,179.63L189.85,179.66L190.03,179.65L190.19,179.60L190.32,179.53"/><path d="M187.69,176.48L187.72,176.37L187.79,176.22"/><path d="M187.67,176.78L187.70,176.75L187.72,176.71L187.73,176.69L187.74,176.64L187.74,176.62"/><path d="M187.48,176.93L187.45,176.95L187.40,176.97L187.33,176.99L187.31,176.99L187.24,176.99L187.22,176.99L187.14,176.97L187.12,176.96L187.07,176.93"/><path d="M187.70,176.26L187.60,176.38L187.53,176.52L187.50,176.64"/><path d="M191.75,180.44L191.86,180.24L191.91,180.09L191.94,179.99L191.98,179.72L191.99,179.42L191.95,179.10L191.88,178.76L191.78,178.41L191.64,178.04L191.47,177.68L191.26,177.31L191.25,177.29L191.03,176.95L190.78,176.59L190.50,176.26L190.21,175.94L189.90,175.65L189.58,175.39L189.26,175.16L188.94,174.96L188.63,174.80L188.32,174.68L188.02,174.60L187.75,174.56L187.49,174.57L187.25,174.62L187.04,174.71"/></g><g style="stroke:#000000;stroke-width:0.705"><path d="M187.78,176.29L187.75,176.39L187.75,176.40L187.72,176.45L187.69,176.48L187.49,176.65L187.43,176.68L187.37,176.69L187.35,176.70L187.27,176.70L187.25,176.70L187.17,176.68L187.16,176.67L187.09,176.63L186.32,176.08L186.27,176.03L186.24,175.98L186.23,175.96L186.22,175.90L186.22,175.89L186.26,175.72L186.36,175.41L186.47,175.21L186.52,175.15L186.67,174.99L186.86,174.83L187.04,174.70L187.11,174.67L187.32,174.58L187.55,174.53L187.63,174.53L187.88,174.52L188.16,174.56L188.45,174.64L188.50,174.66L188.80,174.77L189.11,174.93L189.42,175.12L189.73,175.34L190.03,175.59L190.33,175.88L190.61,176.18L190.88,176.51L191.13,176.84L191.35,177.19L191.55,177.55L191.71,177.91L191.85,178.26L191.95,178.60L192.02,178.93L192.06,179.31L192.05,179.60L192.01,179.87L191.91,180.18L191.80,180.38L191.75,180.44L191.60,180.61L191.41,180.77L191.23,180.90L191.16,180.94L190.96,181.03L190.72,181.08L190.65,181.08L190.40,181.09L190.12,181.05L189.83,180.98L189.78,180.96L189.48,180.85L189.18,180.70L188.87,180.51L188.57,180.29L188.26,180.04L187.97,179.77L187.89,179.68L187.69,179.47L187.43,179.15L187.18,178.82L186.96,178.48L186.76,178.13L186.59,177.78L186.44,177.43L186.34,177.09L186.26,176.76L186.22,176.45L186.21,176.39L186.20,176.21L186.20,176.19L186.22,176.14L186.22,176.12L186.26,176.08L186.29,176.05"/><path d="M189.81,179.37L189.59,179.27L189.36,179.13L189.13,178.96L188.90,178.77L188.68,178.55L188.48,178.31L188.29,178.05L188.13,177.79L187.99,177.52L187.88,177.25L187.80,177.00L187.75,176.76"/><path d="M187.74,176.64L187.75,176.81"/><path d="M187.74,176.64L187.74,176.62L187.72,176.56L187.72,176.55L187.67,176.49"/><path d="M187.77,176.31L187.83,176.19"/><path d="M187.79,176.22L187.82,176.19"/><path d="M187.79,176.20L187.70,176.26"/><path d="M187.76,176.21L187.91,176.16"/><path d="M187.84,176.17L188.02,176.15L188.22,176.18L188.40,176.23"/><path d="M188.38,176.22L188.61,176.32L188.84,176.45L189.08,176.62L189.31,176.81L189.53,177.04L189.74,177.28L189.93,177.53L190.10,177.80L190.24,178.07L190.35,178.34L190.42,178.56L190.44,178.60L190.49,178.85"/><path d="M189.77,179.36L189.98,179.43L190.18,179.46L190.31,179.45"/><path d="M190.29,179.46L190.41,179.42L190.38,179.47"/><path d="M190.41,179.42L190.45,179.34"/><path d="M190.38,179.45L190.40,179.44"/><path d="M190.44,179.40L190.48,179.22L190.50,179.02L190.49,178.84"/><path d="M190.32,179.53L190.39,179.46"/></g></g><g id="Actor_.4"><g style="stroke:#000000;stroke-width:0.353"><path d="M175.87,182.86L175.79,182.90L175.60,182.94L175.40,182.94L175.17,182.91L174.93,182.84L174.68,182.74L174.43,182.60L174.17,182.44L173.90,182.24L173.64,182.02L173.39,181.77L173.15,181.51L172.91,181.22L172.70,180.93L172.50,180.62L172.32,180.31L172.17,180.00L172.04,179.69L171.94,179.39L171.87,179.10L171.82,178.82L171.81,178.65L171.78,178.63L171.77,178.62L171.74,178.57L171.73,178.55L171.72,178.50"/><path d="M171.81,178.65L172.50,179.17L172.52,179.35L172.57,179.60L172.66,179.86L172.77,180.12L172.92,180.39L173.08,180.66L173.27,180.92L173.47,181.16L173.68,181.39L173.91,181.59L174.13,181.76L174.36,181.90L174.58,182.01L174.79,182.08L174.99,182.11L175.16,182.11L175.32,182.06L175.45,181.98L175.55,181.86L175.63,181.71L175.67,181.53L175.68,181.32L175.65,181.08L175.59,180.83L175.50,180.57L175.39,180.29L175.24,180.02L175.07,179.75L174.88,179.49L174.68,179.25L174.46,179.03L174.23,178.83L174.00,178.66L173.78,178.52L173.56,178.42L173.35,178.35L173.15,178.33L172.98,178.34L172.83,178.39L172.70,178.48L172.60,178.60L172.54,178.76L172.51,178.90"/><path d="M171.82,178.38L171.84,178.24L171.90,178.04L171.98,177.86L172.10,177.72L172.24,177.61L172.41,177.54L172.59,177.50L172.80,177.50L173.03,177.54L173.27,177.61L173.52,177.71L173.78,177.85L174.05,178.02L174.31,178.22L174.57,178.45L174.83,178.70L175.08,178.98L175.31,179.27L175.53,179.57L175.72,179.88L175.90,180.20L176.05,180.51L176.17,180.83L176.27,181.13L176.34,181.42L176.37,181.70L176.38,181.95L176.35,182.18L176.30,182.39L176.21,182.57L176.16,182.63"/><path d="M171.74,178.20L171.73,178.20"/><path d="M172.11,177.36L172.27,177.24L172.45,177.16L172.65,177.12L172.88,177.12L173.12,177.16L173.39,177.23L173.66,177.35L173.94,177.50L174.23,177.68L174.52,177.90L174.62,177.99L174.80,178.15L175.08,178.42L175.35,178.72L175.60,179.03L175.84,179.36L176.05,179.70L176.24,180.05L176.41,180.39L176.54,180.73L176.65,181.06L176.72,181.38L176.76,181.68L176.76,181.96L176.74,182.17"/><path d="M175.52,181.54L175.40,181.58L175.24,181.58L175.07,181.55L174.89,181.49L174.69,181.40L174.50,181.28L174.30,181.12L174.10,180.95L173.91,180.75L173.74,180.54L173.57,180.31L173.43,180.08L173.31,179.84L173.21,179.61L173.13,179.38L173.09,179.17L173.07,179.03L172.88,179.18L172.90,179.31L172.95,179.53L173.02,179.76L173.12,179.99L173.25,180.23L173.39,180.46L173.55,180.69L173.73,180.90L173.92,181.09L174.11,181.27L174.31,181.42L174.51,181.55L174.59,181.59L174.70,181.64L174.89,181.70L175.06,181.73L175.21,181.72L175.35,181.69L175.46,181.61"/><path d="M173.08,178.76L173.10,178.65L173.16,178.52L173.19,178.48"/><path d="M172.50,179.17L172.55,179.20L172.57,179.21L172.64,179.23L172.66,179.23L172.73,179.24L172.75,179.23L172.81,179.22L172.86,179.19L172.88,179.18"/><path d="M173.06,178.55L172.97,178.66L172.92,178.80L172.89,178.90"/><path d="M173.07,179.03L173.10,179.01L173.12,178.97L173.13,178.95L173.14,178.90L173.14,178.88"/><path d="M172.45,177.10L172.63,177.02L172.84,176.98L173.06,176.97L173.31,177.01L173.57,177.09L173.85,177.20L174.13,177.35L174.40,177.53L174.42,177.54L174.71,177.76L174.99,178.00L175.27,178.28L175.54,178.57L175.79,178.89L176.03,179.22L176.24,179.56L176.43,179.90L176.59,180.24L176.73,180.58L176.83,180.91L176.91,181.23L176.94,181.53L176.95,181.81L176.92,182.04"/><path d="M172.30,177.22L172.30,177.22"/></g><g style="stroke:#000000;stroke-width:0.705"><path d="M175.71,183.07L175.57,183.07L175.33,183.04L175.07,182.96L175.01,182.95L174.75,182.84L174.48,182.70L174.20,182.52L173.93,182.31L173.66,182.08L173.39,181.82L173.13,181.54L172.89,181.25L172.66,180.93L172.46,180.61L172.27,180.29L172.11,179.96L171.97,179.63L171.87,179.32L171.79,179.01L171.74,178.72L171.73,178.54"/><path d="M171.80,178.36L171.79,178.37L171.75,178.42L171.74,178.43L171.73,178.48L171.72,178.50L171.74,178.61"/><path d="M173.15,178.60L173.17,178.56L173.14,178.67L173.14,178.68L173.11,178.73L173.08,178.76L172.88,178.91L172.82,178.94L172.77,178.96L172.75,178.96L172.68,178.96L172.66,178.96L172.59,178.94L172.57,178.93L172.51,178.90L171.82,178.38L171.77,178.33L171.74,178.28L171.74,178.27L171.73,178.21L171.76,178.04L171.82,177.82L171.84,177.76L171.94,177.57L172.06,177.42L172.11,177.36L172.30,177.22L172.45,177.10L172.52,177.07L172.70,176.99L172.90,176.94L172.97,176.94L173.20,176.93L173.44,176.97L173.70,177.04L173.75,177.06L174.02,177.17L174.29,177.32L174.57,177.50L174.85,177.71L175.12,177.95L175.39,178.21L175.65,178.50L175.90,178.80L176.12,179.12L176.33,179.45L176.51,179.78L176.67,180.11L176.80,180.44L176.90,180.76L176.97,181.07L177.01,181.36L177.01,181.42L177.02,181.69L176.99,181.94L176.97,182.04"/><path d="M175.20,181.51L175.06,181.47L174.86,181.37L174.65,181.24L174.44,181.08L174.23,180.89L174.03,180.68L173.84,180.46L173.67,180.22L173.52,179.97L173.39,179.72L173.28,179.47L173.21,179.23L173.15,179.00L173.14,178.88L173.13,178.83L173.12,178.82L173.09,178.77L173.08,178.76"/><path d="M173.17,178.55L173.17,178.56L173.20,178.48"/><path d="M173.06,178.55L173.14,178.50"/><path d="M173.11,178.51L173.23,178.47"/><path d="M173.63,178.53L173.50,178.48L173.32,178.46L173.17,178.47"/><path d="M173.63,178.52L173.84,178.62L174.05,178.75L174.26,178.90L174.47,179.09L174.67,179.29L174.86,179.52L175.03,179.76L175.19,180.01L175.33,180.26L175.44,180.51L175.52,180.76L175.57,180.99L175.59,181.21"/><path d="M175.20,181.51L175.37,181.54L175.48,181.54"/><path d="M175.46,181.54L175.52,181.53"/><path d="M175.42,181.67L175.42,181.67L175.51,181.56L175.55,181.47"/><path d="M175.55,181.50L175.58,181.33L175.59,181.17"/></g></g><g id="Actor_.5"><g style="stroke:#000000;stroke-width:0.353"><path d="M247.73,120.49L247.92,120.36L248.16,120.29L248.43,120.29L248.71,120.35L248.99,120.48L249.26,120.66L249.50,120.89L249.69,121.15L249.83,121.44L249.91,121.73L249.93,122.00L249.87,122.25L249.76,122.46L249.59,122.62"/><path d="M261.58,107.93L261.86,107.73L262.18,107.60L262.54,107.52L262.92,107.52L263.32,107.57L263.72,107.69L264.11,107.88L264.49,108.11L264.83,108.40L265.14,108.73L265.40,109.09L265.61,109.48L265.76,109.87L265.84,110.27L265.86,110.66L265.81,111.02L265.69,111.35L265.52,111.65L265.28,111.89"/><path d="M262.43,108.98L262.56,108.88L262.71,108.81L262.87,108.77L263.05,108.75L263.24,108.77L263.43,108.82L263.61,108.89L263.68,108.93L263.80,108.99L263.97,109.11L264.13,109.26L264.27,109.42L264.38,109.59L264.48,109.78L264.54,109.96L264.58,110.15L264.58,110.33L264.56,110.51L264.51,110.67L264.42,110.81L264.32,110.93"/><path d="M264.01,111.17L264.15,111.14L264.31,111.06L264.45,110.96L264.56,110.83L264.65,110.68L264.71,110.51L264.74,110.32L264.73,110.12L264.72,110.05L264.69,109.92L264.62,109.72L264.52,109.52L264.39,109.33L264.24,109.16L264.07,109.00L263.89,108.87L263.69,108.76L263.49,108.68L263.28,108.63L263.08,108.61L262.89,108.63L262.71,108.67L262.55,108.75L262.41,108.85L262.29,108.99L262.20,109.15"/><path d="M266.13,111.15L266.23,111.01L266.31,110.86L266.38,110.70L266.43,110.53L266.46,110.35L266.48,110.16L266.48,109.97L266.46,109.78L266.43,109.58L266.38,109.38L266.31,109.18L266.23,108.99L266.13,108.79L266.02,108.60L265.90,108.42L265.76,108.24L265.61,108.07L265.45,107.91L265.28,107.76L265.11,107.63L264.92,107.50L264.73,107.39L264.54,107.29L264.34,107.21L264.14,107.14L263.94,107.09L263.74,107.05L263.54,107.03L263.35,107.03L263.16,107.04L262.98,107.07L262.80,107.11L262.64,107.17"/></g><g style="stroke:#000000;stroke-width:0.705"><path d="M262.42,108.98L262.43,108.98L247.73,120.49L247.59,120.68L247.50,120.91L247.49,121.18L247.54,121.46L247.65,121.75L247.81,122.02L248.03,122.27L248.28,122.48L248.56,122.63L248.84,122.73L249.12,122.76L249.37,122.72L249.59,122.62L264.32,110.93"/><path d="M262.95,112.01L263.14,112.10L263.54,112.22L263.93,112.29L264.32,112.28L264.67,112.22L265.00,112.08L265.28,111.89L265.90,111.40L266.02,111.28L266.17,111.11L266.26,110.97L266.34,110.82L266.41,110.66L266.46,110.49L266.49,110.31L266.51,110.09L266.51,109.90L266.49,109.71L266.46,109.51L266.41,109.32L266.35,109.12L266.27,108.93L266.17,108.74L266.07,108.56L265.94,108.37L265.81,108.20L265.66,108.03L265.51,107.88L265.34,107.73L265.17,107.60L264.99,107.47L264.80,107.36L264.61,107.27L264.41,107.19L264.22,107.12L264.02,107.07L263.82,107.03L263.63,107.01L263.39,107.00L263.20,107.02L263.02,107.05L262.85,107.09L262.68,107.15L262.48,107.25L262.34,107.34L261.58,107.93L261.35,108.18L261.18,108.47L261.07,108.80L261.02,109.17L261.04,109.55L261.13,109.94L261.14,109.98"/></g></g><g id="Actor_.6"><g style="stroke:#000000;stroke-width:0.353"><path d="M177.18,172.13L177.47,171.98L177.75,171.93L177.80,171.92L178.18,171.92L178.60,172.01L179.03,172.17L179.49,172.41L179.96,172.71L180.42,173.08L180.87,173.50L181.30,173.97L181.70,174.47L182.06,175.00L182.37,175.54L182.63,176.09L182.84,176.63L182.98,177.15L183.05,177.64L183.06,178.09L183.01,178.49L182.88,178.83L182.70,179.11L182.45,179.32"/><path d="M180.99,177.13L180.82,177.25L180.60,177.29L180.33,177.25L180.05,177.13L179.75,176.94L179.45,176.70L179.17,176.40L178.93,176.07L178.73,175.72L178.58,175.37L178.49,175.03L178.47,174.74L178.52,174.48L178.63,174.30"/></g><g style="stroke:#000000;stroke-width:0.705"><path d="M176.61,173.37L176.66,172.97L176.77,172.63L176.94,172.34L177.18,172.13L177.63,171.78L177.92,171.63L178.26,171.56L178.64,171.57L179.05,171.66L179.49,171.82L179.95,172.05L180.41,172.36L180.87,172.72L181.32,173.14L181.75,173.61L182.15,174.11L182.51,174.64L182.83,175.18L183.09,175.73L183.29,176.27L183.43,176.79L183.51,177.28L183.51,177.73L183.46,178.13L183.33,178.47L183.15,178.75L182.90,178.95L182.45,179.31L182.16,179.45L181.81,179.50L181.43,179.48L181.01,179.39L180.57,179.21L180.12,178.97L179.66,178.67L179.21,178.30L178.77,177.88L178.35,177.42L177.96,176.93L177.61,176.41L177.30,175.88L177.04,175.34L176.84,174.81L176.70,174.30L176.62,173.82L176.61,173.37"/><path d="M180.99,177.13L181.11,176.95L181.15,176.70L181.13,176.40L181.05,176.06L180.90,175.71L180.70,175.35L180.45,175.02L180.17,174.72L179.87,174.47L179.57,174.29L179.28,174.17L179.02,174.13L178.80,174.18L178.63,174.30"/><path d="M181.11,176.92L181.05,176.93L180.78,176.89L180.50,176.78L180.20,176.59L179.90,176.34L179.62,176.04L179.38,175.71L179.18,175.36L179.03,175.01L178.94,174.68L178.92,174.38L178.97,174.14"/></g></g><g id="Actor_.7"><g style="stroke:#000000;stroke-width:0.353"><path d="M161.97,188.46L162.12,188.71"/><path d="M161.74,188.01L161.56,187.56L161.51,187.41L161.42,187.13L161.34,186.73L161.32,186.37L161.34,186.05L161.43,185.78L161.56,185.56L161.75,185.41L161.98,185.32L162.26,185.30L162.55,185.35L162.88,185.41L163.07,185.44L163.28,185.46L163.51,185.47L163.74,185.48L164.02,185.48L165.15,184.60"/><path d="M167.64,187.91L166.51,188.80L166.24,188.57L166.00,188.36L165.77,188.14L165.57,187.94L165.38,187.72L164.72,186.91L164.36,186.52L163.99,186.17L163.61,185.87L163.24,185.63L162.88,185.45L162.55,185.35L162.26,185.26L161.97,185.14L161.82,185.06L161.68,184.98L161.54,184.87"/><path d="M163.01,189.90L163.06,189.96"/><path d="M162.09,188.65L162.24,188.91"/><path d="M162.86,189.73L163.21,190.12"/><path d="M164.81,189.79L164.63,189.84L164.39,189.82L164.13,189.71L163.84,189.53L163.56,189.29L163.28,189.00L163.04,188.67L162.83,188.32L162.67,187.97L162.58,187.64L162.54,187.35L162.58,187.11L162.68,186.94"/><path d="M164.86,189.74L164.75,189.81L164.54,189.82L164.29,189.76L164.01,189.61L163.73,189.40L163.44,189.13L163.18,188.81L162.95,188.47L162.77,188.12L162.64,187.78L162.58,187.47L162.57,187.33L162.58,187.20L162.65,187.00L162.73,186.90"/><path d="M164.87,189.34L164.73,189.42L164.56,189.43L164.35,189.38L164.13,189.26L163.89,189.08L163.66,188.86L163.45,188.60L163.26,188.32L163.11,188.04L163.00,187.76L162.95,187.50L162.95,187.28L163.01,187.11L163.11,187.00"/><path d="M162.84,186.84L162.83,186.84"/><path d="M163.58,190.46L163.95,190.76L164.32,191.01L164.68,191.19L165.00,191.30L165.30,191.36L165.58,191.34L165.82,191.26L166.02,191.11L166.16,190.90L166.25,190.63L166.28,190.31L166.30,189.96L166.32,189.76L166.35,189.56L166.39,189.32L166.45,189.08L166.51,188.80"/><path d="M166.48,191.47L166.41,191.29L166.37,191.13L166.33,190.96L166.30,190.80L166.29,190.64L166.28,190.31L166.25,189.96L166.18,189.55L166.04,189.12L165.86,188.66L165.62,188.20L165.34,187.74L164.74,186.88L164.59,186.63L164.45,186.38L164.30,186.10L164.16,185.81L164.02,185.48"/><path d="M165.89,185.25L166.09,185.46L166.28,185.67L166.61,186.08L166.91,186.51L167.20,187.00"/><path d="M165.93,185.29L165.93,185.29"/></g><g style="stroke:#000000;stroke-width:0.705"><path d="M165.89,185.25L165.66,185.04L165.42,184.82L165.15,184.60L165.00,184.50L164.86,184.41L164.71,184.34L164.57,184.27L164.42,184.21L164.12,184.13L163.79,184.06L163.60,184.04L163.40,184.02L163.17,184.01L162.93,184.00L162.66,184.00L161.54,184.87L161.43,185.37L161.38,185.61L161.33,186.01L161.32,186.37L161.33,186.70L161.35,186.87L161.38,187.03L161.42,187.19L161.47,187.36L161.53,187.53L161.74,188.01L161.97,188.46L162.09,188.66L162.24,188.91L162.54,189.33L162.86,189.73L163.05,189.95L163.21,190.12L163.58,190.46L163.98,190.80L164.12,190.90L164.26,190.99L164.41,191.08L164.55,191.14L164.70,191.21L165.00,191.30L165.33,191.38L165.53,191.41L165.73,191.43L165.96,191.45L166.20,191.46L166.48,191.47L167.59,190.57L167.66,190.30L167.71,190.06L167.76,189.82L167.79,189.62L167.81,189.42L167.83,189.07L167.82,188.73L167.78,188.41L167.74,188.24L167.64,187.91L167.49,187.57L167.35,187.28L167.20,187.00"/><path d="M162.68,186.94L162.84,186.84L163.05,186.82L163.30,186.88L163.57,187.02L163.86,187.24L164.15,187.51L164.41,187.82L164.64,188.17L164.83,188.52L164.95,188.86L165.02,189.18L165.02,189.32L165.01,189.45L164.95,189.65L164.81,189.79"/><path d="M163.08,187.04L163.13,186.99"/><path d="M163.50,186.98L163.46,186.97L163.27,186.95L163.11,187.00"/><path d="M164.87,189.34L164.95,189.19L164.98,189.00L164.98,188.98"/><path d="M165.84,185.21L165.93,185.29L166.09,185.46L166.29,185.68L166.61,186.08"/><path d="M166.61,186.08L166.91,186.50L167.18,186.96L167.25,187.08"/></g></g><g id="Actor_.8"><g style="stroke:#000000;stroke-width:0.353"><path d="M176.41,187.31L176.12,186.82L175.87,186.34L175.68,185.86L175.54,185.40L175.47,184.96L175.45,184.59L175.50,184.24L175.60,183.94L175.77,183.71L175.99,183.54L176.26,183.44L176.57,183.42L176.91,183.47L177.28,183.53L177.50,183.56L177.72,183.58L177.98,183.59L178.25,183.60L178.55,183.60L179.72,182.66"/><path d="M176.24,187.04L176.24,187.04"/><path d="M178.55,183.60L178.71,183.95L178.87,184.26L179.03,184.57L179.19,184.84L179.35,185.10L179.68,185.56L179.33,185.13L178.93,184.71L178.52,184.34L178.10,184.02L177.68,183.77L177.28,183.58L176.91,183.47L176.57,183.37L176.24,183.25L176.07,183.17L175.91,183.08L175.73,182.97"/><path d="M177.08,188.18L177.47,188.60L177.87,188.97L178.29,189.28L178.70,189.54L179.10,189.74L179.47,189.86L179.81,189.91L180.13,189.90L180.41,189.81L180.64,189.64L180.81,189.41L180.92,189.12L180.97,188.78L181.00,188.41L181.03,188.19L181.08,187.97L181.13,187.71L181.19,187.46L181.27,187.16L182.44,186.20"/><path d="M179.31,188.23L179.10,188.29L178.83,188.27L178.53,188.15L178.21,187.96L177.90,187.70L177.60,187.39L177.33,187.04L177.10,186.66L176.94,186.29L176.84,185.94L176.82,185.62L176.87,185.37"/><path d="M179.37,188.18L179.24,188.25L178.99,188.27L178.71,188.20L178.40,188.05L178.08,187.82L177.77,187.53L177.48,187.19L177.23,186.83L177.14,186.64L177.04,186.45L176.91,186.09L176.85,185.75L176.84,185.60L176.86,185.47L176.94,185.25"/><path d="M177.46,185.24L177.33,185.37L177.26,185.55L177.25,185.79L177.30,186.06L177.41,186.36L177.57,186.67L177.77,186.97L178.01,187.24L178.26,187.48L178.53,187.67L178.78,187.79L179.01,187.85L179.21,187.83L179.37,187.75"/><path d="M176.95,185.24L177.04,185.14"/><path d="M179.47,188.07L179.46,188.09"/><path d="M181.12,190.02L181.06,189.84L181.02,189.67L180.99,189.49L180.97,189.31L180.96,189.13L180.97,188.78L180.96,188.40L180.88,187.96L180.75,187.50L180.55,187.01L180.31,186.51L180.01,186.02L179.68,185.56L180.04,186.00L180.25,186.23L180.47,186.45L180.72,186.69L180.98,186.91L181.27,187.16"/></g><g style="stroke:#000000;stroke-width:0.705"><path d="M175.50,185.34L175.49,185.29L175.47,185.11L175.45,184.93L175.45,184.59L175.48,184.20L175.55,183.76L175.60,183.51L175.73,182.97L176.90,182.04L177.20,182.04L177.46,182.04L177.72,182.06L177.94,182.08L178.16,182.10L178.53,182.17L178.87,182.26L179.04,182.32L179.21,182.39L179.38,182.47L179.55,182.55L179.72,182.66L180.01,182.90L180.27,183.13L180.52,183.36L180.73,183.58L180.94,183.81L181.30,184.25L181.63,184.70L181.95,185.23L182.11,185.53L182.27,185.84L182.44,186.20L182.52,186.56L182.55,186.74L182.58,187.09L182.58,187.46L182.54,187.83L182.51,188.05L182.47,188.27L182.41,188.52L182.35,188.78L182.27,189.07L181.12,190.02L180.81,190.02L180.54,190.01L180.29,189.99L180.06,189.97L179.84,189.93L179.47,189.86L179.13,189.76L178.95,189.69L178.79,189.62L178.62,189.53L178.45,189.44L178.28,189.33L177.99,189.09L177.74,188.86L177.50,188.63L177.29,188.41L177.08,188.18L176.73,187.76L176.41,187.31L176.24,187.04L176.09,186.78L175.93,186.48L175.78,186.17L175.62,185.83L175.57,185.64L175.52,185.47L175.50,185.34"/><path d="M176.87,185.37L176.99,185.18L177.17,185.07L177.41,185.05L177.70,185.11L178.01,185.26L178.33,185.49L178.64,185.78L178.93,186.12L179.18,186.49L179.38,186.87L179.51,187.23L179.57,187.57L179.57,187.72L179.56,187.86L179.47,188.08L179.31,188.23"/><path d="M177.46,185.24L177.63,185.19L177.85,185.21L178.01,185.27"/><path d="M177.42,185.29L177.47,185.24"/><path d="M179.37,187.75L179.47,187.59L179.51,187.38L179.50,187.19"/></g></g><g id="Actor_.9"><g style="stroke:#000000;stroke-width:0.353"><path d="M133.74,143.15L142.70,139.29L145.97,141.78L149.14,145.21L151.89,149.27L153.96,153.58L155.15,157.72L155.36,161.29"/><path d="M175.26,118.58L142.70,139.29"/></g><g style="stroke:#000000;stroke-width:0.705"><path d="M133.87,144.47L133.74,143.15L165.39,123.15L175.26,118.58L178.54,120.72L181.64,123.78L184.24,127.49L186.11,131.51L187.05,135.44L187.01,138.92L155.36,161.29L145.74,164.03L142.66,161.51L139.75,158.24L137.24,154.47L135.30,150.50L134.10,146.62L133.87,144.47"/></g></g><g id="Actor_.10"><g style="stroke:#000000;stroke-width:0.353"><path d="M163.71,123.93L177.14,117.71L189.96,109.55"/><path d="M177.14,117.71L177.68,117.61L178.30,117.76L178.95,118.14L179.56,118.72L180.07,119.44L206.81,165.69L207.16,166.47L207.31,167.20L207.23,167.81L206.95,168.25"/><path d="M180.07,119.44L192.88,111.16"/><path d="M188.47,166.83L188.29,167.18L188.28,167.66L188.43,168.22L188.73,168.80L189.15,169.34L189.64,169.78L190.14,170.08L190.61,170.19L191.00,170.12"/><path d="M202.78,163.73L202.57,164.11L202.54,164.62L202.69,165.22L203.01,165.84L203.46,166.41L203.99,166.88L204.55,167.19L205.08,167.30L205.52,167.22"/><path d="M206.81,165.69L218.78,155.91"/></g><g style="stroke:#000000;stroke-width:0.705"><path d="M196.41,170.42L206.48,168.47L206.95,168.25L218.86,158.43L219.16,157.98L219.25,157.38L219.12,156.66L218.78,155.91L192.88,111.16L192.38,110.47L191.78,109.92L191.13,109.57L190.50,109.44L189.96,109.55L176.13,116.09L163.71,123.93L163.36,124.22L163.26,124.49"/><path d="M175.42,147.11L188.33,169.48L188.80,170.16L189.38,170.75L190.00,171.18L190.60,171.42L191.13,171.44L191.20,171.43"/><path d="M188.47,166.83L188.79,166.66L189.22,166.67L189.72,166.87L190.23,167.25L190.69,167.75L191.06,168.32L191.29,168.90L191.36,169.43L191.26,169.85L191.00,170.12"/><path d="M202.78,163.73L203.15,163.54L203.63,163.55L204.19,163.76L204.75,164.15L205.25,164.68L205.65,165.29L205.89,165.92L205.95,166.48L205.82,166.93L205.52,167.22"/></g></g><g id="Actor_.11"><g style="stroke:#000000;stroke-width:0.353"><path d="M96.71,54.54L97.58,56.07L97.47,56.26L97.51,56.38"/><path d="M97.58,56.07L102.54,50.03L101.63,48.45"/><path d="M99.52,56.03L99.64,55.76L100.00,55.37L100.56,54.92L101.26,54.46L102.03,54.04L102.78,53.70L103.43,53.48L103.90,53.40L104.15,53.48"/><path d="M99.08,55.27L99.20,54.99L99.56,54.60L100.13,54.15L100.82,53.69L101.59,53.27L102.34,52.93L102.99,52.71L103.46,52.64L103.71,52.72"/><path d="M103.00,54.14L103.00,54.25L102.88,54.42L102.65,54.62L101.96,55.08L101.23,55.41L100.94,55.49L100.76,55.49L100.69,55.42"/><path d="M101.18,33.95L100.97,32.15L100.70,31.97L100.60,31.74"/><path d="M100.97,32.15L234.58,93.99L234.22,96.23"/><path d="M102.80,50.77L102.93,50.47L103.31,50.06L103.89,49.60L104.62,49.11L105.41,48.68L106.17,48.34L106.83,48.12L107.31,48.06L107.55,48.15"/><path d="M103.26,51.55L103.39,51.26L103.76,50.85L104.35,50.39L105.07,49.91L105.86,49.47L106.63,49.13L107.29,48.91L107.76,48.84L108.01,48.93"/><path d="M103.75,47.08L104.67,48.67L104.18,48.88L103.67,49.16L103.20,49.46L102.81,49.76L102.54,50.03"/><path d="M103.58,54.59L110.00,47.05L109.92,46.93L109.67,46.79L109.54,46.77L109.42,46.80L107.85,48.65"/><path d="M106.07,50.74L103.99,53.20"/><path d="M104.45,50.92L104.52,51.00L104.70,51.01L104.99,50.93L105.75,50.59L106.12,50.37L106.45,50.13L106.69,49.91L106.82,49.73L106.83,49.61"/><path d="M106.28,59.24L106.07,59.21L105.84,59.06L105.62,58.81L105.43,58.50L105.29,58.15L105.22,57.80L105.22,57.49L105.29,57.25L105.43,57.11"/><path d="M104.67,48.67L109.42,46.80"/><path d="M107.57,31.63L107.49,31.45L107.27,31.30L106.93,31.20L106.50,31.15L106.03,31.16L105.58,31.23L105.18,31.35L104.89,31.52L104.73,31.70L104.72,31.88"/><path d="M109.30,56.85L109.03,56.80L108.74,56.62L108.47,56.32L108.23,55.92L108.05,55.48L107.96,55.04L107.97,54.65L108.06,54.35L108.24,54.17"/><path d="M109.16,30.63L237.75,88.06L238.31,87.81L238.77,87.85"/><path d="M111.45,79.71L111.44,79.63L111.57,79.47L110.69,77.94"/><path d="M111.31,59.13L110.90,59.52L110.69,60.14L110.67,60.99L110.87,61.93L111.24,62.89L111.76,63.75L112.37,64.42L113.01,64.84L113.60,64.95L114.08,64.74"/><path d="M111.57,79.47L117.08,74.31L116.16,72.72"/><path d="M114.25,72.70L114.07,72.77L113.86,72.72L113.62,72.57L113.40,72.32L113.21,72.00L113.07,71.65L113.00,71.31L113.01,71.01L113.09,70.79L113.24,70.66"/><path d="M116.54,76.75L116.46,76.87L116.27,77.03L115.62,77.46L114.88,77.86L114.34,78.06L114.23,78.05"/><path d="M117.02,69.78L116.80,69.87L116.53,69.81L116.25,69.63L115.95,69.30L115.71,68.91L115.54,68.47L115.46,68.04L115.47,67.66L115.57,67.38L115.76,67.22"/><path d="M115.69,56.20L115.44,56.43L115.31,56.83L115.29,57.34L115.40,57.91L115.63,58.49L115.94,59.01L116.31,59.41L116.70,59.66L117.06,59.71"/><path d="M116.78,77.36L123.86,70.86L119.25,72.97L118.32,71.38"/><path d="M117.08,74.31L117.77,73.79L118.76,73.22L119.25,72.97"/><path d="M120.76,72.86L120.68,72.98L120.47,73.15L119.80,73.60L119.04,74.00L118.50,74.20L118.39,74.19"/><path d="M122.04,69.69L123.07,68.72L123.12,68.85L123.14,68.99L123.11,69.11L123.04,69.21"/><path d="M124.35,66.48L122.95,67.12L123.07,68.72L124.47,68.09"/><path d="M122.95,67.12L122.95,66.72L123.04,66.39L123.20,66.15L127.26,62.29L128.06,61.93"/><path d="M123.20,66.15L124.61,65.52"/><path d="M123.86,70.86L124.34,70.51"/><path d="M127.26,62.29L127.84,61.95"/><path d="M135.83,56.26L135.56,56.38L135.23,56.33L134.89,56.13L134.56,55.79L134.30,55.35L134.11,54.86L134.03,54.37L134.06,53.93L134.20,53.60L134.44,53.40"/><path d="M158.17,56.07L158.28,55.82L158.56,55.61L158.98,55.45L159.49,55.35L160.03,55.34L160.55,55.41L161.00,55.55L161.32,55.75L161.47,55.99"/><path d="M197.17,86.03L196.75,86.12L196.28,86.02L195.82,85.75L195.41,85.35L195.09,84.82L194.89,84.26L194.85,83.71L194.97,83.23L195.23,82.89"/><path d="M206.61,124.97L208.06,124.43L207.77,123.75L207.65,123.03L207.72,122.36L207.96,121.78L208.36,121.36L206.91,121.93"/><path d="M208.06,124.43L217.50,140.72L215.99,141.16"/><path d="M208.36,121.36L213.06,118.07L224.66,138.09"/><path d="M213.89,127.36L213.03,127.53L212.11,127.32L211.23,126.77L210.49,125.92L209.97,124.88L209.73,123.76L209.79,122.68L210.15,121.76L210.76,121.10L211.56,120.76"/><path d="M214.64,127.10L213.77,127.26L212.85,127.06L211.97,126.50L211.23,125.65L210.71,124.61L210.47,123.48L210.53,122.41L210.89,121.48L211.49,120.82L212.30,120.48"/><path d="M213.94,125.47L214.30,125.21L214.54,124.81L214.64,124.30L214.60,123.75L214.40,123.20L214.08,122.73L213.68,122.37L213.23,122.18L212.78,122.16"/><path d="M225.39,137.71L213.78,117.68L213.50,117.81L213.06,118.07"/><path d="M218.56,132.84L217.78,133.20L217.18,133.89L216.83,134.83L216.78,135.93L217.03,137.06L217.55,138.10L218.29,138.94L219.16,139.48L220.07,139.67L220.92,139.49"/><path d="M219.61,141.89L219.04,141.91L218.47,141.70L217.93,141.29L217.50,140.72"/><path d="M219.32,132.60L218.53,132.95L218.25,133.28L217.93,133.64L217.59,134.59L217.54,135.69L217.79,136.82L218.31,137.87L219.05,138.71L219.91,139.25L220.50,139.38L220.83,139.44L221.68,139.26"/><path d="M219.80,134.29L220.25,134.30L220.70,134.48L221.11,134.83L221.42,135.31L221.62,135.86L221.67,136.42L221.57,136.94L221.33,137.35L220.99,137.62"/><path d="M226.25,129.71L225.87,129.91L225.41,129.94L224.89,129.78L224.39,129.46L223.95,129.01L223.63,128.48L223.45,127.93L223.43,127.42L223.58,126.99L223.88,126.72"/><path d="M226.63,116.04L226.13,116.34L225.52,116.39L224.85,116.21L224.19,115.81L223.61,115.23L223.19,114.55L222.95,113.81L222.93,113.12L223.13,112.54L223.53,112.13"/><path d="M230.63,138.23L230.33,138.38L229.94,138.39L229.52,138.25L229.11,137.98L228.75,137.61L228.49,137.18L228.34,136.74L228.33,136.33L228.46,135.99L228.72,135.77"/><path d="M234.68,129.21L233.81,129.67L232.74,129.72L231.57,129.37L230.43,128.65L229.45,127.66L228.72,126.48L228.32,125.24L228.30,124.09L228.65,123.13L229.35,122.47"/><path d="M231.96,116.82L233.74,116.16L233.41,115.42L233.26,114.63L233.31,113.89L233.54,113.27L233.94,112.82L232.18,113.50"/><path d="M236.73,90.31L236.63,89.95L236.32,89.61L235.84,89.33L235.23,89.12L234.57,89.02L233.92,89.04L233.35,89.17L232.92,89.40L232.69,89.70"/><path d="M233.74,116.16L244.18,134.14L242.33,134.68"/><path d="M233.94,112.82L238.77,109.31L251.58,131.36"/><path d="M234.58,93.99L235.36,94.26L236.22,94.41L237.07,94.41L237.84,94.26L238.43,93.98L238.05,96.22"/><path d="M237.52,107.40L236.06,108.44L235.53,107.26L235.26,106.07L235.29,104.94L236.76,103.90"/><path d="M236.06,108.44L236.97,110.01"/><path d="M235.29,104.94L236.66,96.65"/><path d="M238.37,108.85L236.91,109.91L237.10,109.86L237.12,109.88"/><path d="M238.96,117.75L239.37,117.57L239.67,117.21L239.84,116.71L239.85,116.12L239.70,115.51L239.42,114.95L239.02,114.48L238.56,114.17L238.07,114.05L237.63,114.13"/><path d="M241.50,93.85L241.88,91.63L238.43,93.98"/><path d="M238.77,109.31L239.22,108.94L239.41,108.70"/><path d="M241.95,93.04L241.94,93.00"/><path d="M242.34,90.82L242.25,91.25L241.88,91.63"/><path d="M246.43,135.45L245.84,135.47L245.22,135.23L244.64,134.76L244.18,134.14"/><path d="M246.72,131.12L247.12,130.92L247.42,130.55L247.58,130.03L247.59,129.44L247.44,128.82L247.15,128.25L246.75,127.79L246.29,127.48L245.82,127.37L245.38,127.46"/><path d="M249.48,136.62L250.15,135.72L250.40,134.53L250.22,133.16L250.00,132.67"/></g><g style="stroke:#000000;stroke-width:0.705"><path d="M99.40,55.82L98.01,56.35L97.70,56.41L97.51,56.38L96.63,54.86L96.59,54.74L96.71,54.54L101.63,48.45L101.90,48.17L102.29,47.87L102.76,47.57L103.26,47.29L103.75,47.08L108.51,45.22L109.12,45.10L109.79,45.19L110.44,45.46L110.80,45.75"/><path d="M103.71,52.72L104.15,53.48L104.15,53.70L103.90,54.03L103.45,54.44L102.79,54.91L102.06,55.35L101.30,55.73L100.60,56.02L100.03,56.17L99.66,56.18L99.52,56.03L99.08,55.27"/><path d="M103.00,54.14L102.88,54.10L102.64,54.14L102.32,54.25L101.56,54.63L100.93,55.08L100.75,55.28L100.69,55.42"/><path d="M100.90,33.76L100.80,33.53L100.60,31.74L100.69,31.51L100.96,31.28L101.38,31.09L104.79,29.88L105.31,29.74L105.89,29.66L106.47,29.66L107.01,29.73L107.43,29.86L109.16,30.63L109.75,30.53L110.30,30.66L238.77,87.85L239.08,88.19L239.20,88.71L241.12,89.57L241.75,89.94L242.17,90.37L242.34,90.82L241.86,93.48L241.50,93.85L238.50,95.91L238.05,96.22L237.46,96.50L236.70,96.65L235.85,96.65L234.99,96.50L234.22,96.23L101.18,33.95L100.90,33.76"/><path d="M113.49,74.97L113.26,74.75L112.66,73.89L104.08,58.99L103.61,58.00L103.31,56.97L103.20,56.00L103.29,55.18L103.58,54.59L103.45,54.44"/><path d="M107.55,48.15L108.01,48.93L108.00,49.17L107.73,49.53L107.24,49.97L106.58,50.44L105.83,50.89L105.05,51.28L104.34,51.57L103.76,51.72L103.39,51.71L103.26,51.55L102.80,50.77"/><path d="M106.83,49.61L106.70,49.57L106.47,49.60L106.14,49.71L105.76,49.88L105.00,50.34L104.71,50.57L104.52,50.77L104.45,50.92"/><path d="M106.28,59.24L106.45,59.16L106.56,58.97L106.60,58.69L106.56,58.40L106.45,58.00L106.29,57.67L106.08,57.38L105.85,57.18L105.63,57.09L105.43,57.11"/><path d="M107.57,31.63L107.48,31.82L107.25,31.99L106.90,32.14L106.47,32.24L106.00,32.28L105.54,32.26L105.15,32.18L104.87,32.05L104.72,31.88"/><path d="M109.30,56.85L109.51,56.74L109.65,56.50L109.71,56.15L109.67,55.73L109.53,55.28L109.32,54.86L109.06,54.50L108.77,54.25L108.49,54.14L108.24,54.17"/><path d="M110.00,47.05L110.46,46.51L110.75,46.00L110.89,45.29L110.88,44.45L110.28,38.21"/><path d="M123.04,69.21L122.94,69.28L117.84,71.62L116.86,72.20L116.16,72.72L110.69,77.94L110.55,78.10L110.57,78.18L111.45,79.71L111.61,79.71L111.91,79.61L112.31,79.44L116.78,77.36L117.26,77.02L124.34,70.51L124.67,70.01L124.81,69.40L124.74,68.74L124.47,68.09L124.35,66.48L124.36,66.09L124.45,65.76L124.61,65.52L128.42,61.91"/><path d="M111.31,59.13L111.85,59.06L112.48,59.32L113.11,59.87L113.70,60.66L114.16,61.60L114.45,62.57L114.53,63.49L114.40,64.24L114.08,64.74"/><path d="M114.25,74.54L113.20,75.15L112.54,75.58L112.05,75.97L111.78,76.26L111.76,76.42L111.95,76.74"/><path d="M114.40,64.24L113.76,63.82L113.15,63.15L112.63,62.29L112.26,61.34L112.07,60.39L112.09,59.55L112.20,59.21"/><path d="M113.24,70.66L113.44,70.65L113.67,70.75L113.90,70.96L114.11,71.25L114.28,71.58L114.38,71.93L114.41,72.26L114.37,72.52L114.25,72.70"/><path d="M116.54,76.75L116.50,76.71L116.33,76.74L115.72,77.00L115.34,77.20L114.63,77.64L114.25,77.97L114.23,78.05"/><path d="M120.82,70.25L120.51,69.74L120.17,69.78L119.63,69.97L118.92,70.29L118.14,70.70L117.36,71.16L116.68,71.62L116.17,72.02L115.88,72.33L115.85,72.51L116.04,72.84"/><path d="M115.76,67.22L116.01,67.20L116.30,67.32L116.60,67.58L116.86,67.94L117.07,68.36L117.20,68.81L117.24,69.22L117.18,69.55L117.02,69.78"/><path d="M115.69,56.20L116.02,56.16L116.40,56.31L116.80,56.65L117.14,57.11L117.42,57.67L117.59,58.26L117.64,58.82L117.55,59.27L117.35,59.58L117.06,59.71"/><path d="M117.62,58.69L117.36,58.41L117.05,57.89L116.82,57.31L116.71,56.74L116.72,56.58"/><path d="M118.39,74.19L118.41,74.12L118.56,73.95L118.82,73.75L119.54,73.30L120.28,72.93L120.56,72.83L120.72,72.81L120.76,72.86"/><path d="M127.84,61.95L128.56,61.90L129.34,62.17L204.29,100.48L205.46,101.25L206.52,102.29L207.40,103.53L213.61,114.25L213.86,114.79L214.00,115.33L214.00,115.84L213.78,117.68"/><path d="M134.44,53.40L134.75,53.36L135.09,53.48L135.43,53.76L135.73,54.16L135.96,54.63L136.09,55.13L136.12,55.61L136.03,56.00L135.83,56.26"/><path d="M135.54,53.91L135.59,54.22L135.77,54.71L136.10,55.21"/><path d="M158.17,56.07L158.23,56.32L158.47,56.54L158.85,56.72L159.34,56.83L159.89,56.86L160.43,56.80L160.90,56.67L161.25,56.48L161.45,56.24L161.47,55.99"/><path d="M195.23,82.89L195.60,82.70L196.05,82.70L196.52,82.88L196.97,83.23L197.35,83.70L197.61,84.26L197.73,84.82L197.68,85.35L197.49,85.76L197.17,86.03"/><path d="M196.36,82.81L196.39,83.39L196.58,83.95L196.89,84.47L197.31,84.88L197.70,85.11"/><path d="M213.82,117.32L212.99,117.78L211.60,118.65L206.91,121.93L206.51,122.34L206.27,122.91L206.20,123.59L206.32,124.30L206.61,124.97L215.99,141.16L216.42,141.74L216.95,142.14L217.53,142.35L218.09,142.33L219.61,141.89L220.11,141.64L224.66,138.09L225.10,137.82L225.39,137.71L225.97,138.71L226.84,139.90L227.93,140.90L229.15,141.59L230.36,141.92L231.46,141.85L248.48,137.15L249.48,136.62L250.87,135.47L251.54,134.56L251.79,133.37L251.61,132.01L251.40,131.52"/><path d="M212.78,122.16L212.38,122.33L212.07,122.66L211.90,123.12L211.86,123.67L211.99,124.23L212.25,124.75L212.63,125.18L213.05,125.45L213.51,125.55L213.94,125.47"/><path d="M211.88,123.55L212.19,124.02L212.38,124.56L212.41,124.94"/><path d="M213.89,127.36L214.64,127.10L215.34,126.58L215.82,125.78L216.03,124.76L215.93,123.65L215.54,122.56L214.91,121.61L214.10,120.90L213.20,120.51L212.30,120.48L211.56,120.76L211.59,120.76"/><path d="M218.93,135.69L219.15,136.02L219.34,136.56L219.37,137.01L219.30,136.93L219.05,136.41L218.92,135.84L218.94,135.29L219.11,134.82L219.41,134.47L219.80,134.29"/><path d="M219.37,137.01L219.67,137.35L220.11,137.62L220.56,137.71L220.98,137.62"/><path d="M220.92,139.49L221.68,139.26L222.38,138.72L222.84,137.88L223.04,136.85L222.93,135.72L222.54,134.63L221.91,133.68L221.10,132.98L220.21,132.61L219.32,132.60L218.56,132.84"/><path d="M226.63,116.04L226.94,115.54L227.04,114.89L226.91,114.16L226.57,113.43L226.05,112.78L225.42,112.29L224.74,112.00L224.08,111.94L223.53,112.13"/><path d="M226.54,128.80L226.29,128.72L225.79,128.40L225.35,127.96L225.03,127.43L224.85,126.90L224.84,126.66"/><path d="M223.89,126.70L224.31,126.58L224.81,126.65L225.33,126.89L225.81,127.28L226.20,127.78L226.46,128.33L226.55,128.87L226.48,129.35L226.25,129.71"/><path d="M224.41,111.97L224.37,112.10L224.39,112.79L224.62,113.52L225.05,114.21L225.62,114.78L226.28,115.18L226.95,115.36"/><path d="M228.72,135.77L229.07,135.69L229.47,135.75L229.90,135.95L230.29,136.27L230.61,136.68L230.82,137.13L230.90,137.56L230.83,137.94L230.64,138.23"/><path d="M229.35,122.47L230.33,122.19L231.47,122.32L232.65,122.84L233.75,123.72L234.49,124.65L234.64,124.84L235.22,126.09L235.43,127.32L235.24,128.40L234.68,129.21"/><path d="M229.80,135.91L229.87,136.10L230.13,136.53L230.49,136.89L230.81,137.10"/><path d="M235.12,128.58L234.14,128.64L232.97,128.29L231.84,127.58L230.85,126.59L230.13,125.41L229.73,124.18L229.71,123.03L229.99,122.28"/><path d="M237.13,109.90L237.12,109.88L236.99,110.00L232.18,113.50L231.77,113.94L231.54,114.56L231.49,115.30L231.64,116.08L231.96,116.82L242.33,134.68L242.81,135.31L243.37,135.76L243.98,135.99L244.57,135.98L246.43,135.45L246.94,135.19L251.58,131.36L252.00,130.96L252.17,130.65L239.41,108.70L239.32,108.60L238.96,108.65L238.37,108.85L237.52,107.40L236.98,106.22L236.72,105.03L236.76,103.90L238.05,96.22"/><path d="M232.69,89.70L232.67,90.05L232.88,90.41L233.26,90.72L233.82,90.98L234.47,91.14L235.13,91.18L235.77,91.10L236.27,90.92L236.61,90.64L236.73,90.31"/><path d="M238.96,117.75L238.48,117.73L238.00,117.51L237.56,117.12L237.21,116.59L236.99,115.99L236.92,115.39L237.02,114.83L237.26,114.40L237.63,114.13"/><path d="M237.75,88.06L239.20,88.71"/><path d="M245.38,127.46L245.02,127.75L244.78,128.20L244.69,128.76L244.77,129.38L244.99,129.98L245.34,130.51L245.77,130.90L246.25,131.11L246.72,131.12"/></g></g><g><g/></g><g><g><path style="stroke:#ff0000;stroke-width:0.500;stroke-opacity:0.80;stroke-dasharray:0.6 0.6" d="M164.76,188.40L160.87,191.46"/><path style="stroke:#ff0000;stroke-width:0.500;stroke-opacity:0.80;stroke-dasharray:0.6 0.6" d="M175.25,180.12L166.99,186.64"/><path style="stroke:#ff0000;stroke-width:0.500;stroke-opacity:0.80;stroke-dasharray:0.6 0.6" d="M180.88,175.68L176.25,179.33"/><path style="stroke:#ff0000;stroke-width:0.500;stroke-opacity:0.80;stroke-dasharray:0.6 0.6" d="M190.77,167.87L182.40,174.48"/><path style="stroke:#ff0000;stroke-width:0.500;stroke-opacity:0.80;stroke-dasharray:0.6 0.6" d="M230.50,136.54L214.76,148.95"/><path style="stroke:#ff0000;stroke-width:0.500;stroke-opacity:0.80;stroke-dasharray:0.6 0.6" d="M250.04,121.12L247.70,122.97"/></g></g><g><g><path style="stroke:#ff0000;stroke-width:0.500;stroke-opacity:0.80;stroke-dasharray:0.6 0.6" d="M203.51,129.52L226.38,113.20"/></g></g><g><g><path style="stroke:#ff0000;stroke-width:0.500;stroke-opacity:0.80;stroke-dasharray:0.6 0.6" d="M178.95,186.14L173.74,190.36"/><path style="stroke:#ff0000;stroke-width:0.500;stroke-opacity:0.80;stroke-dasharray:0.6 0.6" d="M189.79,177.35L181.29,184.24"/><path style="stroke:#ff0000;stroke-width:0.500;stroke-opacity:0.80;stroke-dasharray:0.6 0.6" d="M195.59,172.65L190.86,176.48"/><path style="stroke:#ff0000;stroke-width:0.500;stroke-opacity:0.80;stroke-dasharray:0.6 0.6" d="M205.31,164.77L197.23,171.32"/><path style="stroke:#ff0000;stroke-width:0.500;stroke-opacity:0.80;stroke-dasharray:0.6 0.6" d="M242.36,134.72L217.97,154.50"/><path style="stroke:#ff0000;stroke-width:0.500;stroke-opacity:0.80;stroke-dasharray:0.6 0.6" d="M265.26,116.16L250.64,128.01"/></g></g><g><g/></g><g/><g id="paperID" visibility="hidden" opacity="0.00" transform="scale(0.000100)"><path style="stroke:#000000;stroke-width:0.500;fill:#e6e6e6;fill-rule:evenodd" d="M-2000.00,-2000.00L2297.00,-2000.00L2297.00,2210.00L-2000.00,2210.00zM0.00,0.00L297.00,0.00L297.00,210.00L0.00,210.00z"/><path style="fill:#000000;fill-opacity:0.118" d="M3.00,210.00L297.00,210.00L297.00,3.00L300.00,3.00L300.00,213.00L3.00,213.00z"/></g><g id="ToolTip" visibility="hidden" opacity="0" transform="translate(0,0)"><rect id="ToolTipShadow" opacity="0.20" fill="black" stroke="none" x="0" y="0" width="30" height="8"/><rect id="ToolTipBG" fill="#ffffe1" stroke="black" x="0" y="0" width="30" height="8"/><text xml:space="preserve" id="ToolTipText" fill="black" x="0" y="0" width="30" height="8">tooltip</text></g></g></svg>
