<?xml version="1.0" encoding="UTF-8" standalone="no"?>
<svg xmlns="http://www.w3.org/2000/svg" xmlns:xlink="http://www.w3.org/1999/xlink" width="297.000mm" height="210.000mm" viewBox="0.000000 0.000000 297.000000 210.000000" stroke-linejoin="round" stroke-linecap="round" fill="none" fill-rule="evenodd"><desc>3DVIA Composer Export</desc><script type="text/ecmascript"><![CDATA[
if(typeof(top) != "undefined")
{
	top.ShowPaper = ShowPaper;
}
function ShowHotSpot(evt,hotspotid)
{
	var svgDocument = evt.target.ownerDocument;
	var strId = "hotspot."+hotspotid;
	var hotspot = svgDocument.getElementById(strId);
	if(hotspot)
		hotspot.setAttribute("opacity",".5");
}
function HideHotSpot(evt,hotspotid)
{
	var svgDocument = evt.target.ownerDocument;
	var strId = "hotspot."+hotspotid;
	var hotspot = svgDocument.getElementById(strId);
	if(hotspot)
		hotspot.setAttribute("opacity","0");

	var toolTip = svgDocument.getElementById('ToolTip');
	if(toolTip)
		toolTip.setAttribute("visibility","hidden");
}
function ShowToolTip(evt,hotspotid,strTooltip)
{
	if(strTooltip=="")
	return;

	// change text
	var svgDocument = evt.target.ownerDocument;
	var tiptext = svgDocument.getElementById('ToolTipText');
	if( !tiptext )
	return;
	tiptext.firstChild.nodeValue = " " + strTooltip + "  " ;

	// show tooltip before, else some refresh issue

	var toolTip = svgDocument.getElementById('ToolTip');
	if(!toolTip)
	return;

	toolTip.setAttribute("visibility","visible");
	toolTip.setAttribute("opacity",".95");

	// move tooltip
	// get viewbox

	var root = svgDocument.documentElement;
	var vbox = (root.getAttribute("viewBox")).split(' ');
	var x0 = parseFloat(vbox[0]);
	var y0 = parseFloat(vbox[1]);
	var vboxW = parseFloat(vbox[2]);
	var vboxH = parseFloat(vbox[3]);

	// get default width of svg

	var strW = root.getAttribute("width");
	var svgW = parseFloat(strW);
	if(strW.indexOf('mm') != -1)
	svgW *= 3.779;

	var strH = root.getAttribute("height");
	var svgH = parseFloat(strH);
	if(strH.indexOf('mm') != -1)
	svgH *= 3.779;  	// 96 dpi  -> 96/25.4 = 3.779

	// update the viewbox / width / height if svg is embedded in html with zoom fit all
	var realx0 = x0;
	var realy0 = y0;
	var realvboxW = vboxW;
	var realvboxH = vboxH;
	var realsvgW = svgW;
	var realsvgH = svgH;

	if ((typeof(top) == "undefined") || (typeof(top.svgctl1) != "undefined")) // embedded in html
	{
		// get window size in pxl

		svgW = window.innerWidth;
		svgH = window.innerHeight;

		// calculate real viewbox

		realsvgW = svgW;
		realsvgH = svgH;
		if((svgW / svgH) > (vboxW / vboxH))
		{
			realvboxW = (vboxH * svgW) / svgH;
			realvboxH = vboxH;
			realx0 = x0 - (realvboxW - vboxW)/2 ;
		}
		else
		{
			realvboxH = (vboxW * svgH) / svgW;
			realvboxW = vboxW;
			realy0 = y0 - (realvboxH - vboxH)/2 ;
		}
	}

	// get user zoom/pan

	var newScale = root.currentScale;
	var translation = root.currentTranslate;

	// transform pxl to user unit

	var xPos = (((evt.clientX+10- translation.x)/newScale) * realvboxW)/realsvgW  + realx0 ;
	var yPos = (((evt.clientY+5- translation.y)/newScale) * realvboxH)/ realsvgH  + realy0 ;
	var scaleForWidth = ( (1 / newScale) * realvboxH) / realsvgH;

	// move tooltip

	toolTip.setAttribute("transform", "translate(" + xPos + "," + yPos + ")" );

	// resize tooltip

	var fontsize = 12;
	tiptext.setAttribute("font-size",fontsize*scaleForWidth);
	tiptext.setAttribute("y", fontsize*scaleForWidth);
	var tipBG = svgDocument.getElementById('ToolTipBG');
	var outline = tiptext.getBBox();
	if(tipBG)
	{
		tipBG.setAttribute("stroke-width", 1*scaleForWidth);
		tipBG.setAttribute("width", Number(outline.width) );
		tipBG.setAttribute("height", Number(outline.height) + fontsize*.5*scaleForWidth );
	}
	var ToolTipShadow = svgDocument.getElementById('ToolTipShadow');
	if(ToolTipShadow)
	{
		ToolTipShadow.setAttribute("width", Number(outline.width) );
		ToolTipShadow.setAttribute("height", Number(outline.height) + fontsize*.5*scaleForWidth );
		ToolTipShadow.setAttribute("x", 3*scaleForWidth);
		ToolTipShadow.setAttribute("y", 3*scaleForWidth);
	}
}
function ShowPaper()
{
  var svgDocument = getDocument();
  var paper = svgDocument.getElementById("paperID");
  if(paper)
  {
    paper.setAttribute("transform","scale(1)");
    paper.setAttribute("opacity","1");
    paper.setAttribute("visibility","visible");
  }
  var svg = svgDocument.getRootElement();
  if(svg)
  {
    svg.setAttribute("width","307.000mm");
    svg.setAttribute("height","220.000mm");
    svg.setAttribute("viewBox","-5.000000 -5.000000 307.000000 220.000000");
  }
}
]]></script><defs/><g><path style="fill:#dcdcdc;fill-rule:evenodd" d="M141.82,42.91L141.49,42.91L141.49,42.58L141.82,42.58zM151.03,51.87L148.95,52.13L149.03,51.11L149.68,50.77L151.03,50.77zM147.07,55.49L146.96,56.28L146.47,56.36L146.56,55.05L146.79,55.01zM145.03,57.37L144.75,57.37L144.75,56.20L145.03,56.20zM140.83,65.29L141.47,64.69L142.83,64.69L142.82,65.79L141.72,65.92L141.24,66.22L140.82,66.21zM145.81,71.01L144.71,71.14L144.22,71.44L143.73,71.51L143.73,70.41L144.71,69.91L145.81,69.91zM154.49,76.71L155.39,76.12L156.49,76.12L156.49,77.21L155.47,77.44L154.49,77.64zM206.01,79.74L205.59,80.38L205.10,80.44L205.09,79.88L205.63,79.56zM209.25,82.23L208.82,82.87L208.33,82.93L208.32,82.37L208.86,82.05zM67.02,84.91L66.69,84.91L66.69,84.58L67.02,84.58zM220.12,89.01L220.09,89.92L219.80,89.93L219.88,88.76zM221.86,90.25L221.83,91.16L221.54,91.17L221.62,90.00zM218.40,90.54L218.29,91.06L217.87,91.08L217.80,90.02L218.08,90.02zM188.78,90.54L188.80,91.63L186.71,91.78L185.81,92.39L185.81,91.12L186.71,90.53L188.33,90.30zM201.14,91.26L201.62,90.53L202.12,90.29L203.21,90.28L203.21,91.38L202.12,91.52L201.49,91.88zM219.92,91.44L220.03,92.31L219.54,92.40L219.55,91.25zM110.03,92.35L109.78,92.31L107.94,92.63L108.02,91.62L109.18,91.03L110.01,91.02zM76.95,91.89L77.60,91.28L78.96,91.28L78.96,92.38L77.60,92.53L77.22,92.87L76.93,92.57zM106.06,93.49L106.06,94.59L105.81,94.54L103.96,94.87L104.05,93.85L105.22,93.26L105.80,93.23zM127.90,94.60L126.08,95.11L126.17,94.10L127.07,93.51L127.91,93.51zM230.07,96.72L230.07,97.38L229.82,97.63L229.82,96.46zM228.32,98.23L227.81,98.85L227.82,97.47zM231.83,98.25L231.71,98.77L231.21,98.86L231.22,97.71L231.50,97.72zM229.64,98.85L229.82,99.86L229.59,100.10L229.27,99.77L229.27,99.04L229.55,98.75zM173.87,98.33L175.04,97.74L175.87,97.73L175.86,98.83L174.55,99.27L173.88,99.27zM114.00,101.33L111.92,101.58L112.00,100.56L112.40,100.22L114.00,100.23zM235.03,102.03L234.70,102.28L234.17,102.30L234.17,101.76L235.07,101.51zM199.98,101.82L198.64,101.96L197.99,102.33L197.99,101.06L198.64,100.72L199.98,100.72zM191.78,103.81L190.68,103.95L190.20,104.25L189.70,104.31L189.79,103.30L190.68,102.71L191.78,102.71zM238.26,104.51L237.93,104.77L237.40,104.79L237.40,104.24L238.30,104.00zM197.66,111.89L198.14,111.16L198.64,110.91L199.98,110.91L199.98,112.01L198.64,112.15L198.01,112.51zM217.88,113.50L215.55,113.90L214.89,114.51L214.89,113.24L216.04,112.40L217.88,112.40zM100.30,116.27L100.01,116.27L100.01,115.10L100.30,115.10zM102.08,116.59L102.04,117.50L101.75,117.51L101.83,116.35zM103.84,118.13L103.72,118.65L103.23,118.74L103.24,117.60L103.52,117.60zM105.36,119.03L105.46,119.89L104.97,119.98L104.98,118.83zM109.04,122.12L108.94,122.62L108.44,122.71L108.54,121.40L108.76,121.37zM134.87,121.95L133.28,122.09L131.88,122.96L131.89,121.70L132.55,121.11L133.29,120.86L134.87,120.85zM110.58,123.00L110.68,123.87L110.19,123.96L110.20,122.81zM166.17,124.69L166.82,124.08L168.17,124.08L168.17,125.19L166.83,125.35L166.16,125.35zM271.22,126.05L271.54,126.07L271.58,126.66L271.30,126.61zM273.28,127.64L273.80,127.57L273.80,128.16L273.28,128.09zM147.03,127.43L147.69,126.81L149.29,126.82L149.29,127.92L147.69,128.07L147.31,128.41L147.01,128.11zM253.65,130.39L254.55,129.80L255.65,129.80L255.65,130.90L254.55,131.04L254.07,131.33L253.65,131.32zM129.38,131.40L130.29,130.79L131.39,130.79L131.39,131.89L130.29,132.03L129.66,132.39L129.36,132.08zM114.17,131.82L113.64,131.89L113.65,131.29L114.25,131.28zM113.27,132.13L112.64,132.13L112.64,131.80L113.27,131.80zM117.40,134.30L116.87,134.38L116.88,133.78L117.48,133.77zM116.50,134.62L115.87,134.62L115.87,134.28L116.50,134.28zM247.72,135.73L247.68,136.64L247.40,136.63L247.12,135.71L247.46,135.50zM273.04,135.86L272.71,135.86L272.71,135.53L273.04,135.53zM249.47,137.26L249.43,137.87L249.14,137.88L248.89,137.54L248.93,136.83L249.18,136.77zM198.49,137.10L198.15,137.10L198.15,136.77L198.49,136.77zM250.93,139.14L250.69,139.38L250.69,138.05L250.93,138.00zM252.11,139.45L252.65,139.49L252.68,140.38L252.43,140.62zM254.25,140.61L254.42,141.61L254.18,141.86L253.80,140.70L254.15,140.50zM128.63,141.37L128.34,141.37L128.34,140.20L128.63,140.20zM130.41,141.69L130.37,142.61L130.08,142.61L130.16,141.45zM233.51,141.81L233.19,141.72L233.56,141.52zM126.93,142.00L126.84,142.50L126.42,142.52L126.43,141.28L126.66,141.25zM115.74,142.22L116.06,142.66L115.74,142.79L114.90,143.09L114.98,141.72zM231.73,142.45L232.02,142.50L232.07,142.79L231.78,142.74zM117.71,143.73L118.23,144.34L116.23,145.57L116.06,142.66zM255.87,143.11L255.59,143.11L255.67,141.78L255.90,141.73zM257.09,143.18L257.62,143.21L257.65,144.11L257.40,144.35zM128.47,142.89L128.57,143.75L128.08,143.84L128.09,142.69zM230.55,143.56L230.21,143.56L230.21,143.23L230.55,143.23zM160.63,144.20L161.62,142.98L162.36,142.73L163.95,142.72L163.95,143.82L161.62,144.22L160.98,144.82zM259.42,144.70L259.39,145.34L259.15,145.59L258.79,144.46L259.11,144.42zM224.03,146.68L224.32,146.73L224.36,147.01L224.08,146.96zM222.82,147.77L222.50,147.69L222.87,147.49zM138.84,148.77L138.35,149.06L138.36,147.74L138.58,147.71zM221.05,148.42L221.33,148.47L221.38,148.75L221.10,148.70zM136.89,149.45L136.86,150.04L136.36,149.98L136.28,148.92L136.57,148.91zM219.86,149.53L219.53,149.53L219.53,149.19L219.86,149.19zM140.35,150.07L140.10,150.32L140.02,149.15L140.31,149.16zM138.41,150.34L138.51,151.21L138.02,151.29L138.04,150.14zM247.94,152.76L247.61,152.76L247.61,152.43L247.94,152.43zM285.95,135.11L260.87,149.28L260.61,152.75L258.88,153.77L258.63,150.67L258.31,150.64L219.99,172.28L219.12,173.65L214.89,176.12L212.66,177.62L212.43,184.84L199.73,192.05L199.50,184.98L198.98,185.33L198.76,184.24L196.91,185.23L196.67,186.48L196.48,188.69L197.01,189.19L197.00,190.54L196.14,189.24L195.72,189.00L196.02,185.73L183.73,192.67L182.74,192.79L182.75,191.69L187.05,189.54L285.65,133.99L285.96,134.01zM143.32,153.76L142.72,153.76L142.71,153.45L143.36,153.19zM142.35,154.00L141.71,154.00L141.71,153.67L142.35,153.67zM244.96,154.50L244.63,154.50L244.63,154.16L244.96,154.16zM146.55,156.24L145.95,156.25L145.94,155.93L146.59,155.68zM145.04,156.22L145.56,156.15L145.56,156.74L145.04,156.67zM237.26,158.72L236.92,158.72L236.92,158.39L237.26,158.39zM234.27,160.46L233.94,160.46L233.94,160.13L234.27,160.13zM153.77,162.07L153.73,162.98L153.44,162.99L153.52,161.82zM152.02,163.59L151.52,164.22L151.53,162.83zM155.53,163.61L155.41,164.13L154.92,164.22L154.93,163.07L155.21,163.08zM147.34,166.10L147.31,166.41L145.68,167.34L145.23,167.45L145.05,164.83L144.74,164.80L144.06,165.21L144.06,163.58zM153.34,164.21L153.53,165.22L153.29,165.46L152.93,164.83L153.25,164.10zM157.05,164.51L157.15,165.37L156.66,165.46L156.67,164.31zM216.88,165.68L216.28,165.69L216.27,165.38L216.93,165.12zM155.26,166.47L155.04,166.69L154.72,166.39L154.76,165.39L154.99,165.35zM221.81,166.42L222.57,165.66L223.84,165.59L223.84,166.69L222.75,166.85L221.83,166.85zM212.89,167.93L212.57,167.95L212.65,167.39L212.93,167.34zM206.96,168.54L206.96,168.95L206.71,169.20L206.71,168.29zM151.77,169.52L151.77,171.45L151.53,171.69L151.53,169.28zM213.41,171.51L213.37,172.61L212.88,173.38L212.63,172.80L211.57,172.91L211.66,171.89L212.06,171.56L213.20,171.31zM204.65,171.28L204.93,171.33L204.98,171.61L204.70,171.57zM201.72,171.82L201.41,171.90L201.45,171.31zM181.80,170.88L182.48,170.30L183.83,170.31L183.83,171.41L182.73,171.55L182.25,171.84L181.83,171.83zM155.00,172.01L154.97,174.17L154.69,174.17L154.76,171.77zM208.94,167.87L209.18,167.83L209.18,172.65L208.94,172.60zM213.84,173.33L213.28,173.30L213.54,173.03L214.14,173.02zM196.25,174.90L195.92,174.90L195.92,174.27L196.25,174.27zM198.46,178.40L198.18,178.40L198.26,173.84L198.50,173.79zM187.75,183.21L188.03,183.26L188.08,183.54L187.80,183.49zM214.91,185.83L214.62,186.29L199.48,194.75L198.65,195.03L198.66,193.93L214.58,184.94L214.89,184.96z"/><g id="Actor_.0"><path style="fill:#ff0107;fill-rule:evenodd" d="M160.56,137.50L160.66,98.64L165.35,98.64L165.45,137.50L167.55,137.23L167.57,137.31L163.10,144.17L162.91,144.16L158.47,137.42L158.46,137.23z"/></g><g id="Actor_.1"><path style="fill:#ff0107;fill-rule:evenodd" d="M131.69,115.62L131.79,77.79L136.30,77.79L136.40,115.63L138.52,115.39L138.54,115.60L134.17,122.24L133.91,122.24L129.40,115.37z"/></g><g id="Actor_.2"><path style="fill:#ff0107;fill-rule:evenodd" d="M214.57,107.24L214.66,69.25L219.34,69.25L219.49,107.25L221.54,106.82L221.56,106.89L217.09,113.75L216.91,113.75L212.47,107.01L212.45,106.82z"/></g><g id="Actor_.3"><path style="fill:#ff0107;fill-rule:evenodd" d="M185.50,85.22L185.61,47.38L190.29,47.38L190.40,85.22L192.51,84.97L187.91,91.88L183.41,85.14L183.40,84.95z"/></g><g id="Actor_.4"/><g id="Actor_.5"/><g id="Actor_.6"/><g id="Actor_.7"/><g id="Actor_.8"><g style="stroke:#000000;stroke-width:0.353;stroke-opacity:0.27"><path d="M198.89,112.10L198.89,112.15"/><path d="M198.79,112.13L198.79,112.14"/></g><g style="stroke:#000000;stroke-width:0.705;stroke-opacity:0.27"><path d="M199.55,112.08L199.55,112.14"/></g></g><g id="Actor_.9"><g style="stroke:#000000;stroke-width:0.353"><path d="M146.51,155.43L146.47,155.53L146.39,155.63L146.27,155.70L146.11,155.74L145.95,155.74L145.79,155.71L145.65,155.65L145.56,155.56L145.51,155.46"/></g><g style="stroke:#000000;stroke-width:0.705"><path d="M145.51,156.09L145.51,155.46L145.51,155.35L145.57,155.25L145.68,155.17L145.82,155.12L145.98,155.09L146.14,155.10L146.29,155.15L146.41,155.23L146.48,155.32L146.51,155.43L146.51,156.06"/></g></g><g id="Actor_.10"><g style="stroke:#000000;stroke-width:0.353"><path d="M143.85,163.58L143.85,165.24"/><path d="M144.99,167.64L144.99,164.60"/></g><g style="stroke:#000000;stroke-width:0.705"><path d="M144.99,164.60L143.85,165.24L137.31,160.30L137.31,158.64"/><path d="M147.42,166.27L144.99,167.64L138.45,162.70L138.45,161.16"/></g></g><g id="Actor_.11"><g style="stroke:#000000;stroke-width:0.353"><path d="M143.23,152.96L143.20,153.06L143.12,153.16L142.99,153.23L142.84,153.27L142.68,153.27L142.52,153.24L142.38,153.18L142.29,153.09L142.24,152.99"/></g><g style="stroke:#000000;stroke-width:0.705"><path d="M143.23,153.59L143.23,152.96L143.21,152.85L143.14,152.76L143.02,152.68L142.87,152.64L142.71,152.62L142.55,152.65L142.41,152.70L142.30,152.78L142.24,152.89L142.24,152.99L142.24,154.17"/></g></g><g id="Actor_.12"><g style="stroke:#000000;stroke-width:0.353"><path d="M198.42,194.96L198.37,194.89L198.35,194.78L190.43,188.80"/><path d="M198.99,194.99L199.04,194.92L199.05,194.81L198.92,194.87L198.77,194.89L198.61,194.89L198.47,194.85L198.35,194.78L198.35,193.64L191.29,188.32"/><path d="M193.21,187.91L196.74,190.58L196.74,190.01"/><path d="M194.62,175.94L194.79,176.07"/><path d="M194.79,171.51L195.44,171.24L195.82,171.03"/><path d="M195.83,189.38L195.83,188.81"/><path d="M195.53,188.99L196.00,185.67"/><path d="M195.87,174.19L195.79,174.36L195.77,174.59L195.82,174.88L195.94,175.17L196.11,175.46L196.31,175.69L196.53,175.85L196.73,175.93L196.90,175.90"/><path d="M195.44,171.24L197.40,172.73L198.06,173.98L198.06,178.54L198.44,178.32"/><path d="M196.14,189.78L196.14,189.21"/><path d="M196.44,190.18L196.44,189.61"/><path d="M196.74,190.58L197.04,190.41L199.40,192.19L212.28,184.94"/><path d="M197.04,190.41L197.04,189.27"/><path d="M197.40,172.73L197.78,172.51"/><path d="M214.75,185.90L214.69,186.00L214.59,186.08L199.05,194.81L199.05,193.68L198.92,193.73L198.77,193.75L198.61,193.75L198.47,193.71L198.35,193.64"/><path d="M199.05,193.68L214.59,184.94L214.59,186.08L214.58,186.18L214.53,186.25"/><path d="M198.64,185.40L198.64,184.18"/><path d="M198.06,178.54L198.22,178.66L198.22,178.91"/><path d="M198.22,178.66L198.60,178.45"/><path d="M198.06,173.98L198.44,173.77"/><path d="M199.40,192.19L199.40,184.97"/><path d="M199.93,172.96L200.09,173.08"/><path d="M201.12,168.05L200.75,168.26L200.09,168.53"/><path d="M201.18,171.21L201.09,171.37L201.08,171.61L201.13,171.89L201.25,172.19L201.42,172.47L201.62,172.71L201.83,172.87L202.04,172.94L202.21,172.92"/><path d="M203.09,169.53L202.71,169.74L200.75,168.26"/><path d="M202.71,169.74L203.36,171.00L203.36,175.55L203.74,175.34"/><path d="M203.91,175.46L203.53,175.68L203.53,175.93"/><path d="M203.36,175.55L203.53,175.68"/><path d="M203.36,171.00L203.74,170.78"/><path d="M205.40,170.10L205.23,169.98"/><path d="M205.40,165.54L206.05,165.28L208.01,166.76L208.39,166.54"/><path d="M207.51,169.93L207.34,169.96L207.14,169.89L206.92,169.72L206.72,169.49L206.55,169.21L206.43,168.91L206.38,168.63L206.40,168.39L206.48,168.23"/><path d="M206.43,165.06L206.05,165.28"/><path d="M208.01,166.76L208.67,168.01L209.05,167.80"/><path d="M208.83,172.94L208.83,172.69L209.21,172.48"/><path d="M208.67,168.01L208.67,172.57L208.83,172.69"/><path d="M209.05,172.35L208.67,172.57"/><path d="M214.59,184.94L214.69,184.86L214.75,184.76L214.76,184.66"/></g><g style="stroke:#000000;stroke-width:0.705"><path d="M212.28,182.70L214.64,184.48L214.73,184.56L214.76,184.66L214.76,185.80L214.74,185.98L214.71,186.06L214.66,186.14L214.60,186.20L214.53,186.25L198.99,194.99L198.83,195.06L198.74,195.06L198.62,195.06L198.42,194.96L190.33,188.86"/><path d="M192.95,187.38L196.14,189.78L196.44,189.61"/><path d="M196.14,189.21L195.83,189.38L193.08,187.31"/><path d="M192.91,187.41L192.91,187.52L196.44,190.18L196.74,190.01"/><path d="M195.83,188.81L195.53,188.99L193.21,187.24"/><path d="M193.21,187.91L193.21,187.74"/><path d="M194.79,175.85L194.62,175.94L194.62,176.19"/><path d="M198.60,178.70L198.60,178.45L198.44,178.32L198.44,173.77L197.78,172.51L195.82,171.03L195.17,171.30L194.79,171.51L194.79,176.07"/><path d="M196.76,185.24L196.29,188.56L197.04,189.27"/><path d="M195.87,174.19L196.02,174.12L196.21,174.14L196.42,174.26L196.63,174.47L196.82,174.73L196.97,175.02L197.06,175.32L197.07,175.58L197.02,175.78L196.90,175.90"/><path d="M196.17,174.14L196.15,174.38L196.20,174.66L196.32,174.96L196.49,175.24L196.69,175.48L196.91,175.64L197.04,175.69"/><path d="M199.40,184.97L198.64,185.40L197.72,184.70"/><path d="M200.09,173.08L200.09,168.53L200.47,168.31L201.12,168.05L203.09,169.53L203.74,170.78L203.74,175.34L203.91,175.46L203.91,175.71"/><path d="M200.09,172.87L199.93,172.96L199.93,173.21"/><path d="M201.18,171.21L201.33,171.14L201.51,171.16L201.73,171.28L201.94,171.48L202.13,171.74L202.27,172.04L202.36,172.33L202.38,172.59L202.33,172.80L202.21,172.92"/><path d="M202.35,172.70L202.21,172.66L202.00,172.49L201.79,172.26L201.62,171.98L201.51,171.68L201.45,171.40L201.47,171.16"/><path d="M205.40,170.10L205.40,165.54L205.78,165.33L206.43,165.06L208.39,166.54L209.05,167.80L209.05,172.35L209.21,172.48L209.21,172.73"/><path d="M205.23,170.23L205.23,169.98L205.40,169.88"/><path d="M206.48,168.23L206.63,168.15L206.82,168.18L207.03,168.30L207.24,168.50L207.43,168.76L207.58,169.06L207.67,169.35L207.68,169.61L207.63,169.81L207.51,169.93"/><path d="M206.78,168.17L206.76,168.41L206.81,168.69L206.93,168.99L207.10,169.27L207.30,169.51L207.52,169.67L207.66,169.72"/><path d="M212.28,184.94L212.28,177.73L213.04,177.30L213.04,176.08"/></g></g><g id="Actor_.13"><g style="stroke:#000000;stroke-width:0.353"><path d="M114.16,131.01L114.12,131.11L114.04,131.21L113.92,131.28L113.76,131.32L113.60,131.32L113.44,131.29L113.30,131.23L113.21,131.14L113.16,131.04"/></g><g style="stroke:#000000;stroke-width:0.705"><path d="M114.16,131.64L114.16,131.01L114.13,130.90L114.06,130.80L113.94,130.73L113.79,130.68L113.63,130.67L113.47,130.69L113.33,130.75L113.22,130.83L113.16,130.93L113.16,131.04L113.16,132.22"/></g></g><g id="Actor_.14"><g style="stroke:#000000;stroke-width:0.353"><path d="M136.15,157.80L136.15,157.77"/><path d="M135.74,149.05L136.14,149.36L136.61,149.09"/><path d="M135.88,148.73L136.15,148.93L136.14,149.36L136.13,150.07L136.12,150.21"/><path d="M135.64,149.34L135.55,149.63L135.47,149.72"/><path d="M136.15,148.93L136.47,148.75"/><path d="M136.71,149.40L136.81,149.69L136.88,149.78"/><path d="M137.68,147.96L138.08,148.27L138.55,148.01"/><path d="M137.82,147.64L138.09,147.84L138.08,148.27L138.07,149.07"/><path d="M138.09,147.84L138.41,147.66"/><path d="M138.71,148.56L138.74,148.69"/></g><g style="stroke:#000000;stroke-width:0.705"><path d="M135.86,157.55L135.88,157.60L136.11,157.77L136.15,157.80L136.18,157.79"/><path d="M135.52,149.63L135.57,149.55L135.64,149.34L135.74,149.05L135.88,148.73L136.20,148.55L136.47,148.75L136.61,149.10L136.71,149.40L136.80,149.61"/><path d="M136.84,149.67L136.75,149.48"/><path d="M137.48,148.63L137.68,147.96L137.82,147.64L138.13,147.46L138.41,147.66L138.55,148.01L138.71,148.56L138.74,148.65"/></g></g><g id="Actor_.15"><g style="stroke:#000000;stroke-width:0.353"><path d="M116.43,133.51L116.48,133.61L116.58,133.70L116.71,133.76L116.87,133.79L117.03,133.78L117.19,133.74L117.31,133.67L117.39,133.58L117.43,133.48"/></g><g style="stroke:#000000;stroke-width:0.705"><path d="M117.43,134.11L117.43,133.48L117.40,133.37L117.33,133.27L117.21,133.20L117.06,133.15L116.90,133.14L116.74,133.16L116.60,133.22L116.49,133.30L116.44,133.40L116.43,133.51L116.43,134.14"/></g></g><g id="Actor_.16"><g style="stroke:#000000;stroke-width:0.353"><path d="M114.77,143.29L114.77,141.63"/><path d="M115.91,145.69L115.91,142.65"/></g><g style="stroke:#000000;stroke-width:0.705"><path d="M115.91,142.65L114.77,143.29L108.23,138.35L108.23,136.69"/><path d="M109.37,139.21L109.37,140.75L115.91,145.69L118.34,144.32"/></g></g><g id="Actor_.17"><g style="stroke:#000000;stroke-width:0.353"><path d="M246.83,135.61L246.97,135.72L247.16,136.24L247.16,136.87"/><path d="M247.16,136.24L247.62,135.99"/><path d="M246.97,135.72L247.43,135.47"/><path d="M248.82,138.13L248.82,137.50L249.28,137.24"/><path d="M248.49,136.87L248.63,136.98L249.09,136.72"/><path d="M248.63,136.98L248.82,137.50"/><path d="M250.15,138.12L250.30,138.23L250.75,137.97"/><path d="M250.94,138.50L250.48,138.75L250.48,139.38"/><path d="M250.48,138.75L250.30,138.23"/><path d="M251.81,139.37L251.96,139.48L252.15,140.01L252.15,140.64"/><path d="M252.15,140.01L252.60,139.75"/><path d="M251.96,139.48L252.41,139.23"/><path d="M254.26,141.01L253.81,141.26L253.81,141.89"/><path d="M253.81,141.26L253.62,140.74L254.07,140.48"/><path d="M253.62,140.74L253.47,140.63"/><path d="M255.92,142.26L255.47,142.52L255.47,143.15"/><path d="M255.47,142.52L255.28,141.99L255.13,141.88"/><path d="M255.28,141.99L255.73,141.74"/><path d="M257.59,143.51L257.13,143.77L257.13,144.40"/><path d="M257.13,143.77L256.94,143.25L257.40,142.99"/><path d="M256.94,143.25L256.80,143.14"/><path d="M258.63,153.84L258.63,150.44"/><path d="M258.79,145.65L258.79,145.02L258.60,144.50L258.46,144.39"/><path d="M258.60,144.50L259.06,144.25"/><path d="M258.79,145.02L259.25,144.77"/></g><g style="stroke:#000000;stroke-width:0.705"><path d="M247.62,136.62L247.62,135.99L247.43,135.47L247.28,135.36L246.83,135.61L246.64,135.85L246.64,136.48"/><path d="M249.28,137.87L249.28,137.24L249.09,136.72L248.94,136.61L248.49,136.87L248.30,137.10L248.30,137.73"/><path d="M249.96,138.99L249.96,138.36L250.15,138.12L250.60,137.86L250.75,137.97L250.94,138.50L250.94,139.13"/><path d="M251.62,140.24L251.62,139.61L251.81,139.37L252.27,139.12L252.41,139.23L252.60,139.75L252.60,140.38"/><path d="M254.26,141.64L254.26,141.01L254.07,140.48L253.93,140.37L253.47,140.63L253.28,140.87L253.28,141.50"/><path d="M255.92,142.89L255.92,142.26L255.73,141.74L255.59,141.63L255.13,141.88L254.95,142.12L254.95,142.75"/><path d="M260.55,149.36L260.55,152.76L259.74,153.21L258.63,153.84L256.05,151.90"/><path d="M256.61,144.00L256.61,143.38L256.80,143.14L257.25,142.88L257.40,142.99L257.59,143.51L257.59,144.14"/><path d="M259.25,145.40L259.25,144.77L259.06,144.25L258.91,144.14L258.46,144.39L258.27,144.63L258.27,145.26"/></g></g><g id="Actor_.18"><g style="stroke:#000000;stroke-width:0.353"><path d="M143.95,56.78L143.97,56.74L144.03,56.56L144.04,56.29L144.03,56.32"/><path d="M143.97,56.74L143.93,56.85L143.89,56.93"/><path d="M145.01,56.83L145.00,56.80L144.92,56.55L144.92,56.34L144.62,56.54L144.46,56.60L144.45,56.64L144.44,56.60L144.33,56.50L144.04,56.29L144.17,56.42L144.44,56.60L144.41,56.79L144.44,57.23L144.43,57.55"/><path d="M144.43,57.10L144.44,57.15L144.46,57.10L144.49,56.85L144.46,56.60L144.80,56.39L144.92,56.34L144.93,56.37"/><path d="M144.47,56.95L144.44,56.97L144.45,56.64L144.45,56.54L144.03,56.23"/><path d="M144.46,57.10L144.44,57.23L144.44,56.97L144.42,56.90"/><path d="M144.93,56.27L144.45,56.54L144.46,56.25L144.72,56.11"/><path d="M144.46,56.25L144.24,56.09"/><path d="M145.00,56.80L145.03,56.90L145.04,56.94L145.16,57.14"/><path d="M144.95,56.63L144.99,56.67"/><path d="M146.86,55.24L146.37,55.51L145.95,55.19"/><path d="M146.36,56.44L146.37,55.53L146.86,55.26"/><path d="M145.95,55.21L146.37,55.53L146.37,55.46L146.39,55.17L146.17,55.00"/><path d="M146.86,55.19L146.37,55.46L145.95,55.14"/><path d="M146.65,55.03L146.39,55.17"/><path d="M147.01,55.87L147.05,56.05"/></g><g style="stroke:#000000;stroke-width:0.705"><path d="M145.06,56.91L145.06,56.91L145.00,56.75L144.93,56.37L144.93,56.27L144.72,56.11L144.50,55.94L144.24,56.09L144.03,56.23L144.03,56.32L143.93,56.85L143.93,56.85"/><path d="M143.95,56.78L143.92,56.86L143.87,56.96"/><path d="M143.80,57.07L143.89,56.93"/><path d="M145.13,57.05L145.03,56.84"/><path d="M145.03,56.90L145.03,56.90L145.00,56.75"/><path d="M145.76,55.99L145.95,55.21L145.95,55.19L145.95,55.14L146.17,55.00L146.42,54.86L146.65,55.03L146.86,55.19L146.86,55.24L146.86,55.26L147.01,55.87L147.04,56.01"/></g></g><g id="Actor_.19"><g style="stroke:#000000;stroke-width:0.353"><path d="M127.43,142.78L127.84,143.09L128.31,142.82"/><path d="M127.33,143.07L127.24,143.36L127.16,143.44"/><path d="M128.16,142.48L127.85,142.66L127.57,142.45"/><path d="M127.85,151.53L127.84,151.50"/><path d="M127.82,143.94L127.82,143.80L127.84,143.09L127.85,142.66"/><path d="M128.40,143.12L128.50,143.42L128.57,143.51"/><path d="M129.37,141.69L129.77,142.00L129.76,142.80"/><path d="M130.24,141.73L129.77,142.00L129.78,141.57L129.51,141.36"/><path d="M129.78,141.57L130.10,141.39"/><path d="M130.40,142.29L130.43,142.42"/></g><g style="stroke:#000000;stroke-width:0.705"><path d="M127.55,151.27L127.57,151.32L127.63,151.37L127.85,151.53L127.87,151.52"/><path d="M128.49,143.34L128.40,143.12L128.31,142.82L128.16,142.48L127.89,142.27L127.57,142.45L127.43,142.78L127.33,143.07L127.26,143.28L127.22,143.36"/><path d="M128.53,143.40L128.44,143.21"/><path d="M129.17,142.36L129.37,141.69L129.51,141.36L129.83,141.19L130.10,141.39L130.24,141.73L130.40,142.29L130.43,142.38"/></g></g><g id="Actor_.20"><g style="stroke:#000000;stroke-width:0.353"><path d="M198.12,136.45L198.12,136.50L198.15,136.55L198.21,136.59L198.28,136.62L198.36,136.63L198.44,136.62L198.51,136.60L198.57,136.56L198.61,136.51L198.62,136.46"/><path d="M200.04,135.37L200.05,135.42L200.08,135.47L200.13,135.51L200.13,135.51L200.20,135.54L200.28,135.55L200.37,135.54L200.44,135.52L200.50,135.48L200.53,135.43L200.54,135.38"/></g><g style="stroke:#000000;stroke-width:0.705"><path d="M198.62,136.71L198.62,136.46L198.60,136.41L198.56,136.36L198.49,136.33L198.42,136.31L198.33,136.30L198.25,136.32L198.19,136.35L198.14,136.40L198.12,136.45L198.12,137.11"/><path d="M200.54,135.63L200.54,135.38L200.52,135.32L200.48,135.28L200.42,135.24L200.34,135.22L200.26,135.22L200.18,135.24L200.11,135.27L200.07,135.31L200.04,135.37L200.04,136.03"/></g></g><g id="Actor_.21"><g style="stroke:#000000;stroke-width:0.353"><path d="M228.64,99.22L228.55,99.50L228.47,99.59"/><path d="M228.74,98.93L229.15,99.23L229.62,98.97"/><path d="M229.71,99.27L229.81,99.56L229.88,99.66"/><path d="M229.47,98.63L229.16,98.81L229.15,99.23L229.13,99.94L229.13,100.08"/><path d="M229.16,98.81L228.88,98.60"/><path d="M231.55,97.88L231.08,98.15L230.68,97.84"/><path d="M230.82,97.51L231.09,97.72L231.41,97.54"/><path d="M231.09,97.72L231.08,98.15L231.07,98.95"/><path d="M231.71,98.43L231.74,98.56"/></g><g style="stroke:#000000;stroke-width:0.705"><path d="M229.80,99.48L229.71,99.27L229.62,98.97L229.47,98.63L229.20,98.42L228.88,98.60L228.74,98.93L228.64,99.22L228.57,99.42L228.53,99.51"/><path d="M229.75,99.35L229.77,99.41L229.84,99.55"/><path d="M230.48,98.50L230.68,97.84L230.82,97.51L231.14,97.33L231.41,97.54L231.55,97.88L231.71,98.44L231.74,98.53"/></g></g><g id="Actor_.22"><g style="stroke:#000000;stroke-width:0.353"><path d="M154.98,173.80L154.51,174.07L154.11,173.76"/><path d="M154.98,165.60L154.51,165.86L154.11,165.56"/><path d="M154.01,165.85L153.92,166.13L153.84,166.22"/><path d="M154.84,165.26L154.52,165.44L154.25,165.23"/><path d="M154.51,171.63L154.51,174.07L154.52,174.31"/><path d="M154.52,165.44L154.51,165.86L154.50,166.57L154.49,166.71"/><path d="M155.08,165.90L155.18,166.19L155.25,166.29"/><path d="M156.46,173.22L156.46,173.10"/><path d="M156.04,164.47L156.45,164.78L156.44,165.58"/><path d="M156.92,164.51L156.45,164.78L156.46,164.35L156.19,164.14"/><path d="M156.46,164.35L156.78,164.17"/><path d="M157.08,165.07L157.11,165.20"/></g><g style="stroke:#000000;stroke-width:0.705"><path d="M154.11,171.33L154.11,173.76L154.25,174.10L154.52,174.31L154.84,174.13L154.98,173.80L154.98,171.99"/><path d="M155.17,166.11L155.08,165.90L154.98,165.60L154.84,165.26L154.57,165.05L154.25,165.23L154.11,165.56L154.01,165.85L153.94,166.05L153.89,166.14"/><path d="M155.12,165.98L155.21,166.18"/><path d="M156.55,173.17L156.46,173.22L156.19,173.01L156.12,172.84"/><path d="M157.11,165.16L157.08,165.07L156.92,164.51L156.78,164.17L156.50,163.96L156.19,164.14L156.04,164.47L155.85,165.13"/></g></g><g id="Actor_.23"><g style="stroke:#000000;stroke-width:0.353"><path d="M237.91,103.87L237.91,103.98L237.85,104.08L237.74,104.16L237.60,104.21L237.44,104.24L237.28,104.22L237.13,104.18L237.01,104.10L236.94,104.01L236.92,103.90"/></g><g style="stroke:#000000;stroke-width:0.705"><path d="M236.92,104.53L236.92,103.90L236.95,103.80L237.03,103.70L237.16,103.63L237.31,103.59L237.47,103.59L237.63,103.62L237.77,103.68L237.87,103.77L237.91,103.87L237.91,104.56"/></g></g><g id="Actor_.24"><g style="stroke:#000000;stroke-width:0.353"><path d="M234.64,101.40L234.64,101.51L234.58,101.61L234.47,101.69L234.33,101.74L234.17,101.77L234.01,101.76L233.86,101.71L233.74,101.63L233.67,101.54L233.65,101.43"/></g><g style="stroke:#000000;stroke-width:0.705"><path d="M234.64,102.03L234.64,101.40L234.59,101.30L234.50,101.21L234.36,101.15L234.20,101.12L234.04,101.12L233.89,101.16L233.76,101.23L233.68,101.33L233.65,101.43L233.65,102.06"/></g></g><g id="Actor_.25"><g style="stroke:#000000;stroke-width:0.353"><path d="M102.67,117.73L103.07,118.04L103.06,118.84"/><path d="M102.81,117.41L103.08,117.61L103.07,118.04L103.54,117.78"/><path d="M103.08,117.61L103.40,117.44"/><path d="M104.24,119.29L104.15,119.57L104.07,119.66"/><path d="M103.70,118.33L103.73,118.46"/><path d="M104.72,120.15L104.73,120.01L104.74,119.30L104.34,119.00"/><path d="M105.31,119.34L105.41,119.63L105.48,119.73"/><path d="M105.07,118.70L104.75,118.88L104.74,119.30L105.21,119.04"/><path d="M104.75,118.88L104.48,118.67"/></g><g style="stroke:#000000;stroke-width:0.705"><path d="M103.73,118.42L103.70,118.33L103.54,117.78L103.40,117.44L103.13,117.23L102.81,117.41L102.67,117.73L102.48,118.40"/><path d="M105.40,119.55L105.31,119.34L105.21,119.04L105.07,118.70L104.80,118.49L104.48,118.67L104.34,119.00L104.24,119.29L104.17,119.49L104.12,119.58"/><path d="M105.44,119.61L105.37,119.47L105.35,119.42"/></g></g><g id="Actor_.26"><g style="stroke:#000000;stroke-width:0.353"><path d="M99.34,115.23L99.75,115.53L99.74,116.33"/><path d="M99.49,114.90L99.76,115.11L99.75,115.53L100.22,115.27"/><path d="M99.76,115.11L100.08,114.93"/><path d="M101.02,116.49L101.42,116.79L101.89,116.53"/><path d="M100.92,116.78L100.82,117.06L100.75,117.15"/><path d="M100.37,115.82L100.41,115.95"/><path d="M101.75,116.19L101.43,116.37L101.42,116.79L101.41,117.50L101.40,117.64"/><path d="M101.99,116.83L102.08,117.12L102.16,117.22"/><path d="M101.43,116.37L101.16,116.16"/></g><g style="stroke:#000000;stroke-width:0.705"><path d="M100.40,115.91L100.37,115.82L100.22,115.27L100.08,114.93L99.80,114.72L99.49,114.90L99.34,115.23L99.15,115.89"/><path d="M100.80,117.07L100.85,116.98L100.92,116.78L101.02,116.49L101.16,116.16L101.47,115.98L101.75,116.19L101.89,116.53L101.99,116.83L102.08,117.04"/><path d="M102.12,117.11L102.05,116.96L102.02,116.91"/></g></g><g id="Actor_.27"><g style="stroke:#000000;stroke-width:0.353"><path d="M208.84,81.92L208.83,82.02L208.80,82.08L208.77,82.12L208.67,82.21L208.53,82.26L208.36,82.29L208.20,82.27L208.05,82.23L207.93,82.15L207.86,82.06L207.84,81.95"/></g><g style="stroke:#000000;stroke-width:0.705"><path d="M208.84,82.61L208.84,81.92L208.79,81.81L208.69,81.73L208.55,81.66L208.40,81.64L208.23,81.64L208.08,81.68L207.95,81.75L207.87,81.84L207.84,81.95L207.84,82.58"/></g></g><g id="Actor_.28"><g style="stroke:#000000;stroke-width:0.353"><path d="M205.56,79.45L205.56,79.55L205.50,79.65L205.45,79.69L205.40,79.74L205.25,79.79L205.09,79.82L204.93,79.80L204.78,79.76L204.66,79.68L204.59,79.59L204.57,79.48"/></g><g style="stroke:#000000;stroke-width:0.705"><path d="M205.56,80.08L205.56,79.45L205.52,79.34L205.42,79.26L205.28,79.20L205.13,79.17L204.96,79.17L204.81,79.21L204.68,79.28L204.60,79.37L204.57,79.48L204.57,80.11"/></g></g><g id="Actor_.29"><g style="stroke:#000000;stroke-width:0.353"><path d="M226.98,97.96L226.89,98.25L226.81,98.34"/><path d="M227.08,97.67L227.48,97.98L227.47,98.69L227.46,98.83"/><path d="M227.81,97.37L227.49,97.55L227.48,97.98L227.95,97.72"/><path d="M227.49,97.55L227.22,97.35"/><path d="M228.05,98.02L228.15,98.31L228.22,98.40"/><path d="M229.02,96.58L229.42,96.89L229.41,97.69"/><path d="M229.89,96.63L229.42,96.89L229.43,96.46L229.16,96.26"/><path d="M229.43,96.46L229.75,96.29"/><path d="M230.05,97.18L230.08,97.31"/></g><g style="stroke:#000000;stroke-width:0.705"><path d="M228.14,98.23L228.05,98.02L227.95,97.72L227.81,97.37L227.54,97.17L227.22,97.35L227.08,97.67L226.98,97.96L226.91,98.17L226.86,98.25"/><path d="M228.18,98.29L228.11,98.15L228.09,98.10"/><path d="M230.08,97.27L230.05,97.18L229.89,96.63L229.75,96.29L229.47,96.08L229.16,96.26L229.02,96.58L228.82,97.25"/></g></g><g id="Actor_.30"><g style="stroke:#000000;stroke-width:0.353"><path d="M107.90,121.69L108.31,121.99L108.29,122.79"/><path d="M108.04,121.36L108.32,121.57L108.31,121.99L108.78,121.73"/><path d="M108.32,121.57L108.64,121.39"/><path d="M109.57,122.95L109.98,123.25L110.45,122.99"/><path d="M109.48,123.24L109.38,123.52L109.30,123.61"/><path d="M108.93,122.28L108.97,122.41"/><path d="M110.31,122.65L109.99,122.83L109.98,123.25L109.96,123.96L109.96,124.10"/><path d="M110.55,123.29L110.64,123.58L110.72,123.68"/><path d="M109.99,122.83L109.71,122.62"/></g><g style="stroke:#000000;stroke-width:0.705"><path d="M108.96,122.37L108.93,122.28L108.78,121.73L108.64,121.39L108.36,121.18L108.04,121.36L107.90,121.69L107.71,122.35"/><path d="M109.36,123.53L109.40,123.44L109.48,123.24L109.57,122.95L109.71,122.62L110.03,122.44L110.31,122.65L110.45,122.99L110.55,123.29L110.63,123.50"/><path d="M110.67,123.57L110.61,123.43L110.58,123.37"/></g></g><g id="Actor_.31"><g style="stroke:#000000;stroke-width:0.353"><path d="M152.18,164.97L152.25,164.88L152.35,164.59"/><path d="M153.32,172.55L152.85,172.81L152.45,172.51"/><path d="M152.85,170.38L152.85,172.81L152.86,173.05"/><path d="M152.45,164.30L152.85,164.61L152.84,165.32L152.83,165.46"/><path d="M153.18,164.00L152.86,164.18L152.85,164.61L153.32,164.35"/><path d="M152.86,164.18L152.59,163.98"/><path d="M153.42,164.65L153.51,164.94L153.59,165.03"/><path d="M154.38,163.21L154.79,163.52L154.77,164.32"/><path d="M154.52,162.89L154.80,163.09L154.79,163.52L155.26,163.26"/><path d="M155.41,163.81L155.45,163.94"/><path d="M155.12,162.92L154.80,163.09"/></g><g style="stroke:#000000;stroke-width:0.705"><path d="M153.32,170.73L153.32,172.55L153.18,172.87L152.86,173.05L152.59,172.85L152.45,172.51L152.45,170.07"/><path d="M153.51,164.86L153.42,164.65L153.32,164.35L153.18,164.00L152.91,163.80L152.59,163.98L152.45,164.30L152.35,164.59L152.28,164.80L152.23,164.88"/><path d="M153.45,164.73L153.55,164.92"/><path d="M154.19,163.88L154.38,163.21L154.52,162.89L154.84,162.71L155.12,162.92L155.26,163.26L155.41,163.81L155.44,163.90"/></g></g><g id="Actor_.32"><g style="stroke:#000000;stroke-width:0.353"><path d="M125.67,141.82L125.58,142.10L125.50,142.19"/><path d="M126.18,150.28L126.18,150.24"/><path d="M125.77,141.53L126.17,141.83L126.64,141.57"/><path d="M126.50,141.23L126.18,141.41L126.17,141.83L126.16,142.54L126.15,142.68"/><path d="M126.18,141.41L125.91,141.20"/><path d="M126.74,141.87L126.84,142.16L126.91,142.26"/><path d="M127.71,140.44L128.11,140.74L128.58,140.48"/><path d="M128.74,141.03L128.77,141.16"/><path d="M127.85,140.11L128.12,140.32L128.11,140.74L128.10,141.54"/><path d="M128.12,140.32L128.44,140.14"/></g><g style="stroke:#000000;stroke-width:0.705"><path d="M126.83,142.08L126.74,141.87L126.64,141.57L126.50,141.23L126.23,141.02L125.91,141.20L125.77,141.53L125.67,141.82L125.60,142.02L125.55,142.11"/><path d="M126.21,150.26L126.18,150.28L125.91,150.07L125.89,150.02"/><path d="M126.87,142.15L126.78,141.95"/><path d="M128.77,141.13L128.74,141.03L128.58,140.48L128.44,140.14L128.16,139.93L127.85,140.11L127.71,140.44L127.51,141.10"/></g></g><g id="Actor_.33"><g style="stroke:#000000;stroke-width:0.353"><path d="M137.30,150.60L137.21,150.88L137.13,150.97"/><path d="M137.79,151.46L137.79,151.32L137.81,150.61L137.40,150.31"/><path d="M138.13,150.01L137.82,150.19L137.81,150.61L138.28,150.35"/><path d="M138.37,150.65L138.47,150.94L138.54,151.04"/><path d="M137.82,150.19L137.54,149.98"/><path d="M139.34,149.22L139.74,149.52L140.21,149.26"/><path d="M139.48,148.89L139.75,149.10L139.74,149.52L139.73,150.32"/><path d="M140.37,149.81L140.40,149.94"/><path d="M139.75,149.10L140.07,148.92"/></g><g style="stroke:#000000;stroke-width:0.705"><path d="M138.46,150.86L138.37,150.65L138.28,150.35L138.13,150.01L137.86,149.80L137.54,149.98L137.40,150.31L137.30,150.60L137.23,150.80L137.19,150.89"/><path d="M138.41,150.73L138.43,150.79L138.50,150.93"/><path d="M139.14,149.88L139.34,149.22L139.48,148.89L139.80,148.71L140.07,148.92L140.21,149.26L140.37,149.81L140.40,149.91"/></g></g><g id="Actor_.34"><g style="stroke:#000000;stroke-width:0.353"><path d="M217.11,90.39L217.02,90.67L216.94,90.76"/><path d="M217.21,90.10L217.61,90.40L217.60,91.11L217.59,91.25"/><path d="M217.94,89.80L217.62,89.98L217.61,90.40L218.08,90.14"/><path d="M218.18,90.44L218.28,90.73L218.35,90.82"/><path d="M217.62,89.98L217.35,89.77"/><path d="M219.14,89.01L219.55,89.31L220.02,89.05"/><path d="M219.29,88.68L219.56,88.89L219.88,88.71"/><path d="M220.18,89.60L220.21,89.73"/><path d="M219.56,88.89L219.55,89.31L219.54,90.11"/></g><g style="stroke:#000000;stroke-width:0.705"><path d="M218.27,90.65L218.18,90.44L218.08,90.14L217.94,89.80L217.67,89.59L217.35,89.77L217.21,90.10L217.11,90.39L217.04,90.59L216.99,90.68"/><path d="M218.22,90.52L218.24,90.57L218.31,90.71"/><path d="M220.20,89.70L220.18,89.60L220.02,89.05L219.88,88.71L219.60,88.50L219.29,88.68L219.14,89.01L218.95,89.67"/></g></g><g id="Actor_.35"><g style="stroke:#000000;stroke-width:0.353"><path d="M218.77,91.64L218.68,91.92L218.60,92.01"/><path d="M218.87,91.35L219.27,91.66L219.26,92.37L219.26,92.51"/><path d="M219.74,91.39L219.27,91.66L219.29,91.23L219.01,91.02"/><path d="M219.29,91.23L219.60,91.05"/><path d="M219.84,91.69L219.94,91.99L220.01,92.08"/><path d="M220.81,90.26L221.21,90.57L221.20,91.37"/><path d="M220.95,89.93L221.22,90.14L221.21,90.57L221.68,90.30"/><path d="M221.22,90.14L221.54,89.96"/><path d="M221.84,90.86L221.87,90.99"/></g><g style="stroke:#000000;stroke-width:0.705"><path d="M219.93,91.91L219.84,91.69L219.74,91.39L219.60,91.05L219.33,90.84L219.01,91.02L218.87,91.35L218.77,91.64L218.70,91.85L218.65,91.93"/><path d="M219.97,91.97L219.90,91.83L219.88,91.77"/><path d="M220.61,90.93L220.81,90.26L220.95,89.93L221.27,89.75L221.54,89.96L221.68,90.30L221.84,90.86L221.87,90.95"/></g></g><g id="Actor_.36"><g style="stroke:#000000;stroke-width:0.353"><path d="M212.97,167.04L212.95,167.15L212.88,167.24L212.77,167.32L212.62,167.37L212.46,167.38L212.29,167.36L212.15,167.31L212.04,167.23L211.98,167.13L211.98,167.02"/></g><g style="stroke:#000000;stroke-width:0.705"><path d="M212.97,167.67L212.97,167.04L212.94,166.94L212.85,166.84L212.72,166.78L212.57,166.74L212.41,166.73L212.25,166.77L212.12,166.83L212.02,166.92L211.98,167.02L211.98,167.89"/></g></g><g id="Actor_.37"><g style="stroke:#000000;stroke-width:0.353"><path d="M216.76,164.91L216.74,165.02L216.67,165.11L216.56,165.19L216.41,165.24L216.25,165.25L216.08,165.23L216.08,165.23L215.94,165.18L215.83,165.09L215.77,165.00L215.76,164.89"/></g><g style="stroke:#000000;stroke-width:0.705"><path d="M216.76,165.54L216.76,164.91L216.73,164.80L216.64,164.71L216.51,164.64L216.36,164.61L216.20,164.60L216.04,164.63L215.90,164.70L215.81,164.78L215.76,164.89L215.76,165.66"/></g></g><g id="Actor_.38"><g style="stroke:#000000;stroke-width:0.353"><path d="M212.54,172.64L212.54,173.40"/><path d="M213.89,172.86L212.92,173.41"/></g><g style="stroke:#000000;stroke-width:0.705"><path d="M219.82,172.27L218.81,173.85L213.04,177.09"/><path d="M213.55,172.71L212.92,173.07"/><path d="M212.92,172.62L212.92,173.43"/></g></g><g id="Actor_.39"><g style="stroke:#000000;stroke-width:0.353"><path d="M151.66,171.29L151.19,171.56L150.79,171.25"/><path d="M150.79,163.05L151.19,163.36L151.66,163.09"/><path d="M150.69,163.34L150.59,163.62L150.52,163.71"/><path d="M151.52,162.75L151.20,162.93L150.93,162.72"/><path d="M151.20,171.80L151.19,171.56L151.19,169.12"/><path d="M151.17,164.21L151.18,164.07L151.19,163.36L151.20,162.93"/><path d="M151.76,163.39L151.85,163.68L151.93,163.78"/><path d="M152.72,161.96L153.13,162.27L153.60,162.00"/><path d="M153.11,163.07L153.13,162.27L153.14,161.84L152.86,161.63"/><path d="M153.14,161.84L153.46,161.66"/><path d="M153.75,162.56L153.79,162.69"/></g><g style="stroke:#000000;stroke-width:0.705"><path d="M150.79,168.82L150.79,171.25L150.93,171.59L151.20,171.80L151.52,171.62L151.66,171.29L151.66,169.48"/><path d="M151.85,163.61L151.76,163.39L151.66,163.09L151.52,162.75L151.24,162.54L150.93,162.72L150.79,163.05L150.69,163.34L150.62,163.55L150.57,163.63"/><path d="M151.88,163.67L151.79,163.47"/><path d="M152.53,162.63L152.72,161.96L152.86,161.63L153.18,161.45L153.46,161.66L153.60,162.00L153.75,162.56L153.78,162.65"/></g></g><g id="Actor_.40"><g style="stroke:#000000;stroke-width:0.353"><path d="M55.26,89.20L55.30,89.27L55.30,90.53"/><path d="M55.30,89.27L88.04,113.98L88.04,115.25"/><path d="M66.40,84.79L66.49,84.64L66.70,84.56L66.94,84.58L67.06,84.64L67.16,84.77"/><path d="M76.76,92.18L76.86,91.83L77.15,91.51L77.57,91.27L78.09,91.14L78.65,91.12L79.19,91.22L79.65,91.43L79.98,91.72L80.14,92.07"/><path d="M102.28,132.20L102.28,130.93L88.04,113.98"/><path d="M182.51,192.77L182.51,191.50L102.28,130.93"/><path d="M103.71,94.38L103.82,94.01L104.11,93.69L104.32,93.57L104.55,93.44L105.08,93.30L105.66,93.28L106.21,93.39L106.69,93.60L107.03,93.91L107.20,94.27"/><path d="M108.04,92.76L108.04,91.49L107.86,91.68L107.86,92.70"/><path d="M107.73,92.49L107.73,91.89L107.67,92.11"/><path d="M108.28,92.60L108.28,91.33L108.56,91.20L108.56,92.47"/><path d="M107.73,91.89L107.86,91.68"/><path d="M108.28,91.33L108.04,91.49"/><path d="M108.56,91.20L108.88,91.11L108.88,92.38"/><path d="M109.27,92.32L109.27,91.05L109.65,91.05L109.62,92.31"/><path d="M108.88,91.11L109.27,91.05"/><path d="M110.28,92.43L110.28,91.16L110.57,91.28L110.57,92.55"/><path d="M109.96,92.35L109.96,91.08L110.28,91.16"/><path d="M110.57,91.28L111.02,91.62L111.02,92.75"/><path d="M109.96,91.08L109.65,91.05"/><path d="M115.08,101.03L114.91,100.67L114.57,100.37L114.10,100.15L113.54,100.05L112.97,100.07L112.46,100.20L112.00,100.45L111.70,100.78L111.59,101.15"/><path d="M111.24,92.30L111.24,92.05L111.16,91.83L111.16,92.54"/><path d="M111.24,92.05L111.24,92.27"/><path d="M110.82,92.71L110.82,91.44"/><path d="M111.16,91.83L111.02,91.62"/><path d="M113.16,131.61L112.90,131.60L112.74,131.64L112.53,131.80L112.50,131.90"/><path d="M116.44,134.16L116.16,134.14L116.03,134.17L115.88,134.25L115.77,134.45"/><path d="M125.76,94.59L125.87,94.23L126.15,93.91L126.58,93.68L127.10,93.54L127.66,93.52L128.19,93.62L128.65,93.83L128.98,94.13L129.15,94.48"/><path d="M132.57,131.65L132.40,131.30L132.07,131.01L131.61,130.80L131.08,130.69L130.52,130.71L130.00,130.85L129.57,131.09L129.29,131.40L129.18,131.76"/><path d="M136.51,122.17L136.27,121.65L135.79,121.22L135.11,120.91L134.32,120.76L133.50,120.79L132.73,120.99L132.11,121.34L131.69,121.80L131.53,122.33"/><path d="M140.58,65.67L140.70,65.30L140.99,64.98L141.43,64.73L141.96,64.59L142.54,64.57L143.09,64.68L143.56,64.89L143.90,65.20L144.07,65.56"/><path d="M141.19,42.73L141.27,42.57L141.48,42.49L141.73,42.51L141.83,42.56L141.94,42.70"/><path d="M141.58,153.86L141.61,153.75L141.82,153.59L141.97,153.55L142.24,153.56"/><path d="M143.48,71.28L143.48,70.69L143.60,70.48L143.60,71.51"/><path d="M143.60,70.48L143.79,70.29L143.79,71.56"/><path d="M143.42,70.91L143.48,70.69"/><path d="M143.69,57.13L143.79,57.11"/><path d="M144.02,71.40L144.02,70.13L143.79,70.29"/><path d="M144.30,71.27L144.30,70.00L144.62,69.91L144.62,71.18"/><path d="M144.30,70.00L144.02,70.13"/><path d="M144.62,69.91L145.02,69.85L145.02,71.12"/><path d="M145.83,156.34L145.84,156.37"/><path d="M144.84,156.40L144.88,156.29L145.08,156.13L145.24,156.09L145.51,156.10"/><path d="M145.70,71.15L145.70,69.88L145.36,69.85L145.36,71.11"/><path d="M145.02,69.85L145.36,69.85"/><path d="M145.70,69.88L146.02,69.96L146.02,71.23"/><path d="M146.33,59.12L144.98,57.38"/><path d="M145.17,56.83L145.00,56.68"/><path d="M145.33,56.21L145.84,56.15"/><path d="M146.82,127.74L146.93,127.37L147.22,127.05L147.66,126.80L148.20,126.66L148.77,126.65L149.33,126.75L149.80,126.96L150.14,127.27L150.31,127.63"/><path d="M146.57,71.51L146.57,70.24L146.32,70.09L146.32,71.35"/><path d="M146.77,71.55L146.77,70.42L146.57,70.24"/><path d="M146.77,70.42L146.91,70.63L146.98,70.85L146.98,71.10"/><path d="M146.32,70.09L146.02,69.96"/><path d="M147.97,58.20L146.44,56.44"/><path d="M146.98,70.85L146.99,71.07"/><path d="M146.91,70.63L146.91,71.34"/><path d="M148.65,51.74L148.77,51.38L149.03,51.09L149.47,50.83L149.99,50.69L150.55,50.68L151.09,50.78L151.55,50.99L151.88,51.28L152.04,51.63"/><path d="M157.72,77.05L157.55,76.69L157.21,76.39L156.74,76.17L156.18,76.07L155.61,76.09L155.07,76.23L154.64,76.47L154.34,76.80L154.23,77.16"/><path d="M160.53,144.22L160.69,143.69L161.10,143.23L161.73,142.88L162.49,142.68L163.32,142.65L164.11,142.80L164.78,143.11L164.91,143.22L165.27,143.54L165.51,144.06"/><path d="M165.98,124.98L166.10,124.62L166.38,124.31L166.80,124.07L167.32,123.93L167.88,123.91L168.42,124.02L168.88,124.22L169.21,124.52L169.37,124.87"/><path d="M173.81,99.39L173.82,98.36L174.00,98.17L174.00,99.44"/><path d="M173.69,99.16L173.69,98.57L173.63,98.79"/><path d="M174.52,99.15L174.52,97.88L174.24,98.01L174.24,99.28"/><path d="M173.82,98.36L173.69,98.57"/><path d="M174.00,98.17L174.24,98.01"/><path d="M174.52,97.88L174.83,97.79L174.83,99.06"/><path d="M175.23,99.00L175.23,97.73L175.58,97.73L175.58,99.00"/><path d="M175.58,97.73L175.92,97.76L175.92,99.03"/><path d="M175.23,97.73L174.83,97.79"/><path d="M176.53,99.24L176.53,97.97L176.24,97.85L176.24,99.11"/><path d="M176.24,97.85L175.92,97.76"/><path d="M176.53,97.97L176.78,98.12L176.78,99.39"/><path d="M177.19,98.98L177.19,98.73L177.12,98.51L177.12,99.22"/><path d="M176.98,99.43L176.98,98.30L177.12,98.51"/><path d="M177.19,98.73L177.20,98.95"/><path d="M176.98,98.30L176.78,98.12"/><path d="M181.52,171.27L181.63,170.92L181.91,170.60L182.34,170.36L182.86,170.23L183.42,170.21L183.96,170.31L184.41,170.52L184.75,170.81L184.91,171.16"/><path d="M182.51,191.50L182.57,191.52L182.57,192.79"/><path d="M182.57,191.52L183.24,191.55L183.24,192.82"/><path d="M183.24,191.55L183.31,191.54L183.31,192.81"/><path d="M183.31,191.54L285.92,133.83L285.92,135.09"/><path d="M185.45,91.90L185.61,91.37L186.02,90.91L186.64,90.56L187.41,90.36L188.23,90.33L189.03,90.48L189.70,90.79L190.19,91.22L190.43,91.73"/><path d="M187.54,183.35L187.63,183.20L187.84,183.11L188.09,183.13L188.26,183.24L188.30,183.32"/><path d="M189.46,103.76L189.57,103.40L189.86,103.07L190.30,102.82L190.84,102.68L191.41,102.66L191.97,102.76L192.44,102.98L192.78,103.28L192.95,103.64"/><path d="M195.00,139.22L197.99,137.08"/><path d="M195.85,138.58L197.88,137.04"/><path d="M198.11,136.66L197.90,136.75L197.84,136.89"/><path d="M201.05,111.79L200.87,111.43L200.53,111.12L200.06,110.91L199.51,110.80L198.93,110.82L198.40,110.96L197.96,111.21L197.67,111.53L197.56,111.90"/><path d="M201.06,101.59L200.89,101.23L200.55,100.93L200.08,100.71L199.52,100.61L198.95,100.63L198.41,100.77L198.06,100.97L197.68,101.34L197.57,101.70"/><path d="M199.47,177.90L199.47,177.64L198.44,176.87"/><path d="M199.89,136.00L198.61,136.73"/><path d="M199.81,135.95L198.62,136.62"/><path d="M199.47,177.64L199.53,177.74"/><path d="M199.76,135.81L199.83,135.67L200.04,135.57"/><path d="M204.40,91.16L204.24,90.81L203.91,90.51L203.32,90.28L202.91,90.20L202.35,90.22L201.83,90.36L201.39,90.61L201.12,90.91L201.01,91.27"/><path d="M203.87,175.43L207.34,173.74"/><path d="M204.86,171.67L204.86,171.16L204.58,171.20L204.47,171.35"/><path d="M205.75,170.62L204.86,171.16L205.00,171.22L205.00,171.73"/><path d="M205.00,171.22L207.55,173.14L207.55,173.40"/><path d="M206.22,79.71L206.08,79.53L205.94,79.46L205.56,79.45"/><path d="M207.55,173.14L207.62,173.25"/><path d="M207.67,169.45L207.42,169.60"/><path d="M208.84,82.00L209.21,82.01L209.36,82.08L209.49,82.26"/><path d="M211.27,172.35L211.37,172.02L211.64,171.72L212.04,171.50L212.53,171.37L213.05,171.35L213.39,171.41L213.56,171.45L213.99,171.64L214.30,171.92L214.46,172.25"/><path d="M211.98,167.43L211.85,167.55L211.82,167.65"/><path d="M219.51,113.68L219.27,113.17L218.78,112.74L218.10,112.43L217.31,112.28L216.77,112.30L216.49,112.31L215.72,112.51L215.10,112.86L214.69,113.32L214.53,113.85"/><path d="M215.72,165.53L215.75,165.42"/><path d="M223.34,152.73L219.50,149.60"/><path d="M220.04,149.36L220.01,149.29L219.85,149.19L219.62,149.17L219.41,149.26L219.35,149.40"/><path d="M220.86,148.54L220.93,148.41L221.03,148.35L222.53,147.87"/><path d="M221.12,148.32L221.36,148.33L221.46,148.38L221.56,148.51"/><path d="M221.66,166.51L221.77,166.17L222.03,165.87L222.43,165.65L222.92,165.52L223.45,165.50L223.96,165.60L224.39,165.80L224.70,166.07L224.85,166.40"/><path d="M223.08,147.66L222.98,147.52L222.66,147.47L222.45,147.55L222.38,147.69"/><path d="M223.89,146.84L223.96,146.70L224.17,146.61L224.49,146.67L224.59,146.80"/><path d="M225.56,146.17L229.09,149.50"/><path d="M225.41,145.98L225.48,145.85L225.58,145.79L227.08,145.32"/><path d="M225.68,145.76L225.91,145.78L226.01,145.82L226.11,145.95"/><path d="M227.62,145.10L227.59,145.03L227.43,144.92L227.20,144.91L226.99,144.99L226.92,145.13"/><path d="M232.12,147.79L228.59,144.46"/><path d="M228.44,144.28L228.51,144.14L228.72,144.06L229.04,144.11L229.14,144.25"/><path d="M233.64,146.94L230.11,143.61"/><path d="M229.96,143.43L230.03,143.29L230.23,143.20L230.46,143.22L230.62,143.32L230.65,143.39"/><path d="M235.53,145.88L231.62,142.77"/><path d="M232.17,142.54L232.06,142.41L231.75,142.35L231.54,142.44L231.47,142.57"/><path d="M233.69,141.69L233.65,141.62L233.49,141.51L233.27,141.50L233.06,141.58L232.99,141.72"/><path d="M233.80,160.39L233.27,160.23"/><path d="M233.74,160.26L233.81,160.12L233.91,160.06L234.13,160.03L234.33,160.09L235.32,159.54"/><path d="M236.67,145.23L233.14,141.91"/><path d="M234.33,160.09L234.44,160.23"/><path d="M235.25,159.41L235.38,159.23"/><path d="M235.30,101.67L235.16,101.48L235.02,101.42L234.64,101.41"/><path d="M235.95,159.37L235.85,159.24L235.76,159.20L235.42,159.21L236.84,158.69"/><path d="M237.47,158.52L237.37,158.39L237.05,158.33L236.84,158.42L236.77,158.56"/><path d="M237.51,157.85L238.35,157.83"/><path d="M238.98,157.67L238.88,157.54L238.56,157.48L238.36,157.57L238.29,157.70"/><path d="M237.91,103.95L238.28,103.96L238.42,104.02L238.56,104.21"/><path d="M239.03,157.00L239.87,156.98"/><path d="M239.80,156.85L239.87,156.71L239.97,156.65L241.38,156.13"/><path d="M239.97,156.65L240.30,156.64L240.40,156.68L240.50,156.82"/><path d="M241.32,156.00L241.39,155.86L241.59,155.77L241.82,155.79L241.98,155.89L242.02,155.96"/><path d="M242.06,155.29L242.90,155.28"/><path d="M242.83,155.14L242.90,155.01L243.11,154.92L243.43,154.98L243.53,155.11"/><path d="M243.57,154.44L244.42,154.42"/><path d="M245.05,154.26L244.94,154.13L244.62,154.07L244.42,154.16L244.35,154.29"/><path d="M245.93,153.59L245.46,153.38"/><path d="M246.56,153.41L246.46,153.27L246.14,153.21L245.93,153.30L245.87,153.44"/><path d="M246.61,152.73L247.45,152.72"/><path d="M247.38,152.59L247.45,152.45L247.66,152.36L247.88,152.38L248.03,152.47L248.08,152.55"/><path d="M256.76,130.68L256.60,130.33L256.26,130.04L255.81,129.83L255.27,129.73L254.71,129.75L254.19,129.88L253.77,130.12L253.48,130.44L253.37,130.80"/><path d="M270.97,126.31L271.08,126.11L271.36,126.00L271.68,126.02L271.91,126.17L271.96,126.27"/><path d="M272.52,135.66L272.61,135.51L272.82,135.42L273.06,135.44L273.17,135.49L273.28,135.63"/><path d="M272.99,127.84L273.11,127.64L273.39,127.53L273.71,127.55L273.94,127.70L273.99,127.80"/><path d="M285.96,135.04L285.96,133.77L285.92,133.83"/><path d="M285.96,133.77L286.00,133.43"/></g><g style="stroke:#000000;stroke-width:0.705"><path d="M234.70,94.67L205.52,72.63L181.94,61.01L149.34,36.39L149.24,36.36L99.00,60.33L55.26,89.20L55.26,90.47L55.30,90.53L88.04,115.25L102.28,132.20L182.51,192.77L183.24,192.82L285.92,135.09L285.96,135.04L285.99,134.70L286.00,133.43L285.96,133.38L234.70,94.67L230.07,97.27"/><path d="M67.16,84.77L67.15,84.85L67.03,84.99L66.80,85.05L66.62,85.02L66.47,84.95L66.40,84.79"/><path d="M77.08,92.87L77.48,93.13L77.99,93.29L78.54,93.33L79.09,93.25L79.57,93.06L79.83,92.86L79.65,92.70L79.19,92.49L78.65,92.39L78.09,92.41L77.57,92.54L77.15,92.78L77.08,92.87L76.83,92.55L76.76,92.18"/><path d="M79.83,92.86L79.93,92.78L80.13,92.44L80.14,92.07"/><path d="M103.71,94.38L103.79,94.75L104.04,95.09L104.46,95.35L104.98,95.51L105.55,95.56L106.11,95.48L106.60,95.28L106.97,94.99L107.18,94.64L107.20,94.27"/><path d="M106.89,95.05L106.69,94.87L106.21,94.66L105.66,94.55L105.08,94.57L104.55,94.71L104.11,94.96L104.02,95.06"/><path d="M107.67,92.11L107.68,92.34L107.76,92.56L107.90,92.76L108.10,92.95L108.64,93.22L109.30,93.34L110.04,93.28L110.64,93.06L110.88,92.90L111.06,92.70L111.19,92.50L111.24,92.27"/><path d="M110.95,92.82L110.57,92.55L110.28,92.43L109.65,92.32L109.27,92.32L108.56,92.47L108.28,92.60L107.97,92.83"/><path d="M111.59,101.15L111.67,101.52L111.93,101.86L112.34,102.12L112.86,102.28L113.43,102.33L114.00,102.24L114.49,102.05L114.86,101.76L115.06,101.41L115.08,101.03"/><path d="M113.50,131.93L113.43,132.08L113.33,132.16L113.03,132.24L112.72,132.18L112.60,132.11L112.50,131.90"/><path d="M114.78,101.82L114.57,101.64L114.10,101.42L113.54,101.32L112.97,101.34L112.43,101.48L112.00,101.72L111.90,101.83"/><path d="M115.77,134.45L115.79,134.55L115.98,134.72L116.29,134.78L116.45,134.76L116.70,134.62L116.76,134.41"/><path d="M126.09,95.28L126.15,95.18L126.58,94.95L127.10,94.81L127.66,94.79L128.19,94.89L128.65,95.10L128.81,95.24L128.81,95.28L128.57,95.46L128.09,95.65L127.55,95.73L126.99,95.69L126.49,95.53L126.09,95.28L125.84,94.95L125.76,94.59"/><path d="M132.25,132.43L132.07,132.27L131.61,132.06L131.08,131.96L130.52,131.98L130.00,132.12L129.57,132.36L129.51,132.45L129.25,132.12L129.18,131.76"/><path d="M129.51,132.45L129.91,132.71L130.41,132.86L130.97,132.90L131.51,132.82L131.99,132.63L132.35,132.35L132.55,132.01L132.57,131.65"/><path d="M128.81,95.28L128.93,95.18L129.13,94.84L129.15,94.48"/><path d="M136.51,122.17L136.49,122.70L136.20,123.21L135.67,123.62L134.96,123.90L134.16,124.01L133.34,123.95L132.60,123.72L132.01,123.34L131.64,122.86L131.53,122.33"/><path d="M136.31,123.01L136.27,122.92L135.79,122.49L135.11,122.18L134.32,122.03L133.50,122.06L132.73,122.26L132.11,122.61L131.75,123.01"/><path d="M144.07,65.56L144.05,65.93L143.85,66.28L143.48,66.57L142.99,66.77L142.42,66.85L141.85,66.81L141.33,66.64L140.92,66.38L140.66,66.05L140.58,65.67"/><path d="M143.77,66.35L143.56,66.16L143.09,65.95L142.54,65.84L141.96,65.86L141.43,66.00L140.99,66.25L140.90,66.35"/><path d="M141.19,42.73L141.26,42.88L141.35,42.94L141.59,42.98L141.82,42.92L141.90,42.86L141.94,42.70"/><path d="M142.58,153.88L142.51,154.03L142.41,154.11L142.11,154.19L141.80,154.13L141.68,154.06L141.58,153.86"/><path d="M146.99,71.07L146.93,71.29L146.81,71.50L146.62,71.70L146.38,71.86L145.79,72.08L145.04,72.14L144.38,72.02L143.84,71.75L143.64,71.56L143.50,71.36L143.43,71.14L143.42,70.91"/><path d="M146.69,71.62L146.32,71.35L146.02,71.23L145.36,71.11L144.62,71.18L144.30,71.27L144.02,71.40L143.72,71.63"/><path d="M145.84,156.38L145.78,156.57L145.67,156.66L145.37,156.73L145.06,156.68L144.86,156.50L144.84,156.40"/><path d="M145.17,56.83L145.09,56.98"/><path d="M150.31,127.63L150.29,128.00L150.09,128.35L149.72,128.64L149.22,128.84L148.66,128.92L148.09,128.88L147.57,128.71L147.15,128.45L146.90,128.12L146.82,127.74"/><path d="M150.00,128.42L149.80,128.23L149.33,128.02L148.77,127.91L148.20,127.93L147.66,128.07L147.22,128.32L147.13,128.42"/><path d="M148.65,51.74L148.73,52.11L148.98,52.43L149.38,52.69L149.89,52.84L150.44,52.89L150.99,52.81L151.47,52.62L151.83,52.34L152.03,52.00L152.04,51.63"/><path d="M148.98,52.43L149.03,52.36L149.47,52.10L149.99,51.96L150.55,51.95L151.09,52.05L151.55,52.25L151.73,52.41"/><path d="M154.23,77.16L154.31,77.54L154.57,77.87L154.98,78.14L155.50,78.30L156.07,78.34L156.63,78.26L157.13,78.07L157.50,77.78L157.70,77.43L157.72,77.05"/><path d="M154.54,77.84L154.64,77.74L155.07,77.50L155.61,77.36L156.18,77.34L156.74,77.44L157.21,77.66L157.42,77.84"/><path d="M165.51,144.06L165.48,144.59L165.19,145.09L165.00,145.24L164.66,145.51L163.94,145.79L163.16,145.90L162.34,145.84L161.59,145.61L161.01,145.23L160.64,144.75L160.53,144.22"/><path d="M160.75,144.90L161.10,144.50L161.73,144.15L162.49,143.95L163.32,143.92L164.11,144.07L164.78,144.38L165.27,144.81L165.31,144.90"/><path d="M165.98,124.98L166.06,125.35L166.31,125.67L166.71,125.92L167.22,126.08L167.78,126.12L168.32,126.05L168.80,125.86L169.16,125.57L169.36,125.23L169.37,124.87"/><path d="M166.31,125.67L166.38,125.58L166.80,125.34L167.32,125.20L167.88,125.18L168.42,125.28L168.88,125.49L169.06,125.65"/><path d="M173.63,98.79L173.64,99.02L173.72,99.24L173.85,99.44L174.05,99.63L174.58,99.90L175.26,100.02L176.00,99.96L176.60,99.74L176.84,99.58L177.02,99.39L177.14,99.18L177.20,98.95"/><path d="M173.93,99.51L174.24,99.28L174.52,99.15L174.83,99.06L175.58,99.00L176.24,99.11L176.53,99.24L176.91,99.51"/><path d="M181.52,171.27L181.60,171.64L181.84,171.95L181.91,171.87L182.34,171.63L182.86,171.50L183.42,171.48L183.96,171.58L184.41,171.79L184.59,171.95"/><path d="M181.84,171.95L182.25,172.22L182.75,172.38L183.31,172.42L183.86,172.34L184.33,172.15L184.69,171.87L184.89,171.53L184.91,171.16"/><path d="M185.45,91.90L185.56,92.43L185.92,92.91L186.51,93.28L187.25,93.52L188.07,93.58L188.88,93.46L189.58,93.18L190.11,92.77L190.40,92.27L190.43,91.73"/><path d="M185.67,92.57L186.02,92.17L186.65,91.82L187.41,91.63L188.23,91.60L189.03,91.75L189.70,92.05L190.19,92.49L190.23,92.57"/><path d="M188.30,183.32L188.30,183.40L188.17,183.54L187.94,183.60L187.71,183.56L187.61,183.50L187.54,183.35"/><path d="M192.95,103.64L192.93,104.02L192.72,104.37L192.36,104.66L191.86,104.86L191.30,104.94L190.73,104.89L190.20,104.73L189.79,104.47L189.54,104.13L189.46,103.76"/><path d="M192.64,104.43L192.44,104.25L191.97,104.03L191.41,103.93L190.84,103.95L190.30,104.09L189.86,104.34L189.77,104.44"/><path d="M197.84,136.89L197.90,137.02L197.99,137.08L198.20,137.12L198.42,137.06L198.50,137.00L198.54,136.85"/><path d="M197.56,111.90L197.63,112.27L197.89,112.61L198.30,112.87L198.82,113.03L199.40,113.08L199.96,113.00L200.45,112.80L200.82,112.51L201.03,112.16L201.05,111.79"/><path d="M197.87,112.58L197.96,112.48L198.40,112.23L198.93,112.09L199.51,112.07L200.06,112.18L200.53,112.39L200.74,112.57"/><path d="M197.58,101.73L197.65,102.08L197.91,102.41L198.32,102.67L198.84,102.84L199.41,102.88L199.98,102.80L200.47,102.61L200.84,102.32L201.04,101.96L201.06,101.59"/><path d="M197.88,102.38L197.98,102.28L198.41,102.03L198.95,101.89L199.52,101.88L200.08,101.98L200.55,102.19L200.76,102.38"/><path d="M198.03,178.97L198.17,178.87"/><path d="M198.44,177.46L199.10,177.94L199.28,177.97L199.44,177.92L198.60,178.55"/><path d="M199.44,177.92L199.50,177.87L199.54,177.75"/><path d="M199.76,135.81L199.83,135.94L199.91,135.99L200.13,136.03L200.35,135.98L200.42,135.92L200.47,135.77"/><path d="M203.26,175.72L203.09,175.65L200.54,173.72L200.46,173.60"/><path d="M204.40,91.16L204.38,91.52L204.18,91.86L203.83,92.14L203.32,92.34L202.80,92.41L202.25,92.37L201.74,92.21L201.34,91.96L201.09,91.63L201.01,91.27"/><path d="M201.34,91.96L201.41,91.87L201.83,91.63L202.35,91.49L202.91,91.47L203.45,91.57L203.91,91.78L204.08,91.94"/><path d="M204.48,171.31L204.54,171.47L207.09,173.40L207.27,173.46L207.43,173.45L207.58,173.37L207.62,173.25"/><path d="M206.22,79.71L206.22,79.82L206.06,80.01L205.75,80.08L205.56,80.06"/><path d="M208.83,82.61L209.02,82.63L209.32,82.55L209.42,82.47L209.49,82.26"/><path d="M211.27,172.35L211.34,172.70L211.57,173.00L211.95,173.24L212.43,173.39L212.95,173.43L213.46,173.36L213.92,173.18L214.25,172.91L214.44,172.59L214.46,172.25"/><path d="M211.61,173.02L212.04,172.77L212.53,172.64L213.05,172.62L213.56,172.72L213.97,172.90L214.11,173.02"/><path d="M211.82,167.65L211.92,167.85L212.18,167.97L212.34,167.99"/><path d="M214.53,113.85L214.63,114.38L215.00,114.86L215.59,115.24L216.33,115.47L217.15,115.53L217.96,115.41L218.66,115.13L219.19,114.72L219.29,114.49L218.78,114.01L218.10,113.70L217.31,113.55L216.49,113.58L215.72,113.78L215.10,114.13L214.75,114.53"/><path d="M215.72,165.53L215.82,165.73L216.13,165.85"/><path d="M220.04,149.36L220.04,149.44L219.93,149.56L219.71,149.62L219.50,149.58L219.41,149.53L219.35,149.40"/><path d="M220.01,149.29L221.01,148.73L221.23,148.77L221.42,148.72L221.51,148.65L221.56,148.51"/><path d="M219.51,113.68L219.48,114.22L219.29,114.54"/><path d="M220.86,148.54L220.93,148.67L221.01,148.73"/><path d="M221.66,166.51L221.73,166.85L221.97,167.15L222.35,167.40L222.82,167.54L223.34,167.58L223.86,167.51L224.31,167.33L224.65,167.07L224.83,166.75L224.85,166.40"/><path d="M222.00,167.18L222.43,166.92L222.92,166.79L223.45,166.77L223.96,166.87L224.39,167.07L224.51,167.18"/><path d="M221.53,148.44L222.96,147.86L223.07,147.73L223.08,147.66"/><path d="M222.38,147.69L222.44,147.82L222.53,147.87L222.85,147.90"/><path d="M223.89,146.84L223.96,146.97L224.04,147.02L224.26,147.06L224.47,147.01L224.59,146.88L224.59,146.80"/><path d="M226.11,145.95L226.10,146.04L225.99,146.15L225.77,146.21L225.56,146.17L225.48,146.12L225.41,145.98"/><path d="M226.07,145.88L227.50,145.30L227.62,145.17L227.62,145.10"/><path d="M227.40,145.34L227.08,145.32L226.99,145.26L226.92,145.13"/><path d="M229.14,144.25L229.13,144.32L229.02,144.45L228.80,144.51L228.59,144.46L228.51,144.41L228.44,144.28"/><path d="M229.24,97.74L229.32,97.70L228.17,98.34"/><path d="M229.32,97.70L229.36,97.68"/><path d="M230.65,143.39L230.65,143.47L230.54,143.60L230.32,143.65L230.11,143.61L230.02,143.56L229.96,143.43"/><path d="M232.17,142.54L232.17,142.62L232.05,142.74L231.84,142.80L231.62,142.76L231.54,142.71L231.47,142.57"/><path d="M232.99,141.72L233.05,141.85L233.13,141.90L233.35,141.95L233.57,141.89L233.68,141.78L233.69,141.69"/><path d="M234.44,160.23L234.43,160.30L234.32,160.43L234.10,160.49L233.89,160.44L233.80,160.39L233.74,160.26"/><path d="M235.26,159.42L235.32,159.54L235.40,159.59L235.62,159.63L235.83,159.58L235.95,159.45L235.95,159.37"/><path d="M234.64,102.02L234.83,102.04L235.14,101.96L235.30,101.78L235.30,101.67"/><path d="M235.92,159.30L237.20,158.79L237.06,158.84"/><path d="M235.38,159.23L236.77,158.56L236.84,158.69L236.92,158.74L237.25,158.77L237.20,158.79"/><path d="M237.47,158.52L237.42,158.67L237.25,158.77"/><path d="M238.98,157.67L238.97,157.77L238.87,157.87L238.65,157.93L238.43,157.89L238.35,157.83L238.29,157.70"/><path d="M237.91,104.56L238.10,104.58L238.40,104.50L238.56,104.32L238.56,104.21"/><path d="M239.80,156.85L239.87,156.98L239.95,157.03L240.17,157.08L240.38,157.02L240.50,156.89L240.50,156.82"/><path d="M240.47,156.75L241.90,156.17L242.01,156.04L242.02,155.96"/><path d="M241.79,156.21L241.47,156.18L241.38,156.13L241.32,156.00"/><path d="M243.53,155.11L243.53,155.19L243.41,155.31L243.20,155.37L242.98,155.33L242.90,155.28L242.83,155.14"/><path d="M245.05,154.26L245.04,154.33L244.93,154.46L244.71,154.52L244.50,154.48L244.42,154.42L244.35,154.29"/><path d="M246.56,153.41L246.55,153.50L246.44,153.61L246.23,153.67L246.01,153.62L245.90,153.53L245.87,153.44"/><path d="M248.08,152.55L248.08,152.63L247.96,152.76L247.74,152.81L247.53,152.77L247.45,152.72L247.38,152.59"/><path d="M249.23,137.90L249.10,138.01L248.95,138.06"/><path d="M248.48,137.88L248.63,138.02L248.75,138.06"/><path d="M250.14,139.14L250.29,139.27L250.41,139.31"/><path d="M250.61,139.31L250.78,139.26L250.89,139.16"/><path d="M252.07,140.57L251.95,140.53L251.80,140.39"/><path d="M252.27,140.57L252.44,140.51L252.55,140.41"/><path d="M253.73,141.82L253.60,141.78L253.46,141.65"/><path d="M253.93,141.82L254.11,141.77L254.21,141.66"/><path d="M256.76,130.68L256.74,131.05L256.54,131.39L256.18,131.67L255.71,131.86L255.16,131.94L254.60,131.90L254.10,131.74L253.69,131.48L253.45,131.16L253.37,130.80"/><path d="M256.44,131.47L256.26,131.31L255.81,131.10L255.27,131.00L254.71,131.02L254.19,131.15L253.77,131.39L253.69,131.48"/><path d="M255.12,142.90L255.28,143.04L255.40,143.07"/><path d="M255.88,142.92L255.77,143.02L255.59,143.08"/><path d="M257.54,144.17L257.43,144.27L257.26,144.33"/><path d="M257.06,144.33L256.94,144.29L256.79,144.15"/><path d="M258.45,145.41L258.60,145.55L258.72,145.58"/><path d="M259.20,145.43L259.09,145.53L258.92,145.58"/><path d="M271.96,126.27L271.90,126.48L271.65,126.62L271.49,126.64L271.18,126.58L271.06,126.51L270.97,126.31"/><path d="M272.52,135.66L272.54,135.74L272.68,135.87L272.92,135.92L273.04,135.90L273.23,135.79L273.28,135.63"/><path d="M273.99,127.80L273.93,128.01L273.68,128.15L273.52,128.17L273.36,128.16L273.09,128.04L272.99,127.84"/></g></g><g id="Actor_.41"><g style="stroke:#000000;stroke-width:0.353"><path d="M130.12,132.77L129.57,132.36"/></g><g style="stroke:#000000;stroke-width:0.705"><path d="M199.69,112.11L199.40,112.16L198.83,112.15L198.76,112.14"/></g></g><g id="Actor_.42"><g style="stroke:#000000;stroke-width:0.353"><path d="M131.77,123.03L132.16,122.81"/><path d="M132.36,123.57L132.36,123.53L132.37,123.40L132.37,123.34L132.37,123.29L131.98,122.99"/><path d="M132.65,123.74L133.07,123.50L133.08,123.49L133.14,123.35L133.15,123.29L133.15,123.25"/><path d="M133.07,123.50L132.94,123.62L132.74,123.71L132.65,123.74"/><path d="M133.11,123.12L132.75,122.84"/><path d="M132.96,123.20L133.08,123.26L133.15,123.29"/><path d="M132.83,123.03L132.37,123.29"/></g><g style="stroke:#000000;stroke-width:0.705"><path d="M132.36,122.78L132.18,122.81L132.16,122.81L131.96,122.88L131.79,123.00L131.76,123.02"/><path d="M131.85,123.14L131.94,123.07L131.96,123.03L131.98,122.99L132.43,122.73L132.83,123.03L132.84,123.07L132.87,123.12L132.96,123.20"/><path d="M132.47,122.77L132.54,122.78L132.67,122.82L132.75,122.84L132.88,122.90L133.04,123.02L133.11,123.12L133.14,123.17L133.15,123.25L133.15,123.34"/><path d="M134.12,124.01L134.09,123.99L134.07,124.00"/></g></g><g id="Actor_.43"><g style="stroke:#000000;stroke-width:0.353"><path d="M133.88,122.06L133.94,122.21L134.06,122.34L134.24,122.44L134.46,122.50L134.69,122.51L134.92,122.48L135.12,122.39L135.12,122.43"/><path d="M135.12,122.39L135.27,122.31L135.27,122.35"/><path d="M135.12,122.18L135.11,122.19L134.96,122.27L134.85,122.31L134.73,122.33L134.61,122.33L134.49,122.30L134.39,122.24L134.26,122.15L134.20,122.08L134.18,122.04"/><path d="M134.96,122.27L134.92,122.23L134.88,122.18L134.86,122.13"/><path d="M134.39,122.24L134.44,122.21L134.48,122.16L134.52,122.11L134.53,122.07"/><path d="M134.26,122.15L134.31,122.11L134.35,122.07L134.37,122.04"/><path d="M135.11,122.19L135.10,122.18"/><path d="M136.03,123.00L135.97,123.03L136.01,123.06L136.03,123.06"/><path d="M135.97,123.03L135.88,123.09L135.84,123.17L135.83,123.25L135.86,123.33L135.92,123.40L135.94,123.41"/><path d="M136.16,123.23L136.08,123.16L136.04,123.13L136.03,123.09"/><path d="M136.21,123.19L136.21,123.19L136.08,123.09L136.08,123.16L136.07,123.21L136.05,123.27L136.01,123.32L135.97,123.37L135.92,123.40"/><path d="M136.10,122.90L136.10,122.90"/><path d="M135.71,123.59L135.60,123.47L135.54,123.32"/><path d="M136.03,122.98L136.03,123.02L136.04,123.05L136.06,123.07L136.08,123.09"/><path d="M136.21,123.19L136.21,123.19"/><path d="M136.20,122.86L136.03,122.95"/><path d="M135.32,122.28L135.27,122.31"/></g><g style="stroke:#000000;stroke-width:0.705"><path d="M133.89,122.05L133.88,122.06L133.88,122.10"/><path d="M135.54,123.36L135.54,123.32L135.56,123.17L135.65,123.03L135.80,122.91L135.95,122.82L136.10,122.77"/><path d="M136.19,122.85L136.10,122.90L136.07,122.92L136.06,122.93L136.04,122.94L136.03,122.95L136.03,123.09"/><path d="M136.02,123.09L136.02,123.09L136.02,123.09"/><path d="M136.02,123.09L136.03,123.07"/></g></g><g><g/></g><g/><g id="paperID" visibility="hidden" opacity="0.00" transform="scale(0.000100)"><path style="stroke:#000000;stroke-width:0.500;fill:#e6e6e6;fill-rule:evenodd" d="M-2000.00,-2000.00L2297.00,-2000.00L2297.00,2210.00L-2000.00,2210.00zM0.00,0.00L297.00,0.00L297.00,210.00L0.00,210.00z"/><path style="fill:#000000;fill-opacity:0.118" d="M3.00,210.00L297.00,210.00L297.00,3.00L300.00,3.00L300.00,213.00L3.00,213.00z"/></g><g id="ToolTip" visibility="hidden" opacity="0" transform="translate(0,0)"><rect id="ToolTipShadow" opacity="0.20" fill="black" stroke="none" x="0" y="0" width="30" height="8"/><rect id="ToolTipBG" fill="#ffffe1" stroke="black" x="0" y="0" width="30" height="8"/><text xml:space="preserve" id="ToolTipText" fill="black" x="0" y="0" width="30" height="8">tooltip</text></g></g></svg>
