<?xml version="1.0" encoding="UTF-8" standalone="no"?>
<svg xmlns="http://www.w3.org/2000/svg" xmlns:xlink="http://www.w3.org/1999/xlink" width="297.000mm" height="210.000mm" viewBox="0.000000 0.000000 297.000000 210.000000" stroke-linejoin="round" stroke-linecap="round" fill="none" fill-rule="evenodd"><desc>3DVIA Composer Export</desc><script type="text/ecmascript"><![CDATA[
if(typeof(top) != "undefined")
{
	top.ShowPaper = ShowPaper;
}
function ShowHotSpot(evt,hotspotid)
{
	var svgDocument = evt.target.ownerDocument;
	var strId = "hotspot."+hotspotid;
	var hotspot = svgDocument.getElementById(strId);
	if(hotspot)
		hotspot.setAttribute("opacity",".5");
}
function HideHotSpot(evt,hotspotid)
{
	var svgDocument = evt.target.ownerDocument;
	var strId = "hotspot."+hotspotid;
	var hotspot = svgDocument.getElementById(strId);
	if(hotspot)
		hotspot.setAttribute("opacity","0");

	var toolTip = svgDocument.getElementById('ToolTip');
	if(toolTip)
		toolTip.setAttribute("visibility","hidden");
}
function ShowToolTip(evt,hotspotid,strTooltip)
{
	if(strTooltip=="")
	return;

	// change text
	var svgDocument = evt.target.ownerDocument;
	var tiptext = svgDocument.getElementById('ToolTipText');
	if( !tiptext )
	return;
	tiptext.firstChild.nodeValue = " " + strTooltip + "  " ;

	// show tooltip before, else some refresh issue

	var toolTip = svgDocument.getElementById('ToolTip');
	if(!toolTip)
	return;

	toolTip.setAttribute("visibility","visible");
	toolTip.setAttribute("opacity",".95");

	// move tooltip
	// get viewbox

	var root = svgDocument.documentElement;
	var vbox = (root.getAttribute("viewBox")).split(' ');
	var x0 = parseFloat(vbox[0]);
	var y0 = parseFloat(vbox[1]);
	var vboxW = parseFloat(vbox[2]);
	var vboxH = parseFloat(vbox[3]);

	// get default width of svg

	var strW = root.getAttribute("width");
	var svgW = parseFloat(strW);
	if(strW.indexOf('mm') != -1)
	svgW *= 3.779;

	var strH = root.getAttribute("height");
	var svgH = parseFloat(strH);
	if(strH.indexOf('mm') != -1)
	svgH *= 3.779;  	// 96 dpi  -> 96/25.4 = 3.779

	// update the viewbox / width / height if svg is embedded in html with zoom fit all
	var realx0 = x0;
	var realy0 = y0;
	var realvboxW = vboxW;
	var realvboxH = vboxH;
	var realsvgW = svgW;
	var realsvgH = svgH;

	if ((typeof(top) == "undefined") || (typeof(top.svgctl1) != "undefined")) // embedded in html
	{
		// get window size in pxl

		svgW = window.innerWidth;
		svgH = window.innerHeight;

		// calculate real viewbox

		realsvgW = svgW;
		realsvgH = svgH;
		if((svgW / svgH) > (vboxW / vboxH))
		{
			realvboxW = (vboxH * svgW) / svgH;
			realvboxH = vboxH;
			realx0 = x0 - (realvboxW - vboxW)/2 ;
		}
		else
		{
			realvboxH = (vboxW * svgH) / svgW;
			realvboxW = vboxW;
			realy0 = y0 - (realvboxH - vboxH)/2 ;
		}
	}

	// get user zoom/pan

	var newScale = root.currentScale;
	var translation = root.currentTranslate;

	// transform pxl to user unit

	var xPos = (((evt.clientX+10- translation.x)/newScale) * realvboxW)/realsvgW  + realx0 ;
	var yPos = (((evt.clientY+5- translation.y)/newScale) * realvboxH)/ realsvgH  + realy0 ;
	var scaleForWidth = ( (1 / newScale) * realvboxH) / realsvgH;

	// move tooltip

	toolTip.setAttribute("transform", "translate(" + xPos + "," + yPos + ")" );

	// resize tooltip

	var fontsize = 12;
	tiptext.setAttribute("font-size",fontsize*scaleForWidth);
	tiptext.setAttribute("y", fontsize*scaleForWidth);
	var tipBG = svgDocument.getElementById('ToolTipBG');
	var outline = tiptext.getBBox();
	if(tipBG)
	{
		tipBG.setAttribute("stroke-width", 1*scaleForWidth);
		tipBG.setAttribute("width", Number(outline.width) );
		tipBG.setAttribute("height", Number(outline.height) + fontsize*.5*scaleForWidth );
	}
	var ToolTipShadow = svgDocument.getElementById('ToolTipShadow');
	if(ToolTipShadow)
	{
		ToolTipShadow.setAttribute("width", Number(outline.width) );
		ToolTipShadow.setAttribute("height", Number(outline.height) + fontsize*.5*scaleForWidth );
		ToolTipShadow.setAttribute("x", 3*scaleForWidth);
		ToolTipShadow.setAttribute("y", 3*scaleForWidth);
	}
}
function ShowPaper()
{
  var svgDocument = getDocument();
  var paper = svgDocument.getElementById("paperID");
  if(paper)
  {
    paper.setAttribute("transform","scale(1)");
    paper.setAttribute("opacity","1");
    paper.setAttribute("visibility","visible");
  }
  var svg = svgDocument.getRootElement();
  if(svg)
  {
    svg.setAttribute("width","307.000mm");
    svg.setAttribute("height","220.000mm");
    svg.setAttribute("viewBox","-5.000000 -5.000000 307.000000 220.000000");
  }
}
]]></script><defs/><g><path style="fill:#dcdcdc;fill-rule:evenodd" d="M184.77,122.64L184.33,122.73L184.39,123.00L184.95,123.01L184.77,122.64L185.71,123.03L186.38,123.01L186.99,122.30L206.67,113.25L206.45,112.91L204.88,112.16L203.56,111.88L201.01,110.58L182.87,118.95L181.31,119.41L162.65,110.04L162.60,109.81L187.16,98.40L188.38,97.30L186.97,100.32L186.99,100.99L195.31,105.23L195.53,103.92L197.38,100.73L197.96,101.18L197.61,101.34L197.09,103.41L197.10,106.70L216.01,116.10L216.24,112.99L216.94,110.58L218.72,107.45L220.54,105.38L222.89,103.85L223.52,103.59L228.70,107.48L228.94,107.84L227.55,109.03L225.97,110.82L224.18,113.94L223.22,117.13L223.18,119.72L223.51,120.02L222.71,120.51L221.94,120.70L208.51,113.95L188.54,123.11L188.54,123.50L194.79,128.15L194.15,129.22L193.74,129.25L189.81,127.14L190.09,126.89L189.35,126.37L189.06,126.68L188.57,126.66L184.96,124.82L148.37,141.63L149.48,144.47L143.29,154.67L143.27,156.90L141.65,157.69L139.12,157.69L126.97,151.70L126.37,151.70L109.05,159.76L107.73,159.85L107.73,158.44L109.05,158.21L124.92,150.80L123.35,149.89L122.75,149.88L122.22,150.20L121.54,150.20L118.46,148.62L106.27,154.14L105.41,154.42L105.26,144.97L102.67,143.42L95.37,137.97L95.32,137.73L95.62,137.72L99.81,139.88L100.54,138.50L100.60,137.74L97.98,136.17L97.36,136.45L96.96,136.49L95.09,135.40L95.10,135.17L93.82,134.35L93.78,134.11L94.39,134.20L94.61,132.13L96.20,129.07L104.60,115.21L106.18,114.19L107.05,114.18L107.55,114.48L108.87,114.71L110.43,115.52L110.44,115.83L110.16,116.13L110.13,116.51L111.68,117.33L111.98,117.84L113.23,117.91L114.83,116.01L122.57,121.73L122.61,122.04L121.77,123.35L121.28,123.30L120.23,122.70L119.70,123.07L119.22,123.04L118.33,122.55L118.44,122.09L118.72,121.79L118.48,121.15L116.09,119.87L115.48,120.14L114.56,120.20L113.51,119.90L106.28,116.26L105.40,116.25L104.98,116.63L98.91,126.60L95.90,131.87L95.91,132.83L104.45,137.00L105.21,137.07L107.02,134.88L107.04,134.49L107.85,133.98L107.61,133.60L106.43,133.60L105.47,134.22L105.49,133.74L112.12,122.71L112.39,124.38L112.73,124.61L113.24,124.65L113.79,122.76L114.02,122.78L114.82,121.81L115.06,120.74L115.84,120.65L117.67,121.68L117.41,122.08L117.37,122.47L123.88,127.41L124.29,127.43L158.54,111.62L130.84,97.65L123.84,92.43L123.78,92.19L124.09,92.18zM182.90,123.78L183.12,124.12L147.67,140.43L146.89,140.63L146.39,140.33L143.69,140.33L142.11,141.08L136.04,151.05L136.01,153.81L136.32,154.90L117.41,145.50L116.86,144.24L116.89,141.47L122.96,131.50L124.54,130.75L127.24,130.75L141.20,137.78L141.89,137.78L177.34,121.43L178.21,121.43zM175.38,54.38L174.79,54.97L174.54,55.55L173.97,55.48L174.48,54.40L175.16,54.17zM179.26,57.01L179.26,57.89L178.63,58.56L177.18,58.56L176.13,57.76L174.54,57.81L174.23,57.52L175.56,57.30L177.44,55.46zM189.59,63.49L188.71,63.99L188.00,65.41L187.72,65.43L187.78,63.83L188.72,63.20zM172.53,64.49L173.83,65.53L173.82,66.95L173.29,67.46L172.51,67.65L171.24,66.81L170.97,66.56L169.06,66.61L170.99,65.67L172.25,64.01zM169.11,64.64L168.82,64.64L168.89,63.57L169.33,63.20L169.92,63.20zM143.02,67.65L142.20,67.61L142.15,67.34zM146.14,68.13L146.14,69.78L145.36,69.43L145.09,69.51L142.66,73.59L142.21,73.62L141.88,73.30L144.71,68.68L145.09,68.71L145.61,67.61zM207.47,69.70L206.94,69.73L205.35,68.89L205.30,68.64L205.88,68.63zM148.46,71.79L147.64,71.75L147.58,71.48zM151.56,72.80L151.56,73.68L150.27,73.65L147.91,77.55L147.38,77.50L147.06,77.18L149.91,72.80L150.51,72.62L150.70,71.74L151.03,71.70zM182.32,73.13L183.02,72.27L184.20,72.31L184.19,72.59L183.39,72.90L182.88,74.44L182.34,74.09zM204.59,76.70L204.89,77.19L204.80,77.72L204.00,78.80L203.47,78.77L204.39,76.97L203.47,77.45L203.05,78.84L202.50,78.24L202.92,76.90L203.74,76.40zM232.54,82.90L231.69,83.42L231.52,84.28L231.28,84.24L231.26,82.97L231.78,82.64zM197.37,84.21L197.30,84.70L196.33,84.71L196.05,84.44L195.96,83.66L196.30,83.62zM234.88,84.19L236.20,85.20L236.19,86.36L235.56,87.03L234.34,87.05L233.34,86.24L231.76,86.29L231.15,85.99L232.49,85.76L234.11,84.28L234.62,83.14zM200.47,85.85L199.08,87.80L197.30,87.82L197.02,87.55L198.42,86.89L199.59,85.45L199.95,85.45zM195.02,86.51L193.47,88.95L193.65,85.98L193.97,85.95zM226.11,87.52L225.19,88.05L224.49,89.48L224.20,89.49L224.27,87.90L224.95,87.27L225.87,87.28zM216.50,93.76L216.19,94.01L213.56,98.43L213.15,98.45L204.37,94.02L201.93,95.35L201.21,95.36L200.88,95.12L200.97,94.66L204.99,88.06zM192.91,90.13L192.27,90.83L192.74,89.68L192.98,89.62zM250.41,91.90L250.41,93.34L243.16,105.49L242.32,106.20L241.03,106.20L240.74,105.92L241.91,105.53L242.90,104.45L249.89,92.56L250.16,91.65zM246.29,91.92L245.36,92.69L244.95,93.88L244.66,93.88L244.34,92.98L245.20,91.74L246.04,91.67zM192.24,91.06L191.66,92.06L191.63,91.52L192.27,90.83zM229.46,92.96L230.74,94.02L231.02,94.88L230.40,95.83L228.94,95.82L227.88,95.03L226.21,95.04L228.05,94.00L229.18,92.48zM225.79,92.29L226.23,91.66L227.15,91.79L226.49,92.19L226.08,93.07L225.83,93.02zM191.22,92.87L190.90,93.36L190.90,92.80L191.18,92.73zM190.45,94.17L190.12,94.65L190.12,94.09L190.40,94.02zM189.67,95.46L189.34,95.95L189.34,95.38L189.62,95.32zM203.06,96.85L203.07,98.24L201.95,97.90L199.59,101.79L198.63,101.81L197.96,101.18L198.89,101.36L201.52,97.15L202.00,97.22L202.28,96.14L202.56,96.07zM199.37,96.06L199.67,96.11L199.72,96.40L199.42,96.35zM188.90,96.75L188.38,97.30L188.58,96.65zM259.65,97.34L260.24,97.41L260.30,97.69L259.96,97.69zM257.15,99.55L257.06,99.21L257.36,99.16zM205.39,100.25L204.56,100.21L204.51,99.95zM208.25,100.45L208.22,102.15L207.13,102.03L204.89,105.81L204.31,105.96L203.99,105.65L206.68,101.02L207.36,101.04L207.64,100.22L207.96,100.17zM278.92,107.43L279.39,108.51L279.39,109.90L278.84,111.19L278.89,112.22L270.31,126.72L269.71,126.66L268.76,128.77L268.70,138.89L269.32,138.80L269.32,140.20L268.68,140.59L268.24,141.18L169.59,186.68L168.81,186.77L168.65,175.00L167.10,173.97L166.47,174.50L164.48,174.51L159.08,171.63L151.79,166.18L151.73,165.94L152.04,165.93L156.21,168.06L156.91,168.06L158.29,167.31L158.30,166.76L156.99,165.96L156.84,165.59L157.76,165.81L158.20,163.37L167.74,147.30L169.31,146.02L170.71,146.02L171.00,146.29L171.46,146.40L171.73,144.99L171.72,144.47L180.02,150.69L180.56,151.46L180.55,152.33L180.26,153.09L180.26,155.11L180.55,155.59L185.43,159.25L187.45,159.24L250.67,130.08L251.95,128.51L256.88,120.25L257.13,119.21L257.13,117.83L256.26,117.29L257.13,116.10L265.09,102.81L266.09,102.83L267.39,101.00L268.42,100.48L269.57,100.48zM241.11,100.86L240.32,101.37L239.50,102.68L239.21,102.68L239.26,101.33L239.70,100.74L240.62,100.50zM260.27,102.57L260.25,103.14L259.89,103.34L259.46,104.19L258.34,104.20L258.13,103.88L258.14,102.89L258.93,102.10L259.72,102.01zM254.85,111.35L254.83,111.96L253.93,113.19L253.23,113.22L252.91,112.99L252.97,111.68L253.76,110.89L254.06,110.85zM240.57,128.47L241.61,128.41L246.29,130.88L244.96,131.63L244.19,131.83L228.69,124.02L224.24,120.64L224.19,120.39L224.49,120.38zM156.63,132.30L157.17,131.76L157.76,131.77L157.76,132.95L157.25,132.88zM160.27,133.61L159.25,134.14L157.91,134.21L157.91,133.62L159.83,133.17L160.38,132.85zM159.56,143.28L159.49,142.95L160.08,142.89zM167.33,143.97L167.27,144.23L166.85,144.23L166.02,143.66L165.96,143.42zM167.88,145.51L167.32,145.51L167.25,145.23L167.60,145.23zM106.76,155.20L107.22,154.80L107.81,154.80L107.85,155.94L106.76,155.59zM110.33,156.64L109.05,157.17L107.97,157.24L107.97,156.66L110.45,155.89zM154.67,164.18L155.19,164.16L151.30,161.01L150.25,161.08L149.25,160.25L148.84,159.26L149.75,159.27L149.93,159.80L156.77,163.36L156.63,164.16L156.84,165.59L154.91,164.63L154.29,164.91L153.63,164.95L145.10,160.76L144.04,159.45L143.95,158.97L144.28,158.93zM163.69,183.39L164.76,183.29L164.76,184.17L163.69,184.07zM167.37,184.66L166.57,185.46L164.91,185.72L164.90,185.12L166.76,184.62L167.37,184.09zM167.08,187.26L166.04,187.78L164.15,188.32L164.16,186.92L167.08,185.86zM269.58,102.27L269.57,103.17L268.42,104.88L266.98,105.76L266.64,105.13L267.22,103.42L268.17,102.30L269.31,102.00zM270.09,104.58L269.72,105.41L268.96,105.41L269.01,104.45L269.85,104.34zM265.67,109.81L265.68,110.94L265.06,111.88L264.11,111.89L264.13,110.95L264.82,109.54L265.15,109.50zM181.09,110.05L181.07,110.94L180.45,111.88L179.42,111.96L179.14,111.11L179.78,109.89L180.30,109.54zM277.88,110.57L277.87,111.19L277.04,111.71L276.87,110.22L277.61,110.29zM270.61,111.86L270.77,112.73L272.13,113.43L271.78,113.91L270.83,115.85L270.34,115.79L266.69,113.93L266.67,113.25L267.75,111.43L268.02,111.35L269.04,111.91L269.56,111.97L269.50,111.32zM277.29,109.61L276.87,110.22L276.68,110.29L276.29,110.93L275.51,111.44L274.65,111.73L274.71,110.39L275.39,109.00L276.18,108.24L277.32,108.24zM269.06,115.73L268.45,116.29L267.18,116.30L266.85,116.06L266.86,115.79L268.25,115.21zM169.70,116.01L169.13,116.01L169.07,115.73L169.41,115.73zM272.43,117.35L272.42,117.65L271.59,117.57L271.52,117.05L271.86,117.00zM116.14,122.74L116.13,123.34L115.75,124.04L114.52,124.04L114.52,123.34L115.08,122.30L115.35,122.22zM184.95,123.01L184.39,123.00L184.33,122.73L184.77,122.64zM108.12,135.93L108.03,137.23L106.69,137.33L106.79,136.03L107.22,135.65L107.85,135.64zM104.20,140.60L106.02,141.88L105.94,142.17L105.52,142.16L103.39,140.56L103.34,140.31zM244.45,141.64L244.38,142.95L243.60,143.74L242.90,143.73L242.91,141.99L243.58,141.35zM170.22,148.08L170.21,148.98L169.82,149.38L169.08,150.45L168.27,151.20L167.31,151.21L167.32,150.52L167.88,148.99L169.32,147.82L169.94,147.80zM170.67,150.15L170.36,151.22L169.58,151.30L169.59,150.19L170.23,149.92zM173.32,152.47L173.30,153.64L172.68,154.31L171.71,154.32L171.74,153.65L172.45,152.23L173.04,152.19zM169.81,157.19L173.55,159.24L172.95,159.48L170.95,162.69L170.45,162.63L166.82,160.78L166.81,159.30L167.48,157.91L168.78,156.90zM168.64,162.09L167.03,162.06L166.99,161.81L168.14,161.81zM162.72,163.61L162.72,163.98L162.09,164.71L161.63,164.68L161.62,163.45L162.45,163.33zM194.54,164.63L194.52,165.80L193.90,166.47L192.87,166.58L192.94,164.99L193.37,164.38L194.28,164.37zM165.79,164.93L165.72,166.24L164.93,167.03L164.23,167.02L164.23,166.05L164.76,165.54L164.93,164.65L165.25,164.61zM162.18,162.44L161.66,162.95L161.10,163.95L159.57,164.77L159.55,162.92L160.51,161.55L161.03,161.29L162.17,161.29z"/><g><g><path style="stroke:#000000;stroke-width:0.500" d="M229.32,55.54L177.12,54.75"/></g><g><path style="fill:#000000" d="M178.12,54.75L178.11,54.65L178.10,54.56L178.08,54.46L178.04,54.37L178.00,54.28L177.95,54.20L177.89,54.12L177.83,54.05L177.75,53.98L177.68,53.92L177.59,53.87L177.50,53.83L177.41,53.80L177.31,53.77L177.22,53.76L177.12,53.75L177.02,53.76L176.92,53.77L176.83,53.80L176.74,53.83L176.65,53.87L176.56,53.92L176.49,53.98L176.41,54.05L176.35,54.12L176.29,54.20L176.24,54.28L176.20,54.37L176.16,54.46L176.14,54.56L176.12,54.65L176.12,54.75L176.12,54.85L176.14,54.95L176.16,55.04L176.20,55.14L176.24,55.22L176.29,55.31L176.35,55.39L176.41,55.46L176.49,55.53L176.56,55.58L176.65,55.63L176.74,55.68L176.83,55.71L176.92,55.73L177.02,55.75L177.12,55.75L177.22,55.75L177.31,55.73L177.41,55.71L177.50,55.68L177.59,55.63L177.68,55.58L177.75,55.53L177.83,55.46L177.89,55.39L177.95,55.31L178.00,55.22L178.04,55.14L178.08,55.04L178.10,54.95L178.11,54.85z"/></g><g><path style="fill:#fffbf0" d="M192.04,56.32L266.61,56.32L266.61,50.11L192.04,50.11z"/><path style="stroke:#000000;stroke-width:0.500;stroke-opacity:0.98" d="M192.04,56.32L266.61,56.32L266.61,50.11L192.04,50.11z"/><text xml:space="preserve" fill="#000000" stroke-width="0" x="192.81" y="54.57" font-size="3.79" opacity="1.00" font-family="MS Shell Dlg">M3*6mm Phillips Pan Head Machine Screw</text></g></g><g id="Actor_.0"><g style="stroke:#000000;stroke-width:0.353"><path d="M108.08,133.64L107.51,134.03L106.94,134.30L106.10,134.55L105.92,135.39L105.65,136.14L105.11,137.09L104.23,136.65"/><path d="M105.11,137.09L105.80,138.06L106.10,138.72"/><path d="M105.22,134.11L106.10,134.55"/><path d="M106.42,138.13L106.46,138.16L106.89,138.25L107.37,138.12L107.85,137.80L108.28,137.32L108.61,136.74L108.80,136.10L108.84,135.49L108.73,134.97L108.46,134.60L108.07,134.41L107.61,134.43L107.12,134.66L106.97,134.79L106.66,135.06L106.28,135.60L106.01,136.22L105.89,136.85L105.93,137.42L106.13,137.88L106.42,138.13"/><path d="M106.86,137.25L107.09,137.27L107.34,137.17L107.56,137.01L107.58,136.99L107.79,136.72L107.95,136.41L108.03,136.08L108.03,135.77L107.95,135.52L107.79,135.35"/><path d="M106.87,137.51L106.86,137.51L106.63,137.36L106.48,137.10L106.43,136.75L106.48,136.36L106.63,135.96L106.86,135.60L107.14,135.32L107.20,135.29L107.45,135.15L107.74,135.11L108.00,135.19L108.19,135.40L108.29,135.71L108.29,136.08L108.19,136.48L108.00,136.87L107.74,137.19L107.45,137.42L107.14,137.53L106.87,137.51"/><path d="M106.74,135.87L106.70,135.98L106.63,136.09"/></g><g style="stroke:#000000;stroke-width:0.705"><path d="M104.62,137.46L104.49,137.24L104.23,136.65L104.62,135.19L105.22,134.11L106.06,133.58L107.20,133.20L108.08,133.64L108.51,134.20L108.81,134.68L109.07,135.27L108.68,136.74L108.08,137.81L107.24,138.34L106.10,138.72L105.22,138.28L104.79,137.72L104.62,137.46"/><path d="M107.79,135.35L107.58,135.28L107.34,135.32L107.09,135.46L106.86,135.69L106.67,135.98L106.55,136.31L106.51,136.63L106.55,136.91L106.67,137.13L106.86,137.25"/></g></g><g id="Actor_.1"><g style="stroke:#000000;stroke-width:0.353"><path d="M124.24,90.62L123.58,91.72L123.25,91.57L123.05,91.50L122.98,91.51"/><path d="M123.58,91.72L184.60,122.25L185.26,121.14"/><path d="M126.31,93.41L126.30,93.45L126.41,93.56L126.64,93.73L127.31,94.17L128.04,94.58L128.33,94.72L128.52,94.79L128.59,94.79"/><path d="M133.88,98.79L133.81,98.79L133.62,98.72L133.34,98.58L132.61,98.17L132.24,97.94L131.89,97.70L131.70,97.56L131.59,97.45L131.60,97.41"/><path d="M148.92,105.64L148.85,105.64L148.64,105.56L148.00,105.23L147.60,105.00L147.23,104.76L146.76,104.44L146.67,104.37L146.56,104.26L146.57,104.22"/><path d="M168.10,114.99L168.09,115.03L168.21,115.14L168.44,115.32L169.14,115.77L169.53,116.00L169.89,116.20L170.19,116.34L170.38,116.41L170.46,116.41"/><path d="M183.14,121.84L183.13,121.88L183.24,121.99L183.47,122.16L184.15,122.60L184.87,123.01L185.16,123.15L185.35,123.22L185.42,123.22"/><path d="M184.60,122.25L185.01,122.46L185.93,123.00L186.35,123.28L186.68,123.51L193.74,128.84L193.95,129.02L194.03,129.12"/><path d="M186.68,123.51L187.34,122.41"/><path d="M190.72,127.22L190.64,127.22L190.45,127.15L190.17,127.01L189.44,126.60L188.76,126.16L188.54,125.99L188.42,125.88L188.43,125.84"/><path d="M193.74,128.84L194.40,127.74"/></g><g style="stroke:#000000;stroke-width:0.705"><path d="M123.75,92.16L123.27,91.79L123.05,91.62L122.98,91.51L123.64,90.41L123.71,90.39L123.92,90.46L124.24,90.62L185.26,121.14L185.67,121.35L186.59,121.90L187.01,122.17L187.35,122.41L194.40,127.74L194.61,127.91L194.68,128.02L194.03,129.12L193.96,129.14L193.75,129.07L193.42,128.91L132.40,98.39L131.99,98.17L131.18,97.70L130.66,97.36L130.32,97.13L123.75,92.16"/><path d="M128.59,94.79L128.54,94.71L128.37,94.57L127.75,94.15L127.12,93.79L126.68,93.55L126.44,93.44L126.31,93.41"/><path d="M131.60,97.41L131.73,97.45L131.97,97.55L132.67,97.93L133.39,98.38L133.66,98.57L133.83,98.71L133.88,98.79"/><path d="M148.92,105.64L148.87,105.56L148.69,105.41L148.06,104.98L147.28,104.53L146.95,104.36L146.70,104.25L146.57,104.22"/><path d="M170.46,116.41L170.40,116.33L170.23,116.18L169.59,115.75L169.20,115.52L168.75,115.27L168.49,115.13L168.24,115.02L168.10,114.99"/><path d="M185.42,123.22L185.37,123.14L185.20,123.00L184.58,122.58L183.84,122.14L183.51,121.98L183.27,121.87L183.14,121.84"/><path d="M188.43,125.84L188.57,125.87L188.81,125.98L189.50,126.35L190.22,126.80L190.49,127.00L190.66,127.14L190.72,127.22"/></g></g><g id="Actor_.2"><g style="stroke:#000000;stroke-width:0.353"><path d="M266.41,113.70L270.73,115.86L270.89,115.10L271.23,114.36L271.71,113.73L272.28,113.27"/><path d="M270.73,115.86L272.60,117.28"/></g><g style="stroke:#000000;stroke-width:0.705"><path d="M266.38,113.89L267.46,114.70L272.60,117.28L273.17,116.83L273.65,116.19L273.99,115.45L274.15,114.69L272.28,113.27L267.94,111.10"/></g></g><g id="Actor_.3"><g style="stroke:#000000;stroke-width:0.353"><path d="M246.22,130.84L241.06,128.26"/><path d="M248.45,129.82L241.06,126.12"/><path d="M265.01,101.63L258.02,98.13"/><path d="M262.74,123.29L262.45,123.08"/><path d="M262.30,122.78L262.42,123.01"/><path d="M264.35,120.25L264.01,120.11L263.71,120.14"/></g><g style="stroke:#000000;stroke-width:0.705"><path d="M256.87,99.61L241.06,126.12L240.83,126.60L240.71,127.11L240.71,127.59L240.83,127.98L241.06,128.26L245.13,131.34"/><path d="M265.98,100.42L259.74,97.29"/><path d="M264.05,120.10L264.35,120.25L264.58,120.55L264.70,120.97L264.68,121.48L264.54,122.01L264.27,122.51L263.92,122.93L263.52,123.22L263.11,123.34L262.74,123.29L262.54,123.20"/></g></g><g id="Actor_.4"><g style="stroke:#000000;stroke-width:0.353"><path d="M245.13,131.34L242.17,129.10L223.02,119.52"/></g><g style="stroke:#000000;stroke-width:0.705"><path d="M244.28,131.73L229.18,124.18L223.02,119.52L223.12,117.03L223.80,114.42L225.00,111.90L225.53,111.18L226.62,109.70L228.51,108.00L230.52,106.96L247.44,115.42"/></g></g><g id="Actor_.5"><g style="stroke:#000000;stroke-width:0.353"><path d="M156.75,163.35L150.27,160.11"/><path d="M150.24,157.95L157.47,161.57"/><path d="M165.85,147.52L158.62,143.91"/><path d="M172.55,163.41L172.53,163.51L172.55,164.00L172.70,164.40L172.96,164.66"/><path d="M173.54,161.76L173.61,161.69L174.02,161.53L174.41,161.53"/></g><g style="stroke:#000000;stroke-width:0.705"><path d="M156.75,165.05L151.01,160.71"/><path d="M157.79,145.06L150.91,156.57"/><path d="M166.71,146.26L160.41,143.11"/><path d="M174.19,161.42L174.41,161.53L174.72,161.71L174.93,162.04L175.01,162.49L174.96,163.01L174.78,163.54L174.49,164.03L174.12,164.42L173.72,164.67L173.31,164.75L172.96,164.66L172.71,164.53"/></g></g><g id="Actor_.6"><g style="stroke:#000000;stroke-width:0.353"><path d="M148.88,157.68L143.12,154.79"/><path d="M149.28,144.47L156.10,147.88"/></g><g style="stroke:#000000;stroke-width:0.705"><path d="M156.66,145.26L154.80,144.33L153.18,143.62L151.29,143.67L149.28,144.47L143.12,154.79L143.22,157.19L143.23,157.22L143.90,159.18L145.10,160.60L152.29,164.20"/></g></g><g id="Actor_.7"><g style="stroke:#000000;stroke-width:0.353"><path d="M142.54,73.44L142.46,73.36L142.27,73.21L141.99,73.01L141.65,72.79L141.28,72.58L140.93,72.38L140.63,72.23L140.42,72.14L140.32,72.12"/><path d="M146.18,69.62L146.16,69.55L145.95,69.35L145.92,69.33L145.53,69.03L145.48,69.00L144.94,68.64L144.87,68.59L144.25,68.21L144.15,68.15L143.52,67.78L143.45,67.74L142.87,67.44L142.81,67.41L142.36,67.20L142.32,67.18L142.04,67.09L142.02,67.08L141.95,67.10"/><path d="M145.18,69.01L145.11,68.92L144.92,68.77L144.64,68.58L144.30,68.36L143.93,68.14L143.58,67.95L143.28,67.80L143.07,67.71L142.96,67.69"/></g><g style="stroke:#000000;stroke-width:0.705"><path d="M145.18,69.01L142.54,73.44L142.49,73.46L142.33,73.41L142.07,73.29L141.74,73.11L141.38,72.90L141.02,72.68L140.70,72.47L140.46,72.30L140.33,72.18L140.32,72.12L142.96,67.69"/><path d="M145.08,69.18L145.24,69.27L145.30,69.30L145.76,69.51L145.80,69.53L146.09,69.63L146.11,69.63L146.18,69.62L146.27,68.83L146.09,68.02L146.02,67.87L145.97,67.79L145.78,67.63L145.49,67.42L145.11,67.18L144.85,67.02L144.44,66.78L144.07,66.59L143.78,66.46L143.61,66.40L143.41,66.42L142.61,66.65L141.95,67.10L141.98,67.17L142.18,67.36L142.22,67.39L142.61,67.68L142.66,67.72L142.86,67.85"/></g></g><g id="Actor_.8"><g style="stroke:#000000;stroke-width:0.353"><path d="M157.35,166.06L158.54,166.66L158.13,167.20L157.61,167.60L157.03,167.85L156.46,167.90L155.95,167.76L152.06,165.82L151.73,165.66L151.52,165.59L151.45,165.61"/><path d="M152.06,165.82L152.94,164.34"/><path d="M154.21,167.23L154.23,167.29L154.37,167.41L154.61,167.59L155.29,168.02L155.98,168.40L156.39,168.57L156.43,168.55"/><path d="M155.95,167.76L164.77,174.43"/><path d="M157.35,161.77L158.54,162.37L167.37,147.59L166.17,146.99"/><path d="M167.28,173.44L167.96,173.78L158.54,166.66L158.08,166.11L157.84,165.31L157.84,164.36L158.08,163.35L158.54,162.37"/><path d="M159.72,184.52L159.88,184.77L160.19,184.98L160.19,186.49"/><path d="M161.72,172.55L161.68,172.57L161.27,172.40L160.58,172.02L159.66,171.41L159.52,171.29L159.50,171.23"/><path d="M162.88,187.84L162.88,186.32L160.19,184.98"/><path d="M162.88,186.32L163.31,186.48L163.82,186.57L164.36,186.57L164.88,186.50L165.32,186.35L165.32,187.87"/><path d="M162.21,184.32L162.37,184.72L162.79,185.07L163.43,185.35L164.22,185.50L165.07,185.53L165.89,185.42L166.59,185.19L167.11,184.86L167.37,184.47"/><path d="M162.21,183.56L162.37,183.96L162.79,184.32L163.43,184.59L164.22,184.74L165.07,184.77L165.89,184.66L166.59,184.43L167.11,184.10L167.37,183.71"/><path d="M163.50,183.55L163.56,183.34L163.76,183.16L164.07,183.02L164.25,182.98L164.46,182.93L164.88,182.91L165.30,182.96L165.66,183.07L165.93,183.23L166.07,183.42L166.08,183.62"/><path d="M165.32,186.35L167.48,185.36"/><path d="M165.61,164.39L165.82,164.62L165.92,164.94L165.92,165.34L165.82,165.77L165.61,166.18L165.37,166.48L165.02,166.77L164.69,166.89L164.39,166.86"/><path d="M167.05,141.76L166.17,143.24L165.64,143.01L165.57,143.03"/><path d="M166.17,143.24L170.06,145.18"/><path d="M167.19,187.01L167.19,185.49L167.29,185.52L167.37,185.50"/><path d="M167.49,174.99L168.69,175.59L168.69,185.86L268.50,139.94"/><path d="M167.49,162.09L168.15,162.13L168.69,161.94"/><path d="M167.37,147.59L168.00,146.74L168.75,146.10L169.52,145.75L170.26,145.70L170.89,145.97"/><path d="M166.77,144.76L166.84,144.72L167.16,144.82L168.07,145.27"/><path d="M170.20,145.52L168.76,144.66L168.11,144.32L167.60,144.08L167.28,143.98L167.21,144.02"/><path d="M168.69,185.86L168.61,186.42L168.40,186.83L168.07,187.08"/><path d="M168.69,175.59L168.60,174.84L168.35,174.22L167.96,173.78"/><path d="M170.17,156.68L170.61,157.17L170.79,157.71"/><path d="M170.94,143.70L171.35,144.02L171.61,144.50L171.70,145.07L171.60,145.69L171.33,146.30L180.16,152.97"/><path d="M171.89,154.30L172.19,154.32L172.52,154.20L172.84,153.96L173.11,153.61L173.32,153.21L173.42,152.78L173.42,152.38L173.31,152.05L173.11,151.83"/><path d="M172.97,164.70L173.21,164.72"/><path d="M174.78,161.81L174.80,161.84"/><path d="M174.54,161.54L174.67,161.68"/><path d="M179.76,150.37L179.71,150.34"/><path d="M185.22,158.94L185.87,159.24L186.62,159.28L187.43,159.03L186.23,158.44"/><path d="M187.43,159.03L249.75,130.37L248.56,129.77"/><path d="M193.10,166.55L193.40,166.57L193.72,166.45L194.04,166.21L194.32,165.86L194.52,165.45L194.62,165.03L194.63,164.63L194.52,164.30L194.32,164.08"/><path d="M243.00,143.59L243.30,143.61L243.63,143.49L243.95,143.25L244.22,142.90L244.43,142.50L244.53,142.07L244.53,141.67L244.43,141.34L244.22,141.12"/><path d="M249.75,130.37L250.57,129.86L251.31,129.14L251.97,128.24L256.67,120.36L255.47,119.76"/><path d="M250.77,127.64L251.97,128.24"/><path d="M250.55,114.08L254.43,116.02L263.25,101.25"/><path d="M253.14,112.98L252.89,112.77L252.73,112.47L252.69,112.10L252.77,111.71L252.97,111.33L253.25,111.01L253.59,110.79L253.96,110.68L254.31,110.70L254.61,110.85"/><path d="M254.43,116.02L255.52,116.62L256.62,117.31L257.03,117.60L255.84,117.00"/><path d="M255.84,118.52L257.03,119.12L256.99,119.53L256.86,119.96L256.67,120.36"/><path d="M257.03,119.12L257.03,117.60L266.29,102.08L265.10,101.48"/><path d="M258.44,104.11L258.18,103.90L258.03,103.60L257.99,103.23L258.06,102.84L258.26,102.46L258.54,102.14L258.89,101.92L259.25,101.81L259.60,101.83L259.90,101.98"/><path d="M262.82,123.38L263.20,123.41L263.62,123.25L264.03,122.94L264.37,122.51L264.64,121.98L264.78,121.43L264.78,120.92L264.64,120.50L264.38,120.21"/><path d="M264.20,111.83L264.51,111.86L264.83,111.74L265.15,111.49L265.43,111.15L265.63,110.74L265.73,110.31L265.73,109.91L265.63,109.59L265.43,109.36"/><path d="M266.29,102.08L266.93,101.23L267.67,100.60L267.75,100.56L268.45,100.24L269.19,100.19L269.82,100.46"/><path d="M267.31,116.17L267.96,116.22L268.68,115.96L269.19,115.57"/><path d="M268.88,140.23L268.87,138.72L268.50,138.89"/><path d="M268.87,138.72L269.20,138.51L269.38,138.26L269.39,138.00"/><path d="M269.39,139.52L269.38,139.50"/><path d="M278.65,111.42L269.82,126.20L270.09,126.42L270.19,126.55"/><path d="M269.98,110.77L270.42,111.25L270.65,111.97L270.65,112.46"/><path d="M272.54,117.24L272.33,117.41L272.01,117.52L271.70,117.50"/></g><g style="stroke:#000000;stroke-width:0.705"><path d="M167.21,144.02L166.77,144.76L166.93,144.94L167.63,145.47L167.54,145.51L166.80,146.14L166.17,146.99L157.35,161.77L156.89,162.75L156.65,163.77L156.65,164.72L156.89,165.51L157.35,166.06L157.26,166.17L157.16,166.25L157.04,166.30L156.93,166.31L156.83,166.28L152.94,164.34L152.40,164.11L152.33,164.13L151.45,165.61L151.53,165.71L151.74,165.88L159.13,171.45L160.47,172.27L164.77,174.43L165.28,174.57L165.86,174.52L166.43,174.27L166.95,173.86L167.37,173.33"/><path d="M156.97,165.61L155.63,164.84L155.04,164.55L154.62,164.37L154.42,164.34L154.08,164.91"/><path d="M154.21,167.23L154.31,167.24L154.52,167.33L155.16,167.67L156.16,168.30L156.43,168.55"/><path d="M269.82,126.20L269.23,127.19L268.83,128.00L268.59,128.85L268.50,129.67L268.50,139.94L268.43,140.49L268.21,140.92L267.88,141.17L168.07,187.08L167.66,187.14L167.19,187.01L165.32,187.87L164.88,188.01L164.36,188.09L163.82,188.08L163.31,188.00L162.88,187.84L160.19,186.49L159.88,186.28L159.72,186.03L159.72,184.52L159.73,184.26L159.91,184.01L160.24,183.81L167.49,180.47"/><path d="M161.72,172.55L161.45,172.31L160.82,171.89L160.10,171.48L159.60,171.24L159.50,171.23"/><path d="M162.21,184.32L162.21,183.56L162.33,183.15L162.72,182.79L163.34,182.51L164.11,182.33L164.96,182.29L165.79,182.38L166.52,182.60L167.05,182.92L167.35,183.30L167.37,184.47"/><path d="M163.50,183.55L163.58,183.75L163.79,183.93L164.11,184.06L164.51,184.14L164.93,184.15L165.34,184.10L165.70,183.98L165.95,183.82L166.08,183.62"/><path d="M165.61,164.39L165.34,164.30L165.02,164.35L164.69,164.53L164.39,164.83L164.15,165.21L163.99,165.64L163.94,166.06L163.99,166.43L164.15,166.70L164.39,166.86"/><path d="M167.08,144.23L165.86,143.30L165.64,143.13L165.57,143.03L166.45,141.55L166.52,141.53L166.73,141.61L167.05,141.76L170.94,143.70L180.17,150.69L180.43,151.16L180.52,151.74L180.43,152.36L180.16,152.97L180.16,154.48L180.20,154.86L180.32,155.16L180.52,155.39L185.22,158.94"/><path d="M167.15,173.61L167.41,174.24L167.49,174.99L167.49,185.26L167.48,185.37L167.43,185.45L167.37,185.50"/><path d="M170.17,156.68L169.57,156.48L168.87,156.59L168.15,156.99L167.49,157.64L166.97,158.48L166.62,159.40L166.50,160.32L166.62,161.13L166.97,161.74L167.49,162.09"/><path d="M167.63,145.47L168.32,145.15L169.07,145.10L169.70,145.37L170.89,145.97L171.33,146.30"/><path d="M170.06,145.18L170.14,145.24L170.19,145.34L170.21,145.45L170.18,145.61"/><path d="M171.89,154.30L171.65,154.14L171.49,153.86L171.44,153.49L171.49,153.07L171.65,152.65L171.89,152.27L172.19,151.97L172.52,151.78L172.84,151.74L173.11,151.83"/><path d="M172.97,164.70L172.66,164.50L172.46,164.14L172.39,163.67L172.42,163.47"/><path d="M173.66,161.55L173.78,161.48L174.19,161.42L174.54,161.54"/><path d="M265.85,102.82L264.93,102.19L263.77,101.51L259.37,99.29L258.95,99.18L258.50,99.22L258.04,99.42L257.62,99.75L257.29,100.17L250.23,112.00L250.02,112.49L249.94,112.98L250.01,113.44L250.22,113.82L250.55,114.08L251.43,114.74L255.32,116.69L255.84,117.00L255.84,118.52L255.79,118.93L255.67,119.36L255.47,119.76L250.77,127.64L250.12,128.54L249.37,129.26L248.56,129.77L186.23,158.44L185.43,158.68L184.84,158.65"/><path d="M193.10,166.55L192.85,166.39L192.70,166.11L192.64,165.74L192.70,165.32L192.85,164.90L193.10,164.51L193.40,164.21L193.72,164.03L194.04,163.98L194.32,164.08"/><path d="M192.65,165.76L192.85,165.61L193.12,165.26L193.32,164.85L193.43,164.43L193.43,164.20"/><path d="M243.34,141.24L243.34,141.47L243.23,141.90L243.03,142.30L242.75,142.65L242.55,142.80"/><path d="M243.00,143.59L242.76,143.43L242.60,143.15L242.55,142.78L242.60,142.36L242.76,141.94L243.00,141.56L243.30,141.26L243.63,141.07L243.95,141.03L244.22,141.12"/><path d="M254.89,111.80L254.57,112.01L254.29,112.33L254.10,112.71L254.05,112.92"/><path d="M253.14,112.98L253.47,113.06L253.83,113.02L254.19,112.85L254.51,112.58L254.75,112.22L254.89,111.83L254.91,111.45L254.81,111.11L254.61,110.85"/><path d="M258.44,104.11L258.76,104.19L259.13,104.15L259.49,103.98L259.80,103.71L260.05,103.35L260.19,102.96L260.21,102.58L260.11,102.24L259.90,101.98"/><path d="M259.35,104.05L259.39,103.84L259.58,103.46L259.87,103.14L260.19,102.93"/><path d="M264.38,120.21L264.03,120.09L263.61,120.16L263.20,120.39L262.82,120.77L262.51,121.26L262.31,121.80L262.24,122.34L262.31,122.81L262.51,123.17L262.82,123.38"/><path d="M264.20,111.83L263.96,111.67L263.81,111.40L263.75,111.03L263.81,110.61L263.96,110.18L264.20,109.80L264.51,109.50L264.83,109.32L265.15,109.27L265.43,109.36"/><path d="M264.54,109.49L264.54,109.72L264.43,110.14L264.23,110.55L263.96,110.90L263.76,111.05"/><path d="M269.70,126.41L270.10,126.56L270.19,126.55L279.00,111.78L278.91,111.64L278.65,111.42L279.10,110.44L279.35,109.42L279.35,108.47L279.10,107.68L278.65,107.12L269.82,100.46L268.63,99.86L268.00,99.59L267.25,99.64L266.47,100.00L265.73,100.63L265.10,101.48L264.74,102.08"/><path d="M267.31,116.17L266.78,115.82L266.43,115.21L266.32,114.41L266.43,113.49L266.78,112.56L267.31,111.73L267.96,111.07L268.68,110.67L269.38,110.57L269.98,110.77"/><path d="M268.00,114.97L267.49,115.36L266.77,115.62L266.66,115.61"/><path d="M268.50,137.33L268.93,137.54L269.24,137.75L269.39,138.00L269.39,139.52L269.38,139.78L269.20,140.02L268.87,140.23L268.44,140.43"/><path d="M269.17,110.60L269.22,110.66L269.46,111.37L269.46,111.86"/><path d="M271.70,117.50L271.46,117.34L271.31,117.06L271.25,116.69L271.26,116.61"/><path d="M271.35,116.65L271.25,116.72"/></g></g><g id="Actor_.9"><g style="stroke:#000000;stroke-width:0.353"><path d="M171.47,163.34L171.14,162.91L170.98,162.29L166.54,160.07"/><path d="M168.33,156.89L172.85,159.15L170.98,162.29"/><path d="M172.85,159.15L173.42,159.08L173.90,159.27"/></g><g style="stroke:#000000;stroke-width:0.705"><path d="M168.71,156.68L168.76,156.70L173.90,159.27L174.24,159.70L174.39,160.32L172.52,163.45L171.96,163.53L171.47,163.34L166.59,160.89"/></g></g><g id="Actor_.10"><g style="stroke:#000000;stroke-width:0.353"><path d="M187.27,101.36L195.64,105.54L204.02,111.88"/><path d="M187.27,99.21L195.64,103.40L195.41,103.89L195.29,104.40L195.29,104.44L195.29,104.87L195.41,105.27L195.64,105.54"/><path d="M195.64,103.40L197.26,100.69"/><path d="M200.70,94.92L204.88,87.92"/></g><g style="stroke:#000000;stroke-width:0.705"><path d="M194.88,86.46L187.27,99.21L187.04,99.70L186.92,100.21L186.92,100.68L187.04,101.08L187.27,101.36L195.65,107.69L204.02,111.88L204.34,112.01L204.71,111.99L204.76,111.96"/><path d="M216.22,93.59L213.36,98.37"/></g></g><g id="Actor_.11"><g style="stroke:#000000;stroke-width:0.353"><path d="M137.82,156.96L136.62,155.54L135.95,153.55L135.85,151.15L116.70,141.58"/><path d="M122.86,131.26L142.01,140.83L144.02,140.03L145.91,139.98L147.53,140.70"/><path d="M135.85,151.15L142.01,140.83"/></g><g style="stroke:#000000;stroke-width:0.705"><path d="M143.21,156.88L141.34,157.62L139.44,157.67L137.82,156.96L118.68,147.38L117.48,145.97L117.00,144.56L116.80,143.98L116.70,141.58L122.86,131.26L124.87,130.45L126.77,130.41L128.38,131.12L147.53,140.70L148.73,142.11L149.41,144.10L149.42,144.41"/></g></g><g id="Actor_.12"><g style="stroke:#000000;stroke-width:0.353"><path d="M223.40,103.39L221.39,104.44L220.50,105.23L219.49,106.14L217.87,108.34L216.67,110.85L216.01,113.42L216.00,113.47L215.90,115.96L196.75,106.38"/><path d="M215.90,115.96L222.06,120.61"/></g><g style="stroke:#000000;stroke-width:0.705"><path d="M223.48,119.87L222.06,120.61L202.91,111.04L196.75,106.38L196.85,103.89L197.53,101.28L197.67,100.99"/><path d="M229.09,107.70L223.40,103.39L204.25,93.82L202.24,94.86L201.63,95.42"/></g></g><g id="Actor_.13"><g style="stroke:#000000;stroke-width:0.353"><path d="M96.19,133.06L104.47,137.20"/><path d="M96.19,130.92L104.56,135.11L104.34,135.60L104.21,136.10L104.21,136.58L104.23,136.64"/><path d="M104.26,136.72L104.34,136.97L104.41,137.06"/><path d="M104.56,135.11L112.95,121.06L104.57,116.87"/><path d="M121.33,149.92L106.39,138.63"/><path d="M112.95,121.06L113.26,120.64L113.63,120.32L114.02,120.14L114.14,120.13"/></g><g style="stroke:#000000;stroke-width:0.705"><path d="M122.83,149.46L122.78,149.53L122.40,149.85L122.01,150.03L121.64,150.05L121.33,149.92L112.95,145.73L96.19,133.06L95.96,132.78L95.84,132.39L95.84,131.91L95.96,131.41L96.19,130.92L104.57,116.87L104.89,116.45L105.26,116.13L105.65,115.95L106.02,115.93L106.34,116.06L114.27,120.03"/><path d="M116.86,121.88L130.48,132.17"/></g></g><g id="Actor_.14"><g style="stroke:#000000;stroke-width:0.353"><path d="M168.30,65.73L168.26,65.58"/><path d="M168.52,64.78L168.33,64.45L168.29,64.11L168.28,64.04L168.37,63.60L168.58,63.17L168.90,62.82L169.28,62.57L169.70,62.45L170.09,62.49L170.20,62.53L170.49,62.75L170.68,63.08L170.73,63.49L170.64,63.93L170.52,64.21L170.23,64.60L169.86,64.89L169.45,65.05L169.05,65.07L168.81,65.00L168.52,64.78"/><path d="M168.73,64.36L168.80,63.45L169.25,63.80L170.03,63.20L169.57,62.86L170.28,63.17"/><path d="M169.20,64.56L169.25,63.80L170.04,64.21"/><path d="M169.61,64.54L169.36,64.64"/><path d="M168.80,63.45L169.57,62.86"/><path d="M170.18,64.10L170.03,63.20L170.27,63.31"/><path d="M170.92,62.05L170.89,62.05"/><path d="M172.04,67.30L171.97,67.21"/><path d="M173.58,65.23L173.49,65.20"/></g><g style="stroke:#000000;stroke-width:0.705"><path d="M168.72,66.26L168.70,66.24L168.33,65.79L168.30,65.73L168.06,64.97L168.07,64.14L168.35,63.36L168.87,62.72L169.57,62.26L169.65,62.22L170.43,62.03L170.92,62.05L170.99,62.06L171.43,62.18L171.77,62.39L172.13,62.84L172.16,62.89L172.34,63.49L172.34,63.56L172.30,64.24L172.28,64.31L172.03,64.99L171.98,65.09L171.54,65.69L171.49,65.76L170.92,66.21L170.85,66.26L170.26,66.50L170.22,66.52L170.15,66.54L169.52,66.58L169.45,66.57L169.04,66.45L168.72,66.26"/><path d="M168.75,64.37L168.73,64.36L169.44,64.67L170.21,64.08L170.28,63.17"/><path d="M172.30,64.26L173.58,65.23L173.83,65.45L173.97,65.76L173.99,66.14L173.89,66.53L173.68,66.90L173.39,67.21L173.04,67.42L172.67,67.51L172.33,67.47L172.04,67.30L170.73,66.31"/></g></g><g id="Actor_.15"><g style="stroke:#000000;stroke-width:0.353"><path d="M230.62,84.11L230.53,83.84L230.52,83.71L230.57,83.27L230.76,82.84L231.05,82.46L231.43,82.18L231.69,82.07L232.10,82.02L232.47,82.11L232.76,82.34L232.93,82.69L232.97,82.95L232.92,83.39L232.73,83.82L232.44,84.20L232.06,84.48L231.79,84.57L231.65,84.63L231.25,84.63L230.91,84.48L230.66,84.21L230.62,84.11"/><path d="M230.98,83.12L231.44,83.46L232.17,82.79L231.71,82.45L230.98,83.12L231.02,84.00"/><path d="M232.24,83.78L231.44,83.46L231.47,84.13"/><path d="M231.71,82.45L232.47,82.66"/><path d="M231.81,84.19L231.76,84.21"/><path d="M232.40,83.64L232.17,82.79L232.48,82.88"/></g><g style="stroke:#000000;stroke-width:0.705"><path d="M230.45,85.04L230.64,85.46L230.74,85.60L230.78,85.65L231.24,86.00L231.30,86.02L231.88,86.15L231.95,86.15L232.58,86.05L232.65,86.03L233.28,85.70L233.34,85.66L233.88,85.15L233.93,85.09L234.00,84.98L234.32,84.46L234.36,84.38L234.56,83.70L234.59,83.23L234.52,82.77L234.50,82.70L234.22,82.17L234.18,82.12L233.73,81.77L233.67,81.74L233.09,81.61L233.02,81.61L232.78,81.63L232.03,81.72L231.37,82.07L231.09,82.32L230.63,82.85L230.49,83.24L230.30,83.79L230.27,84.17L230.33,84.60L230.43,85.02L230.45,85.08L230.56,85.27"/><path d="M231.02,84.00L231.78,84.21L232.50,83.54L232.47,82.66"/><path d="M232.97,85.86L234.47,87.00L234.80,87.08L235.16,87.03L235.52,86.85L235.84,86.57L236.08,86.22L236.21,85.83L236.23,85.44L236.12,85.11L235.91,84.85L234.53,83.81"/></g></g><g id="Actor_.16"><g style="stroke:#000000;stroke-width:0.353"><path d="M114.41,119.93L115.29,120.37L114.77,121.07L114.24,121.58L113.46,122.14L113.50,122.96L113.45,123.70L113.20,124.64"/><path d="M113.46,122.14L112.58,121.69"/><path d="M114.47,124.89L114.12,124.64L113.90,124.22L113.83,123.66L113.92,123.04L114.16,122.41L114.52,121.85L114.97,121.42L115.05,121.37L115.46,121.15L115.93,121.10L116.33,121.24L116.62,121.59L116.77,122.08L116.76,122.68L116.60,123.31L116.29,123.91L115.88,124.42L115.40,124.77L114.91,124.93L114.47,124.89"/><path d="M115.52,121.95L115.72,122.05L115.85,122.25L115.89,122.41L115.91,122.52L115.89,122.84L115.78,123.17L115.60,123.47L115.55,123.53L115.38,123.72L115.13,123.87L114.88,123.93L114.66,123.88"/><path d="M114.57,123.91L114.76,124.08L115.01,124.14L115.29,124.07L115.57,123.90L115.82,123.62L116.02,123.28L116.14,122.91L116.17,122.55L116.11,122.25L115.96,122.02L115.73,121.91L115.47,121.91"/><path d="M115.29,120.37L115.89,120.66L116.37,120.88L116.86,121.11"/></g><g style="stroke:#000000;stroke-width:0.705"><path d="M112.32,124.20L113.20,124.64L114.21,125.12L114.77,125.38L115.84,124.58L116.60,123.62L116.87,122.56L116.86,121.11L115.98,120.67L114.97,120.19L114.41,119.93L113.34,120.74L112.58,121.69L112.31,122.75L112.32,124.20"/><path d="M114.66,123.88L114.50,123.74"/><path d="M115.47,121.91L115.18,122.03L114.91,122.26L114.68,122.58L114.52,122.94L114.45,123.30L114.47,123.63L114.47,123.64L114.57,123.91"/><path d="M115.52,121.95L115.37,121.95"/></g></g><g id="Actor_.17"><g style="stroke:#000000;stroke-width:0.353"><path d="M156.92,143.87L157.80,144.32L158.59,143.76L158.60,143.74L159.11,143.25L159.63,142.55L158.75,142.11"/><path d="M157.80,144.32L157.84,145.08"/><path d="M159.63,142.55L160.24,142.84L160.71,143.06L161.20,143.29"/></g><g style="stroke:#000000;stroke-width:0.705"><path d="M156.92,146.51L156.66,146.38L156.66,144.94L156.92,143.87L157.69,142.92L158.75,142.11L159.31,142.37L160.32,142.85L161.20,143.29L161.20,143.51"/></g></g><g id="Actor_.18"><g style="stroke:#000000;stroke-width:0.353"><path d="M150.44,160.90L150.14,160.24L149.45,159.27L149.99,158.32L150.26,157.57L150.44,156.73L150.93,156.58"/><path d="M149.45,159.27L148.57,158.83"/><path d="M149.56,156.29L150.44,156.73"/></g><g style="stroke:#000000;stroke-width:0.705"><path d="M151.02,160.71L150.44,160.90L149.56,160.46L149.13,159.90L148.83,159.42L148.57,158.83L148.97,157.37L149.56,156.29L150.40,155.76L151.54,155.38L151.61,155.41"/></g></g><g id="Actor_.19"><g style="stroke:#000000;stroke-width:0.353"><path d="M94.33,136.94L98.22,138.89L99.10,137.41"/><path d="M93.93,134.34L95.13,134.94L97.01,136.36"/><path d="M95.21,135.46L95.13,135.40L95.08,135.30L95.06,135.19L95.08,135.06L95.13,134.94L94.67,134.39L94.43,133.59L94.43,132.65L94.67,131.63L95.13,130.65L93.93,130.05"/><path d="M95.13,130.65L103.95,115.87L102.76,115.27"/><path d="M99.59,140.14L99.49,140.12L99.28,140.04L98.64,139.70L97.65,139.06L97.45,138.91L97.37,138.82"/><path d="M98.22,138.89L98.63,139.10L99.55,139.64L100.29,140.15L107.35,145.48L107.57,145.66L107.64,145.76"/><path d="M100.29,140.15L101.18,138.67"/><path d="M103.19,156.24L103.34,156.49L103.65,156.70L103.65,158.22"/><path d="M102.67,142.82L102.94,143.07L103.93,143.70L104.58,144.04L104.79,144.12L104.89,144.14"/><path d="M103.65,156.70L106.35,158.05L106.35,159.56"/><path d="M103.95,115.87L104.58,115.02L105.33,114.39L106.11,114.03L106.85,113.98L107.48,114.25"/><path d="M110.56,155.84L110.44,156.24L110.05,156.61L109.43,156.89L108.66,157.06L107.81,157.11L106.98,157.01L106.25,156.80L105.71,156.48L105.42,156.10L105.40,155.68"/><path d="M105.40,154.93L105.42,155.34L105.71,155.72L106.25,156.04L106.98,156.25L107.81,156.35L108.66,156.30L109.43,156.13L110.05,155.85L110.44,155.49L110.56,155.08"/><path d="M105.58,154.67L105.48,154.60L105.33,154.39L105.28,154.14L105.28,144.67"/><path d="M105.28,154.14L118.03,148.27"/><path d="M106.35,158.05L106.77,158.20L107.29,158.29L107.83,158.29L108.35,158.22L108.79,158.07L108.79,159.59"/><path d="M109.26,155.09L109.19,154.89L108.98,154.71L108.66,154.58L108.26,154.50L107.84,154.49L107.42,154.54L107.07,154.66L106.82,154.82L106.69,155.02"/><path d="M107.16,153.94L118.73,148.62"/><path d="M107.35,145.48L108.23,144.01"/><path d="M110.27,115.74L108.44,114.36L108.34,114.33L108.23,114.34L108.11,114.39L108.00,114.48L107.92,114.58L110.02,116.16"/><path d="M108.79,158.07L125.07,150.58"/><path d="M113.21,114.83L112.33,116.30L108.44,114.36"/><path d="M114.38,118.93L114.22,118.75L113.84,118.44L113.27,118.05L111.85,117.18L110.56,116.49L110.14,116.32L109.94,116.29"/><path d="M113.27,118.28L113.23,118.30L113.08,118.25L112.13,117.75L111.45,117.32L111.21,117.14L111.07,117.02L111.05,116.96"/><path d="M110.38,115.55L110.58,115.58L111.00,115.76L111.37,115.94L112.29,116.44L113.03,116.87L114.28,117.70L114.67,118.01L114.83,118.19"/><path d="M112.33,116.30L113.22,116.79L114.08,117.33L114.41,117.57L115.29,116.09"/><path d="M112.81,118.27L115.31,120.16"/><path d="M114.42,118.87L115.56,119.74"/><path d="M114.41,117.57L121.47,122.90L122.35,121.43"/><path d="M115.23,120.29L115.43,120.32L115.85,120.50L117.14,121.18L118.56,122.05L119.13,122.44L119.52,122.74L119.68,122.93"/><path d="M115.68,119.55L115.87,119.58L116.29,119.76L116.88,120.05L118.32,120.87L119.57,121.70L119.96,122.01L120.12,122.19"/><path d="M116.86,121.39L117.42,121.75L118.12,122.13L118.52,122.30L118.57,122.28"/><path d="M121.47,122.90L121.68,123.08L121.76,123.18"/><path d="M158.51,111.45L124.04,127.30"/><path d="M130.78,132.29L130.92,132.39"/><path d="M141.29,137.57L177.47,120.93"/><path d="M141.98,137.92L155.48,131.71"/><path d="M183.24,123.82L147.07,140.46"/><path d="M160.47,132.88L160.34,133.29L159.95,133.65L159.34,133.94L158.56,134.11L157.71,134.15L156.88,134.06L156.16,133.84L155.62,133.52L155.33,133.14L155.31,132.73"/><path d="M155.31,131.97L155.33,132.38L155.62,132.76L156.16,133.08L156.88,133.30L157.71,133.39L158.56,133.35L159.34,133.18L159.95,132.89L160.34,132.53L160.47,132.12"/><path d="M156.59,132.06L156.72,131.86L156.98,131.70L157.33,131.59L157.74,131.53L158.17,131.54L158.56,131.62L158.88,131.76L159.09,131.93L159.17,132.14"/><path d="M178.15,121.28L157.06,130.98"/><path d="M185.15,98.05L186.35,98.64L162.36,109.68"/><path d="M180.68,109.34L180.92,109.49L181.08,109.77L181.13,110.14L181.08,110.56L180.92,110.99L180.68,111.37L180.38,111.67L180.05,111.85L179.73,111.90L179.46,111.81"/><path d="M200.73,110.23L181.31,119.16"/><path d="M182.01,119.51L201.42,110.58"/><path d="M186.35,98.64L187.16,98.14L187.91,97.42L188.55,96.52L187.36,95.92"/><path d="M186.94,122.12L206.80,112.99"/><path d="M192.06,88.04L193.25,88.64L188.55,96.52"/><path d="M197.59,87.81L196.70,87.15L192.82,85.20L192.41,85.01L192.15,84.92L192.06,84.94"/><path d="M193.25,88.64L193.45,88.24L193.58,87.81L193.62,87.40L192.42,86.80"/><path d="M193.64,85.84L193.62,85.88L192.42,85.29"/><path d="M192.82,85.20L194.34,82.64"/><path d="M193.62,87.40L193.62,85.88L193.55,85.82"/><path d="M196.70,87.15L197.12,87.26L197.58,87.22L198.04,87.02L198.45,86.69L198.78,86.27L199.66,86.93"/><path d="M196.17,84.46L195.96,84.20L195.86,83.86L195.90,83.42"/><path d="M198.78,86.27L199.43,85.19"/><path d="M203.25,78.77L204.46,76.75"/><path d="M206.41,68.74L205.78,68.47L205.04,68.52L204.92,68.57"/></g><g style="stroke:#000000;stroke-width:0.705"><path d="M107.92,114.58L107.48,114.25L106.29,113.65L105.65,113.38L104.91,113.43L104.62,113.56L104.13,113.79L103.39,114.42L102.76,115.27L93.93,130.05L93.48,131.03L93.23,132.05L93.23,133.00L93.48,133.79L93.93,134.34L93.67,134.95L93.57,135.57L93.66,136.15L93.92,136.62L103.15,143.61L107.04,145.55L107.36,145.71L107.57,145.78L107.64,145.76L108.52,144.28L108.45,144.18L100.84,138.44L100.43,138.17L99.51,137.62L95.21,135.46"/><path d="M97.37,138.82L97.41,138.80L97.82,138.97L98.51,139.35L99.43,139.96L99.57,140.08L99.59,140.14"/><path d="M101.73,139.09L102.03,138.59L101.98,138.48L101.71,138.23L101.22,137.88L99.87,137.02L98.48,136.25L97.97,136.02L97.66,135.91L97.58,135.95L97.26,136.49"/><path d="M126.65,151.37L108.79,159.59L108.35,159.74L107.83,159.81L107.29,159.81L106.77,159.72L106.35,159.56L103.65,158.22L103.34,158.00L103.19,157.76L103.20,155.98L103.38,155.73L103.70,155.53L105.58,154.67"/><path d="M102.67,142.82L102.70,142.80L102.86,142.85L103.81,143.35L104.49,143.78L104.73,143.96L104.87,144.08L104.89,144.14"/><path d="M102.87,139.96L102.95,139.91L103.27,140.02L103.78,140.25L104.43,140.60L105.88,141.46L106.52,141.88L107.00,142.23L107.28,142.48L107.32,142.59L107.02,143.09"/><path d="M104.56,155.14L104.37,154.80L104.15,154.16L104.08,153.54L104.08,144.07"/><path d="M110.56,155.84L110.56,155.08L110.40,154.68L109.98,154.32L109.34,154.05L108.55,153.89L107.70,153.87L106.88,153.98L106.17,154.21L105.66,154.54L105.40,154.93L105.40,155.68L105.41,155.67"/><path d="M106.69,155.02L106.69,155.22L106.84,155.41L107.11,155.57L107.47,155.68L107.89,155.73L108.31,155.71L108.70,155.62L109.01,155.48L109.20,155.30L109.26,155.09"/><path d="M116.86,121.54L118.12,122.29L118.78,122.63L119.29,122.87L119.60,122.97L119.68,122.93L119.99,122.41L120.02,122.41L121.15,122.97L121.69,123.20L121.76,123.18L122.64,121.70L122.56,121.60L122.35,121.43L114.96,115.86L113.63,115.04L109.32,112.88L108.81,112.74L108.24,112.79L107.66,113.04L107.14,113.45L106.79,113.90"/><path d="M110.38,115.55L109.94,116.29L109.98,116.40L110.26,116.65L110.74,117.01L112.10,117.87L113.48,118.63L113.99,118.87L114.31,118.97L114.38,118.93L114.83,118.19"/><path d="M113.27,118.28L113.00,118.04L112.00,117.40L111.36,117.06L111.15,116.98L111.05,116.96"/><path d="M115.25,120.32L115.23,120.29L115.68,119.55"/><path d="M116.86,121.17L117.30,121.40L118.01,121.84L118.49,122.19L118.57,122.28"/><path d="M119.99,122.41L120.12,122.19"/><path d="M123.10,126.59L157.31,110.85"/><path d="M130.72,132.29L130.78,132.29"/><path d="M148.18,141.47L184.82,124.61"/><path d="M160.47,132.88L160.47,132.12L160.31,131.72L159.89,131.37L159.25,131.09L158.46,130.94L157.61,130.91L156.78,131.02L156.08,131.25L155.57,131.58L155.31,131.97L155.31,132.73L155.32,132.71"/><path d="M156.59,132.06L156.60,132.26L156.75,132.46L157.02,132.62L157.38,132.72L157.79,132.77L158.22,132.75L158.61,132.66L158.91,132.52L159.11,132.34L159.17,132.14"/><path d="M193.64,82.29L192.06,84.94L192.16,85.07L192.42,85.29L192.42,86.80L192.37,87.23L192.26,87.64L192.06,88.04L187.36,95.92L186.71,96.82L185.96,97.55L185.15,98.05L161.16,109.08"/><path d="M179.46,111.81L179.26,111.58L179.15,111.26L179.15,110.86L179.26,110.43L179.46,110.02L179.73,109.68L180.05,109.43L180.38,109.31L180.68,109.34"/><path d="M179.93,109.52L179.88,109.96L179.73,110.39L179.48,110.77L179.15,111.09"/><path d="M188.21,123.06L208.38,113.78"/><path d="M200.41,85.68L199.66,86.93L199.33,87.36L198.92,87.69L198.46,87.88L198.00,87.93L197.59,87.81L193.70,85.87L193.55,85.82"/><path d="M196.17,84.46L196.47,84.61L196.82,84.63L197.19,84.52L197.57,84.26"/><path d="M197.33,84.14L197.21,84.51"/><path d="M208.67,70.44L206.41,68.74L205.87,68.47L205.22,68.14L204.58,67.87L203.84,67.92L203.73,67.97"/></g></g><g id="Actor_.20"><g style="stroke:#000000;stroke-width:0.353"><path d="M202.44,104.58L202.46,104.55L202.60,104.59L202.84,104.70L203.16,104.87L203.52,105.07L203.89,105.29L204.21,105.50L204.47,105.69L204.62,105.82L204.66,105.89"/><path d="M208.30,102.05L208.26,101.95L208.25,101.93L207.99,101.71L207.96,101.68L207.52,101.37L207.47,101.33L206.90,100.96L206.84,100.92L206.20,100.53L206.13,100.49L205.93,100.38L205.50,100.13L205.43,100.10L205.00,99.87L204.66,99.70L204.29,99.55L204.26,99.54L204.09,99.51L204.08,99.52"/><path d="M207.31,101.45L207.27,101.38L207.11,101.25L206.86,101.07L206.53,100.86L206.17,100.64L205.81,100.43L205.49,100.26L205.25,100.16L205.11,100.11L205.08,100.15"/></g><g style="stroke:#000000;stroke-width:0.705"><path d="M207.31,101.45L204.66,105.89L204.58,105.88L204.38,105.80L204.10,105.66L203.75,105.48L203.39,105.26L203.04,105.04L202.74,104.84L202.54,104.68L202.44,104.58L205.08,100.15"/><path d="M205.00,100.29L204.88,100.21L204.44,99.90L204.39,99.86L204.14,99.64L204.12,99.62L204.08,99.52L204.46,99.23L205.02,98.98L205.37,98.90L205.54,98.87"/><path d="M205.02,98.98L205.75,98.83L205.93,98.89L206.23,99.03L206.34,99.09L206.73,99.30L207.14,99.55L207.53,99.79L207.85,100.01L208.06,100.18L208.15,100.28L208.27,100.58L208.35,101.27L208.37,101.61L208.30,102.05L208.30,102.06L208.12,102.03L208.09,102.02L207.73,101.87L207.39,101.70L207.21,101.61"/></g></g><g id="Actor_.21"><g style="stroke:#000000;stroke-width:0.353"><path d="M277.82,111.49L277.52,111.77L277.30,111.91L276.96,112.00L276.66,111.93L276.43,111.72L276.29,111.39L276.28,110.98L276.37,110.54L276.57,110.10L276.86,109.73L277.19,109.46L277.30,109.41L277.64,109.32L277.94,109.38L278.17,109.59L278.30,109.92L278.33,110.18L278.27,110.63L278.10,111.07"/><path d="M276.73,110.60L277.04,110.94L277.40,110.02L278.02,110.33L277.66,109.73"/><path d="M278.02,110.33L277.66,111.25L277.04,110.94L276.65,111.11"/><path d="M276.94,111.58L277.66,111.25"/><path d="M277.32,109.89L277.40,110.02L276.93,110.08"/></g><g style="stroke:#000000;stroke-width:0.705"><path d="M275.62,112.46L275.52,112.46L275.44,112.45L275.39,112.44L274.98,112.20L274.94,112.17L274.66,111.73L274.64,111.67L274.54,111.08L274.53,111.01L274.55,110.87L274.61,110.33L274.63,110.25L274.87,109.55L274.91,109.48L275.25,108.93L275.30,108.85L275.35,108.79L275.84,108.30L275.90,108.25L276.31,108.00L276.68,107.88L277.18,107.88L277.24,107.89L277.65,108.12L277.69,108.16L278.21,109.00L278.35,109.71L278.36,110.11L278.27,110.63L278.22,110.82L278.10,111.07L277.84,111.47L277.82,111.49L277.63,111.74L277.09,112.10L276.81,112.28L276.43,112.41L275.98,112.47L275.62,112.46"/><path d="M276.94,111.58L276.58,110.99L276.94,110.06L277.66,109.73"/></g></g><g id="Actor_.22"><g style="stroke:#000000;stroke-width:0.353"><path d="M267.50,106.45L267.53,106.45"/><path d="M269.88,105.49L269.58,105.77L269.36,105.91L269.02,105.99L268.72,105.93L268.49,105.72L268.35,105.39L268.34,104.98L268.43,104.53L268.54,104.32L268.63,104.10L268.92,103.73L269.25,103.46L269.36,103.41L269.70,103.32L270.00,103.38L270.23,103.59L270.36,103.92L270.39,104.18L270.33,104.62L270.16,105.07"/><path d="M268.79,104.60L269.10,104.94L268.72,105.11"/><path d="M269.00,105.58L269.72,105.25L269.10,104.94L269.46,104.01L270.08,104.33L269.72,103.73"/><path d="M269.72,105.25L270.08,104.33"/><path d="M268.99,104.08L269.46,104.01L269.38,103.89"/><path d="M269.75,102.16L269.77,102.19"/></g><g style="stroke:#000000;stroke-width:0.705"><path d="M266.62,104.73L266.59,105.01L266.60,105.08L266.70,105.67L266.72,105.73L267.00,106.17L267.04,106.20L267.45,106.44L267.50,106.45L267.58,106.46L268.04,106.47L268.49,106.41L268.87,106.28L269.15,106.10L269.69,105.74L269.88,105.49L269.90,105.47L270.16,105.07L270.28,104.82L270.33,104.62L270.42,104.11L270.41,103.71L270.27,103.00L269.75,102.16L269.71,102.12L269.30,101.89L269.24,101.88L268.74,101.88L268.37,102.00L267.96,102.25L267.90,102.29L267.41,102.79L267.36,102.85L266.97,103.48L266.93,103.55L266.69,104.25L266.67,104.33L266.62,104.73"/><path d="M269.72,103.73L269.00,104.06L268.85,104.44L268.64,104.99L269.00,105.58"/></g></g><g id="Actor_.23"><g style="stroke:#000000;stroke-width:0.353"><path d="M147.83,77.45L147.77,77.37L147.59,77.22L147.37,77.07L147.32,77.03L146.98,76.82L146.61,76.60L146.26,76.40L145.95,76.24L145.73,76.15L145.61,76.12"/><path d="M151.48,73.61L151.39,73.48L151.37,73.46L151.08,73.22L151.04,73.19L150.57,72.86L150.51,72.82L149.93,72.44L149.86,72.40L149.22,72.02L149.15,71.98L148.53,71.63L148.46,71.59L148.04,71.38L147.73,71.23L147.40,71.10L147.37,71.10L147.25,71.10"/><path d="M148.26,71.69L148.38,71.71L148.60,71.81L148.72,71.87L148.90,71.96L149.26,72.16L149.63,72.38L149.96,72.60L150.23,72.79L150.41,72.93L150.48,73.01"/></g><g style="stroke:#000000;stroke-width:0.705"><path d="M150.48,73.01L147.83,77.45L147.77,77.46L147.60,77.40L147.33,77.27L147.00,77.09L146.63,76.88L146.28,76.66L145.97,76.45L145.74,76.28L145.62,76.17L145.61,76.12L148.26,71.69"/><path d="M150.38,73.18L150.68,73.34L150.99,73.49L151.32,73.61L151.35,73.62L151.48,73.62L151.48,73.61L151.55,73.17L151.49,72.61L151.42,72.13L151.31,71.84L151.19,71.73L150.96,71.54L150.62,71.32L150.22,71.07L149.81,70.83L149.43,70.62L149.33,70.57L149.05,70.45L148.89,70.40L148.16,70.55L147.61,70.81L147.25,71.10L147.24,71.10L147.33,71.23L147.35,71.25L147.64,71.50L147.70,71.54L148.16,71.86"/></g></g><g id="Actor_.24"><g style="stroke:#000000;stroke-width:0.353"><path d="M241.14,106.05L240.47,105.55L179.46,75.03"/><path d="M180.10,75.52L180.12,75.53"/><path d="M182.56,74.22L182.31,73.98L182.18,73.65L182.17,73.26L182.29,72.85L182.51,72.47L182.82,72.17L183.19,71.96L183.57,71.88L183.92,71.94L184.20,72.12"/><path d="M187.85,65.35L187.61,65.11L187.48,64.78L187.47,64.39L187.58,63.98L187.81,63.60L188.12,63.30L188.48,63.09L188.86,63.01L189.21,63.07L189.50,63.25"/><path d="M202.83,78.65L202.58,78.40L202.44,78.06L202.43,77.65L202.55,77.23L202.78,76.84L203.10,76.53L203.48,76.32L203.87,76.24L204.23,76.29L204.53,76.48"/><path d="M226.06,87.26L225.77,87.07L225.41,87.01L225.02,87.09L224.64,87.30L224.32,87.62L224.08,88.01L223.97,88.43L223.98,88.83L224.11,89.18L224.36,89.42"/><path d="M239.39,102.65L239.15,102.41L239.01,102.08L239.00,101.68L239.12,101.28L239.34,100.90L239.66,100.59L240.02,100.39L240.40,100.31L240.75,100.37L241.04,100.55"/><path d="M240.47,105.55L240.89,105.66L241.35,105.62L241.81,105.43L242.22,105.10L242.55,104.67L249.61,92.84L250.27,93.34"/><path d="M242.55,104.67L243.22,105.17"/><path d="M246.33,91.68L246.04,91.50L245.69,91.44L245.31,91.52L244.95,91.72L244.64,92.03L244.41,92.41L244.30,92.81L244.31,93.21L244.44,93.54L244.68,93.78"/><path d="M249.61,92.84L249.82,92.36L249.90,91.86L249.83,91.40L249.62,91.02L249.30,90.77"/><path d="M249.96,91.27L249.92,91.25"/></g><g style="stroke:#000000;stroke-width:0.705"><path d="M234.58,83.40L249.30,90.77L250.29,91.52L250.49,91.90L250.56,92.36L250.49,92.86L250.27,93.34L243.22,105.17L242.88,105.60L242.47,105.93L242.01,106.12L241.55,106.16L241.14,106.05L180.12,75.53L179.13,74.77L178.92,74.39L178.85,73.93L178.93,73.44L179.14,72.95L186.20,61.13L186.53,60.70L186.95,60.37L187.41,60.18L187.86,60.13L188.28,60.25L231.63,81.93"/><path d="M182.56,74.22L182.88,74.34L183.25,74.33L183.63,74.19L183.97,73.93L184.24,73.58L184.41,73.19L184.47,72.78L184.39,72.41L184.23,72.38L183.85,72.46L183.49,72.67L183.17,72.97L182.95,73.35L182.84,73.76L182.84,74.15L182.92,74.34"/><path d="M184.39,72.41L184.20,72.12"/><path d="M187.85,65.35L188.17,65.47L188.54,65.46L188.92,65.32L189.26,65.06L189.53,64.71L189.71,64.32L189.76,63.91L189.69,63.54L189.52,63.51L189.14,63.59L188.78,63.80L188.47,64.10L188.24,64.48L188.13,64.89L188.14,65.28L188.21,65.47"/><path d="M189.69,63.54L189.50,63.25"/><path d="M204.71,76.76L204.53,76.74L204.14,76.82L203.76,77.03L203.44,77.34L203.21,77.73L203.09,78.15L203.10,78.56L203.19,78.77"/><path d="M202.83,78.65L203.16,78.78L203.54,78.76L203.93,78.62L204.28,78.35L204.57,77.99L204.74,77.58L204.80,77.16L204.72,76.78L204.53,76.48"/><path d="M226.25,87.54L226.07,87.51L225.68,87.59L225.30,87.80L224.98,88.12L224.75,88.51L224.63,88.93L224.64,89.33L224.72,89.55"/><path d="M224.36,89.42L224.70,89.55L225.08,89.54L225.47,89.39L225.82,89.12L226.10,88.76L226.28,88.35L226.33,87.94L226.26,87.56L226.06,87.26"/><path d="M239.39,102.65L239.71,102.77L240.08,102.76L240.46,102.62L240.80,102.36L241.07,102.01L241.24,101.61L241.30,101.21L241.23,100.84L241.06,100.81L240.68,100.89L240.32,101.09L240.00,101.40L239.78,101.78L239.67,102.18L239.68,102.58L239.75,102.77"/><path d="M241.04,100.55L241.23,100.84"/><path d="M244.68,93.78L245.00,93.90L245.37,93.89L245.75,93.75L246.09,93.49L246.37,93.14L246.54,92.74L246.59,92.34L246.52,91.97L246.33,91.68"/><path d="M246.52,91.97L246.35,91.94L245.98,92.02L245.61,92.22L245.30,92.53L245.07,92.91L244.96,93.31L244.97,93.71L245.05,93.90"/></g></g><g id="Actor_.25"><g style="stroke:#000000;stroke-width:0.353"><path d="M199.36,101.89L199.34,101.83L199.19,101.70L198.95,101.52L198.63,101.31L198.27,101.09L197.90,100.88L197.58,100.71L197.33,100.60L197.18,100.55L197.14,100.57"/><path d="M203.02,98.02L203.01,98.01L202.87,97.85L202.84,97.83L202.49,97.56L202.45,97.52L201.94,97.18L201.88,97.13L201.44,96.86L201.01,96.59L200.37,96.22L200.30,96.18L199.97,96.01L199.72,95.87L199.66,95.84L199.20,95.63L199.16,95.61L198.88,95.51L198.86,95.51L198.78,95.54"/><path d="M202.01,97.45L201.98,97.39L201.84,97.27L201.59,97.09L201.37,96.94L201.27,96.88L200.91,96.66L200.55,96.45L200.25,96.29L200.23,96.28L199.97,96.16L199.82,96.11L199.79,96.14"/></g><g style="stroke:#000000;stroke-width:0.705"><path d="M202.01,97.45L199.36,101.89L199.27,101.88L199.06,101.79L198.77,101.65L198.42,101.46L198.06,101.24L197.71,101.02L197.42,100.82L197.23,100.67L197.14,100.57L199.79,96.14"/><path d="M201.92,97.61L202.08,97.70L202.14,97.73L202.59,97.94L202.64,97.96L202.92,98.06L202.95,98.06L203.02,98.02L203.09,97.30L202.93,96.53L202.85,96.28L202.75,96.17L202.52,95.99L202.20,95.77L201.94,95.61L201.53,95.36L201.13,95.14L200.79,94.96L200.54,94.85L200.41,94.83L200.28,94.84L199.50,95.07L198.78,95.54L198.79,95.55L198.79,95.56L198.92,95.71L198.95,95.74L199.29,96.00L199.34,96.04L199.70,96.29"/></g></g><g id="Actor_.26"><g style="stroke:#000000;stroke-width:0.353"><path d="M162.57,164.50L162.27,164.79L162.05,164.92L161.71,165.01L161.40,164.94L161.17,164.74L161.04,164.41L161.02,164.00L161.12,163.55L161.22,163.33L161.32,163.12L161.61,162.74L161.94,162.48L162.05,162.42L162.39,162.33L162.69,162.40L162.92,162.61L163.05,162.94L163.08,163.20L163.02,163.64L162.85,164.08"/><path d="M162.07,162.90L162.14,163.03L161.78,163.95L162.41,164.26L161.69,164.60"/><path d="M161.48,163.62L161.78,163.95L161.40,164.13"/><path d="M162.41,164.26L162.77,163.34L162.14,163.03L161.68,163.10"/><path d="M162.77,163.34L162.41,162.75"/></g><g style="stroke:#000000;stroke-width:0.705"><path d="M159.68,165.18L159.72,165.22L160.13,165.45L160.19,165.46L160.27,165.47L160.73,165.48L161.18,165.42L161.56,165.30L161.84,165.12L162.38,164.75L162.57,164.50L162.59,164.48L162.85,164.08L162.97,163.83L163.02,163.64L163.11,163.12L163.10,162.72L162.96,162.01L162.43,161.18L162.40,161.14L161.98,160.91L161.93,160.89L161.43,160.89L161.06,161.02L160.65,161.26L160.59,161.31L160.10,161.80L160.05,161.86L159.66,162.49L159.62,162.57L159.37,163.26L159.36,163.34L159.28,164.02L159.28,164.09L159.37,164.58L159.39,164.69L159.41,164.74L159.68,165.18"/><path d="M161.69,164.60L161.33,164.00L161.69,163.08L162.41,162.75"/></g></g><g id="Actor_.27"><g style="stroke:#000000;stroke-width:0.353"><path d="M174.30,56.19L173.96,56.05L173.71,55.77L173.61,55.54L173.58,55.12L173.68,54.68L173.85,54.35L173.90,54.26L174.23,53.92L174.48,53.75L174.89,53.60L175.29,53.60L175.64,53.74L175.89,54.02L176.01,54.39L176.00,54.82L175.86,55.26L175.59,55.66L175.24,55.97L175.11,56.04L174.70,56.19L174.30,56.19"/><path d="M174.57,55.82L173.97,55.34L174.05,55.03L174.19,54.42L175.02,53.97"/><path d="M173.97,55.34L174.43,55.69L174.58,55.81"/><path d="M174.19,54.42L174.65,54.77L174.43,55.69L175.10,55.53"/><path d="M175.47,54.32L174.65,54.77L175.41,55.35"/><path d="M175.50,54.97L175.48,54.33"/></g><g style="stroke:#000000;stroke-width:0.705"><path d="M177.57,55.36L177.50,55.71L177.47,55.79L177.14,56.44L177.09,56.51L176.59,57.06L176.53,57.12L176.07,57.43L175.63,57.62L175.00,57.72L174.93,57.72L174.35,57.59L174.29,57.56L173.83,57.22L173.79,57.17L173.51,56.64L173.48,56.56L173.39,56.13L173.34,55.44L173.49,54.98L173.69,54.40L174.01,54.01L174.35,53.69L174.69,53.45L175.11,53.27L175.56,53.17L175.99,53.16L176.13,53.17L176.70,53.30L176.76,53.33L177.22,53.67L177.26,53.72L177.50,54.16"/><path d="M174.57,55.82L175.40,55.37L175.63,54.44L175.02,53.97"/><path d="M177.57,55.38L178.85,56.34L179.10,56.55L179.25,56.86L179.28,57.23L179.20,57.62L179.00,58.00L178.71,58.31L178.37,58.53L178.00,58.64L177.65,58.61L177.36,58.46L176.03,57.45"/></g></g><g id="Actor_.28"><g style="stroke:#000000;stroke-width:0.353"><path d="M225.92,93.49L225.69,93.40L225.41,93.16L225.26,92.80L225.23,92.38L225.35,91.94L225.58,91.53L225.92,91.19L226.32,90.97L226.73,90.88L227.11,90.95L227.21,91.00L227.49,91.24L227.65,91.60L227.67,92.02L227.56,92.46L227.41,92.74L227.11,93.10L226.72,93.37L226.31,93.50L225.92,93.49"/><path d="M225.19,94.03L225.19,94.04"/><path d="M226.12,93.00L226.24,92.17L225.78,91.82L225.65,92.74"/><path d="M225.78,91.82L226.58,91.28L227.25,91.66"/><path d="M227.13,92.49L227.04,91.63L227.24,91.74"/><path d="M226.58,91.28L227.04,91.63L226.24,92.17L227.02,92.65"/><path d="M226.61,92.92L226.21,93.05"/></g><g style="stroke:#000000;stroke-width:0.705"><path d="M224.99,93.21L224.99,93.26L225.19,94.04L225.20,94.06L225.22,94.10L225.55,94.59L225.86,94.82L226.26,94.98L226.32,94.99L226.94,95.00L227.01,94.99L227.65,94.77L227.72,94.73L228.31,94.31L228.37,94.25L228.84,93.68L228.90,93.58L229.19,92.91L229.21,92.83L229.30,92.15L229.29,92.08L229.17,91.46L229.14,91.40L228.81,90.91L228.50,90.67L228.08,90.52L228.01,90.50L227.52,90.47L226.71,90.62L226.66,90.64L225.93,91.05L225.38,91.67L225.05,92.44L224.99,93.21"/><path d="M225.65,92.74L226.32,93.12L227.12,92.58L227.25,91.66"/><path d="M229.23,92.68L230.59,93.70L230.81,93.95L230.93,94.28L230.92,94.66L230.80,95.05L230.57,95.41L230.26,95.70L229.91,95.88L229.54,95.95L229.21,95.88L228.94,95.69L227.69,94.75"/></g></g><g id="Actor_.29"><g style="stroke:#000000;stroke-width:0.353"><path d="M260.22,97.11L259.45,97.15L258.39,97.03L257.83,98.09L256.82,99.22L255.94,98.78"/><path d="M256.82,99.22L256.93,99.64"/><path d="M258.39,97.03L257.51,96.59"/></g><g style="stroke:#000000;stroke-width:0.705"><path d="M260.34,97.59L260.22,97.11L259.34,96.67L258.56,96.58L258.03,96.55L257.51,96.59L256.91,97.20L256.43,97.82L255.94,98.78L255.93,99.95L256.14,100.83"/></g></g><g id="Actor_.30"><g style="stroke:#000000;stroke-width:0.353"><path d="M170.79,150.78L170.96,150.33L171.02,149.89L170.99,149.63L170.86,149.30L170.63,149.09L170.33,149.03L169.99,149.12L169.88,149.17L169.55,149.44L169.26,149.81L169.16,150.03L169.06,150.24L168.96,150.69L168.98,151.10L169.11,151.43L169.30,151.60L169.34,151.64L169.65,151.70L169.99,151.62L170.21,151.48L170.51,151.20"/><path d="M169.34,150.82L169.72,150.65L169.42,150.31"/><path d="M169.63,151.29L170.35,150.96L169.72,150.65L170.08,149.72L170.71,150.04L170.35,149.44"/><path d="M170.01,149.60L170.08,149.72L169.62,149.79"/><path d="M170.35,150.96L170.71,150.04"/></g><g style="stroke:#000000;stroke-width:0.705"><path d="M167.62,151.88L167.66,151.91L168.07,152.14L168.13,152.16L168.21,152.17L168.67,152.18L169.12,152.12L169.50,151.99L169.78,151.81L170.32,151.45L170.51,151.20L170.53,151.18L170.79,150.78L170.91,150.53L170.96,150.33L171.05,149.82L171.04,149.42L170.90,148.70L170.37,147.87L170.34,147.83L169.92,147.60L169.87,147.59L169.37,147.59L169.00,147.71L168.59,147.96L168.53,148.00L168.12,148.41L168.04,148.50L167.99,148.56L167.60,149.19L167.56,149.26L167.31,149.96L167.30,150.04L167.29,150.08L167.22,150.72L167.22,150.79L167.33,151.38L167.35,151.44L167.62,151.88"/><path d="M169.63,151.29L169.27,150.70L169.63,149.77L170.35,149.44"/></g></g><g><g/></g><g><g><path style="stroke:#ff0000;stroke-width:0.500;stroke-dasharray:0.6 0.6" d="M189.08,65.20L178.98,58.02"/></g></g><g><g><path style="stroke:#ff0000;stroke-width:0.500;stroke-dasharray:0.6 0.6" d="M173.69,66.89L183.79,74.06"/></g></g><g><g/></g><g><g><path style="stroke:#ff0000;stroke-width:0.500;stroke-dasharray:0.6 0.6" d="M133.20,98.25L119.81,119.51"/><path style="stroke:#ff0000;stroke-width:0.500;stroke-dasharray:0.6 0.6" d="M134.71,95.85L146.71,76.79"/></g></g><g><g><path style="stroke:#ff0000;stroke-width:0.500;stroke-dasharray:0.6 0.6" d="M245.74,93.75L235.91,86.47"/><path style="stroke:#ff0000;stroke-width:0.500;stroke-dasharray:0.6 0.6" d="M258.23,103.00L248.72,95.95"/></g></g><g><g><path style="stroke:#ff0000;stroke-width:0.500;stroke-dasharray:0.6 0.6" d="M240.74,102.40L230.63,95.32"/><path style="stroke:#ff0000;stroke-width:0.500;stroke-dasharray:0.6 0.6" d="M254.15,111.81L243.65,104.45"/></g></g><g><g><path style="stroke:#ff0000;stroke-width:0.500;stroke-dasharray:0.6 0.6" d="M128.01,94.32L114.69,115.68"/><path style="stroke:#ff0000;stroke-width:0.500;stroke-dasharray:0.6 0.6" d="M141.42,72.79L128.87,92.93"/></g></g><g><g/></g><g><g><path style="stroke:#ff0000;stroke-width:0.500;stroke-dasharray:0.6 0.6" d="M189.64,126.44L175.87,147.43"/><path style="stroke:#ff0000;stroke-width:0.500;stroke-dasharray:0.6 0.6" d="M203.55,105.22L190.65,124.90"/></g></g><g><g><path style="stroke:#ff0000;stroke-width:0.500;stroke-dasharray:0.6 0.6" d="M184.34,122.44L170.53,143.50"/><path style="stroke:#ff0000;stroke-width:0.500;stroke-dasharray:0.6 0.6" d="M198.25,101.22L185.21,121.11"/></g></g><g><g><path style="stroke:#000000;stroke-width:0.500" d="M229.32,55.54L177.12,54.75"/></g><g><path style="fill:#000000" d="M178.12,54.75L178.11,54.65L178.10,54.56L178.08,54.46L178.04,54.37L178.00,54.28L177.95,54.20L177.89,54.12L177.83,54.05L177.75,53.98L177.68,53.92L177.59,53.87L177.50,53.83L177.41,53.80L177.31,53.77L177.22,53.76L177.12,53.75L177.02,53.76L176.92,53.77L176.83,53.80L176.74,53.83L176.65,53.87L176.56,53.92L176.49,53.98L176.41,54.05L176.35,54.12L176.29,54.20L176.24,54.28L176.20,54.37L176.16,54.46L176.14,54.56L176.12,54.65L176.12,54.75L176.12,54.85L176.14,54.95L176.16,55.04L176.20,55.14L176.24,55.22L176.29,55.31L176.35,55.39L176.41,55.46L176.49,55.53L176.56,55.58L176.65,55.63L176.74,55.68L176.83,55.71L176.92,55.73L177.02,55.75L177.12,55.75L177.22,55.75L177.31,55.73L177.41,55.71L177.50,55.68L177.59,55.63L177.68,55.58L177.75,55.53L177.83,55.46L177.89,55.39L177.95,55.31L178.00,55.22L178.04,55.14L178.08,55.04L178.10,54.95L178.11,54.85z"/></g><g><path style="fill:#fffbf0" d="M192.04,56.32L266.61,56.32L266.61,50.11L192.04,50.11z"/><path style="stroke:#000000;stroke-width:0.500;stroke-opacity:0.98" d="M192.04,56.32L266.61,56.32L266.61,50.11L192.04,50.11z"/><text xml:space="preserve" fill="#000000" stroke-width="0" x="192.81" y="54.57" font-size="3.79" opacity="1.00" font-family="MS Shell Dlg">M3*6mm Phillips Pan Head Machine Screw</text></g></g><g/><g id="paperID" visibility="hidden" opacity="0.00" transform="scale(0.000100)"><path style="stroke:#000000;stroke-width:0.500;fill:#e6e6e6;fill-rule:evenodd" d="M-2000.00,-2000.00L2297.00,-2000.00L2297.00,2210.00L-2000.00,2210.00zM0.00,0.00L297.00,0.00L297.00,210.00L0.00,210.00z"/><path style="fill:#000000;fill-opacity:0.118" d="M3.00,210.00L297.00,210.00L297.00,3.00L300.00,3.00L300.00,213.00L3.00,213.00z"/></g><g id="ToolTip" visibility="hidden" opacity="0" transform="translate(0,0)"><rect id="ToolTipShadow" opacity="0.20" fill="black" stroke="none" x="0" y="0" width="30" height="8"/><rect id="ToolTipBG" fill="#ffffe1" stroke="black" x="0" y="0" width="30" height="8"/><text xml:space="preserve" id="ToolTipText" fill="black" x="0" y="0" width="30" height="8">tooltip</text></g></g></svg>
