<?xml version="1.0" encoding="UTF-8" standalone="no"?>
<svg xmlns="http://www.w3.org/2000/svg" xmlns:xlink="http://www.w3.org/1999/xlink" width="297.000mm" height="210.000mm" viewBox="0.000000 0.000000 297.000000 210.000000" stroke-linejoin="round" stroke-linecap="round" fill="none" fill-rule="evenodd"><desc>3DVIA Composer Export</desc><script type="text/ecmascript"><![CDATA[
if(typeof(top) != "undefined")
{
	top.ShowPaper = ShowPaper;
}
function ShowHotSpot(evt,hotspotid)
{
	var svgDocument = evt.target.ownerDocument;
	var strId = "hotspot."+hotspotid;
	var hotspot = svgDocument.getElementById(strId);
	if(hotspot)
		hotspot.setAttribute("opacity",".5");
}
function HideHotSpot(evt,hotspotid)
{
	var svgDocument = evt.target.ownerDocument;
	var strId = "hotspot."+hotspotid;
	var hotspot = svgDocument.getElementById(strId);
	if(hotspot)
		hotspot.setAttribute("opacity","0");

	var toolTip = svgDocument.getElementById('ToolTip');
	if(toolTip)
		toolTip.setAttribute("visibility","hidden");
}
function ShowToolTip(evt,hotspotid,strTooltip)
{
	if(strTooltip=="")
	return;

	// change text
	var svgDocument = evt.target.ownerDocument;
	var tiptext = svgDocument.getElementById('ToolTipText');
	if( !tiptext )
	return;
	tiptext.firstChild.nodeValue = " " + strTooltip + "  " ;

	// show tooltip before, else some refresh issue

	var toolTip = svgDocument.getElementById('ToolTip');
	if(!toolTip)
	return;

	toolTip.setAttribute("visibility","visible");
	toolTip.setAttribute("opacity",".95");

	// move tooltip
	// get viewbox

	var root = svgDocument.documentElement;
	var vbox = (root.getAttribute("viewBox")).split(' ');
	var x0 = parseFloat(vbox[0]);
	var y0 = parseFloat(vbox[1]);
	var vboxW = parseFloat(vbox[2]);
	var vboxH = parseFloat(vbox[3]);

	// get default width of svg

	var strW = root.getAttribute("width");
	var svgW = parseFloat(strW);
	if(strW.indexOf('mm') != -1)
	svgW *= 3.779;

	var strH = root.getAttribute("height");
	var svgH = parseFloat(strH);
	if(strH.indexOf('mm') != -1)
	svgH *= 3.779;  	// 96 dpi  -> 96/25.4 = 3.779

	// update the viewbox / width / height if svg is embedded in html with zoom fit all
	var realx0 = x0;
	var realy0 = y0;
	var realvboxW = vboxW;
	var realvboxH = vboxH;
	var realsvgW = svgW;
	var realsvgH = svgH;

	if ((typeof(top) == "undefined") || (typeof(top.svgctl1) != "undefined")) // embedded in html
	{
		// get window size in pxl

		svgW = window.innerWidth;
		svgH = window.innerHeight;

		// calculate real viewbox

		realsvgW = svgW;
		realsvgH = svgH;
		if((svgW / svgH) > (vboxW / vboxH))
		{
			realvboxW = (vboxH * svgW) / svgH;
			realvboxH = vboxH;
			realx0 = x0 - (realvboxW - vboxW)/2 ;
		}
		else
		{
			realvboxH = (vboxW * svgH) / svgW;
			realvboxW = vboxW;
			realy0 = y0 - (realvboxH - vboxH)/2 ;
		}
	}

	// get user zoom/pan

	var newScale = root.currentScale;
	var translation = root.currentTranslate;

	// transform pxl to user unit

	var xPos = (((evt.clientX+10- translation.x)/newScale) * realvboxW)/realsvgW  + realx0 ;
	var yPos = (((evt.clientY+5- translation.y)/newScale) * realvboxH)/ realsvgH  + realy0 ;
	var scaleForWidth = ( (1 / newScale) * realvboxH) / realsvgH;

	// move tooltip

	toolTip.setAttribute("transform", "translate(" + xPos + "," + yPos + ")" );

	// resize tooltip

	var fontsize = 12;
	tiptext.setAttribute("font-size",fontsize*scaleForWidth);
	tiptext.setAttribute("y", fontsize*scaleForWidth);
	var tipBG = svgDocument.getElementById('ToolTipBG');
	var outline = tiptext.getBBox();
	if(tipBG)
	{
		tipBG.setAttribute("stroke-width", 1*scaleForWidth);
		tipBG.setAttribute("width", Number(outline.width) );
		tipBG.setAttribute("height", Number(outline.height) + fontsize*.5*scaleForWidth );
	}
	var ToolTipShadow = svgDocument.getElementById('ToolTipShadow');
	if(ToolTipShadow)
	{
		ToolTipShadow.setAttribute("width", Number(outline.width) );
		ToolTipShadow.setAttribute("height", Number(outline.height) + fontsize*.5*scaleForWidth );
		ToolTipShadow.setAttribute("x", 3*scaleForWidth);
		ToolTipShadow.setAttribute("y", 3*scaleForWidth);
	}
}
function ShowPaper()
{
  var svgDocument = getDocument();
  var paper = svgDocument.getElementById("paperID");
  if(paper)
  {
    paper.setAttribute("transform","scale(1)");
    paper.setAttribute("opacity","1");
    paper.setAttribute("visibility","visible");
  }
  var svg = svgDocument.getRootElement();
  if(svg)
  {
    svg.setAttribute("width","307.000mm");
    svg.setAttribute("height","220.000mm");
    svg.setAttribute("viewBox","-5.000000 -5.000000 307.000000 220.000000");
  }
}
]]></script><defs/><g><path style="fill:#dcdcdc;fill-rule:evenodd" d="M148.72,119.74L148.09,119.74L148.09,119.11L148.72,119.11zM167.32,128.29L172.72,124.78L173.03,124.80L172.78,126.20L172.29,127.00L169.04,129.21L168.38,129.24L167.32,128.68zM144.59,131.75L144.49,132.08L143.95,132.16L144.03,131.62L144.36,131.52zM141.41,133.06L141.70,133.11L141.75,133.41L141.46,133.36zM143.21,134.14L142.12,134.12L143.19,133.33L143.31,133.37zM145.59,135.01L145.60,134.47L146.11,134.35zM161.35,135.93L160.49,136.02L160.49,135.70L161.40,135.66zM147.34,137.23L146.78,137.23L147.06,136.94L147.41,136.94zM146.05,138.00L145.49,138.00L145.77,137.72L146.12,137.72zM179.40,138.50L180.30,138.01L180.27,139.16L179.77,139.06zM157.28,139.30L157.28,139.65L157.00,139.58L157.00,139.02zM155.43,138.84L155.72,138.81L155.72,139.37L155.43,139.34zM246.02,140.88L245.76,142.51L238.00,149.76L236.65,147.59L236.68,146.91L245.49,139.06zM148.75,139.41L148.33,139.64L148.38,139.03L148.70,139.01zM153.64,140.48L153.38,140.73L153.30,139.52L153.61,139.53zM146.38,141.10L146.05,141.19L146.14,140.85zM153.67,141.36L153.64,141.70L150.18,143.19L148.92,143.47L148.63,143.19L153.42,141.11zM258.19,141.72L258.10,141.39L258.40,141.34zM147.69,141.98L146.51,141.88L147.69,141.12zM230.47,157.25L231.03,156.91L231.03,157.50L230.73,158.02L230.48,157.96zM195.57,157.50L195.02,158.05L194.94,157.42zM218.57,161.88L219.09,161.79L219.09,162.71L218.57,162.62zM239.47,165.69L238.90,165.69L239.19,165.41L239.53,165.41zM234.65,163.45L232.30,165.81L232.29,164.74L234.65,162.87zM223.00,163.96L220.81,165.73L220.30,165.72L220.58,164.94L222.35,163.88L223.01,163.38zM245.26,162.93L241.35,166.84L241.35,166.05L245.14,162.31L245.26,162.35zM232.06,166.82L231.51,167.36L231.43,166.74zM216.94,168.29L216.52,172.27L215.99,172.80L215.99,170.44L217.01,165.00L217.71,163.86L217.82,163.89zM210.37,173.86L209.77,174.61L209.78,173.78L210.31,173.71zM213.17,180.02L212.63,180.57L212.64,179.20L212.88,179.16zM217.57,179.76L217.02,180.30L216.94,179.68zM210.37,180.60L210.04,181.08L210.04,180.52L210.33,180.45zM220.47,184.48L220.14,184.96L220.14,184.40L220.42,184.33zM212.64,185.72L212.55,185.38L212.85,185.33zM223.50,185.19L224.03,184.85L223.92,186.43L223.50,186.43zM210.33,189.56L203.31,196.58L201.64,198.06L201.14,198.06L210.22,189.24zM201.55,199.44L201.07,199.78L201.17,198.78L201.49,198.79zM200.99,199.95L199.83,199.86L201.07,199.78zM204.76,201.39L205.90,201.24L206.55,199.30L215.16,190.77L215.48,190.88L206.68,199.69L206.44,201.26L205.82,201.70L205.08,201.70z"/><g><g><path style="stroke:#000000;stroke-width:0.500" d="M273.86,130.19L257.75,140.40"/></g><g><path style="fill:#000000" d="M258.72,140.39L258.71,140.29L258.70,140.19L258.68,140.10L258.64,140.00L258.60,139.91L258.55,139.83L258.49,139.75L258.43,139.68L258.35,139.61L258.27,139.55L258.19,139.50L258.10,139.46L258.01,139.43L257.91,139.40L257.82,139.39L257.72,139.39L257.62,139.39L257.52,139.40L257.43,139.43L257.34,139.46L257.25,139.50L257.16,139.55L257.08,139.61L257.01,139.68L256.95,139.75L256.89,139.83L256.84,139.91L256.80,140.00L256.76,140.10L256.74,140.19L256.72,140.29L256.72,140.39L256.72,140.48L256.74,140.58L256.76,140.68L256.80,140.77L256.84,140.86L256.89,140.94L256.95,141.02L257.01,141.09L257.08,141.16L257.16,141.22L257.25,141.27L257.34,141.31L257.43,141.34L257.52,141.37L257.62,141.38L257.72,141.39L257.82,141.38L257.91,141.37L258.01,141.34L258.10,141.31L258.19,141.27L258.27,141.22L258.35,141.16L258.43,141.09L258.49,141.02L258.55,140.94L258.60,140.86L258.64,140.77L258.68,140.68L258.70,140.58L258.71,140.48z"/></g><g><path style="fill:#fffbf0" d="M261.61,130.96L286.04,130.96L286.04,124.75L261.61,124.75z"/><path style="stroke:#000000;stroke-width:0.500;stroke-opacity:0.98" d="M261.61,130.96L286.04,130.96L286.04,124.75L261.61,124.75z"/><text xml:space="preserve" fill="#000000" stroke-width="0" x="262.38" y="129.21" font-size="3.76" opacity="1.00" font-family="MS Shell Dlg">M2.5 Hex Nut</text></g></g><g><g><path style="stroke:#000000;stroke-width:0.500" d="M258.96,118.84L252.97,145.27"/></g><g><path style="fill:#000000" d="M253.92,145.25L253.91,145.15L253.90,145.06L253.87,144.96L253.84,144.87L253.80,144.78L253.75,144.70L253.69,144.62L253.62,144.54L253.55,144.48L253.47,144.42L253.39,144.37L253.30,144.33L253.21,144.29L253.11,144.27L253.02,144.26L252.92,144.25L252.82,144.26L252.72,144.27L252.63,144.29L252.54,144.33L252.45,144.37L252.36,144.42L252.28,144.48L252.21,144.54L252.14,144.62L252.09,144.70L252.04,144.78L251.99,144.87L251.96,144.96L251.94,145.06L251.92,145.15L251.92,145.25L251.92,145.35L251.94,145.45L251.96,145.54L251.99,145.63L252.04,145.72L252.09,145.81L252.14,145.89L252.21,145.96L252.28,146.02L252.36,146.08L252.45,146.13L252.54,146.18L252.63,146.21L252.72,146.23L252.82,146.25L252.92,146.25L253.02,146.25L253.11,146.23L253.21,146.21L253.30,146.18L253.39,146.13L253.47,146.08L253.55,146.02L253.62,145.96L253.69,145.89L253.75,145.81L253.80,145.72L253.84,145.63L253.87,145.54L253.90,145.45L253.91,145.35z"/></g><g><path style="fill:#fffbf0" d="M238.21,119.61L279.59,119.61L279.59,113.40L238.21,113.40z"/><path style="stroke:#000000;stroke-width:0.500;stroke-opacity:0.98" d="M238.21,119.61L279.59,119.61L279.59,113.40L238.21,113.40z"/><text xml:space="preserve" fill="#000000" stroke-width="0" x="238.98" y="117.86" font-size="3.78" opacity="1.00" font-family="MS Shell Dlg">M2.5 Split Lock Washer</text></g></g><g><g><path style="stroke:#000000;stroke-width:0.500" d="M228.00,110.28L246.65,150.71"/></g><g><path style="fill:#000000" d="M247.58,150.68L247.57,150.58L247.56,150.48L247.54,150.39L247.50,150.30L247.46,150.21L247.41,150.12L247.35,150.04L247.29,149.97L247.21,149.91L247.13,149.85L247.05,149.80L246.96,149.75L246.87,149.72L246.77,149.70L246.68,149.68L246.58,149.68L246.48,149.68L246.38,149.70L246.29,149.72L246.20,149.75L246.11,149.80L246.02,149.85L245.94,149.91L245.87,149.97L245.81,150.04L245.75,150.12L245.70,150.21L245.66,150.30L245.62,150.39L245.60,150.48L245.58,150.58L245.58,150.68L245.58,150.78L245.60,150.87L245.62,150.97L245.66,151.06L245.70,151.15L245.75,151.23L245.81,151.31L245.87,151.39L245.94,151.45L246.02,151.51L246.11,151.56L246.20,151.60L246.29,151.64L246.38,151.66L246.48,151.67L246.58,151.68L246.68,151.67L246.77,151.66L246.87,151.64L246.96,151.60L247.05,151.56L247.13,151.51L247.21,151.45L247.29,151.39L247.35,151.31L247.41,151.23L247.46,151.15L247.50,151.06L247.54,150.97L247.56,150.87L247.57,150.78z"/></g><g><path style="fill:#fffbf0" d="M212.32,111.05L243.56,111.05L243.56,104.84L212.32,104.84z"/><path style="stroke:#000000;stroke-width:0.500;stroke-opacity:0.98" d="M212.32,111.05L243.56,111.05L243.56,104.84L212.32,104.84z"/><text xml:space="preserve" fill="#000000" stroke-width="0" x="213.09" y="109.31" font-size="3.77" opacity="1.00" font-family="MS Shell Dlg">M2.5 Flat Washer</text></g></g><g><g><path style="stroke:#000000;stroke-width:0.500" d="M253.26,201.73L212.97,192.69"/></g><g><path style="fill:#000000" d="M213.95,192.66L213.94,192.57L213.93,192.47L213.91,192.37L213.87,192.28L213.83,192.19L213.78,192.11L213.72,192.03L213.66,191.96L213.58,191.89L213.50,191.83L213.42,191.78L213.33,191.74L213.24,191.71L213.14,191.68L213.05,191.67L212.95,191.66L212.85,191.67L212.75,191.68L212.66,191.71L212.57,191.74L212.48,191.78L212.39,191.83L212.31,191.89L212.24,191.96L212.18,192.03L212.12,192.11L212.07,192.19L212.02,192.28L211.99,192.37L211.97,192.47L211.95,192.57L211.95,192.66L211.95,192.76L211.97,192.86L211.99,192.95L212.02,193.05L212.07,193.13L212.12,193.22L212.18,193.30L212.24,193.37L212.31,193.44L212.39,193.49L212.48,193.54L212.57,193.59L212.66,193.62L212.75,193.64L212.85,193.66L212.95,193.66L213.05,193.66L213.14,193.64L213.24,193.62L213.33,193.59L213.42,193.54L213.50,193.49L213.58,193.44L213.66,193.37L213.72,193.30L213.78,193.22L213.83,193.13L213.87,193.05L213.91,192.95L213.93,192.86L213.94,192.76z"/></g><g><path style="fill:#fffbf0" d="M213.30,202.47L293.16,202.47L293.16,196.27L213.30,196.27z"/><path style="stroke:#000000;stroke-width:0.500;stroke-opacity:0.98" d="M213.30,202.47L293.16,202.47L293.16,196.27L213.30,196.27z"/><text xml:space="preserve" fill="#000000" stroke-width="0" x="214.07" y="200.73" font-size="3.79" opacity="1.00" font-family="MS Shell Dlg">M2.5*25mm Phillips Pan Head Machine Screw</text></g></g><g id="Actor_.0"><g style="stroke:#000000;stroke-width:0.353"><path d="M143.48,136.06L143.74,136.03L144.05,136.14L145.12,138.01L145.05,138.30L144.87,138.48"/><path d="M144.05,136.14L146.67,134.51"/><path d="M147.76,136.35L145.12,138.01"/></g><g style="stroke:#000000;stroke-width:0.705"><path d="M147.78,136.64L144.87,138.48L144.61,138.51L144.30,138.39L143.24,136.54L143.31,136.24L143.48,136.06L146.32,134.30"/></g></g><g id="Actor_.1"><g style="stroke:#000000;stroke-width:0.353"><path d="M148.86,133.56L149.01,133.56"/><path d="M149.88,135.32L149.99,135.18"/></g><g style="stroke:#000000;stroke-width:0.705"><path d="M149.91,135.30L149.88,135.32L149.70,135.37L149.49,135.33L149.26,135.19L149.03,134.97L148.84,134.69L148.70,134.39L148.63,134.10L148.64,133.85L148.72,133.66L148.86,133.56"/></g></g><g id="Actor_.2"><g style="stroke:#000000;stroke-width:0.353"><path d="M160.14,124.18L169.49,118.41"/><path d="M167.02,128.29L172.99,124.45"/></g><g style="stroke:#000000;stroke-width:0.705"><path d="M157.98,122.88L166.23,117.86L167.18,117.62L168.30,117.81L169.49,118.41L172.99,124.45L172.88,125.69L172.43,126.65L171.68,127.25L168.60,129.24"/></g></g><g id="Actor_.3"><g style="stroke:#000000;stroke-width:0.353"><path d="M220.29,148.10L220.50,147.99L224.85,144.29"/><path d="M220.50,147.99L228.20,145.96L232.56,142.16"/><path d="M228.48,156.50L228.67,156.33L228.95,156.27L229.27,156.32L229.60,156.48L229.91,156.72L230.17,157.03L230.34,157.36L230.41,157.68L230.36,157.97L230.21,158.17"/><path d="M228.20,145.96L228.48,145.94L228.80,146.02L229.12,146.19L229.41,146.44L229.63,146.74L233.99,142.92"/><path d="M229.10,155.93L229.30,155.77L229.57,155.71L229.89,155.75L230.23,155.91L230.54,156.15L230.79,156.45L230.96,156.79L231.03,157.11L230.98,157.39L230.83,157.60"/><path d="M229.63,146.74L241.01,166.03L241.15,166.35L241.19,166.66L241.13,166.91L240.96,167.10"/><path d="M232.73,167.84L232.58,167.96L232.37,167.99L232.12,167.95L231.87,167.82L231.63,167.63L231.43,167.40L231.30,167.14L231.25,166.90L231.29,166.69L231.40,166.54"/><path d="M239.06,165.21L238.94,165.36L238.90,165.58L238.95,165.83L239.08,166.09L239.28,166.33L239.53,166.53L239.80,166.66L240.07,166.71L240.29,166.67L240.45,166.55"/><path d="M241.01,166.03L245.18,161.86"/></g><g style="stroke:#000000;stroke-width:0.705"><path d="M229.31,164.52L220.29,149.17L220.15,148.86L220.10,148.56L220.15,148.30L220.29,148.10L224.64,144.40L224.85,144.29L232.56,142.16L232.85,142.14L233.17,142.22L233.48,142.38L233.77,142.63L233.99,142.92L245.18,161.86L245.32,162.18L245.36,162.48L245.29,162.73L245.13,162.92L240.96,167.10L240.72,167.19L232.58,168.54L232.29,168.53L231.98,168.43L231.67,168.24L231.40,167.99L231.18,167.69L230.01,165.71"/><path d="M230.83,157.60L230.21,158.17L229.97,158.28L229.67,158.29L229.34,158.18L229.01,157.98L228.73,157.70L228.51,157.38L228.39,157.05L228.38,156.75L228.48,156.50L229.10,155.93"/><path d="M231.40,166.54L231.59,166.46L231.82,166.47L232.07,166.56L232.33,166.72L232.55,166.93L232.71,167.18L232.80,167.43L232.81,167.66L232.73,167.84"/><path d="M239.06,165.21L239.26,165.13L239.50,165.13L239.77,165.22L240.04,165.38L240.27,165.60L240.44,165.86L240.53,166.12L240.54,166.36L240.45,166.55"/></g></g><g id="Actor_.4"><g style="stroke:#000000;stroke-width:0.353"><path d="M225.84,144.02L231.51,142.45L239.00,135.96"/><path d="M240.13,134.99L240.94,134.28"/></g><g style="stroke:#000000;stroke-width:0.705"><path d="M225.84,144.02L235.27,135.98L238.55,135.00"/><path d="M243.07,144.78L237.89,149.53"/><path d="M239.94,134.58L240.94,134.28L242.52,135.15L243.93,136.37L245.03,137.83L245.73,139.41L245.97,140.96L245.72,142.34L244.18,143.76"/></g></g><g id="Actor_.5"><g style="stroke:#000000;stroke-width:0.353"><path d="M141.04,130.76L145.66,128.33L145.51,127.96L145.47,127.57L145.53,127.20L145.69,126.90L145.95,126.67L141.34,129.14"/><path d="M144.32,127.43L143.54,127.86L143.04,128.17"/><path d="M144.07,131.37L143.97,131.46L143.92,131.61L143.92,131.82L143.99,132.05L144.10,132.29L144.26,132.50L144.43,132.66L144.61,132.76L144.77,132.79L144.90,132.74"/><path d="M145.74,134.23L145.51,134.42L145.39,134.76L145.40,134.88"/><path d="M145.66,128.33L146.07,128.08"/><path d="M145.70,128.31L145.98,128.16"/><path d="M145.95,126.67L146.34,126.44"/><path d="M146.34,126.36L145.82,126.68"/><path d="M146.22,121.72L216.79,165.37L215.71,171.45L216.44,170.78"/><path d="M146.09,120.31L146.07,119.47L219.56,164.40L219.39,165.32"/><path d="M146.07,119.47L145.89,119.32L145.79,119.14"/><path d="M147.55,137.23L147.27,137.34L146.91,137.27L146.84,137.23"/><path d="M149.41,119.28L149.38,119.13L149.27,118.99L149.10,118.89L148.87,118.82L148.62,118.80L148.37,118.83L148.15,118.91L147.98,119.02L147.88,119.16L147.86,119.31"/><path d="M148.18,142.68L153.04,140.61L153.29,140.93L153.59,141.15L153.94,141.27L154.28,141.26"/><path d="M149.16,140.14L149.02,140.19L148.86,140.15L148.68,140.05L148.50,139.88L148.35,139.67L148.23,139.43L148.17,139.20L148.16,139.00L148.22,138.85L148.33,138.76"/><path d="M149.88,135.35L149.71,135.42L149.49,135.38L149.25,135.25L149.02,135.03L148.82,134.76L148.67,134.45L148.59,134.15L148.58,133.88L148.65,133.68L148.80,133.56"/><path d="M153.77,140.14L153.04,140.61L153.04,139.83L153.76,139.36"/><path d="M153.04,139.83L153.06,139.65L153.13,139.50L153.24,139.42"/><path d="M156.92,139.60L156.41,138.72L154.08,140.24L154.02,140.27"/><path d="M155.56,138.53L155.51,138.61L155.01,138.97L154.19,139.47L153.77,139.70"/><path d="M155.82,138.97L155.76,139.05L155.64,139.15L155.26,139.41L154.45,139.91L153.85,140.23"/><path d="M153.77,139.53L154.40,139.14L154.76,138.96L154.91,138.91"/><path d="M156.41,138.72L156.73,138.48L156.78,138.43"/><path d="M161.61,136.75L161.45,136.81L161.27,136.78L161.06,136.66L160.86,136.48L160.70,136.26L160.57,136.00L160.51,135.76L160.51,135.54L160.58,135.37L160.71,135.28"/><path d="M179.40,138.29L179.49,138.11L179.65,137.97L179.88,137.88L180.16,137.84L180.44,137.87L180.70,137.95L180.92,138.08L181.06,138.24L181.12,138.43"/><path d="M194.94,157.15L194.84,157.32L194.81,157.55L194.87,157.81L195.00,158.09L195.20,158.35L195.44,158.56L195.69,158.70L195.93,158.76L196.13,158.72"/><path d="M204.32,175.01L204.47,175.09L204.72,175.08L210.83,185.57"/><path d="M211.49,175.52L211.28,175.66L211.00,175.69L210.66,175.59L210.32,175.39L209.99,175.10L209.73,174.76L209.56,174.39L209.49,174.05L209.53,173.76L209.69,173.57"/><path d="M211.32,181.83L211.17,181.93L210.94,181.94L210.68,181.87L210.41,181.71L210.17,181.48L209.96,181.21L209.83,180.93L209.78,180.67L209.81,180.45L209.93,180.31"/><path d="M210.76,180.50L210.74,180.64"/><path d="M213.61,186.23L213.48,186.31L213.29,186.32L213.08,186.25L212.86,186.12L212.66,185.93L212.50,185.71L212.39,185.49L212.34,185.27L212.37,185.10L212.47,184.98"/><path d="M215.72,182.29L215.36,182.52L214.86,182.55L214.28,182.37L213.68,182.02L213.13,181.51L212.68,180.92L212.38,180.30L212.27,179.72L212.35,179.24L212.62,178.91"/><path d="M216.84,172.43L216.12,173.10L215.84,172.52L215.70,171.96L215.71,171.45"/><path d="M216.12,173.10L223.02,184.91L223.33,185.60L223.43,186.24L223.33,186.77L223.01,187.13"/><path d="M217.01,179.40L216.88,179.56L216.84,179.78L216.90,180.05L217.03,180.34L217.24,180.62L217.50,180.85L217.79,181.01L218.06,181.09L218.29,181.08L218.47,180.97"/><path d="M217.27,173.17L216.55,173.84L216.93,173.75L217.36,173.58L217.80,173.36L218.21,173.10L218.55,172.83L225.02,183.91"/><path d="M216.79,165.37L216.89,164.97L217.08,164.54L217.33,164.10L217.43,163.96L217.61,163.70L217.91,163.39L217.74,164.31"/><path d="M218.55,172.83L220.86,170.65L219.99,170.79"/><path d="M220.34,162.33L220.34,162.11L220.24,161.88L220.04,161.67L219.77,161.51L219.46,161.41L219.14,161.38L218.84,161.43L218.60,161.54L218.44,161.72L218.39,161.93"/><path d="M219.56,164.40L219.94,164.58L220.35,164.67L220.76,164.67L221.12,164.58L221.40,164.41L221.22,165.33"/><path d="M220.08,184.19L219.97,184.31L219.94,184.49L219.98,184.71L220.09,184.94L220.26,185.17L220.47,185.36L220.71,185.50L220.93,185.57L221.12,185.56L221.26,185.47"/><path d="M220.98,172.74L221.21,172.72L221.44,172.81L221.66,172.99L221.83,173.25L221.94,173.55L221.98,173.87L221.94,174.17L221.83,174.41L221.65,174.58L221.43,174.65"/><path d="M220.86,170.65L221.11,170.50"/><path d="M221.40,164.41L223.02,162.92L222.85,163.83"/><path d="M223.02,162.92L223.19,162.68"/><path d="M225.31,181.27L225.52,181.20L225.69,181.02L225.80,180.77L225.84,180.47L225.80,180.15L225.69,179.84L225.52,179.59L225.30,179.41L225.07,179.32L224.84,179.34"/></g><g style="stroke:#000000;stroke-width:0.705"><path d="M141.22,133.08L140.87,132.38L140.72,131.84L140.70,131.36L140.81,130.99L141.04,130.76L140.90,130.40L140.85,130.02L140.92,129.67L141.08,129.36L141.34,129.14L143.92,127.60L144.84,127.08L146.34,126.27"/><path d="M145.65,140.81L141.59,133.74"/><path d="M143.05,128.17L144.32,127.43"/><path d="M144.90,132.74L144.98,132.61L145.00,132.43L144.97,132.21L144.88,131.97L144.74,131.74L144.58,131.56L144.39,131.42L144.22,131.35L144.07,131.37"/><path d="M155.74,138.84L156.61,138.47L156.74,138.42L156.78,138.43L157.28,139.31L157.24,139.36L156.92,139.60L154.59,141.13L149.38,143.30L149.05,143.31L148.71,143.20L148.41,142.98L148.18,142.68L147.94,142.78L147.60,142.81L147.21,142.68L146.78,142.39L146.38,141.97L146.03,141.47"/><path d="M146.12,134.43L146.12,134.31L146.15,134.23"/><path d="M147.55,137.23L147.74,136.97L147.79,136.57L147.72,136.09L147.52,135.57L147.21,135.07L146.85,134.65L146.45,134.35L146.07,134.20L145.74,134.23"/><path d="M145.98,128.16L146.20,127.97L146.32,127.67L146.36,127.28L146.22,121.72L146.26,121.37L146.38,121.00L146.59,120.65L146.85,120.35L147.14,120.13"/><path d="M145.82,126.68L146.34,126.39"/><path d="M223.02,184.91L223.41,184.83L223.84,184.67L224.29,184.45L224.70,184.19L225.02,183.91L227.29,181.63L227.47,181.36L227.57,181.01L227.58,180.62L227.50,180.21L227.33,179.84L222.21,171.08L221.97,170.78L221.70,170.56L221.40,170.47L221.11,170.50L220.23,170.64L219.99,170.79L217.67,172.96L217.52,173.07L217.27,173.16L216.84,172.43L216.57,171.85L216.43,171.29L216.44,170.78L217.52,164.70L217.58,164.54L217.63,164.45L217.74,164.31L219.39,165.32L219.77,165.50L220.18,165.59L220.58,165.59L220.95,165.50L221.22,165.33L222.85,163.83L223.02,163.60L223.24,162.40L223.15,162.11L222.94,161.83L222.64,161.60L149.23,117.65L148.98,117.54L148.68,117.48L148.36,117.48L148.05,117.54L147.79,117.65L146.11,118.61L145.91,118.76L145.80,118.95L145.79,119.14L145.82,119.97L145.91,120.15L146.09,120.31L146.61,120.63"/><path d="M147.75,136.84L147.63,136.81L147.56,136.77"/><path d="M149.41,119.28L149.35,119.42L149.22,119.56L149.02,119.65L148.78,119.71L148.52,119.71L148.28,119.67L148.07,119.58L147.93,119.46L147.86,119.31"/><path d="M148.33,138.76L148.48,138.76L148.65,138.83L148.83,138.96L149.00,139.16L149.14,139.39L149.23,139.62L149.27,139.84L149.24,140.02L149.16,140.14"/><path d="M149.88,135.35L149.99,135.19L150.02,134.96L149.98,134.67L149.86,134.36L149.68,134.06L149.46,133.81L149.23,133.64L149.06,133.57L148.99,133.55L148.80,133.56"/><path d="M153.24,139.42L155.98,138.24L156.36,138.17L156.81,138.26L157.29,138.51L199.75,166.14L200.37,166.62L200.93,167.22L201.39,167.88L204.64,173.47L204.77,173.75L204.84,174.01L204.84,174.25L204.72,175.08"/><path d="M155.82,138.97L155.56,138.53L155.48,138.54L154.94,138.78L154.54,139.00L153.76,139.45"/><path d="M154.91,138.91L154.79,139.02L154.44,139.25L153.77,139.62"/><path d="M154.02,140.27L153.95,140.27L153.88,140.25L153.77,140.14L153.76,139.36L153.79,139.18"/><path d="M160.71,135.28L160.88,135.27L161.08,135.34L161.28,135.49L161.47,135.69L161.62,135.94L161.71,136.19L161.74,136.43L161.71,136.62L161.61,136.75"/><path d="M161.66,136.04L161.44,135.77L161.33,135.53"/><path d="M179.40,138.29L179.41,138.47L179.52,138.65L179.70,138.80L179.94,138.90L180.22,138.96L180.50,138.95L180.76,138.88L180.96,138.76L181.09,138.61L181.12,138.43"/><path d="M194.94,157.15L195.12,157.07L195.34,157.08L195.60,157.18L195.74,157.50L195.94,157.75L196.17,157.96L196.29,158.02"/><path d="M196.13,158.72L196.28,158.60L196.34,158.40L196.33,158.15L196.23,157.87L196.06,157.59L195.84,157.35L195.60,157.18"/><path d="M204.84,174.25L204.65,174.43L204.42,174.67L204.31,174.87L204.32,175.01L210.41,185.47L210.56,185.56L210.83,185.57L211.13,186.10L211.59,186.74L212.16,187.31L212.79,187.74L213.42,188.00L213.99,188.06L222.52,187.29L223.01,187.13L223.71,186.42L224.03,186.06L224.14,185.53L224.03,184.89L223.92,184.64"/><path d="M210.59,180.38L210.67,180.55L210.87,180.81L211.12,181.04L211.30,181.15"/><path d="M209.93,180.31L210.12,180.25L210.36,180.28L210.63,180.40L210.89,180.59L211.12,180.84L211.29,181.12L211.39,181.40L211.40,181.64L211.32,181.83"/><path d="M211.59,174.99L211.38,174.93L211.03,174.73L210.71,174.44L210.45,174.10L210.27,173.74L210.23,173.51"/><path d="M209.69,173.57L209.93,173.48L210.25,173.51L210.60,173.66L210.94,173.91L211.24,174.23L211.46,174.59L211.58,174.95L211.59,175.27L211.49,175.52"/><path d="M212.47,184.98L212.63,184.94L212.83,184.97L213.05,185.07L213.26,185.23L213.45,185.43L213.59,185.66L213.67,185.89L213.67,186.08L213.61,186.23"/><path d="M212.62,178.91L213.05,178.77L213.59,178.84L214.19,179.10L214.79,179.54L215.30,180.10L215.69,180.72L215.90,181.33L215.91,181.88L215.72,182.29"/><path d="M215.91,181.84L215.57,181.87L214.99,181.69L214.39,181.34L213.84,180.84L213.39,180.25L213.12,179.68L213.65,180.60"/><path d="M213.02,178.78L212.98,179.05L213.09,179.63L213.12,179.68L213.10,179.65"/><path d="M217.01,179.40L217.22,179.34L217.48,179.37L217.76,179.49L218.03,179.69L218.27,179.95L218.45,180.24L218.55,180.53L218.55,180.78L218.47,180.97"/><path d="M218.48,180.31L218.22,180.16L217.95,179.93L217.74,179.66L217.64,179.44"/><path d="M218.39,161.93L218.44,162.16L218.59,162.38L218.82,162.57L219.12,162.70L219.44,162.77L219.76,162.76L220.03,162.68L220.23,162.53L220.34,162.33"/><path d="M221.26,185.47L221.34,185.32L221.34,185.12L221.26,184.89L221.11,184.65L220.92,184.44L220.69,184.27L220.46,184.17L220.25,184.14L220.08,184.19"/><path d="M220.98,172.74L220.79,172.85L220.63,173.07L220.55,173.34L220.55,173.66L220.63,173.97L220.77,174.26L220.97,174.48L221.20,174.61L221.43,174.65"/><path d="M220.55,173.56L220.62,173.75L220.65,174.02"/><path d="M225.31,181.27L225.07,181.24L224.84,181.10L224.65,180.88L224.50,180.60L224.43,180.28L224.43,179.96L224.50,179.68L224.65,179.47L224.84,179.34"/><path d="M224.49,180.53L224.46,180.31L224.43,180.22"/></g></g><g id="Actor_.6"><g style="stroke:#000000;stroke-width:0.353"><path d="M229.28,164.21L231.06,163.88L231.51,164.26L231.85,164.72L232.06,165.20L232.10,165.65"/><path d="M233.73,161.34L231.06,163.88"/></g><g style="stroke:#000000;stroke-width:0.705"><path d="M229.53,165.14L229.87,165.59L230.31,165.97L232.10,165.65L234.76,163.09L234.72,162.65L234.52,162.17L234.17,161.72L233.73,161.34L231.95,161.69L229.28,164.21L229.32,164.66L229.53,165.14"/></g></g><g id="Actor_.7"><g style="stroke:#000000;stroke-width:0.353"><path d="M141.20,133.02L141.18,132.87L141.20,132.68L141.28,132.56L141.42,132.51L141.58,132.54L141.70,132.61L141.89,132.76L142.05,132.97L142.18,133.22L142.26,133.46L142.28,133.68L142.24,133.85L142.13,133.95L141.99,133.97L141.81,133.91L141.75,133.88"/><path d="M141.64,132.81L141.34,132.98L141.55,133.50L141.94,133.75"/><path d="M141.55,133.50L141.93,133.27L141.78,132.90"/><path d="M141.34,132.98L141.52,132.73"/><path d="M142.05,133.35L141.93,133.27L141.99,133.20"/></g><g style="stroke:#000000;stroke-width:0.705"><path d="M141.20,132.51L141.17,132.82L141.20,133.02L141.28,133.27L141.40,133.51L141.57,133.72L141.75,133.88L141.80,133.91L142.09,134.05L142.27,134.10L142.52,134.15L142.78,134.15L142.90,134.14L143.10,134.05L143.12,134.03L143.25,133.83L143.25,133.80L143.28,133.50L143.28,133.46L143.22,133.11L143.21,133.10L143.20,133.05L143.04,132.67L143.02,132.63L142.79,132.27L142.77,132.24L142.76,132.23L142.49,131.93L142.29,131.78L142.08,131.66L142.05,131.65L141.79,131.61L141.76,131.61L141.56,131.70L141.54,131.71L141.27,132.16L141.20,132.51"/><path d="M141.94,133.75L142.12,133.50L141.91,132.98L141.52,132.73"/></g></g><g id="Actor_.8"><g style="stroke:#000000;stroke-width:0.353"><path d="M145.64,140.75L145.62,140.61L145.64,140.42L145.73,140.30L145.87,140.26L146.04,140.30L146.16,140.37L146.35,140.53L146.51,140.74L146.64,140.98L146.72,141.23L146.74,141.44L146.69,141.61L146.58,141.70L146.43,141.72L146.25,141.65L146.19,141.61"/><path d="M146.38,141.50L145.99,141.23L145.79,140.72L146.07,140.54"/><path d="M145.79,140.72L145.97,140.48"/><path d="M146.23,140.65L146.37,140.99L145.99,141.23"/><path d="M146.50,141.08L146.37,140.99L146.44,140.92"/><path d="M145.85,139.63L145.84,139.66"/></g><g style="stroke:#000000;stroke-width:0.705"><path d="M145.62,140.37L145.61,140.55L145.64,140.75L145.71,140.99L145.84,141.24L146.01,141.45L146.19,141.61L146.24,141.64L146.54,141.79L146.71,141.83L146.96,141.88L147.22,141.88L147.32,141.87L147.34,141.87L147.55,141.79L147.57,141.78L147.70,141.58L147.71,141.55L147.74,141.26L147.74,141.22L147.67,140.86L147.66,140.82L147.50,140.44L147.48,140.39L147.25,140.03L147.22,139.99L146.95,139.69L146.74,139.53L146.53,139.41L146.50,139.40L146.23,139.35L146.21,139.35L146.00,139.42L145.98,139.44L145.85,139.63L145.70,139.88L145.64,140.23L145.62,140.37"/><path d="M146.39,141.50L146.38,141.50L146.57,141.26L146.36,140.75L145.97,140.48"/></g></g><g id="Actor_.9"><g style="stroke:#000000;stroke-width:0.353"><path d="M257.86,140.61L257.74,140.61L257.59,140.64L257.44,140.70L257.32,140.78L257.22,140.88L257.14,141.00L257.09,141.14L257.06,141.28L257.06,141.44L257.09,141.61L257.15,141.78L257.23,141.95L257.33,142.11L257.45,142.26L257.59,142.39L257.75,142.52L257.92,142.63L258.10,142.72L258.28,142.79L258.46,142.83L258.63,142.85L258.80,142.84L258.96,142.81L259.10,142.75L259.23,142.67L259.33,142.57L259.41,142.45L259.46,142.32L259.42,142.46L259.41,142.53L259.39,142.60L259.38,142.67L259.37,142.74L259.36,142.82"/><path d="M257.77,141.87L257.70,141.74L257.67,141.61L257.67,141.49L257.70,141.38L257.76,141.29L257.85,141.22L257.96,141.18L258.09,141.17L258.23,141.18L258.37,141.23L258.50,141.31L258.63,141.41L258.73,141.52L258.81,141.65L258.86,141.78L258.88,141.90L258.86,142.02L258.82,142.12L258.74,142.21L258.64,142.26L258.52,142.29L258.38,142.28L258.24,142.25L258.10,142.19L257.97,142.10L257.86,141.99L257.77,141.87"/><path d="M257.86,140.60L257.74,140.60L257.57,140.58L257.48,140.57L257.39,140.55L257.29,140.53"/><path d="M257.89,141.33L257.84,141.40L257.81,141.50L257.82,141.60L257.84,141.70L257.90,141.81L257.97,141.91L258.07,142.00L258.17,142.07L258.29,142.12L258.40,142.15L258.51,142.15L258.61,142.13L258.69,142.08"/><path d="M258.49,140.75L258.63,140.82L258.80,140.93L258.96,141.06L259.10,141.19L259.23,141.34L259.31,141.41L259.39,141.48L259.48,141.56L259.57,141.63L259.67,141.71L259.63,141.82L259.59,141.92L259.56,142.01L259.53,142.09L259.50,142.18L259.46,142.32L259.49,142.17L259.49,142.01L259.46,141.85L259.40,141.68L259.32,141.51L259.22,141.34L259.10,141.19L258.97,141.05L258.90,140.96L258.84,140.88L258.77,140.78L258.70,140.68L258.67,140.63"/><path d="M259.67,141.71L259.95,141.44"/></g><g style="stroke:#000000;stroke-width:0.705"><path d="M257.64,140.26L257.57,140.27L257.29,140.53L257.22,140.73L257.19,140.83L257.13,140.99L257.09,141.14L257.05,141.27L257.04,141.34L257.02,141.41L257.01,141.49L257.00,141.56L256.99,141.64L257.06,141.75L257.13,141.84L257.19,141.94L257.26,142.03L257.32,142.11L257.45,142.26L257.58,142.40L257.66,142.47L257.74,142.54L257.83,142.62L257.92,142.69L258.02,142.77L258.12,142.79L258.20,142.81L258.30,142.82L258.38,142.83L258.47,142.84L258.63,142.85L258.81,142.85L258.90,142.85L259.00,142.84L259.12,142.84L259.23,142.83L259.36,142.82L259.64,142.55L259.68,142.44L259.72,142.34L259.75,142.25L259.78,142.17L259.80,142.09L259.85,141.94L259.88,141.80L259.91,141.66L259.93,141.59L259.95,141.44L259.88,141.33L259.81,141.23L259.74,141.13L259.61,140.97L259.48,140.82L259.35,140.68L259.27,140.60L259.19,140.53L259.11,140.45L259.04,140.40"/><path d="M258.69,142.08L258.76,142.02L258.80,141.93L258.81,141.84L258.79,141.73L258.75,141.62L258.69,141.52L258.60,141.43L258.50,141.35L258.39,141.28L258.27,141.25L258.16,141.23L258.05,141.24L257.96,141.27L257.89,141.33"/><path d="M258.12,141.23L258.12,141.25L258.13,141.35L258.17,141.46L258.24,141.56L258.32,141.66L258.42,141.74L258.53,141.80L258.65,141.84L258.76,141.85L258.81,141.85"/></g></g><g id="Actor_.10"><g style="stroke:#000000;stroke-width:0.353"><path d="M198.87,198.72L199.00,198.93L199.14,199.13L199.23,199.14L199.32,199.14L199.37,199.18L199.41,199.20L199.45,199.22L199.59,199.38L199.74,199.53L199.87,199.51L200.01,199.48"/><path d="M199.32,199.14L199.81,198.69"/><path d="M199.45,199.22L199.85,198.74"/><path d="M199.79,198.65L199.14,199.13"/><path d="M198.45,197.93L198.44,197.84L198.44,197.75L198.45,197.66L198.46,197.60L198.49,197.53L198.52,197.47L198.56,197.42L198.61,197.37L198.66,197.34L198.72,197.31L198.79,197.29L198.86,197.28L198.94,197.28L199.03,197.29L199.12,197.31L199.21,197.34L199.31,197.37L199.40,197.42L199.50,197.47L199.61,197.53L199.71,197.60L199.81,197.67L199.91,197.75L200.01,197.84L200.11,197.93L200.20,198.03L200.30,198.13L200.38,198.24L200.46,198.34L200.54,198.45L200.61,198.56L200.67,198.67L200.73,198.78L200.78,198.89L200.82,199.00L200.86,199.10L200.88,199.20L200.90,199.30L200.91,199.39L200.91,199.48L200.90,199.56L200.89,199.64L200.86,199.70L200.83,199.76L200.79,199.81L200.74,199.86L200.69,199.89L200.65,199.91L200.63,199.92L200.56,199.94L200.48,199.94L200.40,199.94L200.32,199.93L200.23,199.91"/><path d="M198.96,198.19L198.99,198.19"/><path d="M198.86,198.21L198.95,198.42L199.05,198.63L199.26,198.46"/><path d="M199.05,198.63L199.04,198.67L199.05,198.73"/><path d="M198.55,197.35L198.54,197.36"/><path d="M198.59,197.30L198.64,197.25L198.70,197.21L198.76,197.19L198.83,197.17L198.91,197.16L198.99,197.16L199.08,197.17L199.17,197.19L199.27,197.21L199.37,197.25L199.47,197.30L199.57,197.35L199.68,197.41L199.79,197.48L199.89,197.56L200.00,197.65L200.10,197.74L200.20,197.83L200.30,197.93L200.40,198.04L200.49,198.15L200.57,198.26L200.65,198.37L200.72,198.49L200.79,198.60L200.85,198.72L200.90,198.83L200.94,198.94L200.98,199.05L201.01,199.15L201.03,199.26L201.04,199.35L201.04,199.44L201.03,199.53L201.01,199.60L200.99,199.67L200.95,199.73L200.91,199.79"/><path d="M199.74,199.53L199.82,199.29"/><path d="M200.00,198.97L199.85,199.02L199.71,199.07"/><path d="M209.05,188.30L209.05,188.31"/></g><g style="stroke:#000000;stroke-width:0.705"><path d="M198.80,198.77L198.86,198.86L198.96,199.00L199.07,199.13L199.19,199.25L199.31,199.37L199.44,199.48L199.57,199.58L199.70,199.67L199.84,199.75L199.94,199.80L200.04,199.85L200.13,199.89L200.23,199.91L200.35,199.94L200.44,199.95L200.52,199.95L200.60,199.94L200.71,199.92L200.77,199.89L200.83,199.86L200.86,199.83L200.91,199.79L201.29,199.41L201.39,199.31L201.44,199.18L201.47,199.02L201.46,198.83L201.41,198.62L201.33,198.40L201.22,198.18L201.08,197.95L200.92,197.72L200.73,197.51L200.54,197.31L200.33,197.14L200.11,196.99L199.90,196.87L199.70,196.79L199.51,196.75L199.34,196.74L199.19,196.77L199.07,196.83L198.59,197.30L198.53,197.39L198.49,197.45L198.47,197.52L198.46,197.56L198.44,197.63L198.44,197.71L198.44,197.80L198.45,197.90L198.47,198.03L198.50,198.13L198.53,198.23L198.57,198.34L198.62,198.44L198.69,198.58L198.77,198.72L198.80,198.77"/><path d="M198.99,198.19L198.99,198.19L199.13,198.16L199.21,198.37L199.31,198.58L199.37,198.61L199.44,198.66L199.58,198.62L199.73,198.56L199.86,198.77L200.00,198.97"/><path d="M198.87,198.72L198.95,198.73L199.05,198.73L199.28,198.52"/><path d="M198.86,198.21L199.00,198.18"/><path d="M199.82,199.74L199.70,199.67L199.71,199.67"/><path d="M199.78,199.71L199.75,199.70"/><path d="M200.01,199.48L199.86,199.33L199.71,199.18L199.72,199.15L199.72,199.11L199.71,199.07L199.92,198.85"/><path d="M201.26,198.25L210.20,189.47L210.26,189.39L210.28,189.28L210.27,189.15L210.22,189.00L210.15,188.84L210.04,188.69L209.92,188.54L209.78,188.42L209.63,188.32L209.48,188.24L209.34,188.21L209.22,188.20L209.12,188.24L209.05,188.30L200.12,196.99"/></g></g><g id="Actor_.11"><g style="stroke:#000000;stroke-width:0.353"><path d="M257.26,150.34L257.27,150.27L257.27,150.15L257.26,150.03L257.23,149.90L257.18,149.77L257.13,149.64L257.05,149.52L256.97,149.39L256.87,149.28L256.76,149.17L256.64,149.07L256.51,148.97L256.38,148.89L256.25,148.83L256.11,148.77L255.97,148.73L255.83,148.70L255.70,148.69L255.57,148.69L255.45,148.70L255.34,148.73L255.23,148.78L255.14,148.84L255.06,148.91L255.00,148.99L254.94,149.08L254.91,149.19L254.88,149.30L254.88,149.41L254.89,149.53L254.92,149.66L254.96,149.79L255.01,149.91L255.08,150.04L255.17,150.16L255.26,150.28L255.37,150.39L255.48,150.49L255.61,150.59L255.73,150.67L255.87,150.74L256.01,150.80L256.14,150.85L256.28,150.88L256.41,150.89L256.54,150.90L256.67,150.88L256.78,150.86L256.89,150.82L256.99,150.76L257.07,150.69L257.14,150.61L257.20,150.52L257.22,150.46L256.87,150.27L256.83,150.34L256.78,150.41L256.71,150.47L256.62,150.51L256.53,150.54L256.42,150.56L256.31,150.56L256.19,150.54L256.08,150.51L255.96,150.46L255.84,150.40L255.73,150.33L255.62,150.25L255.53,150.16L255.44,150.06L255.37,149.95L255.32,149.84L255.27,149.73L255.25,149.62L255.24,149.52L255.25,149.42L255.27,149.36L255.27,149.32L255.32,149.24L255.37,149.17L255.45,149.11L255.53,149.07L255.63,149.04L255.73,149.02L255.84,149.02L255.96,149.04L256.08,149.07L256.20,149.12L256.31,149.18L256.43,149.26L256.53,149.34L256.63,149.44L256.71,149.54L256.78,149.64L256.84,149.75L256.88,149.86L256.90,149.97L256.91,150.08L256.90,150.15"/><path d="M255.51,149.20L255.46,149.26L255.43,149.33L255.40,149.41L255.40,149.50L255.40,149.59L255.43,149.69L255.46,149.78L255.51,149.88L255.58,149.97L255.65,150.06L255.73,150.14L255.82,150.21L255.92,150.28L256.02,150.33L256.13,150.37L256.23,150.40L256.33,150.41L256.43,150.41L256.52,150.40L256.54,150.39L256.61,150.37L256.68,150.33L256.74,150.28"/><path d="M256.73,150.28L256.66,150.32L256.58,150.34L256.48,150.36L256.39,150.36L256.28,150.34L256.18,150.32L256.08,150.28L255.97,150.22L255.88,150.16L255.79,150.09L255.70,150.01L255.63,149.92L255.57,149.83L255.52,149.73L255.48,149.63L255.46,149.54L255.45,149.45L255.46,149.36L255.48,149.28L255.52,149.21"/><path d="M255.03,148.78L255.11,148.70L255.21,148.64L255.33,148.59L255.45,148.56L255.53,148.55L255.58,148.54L255.72,148.54L255.87,148.55L256.02,148.58L256.17,148.63L256.32,148.69L256.46,148.76L256.61,148.85L256.74,148.95L256.87,149.06L256.99,149.18L257.10,149.31L257.19,149.44L257.27,149.58L257.33,149.72L257.38,149.86L257.41,149.99L257.43,150.13L257.42,150.26L257.41,150.34"/><path d="M255.27,148.59L255.38,148.54L255.50,148.50L255.63,148.49L255.77,148.49L255.89,148.50L255.92,148.50L256.07,148.53L256.22,148.58L256.37,148.64L256.52,148.71L256.66,148.80L256.80,148.90L256.92,149.01L257.04,149.13L257.15,149.26L257.24,149.39L257.32,149.52L257.39,149.66L257.41,149.73L257.44,149.80L257.47,149.94L257.48,150.07L257.48,150.20L257.47,150.29"/><path d="M257.40,150.48L257.43,150.41L257.38,150.46L257.35,150.53L257.29,150.63L257.21,150.72"/><path d="M257.22,150.46L257.25,150.47L257.28,150.48L257.29,150.48L257.32,150.48L257.33,150.48L257.35,150.48L257.36,150.47L257.38,150.46"/><path d="M257.43,150.41L257.43,150.40L257.44,150.39"/><path d="M256.81,150.18L256.80,150.19L256.80,150.20L256.81,150.22L256.81,150.22L256.82,150.24L256.83,150.25L256.85,150.26L256.87,150.27"/></g><g style="stroke:#000000;stroke-width:0.705"><path d="M257.42,150.33L257.43,150.34L257.44,150.36L257.44,150.36L257.44,150.38L257.44,150.39L257.41,150.46L257.34,150.58L257.26,150.67L257.21,150.72L257.12,150.79L257.10,150.81L256.99,150.86L256.88,150.91L256.75,150.94L256.62,150.95L256.60,150.95L256.46,150.95L256.32,150.93L256.17,150.90L256.02,150.85L255.88,150.79L255.73,150.71L255.59,150.62L255.46,150.52L255.34,150.41L255.23,150.29L255.12,150.17L255.03,150.03L254.96,149.90L254.90,149.76L254.86,149.63L254.83,149.49L254.82,149.36L254.82,149.35L254.82,149.22L254.85,149.10L254.89,148.99L254.94,148.89L254.95,148.87L255.03,148.78L255.08,148.73L255.17,148.65L255.27,148.59L255.29,148.57L255.40,148.53L255.52,148.49L255.65,148.48L255.67,148.47L255.81,148.47L255.95,148.49L256.10,148.52L256.25,148.56L256.40,148.62L256.54,148.70L256.68,148.78L256.82,148.88L256.94,148.99L257.06,149.11L257.17,149.23L257.26,149.36L257.34,149.50L257.40,149.63L257.45,149.77L257.48,149.91L257.49,150.04L257.49,150.06L257.49,150.19L257.48,150.27L257.48,150.27L257.47,150.29L257.41,150.34L257.41,150.34L257.39,150.35L257.38,150.36L257.36,150.36L257.35,150.36L257.32,150.36L257.31,150.36L257.29,150.35L257.28,150.35L257.27,150.35L257.26,150.34L256.90,150.15L256.89,150.15L256.86,150.13L256.86,150.12L256.84,150.10L256.84,150.10L256.84,150.08L256.84,150.01"/><path d="M255.52,149.20L255.49,149.26L255.47,149.34L255.46,149.43"/><path d="M256.51,150.35L256.42,150.35L256.32,150.33L256.21,150.30L256.11,150.26L256.00,150.21L255.90,150.14L255.81,150.07L255.72,149.98L255.64,149.89L255.58,149.80L255.53,149.70L255.49,149.60L255.47,149.50L255.46,149.42"/><path d="M255.51,149.20L255.57,149.15"/><path d="M255.52,149.21L255.55,149.17"/><path d="M255.79,149.08L255.89,149.08L255.99,149.10L256.10,149.13L256.21,149.17L256.31,149.22L256.41,149.29L256.51,149.37L256.59,149.45L256.67,149.54L256.73,149.64L256.78,149.74L256.82,149.84L256.84,149.93L256.84,150.03"/><path d="M256.50,150.35L256.59,150.33L256.68,150.31L256.74,150.27"/><path d="M255.56,149.16L255.63,149.12L255.72,149.09L255.80,149.08"/><path d="M256.78,150.23L256.81,150.18L256.82,150.17L256.86,150.12"/><path d="M256.74,150.28L256.79,150.22"/><path d="M256.73,150.28L256.76,150.25"/></g></g><g id="Actor_.12"><g style="stroke:#000000;stroke-width:0.353"><path d="M248.65,153.59L248.77,153.46L248.87,153.31L248.93,153.14L248.96,152.95L248.96,152.75L248.92,152.53L248.86,152.32L248.81,152.21L248.76,152.10L248.63,151.88L248.48,151.68L248.30,151.48L248.11,151.31L247.90,151.15L247.67,151.02L247.45,150.91L247.22,150.83L246.99,150.78L246.77,150.76L246.56,150.78L246.37,150.82L246.20,150.89L246.05,150.99"/><path d="M247.88,152.83L247.78,152.89L247.65,152.92L247.51,152.91L247.36,152.88L247.22,152.81L247.07,152.72L246.95,152.61L246.84,152.48L246.76,152.34L246.70,152.20L246.68,152.06L246.70,151.93L246.74,151.83L246.82,151.74"/></g><g style="stroke:#000000;stroke-width:0.705"><path d="M246.22,150.85L246.19,150.87L246.05,150.99L245.93,151.12L245.84,151.27L245.78,151.44L245.75,151.63L245.76,151.83L245.79,152.04L245.86,152.26L245.96,152.47L246.08,152.68L246.23,152.89L246.41,153.08L246.60,153.26L246.81,153.41L247.03,153.55L247.25,153.65L247.48,153.73L247.71,153.79L247.93,153.81L248.14,153.80L248.33,153.76L248.50,153.68L248.65,153.59L248.78,153.46L248.91,153.33L249.00,153.18L249.06,153.01L249.09,152.82L249.09,152.62L249.06,152.40L248.99,152.19L248.89,151.97L248.77,151.75L248.61,151.55L248.44,151.36L248.24,151.18L248.03,151.02L247.81,150.89L247.58,150.78L247.35,150.70L247.12,150.65L246.90,150.64L246.70,150.65L246.60,150.67"/><path d="M246.87,151.71L246.83,151.81L246.82,151.93L246.84,152.07L246.89,152.21L246.97,152.35L247.08,152.48L247.21,152.59L247.35,152.68L247.50,152.75L247.65,152.78L247.79,152.79L247.91,152.76L247.97,152.73"/><path d="M246.82,151.74L246.92,151.68L247.05,151.66L247.19,151.66L247.34,151.70L247.48,151.76L247.63,151.85L247.76,151.97L247.86,152.09L247.95,152.23L248.00,152.38L248.02,152.51L248.01,152.64L247.96,152.75L247.88,152.83"/></g></g><g id="Actor_.13"><g style="stroke:#000000;stroke-width:0.353"><path d="M254.54,146.92L254.55,146.85L254.55,146.74L254.54,146.62L254.51,146.50L254.47,146.38L254.41,146.26L254.35,146.14L254.26,146.02L254.17,145.91L254.07,145.81L253.96,145.71L253.84,145.63L253.71,145.55L253.59,145.49L253.46,145.44L253.32,145.40L253.20,145.37L253.07,145.36L252.95,145.36L252.83,145.38L252.73,145.41L252.63,145.45L252.54,145.51L252.47,145.58L252.41,145.66L252.36,145.75L252.32,145.85L252.31,145.95L252.30,146.06L252.31,146.18L252.34,146.30L252.37,146.42L252.43,146.54L252.49,146.66L252.57,146.78L252.66,146.89L252.76,146.99L252.87,147.09L252.99,147.18L253.11,147.26L253.24,147.32L253.37,147.38L253.50,147.42L253.63,147.45L253.75,147.46L253.87,147.46L253.99,147.45L254.10,147.42L254.20,147.38L254.29,147.33L254.37,147.26L254.43,147.19L254.49,147.10L254.51,147.04L254.17,146.87L254.14,146.92L254.09,146.99L254.02,147.05L253.95,147.10L253.86,147.13L253.76,147.14L253.65,147.14L253.54,147.13L253.43,147.10L253.32,147.06L253.21,147.00L253.10,146.93L253.01,146.85L252.92,146.77L252.84,146.67L252.77,146.57L252.71,146.47L252.67,146.36L252.65,146.26L252.64,146.16L252.65,146.06L252.67,145.99L252.67,145.98L252.71,145.90L252.76,145.83L252.83,145.77L252.91,145.73L253.00,145.70L253.10,145.68L253.21,145.68L253.32,145.70L253.43,145.73L253.54,145.77L253.65,145.83L253.75,145.90L253.85,145.98L253.94,146.07L254.02,146.16L254.09,146.26L254.14,146.37L254.18,146.47L254.20,146.58L254.21,146.68L254.20,146.75"/><path d="M252.90,145.85L252.85,145.91L252.82,145.98L252.80,146.06L252.79,146.12L252.79,146.14L252.80,146.23L252.82,146.32L252.85,146.41L252.90,146.50L252.96,146.59L253.03,146.67L253.11,146.75L253.20,146.82L253.29,146.88L253.38,146.93L253.48,146.97L253.58,146.99L253.68,147.00L253.77,147.00L253.85,146.99L253.86,146.99L253.93,146.96L254.00,146.92L254.06,146.87"/><path d="M252.90,145.86L252.87,145.93L252.85,145.99L252.85,146.01L252.84,146.09L252.85,146.18L252.87,146.27L252.90,146.36L252.95,146.45L252.98,146.50L253.01,146.54L253.08,146.62L253.16,146.70L253.25,146.77L253.34,146.83L253.43,146.88L253.53,146.92L253.63,146.94L253.73,146.95L253.82,146.95L253.88,146.94L253.90,146.94L253.98,146.91L254.05,146.87"/><path d="M252.44,145.46L252.52,145.38L252.61,145.32L252.72,145.27L252.83,145.24L252.86,145.24"/><path d="M252.66,145.27L252.77,145.23L252.79,145.22"/><path d="M254.32,147.42L254.32,147.42"/><path d="M254.12,146.78L254.12,146.79L254.11,146.79L254.12,146.81L254.12,146.82L254.13,146.83L254.14,146.84L254.16,146.86L254.17,146.87"/><path d="M253.63,145.35L253.65,145.36L253.79,145.43L253.92,145.51L254.05,145.60L254.17,145.71L254.29,145.82L254.39,145.94L254.48,146.07L254.55,146.20L254.61,146.33L254.66,146.46L254.69,146.59L254.70,146.72L254.70,146.84L254.69,146.92"/><path d="M253.64,145.29L253.70,145.31L253.84,145.38L253.97,145.46L254.10,145.56L254.22,145.66L254.34,145.77L254.44,145.89L254.53,146.02L254.60,146.15L254.66,146.28L254.71,146.41L254.74,146.54L254.75,146.67L254.75,146.79L254.74,146.88"/><path d="M254.50,147.29L254.57,147.21L254.63,147.11L254.66,147.04L254.64,147.05L254.63,147.05L254.61,147.06L254.60,147.06L254.58,147.06L254.57,147.06L254.54,147.05L254.51,147.04"/><path d="M254.66,147.04L254.71,146.99L254.68,147.06L254.62,147.16"/><path d="M254.71,146.99L254.71,146.99L254.72,146.97"/></g><g style="stroke:#000000;stroke-width:0.705"><path d="M252.78,145.22L252.68,145.26L252.66,145.27L252.57,145.34L252.49,145.41L252.44,145.46L252.37,145.54L252.36,145.56L252.31,145.66L252.27,145.77L252.25,145.88L252.24,146.00L252.24,146.02L252.25,146.14L252.28,146.27L252.32,146.40L252.38,146.53L252.45,146.66L252.53,146.78L252.63,146.90L252.74,147.01L252.85,147.12L252.98,147.21L253.11,147.29L253.25,147.37L253.38,147.42L253.52,147.47L253.66,147.50L253.80,147.52L253.93,147.52L253.95,147.52L254.07,147.50L254.19,147.47L254.30,147.43"/><path d="M252.91,145.86L252.88,145.91L252.86,145.99L252.85,146.08"/><path d="M253.84,146.94L253.76,146.94L253.66,146.93L253.56,146.90L253.46,146.87L253.36,146.82L253.27,146.75L253.18,146.68L253.10,146.60L253.03,146.52L252.97,146.43L252.92,146.34L252.88,146.24L252.86,146.15L252.85,146.07"/><path d="M254.15,146.63L254.15,146.54L254.12,146.45L254.09,146.35L254.04,146.26L253.98,146.17L253.91,146.08L253.83,146.00L253.74,145.93L253.65,145.87L253.55,145.82L253.45,145.78L253.35,145.75L253.25,145.74L253.15,145.74"/><path d="M252.94,145.81L253.01,145.78L253.09,145.75L253.17,145.74"/><path d="M252.95,145.80L252.90,145.85"/><path d="M252.90,145.86L252.94,145.82"/><path d="M254.30,147.43L254.41,147.36"/><path d="M254.76,146.78L254.75,146.86L254.75,146.86L254.74,146.88L254.69,146.92L254.69,146.93L254.67,146.94L254.66,146.94L254.64,146.94L254.63,146.94L254.60,146.94L254.59,146.94L254.57,146.93L254.56,146.93L254.54,146.92L254.20,146.75L254.19,146.74L254.17,146.73L254.17,146.72L254.15,146.70L254.15,146.70L254.15,146.68L254.15,146.62"/><path d="M254.09,146.83L254.12,146.78L254.13,146.77L254.17,146.73"/><path d="M254.06,146.87L254.10,146.82"/><path d="M253.84,146.94L253.92,146.93L254.00,146.90L254.05,146.87"/><path d="M254.05,146.87L254.07,146.86"/><path d="M254.76,146.78L254.76,146.64L254.75,146.51L254.72,146.38L254.68,146.25L254.62,146.12L254.54,145.99L254.45,145.87L254.35,145.75L254.24,145.64L254.12,145.54L254.00,145.45L253.86,145.37L253.73,145.30L253.65,145.27"/><path d="M254.41,147.36L254.50,147.29L254.55,147.24L254.62,147.16"/><path d="M254.69,147.04L254.62,147.16"/><path d="M254.69,147.04L254.72,146.97L254.72,146.97L254.72,146.95L254.72,146.94L254.71,146.93L254.70,146.92L254.70,146.92"/></g></g><g id="Actor_.14"><g style="stroke:#000000;stroke-width:0.353"><path d="M203.62,200.24L203.63,200.25"/><path d="M204.50,201.04L204.30,200.90L204.10,200.74L204.09,200.64L204.09,200.52L204.04,200.46L204.00,200.38L203.85,200.22L203.71,200.06L203.72,199.91L203.75,199.75"/><path d="M203.71,200.06L203.97,199.98"/><path d="M203.34,199.57L203.32,199.46L203.31,199.37L203.31,199.27L203.32,199.18L203.33,199.10L203.36,199.03L203.40,198.96L203.44,198.91L203.49,198.86L203.55,198.81L203.61,198.78L203.69,198.76L203.77,198.75L203.85,198.74L203.94,198.75L204.04,198.76L204.14,198.79L204.24,198.82L204.35,198.87L204.46,198.92L204.56,198.98L204.67,199.05L204.78,199.12L204.89,199.21L205.00,199.30L205.09,199.38L205.20,199.49L205.30,199.60L205.37,199.68L205.48,199.82L205.56,199.93L205.63,200.05L205.70,200.17L205.76,200.28L205.81,200.40L205.86,200.51L205.89,200.62L205.92,200.73L205.94,200.84L205.95,200.94L205.95,201.03L205.94,201.12L205.92,201.20L205.89,201.27L205.86,201.34L205.81,201.40L205.76,201.44L205.70,201.48L205.63,201.52L205.56,201.54L205.54,201.54L205.48,201.55L205.39,201.55L205.30,201.55L205.20,201.53"/><path d="M203.42,198.84L203.42,198.85"/><path d="M203.47,198.78L203.52,198.73L203.58,198.69L203.65,198.65L203.73,198.63L203.81,198.62L203.90,198.61L203.99,198.62L204.09,198.63L204.20,198.66L204.30,198.70L204.41,198.74L204.53,198.79L204.64,198.86L204.75,198.93L204.87,199.01L204.98,199.09L205.09,199.19L205.20,199.29L205.30,199.39L205.40,199.50L205.50,199.61L205.59,199.73L205.67,199.85L205.75,199.97L205.82,200.09L205.88,200.21L205.94,200.33L205.98,200.45L206.02,200.57L206.05,200.68L206.07,200.79L206.08,200.89L206.08,200.99L206.07,201.08L206.05,201.16L206.02,201.24L205.98,201.31L205.94,201.37"/><path d="M204.54,201.22L204.57,201.24"/><path d="M204.47,201.17L204.46,201.16"/><path d="M205.01,201.03L204.80,200.93L204.60,200.82L204.57,200.82L204.54,200.83L204.49,200.82"/><path d="M204.26,199.73L204.20,199.90L204.16,200.06"/><path d="M204.10,200.74L204.63,200.00"/><path d="M204.60,200.82L204.79,200.58"/><path d="M204.09,200.52L204.60,199.98"/><path d="M204.00,200.38L204.55,199.94"/><path d="M204.42,199.85L204.38,199.87"/></g><g style="stroke:#000000;stroke-width:0.705"><path d="M204.34,201.07L204.20,200.96L204.08,200.83L203.95,200.70L203.84,200.56L203.73,200.42L203.64,200.27L203.56,200.13L203.50,200.01L203.44,199.90L203.40,199.78L203.36,199.67L203.34,199.57L203.31,199.43L203.30,199.33L203.30,199.23L203.31,199.14L203.33,199.06L203.34,199.02L203.36,198.94L203.40,198.88L203.47,198.78"/><path d="M204.41,199.84L204.16,200.06L204.12,200.06L204.09,200.06L204.05,200.07L203.90,199.91L203.75,199.75"/><path d="M203.47,198.78L203.89,198.36"/><path d="M203.91,198.35L204.02,198.25L204.17,198.20L204.34,198.18L204.53,198.20L204.74,198.26L204.97,198.36L205.19,198.49L205.42,198.66L205.64,198.85L205.84,199.07L206.03,199.30L206.05,199.33L206.19,199.53L206.32,199.78L206.42,200.01L206.49,200.24L206.51,200.45L206.50,200.64L206.46,200.80L206.37,200.93L205.94,201.37L205.88,201.42L205.82,201.46L205.79,201.48L205.72,201.52L205.64,201.54L205.60,201.55L205.52,201.56L205.43,201.56L205.34,201.55L205.24,201.54L205.10,201.50L205.00,201.47L204.90,201.42L204.79,201.37L204.68,201.31L204.57,201.24L204.48,201.17L204.34,201.07"/><path d="M205.01,201.03L205.06,200.71L204.85,200.61L204.64,200.50L204.62,200.45L204.56,200.36L204.61,200.20L204.66,200.02L204.46,199.88L204.26,199.73"/><path d="M204.74,200.56L204.49,200.82L204.49,200.94L204.50,201.04"/><path d="M205.09,198.43L214.11,189.54L214.20,189.48L214.32,189.45L214.46,189.47L214.61,189.52L214.77,189.60L214.92,189.72L215.07,189.86L215.19,190.01L215.29,190.17L215.36,190.34L215.39,190.49L215.38,190.62L215.34,190.73L215.27,190.81L213.92,192.15"/><path d="M212.82,193.25L206.30,199.74"/></g></g><g id="Actor_.15"><g style="stroke:#000000;stroke-width:0.353"><path d="M248.50,154.58L248.66,154.47L248.81,154.41L248.84,154.40L249.04,154.36L249.26,154.35L249.50,154.37L249.74,154.42L249.98,154.51L250.22,154.63L250.46,154.77L250.68,154.94L250.89,155.12L251.08,155.33L251.24,155.55L251.37,155.77L251.47,156.00L251.55,156.23L251.58,156.45L251.58,156.66L251.55,156.86L251.48,157.04L251.38,157.20"/><path d="M250.43,156.53L250.32,156.59L250.19,156.61L250.04,156.61L249.88,156.57L249.73,156.50L249.58,156.40L249.44,156.28L249.33,156.14L249.24,156.00L249.18,155.85L249.16,155.70L249.18,155.57L249.23,155.46L249.31,155.37"/></g><g style="stroke:#000000;stroke-width:0.705"><path d="M248.39,156.13L248.52,156.35L248.68,156.57L248.86,156.77L249.07,156.95L249.29,157.12L249.52,157.26L249.76,157.38L250.01,157.47L250.25,157.52L250.48,157.55L250.70,157.54L250.91,157.50L251.09,157.43L251.25,157.33L251.38,157.20L251.52,157.06L251.62,156.90L251.69,156.72L251.72,156.53L251.72,156.31L251.68,156.09L251.61,155.86L251.51,155.63L251.38,155.41L251.21,155.19L251.03,154.98L250.82,154.80L250.60,154.63L250.36,154.49L250.12,154.37L249.88,154.29L249.63,154.23L249.40,154.21L249.18,154.22L248.98,154.26L248.80,154.34L248.64,154.44L248.50,154.58L248.37,154.71L248.27,154.87L248.23,154.97L248.21,155.05L248.18,155.24L248.18,155.45L248.22,155.67L248.29,155.90L248.39,156.13"/><path d="M250.53,156.41L250.46,156.45L250.33,156.47L250.18,156.47L250.02,156.43L249.87,156.36L249.71,156.26L249.58,156.14L249.47,156.00L249.38,155.86L249.32,155.71L249.30,155.57L249.32,155.44L249.36,155.35"/><path d="M250.43,156.53L250.52,156.44L250.57,156.33L250.58,156.20L250.56,156.05L250.51,155.90L250.42,155.76L250.30,155.62L250.17,155.50L250.02,155.40L249.86,155.33L249.70,155.29L249.55,155.29L249.42,155.31L249.31,155.37"/></g></g><g id="Actor_.16"><g style="stroke:#000000;stroke-width:0.353"><path d="M262.30,145.89L262.31,145.81L262.33,145.74L262.34,145.66L262.36,145.59L262.38,145.52L262.41,145.38L262.36,145.51L262.27,145.64L262.16,145.74L262.03,145.83L261.88,145.88L261.71,145.92L261.53,145.92L261.35,145.90L261.16,145.85L260.96,145.78L260.77,145.69L260.59,145.57L260.42,145.43L260.28,145.29L260.15,145.13L260.04,144.96L259.96,144.78L259.90,144.61L259.87,144.43L259.87,144.27L259.90,144.11L259.96,143.97L260.04,143.85L260.15,143.74L260.28,143.66L260.43,143.60L260.60,143.57L260.77,143.56L260.96,143.57L261.06,143.57L261.17,143.56L261.29,143.56L261.41,143.55L261.54,143.53L261.83,143.25"/><path d="M260.75,144.32L260.70,144.40L260.67,144.50L260.67,144.60L260.70,144.71L260.75,144.82L260.83,144.93L260.93,145.02L261.05,145.10L261.17,145.15L261.29,145.18L261.41,145.19L261.51,145.16L261.60,145.12"/><path d="M261.14,145.29L261.12,145.29L260.97,145.22L260.84,145.13L260.72,145.02L260.62,144.89L260.55,144.75L260.51,144.62L260.51,144.49L260.55,144.37L260.61,144.28L260.67,144.24L260.71,144.21L260.83,144.17L260.96,144.15L261.11,144.18L261.26,144.23L261.40,144.31L261.53,144.41L261.64,144.53L261.73,144.66L261.78,144.80L261.80,144.94L261.78,145.06L261.73,145.17L261.65,145.25L261.54,145.31L261.41,145.33L261.27,145.33L261.14,145.29"/><path d="M261.54,143.53L261.62,143.65L261.69,143.76L261.76,143.86L261.83,143.95L261.90,144.04L262.03,144.19L262.18,144.34L262.26,144.42L262.34,144.50L262.43,144.58L262.53,144.66L262.64,144.74L262.59,144.86L262.56,144.96L262.52,145.05L262.49,145.14L262.46,145.23L262.41,145.38L262.44,145.23L262.44,145.06L262.42,144.88L262.36,144.70L262.27,144.52L262.16,144.35L262.03,144.19L261.89,144.05L261.72,143.91L261.54,143.80L261.34,143.70L261.15,143.63L260.96,143.58L260.77,143.56L260.60,143.55L260.42,143.54L260.32,143.52L260.23,143.51L260.12,143.48"/><path d="M262.64,144.74L262.93,144.45"/></g><g style="stroke:#000000;stroke-width:0.705"><path d="M259.95,144.87L260.01,144.95L260.08,145.04L260.15,145.13L260.28,145.29L260.42,145.44L260.50,145.51L260.58,145.59L260.68,145.67L260.77,145.75L260.88,145.83L260.98,145.86L261.08,145.87L261.17,145.89L261.26,145.90L261.36,145.91L261.53,145.92L261.72,145.92L261.82,145.92L261.93,145.92L262.04,145.91L262.17,145.91L262.30,145.89L262.59,145.60L262.64,145.49L262.67,145.39L262.71,145.29L262.74,145.21L262.77,145.12L262.82,144.97L262.86,144.83L262.89,144.68L262.90,144.60L262.93,144.45L262.85,144.33L262.78,144.23L262.71,144.13L262.57,143.95L262.44,143.79L262.29,143.64L262.21,143.57L262.13,143.49L262.04,143.41L261.94,143.33L261.83,143.25L261.73,143.23L261.63,143.21L261.54,143.20L261.45,143.19L261.35,143.18L261.18,143.17L260.99,143.16L260.89,143.17L260.78,143.17L260.67,143.18L260.55,143.19L260.41,143.20L260.12,143.48L260.04,143.69L260.01,143.79L259.95,143.96L259.90,144.11L259.86,144.26L259.85,144.33L259.83,144.40L259.82,144.48L259.80,144.55L259.79,144.63L259.87,144.75L259.95,144.87"/><path d="M261.60,145.12L261.67,145.05L261.71,144.96L261.72,144.86L261.71,144.75L261.66,144.64L261.60,144.53L261.51,144.43L261.40,144.35L261.28,144.28L261.16,144.24L261.04,144.22L260.92,144.23L260.83,144.26L260.75,144.32"/><path d="M260.98,144.23L260.98,144.23L261.00,144.34L261.04,144.45L261.11,144.56L261.20,144.66L261.30,144.75L261.42,144.81L261.54,144.85L261.67,144.87L261.72,144.87"/></g></g><g><g/></g><g><g><path style="stroke:#ff0000;stroke-width:0.500;stroke-dasharray:0.6 0.6" d="M213.48,185.48L210.09,188.75"/><path style="stroke:#ff0000;stroke-width:0.500;stroke-dasharray:0.6 0.6" d="M232.61,167.02L224.44,174.90"/><path style="stroke:#ff0000;stroke-width:0.500;stroke-dasharray:0.6 0.6" d="M247.94,152.23L242.56,157.42"/><path style="stroke:#ff0000;stroke-width:0.500;stroke-dasharray:0.6 0.6" d="M254.07,146.32L248.63,151.57"/><path style="stroke:#ff0000;stroke-width:0.500;stroke-dasharray:0.6 0.6" d="M258.80,141.76L254.49,145.92"/></g></g><g><g><path style="stroke:#ff0000;stroke-width:0.500;stroke-dasharray:0.6 0.6" d="M221.20,184.79L215.37,190.41"/><path style="stroke:#ff0000;stroke-width:0.500;stroke-dasharray:0.6 0.6" d="M240.48,165.97L237.44,169.12L226.97,179.22"/><path style="stroke:#ff0000;stroke-width:0.500;stroke-dasharray:0.6 0.6" d="M250.38,155.72L244.91,161.39"/><path style="stroke:#ff0000;stroke-width:0.500;stroke-dasharray:0.6 0.6" d="M256.51,149.37L251.06,155.02"/><path style="stroke:#ff0000;stroke-width:0.500;stroke-dasharray:0.6 0.6" d="M261.38,144.33L256.91,148.96"/><path style="stroke:#ff0000;stroke-width:0.500;stroke-dasharray:0.6 0.6" d="M263.32,142.32L262.16,143.52"/></g></g><g><g><path style="stroke:#ff0000;stroke-width:0.500;stroke-dasharray:0.6 0.6" d="M210.58,174.63L211.14,174.12"/><path style="stroke:#ff0000;stroke-width:0.500;stroke-dasharray:0.6 0.6" d="M216.76,168.96L220.43,165.59"/><path style="stroke:#ff0000;stroke-width:0.500;stroke-dasharray:0.6 0.6" d="M229.49,157.27L223.11,163.13"/></g></g><g><g><path style="stroke:#000000;stroke-width:0.500" d="M273.86,130.19L257.75,140.40"/></g><g><path style="fill:#000000" d="M258.72,140.39L258.71,140.29L258.70,140.19L258.68,140.10L258.64,140.00L258.60,139.91L258.55,139.83L258.49,139.75L258.43,139.68L258.35,139.61L258.27,139.55L258.19,139.50L258.10,139.46L258.01,139.43L257.91,139.40L257.82,139.39L257.72,139.39L257.62,139.39L257.52,139.40L257.43,139.43L257.34,139.46L257.25,139.50L257.16,139.55L257.08,139.61L257.01,139.68L256.95,139.75L256.89,139.83L256.84,139.91L256.80,140.00L256.76,140.10L256.74,140.19L256.72,140.29L256.72,140.39L256.72,140.48L256.74,140.58L256.76,140.68L256.80,140.77L256.84,140.86L256.89,140.94L256.95,141.02L257.01,141.09L257.08,141.16L257.16,141.22L257.25,141.27L257.34,141.31L257.43,141.34L257.52,141.37L257.62,141.38L257.72,141.39L257.82,141.38L257.91,141.37L258.01,141.34L258.10,141.31L258.19,141.27L258.27,141.22L258.35,141.16L258.43,141.09L258.49,141.02L258.55,140.94L258.60,140.86L258.64,140.77L258.68,140.68L258.70,140.58L258.71,140.48z"/></g><g><path style="fill:#fffbf0" d="M261.61,130.96L286.04,130.96L286.04,124.75L261.61,124.75z"/><path style="stroke:#000000;stroke-width:0.500;stroke-opacity:0.98" d="M261.61,130.96L286.04,130.96L286.04,124.75L261.61,124.75z"/><text xml:space="preserve" fill="#000000" stroke-width="0" x="262.38" y="129.21" font-size="3.76" opacity="1.00" font-family="MS Shell Dlg">M2.5 Hex Nut</text></g></g><g><g><path style="stroke:#000000;stroke-width:0.500" d="M258.96,118.84L252.97,145.27"/></g><g><path style="fill:#000000" d="M253.92,145.25L253.91,145.15L253.90,145.06L253.87,144.96L253.84,144.87L253.80,144.78L253.75,144.70L253.69,144.62L253.62,144.54L253.55,144.48L253.47,144.42L253.39,144.37L253.30,144.33L253.21,144.29L253.11,144.27L253.02,144.26L252.92,144.25L252.82,144.26L252.72,144.27L252.63,144.29L252.54,144.33L252.45,144.37L252.36,144.42L252.28,144.48L252.21,144.54L252.14,144.62L252.09,144.70L252.04,144.78L251.99,144.87L251.96,144.96L251.94,145.06L251.92,145.15L251.92,145.25L251.92,145.35L251.94,145.45L251.96,145.54L251.99,145.63L252.04,145.72L252.09,145.81L252.14,145.89L252.21,145.96L252.28,146.02L252.36,146.08L252.45,146.13L252.54,146.18L252.63,146.21L252.72,146.23L252.82,146.25L252.92,146.25L253.02,146.25L253.11,146.23L253.21,146.21L253.30,146.18L253.39,146.13L253.47,146.08L253.55,146.02L253.62,145.96L253.69,145.89L253.75,145.81L253.80,145.72L253.84,145.63L253.87,145.54L253.90,145.45L253.91,145.35z"/></g><g><path style="fill:#fffbf0" d="M238.21,119.61L279.59,119.61L279.59,113.40L238.21,113.40z"/><path style="stroke:#000000;stroke-width:0.500;stroke-opacity:0.98" d="M238.21,119.61L279.59,119.61L279.59,113.40L238.21,113.40z"/><text xml:space="preserve" fill="#000000" stroke-width="0" x="238.98" y="117.86" font-size="3.78" opacity="1.00" font-family="MS Shell Dlg">M2.5 Split Lock Washer</text></g></g><g><g><path style="stroke:#000000;stroke-width:0.500" d="M228.00,110.28L246.65,150.71"/></g><g><path style="fill:#000000" d="M247.58,150.68L247.57,150.58L247.56,150.48L247.54,150.39L247.50,150.30L247.46,150.21L247.41,150.12L247.35,150.04L247.29,149.97L247.21,149.91L247.13,149.85L247.05,149.80L246.96,149.75L246.87,149.72L246.77,149.70L246.68,149.68L246.58,149.68L246.48,149.68L246.38,149.70L246.29,149.72L246.20,149.75L246.11,149.80L246.02,149.85L245.94,149.91L245.87,149.97L245.81,150.04L245.75,150.12L245.70,150.21L245.66,150.30L245.62,150.39L245.60,150.48L245.58,150.58L245.58,150.68L245.58,150.78L245.60,150.87L245.62,150.97L245.66,151.06L245.70,151.15L245.75,151.23L245.81,151.31L245.87,151.39L245.94,151.45L246.02,151.51L246.11,151.56L246.20,151.60L246.29,151.64L246.38,151.66L246.48,151.67L246.58,151.68L246.68,151.67L246.77,151.66L246.87,151.64L246.96,151.60L247.05,151.56L247.13,151.51L247.21,151.45L247.29,151.39L247.35,151.31L247.41,151.23L247.46,151.15L247.50,151.06L247.54,150.97L247.56,150.87L247.57,150.78z"/></g><g><path style="fill:#fffbf0" d="M212.32,111.05L243.56,111.05L243.56,104.84L212.32,104.84z"/><path style="stroke:#000000;stroke-width:0.500;stroke-opacity:0.98" d="M212.32,111.05L243.56,111.05L243.56,104.84L212.32,104.84z"/><text xml:space="preserve" fill="#000000" stroke-width="0" x="213.09" y="109.31" font-size="3.77" opacity="1.00" font-family="MS Shell Dlg">M2.5 Flat Washer</text></g></g><g><g><path style="stroke:#000000;stroke-width:0.500" d="M253.26,201.73L212.97,192.69"/></g><g><path style="fill:#000000" d="M213.95,192.66L213.94,192.57L213.93,192.47L213.91,192.37L213.87,192.28L213.83,192.19L213.78,192.11L213.72,192.03L213.66,191.96L213.58,191.89L213.50,191.83L213.42,191.78L213.33,191.74L213.24,191.71L213.14,191.68L213.05,191.67L212.95,191.66L212.85,191.67L212.75,191.68L212.66,191.71L212.57,191.74L212.48,191.78L212.39,191.83L212.31,191.89L212.24,191.96L212.18,192.03L212.12,192.11L212.07,192.19L212.02,192.28L211.99,192.37L211.97,192.47L211.95,192.57L211.95,192.66L211.95,192.76L211.97,192.86L211.99,192.95L212.02,193.05L212.07,193.13L212.12,193.22L212.18,193.30L212.24,193.37L212.31,193.44L212.39,193.49L212.48,193.54L212.57,193.59L212.66,193.62L212.75,193.64L212.85,193.66L212.95,193.66L213.05,193.66L213.14,193.64L213.24,193.62L213.33,193.59L213.42,193.54L213.50,193.49L213.58,193.44L213.66,193.37L213.72,193.30L213.78,193.22L213.83,193.13L213.87,193.05L213.91,192.95L213.93,192.86L213.94,192.76z"/></g><g><path style="fill:#fffbf0" d="M213.30,202.47L293.16,202.47L293.16,196.27L213.30,196.27z"/><path style="stroke:#000000;stroke-width:0.500;stroke-opacity:0.98" d="M213.30,202.47L293.16,202.47L293.16,196.27L213.30,196.27z"/><text xml:space="preserve" fill="#000000" stroke-width="0" x="214.07" y="200.73" font-size="3.79" opacity="1.00" font-family="MS Shell Dlg">M2.5*25mm Phillips Pan Head Machine Screw</text></g></g><g/><g id="paperID" visibility="hidden" opacity="0.00" transform="scale(0.000100)"><path style="stroke:#000000;stroke-width:0.500;fill:#e6e6e6;fill-rule:evenodd" d="M-2000.00,-2000.00L2297.00,-2000.00L2297.00,2210.00L-2000.00,2210.00zM0.00,0.00L297.00,0.00L297.00,210.00L0.00,210.00z"/><path style="fill:#000000;fill-opacity:0.118" d="M3.00,210.00L297.00,210.00L297.00,3.00L300.00,3.00L300.00,213.00L3.00,213.00z"/></g><g id="ToolTip" visibility="hidden" opacity="0" transform="translate(0,0)"><rect id="ToolTipShadow" opacity="0.20" fill="black" stroke="none" x="0" y="0" width="30" height="8"/><rect id="ToolTipBG" fill="#ffffe1" stroke="black" x="0" y="0" width="30" height="8"/><text xml:space="preserve" id="ToolTipText" fill="black" x="0" y="0" width="30" height="8">tooltip</text></g></g></svg>
