<?xml version="1.0" encoding="UTF-8" standalone="no"?>
<svg xmlns="http://www.w3.org/2000/svg" xmlns:xlink="http://www.w3.org/1999/xlink" width="297.000mm" height="210.000mm" viewBox="0.000000 0.000000 297.000000 210.000000" stroke-linejoin="round" stroke-linecap="round" fill="none" fill-rule="evenodd"><desc>3DVIA Composer Export</desc><script type="text/ecmascript"><![CDATA[
if(typeof(top) != "undefined")
{
	top.ShowPaper = ShowPaper;
}
function ShowHotSpot(evt,hotspotid)
{
	var svgDocument = evt.target.ownerDocument;
	var strId = "hotspot."+hotspotid;
	var hotspot = svgDocument.getElementById(strId);
	if(hotspot)
		hotspot.setAttribute("opacity",".5");
}
function HideHotSpot(evt,hotspotid)
{
	var svgDocument = evt.target.ownerDocument;
	var strId = "hotspot."+hotspotid;
	var hotspot = svgDocument.getElementById(strId);
	if(hotspot)
		hotspot.setAttribute("opacity","0");

	var toolTip = svgDocument.getElementById('ToolTip');
	if(toolTip)
		toolTip.setAttribute("visibility","hidden");
}
function ShowToolTip(evt,hotspotid,strTooltip)
{
	if(strTooltip=="")
	return;

	// change text
	var svgDocument = evt.target.ownerDocument;
	var tiptext = svgDocument.getElementById('ToolTipText');
	if( !tiptext )
	return;
	tiptext.firstChild.nodeValue = " " + strTooltip + "  " ;

	// show tooltip before, else some refresh issue

	var toolTip = svgDocument.getElementById('ToolTip');
	if(!toolTip)
	return;

	toolTip.setAttribute("visibility","visible");
	toolTip.setAttribute("opacity",".95");

	// move tooltip
	// get viewbox

	var root = svgDocument.documentElement;
	var vbox = (root.getAttribute("viewBox")).split(' ');
	var x0 = parseFloat(vbox[0]);
	var y0 = parseFloat(vbox[1]);
	var vboxW = parseFloat(vbox[2]);
	var vboxH = parseFloat(vbox[3]);

	// get default width of svg

	var strW = root.getAttribute("width");
	var svgW = parseFloat(strW);
	if(strW.indexOf('mm') != -1)
	svgW *= 3.779;

	var strH = root.getAttribute("height");
	var svgH = parseFloat(strH);
	if(strH.indexOf('mm') != -1)
	svgH *= 3.779;  	// 96 dpi  -> 96/25.4 = 3.779

	// update the viewbox / width / height if svg is embedded in html with zoom fit all
	var realx0 = x0;
	var realy0 = y0;
	var realvboxW = vboxW;
	var realvboxH = vboxH;
	var realsvgW = svgW;
	var realsvgH = svgH;

	if ((typeof(top) == "undefined") || (typeof(top.svgctl1) != "undefined")) // embedded in html
	{
		// get window size in pxl

		svgW = window.innerWidth;
		svgH = window.innerHeight;

		// calculate real viewbox

		realsvgW = svgW;
		realsvgH = svgH;
		if((svgW / svgH) > (vboxW / vboxH))
		{
			realvboxW = (vboxH * svgW) / svgH;
			realvboxH = vboxH;
			realx0 = x0 - (realvboxW - vboxW)/2 ;
		}
		else
		{
			realvboxH = (vboxW * svgH) / svgW;
			realvboxW = vboxW;
			realy0 = y0 - (realvboxH - vboxH)/2 ;
		}
	}

	// get user zoom/pan

	var newScale = root.currentScale;
	var translation = root.currentTranslate;

	// transform pxl to user unit

	var xPos = (((evt.clientX+10- translation.x)/newScale) * realvboxW)/realsvgW  + realx0 ;
	var yPos = (((evt.clientY+5- translation.y)/newScale) * realvboxH)/ realsvgH  + realy0 ;
	var scaleForWidth = ( (1 / newScale) * realvboxH) / realsvgH;

	// move tooltip

	toolTip.setAttribute("transform", "translate(" + xPos + "," + yPos + ")" );

	// resize tooltip

	var fontsize = 12;
	tiptext.setAttribute("font-size",fontsize*scaleForWidth);
	tiptext.setAttribute("y", fontsize*scaleForWidth);
	var tipBG = svgDocument.getElementById('ToolTipBG');
	var outline = tiptext.getBBox();
	if(tipBG)
	{
		tipBG.setAttribute("stroke-width", 1*scaleForWidth);
		tipBG.setAttribute("width", Number(outline.width) );
		tipBG.setAttribute("height", Number(outline.height) + fontsize*.5*scaleForWidth );
	}
	var ToolTipShadow = svgDocument.getElementById('ToolTipShadow');
	if(ToolTipShadow)
	{
		ToolTipShadow.setAttribute("width", Number(outline.width) );
		ToolTipShadow.setAttribute("height", Number(outline.height) + fontsize*.5*scaleForWidth );
		ToolTipShadow.setAttribute("x", 3*scaleForWidth);
		ToolTipShadow.setAttribute("y", 3*scaleForWidth);
	}
}
function ShowPaper()
{
  var svgDocument = getDocument();
  var paper = svgDocument.getElementById("paperID");
  if(paper)
  {
    paper.setAttribute("transform","scale(1)");
    paper.setAttribute("opacity","1");
    paper.setAttribute("visibility","visible");
  }
  var svg = svgDocument.getRootElement();
  if(svg)
  {
    svg.setAttribute("width","307.000mm");
    svg.setAttribute("height","220.000mm");
    svg.setAttribute("viewBox","-5.000000 -5.000000 307.000000 220.000000");
  }
}
]]></script><defs/><g><path style="fill:#dcdcdc;fill-rule:evenodd" d="M61.91,28.31L61.81,29.66L60.31,29.67L59.80,29.37L59.79,28.71L60.24,28.34L61.65,28.05zM105.88,49.10L117.31,43.60L117.63,43.63L117.63,46.33L116.86,48.92L115.98,50.12L112.11,52.23L111.17,52.20L105.94,49.33zM55.15,58.68L55.41,59.54L54.89,59.81L54.04,60.08L53.73,58.68L54.04,58.16L54.35,58.13zM86.53,61.79L86.79,62.65L85.92,63.11L85.16,63.19L84.85,62.06L85.38,61.24L85.73,61.25zM49.98,62.56L50.23,63.43L49.89,63.66L49.37,63.71L49.15,63.40L49.09,62.30L49.70,62.27zM52.82,62.81L52.74,65.18L50.95,65.20L50.64,64.98L50.92,63.63L52.55,62.33zM122.30,62.92L122.98,62.57L124.39,62.57L124.30,64.41L123.34,64.40L122.29,64.15zM58.83,64.73L57.47,65.53L57.47,64.74L57.90,64.37L58.80,64.40zM269.57,69.07L270.34,72.93L269.83,76.40L250.93,89.38L248.84,85.91L247.03,82.78L246.93,82.05L268.17,67.73L268.81,67.46zM80.57,71.11L77.85,73.47L78.79,73.46L79.04,73.70L79.01,74.32L78.67,74.56L78.15,74.59L77.74,73.97L75.89,74.85L72.52,76.95L72.26,75.80L72.26,74.33L76.41,70.96L77.60,70.09L79.01,70.09zM61.92,69.94L55.66,73.06L55.66,71.99L61.92,69.07zM82.40,74.76L82.41,75.38L74.59,81.33L67.00,85.15L65.76,85.15L64.72,84.60L64.73,84.21L72.70,77.85L74.05,78.41L75.82,78.41L81.63,75.38L81.33,74.51L80.75,73.45L81.38,73.20zM64.50,74.75L64.75,75.61L63.87,76.09L63.44,76.09L63.35,74.49L64.24,74.48zM59.82,79.42L60.08,80.28L59.75,80.52L59.22,80.56L59.01,80.25L59.04,78.89zM62.68,79.67L62.66,81.85L62.35,82.06L60.80,82.05L60.49,81.84L60.98,80.43L62.40,79.17zM283.59,99.27L282.82,99.75L282.51,99.43L282.53,98.72L283.33,98.38zM273.97,99.22L274.77,99.12L274.76,100.00L274.27,100.28L273.96,99.95zM278.38,99.99L278.05,99.90L278.43,99.69zM154.72,101.48L154.75,102.35L153.94,102.85L153.09,103.12L152.79,101.99L153.31,101.18L154.21,101.19zM270.86,102.09L270.91,101.00L271.16,100.95zM287.30,99.29L286.90,101.50L285.82,102.28L285.30,102.26L286.18,101.05L286.60,99.66L287.23,99.14zM277.09,102.58L276.75,102.49L277.14,102.28zM282.54,103.66L282.23,103.68L282.28,101.98zM282.37,104.21L282.04,104.70L282.04,104.13L282.32,104.07zM271.40,104.80L271.67,105.90L271.38,107.27L271.03,104.59zM235.08,104.82L234.85,105.99L233.93,106.66L233.46,106.69L233.53,104.67L234.51,104.02L234.82,104.06zM267.24,105.40L266.94,105.48L266.98,104.31zM278.66,105.57L278.93,106.68L278.64,108.05L278.29,105.37zM274.24,106.18L273.94,106.26L273.98,105.08zM200.09,105.71L200.77,105.35L202.18,105.36L201.94,107.77L200.09,107.18zM209.95,109.87L206.30,112.44L204.43,113.42L202.84,113.49L203.11,111.31L204.95,111.08L206.72,110.00L210.22,107.69zM242.87,117.67L236.79,122.22L236.40,122.25L236.01,120.65L242.01,116.21L242.61,116.23zM253.26,121.54L251.44,123.11L251.35,121.44L251.85,121.15L252.75,121.16zM255.56,122.83L265.37,115.43L265.69,115.45L265.60,117.28L258.17,123.08L255.98,124.82L255.50,124.84zM238.24,126.62L238.49,126.99L236.65,128.29L236.65,126.71L237.45,126.38zM198.03,111.16L197.66,111.57L196.46,126.45L196.46,127.92L197.02,130.35L195.60,131.33L195.17,131.31L194.65,129.22L194.65,127.74L195.84,112.35L197.25,109.88L198.03,109.25zM207.90,132.04L207.81,132.32L205.69,132.94L205.79,132.16L206.21,131.80L207.66,131.79zM185.32,136.61L184.18,137.51L183.42,137.62L183.20,136.04L183.72,135.23L184.78,135.17zM216.17,146.33L216.11,146.57L213.99,147.20L214.09,146.42L214.51,146.06L215.67,146.06zM199.84,146.87L199.88,147.46L198.68,148.42L198.21,148.51L197.99,148.19L198.01,146.93L198.44,146.57L199.32,146.56zM191.25,148.94L191.54,150.03L189.99,151.09L189.44,149.98L189.44,147.69L190.14,146.85L191.01,146.57zM186.66,151.50L186.64,151.86L185.45,152.82L184.99,152.91L184.68,151.77L184.97,151.26L186.39,151.23zM206.12,157.22L206.06,157.54L205.16,158.27L204.69,158.35L204.42,157.71L204.91,156.93L205.83,156.93zM212.81,157.99L213.07,159.88L212.54,161.46L211.22,162.50L211.24,160.07L210.62,158.22L211.93,157.18L212.28,157.18zM191.85,161.63L191.80,161.95L190.50,162.78L190.40,161.36L191.57,161.35zM184.31,169.12L184.19,169.92L166.79,183.42L166.13,183.43L165.23,183.15L183.91,168.87zM169.15,185.77L192.22,168.34L192.34,169.78L169.73,186.88L169.70,189.14L168.13,190.43L166.36,190.43L164.82,189.38L164.83,188.15L165.38,187.83L165.10,188.45L165.07,189.10L165.59,189.39L167.61,189.39L168.50,188.96L168.46,187.13L169.22,186.38zM164.35,187.02L164.30,187.42L163.98,187.40L163.93,186.79zM165.36,187.11L164.75,187.16L164.98,186.74L165.38,186.78zM163.30,186.11L162.23,186.86L162.26,188.68L161.87,189.35L160.33,190.44L159.64,190.44L158.35,189.88L158.01,189.34L159.02,189.39L160.61,189.13L160.94,187.13L161.46,186.61L161.98,185.58L163.56,184.45z"/><g id="Actor_.0"><g style="stroke:#000000;stroke-width:0.353"><path d="M76.58,74.31L76.63,74.42"/></g><g style="stroke:#000000;stroke-width:0.705"><path d="M77.96,73.76L77.93,73.26"/></g></g><g id="Actor_.1"><g style="stroke:#000000;stroke-width:0.353"><path d="M52.23,67.97L52.69,67.79L53.27,67.94L55.64,72.01L55.58,72.75L55.30,73.23"/><path d="M53.27,67.94L59.63,64.92"/><path d="M55.64,72.01L61.87,69.02"/></g><g style="stroke:#000000;stroke-width:0.705"><path d="M61.92,70.03L55.30,73.23L54.84,73.40L54.25,73.24L51.89,69.19L51.96,68.45L52.23,67.97L59.25,64.64"/></g></g><g id="Actor_.2"><g style="stroke:#000000;stroke-width:0.353"><path d="M230.87,119.94L234.29,118.64L235.19,119.39L235.90,120.36L236.35,121.42L236.48,122.46"/><path d="M234.29,118.64L240.80,113.92"/></g><g style="stroke:#000000;stroke-width:0.705"><path d="M230.87,119.94L237.36,115.25L240.80,113.92L241.69,114.66L242.40,115.62L242.84,116.67L242.96,117.70L236.48,122.46L233.04,123.73L232.16,122.98L231.45,122.02L231.00,120.97L230.87,119.94"/></g></g><g id="Actor_.3"><g style="stroke:#000000;stroke-width:0.353"><path d="M213.80,86.57L228.56,79.43L229.12,79.30L229.75,79.39L230.39,79.71L230.97,80.21L231.45,80.86L255.37,122.74L265.53,114.99"/><path d="M228.56,79.43L239.23,72.54"/><path d="M230.14,103.24L230.66,103.02L231.29,103.04L231.96,103.30L232.59,103.78L233.11,104.41L233.48,105.14L233.64,105.89L233.58,106.56L233.31,107.09L232.85,107.42"/><path d="M231.65,102.19L232.18,101.97L232.81,101.99L233.47,102.25L234.10,102.72L234.63,103.36L234.99,104.09L235.15,104.83L235.09,105.50L234.82,106.03L234.36,106.36"/><path d="M231.45,80.86L242.10,73.91"/><path d="M239.17,129.61L238.76,129.75L238.28,129.71L237.77,129.49L237.29,129.12L236.89,128.64L236.62,128.09L236.50,127.54L236.55,127.05L236.76,126.66"/><path d="M251.51,121.38L251.28,121.78L251.22,122.30L251.34,122.87L251.62,123.44L252.03,123.94L252.53,124.32L253.07,124.54L253.59,124.58L254.02,124.43"/><path d="M255.37,125.24L255.67,124.76L255.78,124.14L255.67,123.45L255.37,122.74"/></g><g style="stroke:#000000;stroke-width:0.705"><path d="M230.97,119.87L213.52,89.40L213.22,88.72L213.09,88.02L213.15,87.40L213.40,86.89L213.80,86.57L224.36,79.79L239.23,72.54L239.79,72.40L240.42,72.49L241.06,72.79L241.64,73.28L242.10,73.91L265.53,115.00L265.83,115.69L265.93,116.38L265.81,116.99L265.51,117.47L255.37,125.24L254.90,125.53L239.21,130.95L238.66,131.02L238.05,130.87L237.43,130.53L236.87,130.02L236.43,129.40L233.16,123.69"/><path d="M234.36,106.36L232.85,107.42L232.27,107.51L231.61,107.37L230.96,106.99L230.38,106.43L229.93,105.74L229.66,105.00L229.61,104.29L229.77,103.68L230.14,103.24L231.65,102.19"/><path d="M236.76,126.66L237.10,126.43L237.55,126.38L238.06,126.51L238.56,126.81L239.01,127.24L239.35,127.77L239.55,128.33L239.58,128.86L239.45,129.30L239.17,129.61"/><path d="M251.51,121.38L251.88,121.14L252.36,121.08L252.90,121.21L253.43,121.51L253.90,121.96L254.25,122.51L254.45,123.09L254.48,123.64L254.33,124.10L254.02,124.43"/></g></g><g id="Actor_.4"><g style="stroke:#000000;stroke-width:0.353"><path d="M226.27,78.86L237.20,73.53L260.08,58.77"/></g><g style="stroke:#000000;stroke-width:0.705"><path d="M226.27,78.86L249.01,64.25L260.08,58.77L263.25,60.36L266.11,62.83L268.38,65.95L269.87,69.44L270.43,72.98L270.03,76.26L250.96,89.45"/></g></g><g id="Actor_.5"><g style="stroke:#000000;stroke-width:0.353"><path d="M60.17,80.18L60.15,80.20L59.25,80.64L58.76,79.50L59.50,79.14"/><path d="M59.25,80.64L60.02,81.14"/><path d="M58.44,79.29L58.44,78.84L58.55,78.57L58.57,78.52L58.80,78.36L59.12,78.39L59.36,78.51L59.73,78.83L60.09,79.28L60.38,79.81L60.57,80.36L60.65,80.87L60.60,81.28L60.43,81.54L60.16,81.63L59.82,81.54L59.71,81.47"/><path d="M58.76,79.50L59.04,78.85"/><path d="M59.26,76.79L59.29,76.74"/><path d="M59.78,79.32L60.15,80.20L60.19,80.22"/></g><g style="stroke:#000000;stroke-width:0.705"><path d="M59.12,80.88L59.33,81.15L59.71,81.47L59.82,81.56L60.43,81.83L60.92,82.04L61.45,82.13L62.04,82.12L62.23,82.09L62.28,82.08L62.64,81.82L62.67,81.78L62.86,81.26L62.87,81.19L62.86,80.48L62.85,80.39L62.66,79.58L62.65,79.56L62.62,79.46L62.25,78.61L62.20,78.51L61.70,77.73L61.66,77.68L61.64,77.65L61.07,77.03L60.66,76.73L60.25,76.52L60.19,76.50L59.70,76.47L59.65,76.49L59.29,76.74L59.04,77.05L58.66,77.76L58.50,78.31L58.44,78.84L58.43,79.17L58.44,79.29L58.50,79.63L58.70,80.18L58.98,80.70L59.12,80.88"/><path d="M59.04,78.85L59.81,79.34L60.30,80.49L60.02,81.14"/></g></g><g id="Actor_.6"><g style="stroke:#000000;stroke-width:0.353"><path d="M50.20,64.26L49.44,63.79L48.94,62.63L49.20,61.95"/><path d="M48.62,62.43L48.62,61.97L48.73,61.63L48.96,61.46L49.27,61.48L49.51,61.59L49.88,61.89L50.23,62.34L50.52,62.87L50.72,63.43L50.80,63.95L50.76,64.38L50.60,64.66L50.34,64.76L50.01,64.68L49.89,64.62"/><path d="M48.94,62.63L49.72,62.27"/><path d="M49.44,63.79L50.35,63.36L50.36,63.35"/><path d="M49.94,62.41L50.35,63.36L50.37,63.38"/></g><g style="stroke:#000000;stroke-width:0.705"><path d="M49.29,64.01L49.18,63.87L48.89,63.34L48.69,62.78L48.62,62.43L48.62,62.32L48.62,61.97L48.68,61.44L48.85,60.91L49.22,60.18L49.48,59.89L49.83,59.61L49.87,59.60L50.35,59.60L50.41,59.62L50.81,59.81L51.21,60.11L51.78,60.72L51.84,60.79L52.34,61.58L52.39,61.67L52.76,62.53L52.80,62.63L52.80,62.65L53.00,63.48L53.02,63.57L53.04,64.30L53.03,64.37L52.85,64.91L52.82,64.96L52.48,65.24L52.43,65.26L52.24,65.29L51.66,65.30L51.12,65.21L50.70,65.03L50.01,64.71L49.53,64.31L49.29,64.01"/><path d="M49.20,61.95L49.96,62.42L50.46,63.58L50.20,64.26"/></g></g><g id="Actor_.7"><g style="stroke:#000000;stroke-width:0.353"><path d="M265.83,102.41L266.16,102.20L266.53,102.06L266.94,101.98L267.37,101.97L267.82,102.03L268.28,102.16L268.73,102.36L269.18,102.61L269.60,102.92L270.00,103.29L270.36,103.69L270.68,104.13L270.94,104.60L271.15,105.08L271.30,105.56L271.38,106.05L271.40,106.51L271.35,106.96L271.24,107.37L271.07,107.74L270.84,108.06L270.55,108.32"/><path d="M269.07,106.66L268.83,106.75L268.55,106.77L268.26,106.72L267.96,106.61L267.68,106.43L267.42,106.20L267.20,105.92L267.02,105.62L266.91,105.31L266.86,105.00L266.88,104.71L266.96,104.45L267.10,104.23L267.30,104.07"/></g><g style="stroke:#000000;stroke-width:0.705"><path d="M265.46,106.12L265.26,105.65L265.11,105.17L265.02,104.69L265.00,104.22L265.04,103.78L265.15,103.37L265.32,103.00L265.55,102.68L265.83,102.41L266.16,102.17L266.49,101.96L266.86,101.82L267.26,101.74L267.70,101.73L268.15,101.79L268.60,101.92L269.06,102.11L269.51,102.37L269.93,102.68L270.33,103.04L270.69,103.45L271.01,103.89L271.22,104.27L271.27,104.35L271.48,104.83L271.63,105.32L271.71,105.80L271.73,106.27L271.68,106.71L271.57,107.12L271.39,107.49L271.16,107.81L270.88,108.08L270.55,108.32L270.22,108.53L269.84,108.67L269.43,108.74L269.00,108.74L268.55,108.68L268.10,108.54L267.65,108.35L267.21,108.09L266.78,107.78L266.39,107.42L266.04,107.02L265.73,106.58L265.46,106.12"/><path d="M267.40,104.04L267.29,104.20L267.21,104.46L267.19,104.76L267.24,105.07L267.35,105.38L267.52,105.68L267.74,105.95L268.00,106.18L268.29,106.36L268.58,106.48L268.88,106.53L269.15,106.50L269.31,106.44"/><path d="M269.07,106.66L269.27,106.50L269.42,106.28L269.50,106.02L269.52,105.73L269.47,105.42L269.35,105.10L269.18,104.80L268.96,104.53L268.70,104.30L268.41,104.12L268.11,104.00L267.82,103.96L267.55,103.98L267.30,104.07"/></g></g><g id="Actor_.8"><g style="stroke:#000000;stroke-width:0.353"><path d="M159.10,189.32L158.85,189.44L158.62,189.53L158.28,189.22L157.97,188.87L157.89,188.84L157.82,188.79L157.72,188.72L157.57,188.77L157.45,188.80L157.14,188.38L156.87,187.94"/><path d="M156.28,186.86L156.28,186.86"/><path d="M157.21,186.50L156.96,186.61L156.75,186.72L156.92,187.17L157.12,187.60L157.11,187.63L157.12,187.71L157.13,187.79L157.14,187.85"/><path d="M156.75,186.72L157.27,186.66"/><path d="M156.09,185.79L156.10,185.61L156.13,185.44L156.17,185.28L156.23,185.14L156.31,185.02L156.39,184.93L156.40,184.91L156.50,184.82L156.62,184.75L156.72,184.72L156.76,184.70L156.90,184.67L157.05,184.66L157.22,184.67L157.39,184.70L157.57,184.75L157.76,184.82L157.96,184.90L158.03,184.94L158.15,185.01L158.35,185.13L158.55,185.27L158.75,185.42L158.95,185.60L159.15,185.78L159.34,185.98L159.53,186.18L159.71,186.40L159.88,186.62L160.04,186.86L160.19,187.09L160.33,187.33L160.46,187.57L160.57,187.81L160.67,188.05L160.76,188.29L160.82,188.52L160.88,188.74L160.91,188.95L160.93,189.17L160.94,189.36L160.92,189.55L160.89,189.72L160.85,189.87L160.79,190.01L160.71,190.13L160.62,190.23L160.51,190.32L160.39,190.39L160.26,190.44L160.11,190.46L159.95,190.47L159.79,190.46L159.62,190.43L159.43,190.38"/><path d="M156.61,184.57L156.74,184.50L156.87,184.45L157.02,184.42L157.18,184.40L157.35,184.41L157.54,184.44L157.72,184.49L157.92,184.56L158.12,184.65L158.33,184.76L158.53,184.89L158.74,185.04L158.95,185.20L159.16,185.37L159.36,185.56L159.56,185.77L159.76,185.98L159.94,186.21L160.12,186.44L160.29,186.68L160.45,186.93L160.59,187.18L160.72,187.43L160.84,187.68L160.94,187.93L161.03,188.17L161.10,188.42L161.16,188.65L161.20,188.87L161.22,189.09L161.22,189.29L161.21,189.48L161.18,189.66L161.13,189.82L161.06,189.96L160.98,190.09L160.89,190.20L160.78,190.29"/><path d="M157.45,188.80L158.81,187.86"/><path d="M157.72,188.72L158.83,187.89"/><path d="M157.97,188.87L158.42,188.45"/><path d="M157.12,187.60L157.56,187.33"/><path d="M158.65,189.99L158.66,189.99"/><path d="M158.62,189.53L158.83,189.07"/><path d="M158.97,188.10L158.68,188.26L158.41,188.40"/><path d="M158.90,188.00L158.76,188.13"/><path d="M160.65,190.36L160.63,190.36"/></g><g style="stroke:#000000;stroke-width:0.705"><path d="M156.66,187.81L156.87,188.18L157.04,188.44L157.22,188.69L157.42,188.93L157.70,189.23L157.95,189.46L158.20,189.67L158.46,189.86L158.66,189.99L158.86,190.11L159.05,190.22L159.25,190.31L159.43,190.38L159.69,190.45L159.87,190.48L160.04,190.49L160.20,190.49L160.28,190.48L160.43,190.45L160.57,190.40L160.78,190.29L161.85,189.46L162.05,189.26L162.20,188.99L162.28,188.65L162.29,188.26L162.23,187.82L162.11,187.35L161.92,186.86L161.85,186.72L161.67,186.35L161.37,185.86L161.02,185.39L160.64,184.95L160.24,184.55L159.82,184.22L159.40,183.94L159.00,183.75L158.61,183.63L158.26,183.59L157.95,183.63L157.69,183.76L156.61,184.57L156.50,184.66L156.35,184.84L156.27,184.97L156.18,185.19L156.13,185.35L156.10,185.52L156.09,185.79L156.10,185.98L156.12,186.19L156.16,186.40L156.21,186.63L156.39,187.20L156.51,187.50L156.66,187.81"/><path d="M156.87,187.94L156.99,187.91L157.14,187.85L157.70,187.44L157.83,187.53L158.39,187.23L158.67,187.67L158.97,188.10"/><path d="M157.21,186.50L157.38,186.95L157.58,187.38L157.70,187.44"/><path d="M158.91,188.01L158.41,188.40L158.43,188.51L158.44,188.59L158.44,188.66L158.75,189.00L159.10,189.32"/><path d="M166.61,183.58L184.12,170.14L184.27,169.99L184.36,169.77L184.39,169.50L184.34,169.19L184.23,168.85L184.06,168.51L183.84,168.19L183.59,167.89L183.30,167.64L183.01,167.45L182.72,167.33L182.46,167.29L182.23,167.33L182.05,167.44L159.91,184.29"/><path d="M163.33,186.10L162.01,187.11"/></g></g><g id="Actor_.9"><g style="stroke:#000000;stroke-width:0.353"><path d="M270.37,103.08L270.25,102.86L270.13,102.59L270.04,102.32L269.98,102.04L269.95,101.77L269.95,101.51L269.98,101.26L270.04,101.03L270.13,100.81L270.25,100.61L270.39,100.44L270.55,100.29L270.74,100.17L270.95,100.07L271.17,100.01L271.41,99.98L271.66,99.98L271.92,100.02L272.18,100.08L272.44,100.18L272.70,100.30L272.95,100.45L273.19,100.63L273.42,100.83L273.64,101.05L273.83,101.29L274.00,101.55L274.15,101.81L274.27,102.08L274.35,102.33"/><path d="M271.91,104.52L271.66,104.39L271.41,104.23L271.17,104.05L271.02,103.91"/><path d="M271.39,100.96L271.26,101.06L271.15,101.19L271.06,101.34L271.00,101.51L270.97,101.69L270.96,101.89L270.98,102.09L271.03,102.30L271.11,102.50L271.21,102.71L271.33,102.90L271.48,103.08L271.64,103.24L271.82,103.39L272.01,103.51L272.20,103.60L272.25,103.62"/><path d="M272.10,103.90L272.05,103.89L271.83,103.78L271.62,103.64L271.41,103.48L271.23,103.29L271.06,103.08L270.92,102.86L270.81,102.63L270.72,102.40L270.66,102.16L270.64,101.93L270.64,101.70L270.68,101.49L270.75,101.30L270.85,101.13L270.98,100.98L271.13,100.87L271.31,100.78L271.50,100.73L271.71,100.71L271.93,100.72L272.15,100.77L272.38,100.85L272.60,100.96L272.81,101.10L273.01,101.27L273.20,101.45L273.36,101.66L273.51,101.89L273.62,102.12L273.70,102.36L273.73,102.46"/><path d="M272.33,103.50L272.13,103.41L271.95,103.29L271.77,103.15L271.61,102.98L271.46,102.80L271.41,102.71L271.34,102.61L271.24,102.41L271.16,102.20L271.11,101.99L271.09,101.79L271.09,101.60L271.13,101.41L271.19,101.24L271.28,101.09"/><path d="M270.54,100.01L270.74,99.88L270.97,99.78L271.21,99.71L271.47,99.68L271.74,99.68L272.02,99.71L272.31,99.78L272.59,99.89L272.87,100.02L273.15,100.19L273.41,100.38L273.66,100.60L273.89,100.84L274.10,101.10L274.29,101.38L274.45,101.67L274.58,101.96L274.68,102.26L274.70,102.32"/><path d="M271.10,99.68L271.34,99.62L271.60,99.58L271.87,99.58L272.15,99.62L272.44,99.69L272.72,99.79L273.00,99.93L273.28,100.09L273.54,100.29L273.79,100.50L274.02,100.75L274.23,101.01L274.42,101.28L274.58,101.57L274.71,101.87L274.81,102.17L274.85,102.33"/></g><g style="stroke:#000000;stroke-width:0.705"><path d="M274.91,102.34L274.85,102.11L274.75,101.81L274.62,101.52L274.46,101.24L274.28,100.97L274.07,100.71L273.84,100.47L273.60,100.26L273.34,100.07L273.07,99.91L272.79,99.77L272.51,99.67L272.23,99.60L271.96,99.57L271.92,99.56L271.65,99.56L271.39,99.60L271.14,99.66L270.87,99.78L270.67,99.92L270.54,100.01L270.36,100.17L270.33,100.21L270.17,100.40L270.05,100.61L269.95,100.85L269.89,101.11L269.88,101.15L269.85,101.41L269.85,101.69L269.88,101.98L269.94,102.27L270.04,102.57L270.16,102.86L270.20,102.92"/><path d="M271.13,104.11L271.15,104.13L271.41,104.32L271.67,104.49L271.90,104.61"/><path d="M272.36,103.46L272.20,103.39L272.01,103.26L271.83,103.12L271.66,102.95L271.51,102.76L271.38,102.57L271.28,102.36L271.20,102.15L271.15,101.93L271.13,101.72L271.13,101.52L271.16,101.37"/><path d="M271.16,101.38L271.22,101.21L271.31,101.06"/><path d="M271.28,101.09L271.39,100.97L271.41,100.95"/><path d="M273.64,102.49L273.60,102.32L273.53,102.10L273.43,101.89L273.30,101.69L273.15,101.51L272.99,101.34L272.80,101.19L272.61,101.06L272.41,100.96L272.21,100.89L272.01,100.85L271.81,100.83L271.93,100.84"/><path d="M271.86,100.84L271.67,100.85L271.50,100.90"/><path d="M271.51,100.90L271.39,100.96L271.39,100.96"/></g></g><g id="Actor_.10"><g style="stroke:#000000;stroke-width:0.353"><path d="M281.39,103.41L281.40,103.23L281.38,102.99L281.32,102.74L281.23,102.49L281.11,102.24L280.97,102.01L280.79,101.79L280.60,101.59L280.38,101.42L280.16,101.27L279.92,101.15L279.68,101.07L279.44,101.02L279.21,101.00L278.99,101.02L278.78,101.08L278.59,101.17L278.43,101.29L278.29,101.45L278.19,101.63L278.11,101.83L278.07,102.05L278.06,102.29L278.08,102.53L278.14,102.78L278.23,103.03L278.35,103.27L278.50,103.50L278.68,103.71L278.87,103.91L279.09,104.08L279.31,104.23L279.55,104.34L279.79,104.42L280.03,104.47L280.26,104.48L280.48,104.46L280.68,104.40L280.87,104.31L281.03,104.18L281.17,104.03L281.27,103.85L281.33,103.70L282.06,104.05L282.01,104.21L281.90,104.43L281.77,104.63L281.61,104.81L281.42,104.96L281.22,105.08L280.99,105.16L280.75,105.22L280.49,105.24L280.22,105.23L279.95,105.19L279.67,105.11L279.40,105.01L279.13,104.87L278.86,104.70L278.61,104.51L278.38,104.30L278.16,104.06L277.96,103.81L277.79,103.54L277.64,103.26L277.52,102.98L277.42,102.69L277.36,102.41L277.33,102.12L277.34,101.85L277.37,101.59L277.43,101.34L277.53,101.11L277.66,100.90L277.81,100.72L277.99,100.56L278.19,100.43L278.41,100.34L278.65,100.27L278.90,100.24L279.17,100.24L279.44,100.28L279.72,100.35L280.00,100.45L280.19,100.54L280.27,100.58L280.54,100.74L280.79,100.92L281.04,101.14L281.26,101.37L281.46,101.62L281.64,101.89L281.80,102.16L281.93,102.45L282.02,102.74L282.09,103.03L282.13,103.31L282.13,103.59L282.11,103.76"/><path d="M278.73,101.38L278.61,101.51L278.51,101.67L278.44,101.84L278.41,102.04L278.40,102.24L278.42,102.46L278.47,102.67L278.55,102.89L278.66,103.10L278.73,103.21L278.79,103.30L278.94,103.49L279.11,103.66L279.22,103.75L279.30,103.81L279.50,103.94L279.70,104.04L279.91,104.11L280.12,104.15L280.32,104.16L280.52,104.14L280.70,104.09L280.86,104.01"/><path d="M280.83,103.99L280.65,104.04L280.46,104.06L280.25,104.05L280.05,104.01L279.84,103.94L279.63,103.84L279.43,103.71L279.25,103.56L279.07,103.39L279.07,103.38L278.92,103.20L278.79,103.00L278.69,102.79L278.61,102.57L278.55,102.35L278.53,102.14L278.54,101.94L278.56,101.84L278.58,101.74L278.64,101.57L278.74,101.41"/><path d="M277.97,100.27L278.19,100.13L278.43,100.03L278.69,99.96L278.97,99.92L279.20,99.92L279.25,99.92L279.55,99.96L279.85,100.04L280.15,100.14L280.45,100.29L280.74,100.46L281.02,100.66L281.28,100.89L281.45,101.07L281.53,101.15L281.75,101.42L281.95,101.71L282.11,102.01L282.25,102.32L282.30,102.47L282.36,102.64L282.43,102.95L282.47,103.26L282.47,103.56L282.45,103.76"/><path d="M278.32,100.03L278.56,99.93L278.82,99.86L279.10,99.82L279.39,99.82L279.68,99.86L279.99,99.94L280.18,100.00L280.29,100.04L280.59,100.19L280.88,100.36L281.15,100.56L281.42,100.79L281.66,101.05L281.88,101.32L282.08,101.61L282.25,101.91L282.38,102.22L282.43,102.37L282.49,102.54L282.56,102.85L282.60,103.16L282.60,103.46L282.59,103.66"/><path d="M281.33,103.70L281.30,103.68L281.26,103.64L281.25,103.63L281.22,103.60L281.22,103.58L281.22,103.55L281.22,103.54"/><path d="M282.21,104.59L282.36,104.37L282.47,104.13L282.53,103.95L282.40,104.05L282.34,104.23L282.22,104.48L282.08,104.69L281.91,104.89L281.70,105.05"/><path d="M282.40,104.05L282.35,104.08L282.34,104.08L282.28,104.09L282.26,104.09L282.20,104.09L282.18,104.09L282.12,104.08L282.06,104.05"/><path d="M282.63,103.58L282.63,103.58"/><path d="M282.56,103.90L282.56,103.91L282.54,103.94L282.53,103.95"/></g><g style="stroke:#000000;stroke-width:0.705"><path d="M281.09,103.80L281.18,103.64L281.22,103.54L281.24,103.51L281.26,103.49L281.38,103.40L282.11,103.76L282.15,103.78L282.16,103.78L282.23,103.80L282.26,103.80L282.31,103.81L282.33,103.80L282.38,103.79L282.40,103.79L282.44,103.77L282.59,103.66L282.62,103.63L282.62,103.62L282.62,103.62L282.63,103.58L282.64,103.39L282.64,103.09L282.60,102.79L282.53,102.48L282.43,102.17L282.29,101.86L282.12,101.56L281.93,101.28L281.71,101.01L281.47,100.76L281.21,100.53L280.94,100.33L280.65,100.16L280.36,100.02L280.06,99.92L279.77,99.84L279.48,99.81L279.43,99.80L279.14,99.80L278.87,99.84L278.61,99.91L278.32,100.03L278.10,100.17L277.97,100.27L277.77,100.44L277.58,100.68L277.44,100.90L277.34,101.15L277.27,101.42L277.26,101.46L277.22,101.74L277.22,102.04L277.25,102.34L277.32,102.65L277.42,102.95L277.55,103.26L277.70,103.56L277.89,103.84L278.10,104.11L278.34,104.36L278.59,104.59L278.86,104.80L279.14,104.98L279.43,105.12L279.72,105.24L280.02,105.32L280.31,105.37L280.64,105.38L280.92,105.35L281.19,105.29L281.43,105.20L281.48,105.18L281.70,105.05L281.84,104.95L282.04,104.78L282.21,104.59L282.24,104.55L282.39,104.33L282.50,104.09L282.56,103.90L282.57,103.87L282.56,103.86L282.54,103.82L282.54,103.81L282.50,103.77L282.47,103.75"/><path d="M278.58,101.86L278.57,102.07L278.58,102.19L278.59,102.29L278.65,102.51L278.73,102.74L278.84,102.95L278.97,103.16L279.10,103.32L279.13,103.36L279.30,103.53L279.50,103.69L279.70,103.82L279.91,103.92L280.13,103.99L280.34,104.03"/><path d="M278.99,101.21L279.17,101.16L279.36,101.14L279.53,101.15L279.74,101.19L279.96,101.27L280.17,101.38L280.37,101.51L280.56,101.67L280.74,101.84L280.89,102.04L281.03,102.25L281.13,102.47L281.21,102.70L281.26,102.92L281.28,103.14L281.28,103.26L281.28,103.30L281.29,103.31L281.29,103.33L281.31,103.35L281.32,103.36L281.36,103.39L281.38,103.40"/><path d="M279.00,101.21L278.87,101.27L278.73,101.38"/><path d="M278.57,101.90L278.61,101.71L278.68,101.53L278.77,101.38"/><path d="M278.74,101.41L278.86,101.28"/><path d="M280.30,104.03L280.50,104.04L280.70,104.02L280.87,103.97"/><path d="M280.83,103.99L280.99,103.91"/><path d="M281.09,103.80L281.00,103.90L280.86,104.01"/></g></g><g id="Actor_.11"><g style="stroke:#000000;stroke-width:0.353"><path d="M163.58,187.14L163.63,187.25"/><path d="M163.31,185.95L163.31,185.74L163.33,185.54L163.36,185.35L163.41,185.18L163.48,185.03L163.56,184.89L163.66,184.77L163.78,184.67L163.91,184.59L164.05,184.52L164.20,184.48L164.37,184.46L164.52,184.46L164.55,184.46L164.74,184.49L164.93,184.53L165.14,184.59L165.34,184.68L165.56,184.78L165.77,184.90L165.98,185.04L166.20,185.20L166.41,185.38L166.62,185.57L166.83,185.77L167.02,185.99L167.16,186.15L167.21,186.21L167.39,186.45L167.57,186.69L167.66,186.84L167.73,186.94L167.87,187.19L168.01,187.45L168.06,187.57L168.12,187.71L168.23,187.96L168.31,188.21L168.38,188.46L168.44,188.70L168.47,188.94L168.49,189.16L168.49,189.37L168.48,189.57L168.44,189.76L168.41,189.85L168.39,189.93L168.32,190.08L168.23,190.22L168.13,190.34L168.01,190.44L167.88,190.52L167.85,190.53L167.74,190.58L167.58,190.61L167.41,190.63L167.23,190.63L167.04,190.60L166.85,190.56"/><path d="M164.01,186.72L163.97,187.11L163.98,187.48L164.24,187.80L164.54,188.09L164.57,188.16L164.63,188.26L164.69,188.36L164.72,188.40L164.77,188.70L164.85,188.97L165.23,189.27L165.64,189.53"/><path d="M164.72,188.40L165.59,187.67"/><path d="M164.54,188.09L165.64,187.40"/><path d="M164.57,187.32L164.58,187.32"/><path d="M163.98,187.48L165.73,187.05"/><path d="M163.88,184.41L164.02,184.32L164.17,184.26L164.33,184.22L164.50,184.19L164.69,184.20L164.89,184.22L165.09,184.26L165.30,184.33L165.52,184.42L165.74,184.52L165.96,184.65L166.18,184.80L166.40,184.96L166.63,185.15L166.84,185.34L167.06,185.55L167.26,185.78L167.46,186.01L167.65,186.26L167.83,186.51L167.99,186.77L168.14,187.03L168.28,187.30L168.41,187.57L168.51,187.83L168.60,188.09L168.68,188.35L168.73,188.60L168.77,188.85L168.79,189.08L168.79,189.30L168.77,189.51L168.73,189.70L168.68,189.88L168.61,190.04L168.52,190.18L168.41,190.30L168.29,190.41"/><path d="M165.59,189.88L165.56,189.86"/><path d="M164.85,188.97L165.65,187.97"/><path d="M165.52,188.96L165.55,188.96L165.61,188.96L165.67,188.94L165.71,188.91L166.13,189.12L166.57,189.30"/><path d="M165.71,188.91L166.27,188.40"/><path d="M164.93,186.48L164.83,186.88L164.76,187.27"/><path d="M165.13,183.49L165.12,183.50"/></g><g style="stroke:#000000;stroke-width:0.705"><path d="M163.42,186.63L163.49,186.89L163.58,187.14L163.72,187.51L163.87,187.83L164.05,188.15L164.25,188.47L164.47,188.77L164.71,189.06L164.96,189.33L165.22,189.58L165.49,189.80L165.80,190.03L166.01,190.18L166.23,190.30L166.44,190.41L166.64,190.49L166.92,190.58L167.12,190.63L167.31,190.65L167.49,190.66L167.76,190.63L167.92,190.59L168.07,190.53L168.15,190.49L168.29,190.41L169.52,189.46L169.71,189.19L169.84,188.86L169.90,188.46L169.88,188.00L169.79,187.51L169.62,186.99L169.39,186.46L169.10,185.93L168.76,185.42L168.37,184.94L167.95,184.50L167.52,184.13L167.07,183.82L166.63,183.58L166.20,183.43L165.80,183.36L165.44,183.38L165.13,183.49L163.88,184.41L163.76,184.51L163.70,184.58L163.60,184.71L163.51,184.85L163.44,185.01L163.41,185.09L163.36,185.27L163.32,185.46L163.31,185.66L163.31,185.95L163.33,186.17L163.37,186.41L163.42,186.63"/><path d="M165.42,186.83L164.76,187.27L164.70,187.28L164.63,187.29L164.57,187.32L164.27,187.03L164.01,186.72"/><path d="M165.64,189.53L165.56,189.26L165.52,188.96L166.21,188.37"/><path d="M166.57,189.30L166.58,188.93L166.60,188.53L166.16,188.35L165.74,188.15L165.68,188.03L165.56,187.84L165.63,187.44L165.73,187.04L165.32,186.76L164.93,186.48"/><path d="M167.43,184.07L190.14,166.97L190.36,166.88L190.62,166.86L190.92,166.93L191.23,167.07L191.54,167.29L191.83,167.57L192.09,167.89L192.30,168.25L192.45,168.61L192.54,168.96L192.55,169.28L192.49,169.55L192.36,169.76L169.64,187.04"/><path d="M169.64,187.03L173.72,183.93"/><path d="M178.20,180.52L178.76,180.10"/></g></g><g id="Actor_.12"><g style="stroke:#000000;stroke-width:0.353"><path d="M277.74,109.25L278.05,108.97L278.30,108.64L278.49,108.25L278.61,107.82L278.66,107.35L278.65,106.86L278.56,106.35L278.41,105.84L278.19,105.34L277.91,104.85L277.58,104.39L277.20,103.96L276.78,103.58L276.33,103.25L275.86,102.98L275.37,102.77L274.88,102.64L274.41,102.58L273.95,102.58L273.51,102.67L273.46,102.68L273.12,102.82L272.76,103.04"/><path d="M274.32,104.78L274.11,104.95L273.95,105.17L273.86,105.45L273.84,105.75L273.89,106.08L274.01,106.41L274.19,106.73L274.42,107.01L274.70,107.25L275.00,107.44L275.31,107.56L275.63,107.62L275.92,107.59L276.18,107.50"/></g><g style="stroke:#000000;stroke-width:0.705"><path d="M272.34,106.93L272.13,106.43L271.97,105.93L271.89,105.42L271.87,104.94L271.92,104.47L271.93,104.44L272.04,104.04L272.22,103.66L272.46,103.32L272.76,103.04L273.10,102.78L273.46,102.56L273.85,102.41L274.29,102.33L274.75,102.32L275.22,102.38L275.71,102.52L276.20,102.72L276.67,102.99L277.12,103.32L277.54,103.70L277.92,104.13L278.25,104.59L278.53,105.08L278.75,105.58L278.90,106.10L278.99,106.60L279.00,107.09L278.95,107.56L278.82,107.99L278.64,108.38L278.39,108.71L278.08,108.99L277.74,109.25L277.38,109.46L276.98,109.61L276.55,109.68L276.09,109.68L275.61,109.62L275.13,109.48L274.65,109.27L274.18,109.00L273.74,108.67L273.46,108.42L273.32,108.29L272.95,107.87L272.62,107.41L272.34,106.93"/><path d="M276.44,107.27L276.26,107.33L275.96,107.36L275.65,107.31L275.34,107.18L275.04,107.00L274.76,106.75L274.53,106.47L274.35,106.15L274.23,105.82L274.18,105.50L274.20,105.19L274.29,104.92L274.41,104.75"/><path d="M276.18,107.50L276.39,107.33L276.55,107.11L276.64,106.83L276.66,106.53L276.61,106.20L276.50,105.87L276.31,105.55L276.08,105.26L275.80,105.02L275.50,104.83L275.18,104.71L274.87,104.66L274.58,104.68L274.32,104.78"/></g></g><g id="Actor_.13"><g style="stroke:#000000;stroke-width:0.353"><path d="M273.04,97.62L273.23,97.64L273.39,97.65L273.57,97.66L273.90,97.66L274.23,97.65L274.57,97.66L274.94,97.73L275.31,97.85L275.68,98.03L276.03,98.26L276.36,98.54L276.65,98.84L276.38,98.51L276.25,98.33L276.12,98.14L275.98,97.93L275.85,97.71L275.71,97.47L275.44,97.52L275.20,97.55L274.97,97.58L274.77,97.61L274.57,97.63L274.23,97.65L273.90,97.70L273.59,97.80L273.32,97.96L273.08,98.17L272.89,98.42L272.74,98.72L272.65,99.05L272.61,99.39L272.63,99.71"/><path d="M274.51,101.16L274.27,100.93L274.07,100.66L273.93,100.37L273.85,100.07L273.85,99.95L273.84,99.78L273.89,99.51L274.00,99.28L274.10,99.18L274.17,99.11L274.39,98.99L274.64,98.94L274.92,98.96L275.21,99.05L275.48,99.21L275.74,99.42L275.96,99.67L276.13,99.95L276.24,100.25L276.29,100.55L276.27,100.83L276.18,101.08L276.04,101.28L275.84,101.42L275.61,101.51L275.34,101.52L275.05,101.46L274.77,101.34L274.51,101.16"/><path d="M275.80,101.13L275.61,101.20L275.54,101.21L275.39,101.21L275.16,101.17L274.92,101.07L274.70,100.92L274.51,100.73L274.35,100.51L274.24,100.27L274.17,100.02L274.16,99.79L274.16,99.78L274.20,99.57L274.29,99.38L274.43,99.24"/><path d="M275.71,97.47L276.44,96.93"/><path d="M275.25,96.90L275.25,96.90"/><path d="M277.23,102.07L277.05,102.30L276.81,102.51L276.53,102.66L276.25,102.75"/><path d="M275.96,101.02L275.94,101.03"/><path d="M277.71,100.52L277.80,100.25L277.88,99.99L277.66,99.81L277.46,99.65L277.27,99.47L277.10,99.31L276.93,99.15L276.65,98.84L276.91,99.17L277.13,99.54L277.31,99.92L277.43,100.31L277.50,100.70L277.51,100.79"/><path d="M277.88,99.99L278.61,99.44"/></g><g style="stroke:#000000;stroke-width:0.705"><path d="M278.60,99.91L278.60,99.80L278.61,99.44L278.47,99.19L278.34,98.98L278.20,98.77L277.93,98.40L277.67,98.08L277.38,97.77L277.22,97.60L277.05,97.44L276.86,97.27L276.66,97.11L276.44,96.93L276.25,96.91L276.09,96.90L275.91,96.89L275.75,96.88L275.57,96.88L275.25,96.90L274.90,96.92L274.70,96.94L274.50,96.97L274.27,97.00L274.04,97.03L273.78,97.08L273.04,97.62L272.89,98.08L272.83,98.31L272.73,98.69L272.65,99.05L272.60,99.37L272.58,99.55L272.57,99.69"/><path d="M275.80,101.13L275.96,101.01L276.08,100.85L276.15,100.65L276.16,100.42L276.13,100.17L276.11,100.13L276.03,99.93L275.89,99.70L275.72,99.49L275.51,99.32L275.28,99.19L275.05,99.12L274.82,99.10L274.61,99.14L274.43,99.24"/><path d="M274.97,99.11L274.96,99.30L275.00,99.55L275.09,99.79L275.23,100.02L275.40,100.23L275.61,100.40L275.84,100.52L276.07,100.60L276.15,100.60"/><path d="M276.29,102.78L276.43,102.77L276.64,102.74L276.87,102.71L277.10,102.68L277.32,102.65"/></g></g><g id="Actor_.14"><g style="stroke:#000000;stroke-width:0.353"><path d="M281.59,96.98L281.79,97.00L281.97,97.01L282.15,97.02L282.51,97.02L282.86,97.01L283.22,97.02L283.61,97.09L284.01,97.22L284.39,97.41L284.77,97.65L285.12,97.94L285.42,98.25L285.72,98.58L285.89,98.75L286.07,98.92L286.27,99.10L286.48,99.27L286.71,99.46L286.62,99.73L286.55,99.96L286.48,100.19L286.42,100.40L286.36,100.60L286.28,100.96L286.33,100.60L286.31,100.21L286.24,99.80L286.11,99.39L285.93,98.98L285.69,98.60L285.42,98.25L285.14,97.91L285.00,97.72L284.86,97.52L284.71,97.30L284.57,97.08L284.42,96.82L284.14,96.87L283.89,96.90L283.65,96.94L283.44,96.96L283.22,96.98L282.86,97.01L282.51,97.06L282.18,97.17L281.88,97.33L281.63,97.55L281.42,97.82L281.27,98.13L281.17,98.48L281.12,98.84L281.14,99.23L281.21,99.63L281.34,100.04L281.52,100.44L281.76,100.82L282.02,101.17L282.33,101.48L282.67,101.77L283.04,102.01L283.42,102.19L283.82,102.33L284.21,102.40L284.57,102.41L284.92,102.37L285.25,102.26L285.55,102.10L285.79,101.90L285.81,101.88L286.02,101.61L286.18,101.30L286.28,100.96L286.22,101.31L286.19,101.49L286.17,101.66L286.16,101.85L286.15,102.04L286.14,102.24"/><path d="M282.42,99.24L282.43,99.54L282.52,99.86L282.66,100.16L282.87,100.44L283.12,100.68L283.40,100.88L283.70,101.00L284.00,101.06L284.28,101.05L284.54,100.96L284.75,100.81L284.90,100.60L285.00,100.34L285.02,100.04L284.97,99.73L284.85,99.42L284.68,99.12L284.45,98.86L284.18,98.64L283.88,98.48L283.58,98.39L283.29,98.36L283.01,98.42L282.78,98.54L282.60,98.72L282.48,98.96L282.42,99.24"/><path d="M283.05,98.67L282.90,98.82L282.80,99.02L282.76,99.25L282.76,99.26L282.77,99.50L282.83,99.75L282.96,100.00L283.12,100.23L283.33,100.43L283.56,100.59L283.80,100.69L284.05,100.74L284.28,100.73L284.49,100.66L284.67,100.53"/><path d="M284.42,96.82L285.18,96.25"/><path d="M283.90,96.22L283.91,96.22"/><path d="M286.71,99.46L287.47,98.89"/></g><g style="stroke:#000000;stroke-width:0.705"><path d="M281.19,100.00L281.04,99.75L281.04,99.55L281.05,99.36L281.06,99.17L281.08,99.00L281.11,98.82L281.17,98.48L281.25,98.10L281.36,97.70L281.43,97.47L281.59,96.98L282.34,96.41L282.62,96.37L282.87,96.33L283.11,96.30L283.33,96.27L283.54,96.25L283.91,96.22L284.25,96.21L284.44,96.21L284.61,96.21L284.80,96.22L284.99,96.23L285.18,96.25L285.42,96.44L285.62,96.61L285.82,96.79L286.00,96.96L286.17,97.13L286.47,97.46L286.75,97.80L287.03,98.18L287.17,98.40L287.31,98.62L287.47,98.89L287.45,99.26L287.44,99.45L287.39,99.81L287.33,100.16L287.24,100.52L287.19,100.72L287.13,100.93L287.06,101.16L286.98,101.39L286.89,101.66L286.14,102.24L285.86,102.28L285.61,102.31L285.37,102.35L285.15,102.37L284.94,102.39L284.57,102.41L284.22,102.42L284.04,102.42L283.87,102.41L283.68,102.40L283.50,102.39L283.30,102.36L283.07,102.18L282.87,102.00L282.67,101.83L282.49,101.66L282.32,101.49L282.02,101.17L281.75,100.83L281.60,100.64L281.47,100.44L281.32,100.22L281.19,100.00"/><path d="M283.05,98.67L283.24,98.57L283.47,98.53L283.71,98.55L283.96,98.62L284.20,98.75L284.42,98.93L284.55,99.08L284.61,99.15L284.75,99.39L284.85,99.65L284.89,99.91L284.87,100.15L284.79,100.36L284.67,100.53"/><path d="M284.64,100.55L284.67,100.53"/><path d="M284.64,100.55L284.67,100.53"/><path d="M283.59,98.54L283.58,98.74L283.62,99.00L283.71,99.25L283.86,99.50L284.05,99.71L284.26,99.89L284.50,100.02L284.75,100.10L284.87,100.11"/></g></g><g id="Actor_.15"><g style="stroke:#000000;stroke-width:0.353"><path d="M88.80,39.90L110.03,30.18"/><path d="M117.67,43.41L105.78,49.16"/></g><g style="stroke:#000000;stroke-width:0.705"><path d="M85.53,38.13L105.54,29.06L107.69,29.14L110.03,30.18L117.67,43.41L117.65,46.40L116.96,48.83L115.64,50.49L111.74,52.40"/></g></g><g id="Actor_.16"><g style="stroke:#000000;stroke-width:0.353"><path d="M63.21,61.67L63.52,61.60"/><path d="M65.46,65.53L65.46,65.54L65.15,65.73"/></g><g style="stroke:#000000;stroke-width:0.705"><path d="M65.42,65.60L65.15,65.73L64.75,65.69L64.30,65.44L63.84,64.99L63.43,64.41L63.11,63.74L62.92,63.06L62.87,62.45L62.97,61.97L63.21,61.67L63.42,61.58"/><path d="M74.09,75.82L74.80,75.47"/><path d="M80.72,71.03L76.66,74.27"/></g></g><g id="Actor_.17"><g style="stroke:#000000;stroke-width:0.353"><path d="M48.36,57.87L56.17,50.24L55.84,49.44L55.77,48.62L55.95,47.86L56.38,47.23"/><path d="M55.59,61.34L55.29,61.34L54.94,61.17L54.59,60.84L54.26,60.39L54.00,59.87L53.83,59.33L53.77,58.84L53.83,58.44L53.99,58.19"/><path d="M55.65,33.96L195.78,113.30L194.63,128.29L194.69,129.49L195.03,130.78L195.64,132.07L210.43,157.76L211.11,159.29L211.40,160.77L211.27,162.05L210.72,163.00"/><path d="M55.79,31.29L55.55,29.27L55.21,28.99L55.08,28.66"/><path d="M55.55,29.27L198.31,108.93L198.14,111.19"/><path d="M57.68,64.44L57.30,64.99L57.21,65.61"/><path d="M59.92,71.00L60.49,71.30L61.16,71.32"/><path d="M63.02,28.66L62.84,28.41L62.49,28.22L62.01,28.10L61.47,28.07L60.90,28.12L60.38,28.26L59.96,28.47L59.69,28.72L59.59,28.99"/><path d="M65.14,65.80L64.74,65.80L64.28,65.56L63.81,65.13L63.38,64.54L63.04,63.86L62.82,63.17L62.75,62.53L62.84,62.02L63.07,61.69"/><path d="M67.51,84.99L75.97,78.34L75.22,78.56L74.42,78.53L73.62,78.24L72.92,77.72L72.37,77.02L63.61,84.06"/><path d="M63.40,74.35L63.22,74.59L63.15,74.97L63.21,75.45L63.37,75.98L63.63,76.50L63.96,76.95L64.32,77.28L64.67,77.47L64.98,77.49"/><path d="M73.96,81.16L73.94,81.23L73.77,81.37L72.61,82.10L71.40,82.71L71.20,82.78L71.14,82.76"/><path d="M74.13,76.15L72.37,77.02L72.19,75.16L72.19,74.70L72.29,74.34L72.47,74.09L77.20,70.23"/><path d="M72.19,75.16L73.95,74.28"/><path d="M72.47,74.09L74.23,73.21"/><path d="M75.97,78.34L81.58,75.51L80.47,73.59"/><path d="M76.24,78.77L76.29,78.79L76.75,78.61L77.72,78.11L78.59,77.58L79.09,77.21L79.11,77.14"/><path d="M81.58,75.51L82.07,75.28L82.60,75.10"/><path d="M86.92,64.72L86.57,64.72L86.17,64.52L85.77,64.16L85.41,63.68L85.18,63.20L84.96,62.54L84.92,62.01L85.01,61.58L85.22,61.31"/><path d="M125.83,63.47L125.77,63.14L125.52,62.85L125.09,62.61L124.53,62.46L123.92,62.42L123.28,62.49L122.76,62.66L122.34,62.91L122.09,63.22L122.05,63.55"/><path d="M155.59,104.72L155.21,104.88L154.75,104.83L154.25,104.58L153.77,104.16L153.36,103.61L153.06,102.99L152.90,102.37L152.91,101.81L153.08,101.38L153.40,101.12"/><path d="M187.49,163.34L174.42,140.68L173.97,140.82L173.78,140.80"/><path d="M186.86,139.83L186.33,139.99L185.68,139.88L184.99,139.52L184.33,138.93L183.79,138.22L183.41,137.41L183.22,136.62L183.26,135.93L183.53,135.40"/><path d="M187.57,154.68L187.16,154.79L186.66,154.69L186.13,154.40L185.63,153.95L185.21,153.39L184.92,152.78L184.78,152.18L184.81,151.66L185.02,151.27"/><path d="M187.80,153.00L187.78,153.05"/><path d="M187.45,152.32L187.29,152.58"/><path d="M195.58,154.66L194.64,154.90L193.52,154.68L192.34,154.04L191.22,153.05L190.29,151.80L189.63,150.44L189.33,149.11L189.41,147.94L189.87,147.08"/><path d="M192.58,164.20L192.24,164.27L191.83,164.19L191.40,163.95L190.99,163.58L190.65,163.12L190.41,162.63L190.30,162.14L190.33,161.73L190.50,161.42"/><path d="M194.63,128.29L196.44,127.03"/><path d="M195.64,132.07L197.45,130.81"/><path d="M195.78,113.30L195.97,112.35L196.36,111.34L196.92,110.37L197.60,109.53L198.31,108.93L201.63,110.77L201.44,113.04"/><path d="M198.37,132.42L196.57,133.69L197.32,133.37L199.16,132.41L200.88,131.33L214.75,155.44"/><path d="M200.93,150.29L200.48,150.40L199.95,150.30L199.40,150.01L198.87,149.55L198.43,148.96L198.13,148.33L197.99,147.70L198.03,147.16L198.26,146.76"/><path d="M204.13,106.54L203.98,106.12L203.61,105.74L203.07,105.44L202.41,105.26L201.71,105.21L201.04,105.29L200.47,105.51L200.07,105.83L199.87,106.22"/><path d="M205.01,127.89L206.66,127.25L200.88,131.33"/><path d="M201.63,110.77L202.40,111.09L203.29,111.26L204.19,111.26L205.02,111.09L205.69,110.76L205.48,113.04"/><path d="M206.92,159.92L206.56,160.00L206.12,159.92L205.66,159.67L205.23,159.29L204.87,158.81L204.63,158.30L204.52,157.79L204.56,157.36L204.75,157.04"/><path d="M205.62,127.62L205.67,127.62"/><path d="M205.69,110.76L209.79,108.00L209.57,110.27"/><path d="M206.66,131.60L207.21,131.61L207.75,131.83L208.24,132.25L208.61,132.81L208.84,133.46L208.88,134.13L208.73,134.76L208.45,135.23L208.01,135.54"/><path d="M207.27,126.99L206.66,127.25"/><path d="M209.79,108.00L210.24,107.57L210.42,107.05"/><path d="M214.92,145.97L215.46,145.97L216.00,146.19L216.49,146.60L216.86,147.16L217.08,147.81L217.13,148.48L217.00,149.10L216.71,149.60L216.28,149.92"/></g><g style="stroke:#000000;stroke-width:0.705"><path d="M48.62,62.20L48.44,61.83L48.04,60.59L47.90,59.44L48.00,58.50L48.36,57.87L48.05,57.09L47.98,56.30L48.16,55.56L48.58,54.95L56.38,47.23L57.12,46.75"/><path d="M52.06,68.26L49.99,64.70"/><path d="M55.59,61.34L55.81,61.17L55.93,60.84L55.93,60.39L55.81,59.87L55.59,59.33L55.29,58.84L54.94,58.44L54.58,58.19L54.26,58.10L53.99,58.19"/><path d="M58.43,79.19L55.02,73.33"/><path d="M56.17,50.24L56.71,49.70L57.06,49.16L57.22,48.38L57.20,47.43L55.65,33.96L55.67,33.13L55.91,32.29L56.36,31.51L56.96,30.87L57.66,30.44"/><path d="M56.31,31.59L55.79,31.29L55.45,31.02L55.32,30.69L55.08,28.66L55.18,28.32L55.49,28.00L55.99,27.72L60.08,26.00L60.71,25.81L61.41,25.70L62.11,25.70L62.76,25.81L63.28,26.01L209.37,105.58L209.97,106.01L210.33,106.52L210.42,107.05L210.20,109.32L210.02,109.83L209.57,110.27L205.48,113.04L204.81,113.36L203.98,113.53L203.09,113.53L202.21,113.36L201.44,113.04L198.14,111.19L197.86,111.48L197.75,111.67L197.63,112.06L196.44,127.03L196.50,128.23L196.84,129.52L197.45,130.81L198.37,132.42L198.89,132.17L199.23,131.95L205.01,127.89L205.62,127.62L207.27,126.99L207.96,126.98L208.65,127.23L209.28,127.72L209.79,128.40L220.73,147.44L221.06,148.24L221.20,149.09L221.13,149.91L220.85,150.61L220.38,151.13L214.75,155.44L213.97,155.99L213.05,156.55L212.09,157.06L211.19,157.48L210.43,157.76"/><path d="M58.95,64.78L59.00,64.47L58.28,64.26L57.68,64.44"/><path d="M59.00,64.47L59.77,65.02L60.54,65.90L61.20,66.98L61.68,68.16L61.93,69.29L61.92,70.26L61.64,70.97L61.16,71.32"/><path d="M64.08,83.82L63.61,84.06L63.01,84.27L62.25,84.11L61.42,83.57L60.59,82.71L59.80,81.55"/><path d="M63.02,28.66L63.02,28.93L62.83,29.20L62.49,29.42L62.01,29.60L61.46,29.70L60.89,29.71L60.37,29.63L59.95,29.47L59.68,29.25L59.59,28.99"/><path d="M61.66,70.16L61.91,70.29"/><path d="M64.98,77.49L65.21,77.33L65.33,77.01L65.34,76.58L65.23,76.06L65.01,75.53L64.71,75.04L64.36,74.64L64.00,74.37L63.67,74.27L63.40,74.35"/><path d="M65.14,65.80L65.44,65.58L65.60,65.16L65.61,64.57L65.47,63.89L65.19,63.19L64.79,62.55L64.33,62.03L63.86,61.69L63.42,61.57L63.07,61.69"/><path d="M64.01,83.74L64.54,84.41L65.22,84.90L66.00,85.18L66.78,85.21L67.51,84.99L73.56,81.91L75.17,80.95L82.60,75.17L82.60,75.10L81.49,73.19L81.31,73.22L80.47,73.59L74.84,76.41L74.70,76.46L74.53,76.45L74.38,76.39L74.24,76.29L74.13,76.15L73.95,74.28L73.95,73.83L74.05,73.46L74.23,73.21L78.25,69.95"/><path d="M71.14,82.76L71.48,82.48L72.27,81.98L73.19,81.48L73.57,81.30L73.96,81.16"/><path d="M79.30,74.18L78.88,73.46L78.63,73.49L78.09,73.70L76.41,74.54L75.45,75.08L74.10,75.92"/><path d="M76.24,78.77L76.34,78.66L76.96,78.23L77.88,77.70L78.72,77.27L79.11,77.14"/><path d="M77.20,70.23L77.89,69.93L78.73,69.98L79.66,70.39L163.63,121.18L164.87,122.11L166.02,123.33L166.99,124.75L174.01,136.91L174.30,137.52L174.47,138.13L174.51,138.68L174.42,140.68"/><path d="M85.22,61.31L85.54,61.21L85.92,61.31L86.33,61.59L86.71,62.02L87.04,62.55L87.27,63.14L87.37,63.70L87.35,64.18L87.19,64.54L86.92,64.72"/><path d="M122.05,63.55L122.21,63.87L122.55,64.15L123.05,64.34L123.64,64.44L124.27,64.43L124.86,64.30L125.35,64.09L125.69,63.80L125.83,63.47"/><path d="M153.40,101.12L153.82,101.05L154.31,101.20L154.80,101.53L154.89,101.88L155.19,102.50L155.60,103.05L155.86,103.28L155.93,103.86L155.84,104.37L155.59,104.72"/><path d="M155.86,103.28L155.63,102.63L155.26,102.03L154.80,101.53"/><path d="M190.23,166.94L189.10,165.83L188.15,164.47L187.49,163.34L187.02,163.44L186.81,163.37L173.78,140.80L173.87,140.61L174.44,140.13"/><path d="M183.53,135.40L183.98,135.11L184.57,135.07L185.26,135.31L185.94,135.78L186.56,136.45L187.04,137.23L187.32,138.04L187.39,138.80L187.23,139.42L186.86,139.83"/><path d="M185.02,151.27L185.37,151.06L185.82,151.05L186.35,151.25L186.87,151.62L187.34,152.14L187.70,152.73L187.93,153.35L187.98,153.92L187.85,154.38L187.57,154.68"/><path d="M185.01,135.22L185.00,135.39L185.19,136.18L185.57,136.98L186.11,137.69L186.77,138.28L187.37,138.60"/><path d="M187.84,153.10L187.37,152.69L186.96,152.13L186.65,151.46"/><path d="M190.50,161.42L190.79,161.26L191.16,161.26L191.59,161.43L192.02,161.74L192.40,162.16L192.70,162.64L192.88,163.14L192.91,163.60L192.81,163.96L192.58,164.20"/><path d="M189.87,147.08L190.66,146.60L191.70,146.57L192.88,146.99L194.06,147.82L195.12,148.97L195.93,150.31L196.42,151.70L196.52,152.97L196.23,154.00L195.58,154.66"/><path d="M196.34,153.60L195.27,153.40L194.09,152.76L192.97,151.77L192.04,150.53L191.38,149.17L191.09,147.84L191.17,146.68L191.22,146.59"/><path d="M191.13,147.27L194.39,152.92"/><path d="M212.40,156.90L212.87,157.95L213.15,159.43L213.01,160.70L212.46,161.65L210.70,163.01L209.82,163.53L193.80,168.12L192.73,168.17L192.14,167.98"/><path d="M198.26,146.76L198.64,146.53L199.13,146.52L199.68,146.72L200.23,147.10L200.73,147.63L201.10,148.24L201.33,148.90L201.38,149.49L201.24,149.97L200.93,150.29"/><path d="M199.30,111.84L198.97,111.71L198.72,111.51"/><path d="M201.29,148.78L201.16,148.71L200.63,148.25L200.20,147.67L199.90,147.04L199.85,146.83"/><path d="M204.13,106.54L204.05,106.95L203.75,107.32L203.26,107.59L202.63,107.75L201.93,107.76L201.23,107.64L200.62,107.39L200.16,107.05L199.90,106.64L199.87,106.22"/><path d="M206.92,159.92L207.18,159.67L207.30,159.29L207.26,158.81L207.08,158.29L206.78,157.79L206.37,157.35L205.92,157.03L205.47,156.87L205.10,156.87L204.75,157.04"/><path d="M205.56,133.01L205.75,133.17L206.12,133.73L206.34,134.38L206.39,135.04L206.36,135.15"/><path d="M206.66,131.60L206.18,131.81L205.80,132.21L205.58,132.77L205.53,133.42L205.67,134.09L205.97,134.71L206.41,135.21L206.93,135.53L207.49,135.65L208.01,135.54"/><path d="M214.92,145.97L214.44,146.19L214.07,146.61L213.86,147.17L213.82,147.83L213.96,148.50L214.26,149.12L214.69,149.61L215.22,149.93L215.76,150.04L216.28,149.92"/><path d="M214.55,149.45L214.59,149.30L214.54,148.63L214.31,147.99L213.94,147.43L213.85,147.35"/></g></g><g><g/></g><g><g><path style="stroke:#ff0000;stroke-width:0.500;stroke-dasharray:0.6 0.6" d="M192.46,162.26L184.07,168.53"/><path style="stroke:#ff0000;stroke-width:0.500;stroke-dasharray:0.6 0.6" d="M218.19,143.03L239.11,127.40"/><path style="stroke:#ff0000;stroke-width:0.500;stroke-dasharray:0.6 0.6" d="M269.23,104.89L262.60,109.85"/><path style="stroke:#ff0000;stroke-width:0.500;stroke-dasharray:0.6 0.6" d="M272.12,102.73L270.85,103.68"/></g></g><g><g><path style="stroke:#ff0000;stroke-width:0.500;stroke-dasharray:0.6 0.6" d="M206.96,158.09L192.49,168.77"/><path style="stroke:#ff0000;stroke-width:0.500;stroke-dasharray:0.6 0.6" d="M254.35,122.79L247.90,127.86L220.88,147.81"/><path style="stroke:#ff0000;stroke-width:0.500;stroke-dasharray:0.6 0.6" d="M276.29,105.52L265.13,114.30"/><path style="stroke:#ff0000;stroke-width:0.500;stroke-dasharray:0.6 0.6" d="M280.82,101.95L277.97,104.20"/><path style="stroke:#ff0000;stroke-width:0.500;stroke-dasharray:0.6 0.6" d="M281.83,101.15L284.51,99.04"/><path style="stroke:#ff0000;stroke-width:0.500;stroke-dasharray:0.6 0.6" d="M287.14,96.97L286.49,97.48"/></g></g><g><g><path style="stroke:#ff0000;stroke-width:0.500;stroke-dasharray:0.6 0.6" d="M185.33,137.55L186.66,136.62"/><path style="stroke:#ff0000;stroke-width:0.500;stroke-dasharray:0.6 0.6" d="M231.80,105.17L196.84,129.53"/></g></g><g/><g id="paperID" visibility="hidden" opacity="0.00" transform="scale(0.000100)"><path style="stroke:#000000;stroke-width:0.500;fill:#e6e6e6;fill-rule:evenodd" d="M-2000.00,-2000.00L2297.00,-2000.00L2297.00,2210.00L-2000.00,2210.00zM0.00,0.00L297.00,0.00L297.00,210.00L0.00,210.00z"/><path style="fill:#000000;fill-opacity:0.118" d="M3.00,210.00L297.00,210.00L297.00,3.00L300.00,3.00L300.00,213.00L3.00,213.00z"/></g><g id="ToolTip" visibility="hidden" opacity="0" transform="translate(0,0)"><rect id="ToolTipShadow" opacity="0.20" fill="black" stroke="none" x="0" y="0" width="30" height="8"/><rect id="ToolTipBG" fill="#ffffe1" stroke="black" x="0" y="0" width="30" height="8"/><text xml:space="preserve" id="ToolTipText" fill="black" x="0" y="0" width="30" height="8">tooltip</text></g></g></svg>
