<?xml version="1.0" encoding="UTF-8" standalone="no"?>
<svg xmlns="http://www.w3.org/2000/svg" xmlns:xlink="http://www.w3.org/1999/xlink" width="297.000mm" height="210.000mm" viewBox="0.000000 0.000000 297.000000 210.000000" stroke-linejoin="round" stroke-linecap="round" fill="none" fill-rule="evenodd"><desc>3DVIA Composer Export</desc><script type="text/ecmascript"><![CDATA[
if(typeof(top) != "undefined")
{
	top.ShowPaper = ShowPaper;
}
function ShowHotSpot(evt,hotspotid)
{
	var svgDocument = evt.target.ownerDocument;
	var strId = "hotspot."+hotspotid;
	var hotspot = svgDocument.getElementById(strId);
	if(hotspot)
		hotspot.setAttribute("opacity",".5");
}
function HideHotSpot(evt,hotspotid)
{
	var svgDocument = evt.target.ownerDocument;
	var strId = "hotspot."+hotspotid;
	var hotspot = svgDocument.getElementById(strId);
	if(hotspot)
		hotspot.setAttribute("opacity","0");

	var toolTip = svgDocument.getElementById('ToolTip');
	if(toolTip)
		toolTip.setAttribute("visibility","hidden");
}
function ShowToolTip(evt,hotspotid,strTooltip)
{
	if(strTooltip=="")
	return;

	// change text
	var svgDocument = evt.target.ownerDocument;
	var tiptext = svgDocument.getElementById('ToolTipText');
	if( !tiptext )
	return;
	tiptext.firstChild.nodeValue = " " + strTooltip + "  " ;

	// show tooltip before, else some refresh issue

	var toolTip = svgDocument.getElementById('ToolTip');
	if(!toolTip)
	return;

	toolTip.setAttribute("visibility","visible");
	toolTip.setAttribute("opacity",".95");

	// move tooltip
	// get viewbox

	var root = svgDocument.documentElement;
	var vbox = (root.getAttribute("viewBox")).split(' ');
	var x0 = parseFloat(vbox[0]);
	var y0 = parseFloat(vbox[1]);
	var vboxW = parseFloat(vbox[2]);
	var vboxH = parseFloat(vbox[3]);

	// get default width of svg

	var strW = root.getAttribute("width");
	var svgW = parseFloat(strW);
	if(strW.indexOf('mm') != -1)
	svgW *= 3.779;

	var strH = root.getAttribute("height");
	var svgH = parseFloat(strH);
	if(strH.indexOf('mm') != -1)
	svgH *= 3.779;  	// 96 dpi  -> 96/25.4 = 3.779

	// update the viewbox / width / height if svg is embedded in html with zoom fit all
	var realx0 = x0;
	var realy0 = y0;
	var realvboxW = vboxW;
	var realvboxH = vboxH;
	var realsvgW = svgW;
	var realsvgH = svgH;

	if ((typeof(top) == "undefined") || (typeof(top.svgctl1) != "undefined")) // embedded in html
	{
		// get window size in pxl

		svgW = window.innerWidth;
		svgH = window.innerHeight;

		// calculate real viewbox

		realsvgW = svgW;
		realsvgH = svgH;
		if((svgW / svgH) > (vboxW / vboxH))
		{
			realvboxW = (vboxH * svgW) / svgH;
			realvboxH = vboxH;
			realx0 = x0 - (realvboxW - vboxW)/2 ;
		}
		else
		{
			realvboxH = (vboxW * svgH) / svgW;
			realvboxW = vboxW;
			realy0 = y0 - (realvboxH - vboxH)/2 ;
		}
	}

	// get user zoom/pan

	var newScale = root.currentScale;
	var translation = root.currentTranslate;

	// transform pxl to user unit

	var xPos = (((evt.clientX+10- translation.x)/newScale) * realvboxW)/realsvgW  + realx0 ;
	var yPos = (((evt.clientY+5- translation.y)/newScale) * realvboxH)/ realsvgH  + realy0 ;
	var scaleForWidth = ( (1 / newScale) * realvboxH) / realsvgH;

	// move tooltip

	toolTip.setAttribute("transform", "translate(" + xPos + "," + yPos + ")" );

	// resize tooltip

	var fontsize = 12;
	tiptext.setAttribute("font-size",fontsize*scaleForWidth);
	tiptext.setAttribute("y", fontsize*scaleForWidth);
	var tipBG = svgDocument.getElementById('ToolTipBG');
	var outline = tiptext.getBBox();
	if(tipBG)
	{
		tipBG.setAttribute("stroke-width", 1*scaleForWidth);
		tipBG.setAttribute("width", Number(outline.width) );
		tipBG.setAttribute("height", Number(outline.height) + fontsize*.5*scaleForWidth );
	}
	var ToolTipShadow = svgDocument.getElementById('ToolTipShadow');
	if(ToolTipShadow)
	{
		ToolTipShadow.setAttribute("width", Number(outline.width) );
		ToolTipShadow.setAttribute("height", Number(outline.height) + fontsize*.5*scaleForWidth );
		ToolTipShadow.setAttribute("x", 3*scaleForWidth);
		ToolTipShadow.setAttribute("y", 3*scaleForWidth);
	}
}
function ShowPaper()
{
  var svgDocument = getDocument();
  var paper = svgDocument.getElementById("paperID");
  if(paper)
  {
    paper.setAttribute("transform","scale(1)");
    paper.setAttribute("opacity","1");
    paper.setAttribute("visibility","visible");
  }
  var svg = svgDocument.getRootElement();
  if(svg)
  {
    svg.setAttribute("width","307.000mm");
    svg.setAttribute("height","220.000mm");
    svg.setAttribute("viewBox","-5.000000 -5.000000 307.000000 220.000000");
  }
}
]]></script><defs/><g><path style="fill:#dcdcdc;fill-opacity:0.098;fill-rule:evenodd" d="M170.14,111.18L173.64,112.69L174.03,112.67L174.42,111.66L173.78,111.22L173.77,110.95L182.85,106.18L181.34,105.44L180.09,105.48L176.86,104.19L176.29,104.19L168.10,108.45L166.66,108.45L157.72,104.97L157.47,103.97L156.65,103.69L156.14,104.22L155.74,104.24L147.18,100.79L147.18,100.51L162.98,92.15L164.11,90.77L164.22,91.09L162.94,93.59L162.87,94.85L169.40,97.51L171.89,98.34L172.56,96.26L175.04,91.78L175.21,91.70L174.11,94.34L173.62,96.58L173.55,99.82L193.51,107.71L194.25,107.79L195.00,103.54L195.92,100.99L196.67,99.50L198.26,97.36L199.97,95.84L201.14,95.24L201.47,95.24L206.69,99.72L205.84,100.71L203.87,103.71L202.63,107.20L202.23,111.27L200.66,112.43L199.21,112.43L185.32,106.93L184.48,106.93L175.05,111.91L175.10,112.14L181.61,117.63L181.61,118.21L181.24,118.89L180.59,118.91L170.41,114.90L169.31,114.89L138.51,131.05L132.53,134.26L133.13,135.02L133.87,137.27L133.88,139.35L129.78,147.17L128.39,150.26L126.84,150.95L124.17,150.95L110.75,145.70L110.42,145.69L92.29,155.18L91.54,155.27L91.61,153.74L93.28,153.17L108.77,144.97L106.29,143.98L105.71,144.73L104.28,144.73L101.34,143.48L88.64,150.05L88.39,139.76L86.43,138.98L78.93,132.75L78.87,132.52L81.67,133.55L83.92,134.57L84.40,134.62L84.93,133.61L84.94,132.54L82.42,131.29L81.61,131.33L81.42,131.60L79.47,130.78L79.18,130.33L77.69,129.54L77.69,129.05L78.21,129.33L78.69,129.34L78.68,127.39L80.11,124.10L87.78,109.90L89.04,108.92L90.14,108.92L90.62,109.21L91.62,109.16L94.11,110.19L93.28,110.44L93.00,110.92L94.82,111.66L94.77,112.23L95.62,112.69L96.06,112.66L96.06,112.42L96.64,112.01L96.64,111.66L96.02,111.14L96.58,111.15L96.88,111.42L97.23,111.44L97.96,110.17L98.10,110.17L105.08,115.88L105.07,116.47L104.45,117.64L104.05,117.67L103.30,117.37L102.45,117.38L102.53,117.86L106.81,121.36L107.42,121.36L141.02,103.69L141.08,103.47L112.49,92.29L109.79,90.27L104.76,86.04L104.72,85.79L105.28,85.80zM167.95,114.01L131.56,133.06L129.31,133.04L127.32,133.78L121.70,144.07L121.67,147.22L121.95,147.97L121.19,147.97L101.00,140.07L100.56,138.77L100.55,136.09L106.19,125.58L107.93,124.83L109.78,124.83L124.92,130.83L125.66,130.65L161.37,111.92L162.20,111.64zM152.77,47.15L152.19,47.57L151.76,48.37L151.52,48.32L151.67,47.30L152.57,46.80zM155.24,48.55L155.99,49.04L156.51,49.79L156.51,50.37L155.91,51.28L154.50,51.27L153.51,50.52L151.67,50.29L153.18,49.79L154.25,48.88L154.99,47.03zM165.71,56.22L164.59,56.98L164.19,58.32L163.96,58.28L163.94,56.58L164.85,55.97L165.47,55.98zM148.06,56.21L147.21,56.75L147.05,57.58L146.81,57.54L146.79,56.33L147.46,55.97L147.83,55.98zM150.52,57.74L151.54,58.46L151.53,59.83L150.70,60.50L149.79,60.47L148.56,59.49L146.95,59.49L148.81,58.60L149.78,57.33L150.28,56.49zM123.67,61.05L122.70,61.23L122.11,60.45L122.40,60.45zM126.42,61.45L126.41,62.82L125.32,62.67L123.09,66.70L122.44,66.71L120.92,65.90L120.87,65.67L122.45,66.26L124.86,61.71L125.45,61.78L125.59,60.69L125.91,60.67zM131.15,65.18L131.13,66.80L130.07,66.67L127.89,70.76L127.15,70.69L125.64,69.88L125.59,69.65L126.92,70.20L127.31,70.18L129.58,65.69L130.31,65.72L130.64,64.67zM128.40,64.94L128.11,65.22L127.42,65.21L127.08,64.67L127.93,64.68zM161.00,65.42L159.84,66.15L159.45,67.30L159.17,67.30L158.93,66.97L158.95,66.01L159.62,65.18L160.76,65.19zM182.86,68.40L181.73,68.90L181.09,70.25L180.85,70.20L180.82,68.99L181.49,68.16L182.63,68.17zM160.05,70.08L159.19,69.95L158.81,69.58L159.49,69.65zM161.29,70.59L160.43,70.44L160.05,70.08L160.73,70.14zM165.76,72.32L164.91,72.18L164.52,71.81L165.20,71.89zM167.01,72.83L166.15,72.68L165.76,72.32L166.45,72.38zM217.87,72.90L219.14,74.14L219.14,74.72L218.54,75.63L217.14,75.62L216.13,74.87L214.87,74.92L214.30,74.64L215.80,74.15L217.13,72.99L217.62,71.90zM215.34,71.66L214.37,72.74L214.39,71.73L214.79,71.39L215.63,71.39zM170.24,74.06L169.38,73.92L168.99,73.55L169.68,73.63zM171.48,74.57L170.62,74.42L170.24,74.06L170.92,74.12zM173.64,76.36L172.54,77.88L171.88,77.91L171.36,77.39L171.36,76.70L172.30,75.61L173.15,75.60zM175.97,76.29L175.09,76.16L174.71,75.79L175.39,75.86zM177.87,76.89L177.03,77.13L175.38,80.19L174.31,81.13L173.38,81.12L170.64,80.08L170.09,80.09L168.89,82.18L168.94,79.58L167.39,78.83L167.34,78.59L167.91,78.59L172.37,80.37L173.57,80.37L174.63,79.45L176.12,76.60L175.97,76.29L176.63,76.36zM206.47,77.59L205.19,78.45L204.96,79.69L204.45,79.36L204.42,78.44L205.35,77.35L206.23,77.36zM180.43,78.04L179.57,77.90L179.18,77.53L179.87,77.60zM181.68,78.53L180.81,78.40L180.43,78.04L181.11,78.10zM192.53,82.59L193.10,83.00L190.53,87.65L189.68,88.79L190.78,89.30L190.49,89.58L189.71,89.53L189.20,90.05L188.29,90.07L187.05,89.52L186.49,89.54L185.72,91.05L184.81,91.06L183.79,90.51L183.74,90.27L184.31,90.27L185.08,90.61L187.47,86.11L188.06,85.95L188.04,84.83L186.33,84.10L185.48,84.33L184.96,84.82L186.31,85.34L185.56,85.66L184.23,88.32L183.82,88.34L180.58,87.05L180.01,87.04L178.88,87.67L177.01,89.28L176.12,90.63L175.21,91.70L177.14,87.67L181.84,78.84L181.68,78.53L182.34,78.60zM231.99,80.05L232.23,80.09L232.55,80.59L232.54,81.69L226.07,94.11L225.01,95.04L223.56,95.04L223.17,94.68L224.52,94.54L225.08,94.11L232.06,80.93zM228.30,80.60L227.22,81.34L226.83,82.67L226.32,82.34L226.30,81.42L226.98,80.60L227.82,80.33zM210.92,80.61L210.17,80.94L209.66,81.92L209.44,81.89L209.34,80.87L210.08,80.34zM213.15,82.09L214.16,83.07L214.16,84.18L213.56,84.82L212.41,84.81L211.20,83.84L209.58,83.85L211.44,82.95L212.58,81.61L212.90,80.84zM195.09,83.75L194.23,83.61L193.85,83.25L194.53,83.32zM196.33,84.26L195.48,84.11L195.09,83.75L195.77,83.81zM167.73,84.45L167.17,85.43L167.13,84.92L167.59,84.31zM200.80,85.99L199.95,85.85L199.56,85.48L200.25,85.55zM202.05,86.49L201.19,86.35L200.80,85.99L201.49,86.05zM237.99,87.16L238.00,86.65L238.49,86.53zM205.28,87.73L204.42,87.59L204.04,87.22L204.72,87.29zM206.52,88.23L205.66,88.09L205.28,87.73L205.96,87.79zM250.68,89.30L257.17,94.74L258.88,96.50L258.88,99.08L258.59,99.82L258.65,100.81L250.86,115.42L250.12,115.92L249.42,117.45L249.44,129.66L248.84,130.54L158.97,177.61L158.13,177.87L158.24,166.08L157.74,165.34L156.40,165.07L155.92,165.36L153.98,165.36L149.02,163.37L147.31,162.10L142.57,158.14L132.13,153.92L131.15,153.41L130.11,151.92L130.12,151.43L141.59,155.92L141.47,156.98L142.33,157.14L146.03,158.65L147.72,158.66L148.83,157.71L148.79,157.42L145.06,155.65L144.06,155.41L140.37,152.18L139.32,152.21L138.57,151.71L138.35,151.41L138.25,150.71L139.10,150.47L139.60,151.17L147.04,154.17L147.21,156.23L148.28,156.50L148.52,154.48L149.69,151.68L157.26,137.62L158.14,136.52L159.14,136.00L159.71,135.99L160.22,136.31L160.71,136.38L160.96,134.75L168.39,141.01L168.93,141.98L168.92,145.71L172.65,148.93L173.88,149.71L174.80,149.71L232.56,119.49L233.95,117.89L238.50,109.27L238.74,108.27L238.74,106.70L237.68,106.21L238.26,105.80L245.89,91.28L246.85,91.30L248.21,89.40L249.71,88.81zM236.98,88.88L237.00,88.14L237.54,87.83zM193.78,89.78L193.77,91.14L192.67,91.07L190.52,95.10L189.52,95.03L188.52,94.48L188.46,94.25L189.29,94.55L189.94,94.53L192.29,90.07L192.75,90.13L193.14,89.28zM223.62,89.77L222.49,90.28L221.85,91.62L221.61,91.58L221.60,90.13L222.25,89.54L223.39,89.54zM210.99,89.96L210.14,89.83L209.75,89.46L210.44,89.53zM165.49,88.68L164.93,89.65L164.90,89.14L165.35,88.54zM212.24,90.47L211.38,90.32L210.99,89.96L211.68,90.03zM240.86,91.18L240.98,91.85L240.50,92.14L239.90,93.03L239.00,93.03L238.68,92.26L239.24,91.12L240.73,91.04zM215.47,91.70L214.61,91.57L214.23,91.20L214.91,91.27zM216.71,92.21L215.85,92.06L215.47,91.70L216.15,91.77zM221.18,93.95L220.33,93.80L219.94,93.43L220.63,93.51zM236.05,100.49L236.02,101.04L235.69,101.24L235.00,102.32L234.28,102.23L234.02,101.98L234.00,100.80L234.75,100.05L235.51,99.96zM236.51,105.48L235.75,105.48L232.01,103.93L231.96,103.69zM222.35,118.91L222.84,118.89L222.52,118.35L223.08,118.35L228.08,120.39L228.08,120.67L225.51,122.12L224.07,122.12L208.17,115.90L206.21,114.38L202.94,111.63L202.88,111.39zM135.76,127.13L135.75,126.61L136.28,126.29L136.85,126.31L136.85,127.43zM139.26,128.07L138.28,128.58L136.99,128.64L136.99,128.08L138.28,127.84L139.38,127.35zM156.49,134.54L155.92,134.81L155.27,134.78L154.22,134.00L154.17,133.76zM156.97,135.77L156.64,136.29L156.26,136.29L155.67,135.50zM146.77,135.87L146.81,135.08L147.06,135.03zM90.35,150.27L91.38,150.18L91.38,151.03L90.35,150.93zM93.78,151.92L92.55,152.44L91.52,152.50L91.52,151.95L93.89,151.20zM152.74,174.89L153.18,174.51L153.75,174.52L153.78,175.61L152.73,175.28zM156.52,176.14L155.42,176.79L154.14,176.85L154.14,176.30L155.93,175.81L156.51,175.29zM156.51,178.38L154.93,179.28L153.66,179.36L153.67,178.02L155.16,177.52L156.17,176.99L156.48,177.01zM110.26,88.58L109.51,88.57L108.66,88.10L108.66,87.82L108.99,87.77zM250.04,90.67L250.20,91.62L249.36,93.04L248.44,93.85L247.61,94.13L247.68,92.35L248.71,90.90L249.36,90.51zM114.98,92.56L114.23,92.55L113.39,91.99L113.75,91.78zM250.71,93.01L250.33,94.04L249.66,94.03L249.68,93.65L250.12,92.77L250.43,92.72zM257.42,96.98L257.40,97.84L256.42,99.36L254.90,100.34L254.89,98.57L255.91,97.11L256.30,96.74L257.16,96.72zM132.15,98.25L131.64,98.28L130.63,97.73L130.63,97.24zM246.44,98.50L246.46,99.84L246.12,100.48L244.94,100.49L244.94,99.57L245.57,98.24zM257.89,99.00L257.83,99.76L257.14,100.35L257.12,99.29L257.40,98.72zM250.69,100.22L251.11,101.05L251.65,101.25L253.18,101.95L252.54,102.69L251.93,104.53L247.35,102.79L247.61,101.48L248.37,100.24L249.66,100.29L249.94,99.99zM249.67,104.46L249.36,104.95L247.66,104.95L247.68,104.56L248.35,104.19L249.20,104.19zM252.93,105.73L252.95,106.02L252.57,106.47L251.92,106.48L251.83,105.44L252.41,105.42zM155.76,107.44L155.25,107.47L154.22,106.92L154.17,106.67L154.73,106.67zM98.23,114.43L99.10,114.40L99.12,114.98L98.57,115.49L98.61,116.19L97.83,116.19L97.50,118.65L96.82,118.67L96.51,118.46L96.25,116.85L90.35,127.92L90.37,128.41L91.89,127.84L92.60,128.07L92.57,128.29L91.31,129.04L91.41,129.86L91.01,129.82L90.12,131.64L89.62,131.61L89.12,130.81L88.87,131.38L88.40,131.34L80.20,128.07L79.93,127.82L79.92,126.90L83.69,119.48L88.15,111.26L88.54,110.91L89.65,110.91zM172.66,112.91L172.16,112.94L171.62,112.68L171.26,112.20zM101.35,115.61L101.31,116.26L101.00,116.26L101.08,115.35zM177.39,116.88L176.60,116.91L176.09,116.60L176.04,116.37L176.60,116.36zM100.11,116.62L100.09,117.47L99.73,118.13L98.82,118.15L98.81,116.95L99.23,116.35L99.84,116.35zM227.33,131.32L227.06,132.63L226.47,133.30L225.84,133.30L225.51,132.53L225.94,131.25L226.24,131.03L226.82,131.02zM91.62,130.39L92.04,130.02L92.61,130.03L92.64,131.41L92.38,131.66L91.62,131.83zM83.70,135.02L82.91,135.06L82.41,134.75L82.41,134.27zM89.33,136.49L89.62,136.54L89.66,136.82L89.38,136.77zM88.66,139.25L88.16,139.28L87.29,138.80L87.30,138.51L87.62,138.47zM160.21,140.44L160.17,140.75L159.65,141.54L159.20,141.50L159.19,141.08L159.65,140.23L159.98,140.21zM156.97,140.84L157.21,139.56L158.13,138.25L158.63,138.00L159.47,138.00L159.48,139.60L158.63,140.73L157.39,141.52L156.97,141.50zM162.48,142.72L162.47,143.57L161.60,144.73L160.95,144.74L160.94,143.80L161.57,142.22zM159.47,147.70L162.94,149.19L160.94,153.02L160.47,152.96L156.41,151.27L156.47,149.76L157.49,147.80L157.89,147.43zM158.22,152.43L158.19,152.65L156.95,152.67L156.89,152.17L157.46,152.15zM153.02,154.12L152.41,155.18L152.00,155.18L152.17,154.15L152.41,153.87L152.78,153.88zM181.87,155.15L181.85,155.73L181.26,156.90L180.26,157.00L180.35,155.25L181.11,154.66zM152.27,153.02L151.52,154.25L150.18,155.19L149.69,155.26L149.94,153.42L150.78,152.03L151.42,151.66L152.26,151.66zM155.78,155.64L155.26,157.24L154.67,157.68L154.26,157.66L153.99,157.39L154.00,156.77L154.67,155.40L155.52,155.38zM146.07,159.39L145.56,159.42L145.03,159.09L144.97,158.87L145.26,158.86zM151.26,163.64L150.51,163.63L149.67,163.15L149.67,162.87L150.00,162.82z"/><g id="Actor_.0"><g style="stroke:#000000;stroke-width:0.353"><path d="M154.38,165.53L146.35,158.77L142.07,157.10L141.70,156.98L141.45,156.93L141.33,156.96"/><path d="M142.07,157.10L142.87,155.58"/><path d="M144.19,158.47L144.17,158.54L144.29,158.67L144.51,158.85L145.19,159.26L145.92,159.60L146.21,159.70L146.40,159.73L146.48,159.70"/><path d="M146.35,158.77L146.91,158.88L147.51,158.78L148.09,158.51L148.61,158.07L149.00,157.51L157.57,164.73L156.90,164.47"/><path d="M147.68,157.00L149.00,157.51L148.58,156.95L148.36,156.14L148.36,155.17L148.58,154.13L149.00,153.13L147.68,152.61"/><path d="M149.47,178.20L149.47,176.65L149.12,176.46L148.92,176.24L148.88,175.99"/><path d="M149.47,176.65L152.44,177.81L152.44,179.36"/><path d="M151.30,163.75L151.22,163.79L151.03,163.76L150.75,163.66L150.01,163.32L149.33,162.91L149.11,162.73L149.00,162.60L149.01,162.53"/><path d="M149.00,153.13L157.03,137.95L155.72,137.43"/><path d="M156.57,175.87L156.38,176.24L155.94,176.58L155.27,176.82L154.47,176.96L153.61,176.97L152.79,176.86L152.10,176.63L151.61,176.31L151.37,175.94"/><path d="M156.57,175.09L156.38,175.47L155.94,175.80L155.27,176.05L154.47,176.19L153.61,176.20L152.79,176.08L152.10,175.86L151.61,175.54L151.37,175.17"/><path d="M154.89,179.28L154.89,177.73L154.47,177.88L153.97,177.98L153.43,178.00L152.90,177.94L152.44,177.81"/><path d="M152.66,175.10L152.69,174.90L152.85,174.72L153.00,174.64L153.13,174.58L153.50,174.48L153.92,174.44L154.34,174.47L154.73,174.55L155.03,174.69L155.21,174.87L155.26,175.06"/><path d="M154.89,177.73L156.91,176.67"/><path d="M155.44,155.15L155.62,155.38L155.72,155.71L155.72,156.12L155.62,156.56L155.44,156.98L155.19,157.33L154.90,157.58L154.60,157.70L154.33,157.68"/><path d="M154.19,133.77L154.31,133.74L154.56,133.79L154.93,133.91L155.73,132.39"/><path d="M154.93,133.91L159.21,135.58L159.33,135.69"/><path d="M155.47,135.46L155.61,135.39L156.00,135.46L156.57,135.65L157.06,135.86"/><path d="M158.26,135.49L157.68,135.20L156.97,134.89L156.40,134.70L156.01,134.63L155.87,134.71"/><path d="M156.59,178.38L156.59,176.83L156.70,176.85L156.79,176.83"/><path d="M157.56,178.39L157.93,178.10L158.16,177.65L158.24,177.09L158.24,166.58L156.92,166.07"/><path d="M157.15,152.78L157.75,152.82L158.43,152.53"/><path d="M157.03,137.95L157.61,137.08L158.29,136.42L159.00,136.05L159.67,135.99"/><path d="M156.62,136.07L156.69,136.18"/><path d="M158.24,177.09L249.16,129.49"/><path d="M158.24,166.58L158.16,165.82L157.94,165.19L157.57,164.73"/><path d="M158.36,135.48L158.39,135.50"/><path d="M159.59,147.23L159.99,147.73L160.10,148.10"/><path d="M159.21,135.58L159.30,135.64"/><path d="M160.47,134.35L160.78,134.80L160.93,135.36L160.88,135.98L160.65,136.60L168.69,143.37"/><path d="M162.27,142.25L162.45,142.47L162.55,142.81L162.55,143.22L162.45,143.65L162.27,144.07L162.02,144.43L161.73,144.68L161.43,144.80L161.16,144.78"/><path d="M162.14,155.42L162.41,155.44"/><path d="M163.57,152.17L163.65,152.28"/><path d="M173.89,149.75L174.58,149.78L175.31,149.53L174.00,149.02"/><path d="M175.31,149.53L232.09,119.81L230.77,119.29"/><path d="M180.47,157.18L180.75,157.20L181.04,157.08L181.34,156.82L181.59,156.47L181.77,156.05L181.87,155.61L181.87,155.20L181.77,154.87L181.59,154.64"/><path d="M225.93,133.38L226.21,133.40L226.51,133.28L226.80,133.02L227.05,132.67L227.23,132.25L227.33,131.81L227.33,131.40L227.25,131.13L227.23,131.07L227.05,130.84"/><path d="M231.42,103.32L231.79,103.55L232.59,104.23"/><path d="M232.09,119.81L232.83,119.29L233.51,118.54L234.10,117.62L232.78,117.10"/><path d="M231.79,103.55L236.06,105.22L244.10,90.04"/><path d="M235.80,100.10L235.47,99.97L235.10,99.97L234.72,100.10L234.38,100.35L234.10,100.68L234.00,100.91L233.93,101.07L233.88,101.46L233.96,101.82L234.15,102.11"/><path d="M234.10,117.62L238.38,109.53L237.07,109.02"/><path d="M236.06,105.22L236.62,105.46L237.22,105.76L237.81,106.09L238.32,106.41L238.72,106.71L247.15,90.77L245.84,90.26"/><path d="M238.38,109.53L238.56,109.11L238.68,108.68L238.72,108.26L237.40,107.74"/><path d="M237.40,106.19L238.72,106.71L238.72,108.26"/><path d="M238.97,93.00L238.78,92.71L238.70,92.35L238.75,91.96L238.93,91.57L239.20,91.24L239.54,90.99L239.92,90.86L240.29,90.86L240.62,90.99"/><path d="M243.98,112.58L244.34,112.60L244.72,112.44L245.09,112.12L245.41,111.67L245.65,111.13L245.77,110.57L245.77,110.05L245.65,109.62L245.41,109.33"/><path d="M245.25,100.76L245.52,100.78L245.82,100.66L246.11,100.40L246.36,100.05L246.55,99.63L246.64,99.19L246.64,98.79L246.55,98.45L246.36,98.22"/><path d="M247.15,90.77L247.73,89.90L248.40,89.24L249.12,88.87L249.79,88.82"/><path d="M248.07,105.18L248.67,105.22L249.33,104.95L249.85,104.50"/><path d="M249.22,129.89L249.22,128.34L249.16,128.37"/><path d="M249.22,128.34L249.51,128.13L249.64,127.89"/><path d="M250.64,115.79L250.60,115.65L250.37,115.42L258.40,100.24"/><path d="M251.12,101.02L251.12,100.86L250.91,100.13L250.51,99.63"/><path d="M253.19,105.80L252.94,106.15L252.65,106.41L252.36,106.53L252.08,106.51"/></g><g style="stroke:#000000;stroke-width:0.705"><path d="M157.03,164.28L156.64,164.83L156.13,165.27L155.54,165.55L154.94,165.64L154.38,165.53L149.66,163.67L148.71,163.17L148.30,162.91L147.98,162.68L141.56,157.26L141.37,157.08L141.33,156.96L142.14,155.45L142.25,155.41L142.50,155.46L142.87,155.58L144.01,156.03L144.26,155.56L144.53,155.56L145.01,155.69L145.66,155.94L146.41,156.29L147.16,156.70L147.68,157.01L147.26,156.43L147.04,155.63L147.04,154.65L147.26,153.62L147.68,152.61L155.72,137.43L156.29,136.56L156.97,135.91L157.68,135.53L158.36,135.48L159.67,135.99L160.25,136.26L160.65,136.60"/><path d="M146.48,159.70L146.43,159.59L146.26,159.44L145.98,159.24L145.26,158.83L144.56,158.53L144.32,158.47L144.19,158.47"/><path d="M144.01,156.03L147.15,157.25L147.27,157.27L147.38,157.26L147.50,157.20L147.60,157.11L147.68,157.01"/><path d="M250.37,115.42L249.83,116.44L249.47,117.27L249.24,118.14L249.16,118.98L249.16,129.49L249.08,130.06L248.85,130.51L248.48,130.79L157.56,178.39L157.10,178.49L156.59,178.38L154.89,179.28L154.47,179.44L153.97,179.53L153.43,179.55L152.90,179.49L152.44,179.36L149.62,178.26L149.12,178.02L148.92,177.79L148.88,177.54L148.88,175.99L149.01,175.75L149.29,175.54L156.92,171.55"/><path d="M149.01,162.53L149.14,162.52L149.39,162.59L149.96,162.83L150.46,163.09L151.08,163.50L151.25,163.65L151.30,163.75"/><path d="M151.37,175.94L151.37,175.17L151.41,174.78L151.73,174.42L152.29,174.12L153.03,173.93L153.88,173.85L154.73,173.90L155.44,174.06L156.10,174.35L156.47,174.70L156.57,175.09L156.57,175.87"/><path d="M155.26,175.06L155.17,175.25L154.95,175.42L154.62,175.54L154.22,175.61L153.79,175.61L153.38,175.56L153.03,175.44L152.78,175.28L152.66,175.10"/><path d="M155.44,155.15L155.19,155.06L154.90,155.11L154.60,155.30L154.33,155.60L154.11,156.00L153.96,156.43L153.91,156.86L153.96,157.24L154.11,157.52L154.33,157.68"/><path d="M173.89,149.75L173.30,149.45L169.02,145.84L168.84,145.61L168.73,145.30L168.69,144.92L168.69,143.37L168.92,142.75L168.96,142.13L168.82,141.57L168.50,141.12L160.47,134.35L160.01,134.06L155.73,132.39L155.36,132.27L155.11,132.22L155.00,132.26L154.19,133.77L154.23,133.89L154.41,134.07L155.65,135.12"/><path d="M157.15,152.78L156.67,152.42L156.36,151.80L156.25,150.97L156.36,150.04L156.67,149.09L157.15,148.24L157.50,147.84L157.75,147.56L158.40,147.14L159.04,147.03L159.59,147.23"/><path d="M156.48,136.38L155.91,135.98L155.57,135.67L155.47,135.46L155.87,134.71"/><path d="M156.66,164.80L156.84,165.30L156.92,166.07L156.92,176.57L156.91,176.69L156.86,176.78L156.79,176.83"/><path d="M156.82,136.05L156.70,136.03L156.62,136.07"/><path d="M159.39,135.88L159.36,135.73L159.30,135.64"/><path d="M161.16,144.78L160.94,144.62L160.79,144.34L160.75,143.96L160.77,143.74L160.79,143.53L160.94,143.10L161.16,142.70L161.43,142.40L161.73,142.21L162.02,142.15L162.27,142.25"/><path d="M161.68,153.80L161.62,154.37L161.68,154.85L161.86,155.21L162.14,155.42"/><path d="M163.42,152.12L163.57,152.17"/><path d="M173.08,149.26L173.26,149.27L174.00,149.02L230.77,119.29L231.51,118.77L232.19,118.03L232.78,117.10L237.07,109.02L237.25,108.60L237.36,108.17L237.40,107.74L237.40,106.19L237.22,106.07L236.87,105.89L232.59,104.23L232.22,103.99L231.42,103.32L231.16,102.96L231.05,102.51L231.09,102.01L231.27,101.52L237.70,89.38L238.01,88.93L238.43,88.58L238.90,88.36L239.38,88.29L239.82,88.37L244.10,90.04L244.66,90.28L245.26,90.58L245.85,90.91L246.37,91.25L246.75,91.53"/><path d="M180.07,156.23L180.27,155.96L180.45,155.54L180.55,155.10L180.55,155.01"/><path d="M180.47,157.18L180.25,157.02L180.11,156.73L180.06,156.35L180.11,155.92L180.25,155.49L180.47,155.10L180.75,154.79L181.04,154.60L181.34,154.55L181.59,154.64"/><path d="M227.05,130.84L226.80,130.75L226.51,130.80L226.21,130.99L225.93,131.30L225.71,131.69L225.57,132.12L225.52,132.55L225.57,132.93L225.71,133.22L225.93,133.38"/><path d="M226.01,131.21L226.01,131.30L225.91,131.74L225.73,132.16L225.54,132.43"/><path d="M236.18,101.03L235.92,101.12L235.58,101.36L235.31,101.69L235.14,102.08L235.11,102.30"/><path d="M234.15,102.11L234.44,102.29L234.79,102.36L235.17,102.29L235.53,102.10L235.85,101.81L236.07,101.45L236.19,101.05L236.17,100.67L236.04,100.34L235.80,100.10"/><path d="M238.97,93.00L239.26,93.19L239.62,93.25L239.99,93.18L240.36,92.99L240.67,92.70L240.89,92.34L241.01,91.94L241.00,91.56L240.86,91.23L240.62,90.99"/><path d="M241.01,91.92L240.75,92.01L240.40,92.25L240.13,92.59L239.96,92.97L239.93,93.19"/><path d="M243.98,112.58L243.70,112.37L243.52,112.00L243.46,111.52L243.48,111.35L243.52,110.97L243.70,110.42L243.98,109.91L244.34,109.52L244.72,109.27L245.09,109.21L245.41,109.33"/><path d="M245.25,100.76L245.03,100.60L244.89,100.31L244.84,99.95L244.89,99.51L245.03,99.07L245.25,98.68L245.52,98.37L245.82,98.18L246.11,98.13L246.36,98.22"/><path d="M244.85,99.81L245.05,99.54L245.23,99.12L245.33,98.68L245.33,98.59"/><path d="M250.19,115.78L250.50,115.84L250.64,115.79L258.68,100.61L258.63,100.47L258.40,100.24L258.82,99.23L259.04,98.20L259.04,97.23L258.82,96.42L258.40,95.85L250.37,89.09L249.79,88.82L248.48,88.30L247.80,88.36L247.09,88.73L246.41,89.38L245.84,90.26L245.57,90.75"/><path d="M248.53,103.99L248.01,104.44L247.51,104.65L247.28,104.20L247.17,103.38L247.28,102.44L247.59,101.49L248.07,100.63L248.67,99.96L249.33,99.54L249.96,99.43L250.51,99.63"/><path d="M247.51,104.65L247.59,104.82L248.07,105.18"/><path d="M249.16,127.30L249.39,127.42L249.60,127.65L249.64,127.89L249.64,129.45L249.51,129.68L249.22,129.89L249.10,129.96"/><path d="M249.51,99.51L249.60,99.61L249.81,100.35L249.81,100.51"/><path d="M251.88,105.29L251.68,105.56L251.67,105.69L251.72,106.06L251.86,106.35L252.08,106.51"/><path d="M251.68,105.56L251.73,105.23"/></g></g><g id="Actor_.1"><g style="stroke:#000000;stroke-width:0.353"><path d="M123.05,66.82L123.00,66.72L122.84,66.57L122.57,66.38L122.23,66.17L121.85,65.96L121.47,65.79L121.15,65.66L120.90,65.59L120.76,65.59"/><path d="M126.49,62.75L126.34,62.54L126.31,62.51L125.95,62.22L125.90,62.18L125.38,61.83L125.31,61.79L124.68,61.42L124.58,61.37L123.92,61.03L123.84,61.00L123.22,60.73L123.16,60.70L122.65,60.53L122.60,60.51L122.26,60.45L122.24,60.45L122.12,60.49"/><path d="M125.46,62.27L125.41,62.17L125.25,62.01L124.98,61.82L124.88,61.76L124.64,61.61L124.26,61.41L123.89,61.23L123.56,61.10L123.31,61.04L123.17,61.04"/></g><g style="stroke:#000000;stroke-width:0.705"><path d="M123.17,61.04L120.76,65.59L120.74,65.66L120.85,65.79L121.07,65.96L121.38,66.16L121.74,66.37L122.12,66.57L122.48,66.72L122.77,66.82L122.97,66.86L123.05,66.82L125.46,62.27"/><path d="M123.00,61.35L122.70,61.15L122.65,61.11L122.29,60.81L122.27,60.79L122.11,60.58L122.12,60.49L122.75,60.02L123.54,59.75L123.77,59.71L123.98,59.75L124.30,59.85L124.70,60.03L125.13,60.24L125.40,60.39L125.77,60.63L126.05,60.84L126.21,61.00L126.32,61.26L126.54,62.06L126.49,62.75L126.48,62.84L126.36,62.87L126.33,62.87L125.99,62.81L125.94,62.80L125.42,62.62L125.36,62.59L125.30,62.57"/></g></g><g id="Actor_.2"><g style="stroke:#000000;stroke-width:0.353"><path d="M147.08,154.46L139.69,151.58"/><path d="M147.73,152.52L139.66,149.37"/><path d="M155.37,138.10L147.30,134.95"/><path d="M156.44,165.01L156.79,165.14"/><path d="M162.15,155.36L161.91,155.10L161.77,154.70L161.76,154.19L161.82,153.85"/><path d="M163.47,152.16L163.39,152.16"/></g><g style="stroke:#000000;stroke-width:0.705"><path d="M144.34,155.56L140.34,152.20"/><path d="M146.51,136.14L140.25,147.96"/><path d="M156.08,136.89L148.59,133.97"/><path d="M156.42,165.02L156.80,165.17"/><path d="M163.40,152.13L163.47,152.16L163.75,152.34L163.94,152.68L164.02,153.14L163.97,153.67L163.81,154.21L163.54,154.71L163.21,155.11L162.84,155.37L162.47,155.46L162.15,155.36L161.97,155.30"/></g></g><g id="Actor_.3"><g style="stroke:#000000;stroke-width:0.353"><path d="M104.51,85.72L104.62,85.68L104.87,85.73L105.24,85.86L172.39,112.05L173.00,110.91"/><path d="M105.24,85.86L105.85,84.72"/><path d="M107.96,87.51L108.04,87.63L108.25,87.80L108.55,88.01L108.92,88.22L109.31,88.43L109.69,88.60L110.01,88.71L110.23,88.77L110.34,88.74"/><path d="M115.16,92.80L115.06,92.82L114.75,92.74L114.51,92.66L114.14,92.49L113.74,92.28L113.38,92.07L113.07,91.86L112.87,91.69L112.78,91.57"/><path d="M132.21,98.37L132.10,98.39L131.87,98.34L131.54,98.22L131.15,98.04L130.75,97.83L130.37,97.61L130.05,97.40L129.84,97.22L129.75,97.09"/><path d="M153.45,106.34L153.54,106.46L153.75,106.64L154.07,106.85L154.45,107.08L154.85,107.29L155.24,107.46L155.57,107.58L155.80,107.64L155.91,107.61"/><path d="M172.88,113.14L172.78,113.16L172.55,113.11L172.23,112.99L171.86,112.82L171.46,112.62L171.10,112.40L170.79,112.20L170.59,112.02L170.50,111.90"/><path d="M172.39,112.05L172.84,112.24L173.32,112.48L173.79,112.74L174.20,113.00L174.51,113.24L180.94,118.65L181.55,117.51"/><path d="M175.32,115.96L175.41,116.08L175.61,116.26L175.92,116.46L176.29,116.68L176.68,116.88L177.05,117.05L177.37,117.17L177.60,117.22L177.71,117.20"/><path d="M174.51,113.24L175.12,112.10"/><path d="M180.94,118.65L181.13,118.83L181.16,118.95"/></g><g style="stroke:#000000;stroke-width:0.705"><path d="M104.62,85.50L104.51,85.72L104.55,85.84L104.73,86.02L111.16,91.43L111.47,91.67L111.88,91.93L112.35,92.19L112.83,92.43L113.28,92.62L180.43,118.81L180.80,118.94L181.05,118.99L181.16,118.95L181.77,117.81L181.73,117.70L181.55,117.51L175.12,112.10L174.80,111.87L174.37,111.60L173.92,111.34L173.44,111.10L173.00,110.91L105.85,84.72L105.48,84.59L105.22,84.55L105.11,84.58L104.62,85.50"/><path d="M107.96,87.51L108.00,87.45L108.17,87.47L108.45,87.55L108.80,87.70L109.19,87.89L109.58,88.10L109.92,88.31L110.17,88.51L110.32,88.66L110.34,88.74"/><path d="M112.78,91.57L112.83,91.51L112.99,91.53L113.27,91.61L113.62,91.76L114.01,91.95L114.40,92.16L114.74,92.37L115.00,92.57L115.14,92.71L115.16,92.80"/><path d="M132.21,98.37L132.19,98.28L132.04,98.12L131.77,97.93L131.42,97.71L131.02,97.48L130.62,97.29L130.26,97.14L129.97,97.05L129.80,97.04L129.75,97.09"/><path d="M153.45,106.34L153.50,106.28L153.67,106.30L153.96,106.38L154.32,106.53L154.72,106.73L155.12,106.95L155.47,107.17L155.74,107.37L155.89,107.52L155.91,107.61"/><path d="M172.88,113.14L172.86,113.05L172.72,112.90L172.46,112.71L172.12,112.50L171.73,112.28L171.34,112.09L170.99,111.95L170.72,111.86L170.55,111.85L170.50,111.90"/><path d="M177.71,117.20L177.69,117.11L177.54,116.96L177.28,116.77L176.94,116.55L176.56,116.34L176.17,116.15L175.81,116.01L175.54,115.92L175.37,115.91L175.32,115.96"/></g></g><g id="Actor_.4"><g style="stroke:#000000;stroke-width:0.353"><path d="M161.98,153.91L161.54,153.72L161.23,153.28L161.09,152.65L156.27,150.77"/><path d="M161.09,152.65L162.80,149.43L157.84,147.50"/><path d="M162.80,149.43L163.31,149.36"/></g><g style="stroke:#000000;stroke-width:0.705"><path d="M158.11,147.33L163.31,149.36L163.75,149.55L164.06,149.99L164.20,150.62L162.50,153.84L161.98,153.91L156.35,151.72"/></g></g><g id="Actor_.5"><g style="stroke:#000000;stroke-width:0.353"><path d="M235.73,88.26L236.70,88.63L237.64,87.47L238.13,86.39L237.16,86.01"/><path d="M236.70,88.63L236.80,89.06"/><path d="M238.13,86.39L239.13,86.48L239.80,86.46"/></g><g style="stroke:#000000;stroke-width:0.705"><path d="M239.88,86.80L239.80,86.46L238.83,86.08L238.09,86.00L237.60,85.98L237.16,86.01L236.58,86.64L236.15,87.29L235.73,88.26L235.69,89.46L235.95,90.53"/></g></g><g id="Actor_.6"><g style="stroke:#000000;stroke-width:0.353"><path d="M253.34,101.89L252.82,102.35L252.39,103.00L252.08,103.76L251.93,104.54L247.25,102.71"/><path d="M251.93,104.54L253.64,105.98"/></g><g style="stroke:#000000;stroke-width:0.705"><path d="M248.60,100.04L253.34,101.89L255.05,103.32L254.90,104.10L254.60,104.86L254.16,105.51L253.64,105.98L247.98,103.77L247.20,103.12"/></g></g><g id="Actor_.7"><g style="stroke:#000000;stroke-width:0.353"><path d="M226.20,121.69L223.35,119.29L202.28,111.08"/></g><g style="stroke:#000000;stroke-width:0.705"><path d="M224.83,122.40L207.89,115.80L202.28,111.08L202.37,108.53L202.99,105.85L204.08,103.27L205.56,101.00L207.28,99.26L209.11,98.17L228.01,105.54"/></g></g><g id="Actor_.8"><g style="stroke:#000000;stroke-width:0.353"><path d="M138.18,151.02L129.52,147.65"/><path d="M135.13,137.05L144.16,140.57"/></g><g style="stroke:#000000;stroke-width:0.705"><path d="M145.17,138.68L138.69,136.16L136.97,136.22L135.13,137.05L129.52,147.65L129.61,150.10L130.23,152.13L131.32,153.57L132.80,154.29L142.54,158.09"/></g></g><g id="Actor_.9"><g style="stroke:#000000;stroke-width:0.353"><path d="M158.20,142.61L158.20,142.60"/><path d="M160.10,141.54L159.83,141.83L159.63,141.97L159.32,142.06L159.04,142.00L158.83,141.78L158.71,141.45L158.69,141.03L158.77,140.66L158.78,140.57L158.97,140.13L159.22,139.74L159.53,139.47L159.63,139.41L159.94,139.32L160.21,139.38L160.42,139.60L160.54,139.93L160.56,140.20L160.51,140.65L160.36,141.11"/><path d="M159.30,141.64L159.95,141.29L160.28,140.35L159.95,139.74"/><path d="M159.05,140.80L159.27,141.03L159.03,141.15"/><path d="M159.53,139.96L159.60,140.08L159.27,141.03L159.95,141.29"/><path d="M160.28,140.35L159.60,140.08L159.28,140.14"/><path d="M159.79,138.21L159.79,138.21"/></g><g style="stroke:#000000;stroke-width:0.705"><path d="M157.02,141.80L156.92,141.21L156.92,141.14L156.99,140.44L157.01,140.36L157.23,139.65L157.26,139.57L157.62,138.93L157.67,138.86L158.11,138.36L158.17,138.31L158.54,138.06L158.88,137.93L159.33,137.92L159.38,137.94L159.76,138.17L159.98,138.41L160.36,139.03L160.44,139.38L160.58,140.13L160.51,140.65L160.44,140.86L160.36,141.11L160.12,141.52L160.10,141.54L159.90,141.80L159.55,142.06L159.09,142.39L158.73,142.53L158.30,142.60L157.83,142.61L157.75,142.61L157.70,142.60L157.32,142.36L157.29,142.32L157.04,141.88L157.02,141.82L157.02,141.80"/><path d="M158.30,142.60L158.20,142.61L158.14,142.61"/><path d="M159.30,141.64L158.97,141.03L159.30,140.09L159.95,139.74"/></g></g><g id="Actor_.10"><g style="stroke:#000000;stroke-width:0.353"><path d="M209.25,82.32L209.11,82.22L208.91,81.88L208.85,81.47L208.93,81.02L209.15,80.60L209.47,80.25L209.67,80.12L209.87,80.00L210.30,79.89L210.71,79.93L210.82,79.97L211.13,80.20L211.33,80.53L211.39,80.95L211.31,81.39L211.18,81.68L210.89,82.06L210.51,82.35L210.09,82.50L209.67,82.52L209.42,82.44L209.25,82.32"/><path d="M209.95,82.07L210.35,81.92"/><path d="M210.92,80.62L210.17,80.29L210.59,80.65L209.80,81.23L209.75,81.98"/><path d="M210.17,80.29L209.38,80.88L209.80,81.23L210.65,81.69"/><path d="M209.32,81.79L209.38,80.88"/><path d="M210.75,81.62L210.59,80.65L210.91,80.79"/></g><g style="stroke:#000000;stroke-width:0.705"><path d="M208.80,83.17L208.83,83.23L209.22,83.69L209.57,83.90L210.00,84.03L210.07,84.04L210.54,84.01L210.73,84.00L210.80,83.99L211.46,83.73L211.53,83.69L212.11,83.24L212.17,83.17L212.62,82.57L212.67,82.48L212.92,81.79L212.94,81.72L212.97,81.04L212.96,80.96L212.77,80.36L212.74,80.30L212.35,79.84L211.99,79.63L211.54,79.50L211.47,79.49L210.99,79.47L210.21,79.65L210.09,79.69L209.39,80.14L208.86,80.78L208.58,81.56L208.56,82.40L208.61,82.57L208.79,83.17"/><path d="M210.92,80.62L210.86,81.53L210.07,82.12L209.32,81.79"/><path d="M212.90,81.86L213.91,82.71L214.17,82.94L214.32,83.26L214.35,83.63L214.25,84.03L214.04,84.40L213.74,84.70L213.38,84.91L213.00,85.00L212.64,84.95L212.34,84.78L211.21,83.83"/></g></g><g id="Actor_.11"><g style="stroke:#000000;stroke-width:0.353"><path d="M228.10,120.69L222.34,118.44"/><path d="M222.34,116.25L230.50,119.43"/><path d="M245.68,90.56L237.82,87.49"/><path d="M243.90,112.50L243.67,112.30"/><path d="M245.06,109.23L244.75,109.27"/></g><g style="stroke:#000000;stroke-width:0.705"><path d="M226.20,121.69L222.34,118.44L222.13,118.16L222.02,117.75L222.02,117.27L222.13,116.75L222.34,116.25L236.74,89.04"/><path d="M246.44,89.36L239.08,86.49"/><path d="M245.03,109.22L245.37,109.37L245.59,109.67L245.69,110.11L245.68,110.62L245.54,111.17L245.30,111.69L244.98,112.12L244.61,112.41L244.24,112.55L243.90,112.50L243.84,112.47"/></g></g><g id="Actor_.12"><g style="stroke:#000000;stroke-width:0.353"><path d="M127.87,70.89L127.83,70.79L127.68,70.64L127.42,70.45L127.08,70.25L126.71,70.04L126.33,69.86L126.00,69.73L125.74,69.65L125.59,69.65"/><path d="M131.31,66.89L131.28,66.74L131.26,66.72L131.01,66.47L130.97,66.43L130.53,66.11L130.48,66.07L129.90,65.71L129.82,65.66L129.17,65.31L129.10,65.27L128.44,64.95L128.37,64.92L127.91,64.73L127.56,64.61L127.17,64.52L127.14,64.52L126.95,64.55"/><path d="M130.28,66.33L130.24,66.24L130.09,66.09L129.83,65.90L129.49,65.69L129.12,65.49L128.74,65.31L128.41,65.17L128.15,65.10L128.00,65.09"/></g><g style="stroke:#000000;stroke-width:0.705"><path d="M130.28,66.33L127.87,70.89L127.78,70.91L127.57,70.87L127.27,70.77L126.91,70.61L126.53,70.41L126.17,70.20L125.87,70.00L125.66,69.83L125.56,69.71L125.59,69.65L128.00,65.09"/><path d="M130.12,66.63L130.34,66.71L130.69,66.84L131.08,66.93L131.11,66.93L131.30,66.90L131.31,66.89L131.35,66.45L131.33,66.06L131.20,65.40L131.06,65.12L130.98,64.99L130.76,64.81L130.43,64.58L130.04,64.35L129.61,64.13L129.20,63.94L129.09,63.90L128.77,63.80L128.58,63.77L127.86,63.95L127.30,64.24L126.95,64.55L126.94,64.56L126.97,64.71L126.99,64.73L127.24,64.98L127.29,65.03L127.74,65.35L127.83,65.42"/></g></g><g id="Actor_.13"><g style="stroke:#000000;stroke-width:0.353"><path d="M151.87,49.01L151.51,48.89L151.22,48.64L151.10,48.41L151.02,48.00L151.08,47.63L151.09,47.56L151.29,47.13L151.61,46.77L151.86,46.58L152.28,46.41L152.70,46.38L153.08,46.50L153.37,46.76L153.53,47.12L153.56,47.55L153.44,47.99L153.20,48.40L152.85,48.73L152.73,48.81L152.31,48.98L151.89,49.01L151.87,49.01"/><path d="M151.46,48.20L151.61,47.27L152.45,46.77L153.13,47.20"/><path d="M151.61,47.27L152.03,47.62L151.89,48.47"/><path d="M152.62,48.34L151.98,48.52"/><path d="M152.94,48.15L152.87,47.13L152.03,47.62L152.86,48.19"/><path d="M152.45,46.77L152.87,47.13L153.12,47.28"/></g><g style="stroke:#000000;stroke-width:0.705"><path d="M150.72,48.37L150.76,48.86L150.89,49.49L150.93,49.57L151.27,50.07L151.32,50.12L151.83,50.43L151.90,50.45L152.52,50.54L152.60,50.54L153.26,50.39L153.71,50.18L154.16,49.84L154.23,49.79L154.63,49.30L154.70,49.21L154.75,49.14L155.05,48.47L155.07,48.39L155.15,47.74L155.16,47.71L155.15,47.63L155.02,47.00L154.99,46.94L154.64,46.44L154.60,46.40L154.08,46.08L154.02,46.06L153.39,45.97L153.26,45.97L152.84,45.99L152.40,46.11L151.98,46.31L151.63,46.57L151.39,46.86L151.02,47.30L150.87,47.71L150.72,48.37"/><path d="M153.13,47.20L152.98,48.12L152.70,48.29L152.14,48.62L151.46,48.20"/><path d="M155.08,48.34L156.27,49.34L156.46,49.64L156.53,50.00L156.47,50.40L156.29,50.78L156.02,51.11L155.67,51.35L155.29,51.47L154.92,51.47L154.60,51.34L153.40,50.33"/></g></g><g id="Actor_.14"><g style="stroke:#000000;stroke-width:0.353"><path d="M150.97,156.27L150.97,156.27"/><path d="M152.87,155.20L152.60,155.49L152.39,155.63L152.08,155.72L151.81,155.66L151.64,155.49L151.60,155.45L151.48,155.11L151.46,154.69L151.55,154.23L151.73,153.79L151.99,153.40L152.29,153.13L152.39,153.07L152.70,152.98L152.98,153.05L153.19,153.26L153.31,153.59L153.33,153.86L153.28,154.31L153.13,154.77"/><path d="M152.72,153.40L153.05,154.01L152.36,153.74L152.04,154.69L151.82,154.46"/><path d="M152.07,155.30L152.72,154.96L152.04,154.69L151.80,154.81"/><path d="M152.72,154.96L153.05,154.01"/><path d="M152.30,153.62L152.36,153.74L152.05,153.80"/><path d="M152.56,151.87L152.56,151.87"/></g><g style="stroke:#000000;stroke-width:0.705"><path d="M150.75,156.27L150.60,156.27L150.51,156.27L150.46,156.26L150.09,156.02L150.05,155.98L149.80,155.54L149.79,155.48L149.69,154.88L149.69,154.80L149.76,154.10L149.77,154.02L150.00,153.31L150.03,153.24L150.39,152.59L150.43,152.52L150.88,152.02L150.93,151.97L151.31,151.72L151.64,151.59L152.10,151.58L152.15,151.60L152.52,151.83L152.74,152.07L153.12,152.69L153.21,153.04L153.35,153.79L153.28,154.31L153.21,154.52L153.13,154.77L152.89,155.18L152.87,155.20L152.67,155.47L152.32,155.72L151.86,156.05L151.50,156.19L151.06,156.26L150.75,156.27"/><path d="M151.06,156.26L150.97,156.27L150.91,156.27"/><path d="M152.72,153.40L152.07,153.75L152.03,153.85L151.74,154.69L152.07,155.30"/></g></g><g id="Actor_.15"><g style="stroke:#000000;stroke-width:0.353"><path d="M80.18,128.36L89.35,131.94"/><path d="M80.18,126.17L89.39,129.76L89.19,130.27L89.08,130.79L89.08,131.27L89.19,131.68L89.32,131.86"/><path d="M87.81,111.75L97.03,115.34L89.39,129.76"/><path d="M95.45,141.22L104.66,144.81L91.05,133.35"/><path d="M97.03,115.34L97.32,114.91L97.65,114.58L98.01,114.39L98.14,114.38"/><path d="M104.95,144.95L104.66,144.81"/></g><g style="stroke:#000000;stroke-width:0.705"><path d="M98.22,114.32L89.13,110.77L88.79,110.80L88.44,110.99L88.10,111.31L87.81,111.75L80.18,126.17L79.97,126.67L79.86,127.19L79.86,127.68L79.97,128.08L80.18,128.36L85.56,132.90"/><path d="M90.37,136.95L86.15,133.39"/><path d="M90.98,137.45L95.45,141.22L95.73,141.35L104.95,144.95L105.29,144.92L105.65,144.73L105.98,144.41L106.28,143.95"/><path d="M111.98,125.74L100.84,116.36"/></g></g><g id="Actor_.16"><g style="stroke:#000000;stroke-width:0.353"><path d="M124.79,151.17L123.32,150.45L122.23,149.01L121.61,146.98L121.52,144.53L100.45,136.31"/><path d="M106.06,125.71L127.13,133.93L121.52,144.53"/><path d="M127.13,133.93L128.96,133.09L130.69,133.03"/></g><g style="stroke:#000000;stroke-width:0.705"><path d="M133.95,139.29L133.87,137.23L133.25,135.19L132.16,133.75L130.69,133.03L109.62,124.82L107.89,124.88L106.06,125.71L100.45,136.31L100.54,138.76L101.16,140.79L102.25,142.23L103.73,142.95L124.79,151.17L126.52,151.11L128.35,150.28L129.54,148.03"/></g></g><g id="Actor_.17"><g style="stroke:#000000;stroke-width:0.353"><path d="M156.74,68.93L156.14,68.42L223.29,94.62L223.89,95.12"/><path d="M156.14,68.42L155.77,68.19"/><path d="M159.07,67.20L158.90,66.88L158.86,66.50L158.94,66.09L159.15,65.70L159.45,65.38L159.82,65.15L160.21,65.05L160.59,65.08L160.91,65.24"/><path d="M165.73,56.14L165.41,55.97L165.03,55.94L164.64,56.04L164.27,56.27L163.97,56.59L163.77,56.98L163.68,57.39L163.72,57.78L163.89,58.10"/><path d="M180.87,70.26L180.70,69.92L180.65,69.53L180.74,69.10L180.95,68.70L181.26,68.37L181.64,68.14L182.05,68.03L182.44,68.07L182.77,68.23"/><path d="M206.47,77.48L206.14,77.31L205.75,77.28L205.34,77.38L204.96,77.61L204.65,77.95L204.44,78.35L204.35,78.77L204.40,79.17L204.57,79.50"/><path d="M221.62,91.60L221.45,91.28L221.40,90.89L221.49,90.48L221.69,90.10L221.99,89.77L222.36,89.55L222.76,89.45L223.13,89.48L223.45,89.64"/><path d="M226.02,94.12L225.41,93.61L225.10,94.06L224.69,94.41L224.22,94.63L223.74,94.70L223.29,94.62"/><path d="M225.41,93.61L231.84,81.47L232.44,81.98"/><path d="M228.27,80.53L227.95,80.37L227.58,80.34L227.19,80.44L226.82,80.67L226.51,80.99L226.31,81.38L226.22,81.79L226.27,82.17L226.44,82.49"/><path d="M231.84,81.47L232.03,80.98L232.06,80.48L231.95,80.03L231.70,79.67"/></g><g style="stroke:#000000;stroke-width:0.705"><path d="M219.13,74.68L231.33,79.44L231.70,79.67L232.30,80.18L232.55,80.54L232.67,80.99L232.63,81.48L232.44,81.98L226.02,94.12L225.70,94.56L225.29,94.91L224.82,95.14L224.34,95.21L223.89,95.12L156.74,68.93L156.38,68.70L155.77,68.19L155.52,67.83L155.41,67.38L155.44,66.89L155.63,66.39L162.06,54.25L162.37,53.81L162.78,53.46L163.25,53.23L163.73,53.16L164.18,53.25L213.42,72.45"/><path d="M161.15,65.59L160.82,65.56L160.42,65.66L160.05,65.89L159.75,66.21L159.55,66.60L159.46,67.00L159.51,67.39L159.56,67.49"/><path d="M159.07,67.20L159.35,67.43L159.70,67.53L160.09,67.49L160.48,67.32L160.82,67.05L161.07,66.69L161.22,66.28L161.24,65.88L161.13,65.52L160.91,65.25"/><path d="M163.89,58.10L164.17,58.32L164.52,58.42L164.91,58.38L165.30,58.22L165.64,57.94L165.90,57.58L166.04,57.17L166.06,56.77L165.95,56.41L165.73,56.14"/><path d="M165.97,56.48L165.64,56.45L165.24,56.55L164.88,56.78L164.57,57.10L164.37,57.49L164.28,57.90L164.33,58.28L164.38,58.38"/><path d="M180.87,70.26L181.16,70.49L181.52,70.59L181.92,70.55L182.32,70.38L182.67,70.09L182.94,69.72L183.09,69.30L183.11,68.89L183.00,68.52L182.77,68.23"/><path d="M183.02,68.57L182.65,68.54L182.25,68.64L181.87,68.88L181.55,69.21L181.34,69.61L181.26,70.03L181.30,70.43L181.36,70.54"/><path d="M204.57,79.50L204.86,79.73L205.22,79.83L205.62,79.79L206.02,79.62L206.37,79.34L206.64,78.96L206.79,78.55L206.81,78.13L206.70,77.76L206.47,77.48"/><path d="M206.72,77.81L206.35,77.78L205.95,77.89L205.57,78.12L205.25,78.46L205.04,78.86L204.96,79.28L205.00,79.68L205.06,79.79"/><path d="M221.62,91.60L221.89,91.82L222.24,91.92L222.63,91.89L223.02,91.72L223.36,91.44L223.62,91.08L223.76,90.68L223.78,90.27L223.68,89.92L223.45,89.64"/><path d="M223.70,89.98L223.36,89.95L222.97,90.06L222.60,90.28L222.29,90.60L222.09,90.99L222.00,91.40L222.05,91.79L222.10,91.88"/><path d="M228.52,80.87L228.18,80.85L227.79,80.95L227.42,81.17L227.12,81.50L226.91,81.88L226.83,82.29L226.87,82.68L226.92,82.77"/><path d="M226.44,82.49L226.71,82.71L227.06,82.81L227.45,82.78L227.84,82.61L228.18,82.33L228.44,81.97L228.58,81.57L228.61,81.17L228.50,80.81L228.27,80.53"/></g></g><g id="Actor_.18"><g style="stroke:#000000;stroke-width:0.353"><path d="M92.82,128.16L92.32,128.55L91.80,128.82L91.01,129.10L90.87,129.95L90.63,130.71L90.11,131.71L89.14,131.33"/><path d="M90.11,131.71L90.77,132.68L91.01,133.37"/><path d="M90.88,131.43L90.91,132.02L91.09,132.48L91.39,132.77L91.78,132.85L92.22,132.72L92.66,132.39L93.05,131.90L93.35,131.30L93.53,130.65L93.57,130.02L93.46,129.49L93.21,129.11L92.86,128.92L92.44,128.95L92.00,129.18L91.86,129.32L91.58,129.60L91.23,130.15L90.98,130.79L90.88,131.43"/><path d="M91.01,129.10L90.04,128.72"/><path d="M91.74,131.84L91.95,131.86L92.18,131.76L92.25,131.70L92.40,131.57L92.59,131.29L92.73,130.97L92.81,130.64L92.81,130.32L92.73,130.06L92.59,129.89"/><path d="M92.01,132.12L91.75,132.10L91.55,131.95L91.41,131.68L91.37,131.33L91.41,130.92L91.55,130.52L91.69,130.27L91.75,130.15L92.01,129.86L92.29,129.68L92.56,129.64L92.80,129.72L92.97,129.93L93.06,130.25L93.06,130.63L92.97,131.04L92.80,131.43L92.56,131.77L92.29,132.00L92.01,132.12"/></g><g style="stroke:#000000;stroke-width:0.705"><path d="M90.00,132.93L89.63,132.43L89.35,131.94L89.14,131.33L89.47,129.84L90.04,128.72L90.78,128.19L91.85,127.78L92.82,128.16L93.23,128.72L93.51,129.21L93.72,129.82L93.39,131.31L92.82,132.42L92.08,132.96L91.01,133.37L90.04,132.99L90.00,132.93"/><path d="M92.59,129.89L92.40,129.82L92.18,129.86L91.95,130.01L91.74,130.24L91.57,130.54L91.46,130.88L91.42,131.21L91.46,131.50L91.57,131.72L91.74,131.84"/></g></g><g id="Actor_.19"><g style="stroke:#000000;stroke-width:0.353"><path d="M200.05,112.74L194.44,108.02L173.37,99.80"/><path d="M194.44,108.02L194.53,105.47L195.15,102.79L196.24,100.21L197.71,97.94L199.12,96.52L199.44,96.20L201.27,95.11"/></g><g style="stroke:#000000;stroke-width:0.705"><path d="M184.12,88.43L180.20,86.90L178.37,87.98L176.65,89.73L175.17,91.99L174.08,94.57L173.46,97.25L173.37,99.80L178.98,104.52L200.05,112.74L201.88,111.66L202.38,111.16"/><path d="M189.90,90.68L186.56,89.38"/><path d="M206.79,99.76L201.27,95.11L192.34,91.63"/></g></g><g id="Actor_.20"><g style="stroke:#000000;stroke-width:0.353"><path d="M86.57,139.09L78.54,132.32L78.08,132.03"/><path d="M78.54,132.32L82.82,133.99L83.62,132.47"/><path d="M77.90,129.78L79.21,130.30L79.17,130.42L79.16,130.54L79.19,130.65L79.25,130.74"/><path d="M85.93,110.21L87.25,110.73L79.21,125.91L78.79,126.91L78.58,127.95L78.58,128.92L78.79,129.73L79.21,130.30L80.23,131.15"/><path d="M77.90,125.39L79.21,125.91"/><path d="M83.91,135.33L83.78,135.33L83.54,135.26L82.84,134.96L82.12,134.56L81.84,134.36L81.67,134.20L81.62,134.10"/><path d="M82.82,133.99L83.26,134.18L84.21,134.68L84.63,134.95L84.94,135.18L91.37,140.59L91.55,140.78L91.59,140.89"/><path d="M84.94,135.18L85.74,133.66"/><path d="M86.44,138.16L86.50,138.26L86.67,138.42L86.94,138.61L87.66,139.02L88.36,139.32L88.60,139.39L88.74,139.39"/><path d="M86.66,151.72L86.70,151.97L86.91,152.20L87.26,152.38L87.26,153.94"/><path d="M87.26,152.38L90.22,153.54L90.22,155.09"/><path d="M87.25,110.73L87.82,109.86L88.50,109.20L89.21,108.83L89.89,108.78"/><path d="M88.81,151.35L88.91,151.74L89.28,152.09L89.88,152.36L90.65,152.54L91.50,152.59L92.34,152.51L93.09,152.32L93.65,152.02L93.97,151.66L94.01,151.28"/><path d="M88.81,150.58L88.91,150.96L89.28,151.31L89.88,151.59L90.65,151.76L91.50,151.81L92.34,151.74L93.09,151.54L93.65,151.25L93.97,150.89L94.01,150.50"/><path d="M100.89,143.36L88.45,149.87L88.47,149.99L88.52,150.12L88.59,150.23L88.68,150.33L88.78,150.38L88.95,150.30"/><path d="M88.45,149.87L88.45,139.82"/><path d="M90.22,153.54L90.68,153.67L91.21,153.73L91.76,153.71L92.26,153.62L92.67,153.46L92.67,155.01"/><path d="M90.11,150.61L90.21,150.42L90.43,150.25L90.76,150.13L91.16,150.06L91.59,150.05L92.00,150.11L92.35,150.22L92.59,150.38L92.71,150.57"/><path d="M101.64,143.65L90.32,149.58"/><path d="M93.17,110.63L91.40,109.13L91.29,109.11L91.16,109.13L91.05,109.18L90.94,109.27L90.87,109.38L92.95,111.13"/><path d="M91.37,140.59L92.17,139.07"/><path d="M91.40,109.13L95.67,110.80L96.48,109.28"/><path d="M92.67,153.46L108.89,144.97"/><path d="M92.97,111.02L93.24,111.01L93.72,111.14L94.37,111.40L95.12,111.74L95.87,112.15L96.56,112.57L97.10,112.95L97.44,113.27L97.55,113.47"/><path d="M95.44,113.23L94.02,112.03"/><path d="M96.39,112.87L96.32,112.91L96.13,112.88L95.84,112.78L95.10,112.43L94.42,112.02L94.20,111.84L94.09,111.71L94.10,111.64"/><path d="M97.95,112.71L97.85,112.51L97.51,112.20L96.96,111.81L96.27,111.39L95.52,110.99L94.77,110.64L94.12,110.38L93.64,110.25L93.37,110.26"/><path d="M96.98,113.84L96.21,113.19"/><path d="M98.60,110.47L97.80,111.99L97.48,111.76L97.07,111.49L96.60,111.23L96.12,110.99L95.67,110.80"/><path d="M97.80,111.99L104.23,117.40L105.03,115.88"/><path d="M102.37,117.53L102.27,117.32L101.93,117.01L101.38,116.63L100.84,116.30"/><path d="M102.77,116.77L102.67,116.57L102.33,116.25L101.78,115.87L100.82,115.30"/><path d="M104.45,117.70L104.41,117.59L104.23,117.40"/><path d="M141.33,103.56L107.00,121.54"/><path d="M161.72,111.51L124.91,130.78"/><path d="M125.67,131.08L134.41,126.50"/><path d="M131.21,133.29L168.07,113.99"/><path d="M134.27,127.55L134.37,127.94L134.74,128.29L135.34,128.56L136.11,128.74L136.96,128.79L137.80,128.71L138.55,128.52L139.11,128.22L139.43,127.86L139.47,127.48"/><path d="M134.27,126.78L134.37,127.16L134.74,127.51L135.34,127.79L136.11,127.96L136.96,128.01L137.80,127.94L138.55,127.74L139.11,127.45L139.43,127.09L139.47,126.70"/><path d="M135.78,125.78L162.47,111.81"/><path d="M135.58,126.81L135.67,126.62L135.89,126.45L136.22,126.33L136.62,126.26L137.05,126.25L137.46,126.31L137.81,126.42L138.06,126.58L138.17,126.77"/><path d="M160.99,92.07L162.31,92.59L146.81,100.70"/><path d="M157.14,103.56L157.36,103.72L157.51,104.00L157.56,104.38L157.49,104.86"/><path d="M162.31,92.59L163.04,92.07L163.73,91.32L164.32,90.40L163.00,89.88"/><path d="M167.28,81.80L168.60,82.31L164.32,90.40"/><path d="M167.19,108.65L176.22,103.92"/><path d="M167.62,80.53L168.93,81.04L168.93,79.49L168.97,79.42"/><path d="M167.62,78.98L168.93,79.49L168.87,79.41"/><path d="M167.34,78.60L167.48,78.55L167.80,78.61L168.26,78.77L170.60,74.34"/><path d="M176.97,104.22L167.95,108.94"/><path d="M168.60,82.31L168.78,81.89L168.89,81.46L168.93,81.04"/><path d="M168.26,78.77L172.53,80.44L173.34,81.11"/><path d="M171.74,77.82L171.49,77.58L171.36,77.25L171.35,76.87L171.46,76.47L171.69,76.11L172.00,75.82L172.36,75.63L172.75,75.56L173.10,75.62L173.39,75.81"/><path d="M172.53,80.44L172.98,80.52L173.46,80.45L173.93,80.23L174.34,79.88L174.66,79.43L175.46,80.11"/><path d="M183.09,106.13L173.52,111.14"/><path d="M176.20,76.52L174.66,79.43"/></g><g style="stroke:#000000;stroke-width:0.705"><path d="M79.25,130.75L79.34,130.80L83.62,132.47L84.07,132.66L85.02,133.17L85.43,133.43L85.74,133.66L92.17,139.07L92.35,139.26L92.39,139.37L91.59,140.89L91.47,140.93L91.22,140.88L90.85,140.75L86.57,139.09L86.11,138.79L78.08,132.03L77.76,131.58L77.62,131.02L77.67,130.40L77.90,129.78L77.48,129.21L77.26,128.41L77.26,127.43L77.48,126.40L77.90,125.39L85.93,110.21L86.51,109.34L87.18,108.69L87.75,108.39L87.90,108.31L88.57,108.26L89.89,108.78L90.46,109.04L90.87,109.38"/><path d="M83.91,135.33L83.93,135.26L83.81,135.13L83.28,134.75L82.91,134.54L82.18,134.19L81.89,134.10L81.70,134.06L81.62,134.10"/><path d="M81.46,131.63L81.67,131.22L81.82,131.15L82.20,131.21L82.78,131.41L83.49,131.71L84.25,132.10L84.98,132.51L85.60,132.92L86.05,133.28L86.28,133.54L86.25,133.68L86.10,133.97"/><path d="M86.44,138.16L86.52,138.12L86.71,138.15L87.00,138.25L87.73,138.60L88.41,139.01L88.63,139.19L88.75,139.32L88.74,139.39"/><path d="M110.59,145.63L92.67,155.01L92.26,155.17L91.76,155.26L91.21,155.28L90.68,155.22L90.22,155.09L87.26,153.94L86.91,153.75L86.70,153.52L86.66,153.28L86.66,151.72L86.79,151.49L87.08,151.28L88.78,150.38"/><path d="M87.67,150.96L87.45,150.62L87.22,149.98L87.14,149.36L87.14,139.31"/><path d="M88.81,151.35L88.81,150.58L89.00,150.20L89.44,149.86L90.10,149.62L90.91,149.48L91.77,149.47L92.59,149.58L93.28,149.81L93.77,150.13L94.01,150.50L94.01,151.28"/><path d="M90.92,138.02L91.08,137.74L91.10,137.60L90.87,137.33L90.42,136.98L89.80,136.57L89.07,136.15L88.19,135.72"/><path d="M102.58,117.13L104.08,117.69L104.33,117.74L104.45,117.70L105.25,116.18L105.21,116.07L105.03,115.88L98.60,110.47L98.29,110.24L97.88,109.98L97.41,109.71L96.92,109.47L96.48,109.28L92.20,107.61L91.64,107.51L91.04,107.60L90.45,107.88L89.94,108.31L89.67,108.69"/><path d="M92.71,150.57L92.69,150.76L92.53,150.94L92.25,151.09L91.88,151.19L91.46,151.22L91.03,151.20L90.65,151.11L90.35,150.97L90.16,150.80L90.11,150.61"/><path d="M97.95,112.71L97.55,113.47L97.40,113.54L97.02,113.48L96.44,113.29L95.73,112.98L94.97,112.60L94.24,112.18L93.62,111.77L93.17,111.42L92.94,111.16L92.97,111.02L93.37,110.26"/><path d="M96.39,112.87L96.34,112.77L96.17,112.61L95.90,112.42L95.18,112.01L94.48,111.71L94.24,111.64L94.10,111.64"/><path d="M102.77,116.77L102.37,117.53L102.28,117.57"/><path d="M106.12,120.80L140.02,103.05"/><path d="M169.76,114.65L132.48,134.17"/><path d="M134.27,127.55L134.27,126.78L134.46,126.40L134.90,126.06L135.56,125.82L136.37,125.68L137.23,125.67L138.05,125.78L138.74,126.01L139.23,126.33L139.47,126.70L139.47,127.48"/><path d="M138.17,126.77L138.15,126.96L137.99,127.14L137.71,127.29L137.34,127.39L136.92,127.42L136.49,127.40L136.11,127.31L135.81,127.17L135.63,127.00L135.58,126.81"/><path d="M169.77,74.01L167.34,78.61L167.38,78.74L167.61,78.97L167.61,80.53L167.58,80.95L167.46,81.38L167.28,81.80L163.00,89.88L162.41,90.81L161.72,91.56L160.99,92.07L145.49,100.18"/><path d="M157.14,103.56L156.87,103.54L156.57,103.66L156.28,103.91L156.02,104.29"/><path d="M156.17,104.35L156.23,103.99"/><path d="M177.16,76.90L175.46,80.11L175.15,80.56L174.73,80.91L174.27,81.13L173.78,81.20L173.34,81.11L169.06,79.45L168.90,79.40L168.87,79.41"/><path d="M171.74,77.82L172.06,77.95L172.43,77.95L172.81,77.82L173.16,77.57L173.43,77.24L173.60,76.86L173.65,76.46L173.58,76.10L173.39,75.81"/><path d="M172.56,77.90L172.67,77.49L172.89,77.12L173.20,76.83L173.57,76.64L173.63,76.63"/><path d="M174.92,111.95L184.79,106.79"/></g></g><g id="Actor_.21"><g style="stroke:#000000;stroke-width:0.353"><path d="M98.91,119.67L98.43,119.39L97.48,118.92L96.51,118.54"/><path d="M99.38,114.54L98.94,115.24L98.46,115.76L97.72,116.35L96.74,115.97"/><path d="M97.72,116.35L97.78,117.19L97.73,117.94L97.48,118.92"/><path d="M98.69,119.14L98.37,118.89L98.17,118.45L98.10,117.89L98.19,117.25L98.40,116.61L98.74,116.03L99.15,115.58L99.59,115.31L100.02,115.25L100.39,115.40L100.65,115.75L100.79,116.25L100.78,116.86L100.63,117.51L100.35,118.13L99.97,118.65L99.54,119.01L99.09,119.18L98.69,119.14"/><path d="M99.62,116.14L99.80,116.24L99.92,116.45L99.95,116.59L99.97,116.73L99.95,117.05L99.85,117.39L99.69,117.70L99.49,117.95L99.26,118.11L99.03,118.17L98.83,118.12"/><path d="M98.78,118.14L98.96,118.31L99.18,118.37L99.44,118.30L99.69,118.12L99.92,117.83L100.10,117.49L100.21,117.11L100.24,116.74L100.18,116.43L100.04,116.20L99.84,116.08L99.60,116.09"/></g><g style="stroke:#000000;stroke-width:0.705"><path d="M96.51,118.54L96.93,118.78L97.37,119.01L97.94,119.29L98.91,119.67L99.91,118.82L100.58,117.85L100.85,116.75L100.82,115.28L100.39,115.04L99.96,114.82L99.38,114.54L98.41,114.16L97.42,115.00L96.74,115.97L96.48,117.07L96.51,118.54"/><path d="M98.83,118.12L98.75,118.03"/><path d="M98.78,118.14L98.69,117.86L98.67,117.52L98.74,117.14L98.88,116.77L99.09,116.45L99.34,116.22L99.60,116.09"/><path d="M99.62,116.14L99.48,116.14"/></g></g><g id="Actor_.22"><g style="stroke:#000000;stroke-width:0.353"><path d="M170.78,101.78L180.00,105.37L172.36,98.95L163.14,95.35"/><path d="M172.36,98.95L172.15,98.66L172.04,98.26L172.04,97.78L172.15,97.26L172.36,96.75L163.14,93.16"/><path d="M172.36,96.75L181.90,78.74"/><path d="M180.00,105.37L180.28,105.51"/></g><g style="stroke:#000000;stroke-width:0.705"><path d="M180.97,105.30L180.62,105.48L180.28,105.51L171.07,101.91L170.78,101.78L163.14,95.35L162.94,95.07L162.83,94.67L162.83,94.18L162.94,93.66L163.14,93.16L170.17,79.88"/><path d="M189.68,89.28L189.10,90.37"/><path d="M192.97,83.06L190.08,88.52"/></g></g><g id="Actor_.23"><g style="stroke:#000000;stroke-width:0.353"><path d="M213.70,72.68L213.68,72.55L213.70,72.12L213.86,71.68L214.14,71.29L214.51,70.99L214.78,70.86L215.21,70.78L215.60,70.85L215.93,71.06L216.14,71.39L216.20,71.65L216.19,72.08L216.03,72.52L215.75,72.91L215.38,73.21L214.96,73.39L214.54,73.41L214.35,73.35L214.16,73.30L213.87,73.04L213.70,72.68"/><path d="M215.43,72.59L214.54,72.29L215.25,71.58L214.83,71.23L214.12,71.94L214.54,72.29L214.62,72.88"/><path d="M214.12,71.94L214.23,72.81"/><path d="M214.83,71.23L215.65,71.39"/><path d="M215.12,72.91L215.02,72.96"/><path d="M215.54,72.49L215.25,71.58L215.69,71.67"/></g><g style="stroke:#000000;stroke-width:0.705"><path d="M213.80,74.30L213.58,73.98L213.55,73.91L213.43,73.44L213.39,73.05L213.37,72.68L213.42,72.41L213.66,71.72L214.35,70.91L215.03,70.52L215.81,70.39L215.99,70.38L216.06,70.37L216.68,70.47L216.75,70.49L217.26,70.81L217.31,70.86L217.64,71.36L217.67,71.42L217.79,71.88L217.80,72.34L217.64,73.03L217.61,73.11L217.25,73.75L217.20,73.82L216.68,74.36L216.61,74.41L216.60,74.42L215.98,74.77L215.91,74.79L215.25,74.94L215.17,74.94L214.55,74.85L214.48,74.83L213.97,74.52L213.92,74.47L213.81,74.33L213.62,73.92"/><path d="M214.23,72.81L215.06,72.97L215.76,72.26L215.65,71.39"/><path d="M217.71,72.73L218.76,73.62L219.01,73.86L219.15,74.18L219.17,74.57L219.06,74.96L218.84,75.33L218.53,75.62L218.16,75.82L217.78,75.89L217.43,75.83L217.14,75.65L216.05,74.73"/></g></g><g id="Actor_.24"><g style="stroke:#000000;stroke-width:0.353"><path d="M185.57,91.24L185.58,91.17L185.46,91.03L185.23,90.85L184.92,90.65L184.55,90.44L184.17,90.25L183.82,90.10L183.53,90.01L183.35,89.98L183.28,90.02"/><path d="M189.04,87.19L188.95,87.01L188.93,86.98L188.62,86.71L188.58,86.67L188.09,86.33L188.03,86.29L187.59,86.03L187.15,85.78L186.48,85.44L186.41,85.40L185.79,85.13L185.72,85.10L185.21,84.93L185.16,84.91L184.81,84.85L184.79,84.85L184.65,84.91"/><path d="M185.69,85.46L185.76,85.42L185.94,85.45L186.23,85.55L186.58,85.70L186.96,85.89L187.33,86.10L187.64,86.30L187.87,86.48L187.99,86.61L187.98,86.68"/></g><g style="stroke:#000000;stroke-width:0.705"><path d="M187.98,86.68L185.57,91.24L185.44,91.24L185.20,91.18L184.88,91.06L184.68,90.96L184.51,90.88L184.13,90.68L183.79,90.47L183.51,90.28L183.33,90.12L183.28,90.02L185.69,85.46"/><path d="M187.84,86.96L187.90,86.99L187.97,87.02L188.48,87.19L188.53,87.21L188.88,87.27L188.91,87.27L189.04,87.20L189.04,87.19L189.09,86.47L188.90,85.70L188.78,85.46L188.71,85.34L188.51,85.16L188.19,84.94L187.94,84.79L187.52,84.56L187.10,84.36L186.72,84.20L186.44,84.12L186.27,84.11L186.15,84.13L185.39,84.38L185.20,84.51L184.65,84.91L184.65,84.92L184.73,85.10L184.76,85.13L185.05,85.40L185.10,85.43L185.54,85.74"/></g></g><g id="Actor_.25"><g style="stroke:#000000;stroke-width:0.353"><path d="M139.81,152.40L139.56,151.71L138.91,150.74L137.94,150.36"/><path d="M138.91,150.74L139.43,149.75L139.67,148.98L139.81,148.13L140.27,147.97"/><path d="M138.84,147.76L139.81,148.13"/></g><g style="stroke:#000000;stroke-width:0.705"><path d="M140.82,146.88L140.64,146.81L139.58,147.22L138.84,147.76L138.27,148.87L137.94,150.36L138.15,150.97L138.43,151.46L138.84,152.02L139.81,152.40L140.35,152.19"/></g></g><g id="Actor_.26"><g style="stroke:#000000;stroke-width:0.353"><path d="M255.96,101.31L255.96,101.31"/><path d="M257.86,100.24L257.59,100.53L257.38,100.67L257.07,100.76L256.80,100.70L256.59,100.49L256.47,100.15L256.45,99.73L256.50,99.47L256.54,99.27L256.72,98.83L256.98,98.44L257.28,98.17L257.38,98.11L257.69,98.02L257.97,98.08L258.18,98.30L258.30,98.63L258.32,98.90L258.27,99.35L258.11,99.81"/><path d="M257.05,100.34L257.71,99.99L257.03,99.73L256.81,99.50"/><path d="M257.71,99.99L258.04,99.05L257.35,98.78L257.29,98.66"/><path d="M256.79,99.85L257.03,99.73L257.35,98.78L257.04,98.84"/><path d="M257.55,96.91L257.55,96.91"/><path d="M258.04,99.05L257.71,98.44"/></g><g style="stroke:#000000;stroke-width:0.705"><path d="M257.73,97.11L258.11,97.73L258.20,98.08L258.33,98.83L258.27,99.35L258.20,99.56L258.11,99.81L257.88,100.22L257.86,100.24L257.66,100.50L257.31,100.76L256.85,101.09L256.49,101.23L256.05,101.30L255.59,101.31L255.50,101.31L255.45,101.30L255.08,101.06L255.04,101.02L254.79,100.58L254.77,100.52L254.68,99.92L254.68,99.84L254.74,99.14L254.76,99.06L254.99,98.35L255.02,98.27L255.37,97.63L255.42,97.56L255.87,97.06L255.92,97.01L256.30,96.76L256.63,96.63L257.09,96.62L257.14,96.64L257.51,96.87L257.73,97.11"/><path d="M256.05,101.30L255.96,101.31L255.90,101.31"/><path d="M257.05,100.34L256.73,99.73L257.04,98.82L257.05,98.79L257.71,98.44"/></g></g><g id="Actor_.27"><g style="stroke:#000000;stroke-width:0.353"><path d="M190.40,95.29L190.39,95.21L190.26,95.07L190.12,94.97L190.03,94.89L189.70,94.69L189.33,94.48L188.95,94.29L188.61,94.15L188.33,94.06L188.16,94.04L188.10,94.08"/><path d="M193.85,91.18L193.84,91.16L193.63,90.93L193.60,90.89L193.19,90.58L193.14,90.54L192.58,90.19L192.46,90.12L191.87,89.78L191.79,89.74L191.13,89.42L191.06,89.38L190.59,89.18L190.21,89.04L189.79,88.93L189.75,88.92L189.52,88.92L189.50,88.93"/><path d="M192.81,90.74L192.80,90.66L192.68,90.52L192.44,90.34L192.11,90.13L191.74,89.93L191.36,89.74L191.02,89.59L190.74,89.50L190.57,89.48L190.51,89.53"/></g><g style="stroke:#000000;stroke-width:0.705"><path d="M192.81,90.74L190.40,95.29L190.28,95.31L190.05,95.25L189.74,95.13L189.37,94.96L188.99,94.76L188.64,94.55L188.35,94.36L188.17,94.19L188.10,94.08L190.51,89.53"/><path d="M192.66,91.02L192.74,91.06L193.12,91.19L193.55,91.31L193.58,91.32L193.82,91.31L193.83,91.30L193.85,91.18L193.90,90.49L193.74,89.82L193.55,89.42L193.36,89.24L193.05,89.03L192.67,88.79L192.24,88.57L191.83,88.37L191.71,88.32L191.37,88.21L191.15,88.17L190.45,88.34L189.87,88.62L189.50,88.93L189.49,89.06L189.50,89.08L189.70,89.31L189.75,89.35L190.16,89.67L190.22,89.71L190.37,89.80"/></g></g><g id="Actor_.28"><g style="stroke:#000000;stroke-width:0.353"><path d="M146.25,57.37L146.20,57.16L146.25,56.71L146.44,56.28L146.75,55.91L147.14,55.64L147.56,55.50L147.98,55.51L148.10,55.54L148.43,55.74L148.65,56.05L148.74,56.46L148.69,56.90L148.58,57.18L148.31,57.58L147.95,57.89L147.53,58.08L147.11,58.12L146.85,58.07L146.52,57.87L146.29,57.56L146.25,57.37"/><path d="M148.09,57.20L147.88,56.26L147.12,56.89L147.12,57.58"/><path d="M146.71,57.44L146.70,56.54L147.12,56.89L147.99,57.29"/><path d="M146.70,56.54L147.46,55.90L148.24,56.17"/><path d="M147.67,57.55L147.39,57.67"/><path d="M148.24,56.38L147.88,56.26L147.46,55.90"/></g><g style="stroke:#000000;stroke-width:0.705"><path d="M146.02,58.40L146.22,58.89L146.26,58.95L146.68,59.37L147.06,59.55L147.51,59.64L147.58,59.65L148.24,59.57L148.31,59.54L148.96,59.24L149.03,59.20L149.59,58.71L149.64,58.64L150.05,58.02L150.10,57.92L150.31,57.23L150.32,57.15L150.30,56.48L150.29,56.41L150.05,55.83L150.02,55.78L149.59,55.36L149.21,55.18L148.74,55.08L148.67,55.08L148.20,55.07L147.43,55.29L147.31,55.36L146.63,55.84L146.14,56.52L145.91,57.31L145.94,58.13L145.99,58.31L146.02,58.40"/><path d="M146.71,57.44L147.48,57.71L148.25,57.07L148.24,56.17"/><path d="M150.24,57.44L151.47,58.48L151.65,58.78L151.70,59.15L151.64,59.52L151.64,59.54L151.45,59.92L151.16,60.24L150.81,60.47L150.43,60.59L150.07,60.57L149.75,60.42L148.56,59.43"/></g></g><g id="Actor_.29"><g style="stroke:#000000;stroke-width:0.353"><path d="M145.68,137.72L145.31,137.57"/><path d="M148.18,133.57L147.74,134.27L147.46,134.57L147.25,134.80L146.51,135.39L145.54,135.01"/><path d="M146.51,135.39L146.57,136.16"/></g><g style="stroke:#000000;stroke-width:0.705"><path d="M145.65,137.77L145.31,137.57L145.28,136.10L145.54,135.01L146.22,134.04L147.21,133.19L148.18,133.57L148.76,133.85L149.19,134.08L149.61,134.32L149.61,134.36"/></g></g><g id="Actor_.30"><g style="stroke:#000000;stroke-width:0.353"><path d="M250.88,93.72L251.03,93.26L251.09,92.81L251.06,92.54L250.94,92.21L250.73,92.00L250.46,91.93L250.15,92.02L250.05,92.08L249.75,92.36L249.49,92.74L249.31,93.18L249.22,93.64L249.23,94.06L249.35,94.40L249.56,94.61L249.84,94.67L250.15,94.58L250.35,94.44L250.62,94.15"/><path d="M248.73,95.22L248.73,95.22"/><path d="M249.57,93.41L249.79,93.64L249.56,93.76"/><path d="M250.48,92.35L250.81,92.96L250.12,92.69L249.79,93.64L250.48,93.91L249.82,94.25"/><path d="M250.48,93.91L250.81,92.96"/><path d="M250.06,92.57L250.12,92.69L249.80,92.75"/><path d="M250.32,90.82L250.32,90.82"/></g><g style="stroke:#000000;stroke-width:0.705"><path d="M247.44,93.75L247.51,93.06L247.53,92.97L247.75,92.26L247.79,92.19L248.14,91.54L248.19,91.48L248.64,90.97L248.69,90.92L249.06,90.67L249.40,90.54L249.86,90.54L249.91,90.55L250.28,90.78L250.50,91.02L250.88,91.64L250.96,92.00L251.10,92.74L251.03,93.26L250.96,93.47L250.88,93.72L250.65,94.13L250.62,94.15L250.42,94.42L250.08,94.67L249.61,95.00L249.25,95.14L248.82,95.22L248.35,95.22L248.27,95.22L248.22,95.21L247.85,94.97L247.81,94.94L247.56,94.49L247.54,94.43L247.52,94.33L247.44,93.83L247.44,93.75"/><path d="M248.82,95.22L248.73,95.22L248.66,95.22"/><path d="M250.48,92.35L249.82,92.70L249.75,92.90L249.49,93.65L249.82,94.25"/></g></g><g><g/></g><g><g><path style="stroke:#ff0000;stroke-width:0.500;stroke-dasharray:0.5 0.5" d="M156.17,50.92L165.35,58.18"/></g></g><g><g><path style="stroke:#ff0000;stroke-width:0.500;stroke-dasharray:0.5 0.5" d="M151.35,60.03L160.53,67.28"/><path style="stroke:#ff0000;stroke-width:0.500;stroke-dasharray:0.5 0.5" d="M168.33,73.45L172.49,76.74"/></g></g><g><g/></g><g><g><path style="stroke:#ff0000;stroke-width:0.500;stroke-dasharray:0.5 0.5" d="M218.81,75.35L227.62,82.71"/><path style="stroke:#ff0000;stroke-width:0.500;stroke-dasharray:0.5 0.5" d="M238.85,92.09L230.70,85.28"/></g></g><g><g><path style="stroke:#ff0000;stroke-width:0.500;stroke-dasharray:0.5 0.5" d="M214.01,84.43L223.19,91.58"/><path style="stroke:#ff0000;stroke-width:0.500;stroke-dasharray:0.5 0.5" d="M235.40,101.08L226.15,93.87"/></g></g><g><g><path style="stroke:#ff0000;stroke-width:0.500;stroke-dasharray:0.5 0.5" d="M114.51,92.23L102.53,113.79"/><path style="stroke:#ff0000;stroke-width:0.500;stroke-dasharray:0.5 0.5" d="M126.71,70.28L116.40,88.84"/></g></g><g><g><path style="stroke:#ff0000;stroke-width:0.500;stroke-dasharray:0.5 0.5" d="M109.79,88.23L97.84,109.96"/><path style="stroke:#ff0000;stroke-width:0.500;stroke-dasharray:0.5 0.5" d="M121.89,66.22L110.68,86.60"/></g></g><g><g/></g><g><g><path style="stroke:#ff0000;stroke-width:0.500;stroke-dasharray:0.5 0.5" d="M176.63,116.38L164.31,137.58"/><path style="stroke:#ff0000;stroke-width:0.500;stroke-dasharray:0.5 0.5" d="M189.26,94.67L177.81,114.36"/></g></g><g><g><path style="stroke:#ff0000;stroke-width:0.500;stroke-dasharray:0.5 0.5" d="M171.81,112.32L159.33,133.80"/><path style="stroke:#ff0000;stroke-width:0.500;stroke-dasharray:0.5 0.5" d="M184.43,90.61L172.70,110.80"/></g></g><g/><g id="paperID" visibility="hidden" opacity="0.00" transform="scale(0.000100)"><path style="stroke:#000000;stroke-width:0.500;fill:#e6e6e6;fill-rule:evenodd" d="M-2000.00,-2000.00L2297.00,-2000.00L2297.00,2210.00L-2000.00,2210.00zM0.00,0.00L297.00,0.00L297.00,210.00L0.00,210.00z"/><path style="fill:#000000;fill-opacity:0.118" d="M3.00,210.00L297.00,210.00L297.00,3.00L300.00,3.00L300.00,213.00L3.00,213.00z"/></g><g id="ToolTip" visibility="hidden" opacity="0" transform="translate(0,0)"><rect id="ToolTipShadow" opacity="0.20" fill="black" stroke="none" x="0" y="0" width="30" height="8"/><rect id="ToolTipBG" fill="#ffffe1" stroke="black" x="0" y="0" width="30" height="8"/><text xml:space="preserve" id="ToolTipText" fill="black" x="0" y="0" width="30" height="8">tooltip</text></g></g></svg>
