<?xml version="1.0" encoding="UTF-8" standalone="no"?>
<svg xmlns="http://www.w3.org/2000/svg" xmlns:xlink="http://www.w3.org/1999/xlink" width="297.000mm" height="210.000mm" viewBox="0.000000 0.000000 297.000000 210.000000" stroke-linejoin="round" stroke-linecap="round" fill="none" fill-rule="evenodd"><desc>3DVIA Composer Export</desc><script type="text/ecmascript"><![CDATA[
if(typeof(top) != "undefined")
{
	top.ShowPaper = ShowPaper;
}
function ShowHotSpot(evt,hotspotid)
{
	var svgDocument = evt.target.ownerDocument;
	var strId = "hotspot."+hotspotid;
	var hotspot = svgDocument.getElementById(strId);
	if(hotspot)
		hotspot.setAttribute("opacity",".5");
}
function HideHotSpot(evt,hotspotid)
{
	var svgDocument = evt.target.ownerDocument;
	var strId = "hotspot."+hotspotid;
	var hotspot = svgDocument.getElementById(strId);
	if(hotspot)
		hotspot.setAttribute("opacity","0");

	var toolTip = svgDocument.getElementById('ToolTip');
	if(toolTip)
		toolTip.setAttribute("visibility","hidden");
}
function ShowToolTip(evt,hotspotid,strTooltip)
{
	if(strTooltip=="")
	return;

	// change text
	var svgDocument = evt.target.ownerDocument;
	var tiptext = svgDocument.getElementById('ToolTipText');
	if( !tiptext )
	return;
	tiptext.firstChild.nodeValue = " " + strTooltip + "  " ;

	// show tooltip before, else some refresh issue

	var toolTip = svgDocument.getElementById('ToolTip');
	if(!toolTip)
	return;

	toolTip.setAttribute("visibility","visible");
	toolTip.setAttribute("opacity",".95");

	// move tooltip
	// get viewbox

	var root = svgDocument.documentElement;
	var vbox = (root.getAttribute("viewBox")).split(' ');
	var x0 = parseFloat(vbox[0]);
	var y0 = parseFloat(vbox[1]);
	var vboxW = parseFloat(vbox[2]);
	var vboxH = parseFloat(vbox[3]);

	// get default width of svg

	var strW = root.getAttribute("width");
	var svgW = parseFloat(strW);
	if(strW.indexOf('mm') != -1)
	svgW *= 3.779;

	var strH = root.getAttribute("height");
	var svgH = parseFloat(strH);
	if(strH.indexOf('mm') != -1)
	svgH *= 3.779;  	// 96 dpi  -> 96/25.4 = 3.779

	// update the viewbox / width / height if svg is embedded in html with zoom fit all
	var realx0 = x0;
	var realy0 = y0;
	var realvboxW = vboxW;
	var realvboxH = vboxH;
	var realsvgW = svgW;
	var realsvgH = svgH;

	if ((typeof(top) == "undefined") || (typeof(top.svgctl1) != "undefined")) // embedded in html
	{
		// get window size in pxl

		svgW = window.innerWidth;
		svgH = window.innerHeight;

		// calculate real viewbox

		realsvgW = svgW;
		realsvgH = svgH;
		if((svgW / svgH) > (vboxW / vboxH))
		{
			realvboxW = (vboxH * svgW) / svgH;
			realvboxH = vboxH;
			realx0 = x0 - (realvboxW - vboxW)/2 ;
		}
		else
		{
			realvboxH = (vboxW * svgH) / svgW;
			realvboxW = vboxW;
			realy0 = y0 - (realvboxH - vboxH)/2 ;
		}
	}

	// get user zoom/pan

	var newScale = root.currentScale;
	var translation = root.currentTranslate;

	// transform pxl to user unit

	var xPos = (((evt.clientX+10- translation.x)/newScale) * realvboxW)/realsvgW  + realx0 ;
	var yPos = (((evt.clientY+5- translation.y)/newScale) * realvboxH)/ realsvgH  + realy0 ;
	var scaleForWidth = ( (1 / newScale) * realvboxH) / realsvgH;

	// move tooltip

	toolTip.setAttribute("transform", "translate(" + xPos + "," + yPos + ")" );

	// resize tooltip

	var fontsize = 12;
	tiptext.setAttribute("font-size",fontsize*scaleForWidth);
	tiptext.setAttribute("y", fontsize*scaleForWidth);
	var tipBG = svgDocument.getElementById('ToolTipBG');
	var outline = tiptext.getBBox();
	if(tipBG)
	{
		tipBG.setAttribute("stroke-width", 1*scaleForWidth);
		tipBG.setAttribute("width", Number(outline.width) );
		tipBG.setAttribute("height", Number(outline.height) + fontsize*.5*scaleForWidth );
	}
	var ToolTipShadow = svgDocument.getElementById('ToolTipShadow');
	if(ToolTipShadow)
	{
		ToolTipShadow.setAttribute("width", Number(outline.width) );
		ToolTipShadow.setAttribute("height", Number(outline.height) + fontsize*.5*scaleForWidth );
		ToolTipShadow.setAttribute("x", 3*scaleForWidth);
		ToolTipShadow.setAttribute("y", 3*scaleForWidth);
	}
}
function ShowPaper()
{
  var svgDocument = getDocument();
  var paper = svgDocument.getElementById("paperID");
  if(paper)
  {
    paper.setAttribute("transform","scale(1)");
    paper.setAttribute("opacity","1");
    paper.setAttribute("visibility","visible");
  }
  var svg = svgDocument.getRootElement();
  if(svg)
  {
    svg.setAttribute("width","307.000mm");
    svg.setAttribute("height","220.000mm");
    svg.setAttribute("viewBox","-5.000000 -5.000000 307.000000 220.000000");
  }
}
]]></script><defs/><g><path style="fill:#dcdcdc;fill-rule:evenodd" d="M214.60,46.77L214.86,60.77L215.39,62.06L216.16,65.43L216.08,72.17L215.64,76.92L214.86,80.29L214.52,88.25L170.45,113.66L168.74,115.06L166.82,116.52L163.70,117.54L161.10,119.12L163.70,119.11L167.42,118.15L169.78,116.88L171.31,115.56L172.35,113.64L172.35,116.34L171.71,117.78L170.27,119.45L166.31,121.45L163.96,121.96L158.76,122.06L158.52,120.63L136.96,133.11L136.49,133.22L136.58,91.72L140.47,85.24L210.63,44.66L210.98,44.66zM124.11,97.40L123.49,97.83L122.74,97.95L122.72,94.46L124.13,94.46zM137.79,86.71L136.32,87.83L135.25,89.61L135.01,100.01L134.48,101.83L134.49,87.04L138.87,84.57zM110.82,105.37L109.50,105.46L109.50,101.98L110.90,101.98zM134.23,109.33L134.74,105.18L135.01,104.30L135.00,120.23L134.50,120.52L134.49,114.19L134.23,112.10zM128.79,118.68L126.61,118.83L124.64,119.99L124.61,118.64L126.11,117.55L126.88,117.28L128.79,117.28zM178.06,120.49L177.78,121.25L176.93,123.00L175.36,124.82L175.88,124.84L184.98,119.61L184.98,120.11L161.10,133.92L160.57,133.97L160.57,133.38L161.75,132.97L170.27,127.98L170.26,127.89L166.83,128.71L163.45,129.22L157.81,129.23L157.73,125.58L163.96,125.33L167.35,124.83L171.57,123.34L174.97,121.30L176.93,119.11L177.71,117.56L178.06,116.76zM185.74,126.11L175.64,132.10L173.81,132.05L173.05,132.60L172.78,133.63L161.11,140.37L161.20,143.99L165.11,146.30L170.56,149.26L170.71,145.82L174.67,143.48L173.91,142.95L171.29,142.72L169.74,141.94L169.21,141.43L169.24,139.68L170.78,138.62L172.00,138.29L173.65,138.28L173.89,141.94L175.71,142.45L176.77,143.20L177.27,144.77L178.08,145.11L178.23,141.41L187.93,135.96L187.93,139.44L186.01,140.63L185.84,166.66L185.47,167.06L180.90,169.75L180.64,171.04L166.38,179.38L166.12,178.47L165.80,178.43L161.88,180.80L160.58,180.91L160.59,134.40L162.14,133.88L185.85,120.14zM182.46,132.16L183.93,131.03L184.70,130.77L186.88,130.76L186.87,134.23L186.00,134.40L185.82,135.28L184.00,134.94L182.73,134.13L182.44,133.65zM178.76,136.23L177.96,136.32L177.95,135.43L178.85,135.44zM195.16,135.26L191.53,137.37L191.53,133.71L194.84,131.77L195.16,131.78zM156.29,178.97L155.97,179.29L155.15,179.38L155.23,178.20zM212.31,48.05L212.02,49.44L211.50,50.22L210.92,50.67L209.67,50.66L209.70,48.68L210.64,47.53L211.27,47.28zM207.89,54.76L206.60,56.20L202.42,59.81L198.56,63.20L194.27,67.99L190.12,74.22L184.79,84.19L182.35,88.26L181.95,88.28L181.94,83.92L182.45,80.54L183.75,75.88L186.09,70.70L189.09,65.92L191.30,63.20L193.63,60.61L195.18,59.31L198.71,56.87L202.09,55.33L203.63,54.79L205.19,54.54L207.66,54.52zM208.91,65.42L211.24,66.75L208.56,67.24L206.49,68.02L204.12,69.55L202.19,71.24L199.59,74.09L197.24,77.96L195.86,81.25L194.90,84.69L194.41,89.88L191.98,88.58L191.47,85.12L192.03,80.80L193.52,76.84L195.57,73.18L197.01,71.25L198.56,69.43L200.78,67.51L203.38,65.95L205.97,65.17L207.87,65.17zM211.25,69.57L212.81,70.84L211.92,72.19L211.26,72.18L210.72,71.65L209.95,71.39L207.52,71.39L206.06,72.02L206.05,70.18L207.51,69.56L210.20,69.32zM213.81,72.71L214.35,74.25L214.35,77.18L213.50,80.75L212.49,80.75L212.19,80.46L212.79,78.22L212.80,75.02L212.20,73.18L212.94,72.15zM210.23,72.66L210.98,73.73L212.03,75.01L212.02,79.26L211.50,80.55L210.35,80.55L210.72,78.48L210.72,77.10L209.95,75.02L208.90,74.25L208.15,74.00L205.97,74.35L205.97,72.69L207.52,72.17L209.44,72.16zM209.18,75.51L208.10,76.93L205.97,76.95L205.97,75.28L206.47,75.00L208.40,75.01zM209.96,76.79L209.95,79.78L209.70,80.52L208.56,80.30L208.65,77.45L209.72,76.55zM207.86,78.66L207.87,80.30L207.10,82.11L205.21,83.86L203.73,83.83L203.21,83.31L203.19,81.06L204.16,79.17L205.51,77.94L206.85,77.86zM204.75,72.77L204.26,73.06L201.41,75.91L199.31,79.51L198.17,79.51L198.46,78.66L199.49,76.58L201.15,74.36L202.86,72.43L204.67,71.11L204.78,71.14zM204.77,77.72L204.13,78.37L203.20,79.77L201.79,79.69L203.35,77.33L204.77,76.06zM208.92,82.04L208.95,82.36L207.10,84.97L206.05,85.76L206.06,83.93L208.04,81.74zM202.41,83.82L201.54,85.15L201.13,85.17L201.09,81.56L201.30,81.25L202.44,81.25zM204.77,84.86L204.75,86.51L204.18,86.71L202.67,86.70L201.81,86.16L203.08,84.62zM204.77,75.13L203.23,76.69L201.38,79.25L200.34,82.36L200.37,85.43L199.96,85.46L200.36,85.93L200.63,86.14L199.53,87.58L199.26,87.58L198.78,85.92L198.79,83.67L199.30,81.06L201.31,77.11L202.83,75.26L204.77,73.46zM198.27,83.15L198.30,86.98L197.98,87.47L198.57,88.85L197.52,89.90L196.96,89.04L196.72,87.73L196.72,83.92L197.41,80.99L198.78,80.96zM202.15,87.48L204.17,87.49L206.08,86.54L207.61,85.22L209.83,82.00L210.98,82.00L210.21,83.67L208.28,86.41L206.46,87.96L204.17,89.30L202.85,89.56L201.11,89.30L200.08,88.75L200.08,88.09L201.14,86.94zM141.75,88.52L141.76,89.37L140.98,90.93L140.39,91.38L139.13,91.36L139.15,90.68L140.12,89.56L140.72,87.97zM199.86,89.78L201.37,90.34L202.87,90.33L204.79,89.81L204.76,91.44L204.43,91.64L202.87,92.15L200.07,92.15L198.55,91.35L198.27,91.08L198.27,90.43L198.99,89.54L199.56,89.51zM212.81,82.36L211.49,84.96L209.58,87.71L206.46,90.60L205.98,90.70L206.06,89.12L208.80,86.67L211.64,82.26zM164.56,91.10L166.90,92.42L163.96,92.92L161.11,94.21L158.00,96.55L155.90,98.86L153.42,102.59L151.78,105.88L150.48,110.29L150.07,115.55L147.64,114.25L147.19,111.84L147.19,109.60L147.95,105.43L149.70,101.21L152.15,97.43L153.96,95.36L156.01,93.52L158.34,91.96L160.33,91.10L161.37,90.84L163.79,90.84zM166.91,95.24L168.48,96.51L167.39,97.94L166.93,97.86L166.38,97.32L165.61,97.06L162.92,97.06L161.63,97.43L161.72,95.85L162.91,95.24L164.22,94.99L165.86,94.99zM169.77,98.86L170.01,102.08L169.50,105.19L168.96,106.49L167.84,106.21L168.45,103.37L168.45,100.96L167.91,98.70L168.60,97.83L168.73,97.84zM165.89,98.33L166.64,99.40L167.69,100.68L167.68,104.67L167.16,106.22L166.01,106.22L166.39,103.30L166.14,101.72L165.38,100.40L163.78,99.64L161.63,100.02L161.63,98.36L162.92,97.84L165.10,97.83zM164.58,100.97L164.61,101.29L163.68,102.52L161.70,102.61L161.63,100.96L162.13,100.67L164.07,100.67zM165.62,102.75L165.61,105.19L165.34,105.96L164.21,105.97L164.31,103.12L165.03,102.23L165.31,102.22zM163.55,104.57L163.28,106.49L162.13,108.46L160.60,109.52L159.35,109.54L158.83,109.02L158.85,106.47L159.92,104.69L161.11,103.55L162.47,103.28zM153.91,104.41L156.16,100.67L158.50,98.08L160.10,96.76L160.41,96.77L160.43,98.20L159.30,99.14L156.93,101.70L154.97,105.19L153.91,105.10zM160.44,103.40L159.84,103.83L158.78,105.36L157.45,105.44L157.56,104.96L158.76,103.27L159.81,101.98L160.44,101.74zM168.45,107.94L166.90,110.89L164.56,114.00L161.72,116.36L161.64,114.70L164.33,112.21L166.12,109.85L167.28,107.69zM158.06,108.97L157.82,109.86L157.19,110.56L156.72,110.65L156.44,108.74L156.77,106.99L158.11,106.92zM160.43,110.53L160.45,111.97L160.18,112.21L158.60,112.39L157.46,111.91L157.55,111.44L158.54,110.28zM164.60,108.03L163.71,109.26L161.72,111.44L161.72,109.60L163.18,107.95L163.44,107.44L164.59,107.44zM160.43,100.80L159.56,101.47L158.00,103.29L156.19,106.92L155.64,111.09L156.05,111.92L154.99,113.24L154.69,112.93L154.45,111.59L154.45,108.82L154.96,106.47L156.71,103.04L158.76,100.41L160.43,99.13zM158.07,113.15L159.57,113.15L162.01,111.96L164.23,109.52L165.26,107.70L166.67,107.78L164.82,110.89L162.13,113.64L159.57,114.97L156.77,114.97L155.74,114.42L155.74,113.76L156.66,112.61zM153.93,108.29L153.93,112.87L153.61,113.17L153.66,113.63L154.21,113.95L154.23,114.24L153.18,115.57L152.63,114.71L152.37,113.67L152.38,109.33L153.07,106.67L154.22,106.67zM136.82,111.41L137.26,107.18L138.56,102.52L140.37,98.10L142.78,93.77L145.67,89.92L147.22,88.10L149.70,85.66L153.33,83.06L156.45,81.51L159.04,80.73L162.78,80.74L162.80,81.06L161.74,82.13L155.93,86.95L152.27,90.56L149.03,94.31L145.15,100.03L139.42,110.89L137.06,114.53L136.82,113.14zM156.25,115.75L157.58,116.01L159.39,115.84L160.09,115.43L160.42,115.45L160.42,117.12L158.53,117.82L155.73,117.83L153.92,116.76L153.94,116.11L154.62,115.17L155.23,115.19z"/><g id="Actor_.0"><g style="stroke:#000000;stroke-width:0.353"><path d="M111.16,152.82L111.16,152.05L159.76,180.11L159.76,180.88"/><path d="M111.16,152.05L110.90,151.84L110.76,151.60"/><path d="M115.80,156.36L155.11,179.06L155.15,179.27L155.20,179.36L155.24,179.43L155.39,179.52"/><path d="M155.11,179.06L155.11,178.19"/><path d="M161.75,180.87L161.75,180.11L161.39,180.26L160.97,180.34L160.53,180.34L160.11,180.26L159.76,180.11"/><path d="M161.75,180.11L185.47,166.41L185.47,167.18"/><path d="M166.12,179.52L166.27,179.43L166.36,179.27L166.39,179.06L180.82,170.72"/><path d="M166.39,179.06L166.39,178.19"/><path d="M185.86,165.71L185.86,165.97L185.73,166.21L185.47,166.41"/></g><g style="stroke:#000000;stroke-width:0.705"><path d="M110.76,151.60L110.76,152.37L110.90,152.61L111.16,152.82L115.80,155.50L115.80,156.36L115.84,156.58L115.93,156.74L155.39,179.52L155.57,179.52L155.78,179.44L156.52,179.01"/><path d="M155.11,178.19L159.76,180.88L160.11,181.02L160.53,181.10L160.97,181.10L161.39,181.02L161.75,180.87L166.39,178.19"/><path d="M185.86,165.71L185.86,166.73L185.73,166.98L185.47,167.18L180.82,169.86L180.82,170.72L180.79,170.94L180.69,171.10L166.12,179.52L165.93,179.52L165.73,179.44L164.98,179.01"/></g></g><g id="Actor_.1"><g style="stroke:#000000;stroke-width:0.353"><path d="M110.76,111.22L101.21,105.70"/><path d="M106.16,104.52L106.21,103.89"/><path d="M113.96,103.32L113.44,102.82L112.64,102.39L111.68,102.09L110.61,101.95L109.52,101.98L108.59,101.44"/><path d="M109.52,105.62L109.52,101.98"/><path d="M111.16,118.53L111.16,106.08L123.41,113.15"/><path d="M111.16,106.08L110.90,105.88L110.76,105.64L110.76,105.38"/><path d="M111.46,105.45L111.46,105.57L111.53,105.69L111.66,105.80L111.66,105.22L111.53,105.12L111.46,105.00L111.46,104.87"/><path d="M123.90,112.87L111.66,105.80"/><path d="M111.66,105.22L124.40,112.58"/><path d="M124.90,112.29L117.30,107.90L117.17,107.80L117.10,107.68L117.10,107.55"/><path d="M117.10,103.53L117.10,103.66L117.17,103.78L117.30,103.88L117.30,107.90"/><path d="M117.30,103.88L128.38,110.28"/><path d="M117.83,101.09L117.83,100.89L117.99,100.99"/><path d="M117.83,100.89L117.64,100.75L117.54,100.57L117.54,100.39"/><path d="M119.48,96.23L119.43,96.86"/><path d="M127.13,95.56L126.71,95.16L125.91,94.73L124.95,94.43L123.88,94.29L122.79,94.32L122.79,97.96"/><path d="M122.79,94.32L121.86,93.78"/><path d="M159.76,146.59L159.76,134.14L147.43,127.03"/><path d="M148.43,126.45L160.26,133.28L160.43,133.36L160.64,133.39L160.86,133.40L161.07,133.36L161.25,133.28L161.25,133.86L161.07,133.93L160.86,133.97L160.64,133.97L160.43,133.93L160.26,133.86L160.26,133.28"/><path d="M160.26,133.86L147.93,126.74"/><path d="M148.50,126.49L149.87,127.19L151.77,127.95L153.83,128.56L156.01,129.01L158.27,129.29L160.58,129.39L162.89,129.31L165.17,129.06L167.36,128.64L169.44,128.05L171.37,127.31L173.06,126.46L161.25,133.28"/><path d="M152.23,124.26L153.83,124.73L156.01,125.18L158.27,125.46L160.58,125.56L162.89,125.48L165.17,125.23L167.36,124.81L169.44,124.22L171.37,123.48L173.11,122.60L174.63,121.60L175.92,120.49L176.93,119.28L177.66,118.02L178.10,116.70L178.23,115.37"/><path d="M156.53,121.77L156.82,121.85L158.64,122.13L160.52,122.24L162.40,122.17L164.24,121.93L165.99,121.53L167.61,120.96L169.05,120.26L170.27,119.43L171.25,118.49L171.95,117.49L172.03,117.29L172.37,116.42L172.48,115.33"/><path d="M161.12,143.93L161.12,140.29L161.39,140.23L161.75,140.08L161.75,134.14L161.39,134.29L160.97,134.37L160.53,134.37L160.11,134.29L159.76,134.14"/><path d="M160.71,119.36L162.40,119.30L164.24,119.06L165.99,118.65L167.61,118.09L169.05,117.38L170.27,116.55L171.25,115.62L171.95,114.62L172.37,113.55L172.47,112.57"/><path d="M161.75,144.29L161.75,146.59"/><path d="M161.75,140.08L172.90,133.64L172.90,132.69L174.32,131.86"/><path d="M161.12,140.29L170.71,145.83L170.71,149.46"/><path d="M161.75,134.14L185.47,120.45L185.47,126.39L175.15,132.34"/><path d="M161.25,133.86L184.97,120.16L184.97,119.59L173.06,126.46"/><path d="M169.32,114.39L169.08,114.78L168.27,115.60L167.22,116.33L165.96,116.94L164.54,117.40L163.86,117.54"/><path d="M168.35,114.95L168.27,115.03L167.22,115.76L165.96,116.36L165.82,116.41"/><path d="M177.20,140.40L176.96,139.78L176.45,139.22L175.70,138.77L174.76,138.44L173.72,138.26L172.62,138.25L171.57,138.41L170.62,138.72L169.85,139.17L169.31,139.72L169.04,140.33"/><path d="M170.71,145.83L174.77,143.48"/><path d="M172.90,133.64L177.37,136.23L177.37,135.27L177.63,135.38L177.93,135.44L178.24,135.44L178.54,135.38L178.80,135.27L178.98,135.13L179.08,134.95"/><path d="M172.90,132.69L177.37,135.27"/><path d="M173.11,126.43L174.63,125.43L175.92,124.32L176.93,123.11L177.66,121.85L178.10,120.53L178.23,119.20"/><path d="M177.15,141.02L178.09,141.56L178.09,145.20"/><path d="M179.08,135.91L178.98,136.08L178.80,136.23L178.54,136.34L178.24,136.39L177.93,136.39L177.63,136.34L177.37,136.23"/><path d="M178.09,141.56L188.04,135.82"/><path d="M190.47,132.73L190.23,132.12L189.71,131.56L188.97,131.10L188.03,130.78L186.99,130.60L185.89,130.59L185.35,130.67L184.84,130.75L183.89,131.06L183.11,131.51L182.58,132.05L182.30,132.67"/><path d="M184.97,120.16L185.10,120.06L185.17,119.94"/><path d="M184.97,119.59L185.10,119.48L185.17,119.36"/><path d="M185.47,126.39L185.73,126.18L185.83,126.02"/><path d="M185.47,120.45L185.73,120.24L185.86,120.00"/><path d="M190.42,133.36L191.36,133.90L191.36,137.54"/><path d="M191.36,133.90L195.42,131.56"/></g><g style="stroke:#000000;stroke-width:0.705"><path d="M106.21,104.65L106.21,103.89L105.27,103.35L101.21,105.70L101.21,109.34L110.76,114.86"/><path d="M106.16,104.52L106.40,105.14L106.91,105.69L107.66,106.15L108.59,106.48L109.64,106.66L110.76,106.66"/><path d="M119.48,96.99L119.48,96.23L118.54,95.69L108.59,101.44L108.59,105.08L109.52,105.62L110.61,105.59L110.76,105.61"/><path d="M114.27,120.33L111.16,118.53L110.90,118.33L110.76,118.09L110.76,105.39"/><path d="M111.46,105.45L111.46,104.87L111.53,104.75L111.65,104.65L111.16,104.93L110.90,105.14L110.76,105.38"/><path d="M111.65,104.65L117.56,101.24L117.54,100.39L117.64,100.22L117.83,100.07L118.08,99.96L118.38,99.91L118.70,99.91L119.00,99.96L119.25,100.07L119.42,100.17"/><path d="M117.10,107.55L117.10,103.54L117.17,103.41L117.30,103.31L133.12,94.17"/><path d="M117.56,101.24L125.41,96.71"/><path d="M119.43,96.86L119.67,97.48L120.18,98.03L120.93,98.49L121.79,98.80"/><path d="M130.23,93.92L125.92,91.43L121.86,93.78L121.86,97.42L122.79,97.96L123.27,97.95"/><path d="M133.12,94.10L131.92,94.17L130.26,94.45L128.71,94.88L127.30,95.45L126.09,96.16L125.09,96.97L124.34,97.87L123.87,98.82L123.72,99.60"/><path d="M133.12,92.26L128.26,95.06"/><path d="M135.35,90.97L135.29,91.00"/><path d="M163.74,145.44L161.75,146.59L161.39,146.74L160.97,146.82L160.53,146.82L160.11,146.74L159.76,146.59L136.65,133.25"/><path d="M169.04,140.33L169.05,140.96L169.35,141.56L169.92,142.10L170.72,142.53L171.68,142.83L172.74,142.97L173.83,142.94L174.77,143.48L174.77,147.12L170.71,149.46L161.12,143.93"/><path d="M177.15,143.91L176.96,143.42L176.45,142.86L175.70,142.40L174.76,142.08L173.72,141.90L172.62,141.89L171.57,142.05L170.62,142.36L170.52,142.42"/><path d="M172.48,115.33L172.48,112.57"/><path d="M174.32,131.86L178.80,134.45L178.99,134.60L179.08,134.77L179.08,135.91"/><path d="M175.98,110.55L176.80,111.47L177.57,112.73L178.05,114.04L178.23,115.37L178.23,119.20"/><path d="M182.30,132.67L182.32,133.29L182.62,133.90L183.19,134.44L183.99,134.87L184.95,135.17L186.01,135.31L187.10,135.28L188.04,135.82L188.04,139.46L178.09,145.20L177.15,144.66L177.15,141.02L177.20,140.40"/><path d="M185.83,126.02L185.86,126.04L185.86,119.75L185.73,119.50L185.47,119.30L178.19,115.10"/><path d="M190.42,136.25L190.23,135.76L189.71,135.20L188.97,134.74L188.03,134.42L186.99,134.24L185.89,134.23L184.84,134.39L183.89,134.70L183.78,134.76"/><path d="M184.23,118.58L184.97,119.01L185.10,119.11L185.17,119.24L185.17,119.94"/><path d="M190.47,132.73L190.42,133.36L190.42,137.00L191.36,137.54L195.42,135.20L195.42,131.56L185.86,126.04"/></g></g><g id="Actor_.2"><g style="stroke:#000000;stroke-width:0.353"><path d="M111.16,152.05L111.16,118.53L110.90,118.33L110.76,118.09"/><path d="M111.16,118.53L114.27,120.33"/><path d="M136.65,133.25L159.76,146.59L159.76,180.11"/><path d="M161.75,180.11L161.75,146.59L161.39,146.74L160.97,146.82L160.53,146.82L160.11,146.74L159.76,146.59"/><path d="M161.75,146.59L163.74,145.44"/><path d="M185.47,166.41L185.47,140.94"/><path d="M185.47,134.29L185.47,135.23"/></g><g style="stroke:#000000;stroke-width:0.705"><path d="M185.86,140.71L185.86,165.97L185.73,166.21L185.47,166.41L161.75,180.11L161.39,180.26L160.97,180.34L160.53,180.34L160.11,180.26L159.76,180.11L158.55,179.41L111.16,152.05L110.90,151.84L110.76,151.60L110.76,118.00"/><path d="M185.86,134.24L185.86,135.29"/></g></g><g id="Actor_.3"><g style="stroke:#000000;stroke-width:0.353"><path d="M168.35,93.14L167.53,92.70L166.64,92.40L165.67,92.26L164.65,92.28L163.57,92.45L162.47,92.78L161.34,93.25L161.28,93.28L160.20,93.88L159.06,94.64L157.94,95.53L156.85,96.54L155.80,97.66L154.80,98.87L153.87,100.17L153.01,101.53L152.24,102.94L151.56,104.39L150.98,105.86L150.51,107.33L150.15,108.79L149.91,110.21L149.79,111.59L149.79,112.91L149.91,114.15L150.15,115.29L150.51,116.34L150.98,117.26L151.56,118.06L152.24,118.73L153.01,119.25"/><path d="M151.43,115.11L151.77,116.09L152.21,116.96L152.76,117.71L153.39,118.33L154.00,118.74L154.12,118.82L154.93,119.17L155.80,119.37L156.74,119.43L157.72,119.34L158.75,119.11L159.80,118.73L160.87,118.21L161.94,117.56L163.00,116.79L164.04,115.89L165.05,114.89L166.01,113.80L166.92,112.62L167.76,111.37L168.52,110.06L169.21,108.72L169.80,107.34L170.29,105.96L170.68,104.59L170.96,103.23L171.14,101.91L171.19,100.64L171.14,99.44L170.96,98.32L170.68,97.29L170.29,96.37L169.80,95.55L169.21,94.86L168.52,94.31L167.76,93.89L166.92,93.61L166.01,93.48L165.05,93.49L164.04,93.66L163.00,93.96L161.94,94.41L160.87,95.00L159.80,95.71L158.75,96.55L157.72,97.50L156.74,98.55L155.80,99.69L154.93,100.90L154.12,102.18L153.39,103.51L152.76,104.87L152.21,106.25L151.77,107.63L151.43,109.00L151.21,110.34L151.19,110.59L151.09,111.63L151.09,112.87L151.21,114.03L151.43,115.11"/><path d="M153.14,115.70L154.44,114.08L153.96,112.90L153.72,111.51L153.72,109.95L153.96,108.28L154.44,106.55"/><path d="M153.79,113.70L154.44,114.08"/><path d="M160.61,96.44L160.61,98.18L159.28,99.20L158.01,100.45L156.84,101.90L155.82,103.50L154.97,105.20L153.66,105.09"/><path d="M159.96,116.69L160.61,117.06L159.24,117.64L157.91,117.95L156.66,117.98L155.52,117.73L154.51,117.22"/><path d="M154.97,114.82L155.82,115.54"/><path d="M155.01,113.37L156.32,111.75L155.97,110.73L155.85,109.52L155.96,108.18L156.30,106.76L156.86,105.33L157.60,103.94L157.65,103.88L158.51,102.67L159.52,101.56L160.61,100.67L159.96,100.30"/><path d="M154.97,105.20L154.31,104.83"/><path d="M156.29,114.74L157.20,115.11L158.24,115.22L159.36,115.05L160.54,114.61L161.73,113.92L162.91,112.99L164.03,111.87L165.06,110.59L165.98,109.15L166.74,107.65"/><path d="M156.32,111.75L155.66,111.37"/><path d="M157.58,113.02L156.84,112.49"/><path d="M156.88,111.04L158.20,109.41L158.02,108.68L158.02,107.82L158.20,106.88"/><path d="M157.41,105.42L158.72,105.54L159.26,104.64L159.86,103.88L159.90,103.84L160.61,103.18L160.61,101.43"/><path d="M158.05,112.23L158.82,112.43L158.98,112.42L159.68,112.37L160.61,112.07L160.61,110.32"/><path d="M158.20,109.41L157.54,109.03"/><path d="M158.72,105.54L158.07,105.16"/><path d="M163.14,103.61L163.50,104.20L163.62,105.02L163.50,105.97L163.14,106.98L162.59,107.93L161.90,108.73L161.14,109.32L160.37,109.62L159.68,109.61L159.59,109.56"/><path d="M160.61,117.06L160.61,115.33"/><path d="M160.61,112.07L159.96,111.69"/><path d="M160.61,103.18L159.96,102.81"/><path d="M160.61,100.67L160.61,98.93"/><path d="M160.61,98.18L159.96,97.80"/><path d="M161.66,116.46L163.03,115.45L164.36,114.23L165.61,112.81L166.75,111.25L167.76,109.57L168.61,107.81"/><path d="M161.66,111.47L162.59,110.70L163.45,109.75L164.22,108.66L164.86,107.48"/><path d="M161.66,102.58L162.37,102.41L163.02,102.47L163.55,102.75L164.86,101.12L164.22,100.67"/><path d="M161.66,100.07L162.75,99.70L163.77,99.63L164.67,99.86"/><path d="M161.66,97.57L162.99,97.06L164.26,96.84L165.43,96.95L166.45,97.36"/><path d="M162.90,102.37L163.55,102.75"/><path d="M164.07,106.02L165.39,106.13L165.67,104.92L165.77,103.77L165.67,102.74L165.39,101.86"/><path d="M164.73,105.76L165.39,106.13"/><path d="M164.86,101.12L164.21,100.74"/><path d="M165.96,106.18L167.26,106.30L167.68,104.77L167.90,103.28L167.90,101.90L167.70,100.65L167.29,99.59L166.69,98.74L165.92,98.13"/><path d="M167.26,106.30L166.61,105.92"/><path d="M167.31,98.08L168.61,96.46L167.76,95.68"/><path d="M167.83,106.35L169.13,106.47L169.66,104.68L169.97,102.94L170.08,101.29L169.97,99.75L169.66,98.38L169.13,97.20"/><path d="M169.13,106.47L168.48,106.09"/><path d="M167.96,96.08L168.61,96.46"/></g><g style="stroke:#000000;stroke-width:0.705"><path d="M165.74,91.63L168.35,93.14L169.08,93.74L169.26,93.89L169.88,94.62L170.41,95.48L170.50,95.68L170.92,96.66L171.21,97.74L171.39,98.92L171.45,100.18L171.45,100.35L171.39,101.67L171.22,103.04L170.92,104.44L170.52,105.87L170.00,107.31L169.39,108.73L168.68,110.13L167.89,111.48L167.01,112.78L166.07,114.00L165.07,115.14L164.03,116.17L162.94,117.11L161.84,117.91L160.58,118.68L159.46,119.22L158.35,119.62L157.28,119.87L156.24,119.96L156.01,119.97L155.02,119.91L154.09,119.69L153.87,119.62L153.01,119.25L150.33,117.70"/><path d="M154.44,106.55L153.14,106.43L152.62,108.22L152.30,109.96L152.19,111.62L152.30,113.15L152.62,114.52L153.14,115.70"/><path d="M153.70,106.48L153.31,107.90L153.07,109.58L153.07,111.13L153.31,112.52L153.79,113.70L152.80,114.94"/><path d="M154.97,114.82L153.66,116.44L154.51,117.22"/><path d="M153.66,105.09L154.51,103.33L155.52,101.65L156.66,100.09L157.91,98.68L159.24,97.45L160.61,96.44"/><path d="M153.81,104.78L154.31,104.83L155.16,103.13L156.19,101.53L157.36,100.07L158.63,98.82L159.96,97.80L159.96,96.92"/><path d="M159.96,115.58L159.96,116.69L158.59,117.26L157.26,117.57L156.01,117.60L154.87,117.36L154.40,117.12"/><path d="M160.61,115.33L159.28,115.85L158.01,116.06L156.84,115.95L155.82,115.54L155.16,115.16L154.88,114.92"/><path d="M155.01,113.37L154.59,112.32L154.37,111.09L154.37,109.71L154.57,108.23L154.99,106.67L155.58,105.16L156.35,103.65L157.27,102.24L158.31,100.96L159.43,99.84L160.61,98.93"/><path d="M154.69,112.58L155.66,111.37L155.31,110.35L155.23,109.47L155.19,109.15L155.31,107.80L155.65,106.38L156.21,104.95L156.95,103.57L157.85,102.29L158.87,101.19L159.96,100.30L159.96,99.44"/><path d="M156.29,114.74L155.53,114.12L156.84,112.49"/><path d="M165.93,107.58L165.32,108.78L164.41,110.20L163.38,111.49L162.26,112.62L161.08,113.54L159.88,114.23L158.71,114.67L157.58,114.84L156.55,114.74L156.03,114.52"/><path d="M166.74,107.65L165.43,107.53L164.69,108.92L163.79,110.19L162.78,111.31L161.69,112.20L160.58,112.85L159.49,113.21L158.48,113.27L157.58,113.02L156.93,112.65L156.79,112.55"/><path d="M158.05,112.23L157.41,111.79L158.72,110.15L159.26,110.43L159.90,110.49L160.61,110.32"/><path d="M156.88,111.04L156.60,110.16L156.50,109.13L156.60,107.98L156.88,106.77L158.20,106.88"/><path d="M157.49,106.82L157.37,107.44L157.37,108.30L157.54,109.03L156.61,110.20"/><path d="M157.41,105.42L158.05,104.24L158.82,103.15L159.68,102.20L160.61,101.43"/><path d="M159.96,110.48L159.96,111.69L159.03,112.00L158.16,112.05L157.56,111.89"/><path d="M157.57,105.12L158.07,105.16L158.60,104.26L159.25,103.46L159.96,102.81L159.96,101.98"/><path d="M163.14,103.61L162.59,103.29L161.90,103.28L161.14,103.59L160.37,104.17L159.68,104.97L159.13,105.93L158.78,106.93L158.65,107.88L158.78,108.70L159.13,109.29L159.59,109.56"/><path d="M162.53,103.29L162.84,103.83L162.96,104.64L162.84,105.60L162.49,106.60L162.02,107.41L161.94,107.55L161.25,108.36L160.48,108.94L159.72,109.24L159.09,109.23"/><path d="M161.66,116.46L161.66,114.72L162.99,113.71L163.02,113.68L164.26,112.45L165.43,111.00L166.45,109.40L167.31,107.70L168.61,107.81"/><path d="M167.81,107.74L167.11,109.19L166.10,110.87L164.96,112.44L163.71,113.85L162.38,115.07L161.66,115.60"/><path d="M164.86,107.48L163.55,107.36L163.01,108.26L162.37,109.06L161.66,109.72L161.66,111.47"/><path d="M161.66,110.55L161.93,110.32L162.80,109.37L163.57,108.28L164.05,107.41"/><path d="M161.66,102.05L161.72,102.03L162.36,102.09L162.90,102.37L164.21,100.74L164.05,100.63"/><path d="M161.66,102.58L161.66,100.83L162.59,100.53L163.29,100.49L163.45,100.48L164.22,100.67"/><path d="M161.66,100.07L161.66,98.33L162.84,97.88L163.97,97.69L165.00,97.77L165.92,98.13"/><path d="M165.96,106.18L166.30,104.76L166.42,103.42L166.31,102.20L165.97,101.18L165.41,100.39L164.67,99.86L164.01,99.49L163.11,99.26L162.09,99.33L161.66,99.47"/><path d="M161.66,97.57L161.66,95.84L163.03,95.26L164.36,94.95L165.61,94.92L166.75,95.17L167.76,95.68"/><path d="M167.31,98.08L166.45,97.36L165.80,96.99L164.77,96.57L163.61,96.47L162.34,96.68L161.66,96.94"/><path d="M164.07,106.02L164.25,105.08L164.25,104.23L164.07,103.49L165.39,101.86"/><path d="M164.13,105.70L164.73,105.76L165.02,104.54L165.12,103.40L165.02,102.36L165.01,102.33"/><path d="M166.03,105.87L166.61,105.92L167.03,104.39L167.24,102.90L167.25,101.52L167.05,100.28L166.64,99.21L166.04,98.36L165.58,97.99"/><path d="M166.73,97.60L167.96,96.08L167.21,95.40"/><path d="M167.83,106.35L168.31,104.62L168.55,102.95L168.55,101.39L168.31,100.00L167.83,98.82L169.13,97.20"/><path d="M167.91,106.04L168.48,106.09L169.00,104.31L169.32,102.57L169.43,100.91L169.32,99.38L169.00,98.00L168.82,97.59"/></g></g><g id="Actor_.4"><g style="stroke:#000000;stroke-width:0.353"><path d="M133.12,86.28L134.43,87.03L134.43,102.05"/><path d="M134.43,120.51L134.43,114.79"/><path d="M134.43,87.03L200.90,48.65"/></g><g style="stroke:#000000;stroke-width:0.705"><path d="M135.17,120.09L134.43,120.51L133.12,119.76L133.12,86.28L199.60,47.90L200.90,48.65L200.90,48.81"/><path d="M137.54,87.18L137.13,87.29L136.52,87.70L135.97,88.29L135.53,89.02L135.24,89.80L135.15,90.54L135.24,91.15"/><path d="M135.34,90.98L135.22,91.03"/><path d="M137.46,87.31L137.42,87.21"/></g></g><g id="Actor_.5"><g style="stroke:#000000;stroke-width:0.353"><path d="M197.02,93.37L196.29,92.77L195.66,92.04L195.13,91.18L194.84,90.48L194.72,90.19L194.42,89.09L194.24,87.90L194.18,86.62L194.24,85.27L194.42,83.87L194.72,82.42L195.13,80.96L195.66,79.49L196.29,78.02L197.04,76.56L197.84,75.20L198.73,73.87L199.70,72.62L200.72,71.45L201.80,70.38L202.90,69.43L204.03,68.60L205.17,67.91L206.31,67.36L207.43,66.96L208.52,66.71L208.80,66.68L209.57,66.61L210.57,66.67L211.50,66.89L212.36,67.26"/><path d="M196.38,90.90L195.99,89.97L195.71,88.94L195.54,87.82L195.48,86.62L195.54,85.35L195.71,84.03L195.99,82.68L196.38,81.30L196.88,79.92L197.47,78.55L198.15,77.20L198.92,75.90L199.76,74.65L200.47,73.72L200.67,73.47L201.63,72.37L202.64,71.37L203.68,70.48L204.74,69.70L205.81,69.05L206.88,68.53L207.93,68.16L208.95,67.92L209.94,67.83L210.87,67.89L211.75,68.09L212.56,68.44L213.28,68.93L213.92,69.56L214.46,70.31L214.91,71.18L215.24,72.16L215.47,73.23L215.58,74.40L215.58,75.63L215.47,76.93L215.24,78.27L214.91,79.63L214.46,81.02L213.92,82.39L213.28,83.76L212.56,85.08L211.75,86.36L210.87,87.58L209.94,88.72L208.95,89.77L207.93,90.72L206.88,91.55L205.81,92.27L204.74,92.85L203.68,93.30L202.64,93.61L201.63,93.77L200.67,93.78L199.76,93.65L198.92,93.38L198.15,92.96L197.47,92.40L196.88,91.71L196.38,90.90"/><path d="M197.54,90.06L198.85,88.44L198.37,87.26L198.13,85.87L198.13,84.32L198.36,82.74L198.37,82.64L198.85,80.91"/><path d="M198.85,88.44L198.20,88.07"/><path d="M198.07,79.45L199.37,79.57L200.22,77.87L201.25,76.27L202.42,74.81L203.69,73.56L205.02,72.54L204.36,72.16"/><path d="M198.72,79.19L199.37,79.57"/><path d="M204.36,91.05L205.02,91.43L203.65,92.00L202.32,92.31L201.07,92.34L199.92,92.10L198.92,91.58"/><path d="M200.22,89.90L199.37,89.19"/><path d="M199.42,87.74L200.72,86.11L200.07,85.74"/><path d="M200.70,89.11L201.61,89.48L202.64,89.58L203.76,89.41L204.94,88.97L206.14,88.28L207.32,87.36L208.44,86.23L209.47,84.94L210.38,83.52L211.14,82.01"/><path d="M200.72,86.11L200.37,85.09L200.25,83.89L200.36,82.54L200.71,81.12L201.26,79.69L202.01,78.31L202.91,77.03L203.90,75.96L203.93,75.93L205.02,75.04L205.02,73.30"/><path d="M201.98,87.39L201.24,86.86"/><path d="M201.29,85.41L202.60,83.77L202.43,83.04L202.43,82.18L202.60,81.25"/><path d="M201.95,83.39L202.60,83.77"/><path d="M201.81,79.78L203.13,79.90L203.66,79.00L204.31,78.20L205.02,77.55L204.36,77.17"/><path d="M202.45,86.59L203.22,86.79L203.39,86.78L204.09,86.74L205.02,86.43L204.36,86.06"/><path d="M203.13,79.90L202.47,79.52"/><path d="M207.08,77.70L207.55,77.97L207.90,78.57L208.02,79.38L207.90,80.34L207.55,81.34L207.00,82.29L206.31,83.10L205.54,83.68L204.77,83.98L204.08,83.97L203.53,83.66"/><path d="M205.02,91.43L205.02,89.69"/><path d="M205.02,86.43L205.02,84.68"/><path d="M205.02,77.55L205.02,75.80"/><path d="M205.02,75.04L204.36,74.66"/><path d="M205.02,72.54L205.02,70.80"/><path d="M206.06,90.82L207.44,89.81L208.76,88.59L210.01,87.18L211.16,85.61L212.16,83.93L213.01,82.18"/><path d="M206.06,85.83L206.99,85.06L207.86,84.11L208.63,83.02L209.27,81.84"/><path d="M206.06,76.94L206.78,76.77L207.42,76.83L207.96,77.11L209.27,75.48L208.63,75.04"/><path d="M206.06,74.43L207.15,74.07L207.68,74.03L208.17,74.00L209.07,74.23"/><path d="M206.06,71.94L207.39,71.42L208.66,71.21L209.83,71.31L210.86,71.73"/><path d="M207.30,76.74L207.96,77.11"/><path d="M209.79,76.22L210.08,77.10L210.18,78.14L210.08,79.28L209.79,80.50L208.48,80.38"/><path d="M208.62,75.10L209.27,75.48"/><path d="M209.79,80.50L209.14,80.12"/><path d="M210.36,80.55L211.67,80.66L212.09,79.13L212.30,77.64L212.31,76.26L212.11,75.01L211.70,73.95L211.10,73.10L210.33,72.49"/><path d="M211.01,80.29L211.67,80.66"/><path d="M211.71,72.44L213.01,70.82L212.16,70.05"/><path d="M212.23,80.71L213.54,80.83L212.88,80.45"/><path d="M212.36,70.44L213.01,70.82"/><path d="M213.54,80.83L214.06,79.05L214.38,77.31L214.49,75.65L214.38,74.12L214.25,73.56L214.06,72.74L213.54,71.56"/></g><g style="stroke:#000000;stroke-width:0.705"><path d="M215.84,75.36L215.84,74.84L215.84,75.36L215.72,76.71L215.49,78.10L215.14,79.52L214.68,80.95L214.12,82.38L213.45,83.80L212.70,85.17L211.86,86.50L210.95,87.76L209.98,88.95L208.96,90.04L207.89,91.02L206.80,91.89L205.69,92.63L205.55,92.71L204.43,93.33L203.31,93.80L202.22,94.12L201.16,94.29L200.94,94.31L199.92,94.33L198.95,94.19L197.84,93.81L197.02,93.37L194.41,91.86"/><path d="M198.85,80.91L197.54,80.80L197.02,82.58L196.70,84.32L196.59,85.98L196.70,87.51L197.02,88.88L197.54,90.06"/><path d="M198.11,80.85L197.72,82.27L197.47,83.94L197.47,85.50L197.72,86.89L198.20,88.07L197.20,89.30"/><path d="M198.92,91.58L198.07,90.81L199.37,89.19"/><path d="M198.07,79.45L198.92,77.69L199.92,76.01L201.07,74.45L202.32,73.04L203.65,71.81L205.02,70.80"/><path d="M204.36,71.28L204.36,72.16L203.03,73.18L201.76,74.44L200.60,75.89L199.57,77.49L198.72,79.19L198.22,79.14"/><path d="M204.36,89.94L204.36,91.05L202.99,91.63L201.66,91.93L200.41,91.97L199.27,91.72L198.81,91.48"/><path d="M205.02,89.69L203.69,90.21L202.42,90.42L201.25,90.32L200.22,89.90L199.57,89.52L199.29,89.29"/><path d="M205.02,73.30L203.84,74.21L202.71,75.32L201.67,76.60L200.75,78.02L199.98,79.52L199.38,81.06L199.04,82.34L198.98,82.60L198.77,84.07L198.78,85.45L199.00,86.69L199.42,87.74"/><path d="M199.10,86.94L200.07,85.74L199.72,84.72L199.62,83.78L199.60,83.51L199.71,82.17L200.05,80.75L200.61,79.31L201.36,77.93L202.26,76.66L203.28,75.55L204.36,74.66L204.36,73.80"/><path d="M200.70,89.11L199.94,88.48L201.24,86.86"/><path d="M210.34,81.94L209.73,83.14L208.82,84.56L207.79,85.85L206.66,86.98L205.49,87.90L204.29,88.59L203.11,89.03L201.99,89.20L200.96,89.10L200.43,88.89"/><path d="M202.60,81.25L201.29,81.13L201.00,82.34L200.90,83.49L201.00,84.53L201.29,85.41"/><path d="M211.14,82.01L209.84,81.89L209.10,83.28L208.20,84.56L207.18,85.67L206.10,86.57L204.98,87.21L203.90,87.57L202.88,87.63L201.98,87.39L201.33,87.01L201.20,86.91"/><path d="M205.02,84.68L204.31,84.85L203.66,84.80L203.13,84.51L201.81,86.15L202.45,86.59"/><path d="M204.36,84.84L204.36,86.06L203.44,86.36L202.57,86.41L201.97,86.26"/><path d="M201.01,84.56L201.95,83.39L201.78,82.66L201.78,81.80L201.89,81.18"/><path d="M205.02,75.80L204.09,76.57L203.22,77.52L202.45,78.60L201.81,79.78"/><path d="M204.36,76.34L204.36,77.17L203.65,77.82L203.01,78.62L202.47,79.52L201.98,79.48"/><path d="M203.53,83.66L203.18,83.06L203.06,82.25L203.18,81.29L203.53,80.29L204.08,79.34L204.77,78.53L205.54,77.95L206.31,77.65L207.00,77.65L207.08,77.70"/><path d="M206.93,77.65L207.25,78.19L207.37,79.00L207.25,79.96L206.90,80.96L206.35,81.91L205.65,82.72L204.89,83.30L204.12,83.60L203.50,83.60"/><path d="M206.06,90.82L206.06,89.09L207.39,88.07L208.66,86.81L209.83,85.36L210.86,83.76L211.71,82.06L213.01,82.18"/><path d="M206.06,89.97L206.78,89.44L208.11,88.21L209.36,86.80L210.50,85.24L211.51,83.56L212.21,82.11"/><path d="M209.27,81.84L207.96,81.73L207.42,82.63L206.78,83.43L206.06,84.08L206.06,85.83"/><path d="M208.45,81.77L207.98,82.65L207.21,83.73L206.34,84.68L206.06,84.91"/><path d="M206.06,76.94L206.06,75.19L206.99,74.89L207.86,74.84L208.63,75.04"/><path d="M208.46,74.99L208.62,75.10L207.30,76.74L206.77,76.45L206.12,76.40L206.06,76.41"/><path d="M210.33,72.49L209.41,72.13L208.37,72.05L207.24,72.24L206.06,72.69L206.06,74.43"/><path d="M210.36,80.55L210.71,79.13L210.83,77.78L210.72,76.57L210.37,75.54L209.82,74.75L209.07,74.23L208.42,73.85L207.52,73.62L206.50,73.69L206.06,73.84"/><path d="M206.06,71.94L206.06,70.20L207.44,69.62L208.76,69.32L210.01,69.28L211.16,69.53L212.16,70.05"/><path d="M206.06,71.31L206.74,71.04L208.01,70.83L209.18,70.93L210.20,71.35L210.86,71.73L211.71,72.44"/><path d="M209.79,76.22L208.48,77.86L208.65,78.59L208.65,79.45L208.48,80.38"/><path d="M208.54,80.07L209.14,80.12L209.43,78.91L209.52,77.76L209.43,76.72L209.42,76.69"/><path d="M215.84,73.93L215.84,74.84L215.84,73.90L215.72,72.68L215.48,71.55L215.13,70.52L215.03,70.32L214.56,69.40L213.99,68.60L213.31,67.94L213.13,67.78L212.36,67.26L209.39,65.55"/><path d="M209.98,72.36L210.45,72.72L211.05,73.57L211.45,74.64L211.66,75.88L211.65,77.27L211.43,78.75L211.01,80.29L210.44,80.24"/><path d="M211.62,69.77L212.36,70.44L211.14,71.96"/><path d="M212.23,80.71L212.71,78.98L212.95,77.31L212.95,75.75L212.73,74.44L212.71,74.36L212.23,73.18L213.54,71.56"/><path d="M212.32,80.40L212.88,80.45L213.41,78.67L213.73,76.93L213.83,75.27L213.73,73.74L213.41,72.36L213.22,71.95"/></g></g><g id="Actor_.6"><g style="stroke:#000000;stroke-width:0.353"><path d="M135.17,116.69L134.76,115.43L134.45,113.99L134.26,112.45L134.19,110.83L134.24,109.14L134.41,107.38L134.71,105.58L135.12,103.75L135.17,103.59"/><path d="M166.68,92.18L166.20,91.72L165.58,91.27L164.90,90.92L164.17,90.67L163.47,90.54L163.40,90.52L162.58,90.48L161.73,90.53L160.85,90.69L159.94,90.95L159.02,91.30L158.09,91.75L157.16,92.30L156.23,92.94L155.31,93.66L154.41,94.45L153.53,95.33L152.68,96.27L151.87,97.27L151.10,98.32L150.38,99.42L149.71,100.56L149.10,101.72L148.55,102.91L148.50,103.03L148.06,104.11L147.65,105.32L147.31,106.52L147.04,107.70L146.85,108.87L146.74,110.00L146.70,111.10L146.75,112.15L146.87,113.14L147.07,114.08L147.35,114.95L147.71,115.74L148.13,116.45L148.63,117.08L149.19,117.62L149.81,118.07L150.49,118.41L151.22,118.66L151.99,118.81L152.29,118.83"/><path d="M147.55,124.24L147.61,124.23"/></g><g style="stroke:#000000;stroke-width:0.705"><path d="M135.17,99.57L134.92,100.27L134.46,101.90L134.10,103.51L133.84,105.09L133.76,105.65L133.60,107.25L133.55,108.80L133.61,110.29L133.68,111.03L133.86,112.49L134.16,113.86L134.39,114.67L134.81,115.98L135.17,116.78"/><path d="M158.91,119.42L157.92,120.20L156.60,121.10L155.28,121.87L153.97,122.51L153.27,122.83L151.92,123.35L150.60,123.73L149.77,123.94L148.44,124.18L146.23,124.33L144.97,124.25L143.77,124.02L142.64,123.64L141.60,123.10L140.64,122.41L139.77,121.58L139.01,120.61L138.35,119.50L137.81,118.28L137.37,116.94L137.06,115.50L136.87,113.96L136.80,112.34L136.86,110.59L137.02,108.89L137.32,107.09L137.73,105.26L138.26,103.41L138.90,101.55L139.65,99.69L140.50,97.86L141.44,96.05L142.48,94.30L143.59,92.60L144.78,90.97L146.03,89.43L147.34,87.98L148.70,86.63L150.09,85.40L151.51,84.29L152.95,83.30L154.39,82.46L155.82,81.76L157.25,81.21L158.64,80.81L160.00,80.57L161.32,80.49L162.58,80.56L163.78,80.79L164.91,81.18L165.96,81.72L166.92,82.41L167.78,83.24L168.54,84.21L169.20,85.31L169.60,86.13L170.13,87.33L170.55,88.63L170.78,89.44L171.08,90.81L171.26,92.27L171.33,93.02L171.39,94.50L171.34,96.05L171.19,97.65"/></g></g><g id="Actor_.7"><g style="stroke:#000000;stroke-width:0.353"><path d="M192.61,98.23L192.66,98.22"/><path d="M212.68,67.48L212.32,66.87L211.82,66.24L211.26,65.70L210.64,65.26L209.96,64.91L209.23,64.66L208.46,64.51L207.64,64.46L206.79,64.52L205.90,64.67L205.00,64.93L204.08,65.29L203.15,65.74L202.21,66.29L201.29,66.92L200.37,67.64L199.47,68.44L198.59,69.31L197.74,70.25L196.93,71.25L196.16,72.31L196.03,72.50"/><path d="M210.02,65.79L210.85,66.39"/></g><g style="stroke:#000000;stroke-width:0.705"><path d="M203.64,93.66L202.97,94.18L201.66,95.08L200.34,95.85L199.02,96.49L198.33,96.82L196.98,97.34L195.66,97.72L194.83,97.93L193.50,98.16L191.29,98.31L190.03,98.24L188.83,98.01L187.70,97.62L186.65,97.08L185.69,96.39L184.83,95.56L184.07,94.59L183.41,93.49L182.86,92.26L182.43,90.93L182.12,89.48L181.93,87.94L181.86,86.32L181.91,84.63L182.08,82.88L182.38,81.08L182.79,79.25L183.32,77.39L183.96,75.53L184.71,73.68L185.56,71.84L186.50,70.04L187.53,68.28L188.65,66.59L189.84,64.96L191.09,63.41L192.40,61.96L193.76,60.62L195.15,59.38L196.57,58.27L198.00,57.29L199.44,56.45L200.88,55.75L202.30,55.20L203.70,54.80L205.06,54.56L206.38,54.47L207.64,54.55L208.84,54.78L209.97,55.16L211.02,55.70L211.98,56.39L212.84,57.22L213.60,58.19L214.26,59.29L214.66,60.12L215.19,61.31L215.61,62.62L215.84,63.43L216.14,64.80L216.32,66.26L216.39,67.00L216.45,68.49L216.40,70.04L216.24,71.64L216.16,72.20L215.90,73.78L215.84,74.05"/><path d="M210.02,65.79L208.79,65.32L208.45,65.28"/></g></g><g id="Actor_.8"><g style="stroke:#000000;stroke-width:0.353"><path d="M114.27,121.45L114.27,118.43"/><path d="M114.27,119.94L136.47,132.76L214.83,87.51"/><path d="M124.45,119.12L124.75,118.48L125.37,117.91L126.25,117.48L127.31,117.21L128.45,117.13L129.59,117.26L130.61,117.57L131.43,118.04L131.97,118.63L132.19,119.29"/><path d="M132.89,115.25L132.93,114.69L133.12,114.40"/><path d="M135.17,133.51L135.17,132.00"/><path d="M135.17,91.28L136.47,92.04L136.47,132.76L136.41,133.19L136.22,133.50"/><path d="M136.47,92.04L140.39,85.25L210.92,44.53"/><path d="M139.33,91.51L139.71,91.63L140.15,91.55L140.63,91.28L141.07,90.84L141.45,90.29L141.71,89.68L141.82,89.09L141.78,88.57L141.59,88.17L141.27,87.96"/><path d="M139.08,84.50L140.39,85.25"/><path d="M211.80,47.24L212.12,47.46L212.14,47.51L212.31,47.85L212.35,48.37L212.23,48.96L211.97,49.57L211.60,50.12L211.15,50.56L210.68,50.83L210.23,50.91L209.86,50.79"/></g><g style="stroke:#000000;stroke-width:0.705"><path d="M214.83,80.47L214.83,87.51L214.77,87.94L214.58,88.26L135.93,133.67L135.57,133.67L135.17,133.51L114.27,121.45L114.27,118.43L133.12,107.55"/><path d="M132.19,119.29L132.06,119.95L131.59,120.56L130.84,121.07L129.86,121.43L128.74,121.60L127.59,121.57L126.50,121.35L125.57,120.96L124.88,120.42L124.50,119.79L124.45,119.12"/><path d="M131.94,120.11L131.43,119.55L130.61,119.08L129.59,118.77L128.45,118.64L127.31,118.72L126.25,118.98L125.37,119.42L124.75,119.99L124.69,120.11"/><path d="M132.89,115.25L133.12,115.70"/><path d="M135.17,132.00L135.17,91.28L139.08,84.50L209.61,43.78L211.03,44.60L209.91,43.95"/><path d="M141.27,87.96L140.86,87.94L140.39,88.12L139.92,88.48L139.51,88.98L139.19,89.56L139.00,90.17L138.96,90.74L139.07,91.20L139.33,91.51"/><path d="M140.50,88.08L140.52,88.33L140.40,88.93L140.14,89.54L139.77,90.09L139.32,90.52L139.08,90.68L138.96,90.74"/><path d="M209.86,50.79L209.60,50.48L209.48,50.02L209.52,49.45L209.71,48.85L210.03,48.26L210.45,47.76L210.92,47.40L211.02,47.36L211.04,47.61L210.93,48.21L210.67,48.82L210.29,49.37L209.85,49.80L209.48,50.02"/><path d="M211.02,47.36L211.38,47.22L211.80,47.24"/><path d="M213.26,45.89L214.38,46.53L210.96,44.56"/><path d="M214.38,46.53L214.83,46.80L214.83,60.51"/></g></g><g><g/></g><g/><g id="paperID" visibility="hidden" opacity="0.00" transform="scale(0.000100)"><path style="stroke:#000000;stroke-width:0.500;fill:#e6e6e6;fill-rule:evenodd" d="M-2000.00,-2000.00L2297.00,-2000.00L2297.00,2210.00L-2000.00,2210.00zM0.00,0.00L297.00,0.00L297.00,210.00L0.00,210.00z"/><path style="fill:#000000;fill-opacity:0.118" d="M3.00,210.00L297.00,210.00L297.00,3.00L300.00,3.00L300.00,213.00L3.00,213.00z"/></g><g id="ToolTip" visibility="hidden" opacity="0" transform="translate(0,0)"><rect id="ToolTipShadow" opacity="0.20" fill="black" stroke="none" x="0" y="0" width="30" height="8"/><rect id="ToolTipBG" fill="#ffffe1" stroke="black" x="0" y="0" width="30" height="8"/><text xml:space="preserve" id="ToolTipText" fill="black" x="0" y="0" width="30" height="8">tooltip</text></g></g></svg>
