<?xml version="1.0" encoding="utf-8"?>
<!-- Generator: Adobe Illustrator 22.0.0, SVG Export Plug-In . SVG Version: 6.00 Build 0)  -->
<svg version="1.1" id="图层_1" xmlns="http://www.w3.org/2000/svg" xmlns:xlink="http://www.w3.org/1999/xlink" x="0px" y="0px"
	 viewBox="0 0 118.7 88.7" style="enable-background:new 0 0 118.7 88.7;" xml:space="preserve">
<style type="text/css">
	.st0{fill:none;stroke:#000000;stroke-width:0.75;stroke-miterlimit:10;}
	.st1{fill:none;stroke:#BE4341;stroke-width:0.75;stroke-miterlimit:10;}
	.st2{fill:#5195CC;}
	.st3{fill:#323333;}
	.st4{fill:#F8D17B;}
	.st5{fill:#CBCBCC;}
	.st6{fill:#5E5B5A;}
	.st7{fill:#757575;}
	.st8{fill:#DBBF82;}
	.st9{fill:#595959;}
	.st10{fill:#B9BABA;}
	.st11{fill:#615F5F;}
	.st12{fill:#CCCCCC;}
	.st13{fill:#8D8D8E;}
	.st14{fill:#D3D4D4;}
	.st15{fill:#8B8B8B;}
	.st16{fill:#AAABAB;}
	.st17{fill:#FFFFFF;}
	.st18{fill:#D5D5D6;}
	.st19{fill:#969797;}
	.st20{fill:none;stroke:#FFFFFF;stroke-width:0.9628;stroke-linecap:round;stroke-miterlimit:10;}
	.st21{fill:none;stroke:#FFFFFF;stroke-width:0.9628;stroke-linecap:round;stroke-linejoin:round;stroke-miterlimit:10;}
	.st22{fill:none;stroke:#FFFFFF;stroke-width:0.4525;stroke-linecap:round;stroke-miterlimit:10;}
	.st23{fill:#747374;}
	.st24{fill:#0099D9;}
	.st25{font-family:'MicrosoftYaHei-Bold';}
	.st26{font-size:4.2704px;}
	.st27{letter-spacing:-1;}
	.st28{fill:none;stroke:#000000;stroke-width:0.9117;stroke-miterlimit:10;}
	.st29{fill:#868687;}
	.st30{fill:#EFEFEF;}
	.st31{fill:#6EC9F1;}
	.st32{fill:#949494;}
	.st33{fill:#494645;}
	.st34{fill:#B1A186;}
	.st35{fill:#9C9C9C;}
	.st36{fill:#575757;}
	.st37{fill:#545454;}
	.st38{fill:#D1D1D1;}
	.st39{fill:#C9C9C9;}
	.st40{fill:#474747;}
	.st41{fill:#969696;}
	.st42{fill:none;}
	.st43{font-family:'MicrosoftYaHei';}
	.st44{font-size:9.1169px;}
	.st45{fill:#C4C4C4;}
	.st46{fill:none;stroke:#FFFFFF;stroke-width:0.2279;stroke-miterlimit:10;}
	.st47{fill:#807F80;}
	.st48{fill:#A2A2A2;}
	.st49{fill:#CBCCCC;}
	.st50{fill:none;stroke:#FFFFFF;stroke-width:0.4558;stroke-linecap:round;stroke-linejoin:round;stroke-miterlimit:10;}
	.st51{fill:#8C8A8A;}
	.st52{fill:#040000;}
	.st53{fill:#A9A9A8;}
	.st54{fill:#525151;}
	.st55{fill:#8C8C8C;}
	.st56{fill:none;stroke:#FFFFFF;stroke-width:0.3183;stroke-linecap:round;stroke-linejoin:round;stroke-miterlimit:10;}
	.st57{fill:#CECFCE;}
	.st58{fill:#282828;}
	.st59{fill:#557D4E;}
	.st60{fill:#83B27A;}
	.st61{fill:#ABA8A8;}
	.st62{fill:#757373;}
	.st63{fill:#898989;}
	.st64{fill:#A6D290;}
	.st65{fill:#666666;}
	.st66{fill:#C7C7C7;}
	.st67{fill:#EC6C6D;}
	.st68{fill:#1D1E1E;}
	.st69{fill:#E1E0E0;}
	.st70{fill:#BDBDBC;}
	.st71{fill:#686969;}
	.st72{fill:#B8B32E;}
	.st73{fill:#F3EC30;}
	.st74{fill:#FBFDFF;}
	.st75{fill:none;stroke:#F08318;stroke-width:10.9277;stroke-linecap:round;stroke-linejoin:round;stroke-miterlimit:10;}
	.st76{fill:#EBEBEC;}
	.st77{fill:#D7D7D8;}
	.st78{fill:#E9EAEA;}
	.st79{fill:#E7B47C;}
	.st80{fill:#E8E8E8;}
	.st81{fill:#003F88;}
	.st82{fill:#0054A7;}
	.st83{fill:#B7B8B8;}
	.st84{fill:#EED18B;}
	.st85{fill:#F5A200;}
	.st86{fill:#E0E0E0;}
	.st87{fill:none;stroke:#040000;stroke-miterlimit:10;}
	.st88{fill:none;stroke:#E72823;stroke-miterlimit:10;}
	.st89{fill:none;stroke:#6AB82D;stroke-miterlimit:10;}
	.st90{fill:#C4C6C6;}
	.st91{fill:#A0A0A1;}
	.st92{fill:#F2F2F2;}
	.st93{fill:#CFCFCF;}
	.st94{fill:none;stroke:#353535;stroke-width:0.146;stroke-miterlimit:10;}
	.st95{fill:none;stroke:#353535;stroke-width:6.315500e-02;stroke-miterlimit:10;}
	.st96{fill:none;stroke:#353535;stroke-width:5.568400e-02;stroke-miterlimit:10;}
	.st97{fill:#353535;}
	.st98{fill:none;stroke:#000000;stroke-width:7.298800e-02;stroke-miterlimit:10;}
	.st99{fill:#3E3F40;}
	.st100{fill:#FBD7AF;}
</style>
<rect x="2" y="72.7" class="st2" width="114.4" height="14.9"/>
<g>
	<path class="st3" d="M32.2,58.4h54c2.8,0,5.1-2.3,5.1-5.1V15.4c0-2.8-2.3-5.1-5.1-5.1h-54c-2.8,0-5.1,2.3-5.1,5.1v37.9
		C27.1,56.1,29.4,58.4,32.2,58.4z M30.9,50.6c0-2,1.6-3.6,3.6-3.6c2,0,3.6,1.6,3.6,3.6c0,2-1.6,3.6-3.6,3.6
		C32.5,54.2,30.9,52.6,30.9,50.6z M38.1,18.1c0,2-1.6,3.6-3.6,3.6c-2,0-3.6-1.6-3.6-3.6c0-2,1.6-3.6,3.6-3.6
		C36.5,14.5,38.1,16.1,38.1,18.1z"/>
	<g>
		<rect x="79.3" y="22.6" class="st18" width="12" height="23.4"/>
		<rect x="73.7" y="22.6" class="st18" width="17.7" height="2.7"/>
		<rect x="70.9" y="29.4" class="st10" width="8.3" height="1.1"/>
		<rect x="79.3" y="27.7" class="st19" width="8.9" height="2.2"/>
		<rect x="79.3" y="38.7" class="st19" width="8.9" height="2.2"/>
		<rect x="70.9" y="33.8" class="st10" width="8.3" height="1.1"/>
		<rect x="70.9" y="38.2" class="st10" width="8.3" height="1.1"/>
		<rect x="73.7" y="43.3" class="st18" width="17.7" height="2.7"/>
	</g>
	<rect x="81.4" y="47.6" class="st17" width="6.2" height="6.9"/>
	<g>
		<path d="M86.3,49.1V50l-0.8,0.3v1.3l0.8,0.3v0.8l-3.5-1.3v-0.9L86.3,49.1z M84.9,50.4l-1.2,0.4c-0.1,0-0.2,0-0.3,0.1v0
			c0.1,0,0.2,0,0.3,0.1l1.2,0.4V50.4z"/>
	</g>
	<g>
		<path class="st20" d="M88.4,18.1c-0.6,0.9-1.6,1.4-2.7,1.4c-1.9,0-3.4-1.5-3.4-3.4c0-1.1,0.5-2.1,1.4-2.7"/>
		<path class="st20" d="M88.8,15.2c0.1,0.3,0.1,0.6,0.1,1c0,0.3,0,0.5-0.1,0.8"/>
		<path class="st20" d="M86.6,13c0.7,0.2,1.3,0.6,1.7,1.2"/>
	</g>
	<polyline class="st21" points="83.8,15.5 83.7,13.4 81.5,13.8 	"/>
	
		<rect x="42.6" y="20.6" transform="matrix(-1 -1.224647e-16 1.224647e-16 -1 112.7471 68.7096)" class="st22" width="27.5" height="27.5"/>
	<circle cx="56.4" cy="34.4" r="16"/>
	<circle class="st23" cx="56.4" cy="34.4" r="13.7"/>
	
		<ellipse transform="matrix(0.7071 -0.7071 0.7071 0.7071 -7.7811 49.9244)" class="st24" cx="56.4" cy="34.4" rx="12.4" ry="12.4"/>
	
		<rect x="40.4" y="32.7" transform="matrix(-1 -1.224647e-16 1.224647e-16 -1 90.6812 68.549)" class="st23" width="9.9" height="3.1"/>
	<path class="st4" d="M34.5,57.4c3.8,0,6.8-3.1,6.8-6.8c0-3.8-3.1-6.8-6.8-6.8c-3.8,0-6.8,3.1-6.8,6.8
		C27.7,54.4,30.7,57.4,34.5,57.4z M33.5,55.9c-0.3,0.3-0.9,0.3-1.2,0c-0.3-0.3-0.3-0.9,0-1.2c0.3-0.3,0.9-0.3,1.2,0
		C33.9,55,33.9,55.5,33.5,55.9z M36.7,55.9c-0.5,0-0.9-0.4-0.9-0.9c0-0.5,0.4-0.9,0.9-0.9c0.5,0,0.9,0.4,0.9,0.9
		C37.6,55.5,37.2,55.9,36.7,55.9z M39.8,52.8c-0.3,0.3-0.9,0.3-1.2,0c-0.3-0.3-0.3-0.9,0-1.2c0.3-0.3,0.9-0.3,1.2,0
		C40.2,51.9,40.2,52.5,39.8,52.8z M39,47.5c0.5,0,0.9,0.4,0.9,0.9c0,0.5-0.4,0.9-0.9,0.9c-0.5,0-0.9-0.4-0.9-0.9
		C38.1,47.9,38.5,47.5,39,47.5z M35.5,45.3c0.3-0.3,0.9-0.3,1.2,0c0.3,0.3,0.3,0.9,0,1.2c-0.3,0.3-0.9,0.3-1.2,0
		C35.2,46.2,35.2,45.6,35.5,45.3z M32.3,45.2c0.5,0,0.9,0.4,0.9,0.9c0,0.5-0.4,0.9-0.9,0.9c-0.5,0-0.9-0.4-0.9-0.9
		C31.5,45.6,31.9,45.2,32.3,45.2z M34.5,47c2,0,3.6,1.6,3.6,3.6c0,2-1.6,3.6-3.6,3.6c-2,0-3.6-1.6-3.6-3.6
		C30.9,48.6,32.5,47,34.5,47z M30.1,53.6c-0.5,0-0.9-0.4-0.9-0.9c0-0.5,0.4-0.9,0.9-0.9c0.5,0,0.9,0.4,0.9,0.9
		C30.9,53.2,30.5,53.6,30.1,53.6z M30.4,48.3c0.3,0.3,0.3,0.9,0,1.2c-0.3,0.3-0.9,0.3-1.2,0c-0.3-0.3-0.3-0.9,0-1.2
		C29.5,48,30.1,48,30.4,48.3z"/>
	<path class="st4" d="M27.7,18.1c0,3.8,3.1,6.8,6.8,6.8c3.8,0,6.8-3.1,6.8-6.8c0-3.8-3.1-6.8-6.8-6.8C30.7,11.3,27.7,14.3,27.7,18.1
		z M33.5,14.1c-0.3,0.3-0.9,0.3-1.2,0c-0.3-0.3-0.3-0.9,0-1.2c0.3-0.3,0.9-0.3,1.2,0C33.9,13.2,33.9,13.7,33.5,14.1z M37.6,13.7
		c0,0.5-0.4,0.9-0.9,0.9c-0.5,0-0.9-0.4-0.9-0.9c0-0.5,0.4-0.9,0.9-0.9C37.2,12.8,37.6,13.2,37.6,13.7z M39.8,17.1
		c-0.3,0.3-0.9,0.3-1.2,0c-0.3-0.3-0.3-0.9,0-1.2c0.3-0.3,0.9-0.3,1.2,0C40.2,16.2,40.2,16.8,39.8,17.1z M38.1,20.3
		c0-0.5,0.4-0.9,0.9-0.9c0.5,0,0.9,0.4,0.9,0.9c0,0.5-0.4,0.9-0.9,0.9C38.5,21.2,38.1,20.8,38.1,20.3z M35.5,22.2
		c0.3-0.3,0.9-0.3,1.2,0c0.3,0.3,0.3,0.9,0,1.2c-0.3,0.3-0.9,0.3-1.2,0C35.2,23.1,35.2,22.5,35.5,22.2z M31.5,22.6
		c0-0.5,0.4-0.9,0.9-0.9c0.5,0,0.9,0.4,0.9,0.9c0,0.5-0.4,0.9-0.9,0.9C31.9,23.5,31.5,23.1,31.5,22.6z M30.9,18.1
		c0-2,1.6-3.6,3.6-3.6c2,0,3.6,1.6,3.6,3.6c0,2-1.6,3.6-3.6,3.6C32.5,21.7,30.9,20.1,30.9,18.1z M30.9,16c0,0.5-0.4,0.9-0.9,0.9
		c-0.5,0-0.9-0.4-0.9-0.9c0-0.5,0.4-0.9,0.9-0.9C30.5,15.1,30.9,15.5,30.9,16z M29.2,20.4c-0.3-0.3-0.3-0.9,0-1.2
		c0.3-0.3,0.9-0.3,1.2,0c0.3,0.3,0.3,0.9,0,1.2C30.1,20.7,29.5,20.7,29.2,20.4z"/>
	<g>
		<path class="st17" d="M46.4,55.3L46,54.5c-0.1-0.2-0.3-0.4-0.4-0.4h-0.2v1.2h-0.7v-3.1h1.1c0.4,0,0.6,0.1,0.8,0.2
			c0.2,0.1,0.3,0.4,0.3,0.6c0,0.2-0.1,0.4-0.2,0.5c-0.1,0.1-0.3,0.3-0.5,0.3v0c0.2,0.1,0.3,0.2,0.4,0.4l0.4,0.9H46.4z M45.4,52.8
			v0.9h0.3c0.2,0,0.3,0,0.4-0.1c0.1-0.1,0.1-0.2,0.1-0.3c0-0.3-0.2-0.4-0.5-0.4H45.4z"/>
		<path class="st17" d="M48.2,55.4c-0.4,0-0.7-0.1-0.9-0.3c-0.2-0.2-0.3-0.5-0.3-0.8c0-0.4,0.1-0.6,0.3-0.8c0.2-0.2,0.5-0.3,0.9-0.3
			c0.4,0,0.7,0.1,0.9,0.3c0.2,0.2,0.3,0.5,0.3,0.8c0,0.4-0.1,0.6-0.3,0.9C48.9,55.3,48.6,55.4,48.2,55.4z M48.2,53.6
			c-0.2,0-0.3,0.1-0.4,0.2c-0.1,0.1-0.2,0.3-0.2,0.5c0,0.2,0.1,0.4,0.2,0.5c0.1,0.1,0.3,0.2,0.4,0.2c0.4,0,0.6-0.2,0.6-0.6
			C48.8,53.8,48.6,53.6,48.2,53.6z"/>
		<path class="st17" d="M51,55.3c-0.1,0.1-0.3,0.1-0.5,0.1c-0.2,0-0.4-0.1-0.5-0.2c-0.1-0.1-0.2-0.3-0.2-0.5v-1h-0.4v-0.5h0.4v-0.5
			l0.6-0.2v0.6H51v0.5h-0.5v0.9c0,0.2,0.1,0.3,0.3,0.3c0.1,0,0.2,0,0.2-0.1V55.3z"/>
		<path class="st17" d="M52.5,55.3V55h0c-0.2,0.2-0.4,0.4-0.7,0.4c-0.2,0-0.4-0.1-0.5-0.2c-0.1-0.1-0.2-0.3-0.2-0.5
			c0-0.1,0-0.2,0-0.2c0-0.1,0.1-0.1,0.1-0.2c0-0.1,0.1-0.1,0.2-0.1c0.1,0,0.1-0.1,0.2-0.1c0.1,0,0.2-0.1,0.4-0.1l0.6-0.1
			c0-0.1,0-0.2-0.1-0.3c-0.1-0.1-0.2-0.1-0.3-0.1c-0.3,0-0.5,0.1-0.8,0.2v-0.5c0.3-0.1,0.6-0.2,0.9-0.2c0.3,0,0.6,0.1,0.7,0.2
			c0.2,0.1,0.2,0.4,0.2,0.7v1.3H52.5z M52.5,54.3c-0.4,0-0.6,0.1-0.7,0.1c-0.1,0-0.1,0.1-0.1,0.2c0,0.1,0,0.1,0.1,0.2
			c0.1,0,0.1,0.1,0.3,0.1c0.2,0,0.3,0,0.4-0.1c0.1-0.1,0.1-0.2,0.1-0.3V54.3z"/>
		<path class="st17" d="M54.9,55.3c-0.1,0.1-0.3,0.1-0.5,0.1c-0.2,0-0.4-0.1-0.5-0.2c-0.1-0.1-0.2-0.3-0.2-0.5v-1h-0.4v-0.5h0.4
			v-0.5l0.6-0.2v0.6h0.5v0.5h-0.5v0.9c0,0.2,0.1,0.3,0.3,0.3c0.1,0,0.2,0,0.2-0.1V55.3z"/>
		<path class="st17" d="M56.4,54.9H57v0.5h-1.7v-0.5h0.5v-1.2h-0.5v-0.5h1.2V54.9z M56.1,52.8c-0.1,0-0.2,0-0.3-0.1
			c-0.1-0.1-0.1-0.1-0.1-0.2c0-0.1,0-0.2,0.1-0.2c0.1-0.1,0.2-0.1,0.3-0.1c0.1,0,0.2,0,0.3,0.1c0.1,0.1,0.1,0.1,0.1,0.2
			c0,0.1,0,0.2-0.1,0.2C56.3,52.8,56.2,52.8,56.1,52.8z"/>
		<path class="st17" d="M58.1,55.4c-0.4,0-0.7-0.1-0.9-0.3c-0.2-0.2-0.3-0.5-0.3-0.8c0-0.4,0.1-0.6,0.3-0.8c0.2-0.2,0.5-0.3,0.9-0.3
			c0.4,0,0.7,0.1,0.9,0.3c0.2,0.2,0.3,0.5,0.3,0.8c0,0.4-0.1,0.6-0.3,0.9C58.8,55.3,58.5,55.4,58.1,55.4z M58.1,53.6
			c-0.2,0-0.3,0.1-0.4,0.2c-0.1,0.1-0.2,0.3-0.2,0.5c0,0.2,0.1,0.4,0.2,0.5c0.1,0.1,0.3,0.2,0.4,0.2c0.4,0,0.6-0.2,0.6-0.6
			C58.7,53.8,58.5,53.6,58.1,53.6z"/>
		<path class="st17" d="M61,55.3v-1.2c0-0.3-0.1-0.5-0.4-0.5c-0.1,0-0.2,0-0.3,0.1c-0.1,0.1-0.1,0.1-0.1,0.2c0,0-0.1,0-0.1,0
			s0,0.1,0,0.1v1.3h-0.6v-2.2h0.6v0.4h0c0.2-0.3,0.4-0.4,0.8-0.4c0.5,0,0.8,0.3,0.8,0.9v1.3H61z"/>
		<path class="st17" d="M62.5,55.2v-0.7c0.3,0.2,0.5,0.3,0.8,0.3c0.2,0,0.3,0,0.4-0.1c0.1-0.1,0.1-0.1,0.1-0.2c0-0.1,0-0.2-0.1-0.2
			c-0.1-0.1-0.2-0.2-0.5-0.3c-0.5-0.2-0.7-0.5-0.7-0.9c0-0.3,0.1-0.5,0.3-0.7c0.2-0.2,0.5-0.2,0.8-0.2c0.3,0,0.5,0,0.7,0.1V53
			c-0.2-0.1-0.4-0.2-0.7-0.2c-0.1,0-0.3,0-0.3,0.1c-0.1,0.1-0.1,0.1-0.1,0.2c0,0.1,0,0.2,0.1,0.2c0.1,0.1,0.2,0.1,0.4,0.3
			c0.3,0.1,0.5,0.3,0.6,0.4c0.1,0.1,0.2,0.3,0.2,0.5c0,0.3-0.1,0.5-0.3,0.7c-0.2,0.2-0.5,0.2-0.9,0.2C63.1,55.4,62.8,55.3,62.5,55.2
			z"/>
		<path class="st17" d="M65.2,54.4c0,0.3,0.3,0.5,0.7,0.5c0.3,0,0.5-0.1,0.7-0.2v0.5c-0.3,0.1-0.5,0.2-0.8,0.2
			c-0.4,0-0.7-0.1-0.9-0.3c-0.2-0.2-0.3-0.5-0.3-0.8c0-0.4,0.1-0.6,0.3-0.9c0.2-0.2,0.5-0.3,0.8-0.3c0.3,0,0.6,0.1,0.8,0.3
			c0.2,0.2,0.3,0.5,0.3,0.8v0.2H65.2z M66.2,54c0-0.1,0-0.3-0.1-0.3c-0.1-0.1-0.2-0.1-0.3-0.1c-0.1,0-0.2,0-0.3,0.1
			c-0.1,0.1-0.2,0.2-0.2,0.3H66.2z"/>
		<path class="st17" d="M68.4,55.3v-1.2c0-0.3-0.1-0.5-0.4-0.5c-0.1,0-0.2,0-0.3,0.1c-0.1,0.1-0.1,0.1-0.1,0.2c0,0-0.1,0-0.1,0
			c0,0,0,0.1,0,0.1v1.3h-0.6v-2.2h0.6v0.4h0c0.2-0.3,0.4-0.4,0.8-0.4c0.5,0,0.8,0.3,0.8,0.9v1.3H68.4z"/>
		<path class="st17" d="M69.2,55.3v-0.5c0.2,0.1,0.4,0.2,0.7,0.2c0.2,0,0.4-0.1,0.4-0.2c0-0.1,0-0.1-0.1-0.1c-0.1,0-0.2-0.1-0.4-0.2
			c-0.2-0.1-0.4-0.2-0.4-0.3c-0.1-0.1-0.1-0.2-0.1-0.4c0-0.2,0.1-0.4,0.3-0.5c0.2-0.1,0.4-0.2,0.7-0.2c0.2,0,0.4,0,0.6,0.1v0.5
			c-0.2-0.1-0.4-0.1-0.6-0.1c-0.1,0-0.2,0-0.2,0.1c-0.1,0-0.1,0.1-0.1,0.1c0,0.1,0,0.1,0.1,0.1c0.1,0,0.2,0.1,0.3,0.1
			c0.2,0.1,0.4,0.2,0.5,0.3c0.1,0.1,0.1,0.2,0.1,0.4c0,0.2-0.1,0.4-0.3,0.5c-0.2,0.1-0.4,0.2-0.7,0.2C69.6,55.4,69.4,55.3,69.2,55.3
			z"/>
		<path class="st17" d="M72.2,55.4c-0.4,0-0.7-0.1-0.9-0.3c-0.2-0.2-0.3-0.5-0.3-0.8c0-0.4,0.1-0.6,0.3-0.8c0.2-0.2,0.5-0.3,0.9-0.3
			c0.4,0,0.7,0.1,0.9,0.3c0.2,0.2,0.3,0.5,0.3,0.8c0,0.4-0.1,0.6-0.3,0.9C72.9,55.3,72.6,55.4,72.2,55.4z M72.2,53.6
			c-0.2,0-0.3,0.1-0.4,0.2c-0.1,0.1-0.2,0.3-0.2,0.5c0,0.2,0.1,0.4,0.2,0.5c0.1,0.1,0.3,0.2,0.4,0.2c0.4,0,0.6-0.2,0.6-0.6
			C72.8,53.8,72.6,53.6,72.2,53.6z"/>
		<path class="st17" d="M75.1,53.7c-0.1,0-0.2-0.1-0.3-0.1c-0.2,0-0.3,0.1-0.4,0.2c-0.1,0.1-0.1,0.3-0.1,0.4v1.1h-0.6v-2.2h0.6v0.4
			h0c0.1-0.1,0.1-0.3,0.3-0.3c0.1-0.1,0.2-0.1,0.4-0.1c0.1,0,0.1,0,0.2,0V53.7z"/>
		<path class="st17" d="M74.8,54.4v-0.4h0.9v0.4H74.8z"/>
		<path class="st17" d="M76.1,55.3v-3.1h0.7v2.5H78v0.5H76.1z"/>
	</g>
	<text transform="matrix(1 0 0 1 71.7446 51.4656)" class="st17 st25 st26 st27">Ｖ２</text>
	<g>
		<path class="st17" d="M29.8,29h7.4c0.9,0,1.7,0.8,1.7,1.7V38c0,0.9-0.8,1.7-1.7,1.7h-7.4c-0.9,0-1.7-0.8-1.7-1.7v-7.4
			C28.1,29.7,28.9,29,29.8,29z"/>
		<path class="st28" d="M34.2,35.1c-0.1,0.9,0.3,1.7,1,2c0.4,0.1,0.9,0.1,1.3-0.2c0.7-0.5,0.5-1.4,0.5-1.5c-0.1-0.6-0.5-1.1-1-1.2
			c0,0-0.1,0-0.8-0.1c-1.5,0-2.9,0-4.4,0c-0.2,0-0.4-0.1-0.6-0.2c-0.5-0.5-0.2-1.5-0.1-1.7"/>
		<path class="st28" d="M32.9,34c0-0.4,0-1.1,0-1.5"/>
	</g>
</g>
<rect x="24.1" y="75.7" class="st42" width="70.2" height="8.9"/>
<text transform="matrix(1 0 0 1 25.2358 83.5305)" class="st17 st43 st44">模拟角度传感器</text>
</svg>
