<svg id="组_58" data-name="组 58" xmlns="http://www.w3.org/2000/svg" width="137.174" height="111.839" viewBox="0 0 137.174 111.839">
  <path id="路径_174" data-name="路径 174" d="M368.618,411.651H244.364a6.517,6.517,0,0,0-6.46,6.532v98.772a6.517,6.517,0,0,0,6.46,6.535H368.618a6.517,6.517,0,0,0,6.46-6.535V418.183A6.517,6.517,0,0,0,368.618,411.651Z" transform="translate(-237.904 -411.65)"/>
  <rect id="矩形_34" data-name="矩形 34" width="16.217" height="16.703" transform="translate(114.105 48.107)" fill="#a6a7a7"/>
  <path id="路径_175" data-name="路径 175" d="M279.686,430.626a4.427,4.427,0,1,1-4.428-4.428A4.426,4.426,0,0,1,279.686,430.626Z" transform="translate(-153.046 -374.165)" fill="#474645"/>
  <rect id="矩形_35" data-name="矩形 35" width="16.217" height="16.703" transform="translate(6.692 48.107)" fill="#a6a7a7"/>
  <path id="路径_176" data-name="路径 176" d="M249.657,430.626a4.427,4.427,0,1,1-4.425-4.428A4.426,4.426,0,0,1,249.657,430.626Z" transform="translate(-230.431 -374.165)" fill="#474645"/>
  <path id="路径_177" data-name="路径 177" d="M269.116,411.651H243.809a5.943,5.943,0,0,0-5.895,5.956v24.828Z" transform="translate(-237.878 -411.65)" fill="#2697d8"/>
  <path id="路径_178" data-name="路径 178" d="M246.637,411.651V428l16.35-16.35Z" transform="translate(-215.399 -411.651)" fill="#2697d8"/>
  <path id="路径_179" data-name="路径 179" d="M251.208,411.651v7.866l7.866-7.866Z" transform="translate(-203.619 -411.651)" fill="#2697d8"/>
  <path id="路径_180" data-name="路径 180" d="M272.3,421.9v8.813l8.813-8.813Z" transform="translate(-149.259 -385.242)" fill="#2697d8"/>
  <path id="路径_181" data-name="路径 181" d="M248.278,438.845v-8.5l-8.5,8.5Z" transform="translate(-233.083 -363.483)" fill="#2697d8"/>
  <rect id="矩形_36" data-name="矩形 36" width="3.141" height="5.364" rx="0.224" transform="translate(54.897 31.231)" fill="#767676"/>
  <rect id="矩形_37" data-name="矩形 37" width="3.141" height="5.364" rx="0.224" transform="translate(67.589 31.231)" fill="#767676"/>
  <rect id="矩形_38" data-name="矩形 38" width="3.141" height="5.364" rx="0.224" transform="translate(80.159 31.231)" fill="#767676"/>
  <rect id="矩形_39" data-name="矩形 39" width="3.141" height="5.364" rx="0.224" transform="translate(92.857 31.231)" fill="#767676"/>
  <rect id="矩形_40" data-name="矩形 40" width="3.141" height="5.364" rx="0.224" transform="translate(42.247 31.231)" fill="#767676"/>
  <rect id="矩形_41" data-name="矩形 41" width="3.141" height="5.364" rx="0.224" transform="translate(54.897 43.611)" fill="#767676"/>
  <rect id="矩形_42" data-name="矩形 42" width="3.141" height="5.364" rx="0.224" transform="translate(67.589 43.611)" fill="#767676"/>
  <rect id="矩形_43" data-name="矩形 43" width="3.141" height="5.364" rx="0.224" transform="translate(80.159 43.611)" fill="#767676"/>
  <rect id="矩形_44" data-name="矩形 44" width="3.141" height="5.364" rx="0.224" transform="translate(92.857 43.611)" fill="#767676"/>
  <rect id="矩形_45" data-name="矩形 45" width="3.141" height="5.364" rx="0.224" transform="translate(42.247 43.611)" fill="#767676"/>
  <rect id="矩形_46" data-name="矩形 46" width="3.141" height="5.364" rx="0.224" transform="translate(54.897 55.991)" fill="#767676"/>
  <rect id="矩形_47" data-name="矩形 47" width="3.141" height="5.364" rx="0.224" transform="translate(67.589 55.991)" fill="#767676"/>
  <rect id="矩形_48" data-name="矩形 48" width="3.141" height="5.364" rx="0.224" transform="translate(80.159 55.991)" fill="#767676"/>
  <rect id="矩形_49" data-name="矩形 49" width="3.141" height="5.364" rx="0.224" transform="translate(92.857 55.991)" fill="#767676"/>
  <rect id="矩形_50" data-name="矩形 50" width="3.141" height="5.364" rx="0.224" transform="translate(42.247 55.991)" fill="#767676"/>
  <rect id="矩形_51" data-name="矩形 51" width="3.141" height="5.364" rx="0.224" transform="translate(54.897 68.371)" fill="#767676"/>
  <rect id="矩形_52" data-name="矩形 52" width="3.141" height="5.364" rx="0.224" transform="translate(67.589 68.371)" fill="#767676"/>
  <rect id="矩形_53" data-name="矩形 53" width="3.141" height="5.364" rx="0.224" transform="translate(80.159 68.371)" fill="#767676"/>
  <rect id="矩形_54" data-name="矩形 54" width="3.141" height="5.364" rx="0.224" transform="translate(92.857 68.371)" fill="#767676"/>
  <rect id="矩形_55" data-name="矩形 55" width="3.141" height="5.364" rx="0.224" transform="translate(42.247 68.371)" fill="#767676"/>
  <rect id="矩形_56" data-name="矩形 56" width="3.141" height="5.364" rx="0.224" transform="translate(54.897 80.751)" fill="#767676"/>
  <rect id="矩形_57" data-name="矩形 57" width="3.141" height="5.364" rx="0.224" transform="translate(67.589 80.751)" fill="#767676"/>
  <rect id="矩形_58" data-name="矩形 58" width="3.141" height="5.364" rx="0.224" transform="translate(80.159 80.751)" fill="#767676"/>
  <rect id="矩形_59" data-name="矩形 59" width="3.141" height="5.364" rx="0.224" transform="translate(92.857 80.751)" fill="#767676"/>
  <rect id="矩形_60" data-name="矩形 60" width="3.141" height="5.364" rx="0.224" transform="translate(42.247 80.751)" fill="#767676"/>
  <path id="路径_182" data-name="路径 182" d="M253.035,436.165a6.193,6.193,0,0,0-6.2,6.2v17.956h12.387V442.36A6.193,6.193,0,0,0,253.035,436.165ZM253,447.855a5.124,5.124,0,1,1,5.122-5.126A5.128,5.128,0,0,1,253,447.855Z" transform="translate(-214.876 -348.478)" fill="#ffce24"/>
  <path id="路径_183" data-name="路径 183" d="M245.424,436.165a6.193,6.193,0,0,0-6.192,6.2v17.956h12.387V442.36A6.193,6.193,0,0,0,245.424,436.165Zm-.036,11.69a5.124,5.124,0,1,1,5.122-5.126A5.125,5.125,0,0,1,245.388,447.855Z" transform="translate(-234.482 -348.478)" fill="#ffce24"/>
  <path id="路径_184" data-name="路径 184" d="M261.542,436.165a6.193,6.193,0,0,0-6.2,6.2v17.956h12.387V442.36A6.193,6.193,0,0,0,261.542,436.165Zm-.039,11.69a5.124,5.124,0,1,1,5.122-5.126A5.128,5.128,0,0,1,261.5,447.855Z" transform="translate(-192.953 -348.478)" fill="#ffce24"/>
  <path id="路径_185" data-name="路径 185" d="M270.058,436.165a6.2,6.2,0,0,0-6.2,6.2v17.956h12.391V442.36A6.193,6.193,0,0,0,270.058,436.165Zm-.039,11.69a5.124,5.124,0,1,1,5.126-5.126A5.125,5.125,0,0,1,270.019,447.855Z" transform="translate(-171.008 -348.478)" fill="#ffce24"/>
  <path id="路径_186" data-name="路径 186" d="M277.6,436.165a6.2,6.2,0,0,0-6.2,6.2v17.956h12.391V442.36A6.193,6.193,0,0,0,277.6,436.165Zm-.039,11.69a5.124,5.124,0,1,1,5.126-5.126A5.125,5.125,0,0,1,277.56,447.855Z" transform="translate(-151.575 -348.478)" fill="#ffce24"/>
  <path id="路径_187" data-name="路径 187" d="M238.382,450.344a6.517,6.517,0,0,0,2.454,1.692V439.209h-2.454Z" transform="translate(-236.672 -340.633)" fill="#ffce24"/>
  <path id="路径_188" data-name="路径 188" d="M275.089,452.036a6.477,6.477,0,0,0,2.454-1.692V439.209h-2.454Z" transform="translate(-142.079 -340.633)" fill="#ffce24"/>
  <rect id="矩形_61" data-name="矩形 61" width="2.455" height="13.265" transform="translate(19.015 98.574)" fill="#ffce24"/>
  <rect id="矩形_62" data-name="矩形 62" width="2.455" height="13.265" transform="translate(22.129 98.574)" fill="#ffce24"/>
  <rect id="矩形_63" data-name="矩形 63" width="2.455" height="13.265" transform="translate(25.243 98.574)" fill="#ffce24"/>
  <rect id="矩形_64" data-name="矩形 64" width="2.455" height="13.265" transform="translate(28.357 98.574)" fill="#ffce24"/>
  <rect id="矩形_65" data-name="矩形 65" width="2.455" height="13.265" transform="translate(106.298 98.574)" fill="#ffce24"/>
  <rect id="矩形_66" data-name="矩形 66" width="2.455" height="13.265" transform="translate(109.412 98.574)" fill="#ffce24"/>
  <rect id="矩形_67" data-name="矩形 67" width="2.455" height="13.265" transform="translate(112.526 98.574)" fill="#ffce24"/>
  <rect id="矩形_68" data-name="矩形 68" width="2.455" height="13.265" transform="translate(115.641 98.574)" fill="#ffce24"/>
  <rect id="矩形_69" data-name="矩形 69" width="2.455" height="13.265" transform="translate(46.109 98.574)" fill="#ffce24"/>
  <rect id="矩形_70" data-name="矩形 70" width="2.455" height="13.265" transform="translate(49.223 98.574)" fill="#ffce24"/>
  <rect id="矩形_71" data-name="矩形 71" width="2.455" height="13.265" transform="translate(52.337 98.574)" fill="#ffce24"/>
  <rect id="矩形_72" data-name="矩形 72" width="2.455" height="13.265" transform="translate(55.451 98.574)" fill="#ffce24"/>
  <rect id="矩形_73" data-name="矩形 73" width="2.455" height="13.265" transform="translate(58.565 98.574)" fill="#ffce24"/>
  <rect id="矩形_74" data-name="矩形 74" width="2.455" height="13.265" transform="translate(76.174 98.574)" fill="#ffce24"/>
  <rect id="矩形_75" data-name="矩形 75" width="2.455" height="13.265" transform="translate(79.287 98.574)" fill="#ffce24"/>
  <rect id="矩形_76" data-name="矩形 76" width="2.455" height="13.265" transform="translate(82.401 98.574)" fill="#ffce24"/>
  <rect id="矩形_77" data-name="矩形 77" width="2.455" height="13.265" transform="translate(85.516 98.574)" fill="#ffce24"/>
  <rect id="矩形_78" data-name="矩形 78" width="2.455" height="13.265" transform="translate(88.63 98.574)" fill="#ffce24"/>
  <g id="组_57" data-name="组 57" transform="translate(57.021 9.412)">
    <path id="路径_189" data-name="路径 189" d="M259.667,418.631a1.4,1.4,0,1,0-1.4-1.4,1.4,1.4,0,0,0,1.4,1.4" transform="translate(-242.447 -410.293)" fill="#2697d8"/>
    <path id="路径_190" data-name="路径 190" d="M256.792,415.83a1.4,1.4,0,1,0,1.4,1.4,1.4,1.4,0,0,0-1.4-1.4" transform="translate(-249.856 -410.293)" fill="#2697d8"/>
    <path id="路径_191" data-name="路径 191" d="M260.781,417.058a4.162,4.162,0,0,0,0,8.324h10.406a4.162,4.162,0,0,0,0-8.324H260.781m10.406,11.1H260.781a6.938,6.938,0,0,1,0-13.875h10.406a6.938,6.938,0,0,1,0,13.875" transform="translate(-253.845 -414.282)" fill="#2697d8"/>
  </g>
</svg>
