<?xml version="1.0" encoding="UTF-8" standalone="no"?>
<!-- Created with Inkscape (http://www.inkscape.org/) -->

<svg
   xmlns:dc="http://purl.org/dc/elements/1.1/"
   xmlns:cc="http://creativecommons.org/ns#"
   xmlns:rdf="http://www.w3.org/1999/02/22-rdf-syntax-ns#"
   xmlns:svg="http://www.w3.org/2000/svg"
   xmlns="http://www.w3.org/2000/svg"
   xmlns:sodipodi="http://sodipodi.sourceforge.net/DTD/sodipodi-0.dtd"
   xmlns:inkscape="http://www.inkscape.org/namespaces/inkscape"
   width="210mm"
   height="297mm"
   viewBox="0 0 744.09448819 1052.3622047"
   id="svg7743"
   version="1.1"
   inkscape:version="0.91 r13725"
   sodipodi:docname="FIT0151.svg">
  <defs
     id="defs7745" />
  <sodipodi:namedview
     id="base"
     pagecolor="#ffffff"
     bordercolor="#666666"
     borderopacity="1.0"
     inkscape:pageopacity="0.0"
     inkscape:pageshadow="2"
     inkscape:zoom="1.4"
     inkscape:cx="431.11976"
     inkscape:cy="378.93599"
     inkscape:document-units="px"
     inkscape:current-layer="layer1"
     showgrid="false"
     inkscape:window-width="1920"
     inkscape:window-height="1017"
     inkscape:window-x="-8"
     inkscape:window-y="-8"
     inkscape:window-maximized="1" />
  <metadata
     id="metadata7748">
    <rdf:RDF>
      <cc:Work
         rdf:about="">
        <dc:format>image/svg+xml</dc:format>
        <dc:type
           rdf:resource="http://purl.org/dc/dcmitype/StillImage" />
        <dc:title></dc:title>
      </cc:Work>
    </rdf:RDF>
  </metadata>
  <g
     inkscape:label="Layer 1"
     inkscape:groupmode="layer"
     id="layer1">
    <g
       style="display:inline;opacity:1"
       id="g4067"
       transform="matrix(0,1,-1,0,875.73331,143.04227)"
       inkscape:export-xdpi="90"
       inkscape:export-ydpi="90">
      <path
         style="fill:#aaaaaa;stroke:#000000;stroke-width:0.58186334;stroke-miterlimit:10"
         inkscape:connector-curvature="0"
         stroke-miterlimit="10"
         d="m 493.99077,372.10536 c 0,0 -8.77334,6.4343 -0.37937,14.5768"
         id="path5426" />
      <path
         style="fill:#666666;fill-opacity:1;stroke:#040000;stroke-width:0.58186334;stroke-miterlimit:10"
         inkscape:connector-curvature="0"
         stroke-miterlimit="10"
         d="m 559.17343,389.22436 0,2.7639 c -0.0727,1.6967 -1.28476,1.7176 -1.28476,1.7176 l -16.27413,0 -4.9825,-0.051 c -1.39996,0.3276 -1.49131,-1.0182 -1.49131,-1.0182 -1.58209,0.8367 -2.45488,-1.3273 -2.45488,-1.3273 -2.83659,1.7276 -3.85485,-0.5271 -3.85485,-0.5271 -3.01871,1.7275 -3.74604,-0.4789 -3.74604,-0.4789 -2.07317,1.7578 -3.91535,-0.3759 -3.91535,-0.3759 -1.20039,2.2425 -3.95144,-0.3637 -3.95144,-0.3637 -1.05492,1.8667 -3.81877,-0.1699 -3.81877,-0.1699 l -17.69853,0 c -9.34647,-10.1221 0,-19.5046 0,-19.5046 l 17.41982,-0.2549 c 1.83636,-2.8732 3.78211,-0.4911 3.78211,-0.4911 1.63678,-2.8185 3.85485,-0.6912 3.85485,-0.6912 2.03652,-2.4549 3.78211,-0.5999 3.78211,-0.5999 2.49096,-2.6364 3.63664,-0.3456 3.63664,-0.3456 2.60035,-3.1822 3.43649,-0.4004 3.43649,-0.4004 0.18212,-0.5999 1.34585,-0.5638 1.34585,-0.5638 0.14547,-1.3999 2.18199,-1.3639 2.18199,-1.3639 -0.10939,-1.0729 0.85475,-1.109 0.85475,-1.109 l 20.92265,-0.5935 c 1.91549,-0.048 2.01266,1.6723 2.01266,1.6723 l 0.0483,2.7644"
         id="path5514" />
      <circle
         style="fill:none;stroke:#000000;stroke-width:0.58186334;stroke-miterlimit:10"
         stroke-miterlimit="10"
         cx="546.78265"
         cy="372.37704"
         r="3.1275156"
         id="circle5516" />
      <circle
         style="fill:none;stroke:#000000;stroke-width:0.58186334;stroke-miterlimit:10"
         stroke-miterlimit="10"
         cx="546.78265"
         cy="385.15128"
         r="3.1275156"
         id="circle5518" />
      <text
         y="813.79645"
         x="-252.72728"
         style="font-size:10.35718918px;font-family:AdobeSongStd-Light-GBpc-EUC-H;stroke:#000000;stroke-width:0.25892973"
         transform="matrix(0,-1.4833363,0.67415595,0,0,0)"
         font-size="12"
         id="text5520">-</text>
      <text
         y="373.74585"
         x="565.52264"
         style="font-size:7.35016346px;font-family:AdobeSongStd-Light-GBpc-EUC-H;stroke:#000000;stroke-width:0.26194143;stroke-miterlimit:10"
         stroke-miterlimit="10"
         font-size="8.4181"
         id="text5522"
         transform="scale(0.96346659,1.0379187)">+</text>
      <rect
         style="fill:#4fd664;fill-opacity:1;stroke:#040000;stroke-width:0.58186334;stroke-miterlimit:10"
         x="555.85217"
         y="367.92529"
         stroke-miterlimit="10"
         width="11.455725"
         height="21.201937"
         id="rect5524" />
      <polyline
         transform="matrix(0.58186334,0,0,0.58186334,433.3129,315.53832)"
         style="fill:#4fda64;fill-opacity:1;stroke:#040000;stroke-linecap:round;stroke-miterlimit:10"
         stroke-miterlimit="10"
         points="230.722,90.846 232.597,92.308   232.597,123.533 230.722,125.014 "
         id="polyline5526" />
      <path
         style="fill:none;stroke:#000000;stroke-width:0.58186334;stroke-miterlimit:10"
         inkscape:connector-curvature="0"
         stroke-miterlimit="10"
         d="m 517.10471,368.81086 c 0,0 -4.00671,10.5789 0,20.8941"
         id="path5528" />
      <path
         style="fill:none;stroke:#000000;stroke-width:0.58186334;stroke-linecap:square;stroke-miterlimit:10"
         inkscape:connector-curvature="0"
         stroke-miterlimit="10"
         d="m 521.0672,368.28366 c 0,0 -3.2852,10.8844 0,21.4976"
         id="path5530" />
      <path
         style="fill:none;stroke:#000000;stroke-width:0.58186334;stroke-miterlimit:10"
         inkscape:connector-curvature="0"
         stroke-miterlimit="10"
         d="m 513.2999,369.31936 c 0,0 -3.89266,10.217 0,20.1796"
         id="path5532" />
      <path
         style="fill:none;stroke:#000000;stroke-width:0.58186334;stroke-linecap:round;stroke-miterlimit:10"
         inkscape:connector-curvature="0"
         stroke-miterlimit="10"
         d="m 528.17699,367.50686 c 0,0 -3.79433,15.3036 0.65459,23.2746"
         id="path5534" />
      <path
         style="fill:none;stroke:#000000;stroke-width:0.58186334;stroke-linecap:round;stroke-miterlimit:10"
         inkscape:connector-curvature="0"
         stroke-miterlimit="10"
         d="m 524.54034,367.85256 c 0,0 -3.33349,15.6975 0.54579,22.45"
         id="path5536" />
      <path
         style="fill:none;stroke:#000000;stroke-width:0.58186334;stroke-linecap:round;stroke-miterlimit:10"
         inkscape:connector-curvature="0"
         stroke-miterlimit="10"
         d="m 531.63209,367.07046 c 0,0 -3.90314,12.9552 1.05492,24.2381"
         id="path5538" />
      <ellipse
         style="fill:#aaaaaa;stroke:#000000;stroke-width:0.58186334;stroke-miterlimit:10"
         stroke-miterlimit="10"
         cx="561.44617"
         cy="373.95215"
         rx="3.261344"
         ry="3.1502082"
         id="ellipse5540" />
      <ellipse
         style="fill:#aaaaaa;stroke:#000000;stroke-width:0.58186334;stroke-miterlimit:10"
         stroke-miterlimit="10"
         cx="561.44617"
         cy="382.84479"
         rx="3.261344"
         ry="3.1513717"
         id="ellipse5542" />
      <g
         transform="matrix(0.58186334,0,0,0.58186334,433.3129,315.53832)"
         id="g5544">
        <g
           id="g5546">
          <path
             style="fill:#cecece;stroke:#040000;stroke-width:0.5;stroke-miterlimit:10"
             inkscape:connector-curvature="0"
             stroke-miterlimit="10"
             d="m 221.9,120.711 -1.693,-3.159 c -3.668,-1.019 -2.042,-3.812 -2.042,-3.812 l -1.104,-2.062 1.34,-0.717 1.104,2.061 c 0,0 3.226,0.194 2.042,3.812 l 1.691,3.16 -1.338,0.717 z"
             id="path5548" />
        </g>
      </g>
      <g
         transform="matrix(0.58186334,0,0,0.58186334,433.3129,315.53832)"
         id="g5550">
        <g
           id="g5552">
          <path
             style="fill:#cecece;stroke:#040000;stroke-width:0.5;stroke-miterlimit:10"
             inkscape:connector-curvature="0"
             stroke-miterlimit="10"
             d="m 221.9,105.278 -1.693,-3.159 c -3.668,-1.019 -2.042,-3.812 -2.042,-3.812 l -1.104,-2.062 1.34,-0.717 1.104,2.061 c 0,0 3.226,0.194 2.042,3.812 l 1.691,3.16 -1.338,0.717 z"
             id="path5554" />
        </g>
      </g>
    </g>
  </g>
</svg>
