<?xml version="1.0" encoding="utf-8"?>
<!-- Generator: Adobe Illustrator 22.0.0, SVG Export Plug-In . SVG Version: 6.00 Build 0)  -->
<svg version="1.1" id="ÂõæÂ±Ç_1" xmlns:x="&ns_extend;" xmlns:i="&ns_ai;" xmlns:graph="&ns_graphs;"
	 xmlns="http://www.w3.org/2000/svg" xmlns:xlink="http://www.w3.org/1999/xlink" x="0px" y="0px" viewBox="0 0 93.7 47.9"
	 style="enable-background:new 0 0 93.7 47.9;" xml:space="preserve">
<style type="text/css">
	.Ê_x008A__x0095_Â_x00BD__x00B1_{fill:none;}
	.Â_x009C__x0086_Ë_x00A7__x0092__x0020_2_x0020_pt{fill:#FFFFFF;stroke:#000000;stroke-miterlimit:10;}
	.Â_x00AE__x009E_Ê_x0097__x00B6_Â_x00AF__x00B9_Á_x00A7__x00B0__x0020_X{fill:none;}
	.Ê_x009F__x0094_Â_x008C__x0096_Ê_x0096__x009C_È_x009D__x00A2_{fill:url(#SVGID_1_);}
	.È_x00BB__x0084_Ê_x0098__x008F_{fill:#FFFFFF;}
	.Ê_x00A4__x008D_Á_x0089__x00A9__GS{fill:#FFE100;}
	
		.È_x00AB__x0098_Â_x008D__x00B7_Â_x00BC__x008F_Â_x008F__x0091_Â_x009E__x008B__GS{fill-rule:evenodd;clip-rule:evenodd;fill:#4CACE2;}
	.st0{fill:#323333;}
	.st1{fill:#FFFFFF;}
	.st2{fill:#040000;}
	.st3{fill:#E0E0E0;}
</style>
<metadata><?xpacket begin="Ôªø" id="W5M0MpCehiHzreSzNTczkc9d"?>
<x:xmpmeta xmlns:x="adobe:ns:meta/" x:xmptk="Adobe XMP Core 5.6-c143 79.161210, 2017/08/11-10:28:36        ">
   <rdf:RDF xmlns:rdf="http://www.w3.org/1999/02/22-rdf-syntax-ns#">
      <rdf:Description rdf:about=""
            xmlns:dc="http://purl.org/dc/elements/1.1/"
            xmlns:xmp="http://ns.adobe.com/xap/1.0/"
            xmlns:xmpGImg="http://ns.adobe.com/xap/1.0/g/img/"
            xmlns:xmpMM="http://ns.adobe.com/xap/1.0/mm/"
            xmlns:stRef="http://ns.adobe.com/xap/1.0/sType/ResourceRef#"
            xmlns:stEvt="http://ns.adobe.com/xap/1.0/sType/ResourceEvent#"
            xmlns:illustrator="http://ns.adobe.com/illustrator/1.0/"
            xmlns:xmpTPg="http://ns.adobe.com/xap/1.0/t/pg/"
            xmlns:stDim="http://ns.adobe.com/xap/1.0/sType/Dimensions#"
            xmlns:xmpG="http://ns.adobe.com/xap/1.0/g/"
            xmlns:pdf="http://ns.adobe.com/pdf/1.3/">
         <dc:format>image/svg+xml</dc:format>
         <dc:title>
            <rdf:Alt>
               <rdf:li xml:lang="x-default">ÊâìÂç∞</rdf:li>
            </rdf:Alt>
         </dc:title>
         <xmp:MetadataDate>2020-06-03T14:32:29+08:00</xmp:MetadataDate>
         <xmp:ModifyDate>2020-06-03T14:32:29+08:00</xmp:ModifyDate>
         <xmp:CreateDate>2020-06-03T14:32:28+08:00</xmp:CreateDate>
         <xmp:CreatorTool>Adobe Illustrator CC 22.0 (Windows)</xmp:CreatorTool>
         <xmp:Thumbnails>
            <rdf:Alt>
               <rdf:li rdf:parseType="Resource">
                  <xmpGImg:width>256</xmpGImg:width>
                  <xmpGImg:height>132</xmpGImg:height>
                  <xmpGImg:format>JPEG</xmpGImg:format>
                  <xmpGImg:image>/9j/4AAQSkZJRgABAgEASABIAAD/7QAsUGhvdG9zaG9wIDMuMAA4QklNA+0AAAAAABAASAAAAAEA&#xA;AQBIAAAAAQAB/+4ADkFkb2JlAGTAAAAAAf/bAIQABgQEBAUEBgUFBgkGBQYJCwgGBggLDAoKCwoK&#xA;DBAMDAwMDAwQDA4PEA8ODBMTFBQTExwbGxscHx8fHx8fHx8fHwEHBwcNDA0YEBAYGhURFRofHx8f&#xA;Hx8fHx8fHx8fHx8fHx8fHx8fHx8fHx8fHx8fHx8fHx8fHx8fHx8fHx8fHx8f/8AAEQgAhAEAAwER&#xA;AAIRAQMRAf/EAaIAAAAHAQEBAQEAAAAAAAAAAAQFAwIGAQAHCAkKCwEAAgIDAQEBAQEAAAAAAAAA&#xA;AQACAwQFBgcICQoLEAACAQMDAgQCBgcDBAIGAnMBAgMRBAAFIRIxQVEGE2EicYEUMpGhBxWxQiPB&#xA;UtHhMxZi8CRygvElQzRTkqKyY3PCNUQnk6OzNhdUZHTD0uIIJoMJChgZhJRFRqS0VtNVKBry4/PE&#xA;1OT0ZXWFlaW1xdXl9WZ2hpamtsbW5vY3R1dnd4eXp7fH1+f3OEhYaHiImKi4yNjo+Ck5SVlpeYmZ&#xA;qbnJ2en5KjpKWmp6ipqqusra6voRAAICAQIDBQUEBQYECAMDbQEAAhEDBCESMUEFURNhIgZxgZEy&#xA;obHwFMHR4SNCFVJicvEzJDRDghaSUyWiY7LCB3PSNeJEgxdUkwgJChgZJjZFGidkdFU38qOzwygp&#xA;0+PzhJSktMTU5PRldYWVpbXF1eX1RlZmdoaWprbG1ub2R1dnd4eXp7fH1+f3OEhYaHiImKi4yNjo&#xA;+DlJWWl5iZmpucnZ6fkqOkpaanqKmqq6ytrq+v/aAAwDAQACEQMRAD8A9U4q7FUHrOr2GjaTd6rq&#xA;EghsrKJ555D2VBU08SegHc4q+EfPXnHU/N/ma81y/dq3DkW8BNVhhBpHEvair18TU9TiqQYq7FXY&#xA;q7FXYq7FUw0DX9W0DV7bV9JuGtr61cPFIp2NDurD9pW6Mp2IxV9vflp+YOmeefLMOrWlI7pKRajZ&#xA;1+KGcCpG/wCy3VT3HvXFWV4q7FXYq7FXYq7FXYq7FWKfmX+YOmeRvLM2rXdJLp6xadZ1+KacioG3&#xA;7K9WPYe9MVfEOv6/q2v6vc6vq1w1zfXTl5ZGOwqdlUfsqvRVGwGKpfirsVdirsVdirsVT/yL5x1P&#xA;yh5ms9csHatu4FxADRZoSaSRN2oy9PA0PUYq+7tG1ew1nSbTVdPkE1lexJPBIO6uKivgR0I7HFUZ&#xA;irsVdirsVfOX/OUv5iVMHkjT5dhwudZKnv8AaggP/Jxh/q4q+c8VdirsVdirsVdirsVdiqP0nX9d&#xA;0aV5tI1G602aQcZJLSaSBmUb0YxspIxVNP8AlZP5i/8AU06v/wBJ91/1UxV3/KyfzF/6mnV/+k+6&#xA;/wCqmKu/5WT+Yv8A1NOr/wDSfdf9VMVd/wArJ/MX/qadX/6T7r/qpirv+Vk/mL/1NOr/APSfdf8A&#xA;VTFXf8rJ/MX/AKmnV/8ApPuv+qmKu/5WT+Yv/U06v/0n3X/VTFXf8rJ/MX/qadX/AOk+6/6qYqle&#xA;ra/rusypNq+o3WpTRjjHJdzSTsqneimRmIGKoDFXYq7FXYq7FXYq7FXYq+jP+cWvzEoZ/JGoS7Hn&#xA;c6MWPf7U8A/5OKP9bFX0birsVdiqQee/N9j5R8q3+vXlCLWP9xCTQyzN8MUY/wBZutOgqe2KvhDV&#xA;9VvtX1S61S/kM17eytNcSHu7mp+Q8BiqX3F1Bbx+pM4Ve3ifkMVSW58xyEkW0YVf533P3DbFUC+r&#xA;ai5qZ2H+rRf1YppyatqKGonY/OjfrritIy28xzqQLhBIvdl+Fv6YoTq1vbe6TnC9afaXoR8xiqvi&#xA;rsVdirsVdirsVdirsVdirsVdirsVdirsVULq9t7VOcz0r9lepPyGKpLc+Y52JFugjXszfE39MVQb&#xA;6tqLmpnYfKi/qpimnJq2ooaidj/rUb9eK0jrbzHICBcxhl/nTY/cdsUJ1b3UFxH6kLhl7+I+YxVM&#xA;NI1W+0jVLXVLCQw3tlKs1vIOzoaj5jxGKvu/yJ5vsfN3lWw16zoBdR/v4QamKZfhljP+q3SvUUPf&#xA;FU/xV2Kvk3/nJf8AMT9O+Zl8tWEpbS9EYi44n4ZL07Off0h8A9+WKvD7+9js4DI+7HZE7k4qkVhY&#xA;a55k1mDT9Otpb/U7x/TtrSFSzMaVoqjoAAST2G5xS9nh/Kb8pvy4tYbv829ZfUdfdVlXybozc5FD&#xA;carcSqUIPGQN/eRA8TwaTFWNeePzd8l6x5Vl8ueWPy80vy9DJxV9VPG5vgkcySoUn9KKRSeBV+Tv&#xA;UGmKoT8ufzV8seWdDuNF8weRNL80Ws7yOl3cBIrxDKqoVW4aKdgqhfh48SCa1xVmMf5d/kf+ZwdP&#xA;y41Sbyt5qYVh8s6yxaCfgoqIJi0rVYknaR22P7tV3Crx3X/LvmXyjrsula1Zy6bqlqfjhkA3HZlY&#xA;VV0amzKSpxVNNN1FLyHl9mVdpE/iPbFCMxV2KuxV2KuxV2KuxV2KuxV2KuxV2KoPUtRSzh5falba&#xA;NP4n2xVK9A8u+ZfN2uxaVotnLqWqXR+CGMDYd2ZjRURa7sxCjFL2KT8u/wAj/wAsQifmPqk3mnzU&#xA;orN5Z0ZisEHNTQTzBomqpAO8iNuP3bLuVWHfmN+avljzNodvovl/yJpfle1geN3u7cJLeOYlZArX&#xA;CxQMVYN8XLkSRWuKovyP+bvkvR/KsXlzzP8Al5pfmGGPkqaqONtfFJJnlcvP6UsjEcwqcXSgFMVZ&#xA;LN+U35TfmPazXf5Say+na+itK3k3WW4SMF5UW3lYuSeMZb+8lA5Dm0eKvGL+w1zy3rM+n6jbS2Gp&#xA;2b+nc2kylWU0rRlPUEEEHuNxiqe2F7HeQCRNmGzp3BxQ9w/5xo/MT9BeZm8tX8pXS9bYC35H4Y70&#xA;bIfb1R8B9+OKvrLFWDfnJ+YCeSvJdzewuBq13W20tDQn1nG8lD2iX4vnQd8VfELu8js7sXdyWZmN&#xA;SSdySTirEdWvDdXbEH92nwx/Id/pxS9K/Lf829A/L3yRqb6Dpskn5kam5t01m5SN7e0syK1gBLMz&#xA;hhXiyBS1C3IJwKqb2fkbyd5O0aHzn+cMtzq/mTW0kvtK8nJKwubgSAlbjUrivqR+pI3I71FN+bc4&#xA;1Va85eevzZ82flvqk+meWbXyz+VULoZrewtYbe3dJLwCDjLKFad0nRVdrZVFftqK4ql/5Y+bvzd8&#xA;teQtSudG0CDzF5AlnnTVLO9s1vbVJ0ihlmlmWIrOqrCifFIfS/2XRVOJvJ/5ffmtYXGsfltb/wCF&#xA;/PVmJLm78mNKWhuQr+p61hMQioaPQIoVRQDggo7KpF5m/NrTvN/5Y/oLztaXF1560SWOPQteRU9R&#xA;4OQEsV8zkOSqg7gEs3EncMzKvMLC7a1uklH2ejjxU9cVZeCCAQag7g4obxV2KuxV2Ksz/J6PQZvz&#xA;I0S212xGoWF1P9X+rOAyGWUFImdG2ZVcgkH8emKhLPzBGlL531yPSrQWOnw3k0NvajogiYoaDelS&#xA;pNO3TFSx/FXYq7FXYq0SACSaAbk4qxC/u2urp5T9nog8FHTFL0/yz+bWneUPyx/QXkm0uLXz1rcs&#xA;keu686p6iQciIorFkJcFlI3IBVuRG5VlVT2Hyf8Al9+VNhb6x+ZNv/ijz1eCO5tPJiylYbYM/qet&#xA;fzAOrmiUKMGU1I4OKuqqT/md5u/N3zL5C0251nQIPLvkCKeBNLs7KzWytXneKaWGWFZS07K0Lv8A&#xA;FGfS/wBl1VTDyb56/Nnyn+W+lz6n5ZtfM35VTO5ht7+1huLdEjvCJ+UsQZoHed2VGuVYV+wppird&#xA;55G8necdGm85/k9Lc6R5k0RI77VfJzysbm3EYBa4024r6knpyLyG9TXbg3CNlUo/Mf8ANvy/+YXk&#xA;jTH1/TZE/MjTXFu2s2yRpbXVmBWs4BVlck14KpUNUqVDcAq810m8NrdqSaRv8MnyPf6MVZcjvG6u&#xA;jFHQhlZTQgjcEEYofb35N/mAnnXyXbXszg6taUttUQUB9ZBtJQdpV+L51HbFXzF+eP5hnzn50ne1&#xA;lL6LptbXTAPssoP7yYD/AItYVH+TxxV5pqExhsppB1CkA+52H68VTL/nH/yrb+Z/zc8vaddpzsop&#xA;ze3SFQ6slmjThHVtikjoqNXscUss8j2flLzj+enmHzPc2ltb+SvLi3mvPZ21sIoZLLT6JbgQIOPJ&#xA;/glkUj46NXrgVg13561LUvzAj/MPzPo8et2dzqDSyWF0JBZTCAITaI/QiCOSOityAHHmrKSGKvY9&#xA;A/Kz83vz009/NHm/zO2keXr+ZrjStNVZJ4axExo8NkJYo4owrOiyM5kalTUNzKrevfkX+a35N6VP&#xA;5s8h+bJL2G0R59ZtY4Pq/wC5jQgStbPJdQXKxpJITzAKfaWvVVXkGr+fdf1Tzm35geWNHj8t3umJ&#xA;bz3s2jxy/V47ghYZLiUNzjjW5lcqUICsDxbmxZnVZf8AnUNEi80+T/zW0vT7WbSfNsUOq3mjuUlt&#xA;zf2cifX7aRRHGGRmKrISKu/qE9cVQH/OT3lTS9B/NCW50gQrpWvWkGq2iW1PRAl5RPwI+Eh5IWk+&#xA;HajbYhWIaNMZdOiJNSoKH/Ymg/DFCNxV2Kp55Ih8rTeatOi81yyQeX2dhfSw15AcG4fZDNxMnENQ&#xA;VpWmKvUz/wA4+WfmjzAbzyLrNpN5MmejXTSNLPauoXnE0ZVGY1aqVI+H7R7lS90/L/8AKHyb5JiV&#xA;9OtvrOqcaS6pcgPOa9Qm1I19l+knFCG/MP8AJTyZ51WS4uIP0frLD4dUtQFcmm3rJ9mUfP4uwYYq&#xA;8Ts/yJ0bylr4ufzJ1myh8t8iloscsizXjkClERfURU5D1DXbxpvgS8h8wxaPDr2oxaJK8+jx3Mq6&#xA;fPL9t4FciN22T7S0P2R8sKEvxV2KoLWZjFp0pBoWAQf7I0P4Yqy//nGHyppevfmhFc6uIW0rQbSf&#xA;VbtLmnokRcYk5k/CAkkyyfFtRd8SlH/kqNEl80+cPzW1TT7WHSfKUU2q2ejoUitxf3kj/ULaNTHI&#xA;FRWDLGQKo/pkdMVYhpHn3X9L85r+YHmfR4/Ml7qaXE9lNrEcv1eS4AaGO4iC8I5FtpUChACqgcV4&#xA;MFZFXr+g/kX+av5yaVB5s8+ebJLKG7VJ9GtZIPrH7mRADKtsklrBbLIkcZHAEv8AaanVlWtf/Kz8&#xA;3vyL09PNHlDzO2r+XrCZbjVdNZZIIaykRu81kZZY5YyqojSK4kWtRQLzCrxy089alpv5gSfmH5Y0&#xA;ePRLO21BZY7C1EhsoROHItHfoBPHHJVV4gjlwVVACqs588WflLyd+enl7zPbWltceSvMa2evJZ3N&#xA;sJYY7LUKpcAwOOPJPjljUD4KrTpgVif/ADkB5Vt/LH5ueYdOtE4WUs4vbVAoRVS8RZyiKuwSN3ZF&#xA;p2GFUt0+YzWUMh6lQCfcbH9WKHpf5HfmGfJnnSB7qUpoupUtdTB+yqk/u5iP+KmNT/k8sVSf8z/I&#xA;1z5K843uivya0r62nTt/uy2kJ4GtBUrQo3+UDirBtb/45k3+x/4mMVeo/wDOF7wr+auoCRlDvotw&#xA;sIYgEv8AWbYkLXvxDHbtXFKC/IptQf8AKf8AOK30y4hgv20q1lKzH7VpEt0bwKtGNTAzIppszLuO&#xA;uKqGrSaK/wDziXoq6fE0d3H5sddYdiaSXX1S4ZWWrNt9VaFdgNx07lV9p+TpNEk8o6HJoMbRaG+n&#xA;2raVE3LkloYVMCnmWaoj4jck4oTSaaGCF5pnWKGJS8srkKqqoqzMx2AA6nFXwP8Al3x/5UX+bla8&#xA;f+dfp8/0hJTFKY+e30of84y/lkkqudXa91VrRxTgLZbuYXAIrWpdoabeOKtf85D8Rov5Xo210vlO&#xA;w9YH7YHpqBy79Q344Fee+Xa/UDX/AH4afcMKE0xV2KuxV9F/84x61b6P5U8xXlxQQpco8jnlxRIb&#xA;WWd2PBZHNEiOyqTgSz3/AKGM/LP/AKu8H/IrUP8Asjwod/0MZ+Wf/V3g/wCRWof9keKvOv8AnKy9&#xA;+u2Xk+54hQ51MAKSwor26gglUO9K9MVfPmKuxV2KpX5ir9QFP9+Cv3HFXoX/ADjxxOi/mgi73TeU&#xA;7/0QPtkemwPHv1K/hgSu8iNpJ/5xj/MxYg36XF7pRvCfs/VjdwfVqb9eYmr9GFUt/MTj/wAqL/KO&#xA;leP/ADsFfn+kI64q++IZoZ4UmhdZYZVDxSoQysrCqsrDYgjocUJX5xk0SPyjrkmvRtLoaafdNqsS&#xA;8uT2ghYzqOBVqmPkNiDir4s0mTRU/wCcS9aXUImku5PNiLo7qTSO6+qW7MzUZdvqqzLuDuencKVf&#xA;89W1BPyn/J231O4hnv10q6lCwn7NpKtqbMMtFNRAqoxpuytueuKo3/nNB4W/NXTxGyl00W3WYKQS&#xA;H+s3JAanfiVO/amKvLtE/wCOZD/sv+JnFDOvyv8AI1z51842WjIGW0r62ozL/uu2jIMhrvQtsi/5&#xA;RGKvpf8A5yJ/Lz/E/k5tUs4+WsaGGuIqD4pLelZ4voA5r7ig64pfGt/CZrOaMCpZTxHuNx+OKEV+&#xA;Rnm+28pfmr5f1i8cR2AnNteyO3BEhukaBpHP8sXqeof9XFKYXXnGy/L78yPOieVE03XPL+qpe6VH&#xA;ExuJLNrC7lWQxo8ckEjGNV9LmHodypIIbFWLaL5XD+YNI0vzXc3HljS9UVbiLUrq1kdVgnUiK5SJ&#xA;mh5xSOgX1FalN96Yq9s8q+cPzo/IywNpqGjr5n8gEC7tNQtpHlsliuCQklrfxLIkKTSyK3CVPi6q&#xA;FLliqjdY/Nb86Pzwsj5b8l+XG0Ty9fsLXVdTEkkibbzRzX5SGNIjHIheJIzIwFPiVihVeF695PSD&#xA;zdJ5a8pXz+bpgoQT6bbyMJpUTnOkCIZGmjjKmkg2YDkNsVTDVfPEvnOLyT5Y1g2uh6D5fSPTvrVt&#xA;CSsaTyotzeyIDydyiK7gH4mBYU5Yqn3/ADkv510zzV+aNzJpM0NzpGk20Om2FxbENFIkVZHZGX4S&#xA;BLM6grsQBTFWLaRCYtPhBFGYcz/sjUfhihGYq7FXYq9m/wCcefzJ8r+Wn1LRfMbm2tdTkikt774g&#xA;kciBkKyMnxKGDfaHvXbAl7hrX5Mfln5oRb36jblbk+qt7ZcYiyncFHtykb1/mdXriq7Svyl/LPyj&#xA;bvfmztLaC2+OS+u+LlV6Vea5MvA+8fDFXz//AM5A/mP5e826ppdj5fLTaboyTj644cGWW4ZS/Hme&#xA;TKBEp5NuSThQ8nxV2KuxVB6vCZdPmAFWUcx/sTU/hirJ/wDnGvzlpXlf8z4DrMsEGi6xaz6XqM90&#xA;QIUjmAkQuW+EKZYkVi21Ca4pSPSvPEvkyLzt5Y0c2uuaD5gSTTvrVzCQsiQSuttexoTyRwjs6An4&#xA;WIY144ql+g+T0n83R+WvNt8/lGYqUM+pW8iiGV05wJOjmNoY5CwrIdlB5HbFXumj/mt+dH5H2Q8t&#xA;+dPLja35esGNrpWpmSSNN94Y4b8JNG8QjjcpE8YkUGnwqoQKoLzV5w/Oj887AWmn6OvljyAAbu71&#xA;C5keKyaK3IDyXV/KsaTJDLGzcIk+HqwYoGCrxPWvK4TzBq+l+VLm48z6XpatcS6la2siK0ECgS3L&#xA;xK03CKN3K+ozUpvtXFWU2vnGy/MH8yPJaea003Q/L+lJZaVJEpuI7NbC0laQRu8kk8imRW9LmXoN&#xA;ixABbFUv/PPzfbebfzV8waxZuJLAzi2spEbmjw2qLAsiH+WX0/UH+tiqFsITDZwxkUKqOQ9zufxx&#xA;Q+yv+cdvy8/wx5OXVLyPjrGuBbiWo+KO3pWCL6Qebe5oemKXq2KHxb+e35eHyd50lNrHw0XVeV1p&#xA;1BRUqf3sI/4xsdv8krirw7WLI212xA/dS1ZPD3H0Ypelfln+XHk38wfJuoaPpdy9l+Z1pIbqzhup&#xA;R9WvrVFNYYBRAjfzcuRqAa8S3BVNdJ8+6Ff6TH+Wv532F9CmjSBNK1+JeOp6aSVDQyK6uzwNH/kv&#xA;sF+FqIyKoxPyG8+aj5c1Gx/Lvz1Y+bPKrehPLo1pfSWzyvLwcG4sWZreGRWStJZQ1E7N8IVW6f8A&#xA;84/fmhpvl5dP82+bdP8AJPla/uwL3Tb/AFPjHIw4MZRbxt9Umf8AdqVDSg/COmxxVCS+e/J3krTp&#xA;fK35Nx3eq+aNaWKyv/OckTpdSCQLW20u34iWL1JTTpyBG3NgkiqoXzl+VflL8vvyxi/xfLLJ+Zmt&#xA;vHcaZpdtMoFlaLUMblaMpDEnkepcBY6BZGKrybTbM3d0sf7A+KQ/5I/rirLwABQbAdBih2KuxV2K&#xA;uxVlvkj80/OvkxyNFviLR687CcerbEn9r0yfhb/KWhxVR86/mT5w853Al1y/aWBDWGyj/d28Z8Vj&#xA;G1d/tNVvfFWMYq7FXYq7FXEAih3B6jFWIalZm0umj/YPxRn/ACT/AExS9Z8m/lX5S/MH8sZf8ISy&#xA;x/mZojyXGp6XczAi9tGoFNstFUBSBxPUOSslQ0bBVFRee/J3nXTovK35yR3eleaNFWWysPOccTvd&#xA;RiMNS21S34mWX05RTpyJO/Bi8jKovUP+cfvzQ1Ly82n+UvNun+dvK1hdkWWm2Gp8o42PNhKbeRvq&#xA;kL/vGLBZSfiPXc4quf8AIbz5p3lzTrH8xPPVj5T8qr688ejXd9JcvE8XNybexVlt5pGZ60ilLUfu&#xA;3wlVB6t590Kw0mT8tfyQsL6ZNZkKarr8q8tT1IgsFhjVFRkgWP8AyU2LfCtXZ1Uq/Mz8uPJv5feT&#xA;dP0fVLl738zruQXV5Dayj6tY2rqKQzijh2/l48TUk14hearzXR7I3N2pI/dRUZz29h9OKvcfyJ/L&#xA;w+cfOkRuo+ei6VxutRqKq9D+6hP/ABkYb/5IbFD7SxV2KsH/ADi8gJ518lXVhEgOq2v+laW5oD6y&#xA;A/u6+Ei1X50PbFXwzqOniZJLW4UpIhIIIoyOu3Q+GKsaRtU0XUYbq2nktLy3cS2t3A7RurKah43W&#xA;jKR7Ypex2354+R/OunRaZ+cPl5tRvbeIw2fmrSuMN+gIIT1EBjVuDOz9Slf91HfFUn88flx+TkHl&#xA;vVfMXkj8wF1EWPoC28v30HpXsxllSJ+LyG1ZwoZpPgt9gN/HFUD+Xn5f/lfqmgpr3nPz1HoUaXbw&#xA;TaLDB695JDGEb1EKNI6c+ZAJgYbd8VZW35xflf8Al7azWn5SaA9xrTo0L+cNaAknAPIc4Iu1Vb+W&#xA;NdhzRsVeN6jqOueZdauNR1K5kv8AU7x/UubqY8mJ6VJ7KBsANgNhiqeafYRWcPBd3O7v4n+mKE20&#xA;aGObWLGGVQ8UlxEkiHoVZwCPuxKh9Cfmdrv5ZeSvNSeXf+VdWOp+rBFN68brC/75mXisYhkJPw7f&#xA;FgSyTSvyZ8gWn5kIV0hH0rUtHkul0q8/e/V7iOeFWIVyzLVZaUJNDWnsqkX5kaX5b8veTtQvpfJf&#xA;lpS6G2hlsdQaa4jknBRJEjaxh5FCeX2x0xVR1rylrceuSWXlryP5Vv8ATYYLeVHujGt2Va3jeVpU&#xA;+sxlf3jNQlBtTriqTeb7XyL5Y0XXfM2gaJpOsLJ5gg0qBLkPdWUcX6MS5mFuEeLf6yXHKvTbFUv8&#xA;m3Oged9J1Zr/AMr6Pp0mlXGlyW8umwSQs31i+SGRJOcsoZGQkccSoZfJo3lxfPf6H+q+QF00agLY&#xA;2bi5Gp+j6vEx8f7r6xx2A+zyxVg/ml/Lvk7y9pN1pvlmwum1a/1lZV1iGSaaKOyvfRgjoJI+BWPZ&#xA;h4j54UII6zpF15F/xcfLGjRX+naqLFLWK3lW1lintmY+tH6pLMrAFTyFPvwJVde81aVYeU/LOrQ+&#xA;UdAN1rUd490r2khRTbXJhT0wJQR8Iqak74UPKWPJi1AKmtB0HyxVCahYRXkPBtnG6P4H+mKpHp2o&#xA;655a1q31HTbmSw1Ozf1La6hPFgelQe6kbEHYjY4peyL+cX5X/mFaw2n5t6A9vrSIsKecNFAjnIHE&#xA;c54u9FX+WRdzwRcVYp+Yf5f/AJX6XoL695M89R67G92kEOizQeheRwyB29Ry7Ru/DgASIFG/bFUd&#xA;5H/Lj8nJ/LeleYvO/wCYC6cL71xc+X7GD1b2ExSvEnJ4zdMgYKsnx2+4O3jiqdXX56eSfJelSaT+&#xA;T3l06ddzR+ld+a9UVJtQkqqq/BayBQxjR6chGGrSIHfFXjTtqmtajNdXM8l3eXDmW6u53aR2ZjUv&#xA;I7VZiffFWS6dp4hSO1t1LyOQAAKs7tt0Hjih9zfk75ATyV5KtbCVANVuv9K1RxQn1nA/d18I1ovz&#xA;qe+Ks4xV2KuxV8m/85L/AJefoPzOvmSxi46ZrjE3AUfDHeDeT5eqPjHvyxV4rNBFNGY5UDoexxVJ&#xA;7ny2CSbaSn+Q/T7x/TFUC2hamDQRBvcMv8SMUtDQ9TJoYgPcsv8AA4qjbfy21a3EoA/lT+p/pihO&#xA;Le2gt4+EKBF706n5nFVXFVazuZLW7guowDJBIsqBqkEowYVpTbbFXrsv/OUvn2R/V/RejLcAUS4F&#xA;tOZF+Ra4bxxVBeU/zi/Me687XvmBZbG61GSxeCT9IBo7WC1jdZSI1ieLjRh4mtcCWPS/lB51hsYL&#xA;2eCCGCeSWJGe4jArAZQ5LV48R9Xc1r036Y2tJp5hP5i2mrf8rGu3t9F1OOSGBYYnMcqyW9tDGI/Q&#xA;cyN8UDIzqxoQ3htitMjstT89XVikFt5c8t6vputXtrcmwCSSQLfXaywR3Rj9ZBE0ot3VqfAOPQV3&#xA;U0g7nzL5ytb+x8uaZofl7R7zWHtLqSPTYmVpFgcXEMdwzSycV5KCeNDt1xVHN5o813HmUXB8reUh&#xA;rEssdymptDLUzzTvFG4kac/H68RG4642tIbRJvzF1ovpM+j6J5kNrObqK5v0MtH1cS3pMRikiqJv&#xA;Rd/s+A8BjaKY7+YepeYrfRLfRrux0bSbGa5e4ay0cbySxVhEkh5zfCNwpVqH3xCkMO1DX7++0jSt&#xA;KnCfVdHWZLTiCGpcSmZ+Zrv8R2woS3FXYqpXFtBcR8JkDr2r1HyOKpPceW2rW3lBH8r/ANR/TFUG&#xA;dD1MHaIH3DL/ABOKXLoWpk0MQX3LL/AnFUdbeWwCDcyV/wAhOn3n+mKE4hgihjEcSBEHYYq9q/5x&#xA;o/Lz9OeZ28yX0XLTNDYG3DD4ZLw7x/P0h8Z9+OKvrLFXYq7FXYqkHnzyfY+b/Kt/oN3RRcpW3mpU&#xA;xTpvFIP9VuviKjvir4P1XTL3StTutMv4jDe2UrwXER/ZeNirCo67jriqFxV2KuxV2KuxV2KuxV2K&#xA;q9nfXtjcLc2VxJa3CVCzQu0bgEUNGUg7jFXv/lD/AJx08y615bttT1jzRdadcalEZHsVR5qQzcnC&#xA;ysZUqX9Z2ZadWNdycCU6b/nF28a2mtW873ptbludxAYGMcjbfE6+vRj8C7nwGK2pxf8AOKjxCMRe&#xA;cbqMRPHJEFt6cXiLGNlpPsULtxPapp1wqvuf+cXLu69H6152vJ/q6lLf1YC/pqwAKpynPEECm2Bb&#xA;cP8AnFu6FpFZjzreC0gcSwW4gPpo4JIdE9firVJNRitpP5y/5x18y6R5TuLrSvNN1qf6MjaWPSnV&#xA;4kMSCsgipK4DBakLx36Yq8Eu9Y1e9hSC8vri5gjYukU0ryIrNUswViQCa7nChB4q7FXYq7FXYq7F&#xA;XYq7FUVpWmXuq6na6ZYRGa9vZUgt4h+08jBVFT03PXFX3h5D8n2PlDyrYaDaUYWyVuJqUMs77yyH&#xA;/Wbp4Cg7Yqn+KuxV2KuxV2Kvm3/nKb8vDHNB53sIzwl4WusBR0YDjBMfmB6Z/wBj44q+eMVdirsV&#xA;dirsVdirsVdir0r8hfy8/wAYec45buMtoukcbq/qPhdq/uYT/rstT/kg4q+z8VdirsVdirsVdir4&#xA;w/Pr8vP8H+c5JbSMrour8rqwoPhRq/voR/qM1R/kkYq81xV2KuxV2KuxV2KuxV2Kvof/AJxZ/Lwy&#xA;TT+d7+M8Iudro4YdWI4zzD5A+mP9l4Yq+ksVdirsVdirsVdiqB13RdP1zR7zSNQj9SyvomhnXavF&#xA;xSqkg0ZeqnscVfBvnHytf+VvMt/oN8P39lKUEgFBJGfijkWvZ0IOKpNirsVemfk/+St/5/ee9nuT&#xA;p+hWj+lLcqoeSSWgYxxg0GysCzHpUbHFWZfmN/zjCmjaDc6x5Z1Ca8+oxma5sLsIZGjQVkaOSMIK&#xA;qBXiV38a7FS8BxQ7FV0UUksqRRKXlkYKiKKlmY0AAHc4q+4vyi8gx+SfJdrprqP0lP8A6Tqkgoaz&#xA;uBVAe6xgBB8q98VZrirsVdirsVdirsVYV+bvkGPzt5LutNRR+koP9J0uQ0FJ0BohPZZASh+de2Kv&#xA;h2WKSKV4pVKSxsVdGFCrKaEEHuMVW4q7FXv35cf84wx6zoVtrHmfUJ7P69GJrawtAgkWNxWNpJJA&#xA;4qwNeAXp3r0UsN/OD8lb/wAgPBewXJ1DQrt/SiuWUJJHLQsI5AKjdVJVh1odhih5nirsVTnyd5Wv&#xA;/NPmWw0GxH7+9lCGQiojjHxSSNTsiAnFX3loWi6foej2ekafH6dlYxLDAu1eKClWIAqzdWPc4qjs&#xA;VdirsVdirsVdirsVeHf85Pfl5+ldBi822Mdb/SF9O+CjeS0Zq8v+eLmv+qT4Yq+V8Vdir6i/5xY8&#xA;4aM/lq48ryTJDq0FzJcxQsQDNDIq/ElftFSp5Dwpil6n+YPnLR/Kfle91PUpY1IidbS2ehaeYqeE&#xA;SoftVPXwG52xQ+CsVdir2v8A5xl/L39M+ZH80X0fLTdEYC1DDaS9Iqv/ACKU8/8AW44q+rsVdirs&#xA;VdirsVdirsVdir5R/wCcmvy9/Q3mRPNFjHx03W2Iugo2jvQKt/yNUc/9blirxTFXYq+9vy/85aP5&#xA;t8sWWqabLGSYkW6tkIDW8wWjxMg3WhHw+I3G2KvK/wDnKfzhoyeWrfyvHMk2rT3MdzLCpBMMMat8&#xA;T0+yWLDiPCuKXy7ih2Kvqj/nGH8vP0VoMvm2+jpf6uvp2IYbx2itXl/z2cV/1QPHFXuOKuxV2Kux&#xA;V2KuxV2KuxVZcW8FzBJbzossEyNHLEwqrIwoykHqCDir4Y/NXyJP5K853mkUJsXP1jTJTU87aQnh&#xA;uepQgo3uMVYhiq5HdHDoxV1NVZTQgjuCMVVbq+vbxxJd3Elw6jiryuzkKOwLE7YqoYqi9I0q+1fV&#xA;LXS7CMzXt7KsNvGO7uaD5DxOKvvHyN5SsfKXlbT9Bs6FbSMCaUChlmb4pZD/AKzk/IbdsVT3FXYq&#xA;7FXYq7FXYq7FXYqkXnnylY+bfK2oaDeUC3cZEMpFTFMvxRSD/VcD5jbvir4O1fSr7SNUutLv4zDe&#xA;2UrQ3EZ7OhofmPA4qhMVV7S+vbNy9pcSW7sKM0TshI8CVIxVSd3dy7sWdjVmY1JJ7knFVuKsv/Kr&#xA;yJP51852ekUIsUP1jU5RUcLaMjnuOhckIvucVfc9vbwW0EdvAixQQoscUSiiqiiiqAOgAGKr8Vdi&#xA;rsVdirsVdirsVdirsVeSf85B/wDKrP0Xp/8AjX619b5v+jv0Zw+ucaD1Ker+79OvGvPv074q8H/6&#xA;x1/7+/8A7lmKu/6x1/7+/wD7lmKu/wCsdf8Av7/+5Zirv+sdf+/v/wC5Zir0v8iP+VH/AOLh/h79&#xA;K/p/0n+pfpr0OlP3nofV/g58K/a3pWnfFL6IxQ7FXYq7FXYq7FXYq7FXYq7FXzt+e/8Ayo//ABd/&#xA;zsP6V/T/AKSfXf0L6HTj+79f6x8HPhT7O9KVxS81/wCsdf8Av7/+5Zih3/WOv/f3/wDcsxV3/WOv&#xA;/f3/APcsxV3/AFjr/wB/f/3LMVe8f84+/wDKrP0XqH+CvrX1vnH+kf0lw+ucaH06+n+74V5fY79e&#xA;2KXreKHYq7FXYq7FX//Z</xmpGImg:image>
               </rdf:li>
            </rdf:Alt>
         </xmp:Thumbnails>
         <xmpMM:InstanceID>xmp.iid:3bd75748-5b4e-ca46-991c-17253e47c504</xmpMM:InstanceID>
         <xmpMM:DocumentID>xmp.did:3bd75748-5b4e-ca46-991c-17253e47c504</xmpMM:DocumentID>
         <xmpMM:OriginalDocumentID>uuid:5D20892493BFDB11914A8590D31508C8</xmpMM:OriginalDocumentID>
         <xmpMM:RenditionClass>proof:pdf</xmpMM:RenditionClass>
         <xmpMM:DerivedFrom rdf:parseType="Resource">
            <stRef:instanceID>xmp.iid:8a6d1437-c949-c54d-a49a-155efd96e62b</stRef:instanceID>
            <stRef:documentID>xmp.did:8a6d1437-c949-c54d-a49a-155efd96e62b</stRef:documentID>
            <stRef:originalDocumentID>uuid:5D20892493BFDB11914A8590D31508C8</stRef:originalDocumentID>
            <stRef:renditionClass>proof:pdf</stRef:renditionClass>
         </xmpMM:DerivedFrom>
         <xmpMM:History>
            <rdf:Seq>
               <rdf:li rdf:parseType="Resource">
                  <stEvt:action>saved</stEvt:action>
                  <stEvt:instanceID>xmp.iid:8a6d1437-c949-c54d-a49a-155efd96e62b</stEvt:instanceID>
                  <stEvt:when>2020-06-03T14:28:39+08:00</stEvt:when>
                  <stEvt:softwareAgent>Adobe Illustrator CC 22.0 (Windows)</stEvt:softwareAgent>
                  <stEvt:changed>/</stEvt:changed>
               </rdf:li>
               <rdf:li rdf:parseType="Resource">
                  <stEvt:action>saved</stEvt:action>
                  <stEvt:instanceID>xmp.iid:3bd75748-5b4e-ca46-991c-17253e47c504</stEvt:instanceID>
                  <stEvt:when>2020-06-03T14:32:29+08:00</stEvt:when>
                  <stEvt:softwareAgent>Adobe Illustrator CC 22.0 (Windows)</stEvt:softwareAgent>
                  <stEvt:changed>/</stEvt:changed>
               </rdf:li>
            </rdf:Seq>
         </xmpMM:History>
         <illustrator:StartupProfile>Print</illustrator:StartupProfile>
         <xmpTPg:HasVisibleOverprint>False</xmpTPg:HasVisibleOverprint>
         <xmpTPg:HasVisibleTransparency>False</xmpTPg:HasVisibleTransparency>
         <xmpTPg:NPages>1</xmpTPg:NPages>
         <xmpTPg:MaxPageSize rdf:parseType="Resource">
            <stDim:w>33.052221</stDim:w>
            <stDim:h>16.882814</stDim:h>
            <stDim:unit>Millimeters</stDim:unit>
         </xmpTPg:MaxPageSize>
         <xmpTPg:PlateNames>
            <rdf:Seq>
               <rdf:li>Cyan</rdf:li>
               <rdf:li>Magenta</rdf:li>
               <rdf:li>Yellow</rdf:li>
               <rdf:li>Black</rdf:li>
            </rdf:Seq>
         </xmpTPg:PlateNames>
         <xmpTPg:SwatchGroups>
            <rdf:Seq>
               <rdf:li rdf:parseType="Resource">
                  <xmpG:groupName>ÈªòËÆ§Ëâ≤ÊùøÁªÑ</xmpG:groupName>
                  <xmpG:groupType>0</xmpG:groupType>
                  <xmpG:Colorants>
                     <rdf:Seq>
                        <rdf:li rdf:parseType="Resource">
                           <xmpG:swatchName>ÁôΩËâ≤</xmpG:swatchName>
                           <xmpG:mode>CMYK</xmpG:mode>
                           <xmpG:type>PROCESS</xmpG:type>
                           <xmpG:cyan>0.000000</xmpG:cyan>
                           <xmpG:magenta>0.000000</xmpG:magenta>
                           <xmpG:yellow>0.000000</xmpG:yellow>
                           <xmpG:black>0.000000</xmpG:black>
                        </rdf:li>
                        <rdf:li rdf:parseType="Resource">
                           <xmpG:swatchName>ÈªëËâ≤</xmpG:swatchName>
                           <xmpG:mode>CMYK</xmpG:mode>
                           <xmpG:type>PROCESS</xmpG:type>
                           <xmpG:cyan>0.000000</xmpG:cyan>
                           <xmpG:magenta>0.000000</xmpG:magenta>
                           <xmpG:yellow>0.000000</xmpG:yellow>
                           <xmpG:black>100.000000</xmpG:black>
                        </rdf:li>
                        <rdf:li rdf:parseType="Resource">
                           <xmpG:swatchName>CMYK Á∫¢</xmpG:swatchName>
                           <xmpG:mode>CMYK</xmpG:mode>
                           <xmpG:type>PROCESS</xmpG:type>
                           <xmpG:cyan>0.000000</xmpG:cyan>
                           <xmpG:magenta>100.000000</xmpG:magenta>
                           <xmpG:yellow>100.000000</xmpG:yellow>
                           <xmpG:black>0.000000</xmpG:black>
                        </rdf:li>
                        <rdf:li rdf:parseType="Resource">
                           <xmpG:swatchName>CMYK ÈªÑ</xmpG:swatchName>
                           <xmpG:mode>CMYK</xmpG:mode>
                           <xmpG:type>PROCESS</xmpG:type>
                           <xmpG:cyan>0.000000</xmpG:cyan>
                           <xmpG:magenta>0.000000</xmpG:magenta>
                           <xmpG:yellow>100.000000</xmpG:yellow>
                           <xmpG:black>0.000000</xmpG:black>
                        </rdf:li>
                        <rdf:li rdf:parseType="Resource">
                           <xmpG:swatchName>CMYK Áªø</xmpG:swatchName>
                           <xmpG:mode>CMYK</xmpG:mode>
                           <xmpG:type>PROCESS</xmpG:type>
                           <xmpG:cyan>100.000000</xmpG:cyan>
                           <xmpG:magenta>0.000000</xmpG:magenta>
                           <xmpG:yellow>100.000000</xmpG:yellow>
                           <xmpG:black>0.000000</xmpG:black>
                        </rdf:li>
                        <rdf:li rdf:parseType="Resource">
                           <xmpG:swatchName>CMYK Èùí</xmpG:swatchName>
                           <xmpG:mode>CMYK</xmpG:mode>
                           <xmpG:type>PROCESS</xmpG:type>
                           <xmpG:cyan>100.000000</xmpG:cyan>
                           <xmpG:magenta>0.000000</xmpG:magenta>
                           <xmpG:yellow>0.000000</xmpG:yellow>
                           <xmpG:black>0.000000</xmpG:black>
                        </rdf:li>
                        <rdf:li rdf:parseType="Resource">
                           <xmpG:swatchName>CMYK Ëìù</xmpG:swatchName>
                           <xmpG:mode>CMYK</xmpG:mode>
                           <xmpG:type>PROCESS</xmpG:type>
                           <xmpG:cyan>100.000000</xmpG:cyan>
                           <xmpG:magenta>100.000000</xmpG:magenta>
                           <xmpG:yellow>0.000000</xmpG:yellow>
                           <xmpG:black>0.000000</xmpG:black>
                        </rdf:li>
                        <rdf:li rdf:parseType="Resource">
                           <xmpG:swatchName>CMYK Ê¥ãÁ∫¢</xmpG:swatchName>
                           <xmpG:mode>CMYK</xmpG:mode>
                           <xmpG:type>PROCESS</xmpG:type>
                           <xmpG:cyan>0.000000</xmpG:cyan>
                           <xmpG:magenta>100.000000</xmpG:magenta>
                           <xmpG:yellow>0.000000</xmpG:yellow>
                           <xmpG:black>0.000000</xmpG:black>
                        </rdf:li>
                        <rdf:li rdf:parseType="Resource">
                           <xmpG:swatchName>C=15 M=100 Y=90 K=10</xmpG:swatchName>
                           <xmpG:mode>CMYK</xmpG:mode>
                           <xmpG:type>PROCESS</xmpG:type>
                           <xmpG:cyan>15.000000</xmpG:cyan>
                           <xmpG:magenta>100.000000</xmpG:magenta>
                           <xmpG:yellow>90.000000</xmpG:yellow>
                           <xmpG:black>10.000000</xmpG:black>
                        </rdf:li>
                        <rdf:li rdf:parseType="Resource">
                           <xmpG:swatchName>C=0 M=90 Y=85 K=0</xmpG:swatchName>
                           <xmpG:mode>CMYK</xmpG:mode>
                           <xmpG:type>PROCESS</xmpG:type>
                           <xmpG:cyan>0.000000</xmpG:cyan>
                           <xmpG:magenta>90.000000</xmpG:magenta>
                           <xmpG:yellow>85.000000</xmpG:yellow>
                           <xmpG:black>0.000000</xmpG:black>
                        </rdf:li>
                        <rdf:li rdf:parseType="Resource">
                           <xmpG:swatchName>C=0 M=80 Y=95 K=0</xmpG:swatchName>
                           <xmpG:mode>CMYK</xmpG:mode>
                           <xmpG:type>PROCESS</xmpG:type>
                           <xmpG:cyan>0.000000</xmpG:cyan>
                           <xmpG:magenta>80.000000</xmpG:magenta>
                           <xmpG:yellow>95.000000</xmpG:yellow>
                           <xmpG:black>0.000000</xmpG:black>
                        </rdf:li>
                        <rdf:li rdf:parseType="Resource">
                           <xmpG:swatchName>C=0 M=50 Y=100 K=0</xmpG:swatchName>
                           <xmpG:mode>CMYK</xmpG:mode>
                           <xmpG:type>PROCESS</xmpG:type>
                           <xmpG:cyan>0.000000</xmpG:cyan>
                           <xmpG:magenta>50.000000</xmpG:magenta>
                           <xmpG:yellow>100.000000</xmpG:yellow>
                           <xmpG:black>0.000000</xmpG:black>
                        </rdf:li>
                        <rdf:li rdf:parseType="Resource">
                           <xmpG:swatchName>C=0 M=35 Y=85 K=0</xmpG:swatchName>
                           <xmpG:mode>CMYK</xmpG:mode>
                           <xmpG:type>PROCESS</xmpG:type>
                           <xmpG:cyan>0.000000</xmpG:cyan>
                           <xmpG:magenta>35.000000</xmpG:magenta>
                           <xmpG:yellow>85.000000</xmpG:yellow>
                           <xmpG:black>0.000000</xmpG:black>
                        </rdf:li>
                        <rdf:li rdf:parseType="Resource">
                           <xmpG:swatchName>C=5 M=0 Y=90 K=0</xmpG:swatchName>
                           <xmpG:mode>CMYK</xmpG:mode>
                           <xmpG:type>PROCESS</xmpG:type>
                           <xmpG:cyan>5.000000</xmpG:cyan>
                           <xmpG:magenta>0.000000</xmpG:magenta>
                           <xmpG:yellow>90.000000</xmpG:yellow>
                           <xmpG:black>0.000000</xmpG:black>
                        </rdf:li>
                        <rdf:li rdf:parseType="Resource">
                           <xmpG:swatchName>C=20 M=0 Y=100 K=0</xmpG:swatchName>
                           <xmpG:mode>CMYK</xmpG:mode>
                           <xmpG:type>PROCESS</xmpG:type>
                           <xmpG:cyan>20.000000</xmpG:cyan>
                           <xmpG:magenta>0.000000</xmpG:magenta>
                           <xmpG:yellow>100.000000</xmpG:yellow>
                           <xmpG:black>0.000000</xmpG:black>
                        </rdf:li>
                        <rdf:li rdf:parseType="Resource">
                           <xmpG:swatchName>C=50 M=0 Y=100 K=0</xmpG:swatchName>
                           <xmpG:mode>CMYK</xmpG:mode>
                           <xmpG:type>PROCESS</xmpG:type>
                           <xmpG:cyan>50.000000</xmpG:cyan>
                           <xmpG:magenta>0.000000</xmpG:magenta>
                           <xmpG:yellow>100.000000</xmpG:yellow>
                           <xmpG:black>0.000000</xmpG:black>
                        </rdf:li>
                        <rdf:li rdf:parseType="Resource">
                           <xmpG:swatchName>C=75 M=0 Y=100 K=0</xmpG:swatchName>
                           <xmpG:mode>CMYK</xmpG:mode>
                           <xmpG:type>PROCESS</xmpG:type>
                           <xmpG:cyan>75.000000</xmpG:cyan>
                           <xmpG:magenta>0.000000</xmpG:magenta>
                           <xmpG:yellow>100.000000</xmpG:yellow>
                           <xmpG:black>0.000000</xmpG:black>
                        </rdf:li>
                        <rdf:li rdf:parseType="Resource">
                           <xmpG:swatchName>C=85 M=10 Y=100 K=10</xmpG:swatchName>
                           <xmpG:mode>CMYK</xmpG:mode>
                           <xmpG:type>PROCESS</xmpG:type>
                           <xmpG:cyan>85.000000</xmpG:cyan>
                           <xmpG:magenta>10.000000</xmpG:magenta>
                           <xmpG:yellow>100.000000</xmpG:yellow>
                           <xmpG:black>10.000000</xmpG:black>
                        </rdf:li>
                        <rdf:li rdf:parseType="Resource">
                           <xmpG:swatchName>C=90 M=30 Y=95 K=30</xmpG:swatchName>
                           <xmpG:mode>CMYK</xmpG:mode>
                           <xmpG:type>PROCESS</xmpG:type>
                           <xmpG:cyan>90.000000</xmpG:cyan>
                           <xmpG:magenta>30.000000</xmpG:magenta>
                           <xmpG:yellow>95.000000</xmpG:yellow>
                           <xmpG:black>30.000000</xmpG:black>
                        </rdf:li>
                        <rdf:li rdf:parseType="Resource">
                           <xmpG:swatchName>C=75 M=0 Y=75 K=0</xmpG:swatchName>
                           <xmpG:mode>CMYK</xmpG:mode>
                           <xmpG:type>PROCESS</xmpG:type>
                           <xmpG:cyan>75.000000</xmpG:cyan>
                           <xmpG:magenta>0.000000</xmpG:magenta>
                           <xmpG:yellow>75.000000</xmpG:yellow>
                           <xmpG:black>0.000000</xmpG:black>
                        </rdf:li>
                        <rdf:li rdf:parseType="Resource">
                           <xmpG:swatchName>C=80 M=10 Y=45 K=0</xmpG:swatchName>
                           <xmpG:mode>CMYK</xmpG:mode>
                           <xmpG:type>PROCESS</xmpG:type>
                           <xmpG:cyan>80.000000</xmpG:cyan>
                           <xmpG:magenta>10.000000</xmpG:magenta>
                           <xmpG:yellow>45.000000</xmpG:yellow>
                           <xmpG:black>0.000000</xmpG:black>
                        </rdf:li>
                        <rdf:li rdf:parseType="Resource">
                           <xmpG:swatchName>C=70 M=15 Y=0 K=0</xmpG:swatchName>
                           <xmpG:mode>CMYK</xmpG:mode>
                           <xmpG:type>PROCESS</xmpG:type>
                           <xmpG:cyan>70.000000</xmpG:cyan>
                           <xmpG:magenta>15.000000</xmpG:magenta>
                           <xmpG:yellow>0.000000</xmpG:yellow>
                           <xmpG:black>0.000000</xmpG:black>
                        </rdf:li>
                        <rdf:li rdf:parseType="Resource">
                           <xmpG:swatchName>C=85 M=50 Y=0 K=0</xmpG:swatchName>
                           <xmpG:mode>CMYK</xmpG:mode>
                           <xmpG:type>PROCESS</xmpG:type>
                           <xmpG:cyan>85.000000</xmpG:cyan>
                           <xmpG:magenta>50.000000</xmpG:magenta>
                           <xmpG:yellow>0.000000</xmpG:yellow>
                           <xmpG:black>0.000000</xmpG:black>
                        </rdf:li>
                        <rdf:li rdf:parseType="Resource">
                           <xmpG:swatchName>C=100 M=95 Y=5 K=0</xmpG:swatchName>
                           <xmpG:mode>CMYK</xmpG:mode>
                           <xmpG:type>PROCESS</xmpG:type>
                           <xmpG:cyan>100.000000</xmpG:cyan>
                           <xmpG:magenta>95.000000</xmpG:magenta>
                           <xmpG:yellow>5.000000</xmpG:yellow>
                           <xmpG:black>0.000000</xmpG:black>
                        </rdf:li>
                        <rdf:li rdf:parseType="Resource">
                           <xmpG:swatchName>C=100 M=100 Y=25 K=25</xmpG:swatchName>
                           <xmpG:mode>CMYK</xmpG:mode>
                           <xmpG:type>PROCESS</xmpG:type>
                           <xmpG:cyan>100.000000</xmpG:cyan>
                           <xmpG:magenta>100.000000</xmpG:magenta>
                           <xmpG:yellow>25.000000</xmpG:yellow>
                           <xmpG:black>25.000000</xmpG:black>
                        </rdf:li>
                        <rdf:li rdf:parseType="Resource">
                           <xmpG:swatchName>C=75 M=100 Y=0 K=0</xmpG:swatchName>
                           <xmpG:mode>CMYK</xmpG:mode>
                           <xmpG:type>PROCESS</xmpG:type>
                           <xmpG:cyan>75.000000</xmpG:cyan>
                           <xmpG:magenta>100.000000</xmpG:magenta>
                           <xmpG:yellow>0.000000</xmpG:yellow>
                           <xmpG:black>0.000000</xmpG:black>
                        </rdf:li>
                        <rdf:li rdf:parseType="Resource">
                           <xmpG:swatchName>C=50 M=100 Y=0 K=0</xmpG:swatchName>
                           <xmpG:mode>CMYK</xmpG:mode>
                           <xmpG:type>PROCESS</xmpG:type>
                           <xmpG:cyan>50.000000</xmpG:cyan>
                           <xmpG:magenta>100.000000</xmpG:magenta>
                           <xmpG:yellow>0.000000</xmpG:yellow>
                           <xmpG:black>0.000000</xmpG:black>
                        </rdf:li>
                        <rdf:li rdf:parseType="Resource">
                           <xmpG:swatchName>C=35 M=100 Y=35 K=10</xmpG:swatchName>
                           <xmpG:mode>CMYK</xmpG:mode>
                           <xmpG:type>PROCESS</xmpG:type>
                           <xmpG:cyan>35.000000</xmpG:cyan>
                           <xmpG:magenta>100.000000</xmpG:magenta>
                           <xmpG:yellow>35.000000</xmpG:yellow>
                           <xmpG:black>10.000000</xmpG:black>
                        </rdf:li>
                        <rdf:li rdf:parseType="Resource">
                           <xmpG:swatchName>C=10 M=100 Y=50 K=0</xmpG:swatchName>
                           <xmpG:mode>CMYK</xmpG:mode>
                           <xmpG:type>PROCESS</xmpG:type>
                           <xmpG:cyan>10.000000</xmpG:cyan>
                           <xmpG:magenta>100.000000</xmpG:magenta>
                           <xmpG:yellow>50.000000</xmpG:yellow>
                           <xmpG:black>0.000000</xmpG:black>
                        </rdf:li>
                        <rdf:li rdf:parseType="Resource">
                           <xmpG:swatchName>C=0 M=95 Y=20 K=0</xmpG:swatchName>
                           <xmpG:mode>CMYK</xmpG:mode>
                           <xmpG:type>PROCESS</xmpG:type>
                           <xmpG:cyan>0.000000</xmpG:cyan>
                           <xmpG:magenta>95.000000</xmpG:magenta>
                           <xmpG:yellow>20.000000</xmpG:yellow>
                           <xmpG:black>0.000000</xmpG:black>
                        </rdf:li>
                        <rdf:li rdf:parseType="Resource">
                           <xmpG:swatchName>C=25 M=25 Y=40 K=0</xmpG:swatchName>
                           <xmpG:mode>CMYK</xmpG:mode>
                           <xmpG:type>PROCESS</xmpG:type>
                           <xmpG:cyan>25.000000</xmpG:cyan>
                           <xmpG:magenta>25.000000</xmpG:magenta>
                           <xmpG:yellow>40.000000</xmpG:yellow>
                           <xmpG:black>0.000000</xmpG:black>
                        </rdf:li>
                        <rdf:li rdf:parseType="Resource">
                           <xmpG:swatchName>C=40 M=45 Y=50 K=5</xmpG:swatchName>
                           <xmpG:mode>CMYK</xmpG:mode>
                           <xmpG:type>PROCESS</xmpG:type>
                           <xmpG:cyan>40.000000</xmpG:cyan>
                           <xmpG:magenta>45.000000</xmpG:magenta>
                           <xmpG:yellow>50.000000</xmpG:yellow>
                           <xmpG:black>5.000000</xmpG:black>
                        </rdf:li>
                        <rdf:li rdf:parseType="Resource">
                           <xmpG:swatchName>C=50 M=50 Y=60 K=25</xmpG:swatchName>
                           <xmpG:mode>CMYK</xmpG:mode>
                           <xmpG:type>PROCESS</xmpG:type>
                           <xmpG:cyan>50.000000</xmpG:cyan>
                           <xmpG:magenta>50.000000</xmpG:magenta>
                           <xmpG:yellow>60.000000</xmpG:yellow>
                           <xmpG:black>25.000000</xmpG:black>
                        </rdf:li>
                        <rdf:li rdf:parseType="Resource">
                           <xmpG:swatchName>C=55 M=60 Y=65 K=40</xmpG:swatchName>
                           <xmpG:mode>CMYK</xmpG:mode>
                           <xmpG:type>PROCESS</xmpG:type>
                           <xmpG:cyan>55.000000</xmpG:cyan>
                           <xmpG:magenta>60.000000</xmpG:magenta>
                           <xmpG:yellow>65.000000</xmpG:yellow>
                           <xmpG:black>40.000000</xmpG:black>
                        </rdf:li>
                        <rdf:li rdf:parseType="Resource">
                           <xmpG:swatchName>C=25 M=40 Y=65 K=0</xmpG:swatchName>
                           <xmpG:mode>CMYK</xmpG:mode>
                           <xmpG:type>PROCESS</xmpG:type>
                           <xmpG:cyan>25.000000</xmpG:cyan>
                           <xmpG:magenta>40.000000</xmpG:magenta>
                           <xmpG:yellow>65.000000</xmpG:yellow>
                           <xmpG:black>0.000000</xmpG:black>
                        </rdf:li>
                        <rdf:li rdf:parseType="Resource">
                           <xmpG:swatchName>C=30 M=50 Y=75 K=10</xmpG:swatchName>
                           <xmpG:mode>CMYK</xmpG:mode>
                           <xmpG:type>PROCESS</xmpG:type>
                           <xmpG:cyan>30.000000</xmpG:cyan>
                           <xmpG:magenta>50.000000</xmpG:magenta>
                           <xmpG:yellow>75.000000</xmpG:yellow>
                           <xmpG:black>10.000000</xmpG:black>
                        </rdf:li>
                        <rdf:li rdf:parseType="Resource">
                           <xmpG:swatchName>C=35 M=60 Y=80 K=25</xmpG:swatchName>
                           <xmpG:mode>CMYK</xmpG:mode>
                           <xmpG:type>PROCESS</xmpG:type>
                           <xmpG:cyan>35.000000</xmpG:cyan>
                           <xmpG:magenta>60.000000</xmpG:magenta>
                           <xmpG:yellow>80.000000</xmpG:yellow>
                           <xmpG:black>25.000000</xmpG:black>
                        </rdf:li>
                        <rdf:li rdf:parseType="Resource">
                           <xmpG:swatchName>C=40 M=65 Y=90 K=35</xmpG:swatchName>
                           <xmpG:mode>CMYK</xmpG:mode>
                           <xmpG:type>PROCESS</xmpG:type>
                           <xmpG:cyan>40.000000</xmpG:cyan>
                           <xmpG:magenta>65.000000</xmpG:magenta>
                           <xmpG:yellow>90.000000</xmpG:yellow>
                           <xmpG:black>35.000000</xmpG:black>
                        </rdf:li>
                        <rdf:li rdf:parseType="Resource">
                           <xmpG:swatchName>C=40 M=70 Y=100 K=50</xmpG:swatchName>
                           <xmpG:mode>CMYK</xmpG:mode>
                           <xmpG:type>PROCESS</xmpG:type>
                           <xmpG:cyan>40.000000</xmpG:cyan>
                           <xmpG:magenta>70.000000</xmpG:magenta>
                           <xmpG:yellow>100.000000</xmpG:yellow>
                           <xmpG:black>50.000000</xmpG:black>
                        </rdf:li>
                        <rdf:li rdf:parseType="Resource">
                           <xmpG:swatchName>C=50 M=70 Y=80 K=70</xmpG:swatchName>
                           <xmpG:mode>CMYK</xmpG:mode>
                           <xmpG:type>PROCESS</xmpG:type>
                           <xmpG:cyan>50.000000</xmpG:cyan>
                           <xmpG:magenta>70.000000</xmpG:magenta>
                           <xmpG:yellow>80.000000</xmpG:yellow>
                           <xmpG:black>70.000000</xmpG:black>
                        </rdf:li>
                     </rdf:Seq>
                  </xmpG:Colorants>
               </rdf:li>
               <rdf:li rdf:parseType="Resource">
                  <xmpG:groupName>ÁÅ∞Ëâ≤</xmpG:groupName>
                  <xmpG:groupType>1</xmpG:groupType>
                  <xmpG:Colorants>
                     <rdf:Seq>
                        <rdf:li rdf:parseType="Resource">
                           <xmpG:swatchName>C=0 M=0 Y=0 K=100</xmpG:swatchName>
                           <xmpG:mode>CMYK</xmpG:mode>
                           <xmpG:type>PROCESS</xmpG:type>
                           <xmpG:cyan>0.000000</xmpG:cyan>
                           <xmpG:magenta>0.000000</xmpG:magenta>
                           <xmpG:yellow>0.000000</xmpG:yellow>
                           <xmpG:black>100.000000</xmpG:black>
                        </rdf:li>
                        <rdf:li rdf:parseType="Resource">
                           <xmpG:swatchName>C=0 M=0 Y=0 K=90</xmpG:swatchName>
                           <xmpG:mode>CMYK</xmpG:mode>
                           <xmpG:type>PROCESS</xmpG:type>
                           <xmpG:cyan>0.000000</xmpG:cyan>
                           <xmpG:magenta>0.000000</xmpG:magenta>
                           <xmpG:yellow>0.000000</xmpG:yellow>
                           <xmpG:black>89.999400</xmpG:black>
                        </rdf:li>
                        <rdf:li rdf:parseType="Resource">
                           <xmpG:swatchName>C=0 M=0 Y=0 K=80</xmpG:swatchName>
                           <xmpG:mode>CMYK</xmpG:mode>
                           <xmpG:type>PROCESS</xmpG:type>
                           <xmpG:cyan>0.000000</xmpG:cyan>
                           <xmpG:magenta>0.000000</xmpG:magenta>
                           <xmpG:yellow>0.000000</xmpG:yellow>
                           <xmpG:black>79.998800</xmpG:black>
                        </rdf:li>
                        <rdf:li rdf:parseType="Resource">
                           <xmpG:swatchName>C=0 M=0 Y=0 K=70</xmpG:swatchName>
                           <xmpG:mode>CMYK</xmpG:mode>
                           <xmpG:type>PROCESS</xmpG:type>
                           <xmpG:cyan>0.000000</xmpG:cyan>
                           <xmpG:magenta>0.000000</xmpG:magenta>
                           <xmpG:yellow>0.000000</xmpG:yellow>
                           <xmpG:black>69.999700</xmpG:black>
                        </rdf:li>
                        <rdf:li rdf:parseType="Resource">
                           <xmpG:swatchName>C=0 M=0 Y=0 K=60</xmpG:swatchName>
                           <xmpG:mode>CMYK</xmpG:mode>
                           <xmpG:type>PROCESS</xmpG:type>
                           <xmpG:cyan>0.000000</xmpG:cyan>
                           <xmpG:magenta>0.000000</xmpG:magenta>
                           <xmpG:yellow>0.000000</xmpG:yellow>
                           <xmpG:black>59.999100</xmpG:black>
                        </rdf:li>
                        <rdf:li rdf:parseType="Resource">
                           <xmpG:swatchName>C=0 M=0 Y=0 K=50</xmpG:swatchName>
                           <xmpG:mode>CMYK</xmpG:mode>
                           <xmpG:type>PROCESS</xmpG:type>
                           <xmpG:cyan>0.000000</xmpG:cyan>
                           <xmpG:magenta>0.000000</xmpG:magenta>
                           <xmpG:yellow>0.000000</xmpG:yellow>
                           <xmpG:black>50.000000</xmpG:black>
                        </rdf:li>
                        <rdf:li rdf:parseType="Resource">
                           <xmpG:swatchName>C=0 M=0 Y=0 K=40</xmpG:swatchName>
                           <xmpG:mode>CMYK</xmpG:mode>
                           <xmpG:type>PROCESS</xmpG:type>
                           <xmpG:cyan>0.000000</xmpG:cyan>
                           <xmpG:magenta>0.000000</xmpG:magenta>
                           <xmpG:yellow>0.000000</xmpG:yellow>
                           <xmpG:black>39.999400</xmpG:black>
                        </rdf:li>
                        <rdf:li rdf:parseType="Resource">
                           <xmpG:swatchName>C=0 M=0 Y=0 K=30</xmpG:swatchName>
                           <xmpG:mode>CMYK</xmpG:mode>
                           <xmpG:type>PROCESS</xmpG:type>
                           <xmpG:cyan>0.000000</xmpG:cyan>
                           <xmpG:magenta>0.000000</xmpG:magenta>
                           <xmpG:yellow>0.000000</xmpG:yellow>
                           <xmpG:black>29.998800</xmpG:black>
                        </rdf:li>
                        <rdf:li rdf:parseType="Resource">
                           <xmpG:swatchName>C=0 M=0 Y=0 K=20</xmpG:swatchName>
                           <xmpG:mode>CMYK</xmpG:mode>
                           <xmpG:type>PROCESS</xmpG:type>
                           <xmpG:cyan>0.000000</xmpG:cyan>
                           <xmpG:magenta>0.000000</xmpG:magenta>
                           <xmpG:yellow>0.000000</xmpG:yellow>
                           <xmpG:black>19.999700</xmpG:black>
                        </rdf:li>
                        <rdf:li rdf:parseType="Resource">
                           <xmpG:swatchName>C=0 M=0 Y=0 K=10</xmpG:swatchName>
                           <xmpG:mode>CMYK</xmpG:mode>
                           <xmpG:type>PROCESS</xmpG:type>
                           <xmpG:cyan>0.000000</xmpG:cyan>
                           <xmpG:magenta>0.000000</xmpG:magenta>
                           <xmpG:yellow>0.000000</xmpG:yellow>
                           <xmpG:black>9.999100</xmpG:black>
                        </rdf:li>
                        <rdf:li rdf:parseType="Resource">
                           <xmpG:swatchName>C=0 M=0 Y=0 K=5</xmpG:swatchName>
                           <xmpG:mode>CMYK</xmpG:mode>
                           <xmpG:type>PROCESS</xmpG:type>
                           <xmpG:cyan>0.000000</xmpG:cyan>
                           <xmpG:magenta>0.000000</xmpG:magenta>
                           <xmpG:yellow>0.000000</xmpG:yellow>
                           <xmpG:black>4.998800</xmpG:black>
                        </rdf:li>
                     </rdf:Seq>
                  </xmpG:Colorants>
               </rdf:li>
               <rdf:li rdf:parseType="Resource">
                  <xmpG:groupName>Êòé‰∫Æ</xmpG:groupName>
                  <xmpG:groupType>1</xmpG:groupType>
                  <xmpG:Colorants>
                     <rdf:Seq>
                        <rdf:li rdf:parseType="Resource">
                           <xmpG:swatchName>C=0 M=100 Y=100 K=0</xmpG:swatchName>
                           <xmpG:mode>CMYK</xmpG:mode>
                           <xmpG:type>PROCESS</xmpG:type>
                           <xmpG:cyan>0.000000</xmpG:cyan>
                           <xmpG:magenta>100.000000</xmpG:magenta>
                           <xmpG:yellow>100.000000</xmpG:yellow>
                           <xmpG:black>0.000000</xmpG:black>
                        </rdf:li>
                        <rdf:li rdf:parseType="Resource">
                           <xmpG:swatchName>C=0 M=75 Y=100 K=0</xmpG:swatchName>
                           <xmpG:mode>CMYK</xmpG:mode>
                           <xmpG:type>PROCESS</xmpG:type>
                           <xmpG:cyan>0.000000</xmpG:cyan>
                           <xmpG:magenta>75.000000</xmpG:magenta>
                           <xmpG:yellow>100.000000</xmpG:yellow>
                           <xmpG:black>0.000000</xmpG:black>
                        </rdf:li>
                        <rdf:li rdf:parseType="Resource">
                           <xmpG:swatchName>C=0 M=10 Y=95 K=0</xmpG:swatchName>
                           <xmpG:mode>CMYK</xmpG:mode>
                           <xmpG:type>PROCESS</xmpG:type>
                           <xmpG:cyan>0.000000</xmpG:cyan>
                           <xmpG:magenta>10.000000</xmpG:magenta>
                           <xmpG:yellow>95.000000</xmpG:yellow>
                           <xmpG:black>0.000000</xmpG:black>
                        </rdf:li>
                        <rdf:li rdf:parseType="Resource">
                           <xmpG:swatchName>C=85 M=10 Y=100 K=0</xmpG:swatchName>
                           <xmpG:mode>CMYK</xmpG:mode>
                           <xmpG:type>PROCESS</xmpG:type>
                           <xmpG:cyan>85.000000</xmpG:cyan>
                           <xmpG:magenta>10.000000</xmpG:magenta>
                           <xmpG:yellow>100.000000</xmpG:yellow>
                           <xmpG:black>0.000000</xmpG:black>
                        </rdf:li>
                        <rdf:li rdf:parseType="Resource">
                           <xmpG:swatchName>C=100 M=90 Y=0 K=0</xmpG:swatchName>
                           <xmpG:mode>CMYK</xmpG:mode>
                           <xmpG:type>PROCESS</xmpG:type>
                           <xmpG:cyan>100.000000</xmpG:cyan>
                           <xmpG:magenta>90.000000</xmpG:magenta>
                           <xmpG:yellow>0.000000</xmpG:yellow>
                           <xmpG:black>0.000000</xmpG:black>
                        </rdf:li>
                        <rdf:li rdf:parseType="Resource">
                           <xmpG:swatchName>C=60 M=90 Y=0 K=0</xmpG:swatchName>
                           <xmpG:mode>CMYK</xmpG:mode>
                           <xmpG:type>PROCESS</xmpG:type>
                           <xmpG:cyan>60.000000</xmpG:cyan>
                           <xmpG:magenta>90.000000</xmpG:magenta>
                           <xmpG:yellow>0.003100</xmpG:yellow>
                           <xmpG:black>0.003100</xmpG:black>
                        </rdf:li>
                     </rdf:Seq>
                  </xmpG:Colorants>
               </rdf:li>
            </rdf:Seq>
         </xmpTPg:SwatchGroups>
         <pdf:Producer>Adobe PDF library 10.01</pdf:Producer>
      </rdf:Description>
   </rdf:RDF>
</x:xmpmeta>
                                                                                                    
                                                                                                    
                                                                                                    
                                                                                                    
                                                                                                    
                                                                                                    
                                                                                                    
                                                                                                    
                                                                                                    
                                                                                                    
                                                                                                    
                                                                                                    
                                                                                                    
                                                                                                    
                                                                                                    
                                                                                                    
                                                                                                    
                                                                                                    
                                                                                                    
                                                                                                    
                           
<?xpacket end="w"?>
	</metadata>
<linearGradient id="SVGID_1_" gradientUnits="userSpaceOnUse" x1="-528.8116" y1="-261.7702" x2="-528.1045" y2="-261.0631">
	<stop  offset="0" style="stop-color:#E6E7EA"/>
	<stop  offset="0.1738" style="stop-color:#E2E3E6"/>
	<stop  offset="0.352" style="stop-color:#D6D6D8"/>
	<stop  offset="0.5323" style="stop-color:#C0C0C1"/>
	<stop  offset="0.7139" style="stop-color:#A3A4A3"/>
	<stop  offset="0.8949" style="stop-color:#7F8281"/>
	<stop  offset="1" style="stop-color:#686E6C"/>
</linearGradient>
<g>
	<path class="st0" d="M93.5,17.2L84.2,0.6C83.9,0.2,83.5,0,83.1,0h-20c-0.4,0-0.8,0.2-1,0.5l-1.9,2.4c-0.2,0.3-0.6,0.5-1,0.5H34.5
		c-0.4,0-0.8-0.2-1-0.5l-1.9-2.4C31.4,0.2,31,0,30.6,0h-20c-0.5,0-0.9,0.2-1.1,0.6L0.2,17.2c-0.2,0.4-0.2,0.9,0,1.2l16,28.8
		c0.2,0.4,0.6,0.6,1.1,0.6h12.9c0.5,0,0.9-0.2,1.1-0.6l7.3-13.1c0.2-0.4,0.6-0.6,1.1-0.6H54c0.5,0,0.9,0.2,1.1,0.6l7.3,13.1
		c0.2,0.4,0.6,0.6,1.1,0.6h12.9c0.5,0,0.9-0.2,1.1-0.6l16-28.8C93.7,18.1,93.7,17.6,93.5,17.2z M23.8,44.2c-1.4,0-2.5-1.1-2.5-2.5
		c0-1.4,1.1-2.5,2.5-2.5s2.5,1.1,2.5,2.5C26.4,43.1,25.2,44.2,23.8,44.2z M69.8,44.2c-1.4,0-2.5-1.1-2.5-2.5c0-1.4,1.1-2.5,2.5-2.5
		c1.4,0,2.5,1.1,2.5,2.5C72.4,43.1,71.2,44.2,69.8,44.2z"/>
	<ellipse transform="matrix(0.9249 -0.3802 0.3802 0.9249 -1.4942 30.3146)" class="st1" cx="76" cy="18.9" rx="10.8" ry="10.8"/>
	<ellipse transform="matrix(0.3802 -0.9249 0.9249 0.3802 -6.5521 28.1033)" class="st1" cx="17.7" cy="18.9" rx="10.8" ry="10.8"/>
	<g>
		<path class="st2" d="M76,31.5c6.9,0,12.5-5.6,12.5-12.5C88.5,12,82.9,6.4,76,6.4c-6.9,0-12.5,5.6-12.5,12.5
			C63.5,25.9,69.1,31.5,76,31.5z M68.4,18.9c0-1.1,0.3-2.2,0.7-3.2c0.2-0.4,0.4-0.8,0.7-1.1c1.2-1.8,3.3-3,5.5-3.2v1.2
			c-1.8,0.2-3.4,1.2-4.5,2.6c-0.3,0.4-0.5,0.7-0.7,1.2c-0.3,0.8-0.5,1.7-0.5,2.6c0,0.9,0.2,1.8,0.5,2.6l-1.1,0.6
			C68.7,21.2,68.4,20.1,68.4,18.9z M82.9,15.7c0.5,1,0.7,2.1,0.7,3.2c0,1.1-0.3,2.2-0.7,3.2l-1.1-0.6c0.4-0.8,0.6-1.7,0.6-2.6
			c0-0.9-0.2-1.8-0.6-2.6c-0.2-0.4-0.4-0.8-0.7-1.2c-1-1.4-2.6-2.4-4.5-2.6v-1.2c2.3,0.2,4.3,1.4,5.5,3.2
			C82.5,15,82.7,15.3,82.9,15.7z M75.3,26.5c-2.3-0.2-4.3-1.4-5.5-3.2l1.1-0.6c1,1.4,2.6,2.4,4.5,2.6c0.2,0,0.4,0,0.7,0
			c0.2,0,0.5,0,0.7,0c1.8-0.2,3.4-1.2,4.5-2.6l1.1,0.6c-1.3,1.8-3.3,3-5.5,3.2c-0.2,0-0.4,0-0.7,0C75.8,26.5,75.6,26.5,75.3,26.5z
			 M70.7,18.9c0-0.7,0.1-1.4,0.4-2l1,0.6c-0.2,0.5-0.3,0.9-0.3,1.5c0,0.5,0.1,1,0.3,1.5l-1,0.6C70.8,20.4,70.7,19.7,70.7,18.9z
			 M81.3,18.9c0,0.7-0.1,1.4-0.4,2.1l-1-0.6c0.2-0.5,0.3-0.9,0.3-1.5c0-0.5-0.1-1-0.3-1.5l1-0.6C81.1,17.5,81.3,18.2,81.3,18.9z
			 M72.8,18.9c0-0.3,0.1-0.7,0.2-1c0.1-0.4,0.4-0.8,0.7-1.1c0.4-0.5,1-0.8,1.7-1c0.2,0,0.4-0.1,0.7-0.1c0.2,0,0.5,0,0.7,0.1
			c0.7,0.1,1.3,0.5,1.7,1c0.3,0.3,0.5,0.7,0.7,1.1c0.1,0.3,0.2,0.6,0.2,1c0,0.3-0.1,0.7-0.2,1c-0.1,0.4-0.4,0.8-0.7,1.1
			c-0.4,0.5-1,0.8-1.7,1c-0.2,0-0.4,0.1-0.7,0.1c-0.2,0-0.5,0-0.7-0.1c-0.7-0.1-1.2-0.5-1.7-1c-0.3-0.3-0.5-0.7-0.7-1.1
			C72.9,19.6,72.8,19.3,72.8,18.9z M75.3,23v1.2c-1.4-0.2-2.7-0.9-3.6-2.1l1-0.6C73.4,22.3,74.3,22.8,75.3,23z M76.7,23
			c1-0.2,1.9-0.7,2.5-1.5l1,0.6c-0.8,1.1-2.1,1.9-3.6,2.1V23z M79.2,16.3c-0.6-0.8-1.5-1.3-2.5-1.5v-1.2c1.4,0.2,2.7,0.9,3.6,2.1
			L79.2,16.3z M75.3,14.9c-1,0.2-1.9,0.7-2.5,1.5l-1-0.6c0.8-1.1,2.1-1.9,3.6-2.1V14.9z M75.3,27.7V29c-3.2-0.2-6-1.9-7.7-4.5
			l1.1-0.6C70.2,26.1,72.6,27.5,75.3,27.7z M76.7,29v-1.3c2.7-0.2,5.1-1.7,6.6-3.8l1.1,0.6C82.7,27.1,79.9,28.8,76.7,29z M85.1,23.4
			l-1.1-0.6c0.6-1.2,0.9-2.5,0.9-3.8c0-1.4-0.3-2.7-0.9-3.8l1.1-0.6c0.7,1.3,1,2.9,1,4.5C86.1,20.5,85.7,22.1,85.1,23.4z M83.3,14
			c-1.5-2.1-3.9-3.6-6.6-3.8V8.9c3.2,0.2,6,1.9,7.7,4.5L83.3,14z M75.3,8.9v1.3c-2.7,0.2-5.1,1.7-6.6,3.8l-1.1-0.6
			C69.3,10.8,72.1,9.1,75.3,8.9z M66.9,14.5l1.1,0.6c-0.6,1.2-0.9,2.5-0.9,3.8c0,1.4,0.3,2.7,0.9,3.8l-1.1,0.6c-0.7-1.3-1-2.9-1-4.5
			C65.9,17.3,66.3,15.8,66.9,14.5z"/>
		<path class="st2" d="M76,30.2c6.2,0,11.3-5,11.3-11.3c0-6.2-5-11.2-11.3-11.2c-6.2,0-11.3,5-11.3,11.2
			C64.7,25.2,69.8,30.2,76,30.2z M66.9,14.5l1.1,0.6c-0.6,1.2-0.9,2.5-0.9,3.8c0,1.4,0.3,2.7,0.9,3.8l-1.1,0.6c-0.7-1.3-1-2.9-1-4.5
			C65.9,17.3,66.3,15.8,66.9,14.5z M69.8,14.6c1.2-1.8,3.3-3,5.5-3.2v1.2c-1.8,0.2-3.4,1.2-4.5,2.6c-0.3,0.4-0.5,0.7-0.7,1.2
			c-0.3,0.8-0.5,1.7-0.5,2.6c0,0.9,0.2,1.8,0.5,2.6l-1.1,0.6c-0.5-1-0.7-2.1-0.7-3.2c0-1.1,0.3-2.2,0.7-3.2
			C69.3,15.3,69.5,15,69.8,14.6z M82.9,15.7c0.5,1,0.7,2.1,0.7,3.2c0,1.1-0.3,2.2-0.7,3.2l-1.1-0.6c0.4-0.8,0.6-1.7,0.6-2.6
			c0-0.9-0.2-1.8-0.6-2.6c-0.2-0.4-0.4-0.8-0.7-1.2c-1-1.4-2.6-2.4-4.5-2.6v-1.2c2.3,0.2,4.3,1.4,5.5,3.2
			C82.5,15,82.7,15.3,82.9,15.7z M75.3,26.5c-2.3-0.2-4.3-1.4-5.5-3.2l1.1-0.6c1,1.4,2.6,2.4,4.5,2.6c0.2,0,0.4,0,0.7,0
			c0.2,0,0.5,0,0.7,0c1.8-0.2,3.4-1.2,4.5-2.6l1.1,0.6c-1.3,1.8-3.3,3-5.5,3.2c-0.2,0-0.4,0-0.7,0C75.8,26.5,75.6,26.5,75.3,26.5z
			 M70.7,18.9c0-0.7,0.1-1.4,0.4-2l1,0.6c-0.2,0.5-0.3,0.9-0.3,1.5c0,0.5,0.1,1,0.3,1.5l-1,0.6C70.8,20.4,70.7,19.7,70.7,18.9z
			 M81.3,18.9c0,0.7-0.1,1.4-0.4,2.1l-1-0.6c0.2-0.5,0.3-0.9,0.3-1.5c0-0.5-0.1-1-0.3-1.5l1-0.6C81.1,17.5,81.3,18.2,81.3,18.9z
			 M72.8,18.9c0-0.3,0.1-0.7,0.2-1c0.1-0.4,0.4-0.8,0.7-1.1c0.4-0.5,1-0.8,1.7-1c0.2,0,0.4-0.1,0.7-0.1c0.2,0,0.5,0,0.7,0.1
			c0.7,0.1,1.3,0.5,1.7,1c0.3,0.3,0.5,0.7,0.7,1.1c0.1,0.3,0.2,0.6,0.2,1c0,0.3-0.1,0.7-0.2,1c-0.1,0.4-0.4,0.8-0.7,1.1
			c-0.4,0.5-1,0.8-1.7,1c-0.2,0-0.4,0.1-0.7,0.1c-0.2,0-0.5,0-0.7-0.1c-0.7-0.1-1.2-0.5-1.7-1c-0.3-0.3-0.5-0.7-0.7-1.1
			C72.9,19.6,72.8,19.3,72.8,18.9z M75.3,23v1.2c-1.4-0.2-2.7-0.9-3.6-2.1l1-0.6C73.4,22.3,74.3,22.8,75.3,23z M76.7,23
			c1-0.2,1.9-0.7,2.5-1.5l1,0.6c-0.8,1.1-2.1,1.9-3.6,2.1V23z M79.2,16.3c-0.6-0.8-1.5-1.3-2.5-1.5v-1.2c1.4,0.2,2.7,0.9,3.6,2.1
			L79.2,16.3z M75.3,14.9c-1,0.2-1.9,0.7-2.5,1.5l-1-0.6c0.8-1.1,2.1-1.9,3.6-2.1V14.9z M68.7,23.9c1.5,2.1,3.9,3.6,6.6,3.8V29
			c-3.2-0.2-6-1.9-7.7-4.5L68.7,23.9z M76.7,29v-1.3c2.7-0.2,5.1-1.7,6.6-3.8l1.1,0.6C82.7,27.1,79.9,28.8,76.7,29z M85.1,23.4
			l-1.1-0.6c0.6-1.2,0.9-2.5,0.9-3.8c0-1.4-0.3-2.7-0.9-3.8l1.1-0.6c0.7,1.3,1,2.9,1,4.5C86.1,20.5,85.7,22.1,85.1,23.4z M83.3,14
			c-1.5-2.1-3.9-3.6-6.6-3.8V8.9c3.2,0.2,6,1.9,7.7,4.5L83.3,14z M75.3,8.9v1.3c-2.7,0.2-5.1,1.7-6.6,3.8l-1.1-0.6
			C69.3,10.8,72.1,9.1,75.3,8.9z"/>
		<path class="st2" d="M67.2,18.9c0,1.4,0.3,2.7,0.9,3.8l-1.1,0.6c0.2,0.4,0.4,0.8,0.7,1.1l1.1-0.6c1.5,2.1,3.9,3.6,6.6,3.8V29
			c0.2,0,0.4,0,0.7,0c0.2,0,0.4,0,0.7,0v-1.3c2.7-0.2,5.1-1.7,6.6-3.8l1.1,0.6c0.2-0.4,0.5-0.7,0.7-1.1l-1.1-0.6
			c0.6-1.2,0.9-2.5,0.9-3.8c0-1.4-0.3-2.7-0.9-3.8l1.1-0.6c-0.2-0.4-0.4-0.8-0.7-1.1L83.3,14c-1.5-2.1-3.9-3.6-6.6-3.8V8.9
			c-0.2,0-0.4,0-0.7,0c-0.2,0-0.4,0-0.7,0v1.3c-2.7,0.2-5.1,1.7-6.6,3.8l-1.1-0.6c-0.2,0.4-0.5,0.7-0.7,1.1l1.1,0.6
			C67.5,16.3,67.2,17.6,67.2,18.9z M76.7,26.5c-0.2,0-0.4,0-0.7,0c-0.2,0-0.4,0-0.7,0c-2.3-0.2-4.3-1.4-5.5-3.2l1.1-0.6
			c1,1.4,2.6,2.4,4.5,2.6c0.2,0,0.4,0,0.7,0c0.2,0,0.5,0,0.7,0c1.8-0.2,3.4-1.2,4.5-2.6l1.1,0.6C81,25.1,79,26.3,76.7,26.5z
			 M70.7,18.9c0-0.7,0.1-1.4,0.4-2l1,0.6c-0.2,0.5-0.3,0.9-0.3,1.5c0,0.5,0.1,1,0.3,1.5l-1,0.6C70.8,20.4,70.7,19.7,70.7,18.9z
			 M81.3,18.9c0,0.7-0.1,1.4-0.4,2.1l-1-0.6c0.2-0.5,0.3-0.9,0.3-1.5c0-0.5-0.1-1-0.3-1.5l1-0.6C81.1,17.5,81.3,18.2,81.3,18.9z
			 M72.8,18.9c0-0.3,0.1-0.7,0.2-1c0.1-0.4,0.4-0.8,0.7-1.1c0.4-0.5,1-0.8,1.7-1c0.2,0,0.4-0.1,0.7-0.1c0.2,0,0.5,0,0.7,0.1
			c0.7,0.1,1.3,0.5,1.7,1c0.3,0.3,0.5,0.7,0.7,1.1c0.1,0.3,0.2,0.6,0.2,1c0,0.3-0.1,0.7-0.2,1c-0.1,0.4-0.4,0.8-0.7,1.1
			c-0.4,0.5-1,0.8-1.7,1c-0.2,0-0.4,0.1-0.7,0.1c-0.2,0-0.5,0-0.7-0.1c-0.7-0.1-1.2-0.5-1.7-1c-0.3-0.3-0.5-0.7-0.7-1.1
			C72.9,19.6,72.8,19.3,72.8,18.9z M75.3,23v1.2c-1.4-0.2-2.7-0.9-3.6-2.1l1-0.6C73.4,22.3,74.3,22.8,75.3,23z M76.7,23
			c1-0.2,1.9-0.7,2.5-1.5l1,0.6c-0.8,1.1-2.1,1.9-3.6,2.1V23z M79.2,16.3c-0.6-0.8-1.5-1.3-2.5-1.5v-1.2c1.4,0.2,2.7,0.9,3.6,2.1
			L79.2,16.3z M75.3,14.9c-1,0.2-1.9,0.7-2.5,1.5l-1-0.6c0.8-1.1,2.1-1.9,3.6-2.1V14.9z M82.2,14.6c0.2,0.4,0.5,0.7,0.7,1.1
			c0.5,1,0.7,2.1,0.7,3.2c0,1.1-0.3,2.2-0.7,3.2l-1.1-0.6c0.4-0.8,0.6-1.7,0.6-2.6c0-0.9-0.2-1.8-0.6-2.6c-0.2-0.4-0.4-0.8-0.7-1.2
			c-1-1.4-2.6-2.4-4.5-2.6v-1.2C79,11.6,81,12.8,82.2,14.6z M69.8,14.6c1.2-1.8,3.3-3,5.5-3.2v1.2c-1.8,0.2-3.4,1.2-4.5,2.6
			c-0.3,0.4-0.5,0.7-0.7,1.2c-0.3,0.8-0.5,1.7-0.5,2.6c0,0.9,0.2,1.8,0.5,2.6l-1.1,0.6c-0.5-1-0.7-2.1-0.7-3.2
			c0-1.1,0.3-2.2,0.7-3.2C69.3,15.3,69.5,15,69.8,14.6z"/>
		<path class="st2" d="M68.1,22.8c0.2,0.4,0.4,0.8,0.7,1.1c1.5,2.1,3.9,3.6,6.6,3.8c0.2,0,0.4,0,0.7,0c0.2,0,0.4,0,0.7,0
			c2.7-0.2,5.1-1.7,6.6-3.8c0.2-0.4,0.5-0.7,0.7-1.1c0.6-1.2,0.9-2.5,0.9-3.8c0-1.4-0.3-2.7-0.9-3.8c-0.2-0.4-0.4-0.8-0.7-1.1
			c-1.5-2.1-3.9-3.6-6.6-3.8c-0.2,0-0.4,0-0.7,0c-0.2,0-0.4,0-0.7,0c-2.7,0.2-5.1,1.7-6.6,3.8c-0.3,0.4-0.5,0.7-0.7,1.1
			c-0.6,1.2-0.9,2.5-0.9,3.8C67.2,20.3,67.5,21.6,68.1,22.8z M76.7,26.5c-0.2,0-0.4,0-0.7,0c-0.2,0-0.4,0-0.7,0
			c-2.3-0.2-4.3-1.4-5.5-3.2l1.1-0.6c1,1.4,2.6,2.4,4.5,2.6c0.2,0,0.4,0,0.7,0c0.2,0,0.5,0,0.7,0c1.8-0.2,3.4-1.2,4.5-2.6l1.1,0.6
			C81,25.1,79,26.3,76.7,26.5z M70.7,18.9c0-0.7,0.1-1.4,0.4-2l1,0.6c-0.2,0.5-0.3,0.9-0.3,1.5c0,0.5,0.1,1,0.3,1.5l-1,0.6
			C70.8,20.4,70.7,19.7,70.7,18.9z M81.3,18.9c0,0.7-0.1,1.4-0.4,2.1l-1-0.6c0.2-0.5,0.3-0.9,0.3-1.5c0-0.5-0.1-1-0.3-1.5l1-0.6
			C81.1,17.5,81.3,18.2,81.3,18.9z M72.8,18.9c0-0.3,0.1-0.7,0.2-1c0.1-0.4,0.4-0.8,0.7-1.1c0.4-0.5,1-0.8,1.7-1
			c0.2,0,0.4-0.1,0.7-0.1c0.2,0,0.5,0,0.7,0.1c0.7,0.1,1.3,0.5,1.7,1c0.3,0.3,0.5,0.7,0.7,1.1c0.1,0.3,0.2,0.6,0.2,1
			c0,0.3-0.1,0.7-0.2,1c-0.1,0.4-0.4,0.8-0.7,1.1c-0.4,0.5-1,0.8-1.7,1c-0.2,0-0.4,0.1-0.7,0.1c-0.2,0-0.5,0-0.7-0.1
			c-0.7-0.1-1.2-0.5-1.7-1c-0.3-0.3-0.5-0.7-0.7-1.1C72.9,19.6,72.8,19.3,72.8,18.9z M75.3,23v1.2c-1.4-0.2-2.7-0.9-3.6-2.1l1-0.6
			C73.4,22.3,74.3,22.8,75.3,23z M76.7,23c1-0.2,1.9-0.7,2.5-1.5l1,0.6c-0.8,1.1-2.1,1.9-3.6,2.1V23z M79.2,16.3
			c-0.6-0.8-1.5-1.3-2.5-1.5v-1.2c1.4,0.2,2.7,0.9,3.6,2.1L79.2,16.3z M75.3,14.9c-1,0.2-1.9,0.7-2.5,1.5l-1-0.6
			c0.8-1.1,2.1-1.9,3.6-2.1V14.9z M82.2,14.6c0.2,0.4,0.5,0.7,0.7,1.1c0.5,1,0.7,2.1,0.7,3.2c0,1.1-0.3,2.2-0.7,3.2l-1.1-0.6
			c0.4-0.8,0.6-1.7,0.6-2.6c0-0.9-0.2-1.8-0.6-2.6c-0.2-0.4-0.4-0.8-0.7-1.2c-1-1.4-2.6-2.4-4.5-2.6v-1.2C79,11.6,81,12.8,82.2,14.6
			z M69.8,14.6c1.2-1.8,3.3-3,5.5-3.2v1.2c-1.8,0.2-3.4,1.2-4.5,2.6c-0.3,0.4-0.5,0.7-0.7,1.2c-0.3,0.8-0.5,1.7-0.5,2.6
			c0,0.9,0.2,1.8,0.5,2.6l-1.1,0.6c-0.5-1-0.7-2.1-0.7-3.2c0-1.1,0.3-2.2,0.7-3.2C69.3,15.3,69.5,15,69.8,14.6z"/>
		<path class="st2" d="M69.1,22.1c0.2,0.4,0.4,0.8,0.7,1.1l1.1-0.6c1,1.4,2.6,2.4,4.5,2.6c0.2,0,0.4,0,0.7,0c0.2,0,0.5,0,0.7,0
			c1.8-0.2,3.4-1.2,4.5-2.6l1.1,0.6c0.3-0.4,0.5-0.7,0.7-1.1l-1.1-0.6c0.4-0.8,0.6-1.7,0.6-2.6c0-0.9-0.2-1.8-0.6-2.6
			c-0.2-0.4-0.4-0.8-0.7-1.2c-1-1.4-2.6-2.4-4.5-2.6v-1.2c-0.2,0-0.4,0-0.7,0c-0.2,0-0.4,0-0.7,0v1.2c-1.8,0.2-3.4,1.2-4.5,2.6
			c-0.3,0.4-0.5,0.7-0.7,1.2c-0.3,0.8-0.5,1.7-0.5,2.6c0,0.9,0.2,1.8,0.5,2.6L69.1,22.1z M71.8,22.1l1-0.6c0.6,0.8,1.5,1.3,2.5,1.5
			v1.2C73.9,24,72.6,23.3,71.8,22.1z M72.8,18.9c0-0.3,0.1-0.7,0.2-1c0.1-0.4,0.4-0.8,0.7-1.1c0.4-0.5,1-0.8,1.7-1
			c0.2,0,0.4-0.1,0.7-0.1c0.2,0,0.5,0,0.7,0.1c0.7,0.1,1.3,0.5,1.7,1c0.3,0.3,0.5,0.7,0.7,1.1c0.1,0.3,0.2,0.6,0.2,1
			c0,0.3-0.1,0.7-0.2,1c-0.1,0.4-0.4,0.8-0.7,1.1c-0.4,0.5-1,0.8-1.7,1c-0.2,0-0.4,0.1-0.7,0.1c-0.2,0-0.5,0-0.7-0.1
			c-0.7-0.1-1.2-0.5-1.7-1c-0.3-0.3-0.5-0.7-0.7-1.1C72.9,19.6,72.8,19.3,72.8,18.9z M76.7,24.2V23c1-0.2,1.9-0.7,2.5-1.5l1,0.6
			C79.4,23.3,78.1,24,76.7,24.2z M81.3,18.9c0,0.7-0.1,1.4-0.4,2.1l-1-0.6c0.2-0.5,0.3-0.9,0.3-1.5c0-0.5-0.1-1-0.3-1.5l1-0.6
			C81.1,17.5,81.3,18.2,81.3,18.9z M80.2,15.7l-1,0.6c-0.6-0.8-1.5-1.3-2.5-1.5v-1.2C78.1,13.9,79.4,14.6,80.2,15.7z M75.3,13.7v1.2
			c-1,0.2-1.9,0.7-2.5,1.5l-1-0.6C72.6,14.6,73.9,13.9,75.3,13.7z M70.7,18.9c0-0.7,0.1-1.4,0.4-2l1,0.6c-0.2,0.5-0.3,0.9-0.3,1.5
			c0,0.5,0.1,1,0.3,1.5l-1,0.6C70.8,20.4,70.7,19.7,70.7,18.9z"/>
		<path class="st2" d="M70.2,21.5c0.2,0.4,0.4,0.8,0.7,1.2c1,1.4,2.6,2.4,4.5,2.6c0.2,0,0.4,0,0.7,0c0.2,0,0.5,0,0.7,0
			c1.8-0.2,3.4-1.2,4.5-2.6c0.3-0.4,0.5-0.7,0.7-1.2c0.4-0.8,0.6-1.7,0.6-2.6c0-0.9-0.2-1.8-0.6-2.6c-0.2-0.4-0.4-0.8-0.7-1.2
			c-1-1.4-2.6-2.4-4.5-2.6c-0.2,0-0.4,0-0.7,0c-0.2,0-0.4,0-0.7,0c-1.8,0.2-3.4,1.2-4.5,2.6c-0.3,0.4-0.5,0.7-0.7,1.2
			c-0.3,0.8-0.5,1.7-0.5,2.6C69.6,19.9,69.8,20.7,70.2,21.5z M71.8,22.1l1-0.6c0.6,0.8,1.5,1.3,2.5,1.5v1.2
			C73.9,24,72.6,23.3,71.8,22.1z M72.8,18.9c0-0.3,0.1-0.7,0.2-1c0.1-0.4,0.4-0.8,0.7-1.1c0.4-0.5,1-0.8,1.7-1
			c0.2,0,0.4-0.1,0.7-0.1c0.2,0,0.5,0,0.7,0.1c0.7,0.1,1.3,0.5,1.7,1c0.3,0.3,0.5,0.7,0.7,1.1c0.1,0.3,0.2,0.6,0.2,1
			c0,0.3-0.1,0.7-0.2,1c-0.1,0.4-0.4,0.8-0.7,1.1c-0.4,0.5-1,0.8-1.7,1c-0.2,0-0.4,0.1-0.7,0.1c-0.2,0-0.5,0-0.7-0.1
			c-0.7-0.1-1.2-0.5-1.7-1c-0.3-0.3-0.5-0.7-0.7-1.1C72.9,19.6,72.8,19.3,72.8,18.9z M76.7,24.2V23c1-0.2,1.9-0.7,2.5-1.5l1,0.6
			C79.4,23.3,78.1,24,76.7,24.2z M81.3,18.9c0,0.7-0.1,1.4-0.4,2.1l-1-0.6c0.2-0.5,0.3-0.9,0.3-1.5c0-0.5-0.1-1-0.3-1.5l1-0.6
			C81.1,17.5,81.3,18.2,81.3,18.9z M80.2,15.7l-1,0.6c-0.6-0.8-1.5-1.3-2.5-1.5v-1.2C78.1,13.9,79.4,14.6,80.2,15.7z M75.3,13.7v1.2
			c-1,0.2-1.9,0.7-2.5,1.5l-1-0.6C72.6,14.6,73.9,13.9,75.3,13.7z M72.1,17.5c-0.2,0.5-0.3,0.9-0.3,1.5c0,0.5,0.1,1,0.3,1.5l-1,0.6
			c-0.3-0.6-0.4-1.3-0.4-2.1c0-0.7,0.1-1.4,0.4-2L72.1,17.5z"/>
		<path class="st2" d="M71.9,18.9c0,0.5,0.1,1,0.3,1.5l-1,0.6c0.2,0.4,0.4,0.8,0.7,1.1l1-0.6c0.6,0.8,1.5,1.3,2.5,1.5v1.2
			c0.2,0,0.4,0,0.7,0c0.2,0,0.5,0,0.7,0V23c1-0.2,1.9-0.7,2.5-1.5l1,0.6c0.3-0.3,0.5-0.7,0.7-1.1l-1-0.6c0.2-0.5,0.3-0.9,0.3-1.5
			c0-0.5-0.1-1-0.3-1.5l1-0.6c-0.2-0.4-0.4-0.8-0.7-1.1l-1,0.6c-0.6-0.8-1.5-1.3-2.5-1.5v-1.2c-0.2,0-0.4,0-0.7,0
			c-0.2,0-0.4,0-0.7,0v1.2c-1,0.2-1.9,0.7-2.5,1.5l-1-0.6c-0.3,0.3-0.5,0.7-0.7,1.1l1,0.6C72,17.9,71.9,18.4,71.9,18.9z M73.6,16.8
			c0.4-0.5,1-0.8,1.7-1c0.2,0,0.4-0.1,0.7-0.1c0.2,0,0.5,0,0.7,0.1c0.7,0.1,1.3,0.5,1.7,1c0.3,0.3,0.5,0.7,0.7,1.1
			c0.1,0.3,0.2,0.6,0.2,1c0,0.3-0.1,0.7-0.2,1c-0.1,0.4-0.4,0.8-0.7,1.1c-0.4,0.5-1,0.8-1.7,1c-0.2,0-0.4,0.1-0.7,0.1
			c-0.2,0-0.5,0-0.7-0.1c-0.7-0.1-1.2-0.5-1.7-1c-0.3-0.3-0.5-0.7-0.7-1.1c-0.1-0.3-0.2-0.6-0.2-1c0-0.3,0.1-0.7,0.2-1
			C73.1,17.5,73.3,17.1,73.6,16.8z"/>
		<path class="st2" d="M72.1,20.4c0.2,0.4,0.4,0.8,0.7,1.1c0.6,0.8,1.5,1.3,2.5,1.5c0.2,0,0.4,0.1,0.7,0.1c0.2,0,0.5,0,0.7-0.1
			c1-0.2,1.9-0.7,2.5-1.5c0.3-0.3,0.5-0.7,0.7-1.1c0.2-0.5,0.3-0.9,0.3-1.5c0-0.5-0.1-1-0.3-1.5c-0.2-0.4-0.4-0.8-0.7-1.1
			c-0.6-0.8-1.5-1.3-2.5-1.5c-0.2,0-0.4-0.1-0.7-0.1c-0.2,0-0.4,0-0.7,0.1c-1,0.2-1.9,0.7-2.5,1.5c-0.3,0.3-0.5,0.7-0.7,1.1
			c-0.2,0.5-0.3,0.9-0.3,1.5C71.9,19.5,72,19.9,72.1,20.4z M73.6,16.8c0.4-0.5,1-0.8,1.7-1c0.2,0,0.4-0.1,0.7-0.1
			c0.2,0,0.5,0,0.7,0.1c0.7,0.1,1.3,0.5,1.7,1c0.3,0.3,0.5,0.7,0.7,1.1c0.1,0.3,0.2,0.6,0.2,1c0,0.3-0.1,0.7-0.2,1
			c-0.1,0.4-0.4,0.8-0.7,1.1c-0.4,0.5-1,0.8-1.7,1c-0.2,0-0.4,0.1-0.7,0.1c-0.2,0-0.5,0-0.7-0.1c-0.7-0.1-1.2-0.5-1.7-1
			c-0.3-0.3-0.5-0.7-0.7-1.1c-0.1-0.3-0.2-0.6-0.2-1c0-0.3,0.1-0.7,0.2-1C73.1,17.5,73.3,17.1,73.6,16.8z"/>
		<path class="st2" d="M76.7,29.6v-3.1c-0.2,0-0.4,0-0.7,0c-0.2,0-0.4,0-0.7,0v3.1H76.7z"/>
		<path class="st2" d="M76.7,25.3V22c-0.2,0-0.4,0.1-0.7,0.1s-0.5,0-0.7-0.1v3.2c0.2,0,0.4,0,0.7,0C76.2,25.3,76.4,25.3,76.7,25.3z"
			/>
		<path class="st2" d="M76.7,15.8V8.3h-1.3v7.5c0.2,0,0.4-0.1,0.7-0.1S76.4,15.8,76.7,15.8z"/>
		<path class="st2" d="M69.1,15.7c0.2-0.4,0.4-0.8,0.7-1.1L68.7,14l-1.1-0.6L67.1,13l-0.7,1.1l0.5,0.3l1.1,0.6L69.1,15.7z"/>
		<path class="st2" d="M73.6,16.8l-0.8-0.5l-1-0.6l-0.9-0.5c-0.3,0.4-0.5,0.7-0.7,1.1l0.9,0.5l1,0.6L73,18
			C73.1,17.5,73.3,17.1,73.6,16.8z"/>
		<path class="st2" d="M85.5,23.7l-0.5-0.3l-1.1-0.6l-1.1-0.6l-1.1-0.6L80.9,21l-1-0.6L79,19.9c-0.1,0.4-0.4,0.8-0.7,1.1l0.8,0.5
			l1,0.6l0.9,0.5l1.1,0.6l1.1,0.6l1.1,0.6l0.5,0.3L85.5,23.7z"/>
		<path class="st2" d="M73.6,21.1c-0.3-0.3-0.5-0.7-0.7-1.1l-0.8,0.5l-1,0.6l-0.9,0.5l-1.1,0.6l-1.1,0.6l-1.1,0.6l-0.5,0.3l0.7,1.1
			l0.5-0.3l1.1-0.6l1.1-0.6l1.1-0.6l0.9-0.5l1-0.6L73.6,21.1z"/>
		<path class="st2" d="M81.8,16.4c-0.2-0.4-0.4-0.8-0.7-1.1l-0.9,0.5l-1,0.6l-0.8,0.5c0.3,0.3,0.5,0.7,0.7,1.1l0.8-0.5l1-0.6
			L81.8,16.4z"/>
		<path class="st2" d="M85.5,14.2L84.9,13l-0.5,0.3L83.3,14l-1.1,0.6c0.3,0.4,0.5,0.7,0.7,1.1l1.1-0.6l1.1-0.6L85.5,14.2z"/>
	</g>
	<g>
		<path class="st2" d="M30.2,18.9c0-6.9-5.6-12.5-12.5-12.5C10.8,6.4,5.2,12,5.2,18.9c0,6.9,5.6,12.5,12.5,12.5
			C24.6,31.5,30.2,25.9,30.2,18.9z M24.6,22.1l-1.1-0.6c0.3-0.8,0.5-1.7,0.5-2.6c0-0.9-0.2-1.8-0.5-2.6c-0.2-0.4-0.4-0.8-0.7-1.2
			c-1-1.4-2.6-2.4-4.5-2.6v-1.2c2.3,0.2,4.3,1.4,5.5,3.2c0.3,0.4,0.5,0.7,0.7,1.1c0.5,1,0.7,2.1,0.7,3.2
			C25.3,20.1,25,21.2,24.6,22.1z M11.5,14.6c1.3-1.8,3.3-3,5.5-3.2v1.2c-1.8,0.2-3.4,1.2-4.5,2.6c-0.3,0.4-0.5,0.7-0.7,1.2
			c-0.4,0.8-0.6,1.7-0.6,2.6c0,0.9,0.2,1.8,0.6,2.6l-1.1,0.6c-0.5-1-0.7-2.1-0.7-3.2c0-1.1,0.3-2.2,0.7-3.2
			C11,15.3,11.2,15,11.5,14.6z M17.7,26.5c-0.2,0-0.4,0-0.7,0c-2.3-0.2-4.3-1.4-5.5-3.2l1.1-0.6c1,1.4,2.6,2.4,4.5,2.6
			c0.2,0,0.4,0,0.7,0c0.2,0,0.4,0,0.7,0c1.8-0.2,3.4-1.2,4.5-2.6l1.1,0.6c-1.2,1.8-3.3,3-5.5,3.2C18.1,26.5,17.9,26.5,17.7,26.5z
			 M22.6,21l-1-0.6c0.2-0.5,0.3-0.9,0.3-1.5c0-0.5-0.1-1-0.3-1.5l1-0.6c0.3,0.6,0.4,1.3,0.4,2C23,19.7,22.8,20.4,22.6,21z
			 M12.8,16.9l1,0.6c-0.2,0.5-0.3,0.9-0.3,1.5c0,0.5,0.1,1,0.3,1.5l-1,0.6c-0.3-0.6-0.4-1.3-0.4-2.1C12.4,18.2,12.5,17.5,12.8,16.9z
			 M20.7,19.9c-0.1,0.4-0.4,0.8-0.7,1.1c-0.4,0.5-1,0.8-1.7,1c-0.2,0-0.4,0.1-0.7,0.1c-0.2,0-0.5,0-0.7-0.1c-0.7-0.1-1.3-0.5-1.7-1
			c-0.3-0.3-0.5-0.7-0.7-1.1c-0.1-0.3-0.2-0.6-0.2-1c0-0.3,0.1-0.7,0.2-1c0.1-0.4,0.4-0.8,0.7-1.1c0.4-0.5,1-0.8,1.7-1
			c0.2,0,0.4-0.1,0.7-0.1c0.2,0,0.5,0,0.7,0.1c0.7,0.1,1.2,0.5,1.7,1c0.3,0.3,0.5,0.7,0.7,1.1c0.1,0.3,0.2,0.6,0.2,1
			C20.9,19.3,20.8,19.6,20.7,19.9z M20.9,21.6l1,0.6c-0.8,1.1-2.1,1.9-3.6,2.1V23C19.4,22.8,20.3,22.3,20.9,21.6z M17,24.2
			c-1.4-0.2-2.7-0.9-3.6-2.1l1-0.6c0.6,0.8,1.5,1.3,2.5,1.5V24.2z M13.5,15.7c0.8-1.1,2.1-1.9,3.6-2.1v1.2c-1,0.2-1.9,0.7-2.5,1.5
			L13.5,15.7z M18.4,13.7c1.4,0.2,2.7,0.9,3.6,2.1l-1,0.6c-0.6-0.8-1.5-1.3-2.5-1.5V13.7z M25,23.9l1.1,0.6
			c-1.7,2.5-4.5,4.3-7.7,4.5v-1.3C21.1,27.5,23.5,26.1,25,23.9z M9.3,24.6l1.1-0.6c1.5,2.1,3.9,3.6,6.6,3.8V29
			C13.8,28.8,11,27.1,9.3,24.6z M7.6,18.9c0-1.6,0.4-3.1,1-4.5l1.1,0.6c-0.6,1.2-0.9,2.5-0.9,3.8c0,1.4,0.3,2.7,0.9,3.8l-1.1,0.6
			C8,22.1,7.6,20.5,7.6,18.9z M9.3,13.3c1.7-2.5,4.5-4.3,7.7-4.5v1.3c-2.7,0.2-5.1,1.7-6.6,3.8L9.3,13.3z M26.1,13.3L25,14
			c-1.5-2.1-3.9-3.6-6.6-3.8V8.9C21.6,9.1,24.4,10.8,26.1,13.3z M27.8,18.9c0,1.6-0.4,3.1-1,4.5l-1.1-0.6c0.6-1.2,0.9-2.5,0.9-3.8
			c0-1.4-0.3-2.7-0.9-3.8l1.1-0.6C27.4,15.8,27.8,17.3,27.8,18.9z"/>
		<path class="st2" d="M29,18.9c0-6.2-5-11.2-11.3-11.2s-11.3,5-11.3,11.2c0,6.2,5,11.3,11.3,11.3S29,25.2,29,18.9z M27.8,18.9
			c0,1.6-0.4,3.1-1,4.5l-1.1-0.6c0.6-1.2,0.9-2.5,0.9-3.8c0-1.4-0.3-2.7-0.9-3.8l1.1-0.6C27.4,15.8,27.8,17.3,27.8,18.9z M24.6,15.7
			c0.5,1,0.7,2.1,0.7,3.2c0,1.1-0.3,2.2-0.7,3.2l-1.1-0.6c0.3-0.8,0.5-1.7,0.5-2.6c0-0.9-0.2-1.8-0.5-2.6c-0.2-0.4-0.4-0.8-0.7-1.2
			c-1-1.4-2.6-2.4-4.5-2.6v-1.2c2.3,0.2,4.3,1.4,5.5,3.2C24.2,15,24.4,15.3,24.6,15.7z M11.5,14.6c1.3-1.8,3.3-3,5.5-3.2v1.2
			c-1.8,0.2-3.4,1.2-4.5,2.6c-0.3,0.4-0.5,0.7-0.7,1.2c-0.4,0.8-0.6,1.7-0.6,2.6c0,0.9,0.2,1.8,0.6,2.6l-1.1,0.6
			c-0.5-1-0.7-2.1-0.7-3.2c0-1.1,0.3-2.2,0.7-3.2C11,15.3,11.2,15,11.5,14.6z M17.7,26.5c-0.2,0-0.4,0-0.7,0
			c-2.3-0.2-4.3-1.4-5.5-3.2l1.1-0.6c1,1.4,2.6,2.4,4.5,2.6c0.2,0,0.4,0,0.7,0c0.2,0,0.4,0,0.7,0c1.8-0.2,3.4-1.2,4.5-2.6l1.1,0.6
			c-1.2,1.8-3.3,3-5.5,3.2C18.1,26.5,17.9,26.5,17.7,26.5z M22.6,21l-1-0.6c0.2-0.5,0.3-0.9,0.3-1.5c0-0.5-0.1-1-0.3-1.5l1-0.6
			c0.3,0.6,0.4,1.3,0.4,2C23,19.7,22.8,20.4,22.6,21z M12.8,16.9l1,0.6c-0.2,0.5-0.3,0.9-0.3,1.5c0,0.5,0.1,1,0.3,1.5l-1,0.6
			c-0.3-0.6-0.4-1.3-0.4-2.1C12.4,18.2,12.5,17.5,12.8,16.9z M20.7,19.9c-0.1,0.4-0.4,0.8-0.7,1.1c-0.4,0.5-1,0.8-1.7,1
			c-0.2,0-0.4,0.1-0.7,0.1c-0.2,0-0.5,0-0.7-0.1c-0.7-0.1-1.3-0.5-1.7-1c-0.3-0.3-0.5-0.7-0.7-1.1c-0.1-0.3-0.2-0.6-0.2-1
			c0-0.3,0.1-0.7,0.2-1c0.1-0.4,0.4-0.8,0.7-1.1c0.4-0.5,1-0.8,1.7-1c0.2,0,0.4-0.1,0.7-0.1c0.2,0,0.5,0,0.7,0.1
			c0.7,0.1,1.2,0.5,1.7,1c0.3,0.3,0.5,0.7,0.7,1.1c0.1,0.3,0.2,0.6,0.2,1C20.9,19.3,20.8,19.6,20.7,19.9z M20.9,21.6l1,0.6
			c-0.8,1.1-2.1,1.9-3.6,2.1V23C19.4,22.8,20.3,22.3,20.9,21.6z M17,24.2c-1.4-0.2-2.7-0.9-3.6-2.1l1-0.6c0.6,0.8,1.5,1.3,2.5,1.5
			V24.2z M13.5,15.7c0.8-1.1,2.1-1.9,3.6-2.1v1.2c-1,0.2-1.9,0.7-2.5,1.5L13.5,15.7z M18.4,13.7c1.4,0.2,2.7,0.9,3.6,2.1l-1,0.6
			c-0.6-0.8-1.5-1.3-2.5-1.5V13.7z M26.1,24.6c-1.7,2.5-4.5,4.3-7.7,4.5v-1.3c2.7-0.2,5.1-1.7,6.6-3.8L26.1,24.6z M9.3,24.6l1.1-0.6
			c1.5,2.1,3.9,3.6,6.6,3.8V29C13.8,28.8,11,27.1,9.3,24.6z M7.6,18.9c0-1.6,0.4-3.1,1-4.5l1.1,0.6c-0.6,1.2-0.9,2.5-0.9,3.8
			c0,1.4,0.3,2.7,0.9,3.8l-1.1,0.6C8,22.1,7.6,20.5,7.6,18.9z M9.3,13.3c1.7-2.5,4.5-4.3,7.7-4.5v1.3c-2.7,0.2-5.1,1.7-6.6,3.8
			L9.3,13.3z M26.1,13.3L25,14c-1.5-2.1-3.9-3.6-6.6-3.8V8.9C21.6,9.1,24.4,10.8,26.1,13.3z"/>
		<path class="st2" d="M25.6,15.1l1.1-0.6c-0.2-0.4-0.4-0.8-0.7-1.1L25,14c-1.5-2.1-3.9-3.6-6.6-3.8V8.9c-0.2,0-0.4,0-0.7,0
			c-0.2,0-0.4,0-0.7,0v1.3c-2.7,0.2-5.1,1.7-6.6,3.8l-1.1-0.6c-0.2,0.4-0.5,0.7-0.7,1.1l1.1,0.6c-0.6,1.2-0.9,2.5-0.9,3.8
			c0,1.4,0.3,2.7,0.9,3.8l-1.1,0.6c0.2,0.4,0.4,0.8,0.7,1.1l1.1-0.6c1.5,2.1,3.9,3.6,6.6,3.8V29c0.2,0,0.4,0,0.7,0
			c0.2,0,0.4,0,0.7,0v-1.3c2.7-0.2,5.1-1.7,6.6-3.8l1.1,0.6c0.2-0.4,0.5-0.7,0.7-1.1l-1.1-0.6c0.6-1.2,0.9-2.5,0.9-3.8
			C26.5,17.6,26.2,16.3,25.6,15.1z M11.5,23.3l1.1-0.6c1,1.4,2.6,2.4,4.5,2.6c0.2,0,0.4,0,0.7,0c0.2,0,0.4,0,0.7,0
			c1.8-0.2,3.4-1.2,4.5-2.6l1.1,0.6c-1.2,1.8-3.3,3-5.5,3.2c-0.2,0-0.4,0-0.7,0c-0.2,0-0.4,0-0.7,0C14.7,26.3,12.7,25.1,11.5,23.3z
			 M22.6,21l-1-0.6c0.2-0.5,0.3-0.9,0.3-1.5c0-0.5-0.1-1-0.3-1.5l1-0.6c0.3,0.6,0.4,1.3,0.4,2C23,19.7,22.8,20.4,22.6,21z
			 M12.8,16.9l1,0.6c-0.2,0.5-0.3,0.9-0.3,1.5c0,0.5,0.1,1,0.3,1.5l-1,0.6c-0.3-0.6-0.4-1.3-0.4-2.1C12.4,18.2,12.5,17.5,12.8,16.9z
			 M20.7,19.9c-0.1,0.4-0.4,0.8-0.7,1.1c-0.4,0.5-1,0.8-1.7,1c-0.2,0-0.4,0.1-0.7,0.1c-0.2,0-0.5,0-0.7-0.1c-0.7-0.1-1.3-0.5-1.7-1
			c-0.3-0.3-0.5-0.7-0.7-1.1c-0.1-0.3-0.2-0.6-0.2-1c0-0.3,0.1-0.7,0.2-1c0.1-0.4,0.4-0.8,0.7-1.1c0.4-0.5,1-0.8,1.7-1
			c0.2,0,0.4-0.1,0.7-0.1c0.2,0,0.5,0,0.7,0.1c0.7,0.1,1.2,0.5,1.7,1c0.3,0.3,0.5,0.7,0.7,1.1c0.1,0.3,0.2,0.6,0.2,1
			C20.9,19.3,20.8,19.6,20.7,19.9z M20.9,21.6l1,0.6c-0.8,1.1-2.1,1.9-3.6,2.1V23C19.4,22.8,20.3,22.3,20.9,21.6z M17,24.2
			c-1.4-0.2-2.7-0.9-3.6-2.1l1-0.6c0.6,0.8,1.5,1.3,2.5,1.5V24.2z M13.5,15.7c0.8-1.1,2.1-1.9,3.6-2.1v1.2c-1,0.2-1.9,0.7-2.5,1.5
			L13.5,15.7z M18.4,13.7c1.4,0.2,2.7,0.9,3.6,2.1l-1,0.6c-0.6-0.8-1.5-1.3-2.5-1.5V13.7z M17,11.4v1.2c-1.8,0.2-3.4,1.2-4.5,2.6
			c-0.3,0.4-0.5,0.7-0.7,1.2c-0.4,0.8-0.6,1.7-0.6,2.6c0,0.9,0.2,1.8,0.6,2.6l-1.1,0.6c-0.5-1-0.7-2.1-0.7-3.2
			c0-1.1,0.3-2.2,0.7-3.2c0.2-0.4,0.4-0.8,0.7-1.1C12.7,12.8,14.7,11.6,17,11.4z M24.6,15.7c0.5,1,0.7,2.1,0.7,3.2
			c0,1.1-0.3,2.2-0.7,3.2l-1.1-0.6c0.3-0.8,0.5-1.7,0.5-2.6c0-0.9-0.2-1.8-0.5-2.6c-0.2-0.4-0.4-0.8-0.7-1.2c-1-1.4-2.6-2.4-4.5-2.6
			v-1.2c2.3,0.2,4.3,1.4,5.5,3.2C24.2,15,24.4,15.3,24.6,15.7z"/>
		<path class="st2" d="M26.5,18.9c0-1.4-0.3-2.7-0.9-3.8c-0.2-0.4-0.4-0.8-0.7-1.1c-1.5-2.1-3.9-3.6-6.6-3.8c-0.2,0-0.4,0-0.7,0
			c-0.2,0-0.4,0-0.7,0c-2.7,0.2-5.1,1.7-6.6,3.8c-0.2,0.4-0.5,0.7-0.7,1.1c-0.6,1.2-0.9,2.5-0.9,3.8c0,1.4,0.3,2.7,0.9,3.8
			c0.2,0.4,0.4,0.8,0.7,1.1c1.5,2.1,3.9,3.6,6.6,3.8c0.2,0,0.4,0,0.7,0c0.2,0,0.4,0,0.7,0c2.7-0.2,5.1-1.7,6.6-3.8
			c0.3-0.4,0.5-0.7,0.7-1.1C26.2,21.6,26.5,20.3,26.5,18.9z M11.5,23.3l1.1-0.6c1,1.4,2.6,2.4,4.5,2.6c0.2,0,0.4,0,0.7,0
			c0.2,0,0.4,0,0.7,0c1.8-0.2,3.4-1.2,4.5-2.6l1.1,0.6c-1.2,1.8-3.3,3-5.5,3.2c-0.2,0-0.4,0-0.7,0c-0.2,0-0.4,0-0.7,0
			C14.7,26.3,12.7,25.1,11.5,23.3z M22.6,21l-1-0.6c0.2-0.5,0.3-0.9,0.3-1.5c0-0.5-0.1-1-0.3-1.5l1-0.6c0.3,0.6,0.4,1.3,0.4,2
			C23,19.7,22.8,20.4,22.6,21z M12.8,16.9l1,0.6c-0.2,0.5-0.3,0.9-0.3,1.5c0,0.5,0.1,1,0.3,1.5l-1,0.6c-0.3-0.6-0.4-1.3-0.4-2.1
			C12.4,18.2,12.5,17.5,12.8,16.9z M20.7,19.9c-0.1,0.4-0.4,0.8-0.7,1.1c-0.4,0.5-1,0.8-1.7,1c-0.2,0-0.4,0.1-0.7,0.1
			c-0.2,0-0.5,0-0.7-0.1c-0.7-0.1-1.3-0.5-1.7-1c-0.3-0.3-0.5-0.7-0.7-1.1c-0.1-0.3-0.2-0.6-0.2-1c0-0.3,0.1-0.7,0.2-1
			c0.1-0.4,0.4-0.8,0.7-1.1c0.4-0.5,1-0.8,1.7-1c0.2,0,0.4-0.1,0.7-0.1c0.2,0,0.5,0,0.7,0.1c0.7,0.1,1.2,0.5,1.7,1
			c0.3,0.3,0.5,0.7,0.7,1.1c0.1,0.3,0.2,0.6,0.2,1C20.9,19.3,20.8,19.6,20.7,19.9z M20.9,21.6l1,0.6c-0.8,1.1-2.1,1.9-3.6,2.1V23
			C19.4,22.8,20.3,22.3,20.9,21.6z M17,24.2c-1.4-0.2-2.7-0.9-3.6-2.1l1-0.6c0.6,0.8,1.5,1.3,2.5,1.5V24.2z M13.5,15.7
			c0.8-1.1,2.1-1.9,3.6-2.1v1.2c-1,0.2-1.9,0.7-2.5,1.5L13.5,15.7z M18.4,13.7c1.4,0.2,2.7,0.9,3.6,2.1l-1,0.6
			c-0.6-0.8-1.5-1.3-2.5-1.5V13.7z M17,11.4v1.2c-1.8,0.2-3.4,1.2-4.5,2.6c-0.3,0.4-0.5,0.7-0.7,1.2c-0.4,0.8-0.6,1.7-0.6,2.6
			c0,0.9,0.2,1.8,0.6,2.6l-1.1,0.6c-0.5-1-0.7-2.1-0.7-3.2c0-1.1,0.3-2.2,0.7-3.2c0.2-0.4,0.4-0.8,0.7-1.1
			C12.7,12.8,14.7,11.6,17,11.4z M24.6,15.7c0.5,1,0.7,2.1,0.7,3.2c0,1.1-0.3,2.2-0.7,3.2l-1.1-0.6c0.3-0.8,0.5-1.7,0.5-2.6
			c0-0.9-0.2-1.8-0.5-2.6c-0.2-0.4-0.4-0.8-0.7-1.2c-1-1.4-2.6-2.4-4.5-2.6v-1.2c2.3,0.2,4.3,1.4,5.5,3.2
			C24.2,15,24.4,15.3,24.6,15.7z"/>
		<path class="st2" d="M23.5,21.5c0.3-0.8,0.5-1.7,0.5-2.6c0-0.9-0.2-1.8-0.5-2.6c-0.2-0.4-0.4-0.8-0.7-1.2c-1-1.4-2.6-2.4-4.5-2.6
			v-1.2c-0.2,0-0.4,0-0.7,0c-0.2,0-0.4,0-0.7,0v1.2c-1.8,0.2-3.4,1.2-4.5,2.6c-0.3,0.4-0.5,0.7-0.7,1.2c-0.4,0.8-0.6,1.7-0.6,2.6
			c0,0.9,0.2,1.8,0.6,2.6l-1.1,0.6c0.2,0.4,0.4,0.8,0.7,1.1l1.1-0.6c1,1.4,2.6,2.4,4.5,2.6c0.2,0,0.4,0,0.7,0c0.2,0,0.4,0,0.7,0
			c1.8-0.2,3.4-1.2,4.5-2.6l1.1,0.6c0.3-0.4,0.5-0.7,0.7-1.1L23.5,21.5z M18.4,24.2V23c1-0.2,1.9-0.7,2.5-1.5l1,0.6
			C21.1,23.3,19.8,24,18.4,24.2z M20.7,19.9c-0.1,0.4-0.4,0.8-0.7,1.1c-0.4,0.5-1,0.8-1.7,1c-0.2,0-0.4,0.1-0.7,0.1
			c-0.2,0-0.5,0-0.7-0.1c-0.7-0.1-1.3-0.5-1.7-1c-0.3-0.3-0.5-0.7-0.7-1.1c-0.1-0.3-0.2-0.6-0.2-1c0-0.3,0.1-0.7,0.2-1
			c0.1-0.4,0.4-0.8,0.7-1.1c0.4-0.5,1-0.8,1.7-1c0.2,0,0.4-0.1,0.7-0.1c0.2,0,0.5,0,0.7,0.1c0.7,0.1,1.2,0.5,1.7,1
			c0.3,0.3,0.5,0.7,0.7,1.1c0.1,0.3,0.2,0.6,0.2,1C20.9,19.3,20.8,19.6,20.7,19.9z M13.5,22.1l1-0.6c0.6,0.8,1.5,1.3,2.5,1.5v1.2
			C15.6,24,14.3,23.3,13.5,22.1z M12.8,16.9l1,0.6c-0.2,0.5-0.3,0.9-0.3,1.5c0,0.5,0.1,1,0.3,1.5l-1,0.6c-0.3-0.6-0.4-1.3-0.4-2.1
			C12.4,18.2,12.5,17.5,12.8,16.9z M17,13.7v1.2c-1,0.2-1.9,0.7-2.5,1.5l-1-0.6C14.3,14.6,15.6,13.9,17,13.7z M21.9,15.7l-1,0.6
			c-0.6-0.8-1.5-1.3-2.5-1.5v-1.2C19.8,13.9,21.1,14.6,21.9,15.7z M22.6,21l-1-0.6c0.2-0.5,0.3-0.9,0.3-1.5c0-0.5-0.1-1-0.3-1.5
			l1-0.6c0.3,0.6,0.4,1.3,0.4,2C23,19.7,22.8,20.4,22.6,21z"/>
		<path class="st2" d="M24,18.9c0-0.9-0.2-1.8-0.5-2.6c-0.2-0.4-0.4-0.8-0.7-1.2c-1-1.4-2.6-2.4-4.5-2.6c-0.2,0-0.4,0-0.7,0
			c-0.2,0-0.5,0-0.7,0c-1.8,0.2-3.4,1.2-4.5,2.6c-0.3,0.4-0.5,0.7-0.7,1.2c-0.4,0.8-0.6,1.7-0.6,2.6c0,0.9,0.2,1.8,0.6,2.6
			c0.2,0.4,0.4,0.8,0.7,1.2c1,1.4,2.6,2.4,4.5,2.6c0.2,0,0.4,0,0.7,0c0.2,0,0.4,0,0.7,0c1.8-0.2,3.4-1.2,4.5-2.6
			c0.3-0.4,0.5-0.7,0.7-1.2C23.9,20.7,24,19.9,24,18.9z M18.4,24.2V23c1-0.2,1.9-0.7,2.5-1.5l1,0.6C21.1,23.3,19.8,24,18.4,24.2z
			 M20.7,19.9c-0.1,0.4-0.4,0.8-0.7,1.1c-0.4,0.5-1,0.8-1.7,1c-0.2,0-0.4,0.1-0.7,0.1c-0.2,0-0.5,0-0.7-0.1c-0.7-0.1-1.3-0.5-1.7-1
			c-0.3-0.3-0.5-0.7-0.7-1.1c-0.1-0.3-0.2-0.6-0.2-1c0-0.3,0.1-0.7,0.2-1c0.1-0.4,0.4-0.8,0.7-1.1c0.4-0.5,1-0.8,1.7-1
			c0.2,0,0.4-0.1,0.7-0.1c0.2,0,0.5,0,0.7,0.1c0.7,0.1,1.2,0.5,1.7,1c0.3,0.3,0.5,0.7,0.7,1.1c0.1,0.3,0.2,0.6,0.2,1
			C20.9,19.3,20.8,19.6,20.7,19.9z M13.5,22.1l1-0.6c0.6,0.8,1.5,1.3,2.5,1.5v1.2C15.6,24,14.3,23.3,13.5,22.1z M12.8,16.9l1,0.6
			c-0.2,0.5-0.3,0.9-0.3,1.5c0,0.5,0.1,1,0.3,1.5l-1,0.6c-0.3-0.6-0.4-1.3-0.4-2.1C12.4,18.2,12.5,17.5,12.8,16.9z M17,13.7v1.2
			c-1,0.2-1.9,0.7-2.5,1.5l-1-0.6C14.3,14.6,15.6,13.9,17,13.7z M21.9,15.7l-1,0.6c-0.6-0.8-1.5-1.3-2.5-1.5v-1.2
			C19.8,13.9,21.1,14.6,21.9,15.7z M22.6,16.9c0.3,0.6,0.4,1.3,0.4,2c0,0.7-0.1,1.4-0.4,2.1l-1-0.6c0.2-0.5,0.3-0.9,0.3-1.5
			c0-0.5-0.1-1-0.3-1.5L22.6,16.9z"/>
		<path class="st2" d="M21.6,17.5l1-0.6c-0.2-0.4-0.4-0.8-0.7-1.1l-1,0.6c-0.6-0.8-1.5-1.3-2.5-1.5v-1.2c-0.2,0-0.4,0-0.7,0
			c-0.2,0-0.5,0-0.7,0v1.2c-1,0.2-1.9,0.7-2.5,1.5l-1-0.6c-0.3,0.3-0.5,0.7-0.7,1.1l1,0.6c-0.2,0.5-0.3,0.9-0.3,1.5
			c0,0.5,0.1,1,0.3,1.5l-1,0.6c0.2,0.4,0.4,0.8,0.7,1.1l1-0.6c0.6,0.8,1.5,1.3,2.5,1.5v1.2c0.2,0,0.4,0,0.7,0c0.2,0,0.4,0,0.7,0V23
			c1-0.2,1.9-0.7,2.5-1.5l1,0.6c0.3-0.3,0.5-0.7,0.7-1.1l-1-0.6c0.2-0.5,0.3-0.9,0.3-1.5C21.8,18.4,21.7,17.9,21.6,17.5z M20.7,18
			c0.1,0.3,0.2,0.6,0.2,1c0,0.3-0.1,0.7-0.2,1c-0.1,0.4-0.4,0.8-0.7,1.1c-0.4,0.5-1,0.8-1.7,1c-0.2,0-0.4,0.1-0.7,0.1
			c-0.2,0-0.5,0-0.7-0.1c-0.7-0.1-1.3-0.5-1.7-1c-0.3-0.3-0.5-0.7-0.7-1.1c-0.1-0.3-0.2-0.6-0.2-1c0-0.3,0.1-0.7,0.2-1
			c0.1-0.4,0.4-0.8,0.7-1.1c0.4-0.5,1-0.8,1.7-1c0.2,0,0.4-0.1,0.7-0.1c0.2,0,0.5,0,0.7,0.1c0.7,0.1,1.2,0.5,1.7,1
			C20.3,17.1,20.6,17.5,20.7,18z"/>
		<path class="st2" d="M21.8,18.9c0-0.5-0.1-1-0.3-1.5c-0.2-0.4-0.4-0.8-0.7-1.1c-0.6-0.8-1.5-1.3-2.5-1.5c-0.2,0-0.4-0.1-0.7-0.1
			c-0.2,0-0.5,0-0.7,0.1c-1,0.2-1.9,0.7-2.5,1.5c-0.3,0.3-0.5,0.7-0.7,1.1c-0.2,0.5-0.3,0.9-0.3,1.5c0,0.5,0.1,1,0.3,1.5
			c0.2,0.4,0.4,0.8,0.7,1.1c0.6,0.8,1.5,1.3,2.5,1.5c0.2,0,0.4,0.1,0.7,0.1c0.2,0,0.4,0,0.7-0.1c1-0.2,1.9-0.7,2.5-1.5
			c0.3-0.3,0.5-0.7,0.7-1.1C21.7,19.9,21.8,19.5,21.8,18.9z M20.7,18c0.1,0.3,0.2,0.6,0.2,1c0,0.3-0.1,0.7-0.2,1
			c-0.1,0.4-0.4,0.8-0.7,1.1c-0.4,0.5-1,0.8-1.7,1c-0.2,0-0.4,0.1-0.7,0.1c-0.2,0-0.5,0-0.7-0.1c-0.7-0.1-1.3-0.5-1.7-1
			c-0.3-0.3-0.5-0.7-0.7-1.1c-0.1-0.3-0.2-0.6-0.2-1c0-0.3,0.1-0.7,0.2-1c0.1-0.4,0.4-0.8,0.7-1.1c0.4-0.5,1-0.8,1.7-1
			c0.2,0,0.4-0.1,0.7-0.1c0.2,0,0.5,0,0.7,0.1c0.7,0.1,1.2,0.5,1.7,1C20.3,17.1,20.6,17.5,20.7,18z"/>
		<path class="st2" d="M17,29.6v-3.1c0.2,0,0.4,0,0.7,0c0.2,0,0.4,0,0.7,0v3.1H17z"/>
		<path class="st2" d="M17,25.3V22c0.2,0,0.4,0.1,0.7,0.1c0.2,0,0.5,0,0.7-0.1v3.2c-0.2,0-0.4,0-0.7,0C17.5,25.3,17.2,25.3,17,25.3z
			"/>
		<path class="st2" d="M17,15.8V8.3h1.3v7.5c-0.2,0-0.4-0.1-0.7-0.1C17.5,15.8,17.2,15.8,17,15.8z"/>
		<path class="st2" d="M24.6,15.7c-0.2-0.4-0.4-0.8-0.7-1.1L25,14l1.1-0.6l0.5-0.3l0.7,1.1l-0.5,0.3l-1.1,0.6L24.6,15.7z"/>
		<path class="st2" d="M20.1,16.8l0.8-0.5l1-0.6l0.9-0.5c0.3,0.4,0.5,0.7,0.7,1.1l-0.9,0.5l-1,0.6L20.7,18
			C20.6,17.5,20.3,17.1,20.1,16.8z"/>
		<path class="st2" d="M8.2,23.7l0.5-0.3l1.1-0.6l1.1-0.6l1.1-0.6l0.9-0.5l1-0.6l0.8-0.5c0.1,0.4,0.4,0.8,0.7,1.1l-0.8,0.5l-1,0.6
			l-0.9,0.5l-1.1,0.6l-1.1,0.6l-1.1,0.6l-0.5,0.3L8.2,23.7z"/>
		<path class="st2" d="M20.1,21.1c0.3-0.3,0.5-0.7,0.7-1.1l0.8,0.5l1,0.6l0.9,0.5l1.1,0.6l1.1,0.6l1.1,0.6l0.5,0.3l-0.7,1.1
			l-0.5-0.3L25,23.9l-1.1-0.6l-1.1-0.6l-0.9-0.5l-1-0.6L20.1,21.1z"/>
		<path class="st2" d="M11.9,16.4c0.2-0.4,0.4-0.8,0.7-1.1l0.9,0.5l1,0.6l0.8,0.5c-0.3,0.3-0.5,0.7-0.7,1.1l-0.8-0.5l-1-0.6
			L11.9,16.4z"/>
		<path class="st2" d="M8.2,14.2L8.8,13l0.5,0.3l1.1,0.6l1.1,0.6c-0.3,0.4-0.5,0.7-0.7,1.1l-1.1-0.6l-1.1-0.6L8.2,14.2z"/>
	</g>
	<g>
		<g>
			<path class="st1" d="M32,30.3c0-0.1,0-0.2,0-0.2c0-1,0-2,0-3c0-0.2,0-0.2,0.2-0.2c0.6,0,1.2,0,1.8,0c0.2,0,0.4,0.1,0.7,0.1
				c0.2,0,0.4,0.1,0.6,0.1c0.4,0.1,0.8,0.3,1,0.7c0.1,0.2,0.2,0.5,0.2,0.8c0,0,0,0,0,0c0,0.4-0.1,0.8-0.3,1.1c0,0,0,0,0,0
				c-0.3,0.3-0.6,0.5-1,0.6c-0.3,0-0.5,0.1-0.8,0.1c-0.7,0-1.4,0-2.1,0C32.2,30.3,32.1,30.3,32,30.3z M33.2,29.5c0.3,0,0.6,0,0.9,0
				c0.3,0,0.6-0.1,0.8-0.1c0.3-0.1,0.5-0.3,0.5-0.7c0-0.1,0-0.2,0-0.2c0-0.2-0.1-0.4-0.3-0.5c-0.2-0.1-0.4-0.2-0.6-0.2
				c-0.4,0-0.8,0-1.2,0c-0.1,0-0.1,0-0.2,0C33.2,28.3,33.2,28.9,33.2,29.5z"/>
			<path class="st1" d="M38,29.1c0,0.2,0,0.4,0,0.6c0,0.2,0,0.4,0,0.6c-0.4,0-0.7,0-1.1,0c0,0,0-0.1,0-0.1c0-1,0-2.1,0-3.1
				c0-0.2,0-0.2,0.2-0.2c1.1,0,2.3,0,3.4,0c0.2,0,0.2,0,0.2,0.2c0,0.2,0,0.4,0,0.6c-0.1,0.1-0.2,0.1-0.3,0.1c-0.7,0-1.5,0-2.2,0
				c-0.1,0-0.1,0-0.2,0c0,0.2,0,0.3,0,0.5c0.7,0,1.3,0,2,0c0,0.1,0,0.1,0,0.1c0,0.2,0,0.4,0,0.6c0,0.2,0,0.2-0.2,0.2
				c-0.5,0-1,0-1.4,0C38.3,29.1,38.2,29.1,38,29.1z"/>
			<path class="st1" d="M52.6,28.6c0.3,0.1,0.4,0.3,0.4,0.6c0,0.2,0,0.4,0,0.5c0,0.3-0.2,0.5-0.5,0.6c-0.1,0-0.2,0-0.4,0
				c-0.8,0-1.7,0-2.5,0c-0.1,0-0.1,0-0.2,0c0-0.1,0-0.1,0-0.2c0-1,0-2.1,0-3.1c0,0,0-0.1,0-0.1c0-0.1,0-0.1,0.1-0.1c0,0,0.1,0,0.1,0
				c0.8,0,1.7,0,2.5,0c0.1,0,0.3,0,0.4,0.1c0.3,0.1,0.4,0.3,0.4,0.6c0,0.2,0,0.3,0,0.5C53.1,28.3,52.9,28.4,52.6,28.6
				C52.7,28.5,52.6,28.5,52.6,28.6z M50.2,28.8c0,0.3,0,0.9,0,1c0.1,0,0.1,0,0.2,0c0.5,0,1.1,0,1.6,0c0.1,0,0.2,0,0.3,0
				c0.2,0,0.2-0.1,0.2-0.3c0-0.1,0-0.3,0-0.4c0-0.2-0.1-0.3-0.3-0.3c-0.5,0-1,0-1.6,0C50.4,28.8,50.3,28.8,50.2,28.8z M50.2,28.2
				c0.7,0,1.4,0,2,0c0.1,0,0.1,0,0.2,0c0.1,0,0.1-0.1,0.1-0.1c0-0.2,0-0.3,0-0.5c0-0.1-0.1-0.2-0.2-0.2c0,0-0.1,0-0.1,0
				c-0.6,0-1.2,0-1.8,0c0,0-0.1,0-0.1,0C50.2,27.7,50.2,27.9,50.2,28.2z"/>
			<path class="st1" d="M47.1,30.3c-0.5,0-0.9,0-1.4,0c-0.2,0-0.3,0-0.4-0.1c-0.1-0.1-0.2-0.3-0.2-0.5c0-0.7,0-1.5,0-2.2
				c0-0.3,0.3-0.6,0.6-0.6c0.4-0.1,0.7,0,1.1,0c0.5,0,0.9,0,1.4,0c0.2,0,0.3,0,0.5,0c0.3,0,0.4,0.3,0.5,0.5c0.1,0.7,0,1.3,0,2
				c0,0.2,0,0.3,0,0.5c-0.1,0.3-0.3,0.4-0.5,0.4C48,30.3,47.6,30.3,47.1,30.3C47.1,30.3,47.1,30.3,47.1,30.3z M48.4,27.4
				c-0.3,0-2.6,0-2.8,0c0,0.5,0,2.2,0,2.4c0.9,0,1.8,0,2.7,0C48.4,29,48.4,28.2,48.4,27.4z"/>
			<path class="st3" d="M55.5,30.3c-0.5,0-0.9,0-1.4,0c-0.1,0-0.3,0-0.4-0.1c-0.2-0.1-0.2-0.2-0.2-0.4c-0.1-0.7,0-1.4,0-2.1
				c0-0.2,0-0.3,0.1-0.5c0.1-0.2,0.2-0.3,0.4-0.4c0.3-0.1,0.5,0,0.8,0c0.6,0,1.1,0,1.7,0c0.2,0,0.3,0,0.5,0c0.3,0,0.5,0.3,0.5,0.6
				c0,0.5,0,0.9,0,1.4c0,0.2,0,0.5,0,0.7c0,0.1,0,0.2-0.1,0.3c-0.1,0.2-0.3,0.3-0.5,0.3C56.4,30.3,56,30.3,55.5,30.3
				C55.5,30.3,55.5,30.3,55.5,30.3z M54.1,27.4c0,0.3,0,2.3,0,2.4c0.5,0,2.6,0,2.7,0c0-0.8,0-1.6,0-2.4C56,27.4,55,27.4,54.1,27.4z"
				/>
			<path class="st1" d="M41.7,29c0,0.4,0,0.9,0,1.3c-0.2,0-0.4,0-0.6,0c0-0.1,0-0.1,0-0.1c0-1,0-2.1,0-3.1c0,0,0-0.1,0-0.1
				c0-0.1,0-0.1,0.1-0.1c0,0,0.1,0,0.1,0c0.8,0,1.7,0,2.5,0c0.2,0,0.4,0,0.5,0.1c0.2,0.1,0.3,0.2,0.3,0.4c0,0.4,0,0.7,0,1.1
				c0,0.2-0.1,0.3-0.3,0.4C44.2,29,44,29,43.8,29c-0.1,0-0.2,0-0.4,0c0.5,0.4,1,0.8,1.5,1.3c0,0,0,0,0,0c-0.2,0-0.4,0-0.5,0
				c-0.2,0-0.4-0.1-0.5-0.2c-0.3-0.3-0.7-0.7-1-1c0,0-0.1-0.1-0.1-0.1C42.4,29,42,29,41.7,29z M41.7,28.5c0.2,0,0.4,0,0.5,0
				c0.5,0,1,0,1.4,0c0,0,0.1,0,0.1,0c0.1,0,0.2,0,0.2-0.1c0,0,0-0.1,0-0.1c0-0.2,0-0.4,0-0.5c0-0.2-0.1-0.3-0.3-0.3
				c-0.6,0-1.2,0-1.9,0c0,0-0.1,0-0.1,0C41.7,27.8,41.7,28.1,41.7,28.5z"/>
			<path class="st3" d="M59.3,30.3c0-1,0-1.9,0-2.9c-0.3,0-0.5,0-0.8,0c-0.2,0-0.5,0-0.7,0c0-0.1,0-0.2,0-0.3c0-0.1,0-0.2,0-0.3
				c0.1,0,0.1,0,0.2,0c1.1,0,2.2,0,3.3,0c0,0,0.1,0,0.1,0c0.1,0,0.1,0,0.1,0.1c0,0.1,0,0.2,0,0.4c-0.1,0-0.1,0-0.2,0
				c-0.4,0-0.8,0-1.2,0c0,0-0.1,0-0.1,0c-0.1,0-0.1,0-0.1,0.1c0,0.1,0,0.1,0,0.2c0,0.8,0,1.7,0,2.5c0,0.1,0,0.1,0,0.2
				C59.7,30.3,59.5,30.3,59.3,30.3z"/>
		</g>
		<g>
			<path class="st1" d="M37.2,31.9c0-0.1,0-0.3,0-0.4c0-0.1,0-0.2,0.1-0.2c0.2,0,0.4,0,0.6,0c0.2,0,0.4,0.1,0.5,0.3
				c0.2,0.2,0.1,0.7-0.3,0.8c-0.1,0-0.2,0-0.4,0c-0.1,0-0.3,0-0.4,0c-0.2,0-0.2,0-0.2-0.2C37.2,32.1,37.2,32,37.2,31.9z M37.5,32.2
				c0.2,0,0.3,0,0.5,0c0.1,0,0.3,0,0.3-0.2c0-0.1,0-0.2,0-0.3c0-0.1-0.1-0.2-0.2-0.2c-0.2,0-0.4,0-0.6,0
				C37.5,31.8,37.5,32,37.5,32.2z"/>
			<path class="st1" d="M39.7,32.1c0.1,0.1,0.3,0.3,0.4,0.4c0,0.1,0,0.1-0.1,0.1c-0.1,0-0.2-0.1-0.3-0.2c-0.1-0.1-0.2-0.2-0.3-0.2
				c-0.1-0.1-0.2,0-0.3,0c0,0.1,0,0.3,0,0.4c-0.1,0-0.2,0-0.2,0c0-0.1,0-0.1,0-0.2c0-0.3,0-0.6,0-0.8c0-0.1,0-0.2,0.2-0.2
				c0.2,0,0.5,0,0.7,0c0.2,0,0.3,0.1,0.3,0.3c0,0,0,0.1,0,0.1C40,32,39.9,32,39.7,32.1z M39.1,31.8c0.2,0,0.4,0,0.6,0
				c0-0.1,0-0.2,0-0.2c-0.2,0-0.4,0-0.6,0C39.1,31.7,39.1,31.7,39.1,31.8z"/>
			<path class="st1" d="M55.6,32c0.1,0.1,0.3,0.3,0.4,0.4c-0.2,0-0.3,0-0.4-0.1c-0.1-0.1-0.2-0.2-0.3-0.3c-0.1,0-0.2,0-0.3-0.1
				c0,0.2,0,0.3,0,0.4c-0.1,0-0.2,0-0.2,0c0-0.1,0-0.1,0-0.1c0-0.3,0-0.6,0-0.8c0-0.2,0-0.2,0.2-0.2c0.2,0,0.5,0,0.7,0
				c0.1,0,0.1,0,0.2,0.1c0.1,0,0.1,0.1,0.1,0.2c0,0.1,0,0.2,0,0.3c0,0.2,0,0.2-0.2,0.2C55.7,32,55.7,32,55.6,32z M55,31.8
				c0.2,0,0.4,0,0.5,0c0.1,0,0.1,0,0.1-0.1c0-0.1,0-0.1-0.1-0.1c-0.2,0-0.4,0-0.6,0C55,31.7,55,31.7,55,31.8z"/>
			<path class="st1" d="M48.2,31.6c-0.3,0-0.6,0-0.9,0c0,0.1,0,0.1,0,0.2c0.1,0,0.2,0,0.3,0c0,0,0.1,0,0.1,0c0,0,0.1,0.1,0.1,0.1
				c0,0.1,0,0.1-0.1,0.1c-0.1,0-0.2,0-0.3,0c0,0-0.1,0-0.1,0c0,0.1,0,0.2,0,0.2c0.3,0,0.6,0,0.9,0c0,0.1,0,0.1,0,0.2
				c-0.1,0.1-0.8,0.1-1.1,0c0,0,0-0.1,0-0.1c0-0.3,0-0.5,0-0.8c0-0.2,0-0.2,0.2-0.2c0.2,0,0.5,0,0.7,0
				C48.2,31.3,48.2,31.3,48.2,31.6z"/>
			<path class="st1" d="M42.2,31.3c0.3,0,0.7,0,1,0c0,0,0.1,0,0.1,0.1c0,0,0,0.1,0,0.1c0,0-0.1,0.1-0.1,0.1c-0.1,0-0.1,0-0.2,0
				c-0.2,0-0.4,0-0.6,0c0,0.1,0,0.1,0,0.2c0,0,0,0,0,0c0.2,0,0.3,0,0.5,0c0,0,0,0,0,0c0,0,0,0.1,0,0.2c-0.2,0-0.4,0-0.5,0
				c0,0.1,0,0.2,0,0.2c0.1,0,0.1,0,0.2,0c0.2,0,0.4,0,0.6,0c0.2,0,0.2,0,0.2,0.2c-0.4,0-0.7,0-1.1,0C42.2,32.1,42.2,31.7,42.2,31.3z
				"/>
			<path class="st1" d="M56.4,31.6c0,0.1,0,0.1,0,0.2c0.2,0,0.3,0,0.5,0c0,0.2,0,0.2-0.1,0.2c-0.1,0-0.3,0-0.4,0c0,0.1,0,0.1,0,0.1
				c0,0,0,0.1,0,0.1c0.2,0,0.3,0,0.4,0c0.1,0,0.2,0,0.3,0c0.1,0,0.1,0,0.1,0.2c-0.1,0-0.8,0-1.1,0c0-0.2,0-0.9,0-1.1
				c0.1,0,0.1,0,0.2,0c0.2,0,0.5,0,0.7,0c0.1,0,0.2,0,0.2,0.1c0,0.1-0.1,0.1-0.2,0.1C56.9,31.6,56.7,31.6,56.4,31.6z"/>
			<path class="st1" d="M46.5,32.4c0-0.1,0-0.3,0-0.4c-0.1,0-0.3,0-0.4,0c-0.1,0-0.3,0-0.4,0c0,0.2,0,0.3,0,0.5c-0.1,0-0.2,0-0.3,0
				c0-0.1,0-0.2,0-0.3c0-0.2,0-0.4,0-0.7c0-0.1,0-0.1,0.1-0.1c0.1,0,0.2,0,0.2,0.1c0,0.1,0,0.2,0,0.3c0.3,0,0.5,0,0.8,0
				c0-0.1,0-0.2,0-0.3c0-0.1,0-0.1,0.1-0.1c0.1,0,0.1,0,0.1,0.1c0,0.3,0,0.7,0,1C46.7,32.5,46.6,32.5,46.5,32.4z"/>
			<path class="st1" d="M50.7,32.2c0.3,0,0.5,0,0.8,0c0-0.3,0-0.6,0-0.9c0.2,0,0.2,0,0.2,0.1c0,0.3,0,0.5,0,0.8
				c0,0.1-0.1,0.2-0.2,0.2c-0.3,0-0.5,0-0.8,0c-0.2,0-0.3-0.1-0.3-0.3c0-0.2,0-0.5,0-0.7c0-0.1,0-0.1,0.1-0.1c0.1,0,0.2,0,0.2,0.1
				c0,0.2,0,0.4,0,0.6C50.7,32.1,50.7,32.2,50.7,32.2z"/>
			<path class="st1" d="M53.4,32.2c0.3,0,0.5,0,0.8,0c0-0.2,0-0.4,0-0.6c0-0.1,0-0.1,0-0.2c0-0.1,0-0.1,0.1-0.1c0.1,0,0.1,0,0.1,0.1
				c0,0.2,0,0.3,0,0.5c0,0.1,0,0.2,0,0.3c0,0.1-0.1,0.2-0.2,0.2c-0.3,0-0.5,0-0.8,0c-0.1,0-0.2-0.1-0.2-0.2c0-0.3,0-0.6,0-0.8
				c0-0.1,0-0.1,0.2-0.1c0,0.2,0,0.3,0,0.5C53.4,31.9,53.4,32.1,53.4,32.2z"/>
			<path class="st1" d="M49.5,31.6c0,0.1,0,0.2,0,0.2c0,0,0.1,0,0.1,0c0.1,0,0.2,0,0.2,0c0.1,0,0.1,0,0.1,0.1c0,0.1,0,0.1-0.1,0.1
				c-0.1,0-0.2,0-0.4,0c0,0.1,0,0.3,0,0.4c-0.1,0-0.2,0-0.2,0c0,0,0-0.1,0-0.1c0-0.3,0-0.6,0-0.8c0-0.2,0-0.2,0.2-0.2
				c0.3,0,0.6,0,0.9,0c0,0.1,0,0.2,0,0.3C50.1,31.6,49.8,31.6,49.5,31.6z"/>
			<path class="st1" d="M44.6,31.6c-0.1,0-0.3,0-0.4,0c-0.1,0-0.1,0-0.1-0.1c0-0.1,0-0.1,0.1-0.1c0.3,0,0.7,0,1,0c0,0,0.1,0,0.1,0
				c0.1,0,0.1,0.1,0.1,0.1c0,0.1,0,0.1-0.1,0.1c-0.1,0-0.3,0-0.4,0c0,0.3,0,0.5,0,0.7c0,0.1-0.1,0.2-0.2,0.1c-0.1,0-0.1-0.1-0.1-0.1
				c0-0.2,0-0.4,0-0.5C44.6,31.7,44.6,31.7,44.6,31.6z"/>
			<path class="st1" d="M52.6,31.6c0,0.3,0,0.5,0,0.7c0,0.1,0,0.1-0.1,0.1c-0.1,0.1-0.2,0-0.2-0.1c0-0.1,0-0.1,0-0.2
				c0-0.2,0-0.4,0-0.5c-0.1,0-0.2,0-0.4,0c-0.1,0-0.1,0-0.1-0.1c0-0.1,0-0.2,0.1-0.2c0.2,0,0.4,0,0.6,0c0.1,0,0.3,0,0.4,0
				c0.1,0,0.1,0.1,0.1,0.2c0,0.1-0.1,0.1-0.1,0.1C52.9,31.6,52.7,31.6,52.6,31.6z"/>
			<path class="st1" d="M42,31.3c0,0.1,0,0.1,0,0.2c-0.1,0.2-0.2,0.4-0.3,0.6c-0.1,0.1-0.1,0.2-0.2,0.3c0,0.1-0.1,0.2-0.3,0.1
				c-0.2-0.3-0.4-0.7-0.6-1.1c0.2,0,0.2-0.1,0.3,0.1c0.1,0.2,0.2,0.4,0.3,0.6c0,0.1,0.1,0.1,0.1,0.2c0.1-0.2,0.2-0.4,0.4-0.7
				c0,0,0-0.1,0.1-0.1C41.8,31.3,41.8,31.3,42,31.3z"/>
			<path class="st1" d="M40.2,31.3C40.3,31.3,40.3,31.3,40.2,31.3c0.3,0,0.3,0,0.3,0.2c0,0.3,0,0.5,0,0.8c0,0.1,0,0.2-0.2,0.2
				c-0.1,0-0.1,0-0.1-0.1c0-0.1,0-0.2,0-0.3C40.2,31.9,40.2,31.6,40.2,31.3z"/>
		</g>
		<g>
			<path class="st1" d="M42.6,16.8c1.3-0.7,2.5-1.5,3.8-2.2c0-0.3,0-0.6,0-0.9c0-0.1,0-0.2-0.1-0.2c-0.1-0.1-0.2-0.2-0.3-0.3
				c-0.2-0.5,0.2-1,0.7-1c0.4,0,0.7,0.3,0.7,0.7c0,0.4-0.1,0.5-0.4,0.7c0,0.3,0,0.6,0,0.9c0,0.1,0,0.1,0.1,0.2
				c0.2,0.1,0.3,0.2,0.5,0.3c0.3,0.2,0.6,0.3,0.9,0.5c0.2,0.1,0.5,0.3,0.7,0.4c0.5,0.3,1,0.6,1.5,0.9c0.1,0.1,0.2,0.1,0.3,0
				c0.2-0.1,0.5-0.3,0.7-0.4c0-0.2,0.1-0.4,0.2-0.6c0.1-0.1,0.3-0.2,0.5-0.2c0.2-0.1,0.6,0.2,0.7,0.4c0.1,0.2,0.1,0.6-0.1,0.9
				c-0.1,0.1-0.3,0.2-0.5,0.2c-0.2,0-0.3,0-0.5-0.1c-0.3,0.2-0.6,0.3-0.9,0.5c0,0.1,0,0.2,0,0.3c0,1.3,0,2.5,0,3.8
				c0,0.3-0.1,0.6-0.4,0.8c-0.3,0.2-0.7,0.4-1,0.6c-0.3,0.2-0.7,0.4-1,0.6c-0.2,0.1-0.4,0.2-0.6,0.4c-0.3,0.2-0.6,0.4-0.9,0.5
				c-0.3,0.2-0.6,0.2-0.9,0c-0.4-0.3-0.9-0.5-1.4-0.8c-0.5-0.3-1-0.6-1.5-0.9c-0.2-0.1-0.5-0.3-0.7-0.4c-0.3-0.2-0.4-0.4-0.4-0.8
				c0-0.5,0-0.9,0-1.4c0-0.8,0-1.7,0-2.5c0-0.2-0.1-0.3-0.2-0.4C42,17.1,41.8,17,41.6,17c-0.1-0.1-0.2-0.1-0.3,0c0,0-0.1,0-0.1,0
				c-0.2,0.1-0.4,0.1-0.6,0c-0.1-0.1-0.3-0.2-0.4-0.4c-0.1-0.3-0.1-0.9,0.4-1c0.2-0.1,0.4-0.1,0.5,0c0.1,0.1,0.3,0.1,0.3,0.3
				c0.1,0.1,0.2,0.3,0.2,0.4c0,0,0,0.1,0.1,0.1C42.1,16.5,42.4,16.7,42.6,16.8z M50.5,19.2c-0.4,0-7.4,0-7.6,0c0,0.1,0,0.1,0,0.2
				c0,0.4,0,0.8,0,1.2c0,0.2,0.1,0.3,0.3,0.4c0.2,0.1,0.5,0.1,0.7,0.2c0.1,0,0.3,0.1,0.4,0.1c0.2,0.1,0.4,0.1,0.7,0.2
				c0.4,0.1,0.9,0.3,1.3,0.4c0.2,0.1,0.5,0.1,0.7,0c0.2-0.1,0.4-0.1,0.6-0.2c0.3-0.1,0.6-0.2,0.9-0.3c0.1,0,0.2-0.1,0.2-0.1
				c0.1,0,0.2,0,0.3-0.1c0.2-0.1,0.5-0.2,0.8-0.2c0.2,0,0.3-0.1,0.5-0.2c0.2-0.1,0.3-0.2,0.3-0.3C50.5,20.2,50.5,19.7,50.5,19.2z"/>
			<path class="st1" d="M46.8,19.3c1.1,0,2.2,0,3.3,0c0,0,0.1,0,0.1,0c0.1,0,0.2,0,0.2,0.2c0,0.4,0,0.8,0,1.2c0,0.1,0,0.2-0.1,0.2
				c-0.1,0-0.1,0.1-0.2,0.1c-0.3,0.1-0.7,0.2-1,0.3c-0.1,0-0.2,0.1-0.3,0.1c-0.3,0.1-0.5,0.2-0.8,0.3c-0.4,0.1-0.8,0.2-1.2,0.4
				c-0.1,0-0.3,0-0.4-0.1c-0.4-0.1-0.7-0.2-1.1-0.4c-0.3-0.1-0.5-0.1-0.8-0.2c-0.2,0-0.3-0.1-0.5-0.1c-0.3-0.1-0.6-0.2-0.9-0.3
				c-0.1,0-0.1-0.1-0.1-0.2c0-0.4,0-0.8,0-1.2c0-0.2,0-0.2,0.2-0.2c0.8,0,1.5,0,2.3,0C46,19.3,46.4,19.3,46.8,19.3z M50,19.8
				c-0.5,0-6.2,0-6.4,0c0,0.2,0,0.3,0,0.5c0,0.2,0,0.3,0.2,0.3c0.2,0.1,0.5,0.2,0.7,0.2c0.3,0.1,0.6,0.2,0.9,0.3
				c0.4,0.1,0.7,0.2,1.1,0.3c0.2,0.1,0.3,0.1,0.5,0c0.1,0,0.3-0.1,0.4-0.1c0.3-0.1,0.7-0.2,1-0.3c0.2-0.1,0.4-0.1,0.5-0.2
				c0.3-0.1,0.6-0.2,0.9-0.3c0,0,0,0,0.1,0c0.1,0,0.1-0.1,0.1-0.2C50,20.2,50,20,50,19.8z"/>
		</g>
	</g>
</g>
</svg>
