<?xml version="1.0" encoding="UTF-8" standalone="no"?>
<!-- Created with Inkscape (http://www.inkscape.org/) -->

<svg
   xmlns:dc="http://purl.org/dc/elements/1.1/"
   xmlns:cc="http://creativecommons.org/ns#"
   xmlns:rdf="http://www.w3.org/1999/02/22-rdf-syntax-ns#"
   xmlns:svg="http://www.w3.org/2000/svg"
   xmlns="http://www.w3.org/2000/svg"
   xmlns:sodipodi="http://sodipodi.sourceforge.net/DTD/sodipodi-0.dtd"
   xmlns:inkscape="http://www.inkscape.org/namespaces/inkscape"
   width="744.09448819"
   height="1052.3622047"
   id="svg23701"
   version="1.1"
   inkscape:version="0.48.1 "
   sodipodi:docname="STEP3.svg"
   inkscape:export-filename="D:\01 -Work\08 - 移动机器人导购系统\连线图\安装图\STEP3.png"
   inkscape:export-xdpi="400"
   inkscape:export-ydpi="400">
  <defs
     id="defs23703" />
  <sodipodi:namedview
     id="base"
     pagecolor="#ffffff"
     bordercolor="#666666"
     borderopacity="1.0"
     inkscape:pageopacity="0.0"
     inkscape:pageshadow="2"
     inkscape:zoom="1.979899"
     inkscape:cx="308.48131"
     inkscape:cy="642.20061"
     inkscape:document-units="px"
     inkscape:current-layer="layer1"
     showgrid="false"
     inkscape:window-width="1920"
     inkscape:window-height="1017"
     inkscape:window-x="-8"
     inkscape:window-y="-8"
     inkscape:window-maximized="1" />
  <metadata
     id="metadata23706">
    <rdf:RDF>
      <cc:Work
         rdf:about="">
        <dc:format>image/svg+xml</dc:format>
        <dc:type
           rdf:resource="http://purl.org/dc/dcmitype/StillImage" />
        <dc:title></dc:title>
      </cc:Work>
    </rdf:RDF>
  </metadata>
  <g
     inkscape:label="Layer 1"
     inkscape:groupmode="layer"
     id="layer1">
    <text
       y="462.53458"
       x="195.20171"
       style="font-size:6px;font-style:normal;font-variant:normal;font-weight:bold;font-stretch:normal;text-align:start;line-height:125%;writing-mode:lr-tb;text-anchor:start;font-family:Sans;-inkscape-font-specification:Sans Bold;fill:#808080"
       transform="scale(1.0373524,0.96399256)"
       font-size="7"
       id="text4515"
       sodipodi:linespacing="125%">M6 Nut</text>
    <text
       y="486.9415"
       x="161.83702"
       style="font-size:6px;font-style:normal;font-variant:normal;font-weight:bold;font-stretch:normal;text-align:start;line-height:125%;writing-mode:lr-tb;text-anchor:start;font-family:Sans;-inkscape-font-specification:Sans Bold;fill:#808080"
       transform="scale(1.0373524,0.96399256)"
       font-size="7"
       id="text4539"
       sodipodi:linespacing="125%">M6 Special Washer</text>
    <text
       y="532.59668"
       x="177.7233"
       style="font-size:6px;font-style:normal;font-variant:normal;font-weight:bold;font-stretch:normal;text-align:start;line-height:125%;writing-mode:lr-tb;text-anchor:start;font-family:Sans;-inkscape-font-specification:Sans Bold;fill:#808080"
       transform="scale(1.0373524,0.96399256)"
       font-size="7"
       id="text4549"
       sodipodi:linespacing="125%">Power Switch</text>
    <text
       y="536.30151"
       x="382.71097"
       style="font-size:6px;font-family:Sans;-inkscape-font-specification:Sans Bold;font-weight:bold;font-style:normal;font-stretch:normal;font-variant:normal;text-anchor:start;text-align:start;writing-mode:lr;line-height:125%;fill:#808080"
       transform="scale(1.0373524,0.96399256)"
       font-size="7"
       id="text4559"
       sodipodi:linespacing="125%">Power Jack</text>
    <path
       style="fill:#000000;stroke:#808080;stroke-width:0.50000000000000000;stroke-miterlimit:10"
       inkscape:connector-curvature="0"
       stroke-miterlimit="10"
       d="m 363.04936,514.9709 -27.722,-29.792 m 59.549,29.792 h -31.827 m 0,0 h 31.827 m 0,0 h -31.827 m 0,0 h 31.827 m 0,0 h -31.827 m 0,0 h 31.827 m -136.573,-3.161 28.702,-21.544 m -28.702,21.544 h -32.047 m 0,0 h 32.047 m 0,0 h -32.047 m 0,0 h 32.047 m 0,0 h -32.047 m 0,0 h 32.047 m -0.655,-43.781 32.01,-23.544 m -32.01,23.544 h -31.863 m -0.001,0 h 31.863 m 0.001,0 h -31.863 m -0.001,0 h 31.863 m 0.001,0 h -31.863 m -0.001,0 h 31.863 m 0.001,-23.688 31.102,-23.544 m -31.102,23.544 h -31.863 m -0.001,0 h 31.863 m 0.001,0 h -31.863 m -0.001,0 h 31.863 m 0.001,0 h -31.863 m -0.001,0 h 31.863 m 113.977,-100.679 -18.022,25.578 m 50.067,-25.578 h -32.045 m 0,0 h 32.045 m 0,0 h -32.045 m 0,0 h 32.045 m 0,0 h -32.045 m 0,0 h 32.045 m -32.045,-34.552 -23.578,23.98 m 55.623,-23.98 h -32.045 m 0,0 h 32.045 m 0,0 h -32.045 m 0,0 h 32.045 m 0,0 h -32.045 m 0,0 h 32.045 m -32.045,-24.162 -23.107,28.484 m 55.152,-28.484 h -32.045 m 0,0 h 32.045 m 0,0 h -32.045 m 0,0 h 32.045 m 0,0 h -32.045 m 0,0 h 32.045 m -146.021,0 37.967,18.603 m -37.967,-18.603 h -31.863 m -0.001,0 h 31.863 m 0.001,0 h -31.863 m -0.001,0 h 31.863 m 0.001,0 h -31.863 m -0.001,0 h 31.863"
       id="path4601" />
    <line
       style="fill:none;stroke:#040000;stroke-width:0.50999999;stroke-linecap:round;stroke-linejoin:round;stroke-miterlimit:10;stroke-dasharray:3.6, 1.8;stroke-dashoffset:1"
       stroke-miterlimit="10"
       x1="294.12033"
       y1="440.19989"
       x2="294.83438"
       y2="422.67389"
       id="line4603" />
    <line
       style="fill:none;stroke:#040000;stroke-width:0.50999999;stroke-linecap:round;stroke-linejoin:round;stroke-miterlimit:10;stroke-dasharray:3.6, 1.8"
       stroke-miterlimit="10"
       x1="293.92838"
       y1="444.90393"
       x2="292.86636"
       y2="471.0079"
       id="line4605" />
    <line
       style="fill:none;stroke:#040000;stroke-width:0.50999999;stroke-linecap:round;stroke-linejoin:round;stroke-miterlimit:10;stroke-dasharray:3.6, 1.8"
       stroke-miterlimit="10"
       x1="294.95938"
       y1="419.59393"
       x2="295.58133"
       y2="404.33594"
       id="line4607" />
    <line
       style="fill:none;stroke:#040000;stroke-width:0.50999999;stroke-linecap:round;stroke-linejoin:round;stroke-miterlimit:10;stroke-dasharray:3.6, 1.8;stroke-dashoffset:1"
       stroke-miterlimit="10"
       x1="297.72336"
       y1="351.6839"
       x2="299.57333"
       y2="306.24387"
       id="line4609" />
    <line
       style="fill:none;stroke:#040000;stroke-width:0.50999999;stroke-linecap:round;stroke-linejoin:round;stroke-miterlimit:10;stroke-dasharray:3.6, 1.8"
       stroke-miterlimit="10"
       x1="340.00235"
       y1="335.66992"
       x2="340.76437"
       y2="316.92889"
       id="line4611" />
    <line
       style="fill:none;stroke:#040000;stroke-width:0.50999999;stroke-linecap:round;stroke-linejoin:round;stroke-miterlimit:10;stroke-dasharray:3.6, 1.8;stroke-dashoffset:2"
       stroke-miterlimit="10"
       x1="338.76834"
       y1="365.9989"
       x2="339.87436"
       y2="338.79889"
       id="line4613" />
    <line
       style="fill:none;stroke:#040000;stroke-width:0.50999999;stroke-linecap:round;stroke-linejoin:round;stroke-miterlimit:10;stroke-dasharray:3.6, 1.8;stroke-dashoffset:1"
       stroke-miterlimit="10"
       x1="334.76736"
       y1="464.29288"
       x2="336.62338"
       y2="418.6499"
       id="line4615" />
    <path
       style="fill:#050000"
       inkscape:connector-curvature="0"
       d="m 334.92836,484.7429 -0.073,0.072 -0.072,0.109 -0.036,0.109 -0.036,0.109 v 0.108 l 0.036,0.109 0.036,0.109 0.072,0.074 0.073,0.109 0.108,0.072 0.072,0.036 0.11,0.036 h 0.145 0.109 l 0.109,-0.036 0.072,-0.072 0.109,-0.073 0.071,-0.071 0.073,-0.11 0.038,-0.072 v -0.146 -0.109 -0.108 l -0.038,-0.108 -0.073,-0.073 -0.071,-0.109 -0.109,-0.071 -0.11,-0.037 -0.108,-0.037 h -0.108 -0.108 l -0.11,0.037 -0.107,0.072 -0.074,0.071 0.399,0.437 m -47.813,4.722 -0.073,-0.073 -0.109,-0.073 -0.108,-0.074 h -0.109 l -0.108,-0.035 -0.109,0.035 h -0.108 l -0.11,0.074 -0.072,0.073 -0.071,0.073 -0.073,0.108 -0.037,0.109 -0.037,0.109 v 0.109 l 0.037,0.11 0.037,0.109 0.036,0.072 0.108,0.108 0.072,0.073 0.11,0.037 0.108,0.035 h 0.109 0.108 l 0.109,-0.035 0.108,-0.037 0.073,-0.073 0.109,-0.072 0.037,-0.108 0.035,-0.109 0.036,-0.11 v -0.109 l -0.036,-0.109 -0.035,-0.109 -0.037,-0.108 -0.509,0.364 m 3.123,-46.144 -0.071,-0.071 -0.072,-0.073 -0.11,-0.037 -0.107,-0.036 -0.109,-0.035 -0.108,0.035 -0.109,0.036 -0.109,0.037 -0.073,0.073 -0.109,0.071 -0.036,0.109 -0.036,0.11 -0.036,0.108 v 0.108 0.108 l 0.036,0.11 0.072,0.108 0.074,0.073 0.108,0.072 0.071,0.037 0.109,0.037 h 0.146 0.109 l 0.107,-0.037 0.11,-0.037 0.072,-0.072 0.071,-0.073 0.074,-0.108 0.035,-0.11 0.038,-0.108 v -0.108 l -0.038,-0.108 -0.035,-0.11 -0.074,-0.109 -0.471,0.363 m -0.435,-24.052 -0.074,-0.072 -0.072,-0.073 -0.108,-0.072 -0.11,-0.037 h -0.107 -0.109 l -0.108,0.037 -0.109,0.072 -0.109,0.073 -0.073,0.072 -0.035,0.108 -0.074,0.109 v 0.11 0.108 0.109 l 0.074,0.109 0.035,0.072 0.073,0.109 0.109,0.072 0.109,0.037 0.108,0.037 h 0.109 0.107 l 0.11,-0.037 0.108,-0.037 0.072,-0.072 0.074,-0.109 0.072,-0.072 0.036,-0.109 0.035,-0.109 v -0.108 l -0.035,-0.11 -0.036,-0.109 -0.072,-0.108 -0.473,0.364 m 64.49,-51.047 0.108,0.072 0.108,0.036 h 0.11 0.108 0.11 l 0.108,-0.073 0.108,-0.036 0.072,-0.073 0.073,-0.109 0.036,-0.109 0.037,-0.109 v -0.109 -0.108 l -0.037,-0.109 -0.072,-0.109 -0.072,-0.073 -0.072,-0.072 -0.109,-0.073 -0.109,-0.037 h -0.11 -0.106 -0.11 l -0.108,0.074 -0.11,0.037 -0.072,0.072 -0.071,0.109 -0.036,0.109 -0.037,0.108 v 0.11 0.108 l 0.037,0.109 0.071,0.108 0.073,0.073 0.072,0.074 0.362,-0.51 m -5.993,-35.715 0.072,0.072 0.109,0.073 h 0.107 l 0.109,0.037 h 0.108 l 0.11,-0.037 0.107,-0.036 0.11,-0.073 0.073,-0.073 0.071,-0.108 0.036,-0.109 0.037,-0.109 v -0.108 l -0.037,-0.109 -0.036,-0.109 -0.035,-0.11 -0.072,-0.072 -0.11,-0.073 -0.071,-0.074 -0.109,-0.035 h -0.144 -0.108 l -0.109,0.035 -0.109,0.037 -0.073,0.073 -0.071,0.073 -0.072,0.107 -0.036,0.11 -0.037,0.108 v 0.109 0.109 l 0.037,0.109 0.071,0.109 0.072,0.074 0.438,-0.436 m 0.069,-19.184 0.074,0.073 0.109,0.036 0.108,0.036 h 0.146 0.108 l 0.108,-0.036 0.073,-0.073 0.109,-0.073 0.072,-0.072 0.037,-0.109 0.035,-0.11 0.037,-0.108 -0.037,-0.108 v -0.11 l -0.072,-0.109 -0.072,-0.108 -0.073,-0.073 -0.071,-0.073 -0.11,-0.036 -0.109,-0.036 h -0.107 l -0.147,0.036 -0.071,0.036 -0.109,0.037 -0.106,0.072 -0.075,0.109 -0.036,0.073 -0.037,0.109 v 0.108 0.146 0.109 l 0.073,0.109 0.075,0.073 0.068,0.072 0.401,-0.473 m -52.356,-9.628 0.036,-0.108 0.035,-0.109 v -0.109 l -0.035,-0.109 -0.036,-0.109 -0.073,-0.072 -0.071,-0.109 -0.072,-0.072 -0.11,-0.037 -0.108,-0.036 h -0.11 -0.107 l -0.109,0.036 -0.109,0.037 -0.109,0.072 -0.073,0.109 -0.035,0.072 -0.036,0.109 -0.035,0.109 v 0.145 l 0.035,0.109 0.036,0.109 0.035,0.072 0.11,0.109 0.072,0.037 0.109,0.073 0.109,0.037 h 0.107 0.11 l 0.108,-0.037 0.11,-0.073 0.072,-0.073 0.108,-0.073 0.036,-0.109 -0.546,-0.254"
       id="path4617" />
    <path
       style="fill:none;stroke:#000000;stroke-width:0.5;stroke-miterlimit:10"
       inkscape:connector-curvature="0"
       stroke-miterlimit="10"
       d="m 332.42136,334.5059 0.182,-0.109 0.836,-0.327 1.089,-0.29 1.271,-0.219 1.418,-0.108 1.525,-0.073 1.599,0.037 1.563,0.145 1.49,0.182 1.381,0.254 1.198,0.363 0.981,0.364 0.654,0.398 m 0.691,-0.69 -0.146,-0.437 -0.437,-0.436 -0.726,-0.399 -0.944,-0.4 -1.199,-0.327 -1.381,-0.291 -1.49,-0.182 -1.562,-0.109 -1.599,-0.037 -1.527,0.037 -1.453,0.145 -1.271,0.181 -1.054,0.292 -0.835,0.364 -0.581,0.363 -0.255,0.437 -0.036,0.146 m 0.363,0.508 -0.508,-0.327 -0.182,-0.871 0.907,-0.763 1.925,-0.618 2.689,-0.363 3.052,-0.037 3.052,0.292 2.689,0.544 1.925,0.726 0.945,0.872 -0.218,0.872 -1.271,0.727 m -18.057,0.799 0.072,0.072 0.728,0.509 0.945,0.472 1.234,0.437 1.453,0.399 1.6,0.327 1.743,0.219 1.817,0.18 1.851,0.074 h 1.854 l 1.781,-0.074 1.633,-0.18 m 3.091,-0.618 1.017,-0.399 0.727,-0.399 m -21.946,-3.526 0.146,0.508 0.399,0.509 0.691,0.508 0.98,0.473 1.235,0.435 1.418,0.363 1.635,0.328 1.744,0.254 1.816,0.146 1.853,0.108 h 1.854 l 1.742,-0.108 1.672,-0.146 m 3.09,-0.653 1.017,-0.4 0.727,-0.436 0.472,-0.472 0.146,-0.473 m -19.912,-3.051 -1.09,0.437 -0.727,0.508 -0.399,0.509 -0.037,0.545 0.327,0.581 0.728,0.546 1.017,0.508 1.345,0.473 1.563,0.399 1.817,0.327 1.924,0.218 1.999,0.146 1.998,0.037 1.926,-0.073 1.816,-0.182 m 3.088,-0.619 1.055,-0.437 0.725,-0.508 0.4,-0.509 0.036,-0.581 -0.363,-0.545 -0.727,-0.545 -0.799,-0.399 m -20.419,165.787 -0.255,-0.072 m 0.182,-3.962 0.219,0.074 m -3.924,-2.072 1.634,0.108 m 0.653,8.866 -0.69,0.145 m 0.147,-3.959 0.617,-0.146 m 17.802,-19.147 -0.035,0.218 -0.327,0.509 -0.582,0.436 -0.872,0.401 -1.162,0.363 -1.381,0.289 -1.525,0.219 -1.708,0.108 -1.78,0.037 -1.854,-0.037 -1.815,-0.108 -1.744,-0.219 -1.636,-0.289 -1.49,-0.363 -1.271,-0.401 -1.054,-0.472 -0.764,-0.473 -0.471,-0.509 -0.146,-0.507 v -0.073 m -45.851,28.484 h -0.037 v -0.037 m 0.908,-17.184 h -0.036 -0.035 m -0.147,0.18 0,0 v 0.037 h 0.037 m 18.856,22.599 1.018,0.362 m 7.231,-2.252 v 0.037 h -0.037 l -0.036,0.036 m 0.69,-17.039 h 0.036 0.036 v -0.037 m -0.146,-0.182 0,0 h -0.035 -0.037 m -0.654,17.404 0,0 h 0.036 l 0.037,-0.037 v -0.036 l 0.036,-0.036 v -0.036 m -10.755,2.144 v 0.035 0.037 l 0.038,0.037 v 0.036 h 0.034 v 0.035 m 0.11,0 0,0 h 0.035 l 0.037,-0.035 v -0.036 h 0.037 v -0.037 -0.037 m -9.374,-57.006 0.108,-0.037 0.326,-0.109 0.583,-0.145 0.726,-0.146 0.727,-0.181 0.654,-0.146 m 0,10e-4 0.437,-0.073 0.219,-0.036 m 16.602,38.44 -7.557,-2.651 m -12.243,-2.69 -7.595,1.599 m 14.28,-14.025 h 0.473 1.344 l 1.271,-0.109 1.126,-0.182 m 90.65,-84.765 31.974,11.119 m -31.573,-11.228 31.464,10.974 m -14.642,-14.461 0.182,0.037 m -57.879,-48.032 1.525,0.544 m -1.814,-1.017 0.071,-1.598 m -14.206,-1.054 1.563,-0.509 2.652,-0.327 3.052,-0.036 3.089,0.254 2.651,0.545 1.309,0.509 m -0.181,2.216 0.034,0.109 0.037,0.145 0.036,0.109 0.11,0.072 0.071,0.037 m 0.074,-2.362 h -0.073 l -0.108,0.037 -0.073,0.072 -0.036,0.109 v 0.074 m -2.762,0.363 -2.979,0.146 -3.125,-0.183 -2.834,-0.472 -2.215,-0.69 -0.801,-0.509 m 15.006,1.053 1.563,0.545 m -3.089,0.618 -1.525,-0.508 m 4.503,2.252 h 0.11 l 0.073,-0.037 0.071,-0.072 0.037,-0.109 v -0.072 m -18.783,-0.945 1.018,0.508 1.344,0.473 1.599,0.399 1.78,0.328 1.925,0.254 1.999,0.109 1.999,0.037 1.926,-0.073 1.815,-0.146 m 0.289,-0.326 v 0.145 l -0.035,0.109 -0.073,0.035 -0.108,0.037 h -0.073 m -16.858,-3.669 0.109,0.472 0.326,0.437 m 21.545,1.017 0.037,-0.037 0.436,-0.472 0.182,-0.509 m -5.415,0.872 -0.073,1.563 m 3.09,-0.618 0.073,-1.599 m 2.362,-1.78 v -0.036 l -0.146,-0.509 -0.436,-0.509 -0.072,-0.072 m -5.051,3.051 0.109,0.073 0.071,0.073 0.038,0.145 0.035,0.146 v 0.073 m 3.163,-4.651 -0.219,-0.11 -1.344,-0.472 -1.6,-0.399 -1.779,-0.327 -1.927,-0.218 -1.997,-0.145 -2.035,-0.036 -1.926,0.072 -1.816,0.182 -1.6,0.29 -1.38,0.328 m 17.55,4.831 v -0.146 l -0.037,-0.109 -0.073,-0.109 -0.109,-0.073 -0.035,-0.036 m -45.272,79.678 h 0.073 0.072 m 2.907,1.273 -0.035,0.436 m 0.035,-0.436 v -0.073 l -0.035,-0.073 v -0.036 l -0.038,-0.072 -0.071,-0.037 -0.036,-0.036 h -0.073 -0.036 m -7.523,1.743 h -0.073 v -0.035 h -0.035 v -0.038 m 0.108,0.073 0.8,0.291 m -0.763,-1.453 -0.037,1.161 m 1.78,0.254 -0.399,0.074 m 0,10e-4 h -0.035 l -0.073,0.036 h -0.11 -0.071 l -0.073,-0.036 h -0.073 -0.071 l -0.073,-0.037 m 0.651,-1.126 -0.072,1.163 m -0.581,-0.037 0.073,-1.163 m -10.827,1.054 0.398,-0.217 0.799,-0.328 1.091,-0.218 1.236,-0.145 1.38,-0.075 h 1.452 l 1.455,0.11 1.344,0.182 0.69,0.146 m 1.889,0.616 0.654,0.364 0.072,0.073 m -0.726,-0.437 0.073,-1.198 m -1.379,-0.471 -1.2,-0.254 -1.38,-0.183 -1.455,-0.108 -1.416,-0.037 -1.417,0.072 -1.235,0.146 -1.052,0.255 -0.837,0.29 -0.545,0.363 -0.218,0.364 0.109,0.436 0.398,0.4 0.69,0.363 0.98,0.328 1.164,0.289 1.343,0.219 1.418,0.108 1.453,0.037 1.417,-0.037 1.308,-0.145 1.091,-0.217 0.871,-0.292 0.619,-0.327 0.289,-0.401 -0.036,-0.399 -0.363,-0.399 -0.617,-0.399 m -1.78,-0.4 0.4,-0.072 m -0.436,0.254 -0.037,-0.038 h -0.036 l -0.037,-0.036 v -0.035 h 0.037 v -0.036 h 0.073 l 0.036,-0.037 m 0.8,0.472 -0.836,-0.289 m 1.416,0.326 h -0.072 -0.072 -0.073 -0.073 -0.108 -0.071 l -0.073,-0.037 h -0.036 m 0.979,-0.072 -0.4,0.109 m 6.068,-0.909 -0.764,0.145 m -1.998,-1.09 2.762,0.946 m -3.488,-0.799 0.726,-0.147 m 1.998,1.09 0.909,0.509 0.617,0.544 0.327,0.545 v 0.546 l -0.254,0.509 -0.581,0.472 -0.872,0.472 -1.091,0.363 -1.344,0.363 -1.562,0.254 -1.709,0.183 -1.815,0.108 h -1.891 l -1.962,-0.036 -1.89,-0.146 -1.852,-0.253 -1.744,-0.291 -1.563,-0.364 -1.415,-0.399 -1.164,-0.473 -0.907,-0.509 -0.655,-0.545 -0.326,-0.544 -0.036,-0.509 0.255,-0.544 0.545,-0.472 0.835,-0.474 1.09,-0.4 1.344,-0.326 1.526,-0.254 1.708,-0.218 1.816,-0.109 h 1.888 l 1.926,0.037 1.927,0.144 1.852,0.22 1.745,0.291 1.6,0.364 m 4.576,4.067 -0.036,0.182 -0.291,0.509 -0.546,0.508 -0.871,0.437 -1.127,0.399 -1.343,0.326 -1.527,0.292 -1.708,0.182 -1.815,0.109 h -1.926 l -1.926,-0.074 -1.925,-0.145 -1.817,-0.217 -1.744,-0.291 -1.599,-0.364 -1.38,-0.435 -1.164,-0.473 -0.908,-0.509 -0.653,-0.507 -0.326,-0.546 -0.072,-0.399 m 17.474,26.232 2.871,-2.29 m 0.362,-0.289 -0.362,0.29 m -2.616,2.106 2.979,-2.396 m 0.109,-2.363 -0.109,2.362 m -2.908,0.001 3.017,-2.362 m -0.363,-0.292 0.363,0.291 m -18.384,3.016 6.067,2.107 m -6.067,-2.107 -0.364,-0.292 m 5.741,-1.525 0.727,-0.072 1.309,-0.11 1.38,0.037 1.418,0.073 1.344,0.145 1.089,0.218 m -7.703,-0.401 1.053,-0.145 1.271,-0.109 h 1.38 l 1.382,0.072 1.308,0.147 1.2,0.218 0.58,0.145 m -13.479,1.307 6.323,2.217 m -6.323,-2.217 0.108,-2.362 m 0,0.001 0.362,-0.325 m -0.362,0.325 6.323,2.181 m -3.053,-2.253 -0.108,-0.253 0.074,-0.401 0.362,-0.327 0.69,-0.328 0.909,-0.253 1.126,-0.181 1.308,-0.075 1.345,-0.035 1.379,0.072 1.346,0.183 1.198,0.217 1.018,0.291 0.8,0.363 0.546,0.364 0.218,0.363 -0.074,0.399 -0.072,0.074 m -9.012,4.359 8.974,-0.181 m 0,0 0.255,-0.183 m -9.229,0.364 -0.108,-0.181 m 7.41,-3.561 0.944,-0.254 0.692,-0.328 0.435,-0.327 0.109,-0.399 -0.183,-0.4 -0.472,-0.364 -0.762,-0.363 -0.981,-0.328 -1.164,-0.253 -1.343,-0.181 -1.381,-0.11 h -1.382 l -1.344,0.037 -1.234,0.146 -1.054,0.217 -0.8,0.291 -0.582,0.328 -0.254,0.399 0.035,0.363 0.329,0.4 0.617,0.363 0.871,0.327 1.09,0.29 1.236,0.219 1.381,0.145 1.38,0.073 h 1.381 l 1.309,-0.108 1.127,-0.183 m -10.389,-3.634 8.975,-0.182 m -11.849,2.472 2.873,-2.29 m 3.197,4.433 -6.069,-2.143 m 17.914,-0.328 -2.871,2.289 m -3.196,-4.432 6.066,2.144 m -12.061,5.232 0.108,-2.398 m -0.108,2.398 9.337,-0.183 m 0,0 0.071,-2.396 m -0.218,-0.365 -8.974,0.182 m -0.108,0.363 0.108,-0.363 m -0.108,0.363 9.3,-0.181 m 0,0.001 -0.218,-0.364 m 5.524,-135.704 2.871,-2.29 m 0.362,-0.29 -0.362,0.291 m -2.616,2.071 2.979,-2.361 m 0.109,-2.399 -0.109,2.398 m -2.87,0 2.979,-2.398 m -0.328,-0.291 0.327,0.291 m -18.384,3.015 6.069,2.145 m -6.069,-2.145 -0.326,-0.254 m 5.703,-1.525 0.728,-0.109 1.309,-0.072 h 1.416 l 1.38,0.072 1.347,0.182 1.088,0.218 m -7.705,-0.4 1.054,-0.181 1.272,-0.073 1.382,-0.036 1.38,0.071 1.308,0.183 1.236,0.218 0.545,0.145 m -13.443,1.307 6.32,2.18 m -6.32,-2.18 0.072,-2.398 m 0,0.001 0.364,-0.29 m -0.364,0.29 6.323,2.216 m -3.054,-2.289 -0.107,-0.254 0.072,-0.363 0.398,-0.363 0.655,-0.291 0.944,-0.254 1.127,-0.182 1.271,-0.11 h 1.38 l 1.382,0.074 1.308,0.145 1.198,0.255 1.054,0.291 0.8,0.327 0.509,0.363 0.217,0.399 -0.072,0.363 -0.035,0.109 m -9.047,4.36 8.973,-0.182 m 0,0 0.255,-0.219 m -9.228,0.401 -0.075,-0.219 m 7.413,-3.56 0.944,-0.254 0.69,-0.29 0.4,-0.364 0.108,-0.363 -0.182,-0.4 -0.473,-0.399 -0.726,-0.363 -1.018,-0.291 -1.164,-0.254 -1.306,-0.183 -1.382,-0.108 -1.416,-0.037 -1.346,0.072 -1.198,0.145 -1.055,0.219 -0.835,0.291 -0.545,0.327 -0.291,0.363 0.037,0.4 0.326,0.4 0.618,0.363 0.87,0.327 1.09,0.291 1.273,0.219 1.344,0.146 1.418,0.072 1.38,-0.036 1.271,-0.108 1.168,-0.185 m -10.392,-3.597 8.938,-0.182 m -11.843,2.472 2.904,-2.29 m 3.199,4.396 -6.103,-2.107 m 17.947,-0.364 -2.907,2.29 m -3.197,-4.397 6.104,2.107 m -12.063,5.233 0.075,-2.362 m -0.075,2.362 9.303,-0.182 m 0,0 0.109,-2.361 m -0.256,-0.4 -8.938,0.182 m -0.143,0.399 0.144,-0.399 m -0.144,0.399 9.337,-0.182 m 0,0 -0.256,-0.399 m 42.291,13.661 3.453,-2.762 m 0.364,-0.29 -0.363,0.29 m 0.363,-0.29 -3.562,2.833 m 3.671,-6.213 -0.109,3.38 m 0.109,-3.38 -3.524,2.834 m 3.197,-3.124 0.327,0.29 m -21.909,4.107 7.267,2.507 m -7.595,-2.798 0.328,0.291 m -0.182,-3.67 -0.146,3.379 m 7.484,2.616 -7.484,-2.616 m 6.832,-2.072 0.29,-0.036 1.452,-0.108 1.563,-0.037 1.598,0.037 1.563,0.145 1.454,0.219 0.654,0.108 m -7.775,0.981 -7.484,-2.616 m 0.362,-0.291 -0.362,0.291 m 15.804,1.563 h -0.073 l -1.308,-0.292 -1.489,-0.218 -1.563,-0.108 -1.562,-0.037 -1.527,0.037 -1.453,0.146 -0.654,0.072 m 12.682,-0.545 0.217,-0.4 -0.072,-0.436 -0.364,-0.437 -0.653,-0.436 -0.944,-0.363 -1.164,-0.363 -1.343,-0.254 -1.453,-0.218 -1.563,-0.145 -1.563,-0.037 -1.563,0.072 -1.417,0.109 -1.271,0.218 -1.053,0.291 -0.837,0.327 -0.544,0.4 -0.254,0.399 0.071,0.437 0.109,0.182 m 4.141,6.031 0.11,0.182 m 0,0 10.717,-0.182 m 0.255,-0.218 -0.255,0.218 m -13.333,-5.196 1.164,0.327 1.342,0.291 1.491,0.218 1.562,0.109 1.563,0.073 1.563,-0.036 1.453,-0.109 1.345,-0.182 1.125,-0.292 0.91,-0.327 0.617,-0.363 0.362,-0.401 0.037,-0.435 -0.219,-0.472 -0.544,-0.4 -0.837,-0.436 -1.053,-0.363 -1.234,-0.291 -1.418,-0.254 -1.525,-0.182 -1.599,-0.108 h -1.563 l -1.526,0.072 -1.38,0.146 -1.235,0.217 -1.017,0.328 -0.8,0.327 -0.472,0.399 -0.219,0.437 0.109,0.436 0.399,0.437 0.654,0.436 0.945,0.398 m 9.664,-4.07 7.268,2.544 m -17.985,-2.325 10.718,-0.219 m -14.134,2.98 3.416,-2.761 m 3.851,5.268 -7.268,-2.507 m 21.402,-0.436 -3.452,2.761 m 0.108,3.743 -11.082,0.218 m 11.229,-3.598 -0.146,3.379 m -10.936,-3.16 -0.146,3.379 m 10.973,-3.961 -10.682,0.182 m 0,0 -0.146,0.4 m 11.083,-0.219 -11.082,0.219 m 10.827,-0.582 0.255,0.363 m -19.948,180.358 0.109,0.072 0.071,0.146 0.038,0.182 m 0.001,0 -0.146,3.96 m 0,0 -0.036,0.181 -0.108,0.183 -0.11,0.145 m -0.074,1.452 0.146,-0.037 m 0,0.001 0.328,-0.146 0.253,-0.255 0.183,-0.363 0.072,-0.4 m 0.254,-6.648 -0.254,6.648 m -4.432,-6.793 v 0.108 l 0.036,0.073 0.035,0.037 0.073,0.072 0.146,0.036 m 3.052,10.501 -0.072,0.254 -0.111,0.218 -0.18,0.108 h -0.037 m 10.1,0.547 -0.182,-0.108 -0.145,-0.255 -0.038,-0.291 m 1.056,-1.308 0.036,-0.036 0.109,-0.182 0.037,-0.218 m 0,0 0.145,-3.924 m 0.546,4.178 -0.69,-0.254 m 0.144,-3.924 0.689,0.217 m -12.171,5.123 0.764,-0.146 m 0,0.001 0.436,-11.082 m 0,0 0.872,-0.182 m -2.906,5.597 0.035,-0.183 0.109,-0.145 0.109,-0.074 0.109,0.037 0.144,0.072 0.11,0.146 0.071,0.181 v 0.183 m 0.002,0.001 -0.146,3.959 m 0,0 -0.036,0.182 -0.071,0.145 -0.109,0.073 h -0.146 l -0.145,-0.108 -0.109,-0.146 -0.036,-0.182 -0.037,-0.181 m -10e-4,-0.001 0.147,-3.959 m -0.074,-6.722 -0.473,12.063 m 0.001,0 0.037,0.326 0.108,0.291 0.146,0.218 0.217,0.146 m 0,0 0.292,0.072 m 0,0.001 0.182,0.037 0.217,-0.109 0.109,-0.218 0.072,-0.291 m 0.473,-12.063 -0.473,12.063 m 9.811,-11.01 0.763,0.255 m -0.474,11.082 0.474,-11.081 m -0.474,11.081 0.691,0.254 m 0.619,-5.522 0.036,-0.218 0.073,-0.181 0.145,-0.11 0.147,-0.073 h 0.145 l 0.109,0.073 0.07,0.145 0.036,0.183 m 0,0 -0.144,3.961 m 0.001,0 -0.038,0.181 -0.108,0.182 -0.107,0.145 -0.183,0.072 h -0.146 l -0.108,-0.108 -0.072,-0.145 -0.037,-0.182 m -10e-4,0.001 0.182,-3.924 m -0.11,-6.541 -0.509,12.063 m 0,0 0.036,0.292 0.146,0.217 0.181,0.145 h 0.219 m 0,-10e-4 0.327,-0.072 m 10e-4,10e-4 0.217,-0.11 0.218,-0.18 0.146,-0.292 0.037,-0.327 m 0.508,-12.063 -0.508,12.063 m -2.508,-11.59 v 0.327 m -7.739,-0.401 v -0.326 m 8.502,1.199 -1.599,0.218 -1.854,0.073 -1.926,-0.073 -1.853,-0.218 -1.599,-0.364 -0.508,-0.218 m -3.706,-2.761 -0.106,2.907 m 1.669,-1.562 -1.234,-0.8 -0.254,-0.69 m 2.869,1.962 -1.381,-0.472 m 12.208,1.053 -2.651,0.254 -2.87,-0.036 -2.835,-0.291 -2.471,-0.509 m 12.354,0.255 -1.526,0.327 m 3.669,-1.816 0.037,0.109 -0.654,0.763 -1.526,0.617 m 0.254,-15.985 -1.418,0.399 -2.325,0.289 -2.615,0.038 -2.616,-0.219 -2.29,-0.472 -1.162,-0.435 m 12.389,-0.038 -1.199,0.364 -2.289,0.327 -2.616,0.036 -2.616,-0.218 -2.324,-0.399 -0.872,-0.328 m -0.292,-0.545 -0.327,-0.108 m 12.427,0.473 -0.908,0.29 -2.253,0.327 -2.615,0.073 -2.653,-0.182 -2.325,-0.399 -1.09,-0.363 m 0.035,-0.4 -0.727,-0.328 m 0.727,0.328 -0.145,0.145 -0.146,0.108 m 0,-0.399 0.146,0.072 0.145,0.074 m 11.882,0.218 -1.346,0.362 -2.325,0.29 -2.652,0.037 -2.616,-0.218 -1.598,-0.29 -1.345,-0.4 m 11.989,-0.255 -1.271,0.364 -2.324,0.326 -2.616,0.036 -2.616,-0.218 -2.289,-0.436 -1.49,-0.544 m 12.644,0.037 -1.126,0.363 -2.29,0.292 -2.616,0.071 -2.615,-0.181 -2.325,-0.436 -1.635,-0.546 m 12.643,-0.036 -0.98,0.364 -2.253,0.326 -2.616,0.073 -2.616,-0.145 -2.362,-0.438 -1.781,-0.582 m 12.572,-7.59 v -0.254 l -0.291,-0.4 -0.581,-0.363 -0.836,-0.327 -1.054,-0.255 -1.235,-0.218 -1.344,-0.109 -1.344,-0.036 -1.346,0.036 -1.198,0.145 -1.018,0.182 -0.764,0.291 -0.509,0.327 -0.181,0.363 v 0.146 m 11.773,8.064 -0.145,0.073 -1.998,0.437 -2.543,0.217 -2.69,-0.073 -2.578,-0.291 -2.072,-0.543 -0.545,-0.255 m 12.535,0 -1.162,0.363 -2.362,0.327 -2.652,0.037 -2.689,-0.219 -2.324,-0.436 -1.381,-0.508 m 12.606,0 -0.363,0.146 -2.107,0.436 -2.58,0.144 -2.724,-0.071 -2.508,-0.364 -1.999,-0.58 -0.253,-0.146 m 0.616,-0.147 -0.472,-0.217 m 0.472,0.217 -0.145,0.11 -0.181,0.145 m 0.036,-0.4 0.146,0.073 0.145,0.072 m 11.917,0.146 -0.437,0.181 -2.144,0.401 -2.579,0.181 -2.725,-0.146 -2.472,-0.363 -1.563,-0.4 m 11.957,-0.29 -1.635,0.437 -2.435,0.291 h -2.688 l -2.617,-0.291 -2.216,-0.473 -0.943,-0.399 m 12.534,0 -0.727,0.254 -2.217,0.363 -2.653,0.146 -2.688,-0.182 -2.436,-0.399 -1.852,-0.582 -0.037,-0.037 m 12.718,0 -0.071,0.037 -1.962,0.473 -2.508,0.217 -2.725,-0.036 -2.578,-0.291 -2.109,-0.545 -0.617,-0.291 m 12.534,0 -0.072,0.072 -1.998,0.437 -2.545,0.217 -2.688,-0.036 -2.581,-0.327 -2.105,-0.509 -0.546,-0.29 m 12.499,0 -1.128,0.362 -2.325,0.329 -2.65,0.036 -2.689,-0.183 -2.325,-0.473 -1.452,-0.507 m 12.641,0 -0.361,0.146 -2.108,0.436 -2.544,0.182 -2.726,-0.109 -2.506,-0.363 -1.998,-0.545 -0.327,-0.183 m 0.654,-0.145 -0.545,-0.218 m 1.416,-2.944 1.092,0.292 1.234,0.254 1.416,0.181 1.418,0.073 h 1.454 l 1.343,-0.073 1.236,-0.181 1.018,-0.254 0.799,-0.292 0.473,-0.363 0.218,-0.399 -0.109,-0.399 -0.437,-0.4 -0.69,-0.364 -0.979,-0.328 -1.165,-0.289 -1.308,-0.219 -1.417,-0.108 -1.452,-0.072 -1.418,0.072 -1.308,0.108 -1.127,0.219 -0.909,0.253 -0.652,0.363 -0.326,0.364 -0.074,0.4 0.29,0.399 0.546,0.399 0.834,0.364 m -0.871,3.162 -0.146,0.145 -0.145,0.109 m 0,-0.4 0.145,0.072 0.146,0.073 m 11.916,0.145 -0.398,0.183 -2.145,0.399 -2.58,0.181 -2.723,-0.108 -2.472,-0.364 -1.599,-0.436 m 11.917,-0.29 -1.56,0.436 -2.438,0.291 h -2.687 l -2.616,-0.254 -2.253,-0.508 -0.98,-0.399 m 12.534,0 -0.69,0.254 -2.216,0.363 -2.615,0.145 -2.688,-0.145 -2.434,-0.399 -1.891,-0.618 -0.036,-0.036 m 12.679,0 -0.035,0.036 -1.963,0.473 -2.47,0.218 -2.726,-0.037 -2.579,-0.291 -2.146,-0.508 -0.652,-0.328 m 13.479,-1.634 -0.181,-0.108 -0.291,-0.109 m -1.308,2.942 1.054,-0.291 0.837,-0.363 0.545,-0.399 0.218,-0.437 v -0.108 m -2.654,1.598 -1.271,0.218 -1.453,0.146 -1.527,0.036 -1.562,-0.036 -1.563,-0.108 -1.453,-0.182 -1.344,-0.253 -1.164,-0.327 -0.943,-0.363 -0.655,-0.437 -0.362,-0.4 -0.037,-0.327 m 15.987,0.87 v 0.109 l -0.254,0.436 -0.546,0.4 -0.8,0.326 -1.089,0.328 m 10e-4,0 -1.272,0.218 -1.416,0.146 -1.527,0.037 -1.599,-0.037 -1.525,-0.109 -1.489,-0.181 -1.345,-0.254 -1.162,-0.327 -0.908,-0.364 -0.655,-0.435 -0.399,-0.401 -0.035,-0.327 m 15.983,0.872 0.037,0.108 -0.254,0.438 -0.546,0.398 -0.836,0.327 -1.053,0.328 m 10e-4,-10e-4 -1.272,0.218 -1.454,0.146 -1.524,0.036 -1.563,-0.036 -1.563,-0.109 -1.452,-0.182 -1.345,-0.254 -1.162,-0.327 -0.945,-0.4 -0.653,-0.399 -0.364,-0.4 -0.035,-0.327 m 15.983,0.871 v 0.11 l -0.254,0.436 -0.546,0.398 -0.799,0.328 -1.089,0.328 m 10e-4,0 -1.271,0.218 -1.454,0.145 -1.525,0.036 -1.6,-0.036 -1.563,-0.109 -1.489,-0.181 -1.345,-0.291 -1.126,-0.327 m -1.962,-1.49 0.037,0.29 0.363,0.437 0.653,0.399 0.908,0.363 m 14.025,-0.618 0.036,0.11 -0.254,0.435 -0.546,0.4 -0.835,0.327 -1.053,0.291 m 2.107,-2.434 0.146,0.072 0.109,0.146 m -1.055,-0.727 0.291,0.145 0.073,0.037 m -1.67,2.76 -1.271,0.255 -1.454,0.146 -1.525,0.034 -1.563,-0.034 -1.563,-0.109 -1.453,-0.183 -1.346,-0.254 -1.162,-0.327 -0.944,-0.399 -0.653,-0.4 -0.363,-0.399 -0.037,-0.327 m 15.985,0.872 v 0.108 l -0.254,0.436 -0.546,0.4 -0.799,0.327 -1.09,0.29 m 0,0 -1.271,0.255 -1.417,0.109 -1.525,0.072 -1.563,-0.036 -1.563,-0.109 -1.49,-0.181 -1.345,-0.254 -1.162,-0.328 -0.908,-0.399 -0.653,-0.399 -0.4,-0.4 -0.035,-0.328 m 15.985,0.873 0.036,0.108 -0.254,0.436 -0.546,0.4 -0.835,0.327 -1.054,0.291 m 1.309,-2.944 0.289,0.146 0.183,0.108 m -1.781,2.689 -1.271,0.255 -1.453,0.109 -1.527,0.072 -1.562,-0.036 -1.563,-0.109 -1.453,-0.182 -1.345,-0.254 -1.162,-0.326 -0.944,-0.401 -0.655,-0.398 -0.362,-0.4 -0.035,-0.327 m 15.695,0.217 -0.11,-0.146 -0.145,-0.109 m -2.144,2.472 1.054,-0.292 0.836,-0.327 0.545,-0.398 0.254,-0.437 v -0.11 m -2.689,1.564 -1.272,0.254 -1.416,0.108 -1.527,0.073 -1.562,-0.036 -1.563,-0.109 -1.489,-0.182 -1.345,-0.254 -1.162,-0.327 -0.908,-0.4 -0.655,-0.398 -0.397,-0.4 -0.038,-0.327 m 15.986,0.871 0.037,0.11 -0.254,0.398 -0.545,0.437 -0.836,0.327 -1.054,0.291 m 2.108,-2.471 0.145,0.109 m -2.253,2.361 -1.272,0.255 -1.453,0.109 -1.525,0.072 -1.563,-0.035 -1.563,-0.109 -1.453,-0.182 -1.345,-0.254 -1.162,-0.327 -0.944,-0.4 -0.653,-0.399 -0.363,-0.436 -0.038,-0.292 m 15.986,0.872 v 0.109 l -0.253,0.4 -0.545,0.436 -0.8,0.328 -1.091,0.29 m 1.308,-2.944 0.292,0.146 0.182,0.109 m -1.782,2.688 -1.271,0.219 -1.417,0.146 -1.525,0.072 -1.563,-0.035 -1.563,-0.11 -1.49,-0.181 -1.344,-0.255 -1.162,-0.327 -0.908,-0.399 -0.653,-0.399 -0.363,-0.437 -0.074,-0.291 m 15.986,0.872 0.036,0.072 -0.253,0.436 -0.545,0.437 -0.837,0.327 -1.054,0.291 m 1.308,-2.944 0.292,0.146 0.182,0.108 m -1.782,2.688 -1.308,0.255 -1.417,0.107 -1.562,0.073 -1.599,-0.035 -1.563,-0.109 -1.49,-0.218 -1.345,-0.254 -1.161,-0.327 m -1.889,-1.49 0.036,0.291 0.327,0.399 0.654,0.399 0.873,0.4 m 14.097,-0.653 v 0.109 l -0.254,0.437 -0.545,0.399 -0.8,0.363 -1.09,0.29 m 2.144,-2.47 0.109,0.109 0.146,0.146 m -1.09,-0.728 0.29,0.146 0.108,0.037 m -1.707,2.76 -1.271,0.219 -1.417,0.146 -1.526,0.072 -1.562,-0.035 -1.563,-0.11 -1.49,-0.183 -1.344,-0.253 -1.162,-0.326 -0.909,-0.401 -0.653,-0.398 -0.364,-0.438 -0.072,-0.289 m 15.986,0.834 0.035,0.109 -0.254,0.436 -0.545,0.4 -0.835,0.363 -1.055,0.291 m 2.109,-2.472 0.145,0.11 0.108,0.146 m -2.361,2.215 -1.271,0.218 -1.417,0.146 -1.562,0.073 -1.563,-0.037 -1.561,-0.107 -1.455,-0.182 -1.344,-0.292 -1.162,-0.289 -0.945,-0.4 -0.654,-0.399 -0.363,-0.436 -0.036,-0.291 m 15.986,0.834 v 0.109 l -0.255,0.437 -0.544,0.399 -0.8,0.363 -1.091,0.291 m 1.309,-2.943 0.291,0.146 0.182,0.109 m -1.781,2.688 -1.271,0.218 -1.418,0.146 -1.525,0.072 -1.563,-0.035 -1.561,-0.11 -1.489,-0.182 -1.346,-0.291 -1.163,-0.289 -0.908,-0.401 -0.654,-0.399 -0.363,-0.436 -0.073,-0.327 m 15.695,0.254 -0.072,-0.109 -0.182,-0.145 m -2.107,2.47 1.054,-0.29 0.8,-0.328 0.544,-0.399 0.292,-0.436 -0.036,-0.146 m -2.654,1.599 -1.271,0.219 -1.418,0.145 -1.563,0.072 -1.561,-0.037 -1.563,-0.108 -1.452,-0.182 -1.346,-0.291 -1.163,-0.327 -0.945,-0.363 -0.652,-0.399 -0.364,-0.437 -0.037,-0.327 m 15.988,0.872 v 0.108 l -0.256,0.437 -0.544,0.4 -0.8,0.363 -1.089,0.29 m -12.825,-2.725 0.181,-0.108 m 12.645,2.833 -1.271,0.219 -1.418,0.145 -1.527,0.073 -1.561,-0.037 -1.563,-0.108 -1.49,-0.183 -1.345,-0.291 -1.161,-0.326 -0.91,-0.363 -0.652,-0.401 -0.364,-0.435 -0.072,-0.327 m 15.985,0.872 0.037,0.108 -0.256,0.437 -0.544,0.4 -0.837,0.363 -1.052,0.291 m 1.307,-2.943 0.291,0.145 0.181,0.109 m -14.567,-0.073 0.144,-0.072 m 12.645,2.834 -1.271,0.218 -1.418,0.146 -1.563,0.072 -1.562,-0.035 -1.563,-0.109 -1.453,-0.183 -1.345,-0.29 -1.161,-0.327 -0.945,-0.364 -0.654,-0.4 -0.364,-0.437 -0.035,-0.326 m 15.985,0.872 v 0.108 l -0.255,0.436 -0.546,0.4 -0.799,0.363 -1.089,0.29 m 1.308,-2.942 0.291,0.146 0.183,0.107 m -1.781,2.69 -1.271,0.219 -1.454,0.146 -1.563,0.072 -1.598,-0.037 -1.563,-0.108 -1.489,-0.22 -1.38,-0.29 -1.127,-0.327 m -1.889,-1.489 0.036,0.291 0.327,0.436 0.654,0.399 0.871,0.364 m 14.098,-0.618 0.036,0.108 -0.255,0.437 -0.546,0.399 -0.834,0.364 -1.054,0.291 m 1.308,-2.945 0.291,0.146 0.108,0.038 m -1.706,2.761 -1.271,0.219 -1.417,0.144 -1.563,0.073 -1.562,-0.036 -1.563,-0.11 -1.454,-0.181 -1.344,-0.292 -1.163,-0.326 -0.944,-0.363 -0.654,-0.398 -0.362,-0.438 -0.072,-0.399 0.072,-0.146 m 15.949,1.09 v 0.109 l -0.255,0.436 -0.51,0.4 -0.834,0.363 -1.091,0.291 m 0.001,-10e-4 -1.271,0.219 -1.418,0.146 -1.525,0.072 -1.562,-0.037 -1.563,-0.109 -1.488,-0.182 -1.346,-0.29 -1.162,-0.327 -0.909,-0.364 -0.654,-0.398 -0.362,-0.436 -0.072,-0.328 m 15.985,0.872 0.036,0.108 -0.255,0.436 -0.545,0.401 -0.835,0.363 -1.055,0.291 m 0.001,0 -1.271,0.217 -1.418,0.146 -1.563,0.073 -1.562,-0.038 -1.563,-0.108 -1.452,-0.182 -1.346,-0.292 -1.162,-0.327 -0.944,-0.362 -0.654,-0.4 -0.363,-0.435 -0.036,-0.328 m 10e-4,-0.399 0.072,0.328 0.362,0.435 0.654,0.399 0.909,0.364 1.162,0.327 1.346,0.292 1.488,0.181 1.563,0.11 1.562,0.037 1.525,-0.074 1.418,-0.146 1.271,-0.217 m 0.001,0 1.091,-0.291 0.799,-0.364 0.545,-0.398 0.255,-0.436 v -0.109 m -15.987,-0.874 0.036,0.328 0.362,0.437 0.654,0.4 0.944,0.363 1.163,0.327 1.344,0.29 1.454,0.182 1.563,0.109 1.562,0.037 1.563,-0.073 1.417,-0.145 1.271,-0.219 m 10e-4,0 1.054,-0.291 0.834,-0.363 0.546,-0.398 0.255,-0.437 -0.036,-0.109 m -2.653,1.161 -1.271,0.218 -1.417,0.146 -1.526,0.073 -1.562,-0.036 -1.563,-0.109 -1.49,-0.182 -1.344,-0.29 -1.163,-0.292 -0.907,-0.398 -0.654,-0.401 -0.364,-0.436 -0.071,-0.328 m 16.02,0.436 v 0.11 l -0.255,0.437 -0.546,0.399 -0.799,0.363 -1.089,0.29 m -11.445,-0.98 -0.871,-0.364 -0.619,-0.4 -0.327,-0.437 -0.035,-0.253 m 1.852,1.454 1.163,0.364 1.344,0.253 1.489,0.218 1.563,0.109 1.598,0.036 1.563,-0.071 1.454,-0.146 1.309,-0.217 m 0,0 1.052,-0.291 0.837,-0.364 0.544,-0.399 0.256,-0.435 -0.037,-0.111 m -15.987,-0.835 0.072,0.291 0.364,0.435 0.652,0.399 0.91,0.4 1.161,0.327 1.345,0.255 1.49,0.181 1.563,0.109 1.561,0.037 1.527,-0.074 1.418,-0.145 1.271,-0.217 m 0.001,0.001 1.089,-0.292 0.8,-0.363 0.544,-0.398 0.256,-0.437 v -0.109 m -15.989,-0.836 0.037,0.291 0.364,0.437 0.652,0.397 0.945,0.401 1.163,0.327 1.346,0.254 1.452,0.181 1.563,0.109 1.561,0.038 1.563,-0.075 1.418,-0.145 1.271,-0.218 m 2.653,-1.561 0.036,0.072 -0.255,0.436 -0.544,0.437 -0.837,0.325 -1.054,0.292 m 10e-4,-0.437 -1.271,0.219 -1.418,0.146 -1.525,0.071 -1.563,-0.036 -1.561,-0.109 -1.489,-0.181 -1.346,-0.254 -1.163,-0.328 -0.908,-0.399 -0.654,-0.4 -0.363,-0.436 -0.073,-0.29 m 16.023,0.436 v 0.109 l -0.255,0.436 -0.544,0.4 -0.837,0.326 -1.054,0.291 m -13.297,-2.434 0.036,0.291 0.363,0.436 0.654,0.399 0.945,0.399 1.162,0.327 1.344,0.255 1.455,0.182 1.561,0.109 1.563,0.035 1.525,-0.072 1.453,-0.107 1.271,-0.257 m 0.002,0 1.055,-0.289 0.835,-0.327 0.545,-0.437 0.254,-0.399 -0.035,-0.108 m -15.988,-0.873 0.036,0.326 0.4,0.4 0.653,0.4 0.909,0.399 1.162,0.327 1.344,0.255 1.49,0.181 1.563,0.109 1.562,0.035 1.526,-0.07 1.417,-0.11 1.271,-0.254 m 10e-4,0 1.09,-0.291 0.8,-0.327 0.545,-0.399 0.254,-0.435 v -0.11 m -2.653,1.126 -1.271,0.255 -1.453,0.109 -1.526,0.072 -1.562,-0.037 -1.563,-0.109 -1.454,-0.181 -1.344,-0.254 -1.162,-0.328 -0.945,-0.398 -0.653,-0.4 -0.364,-0.4 -0.036,-0.327 m 15.986,0.436 0.036,0.109 -0.253,0.437 -0.545,0.399 -0.837,0.327 -1.054,0.29 m -11.408,-0.945 -0.908,-0.364 -0.617,-0.435 -0.364,-0.399 -0.036,-0.292 m 1.925,1.49 1.126,0.327 1.345,0.255 1.49,0.217 1.598,0.109 1.563,0.036 1.562,-0.036 1.453,-0.146 1.271,-0.254 m 0,0 1.091,-0.292 0.8,-0.326 0.545,-0.399 0.253,-0.436 v -0.11 m -15.987,-0.871 0.038,0.326 0.363,0.401 0.653,0.399 0.944,0.399 1.162,0.328 1.345,0.254 1.453,0.181 1.563,0.108 1.563,0.037 1.525,-0.037 1.453,-0.145 1.272,-0.254 m 10e-4,10e-4 1.054,-0.291 0.836,-0.327 0.545,-0.399 0.254,-0.437 -0.037,-0.109 m -15.987,-0.871 0.038,0.327 0.397,0.399 0.655,0.4 0.908,0.399 1.162,0.328 1.345,0.254 1.489,0.183 1.563,0.108 1.562,0.037 1.527,-0.037 1.416,-0.145 1.272,-0.218 m 2.69,-1.599 v 0.107 l -0.254,0.437 -0.545,0.4 -0.8,0.328 -1.09,0.327 m 0.036,-0.437 -1.271,0.218 -1.453,0.146 -1.527,0.035 -1.562,-0.035 -1.563,-0.109 -1.453,-0.183 -1.345,-0.253 -1.162,-0.329 -0.944,-0.398 -0.655,-0.4 -0.362,-0.4 -0.035,-0.326 m 15.985,0.436 v 0.109 l -0.254,0.434 -0.545,0.402 -0.8,0.362 -1.054,0.291 m -13.333,-2.47 0.035,0.327 0.4,0.4 0.653,0.436 0.908,0.363 1.162,0.327 1.345,0.254 1.49,0.183 1.525,0.108 1.6,0.037 1.525,-0.037 1.417,-0.145 1.271,-0.217 m 0.002,0 1.09,-0.329 0.799,-0.327 0.546,-0.399 0.254,-0.436 v -0.109 m -15.986,-0.872 0.037,0.328 0.363,0.399 0.653,0.437 0.944,0.363 1.162,0.326 1.346,0.256 1.453,0.181 1.563,0.108 1.563,0.037 1.525,-0.037 1.454,-0.144 1.271,-0.219 m 10e-4,0 1.053,-0.328 0.835,-0.326 0.546,-0.399 0.254,-0.436 -0.036,-0.109 m -2.652,1.162 -1.271,0.218 -1.419,0.145 -1.524,0.037 -1.599,-0.037 -1.527,-0.11 -1.488,-0.181 -1.346,-0.253 -1.162,-0.327 -0.908,-0.364 -0.653,-0.436 -0.399,-0.4 -0.037,-0.326 m 16.02,0.435 v 0.11 l -0.254,0.436 -0.546,0.399 -0.799,0.364 -1.089,0.291 m -11.372,-0.982 -0.908,-0.363 -0.653,-0.4 -0.328,-0.437 -0.035,-0.29 m 1.924,1.49 1.162,0.327 1.345,0.291 1.49,0.182 1.563,0.108 1.563,0.037 1.561,-0.037 1.419,-0.146 1.308,-0.217 m -0.002,0.001 1.053,-0.291 0.836,-0.363 0.546,-0.4 0.217,-0.438 v -0.108 m -15.986,-0.87 0.035,0.326 0.399,0.399 0.655,0.437 0.908,0.363 1.162,0.328 1.345,0.253 1.489,0.183 1.525,0.145 h 1.599 l 1.527,-0.036 1.416,-0.146 1.272,-0.218 m 0.002,0 1.089,-0.291 0.8,-0.362 0.546,-0.402 0.254,-0.435 v -0.109 m -15.988,-0.871 0.037,0.326 0.362,0.4 0.655,0.436 0.943,0.365 1.164,0.327 1.308,0.253 1.489,0.183 1.563,0.145 h 1.562 l 1.527,-0.036 1.453,-0.145 1.271,-0.219 m 2.653,-1.598 v 0.1 l -0.218,0.436 -0.545,0.399 -0.837,0.363 -1.054,0.291 m 0.001,-0.436 -1.271,0.219 -1.417,0.144 -1.527,0.037 h -1.598 l -1.525,-0.145 -1.49,-0.181 -1.344,-0.256 -1.164,-0.327 -0.908,-0.363 -0.69,-0.436 -0.362,-0.399 -0.037,-0.329 m 16.022,0.438 v 0.109 l -0.254,0.436 -0.545,0.399 -0.837,0.363 -1.054,0.291 m -10.318,-5.087 -1.816,0.581 -0.726,0.801 0.398,0.799 1.489,0.801 2.399,0.58 2.87,0.29 h 2.941 l 2.544,-0.325 m 0.002,0 1.817,-0.583 0.727,-0.763 -0.4,-0.835 -1.489,-0.764 -2.398,-0.581 -2.869,-0.327 h -2.944 l -2.543,0.327 m -0.692,2.943 0.473,0.145 m -0.691,0.073 1.998,0.472 2.399,0.292 h 0.326 0.037 0.035 l -0.072,-0.037 -1.962,-0.29 -2.071,-0.511 m -0.69,0.074 0.109,-0.11 0.145,-0.07 m -1.926,-0.619 0.328,-0.218 m 12.571,2.907 -1.271,0.219 -1.417,0.146 -1.527,0.035 -1.598,-0.035 -1.525,-0.108 -1.49,-0.184 -1.344,-0.254 -1.164,-0.328 -0.908,-0.361 -0.654,-0.437 -0.398,-0.4 -0.037,-0.327 m 16.022,0.435 v 0.109 l -0.254,0.436 -0.545,0.399 -0.8,0.364 -1.091,0.29 m 1.309,-2.942 0.291,0.109 0.436,0.29 m -1.999,2.109 -1.271,0.217 -1.453,0.146 -1.527,0.036 -1.562,-0.036 -1.562,-0.11 -1.49,-0.181 -1.308,-0.254 -1.164,-0.327 -0.944,-0.363 -0.654,-0.436 -0.363,-0.4 -0.035,-0.327 m 15.913,0.072 h 0.037 l 0.036,0.473 -0.219,0.435 -0.545,0.4 -0.835,0.363 -1.055,0.292 m 2.509,-2.508 0.109,0.109 -0.037,0.726 -0.836,0.655 -1.525,0.508 -2.107,0.364 -2.434,0.108 -2.543,-0.072 -2.361,-0.326 -2,-0.473 -1.417,-0.619 -0.654,-0.689 0.074,-0.544 m 0.143,-0.51 -0.218,0.328 0.401,0.689 1.235,0.689 0.398,0.11 m -1.38,-2.252 -0.182,0.073 -0.181,0.291 m -0.291,0.907 0.218,0.618 1.128,0.69 1.889,0.58 2.436,0.401 2.65,0.146 2.653,-0.075 2.288,-0.326 1.709,-0.544 0.907,-0.689 v -0.365 m -15.878,0 0.218,0.619 1.128,0.69 1.889,0.58 2.398,0.399 2.688,0.146 2.616,-0.071 2.361,-0.329 0.801,-0.217 1.234,-0.508 0.618,-0.728 -0.036,-0.146 m -1.781,1.382 -0.072,0.037 -1.998,0.435 -2.508,0.218 -2.688,-0.036 -2.579,-0.291 -2.106,-0.545 -0.618,-0.291 m 12.497,10e-4 -1.054,0.363 -2.324,0.327 -2.689,0.074 -2.653,-0.219 -2.361,-0.437 -1.453,-0.543 m 12.571,0 -0.291,0.145 -2.07,0.436 -2.579,0.183 -2.69,-0.109 -2.542,-0.329 -2,-0.58 -0.362,-0.184 m 12.315,-2.397 0.981,0.363 0.907,0.762 0.037,0.728 -0.835,0.691 -1.709,0.544 -0.618,0.146 -2.396,0.254 h -2.653 l -2.616,-0.254 -2.288,-0.437 -1.672,-0.618 -0.943,-0.727 v -0.581 m 2.178,1.381 -0.508,-0.182 -1.126,-0.653 -0.327,-0.727 0.508,-0.655 1.345,-0.544 0.653,-0.183 0.655,-0.107 2.324,-0.219 h 2.616 l 0.653,0.073 m 6.506,13.226 v 0.109 l -0.219,0.437 -0.545,0.363 -0.835,0.362 -1.055,0.255 m 0.001,0 -1.271,0.218 -1.453,0.146 -1.527,0.037 -1.562,-0.037 -1.563,-0.146 -1.49,-0.181 -1.308,-0.292 -1.162,-0.326 -0.944,-0.398 -0.654,-0.437 -0.363,-0.437 -0.036,-0.327 m 15.151,2.834 -1.709,0.292 -1.926,0.181 -2.035,0.037 -2.143,-0.037 -2.071,-0.181 -1.998,-0.292 -1.817,-0.363 -1.526,-0.436 -1.271,-0.544 -0.872,-0.545 -0.509,-0.582 -0.072,-0.617 0.327,-0.544 0.727,-0.545 1.126,-0.437 0.763,-0.217 m 15.913,0.653 1.234,0.508 0.909,0.582 0.472,0.581 0.109,0.582 -0.327,0.581 -0.762,0.509 -1.091,0.472 -1.452,0.363 m -55.48,31.791 -0.109,2.616 m 0,0 -0.073,0.399 -0.181,0.363 -0.183,0.182 m 1.527,-0.544 -1.09,-0.399 m -2.289,0.508 0.073,0.727 0.327,0.582 0.436,0.291 m -0.692,-5.487 -0.144,3.888 m 1.09,0.363 -1.09,-0.364 m 3.379,-0.109 0.108,-2.615 m -1.634,2.942 0.036,0.363 0.146,0.292 0.254,0.144 0.29,0.037 0.291,-0.146 0.254,-0.29 0.182,-0.326 0.073,-0.401 m -1.382,-3.16 -0.145,3.488 m -0.762,0.145 0.145,-3.888 m 2.944,3.269 -0.183,0.764 -0.327,0.726 -0.545,0.51 -0.582,0.291 -0.581,-0.036 -0.473,-0.327 -0.327,-0.582 -0.071,-0.726 m 3.16,-2.835 -0.071,2.215 m 3.595,1.672 0.11,-2.614 m -0.545,3.559 0.182,-0.217 0.181,-0.328 0.073,-0.399 m 1.09,0.362 -1.091,-0.363 m -1.454,2.108 -0.471,-0.327 -0.291,-0.581 -0.109,-0.726 m 3.525,-2.726 -0.108,2.615 m -0.001,0 -0.073,0.4 -0.182,0.364 -0.255,0.254 -0.291,0.145 h -0.29 l -0.254,-0.181 -0.145,-0.291 -0.037,-0.363 m 10e-4,0 0.146,-3.451 m -0.909,3.632 0.073,0.727 0.289,0.581 0.509,0.328 h 0.582 l 0.581,-0.255 0.509,-0.544 0.362,-0.69 0.146,-0.799 m 0.001,-10e-4 0.108,-2.18 m -4.287,2.434 0.182,-3.888 m -0.182,3.888 1.127,0.399 m 0.146,-3.887 -0.146,3.888 m 6.685,1.017 0.145,-3.889 m -0.582,4.87 0.183,-0.218 0.146,-0.363 0.108,-0.4 m 1.09,0.4 -1.09,-0.4 m -1.454,2.107 -0.472,-0.291 -0.326,-0.582 -0.071,-0.726 m 0,10e-4 0.144,-3.925 m -0.144,3.925 1.088,0.364 m 2.362,-4.979 0.073,0.182 0.035,0.362 m -1.525,0.328 0.071,-0.4 0.075,-0.217 m 1.379,0.289 -0.146,3.962 m 10e-4,0 -0.072,0.398 -0.182,0.364 -0.255,0.254 -0.327,0.146 -0.29,-0.036 -0.218,-0.146 -0.146,-0.29 -0.073,-0.363 m 0,-10e-4 0.183,-3.96 m -0.764,-0.436 -0.182,4.543 m 0,0 0.109,0.726 0.29,0.581 0.474,0.328 0.58,0.036 0.618,-0.29 0.509,-0.51 0.363,-0.726 0.146,-0.765 m 0,0 0.183,-4.541 m -21.292,-5.051 0,0 -0.037,-0.034 v -0.037 l -0.035,-0.036 v -0.037 -0.035 m 9.446,-15.806 0.546,0.253 1.925,0.436 2.325,0.219 h 2.361 l 2.069,-0.292 m 0.547,0.256 -0.509,0.218 h -0.109 m 0.327,-0.509 -0.218,0.036 m 0.255,-0.472 -0.219,0.036 m -9.229,-1.926 0.546,0.254 1.927,0.438 2.324,0.253 2.361,-0.035 2.071,-0.292 m 0.219,-0.908 0.219,-0.036 m -0.182,0.872 0.29,-0.074 m -0.508,0.582 0.436,-0.109 h 0.037 m 0.434,-1.453 0.146,0.109 0.183,0.146 m -0.001,-0.364 -0.146,0.037 -0.183,0.072 m -0.835,-1.017 h 0.036 l 0.218,-0.073 m -0.29,0.508 0.255,-0.109 m -0.036,0.437 0.254,-0.037 m -9.665,-0.944 0.508,0.254 1.927,0.437 2.326,0.253 2.361,-0.037 2.07,-0.29 m -9.265,-1.49 0.545,0.219 1.017,0.29 1.199,0.217 1.345,0.147 1.381,0.073 h 1.381 l 1.308,-0.109 1.126,-0.218 m 0.072,-1.308 0.472,-0.073 0.11,-0.072 m -0.619,1.054 0.255,-0.074 m -0.255,0.473 0.218,-0.073 m -9.445,-1.417 0.544,0.254 1.926,0.436 2.326,0.254 2.361,-0.036 2.07,-0.29 m -9.264,-0.182 0.581,0.254 1.891,0.437 2.324,0.254 2.398,-0.037 2.07,-0.291 m 0.581,-1.453 -0.435,0.182 h -0.109 m 0.291,-0.946 -0.218,0.037 m 0.545,-0.546 -0.544,0.147 m -9.23,-0.654 0.545,0.255 1.891,0.473 2.323,0.217 2.398,-0.036 2.072,-0.291 m -9.265,-0.183 0.546,0.255 1.926,0.472 2.323,0.218 2.363,-0.037 2.071,-0.291 m -9.229,-0.179 0.546,0.254 1.888,0.471 2.326,0.218 2.398,-0.036 2.071,-0.292 m 0.581,-0.981 0.146,0.11 0.183,0.146 m -4.979,-10.828 0.326,-0.036 0.183,-0.038 m -2.799,0.62 h 0.037 l 0.254,-0.073 0.437,-0.109 0.545,-0.108 0.544,-0.146 0.474,-0.109 m 4.977,10.463 -0.146,0.036 -0.183,0.072 m -0.507,-0.325 0.219,-0.037 m -9.376,-1.417 0.472,0.218 1.926,0.472 2.326,0.218 2.361,-0.036 2.071,-0.291 m -9.118,-1.889 0.508,0.218 1.889,0.473 2.326,0.218 2.397,-0.037 2.07,-0.254 m -8.32,0.617 0.146,0.038 1.234,0.254 1.382,0.181 1.452,0.072 h 1.454 l 1.381,-0.108 1.235,-0.219 m -0.035,-1.235 1.126,0.036 0.618,-0.581 -0.219,-0.618 -0.981,-0.617 -1.598,-0.473 -1.998,-0.29 -2.145,-0.11 -1.999,0.147 -1.525,0.327 -0.908,0.471 -0.108,0.545 0.654,0.581 1.381,0.474 1.89,0.326 2.142,0.146 2.073,-0.072 1.744,-0.328 0.471,-0.182 m -0.582,1.453 0.617,-0.145 m -0.327,-2.907 0.146,0.145 0.145,0.145 m -0.509,0.655 0.254,-0.108 m -9.445,-1.454 0.543,0.292 1.928,0.435 2.289,0.219 2.396,-0.038 2.073,-0.253 m -9.265,-0.22 0.579,0.291 1.89,0.437 2.327,0.218 2.361,-0.037 2.108,-0.253 m 0.471,-0.582 -0.145,0.07 -0.146,0.038 m -0.108,-1.271 0.543,-0.146 m -0.543,0.581 0.216,-0.035 m -0.108,0.871 0.218,-0.072 m -9.555,-1.817 0.509,0.254 1.927,0.438 2.323,0.217 2.362,-0.036 2.108,-0.254 m -0.619,-3.308 -1.708,0.218 h -1.997 l -1.927,-0.181 -1.635,-0.399 -1.018,-0.545 -0.254,-0.546 0.51,-0.51 1.197,-0.399 m 3.345,-0.217 h 0.398 l 1.927,0.218 1.599,0.399 1.017,0.51 0.291,0.546 -0.508,0.545 -1.236,0.362 m -6.832,-2.362 0.363,-0.036 m -1.053,2.252 1.054,0.254 1.164,0.219 1.271,0.108 1.308,0.073 1.271,-0.037 1.164,-0.108 1.017,-0.181 0.836,-0.255 0.617,-0.289 0.327,-0.365 0.037,-0.326 -0.218,-0.363 -0.509,-0.363 -0.764,-0.326 -0.944,-0.255 -1.127,-0.254 m -6.539,0.179 -0.946,0.218 -0.652,0.327 -0.327,0.328 v 0.397 l 0.362,0.401 0.655,0.4 0.98,0.326 1.199,0.291 m 8.32,16.641 -0.073,0.254 -0.399,0.363 -0.654,0.291 -0.944,0.254 -1.126,0.182 -1.271,0.109 h -1.381 l -1.38,-0.072 -1.31,-0.146 -1.198,-0.255 -1.054,-0.291 -0.8,-0.327 -0.509,-0.4 -0.217,-0.363 -0.038,-0.109 m 0.91,-17.983 -0.11,0.146 -0.036,0.364 0.255,0.399 0.545,0.363 0.799,0.327 1.055,0.292 1.199,0.217 1.344,0.182 0.872,0.036 m -5.56,-2.617 -0.146,0.073 -0.109,0.107 m 9.336,19.332 0.873,-0.254 0.909,-0.545 0.182,-0.473 m -1.964,1.272 v -0.399 m 2,-1.201 -0.218,0.472 -0.909,0.473 -0.873,0.255 m 0,-0.037 0.909,-0.254 0.909,-0.546 0.182,-0.472 m -2,1.272 0.038,-0.4 m 1.962,-1.199 -0.182,0.471 -0.909,0.474 -0.871,0.254 m 10e-4,-0.036 0.871,-0.254 0.909,-0.545 0.182,-0.472 m -1.962,1.271 v -0.399 m 1.998,-1.2 -0.218,0.472 -0.909,0.474 -0.871,0.254 m 0,-0.037 0.871,-0.256 0.909,-0.544 0.218,-0.472 m -1.998,1.272 v -0.399 m 2.035,-1.2 -0.291,0.509 -0.944,0.472 -0.8,0.219 m 0.036,-0.036 0.871,-0.256 0.91,-0.545 0.181,-0.471 m -1.962,1.272 v -0.4 m 1.999,-1.2 -0.218,0.473 -0.91,0.472 -0.871,0.254 m 0,-0.036 0.871,-0.254 0.91,-0.545 0.254,-0.582 -0.183,-0.254 m -1.852,1.635 v -0.399 m 1.999,-1.199 -0.183,0.471 -0.908,0.473 -0.908,0.255 m 0.037,-0.037 0.871,-0.253 0.908,-0.545 0.183,-0.472 m -1.962,1.27 v -0.398 m 1.998,-1.201 -0.219,0.472 -0.908,0.472 -0.871,0.256 m 0.035,-1.346 0.909,-0.253 0.908,-0.509 0.181,-0.51 m -1.998,1.272 0.036,-0.399 m 1.998,-1.198 -0.217,0.471 -0.908,0.473 -0.873,0.254 m 1.164,1.309 0.509,-0.363 0.289,-0.582 -0.071,-0.146 m -1.962,1.489 0.871,-0.254 0.364,-0.145 m -1.235,0.399 v -0.398 m 1.235,-0.4 -0.763,0.291 -0.473,0.109 m 1.999,-1.2 -0.183,0.473 -0.58,0.327 m -1.235,0.363 0.907,-0.255 0.908,-0.508 0.254,-0.618 -0.217,-0.254 m -1.852,1.635 0.035,-0.399 m 1.998,-1.201 -0.218,0.474 -0.908,0.472 -0.872,0.255 m 0,-0.037 0.872,-0.254 0.908,-0.509 0.218,-0.508 m -1.998,1.271 v -0.399 m 1.998,-1.199 -0.181,0.472 -0.908,0.473 -0.909,0.254 m 0.036,-0.473 0.873,-0.254 0.908,-0.509 0.255,-0.618 -0.183,-0.254 m -1.853,1.635 v -0.398 m 1.998,-1.201 -0.181,0.473 -0.908,0.472 -0.909,0.256 m 0.036,-0.474 0.873,-0.254 0.908,-0.509 0.253,-0.618 -0.217,-0.291 m -1.817,1.672 v -0.398 m 2,-1.201 -0.183,0.473 -0.909,0.509 -0.908,0.219 m -0.036,0.834 0.909,-0.255 0.908,-0.509 0.181,-0.508 m -1.998,1.272 0.036,-0.4 m 2,-1.199 -0.219,0.473 -0.908,0.472 -0.873,0.254 m 2.073,-2.943 -0.218,0.473 -0.909,0.508 -0.871,0.218 m -0.038,0.399 0.908,-0.254 0.909,-0.508 0.18,-0.509 m -1.997,1.271 0.037,-0.399 m -0.037,0.836 0.871,-0.254 0.909,-0.508 0.255,-0.619 -0.182,-0.217 m -1.853,1.598 v -0.399 m 1.997,-1.199 -0.18,0.472 -0.946,0.509 -0.871,0.218 m 0.037,-0.473 0.871,-0.254 0.909,-0.509 0.218,-0.508 m -1.998,1.271 v -0.399 m 1.999,-1.2 -0.182,0.472 -0.945,0.509 -0.871,0.218 m -0.075,1.708 0.908,-0.254 0.909,-0.509 0.183,-0.509 m -2,1.272 0.037,-0.399 m 1.744,-0.799 -0.255,0.29 -1.126,0.436 -0.363,0.073 m 1.963,-1.2 0.034,0.146 -0.18,0.217 m -1.743,-0.944 0.872,-0.254 0.908,-0.508 0.254,-0.619 -0.183,-0.217 m -1.851,1.598 v -0.398 m 1.999,-1.2 -0.184,0.472 -0.943,0.509 -0.872,0.219 m 0.872,0.58 0.654,-0.328 0.473,-0.545 -0.037,-0.109 m -1.999,1.235 0.908,-0.253 m -0.908,0.253 0.036,-0.398 m 0.873,-0.219 -0.872,0.219 m 1.999,-1.2 -0.219,0.472 -0.908,0.509 m -0.872,-0.254 0.907,-0.255 0.908,-0.508 0.219,-0.619 -0.183,-0.216 m -1.851,1.598 0.036,-0.399 m 1.998,-1.199 -0.219,0.472 -0.908,0.509 -0.871,0.217 m 0,-0.036 0.871,-0.255 0.908,-0.508 0.219,-0.472 m -1.998,1.235 v -0.4 m 1.998,-1.198 -0.183,0.472 -0.944,0.509 -0.871,0.218 m 0,-0.036 0.908,-0.255 0.907,-0.51 0.218,-0.58 -0.18,-0.255 m -1.853,1.6 0.036,-0.401 m 1.962,-1.199 -0.183,0.472 -0.907,0.509 -0.872,0.218 m 0,-0.037 0.872,-0.254 0.907,-0.509 0.255,-0.616 -0.183,-0.219 m -1.851,1.598 v -0.362 m 1.997,-1.235 -0.218,0.472 -0.907,0.509 -0.872,0.218 m 0,-0.038 0.908,-0.254 0.909,-0.508 0.18,-0.471 m -1.997,1.233 0.035,-0.362 m 1.962,-1.235 -0.18,0.471 -0.909,0.51 -0.873,0.254 m 0,-0.037 0.873,-0.291 0.909,-0.508 0.217,-0.472 m -1.999,1.235 v -0.364 m 1.962,-1.234 v 0.327 l -0.726,0.509 -1.236,0.364 m 0.037,-0.874 0.909,-0.291 0.908,-0.509 0.181,-0.473 m -1.998,1.273 0.038,-0.399 m 1.96,-1.235 -0.181,0.472 -0.908,0.508 -0.871,0.255 m -0.075,1.236 0.91,-0.256 0.906,-0.508 0.183,-0.472 m -1.999,1.236 0.037,-0.363 m 1.962,-1.237 -0.183,0.473 -0.906,0.508 -0.873,0.256 m 0,-0.038 0.873,-0.29 0.906,-0.509 0.219,-0.472 m -1.998,1.235 v -0.363 m 1.998,-1.234 -0.219,0.471 -0.906,0.509 -0.873,0.254 m 0.038,-0.909 0.906,-0.291 0.91,-0.509 0.217,-0.581 -0.182,-0.255 m -1.851,1.636 0.035,-0.4 m 1.962,-1.235 -0.181,0.473 -0.91,0.509 -0.871,0.254 m 0.436,0.689 0.763,-0.29 0.69,-0.544 0.036,-0.292 m -1.96,1.272 0.471,-0.146 m -0.471,0.146 v -0.399 m 0.471,-0.145 -0.471,0.145 m 1.997,-1.234 -0.218,0.472 -0.908,0.508 -0.4,0.11 m -0.436,-0.329 0.871,-0.29 0.91,-0.509 0.253,-0.581 -0.183,-0.256 m -1.851,1.636 v -0.4 m 1.998,-1.235 -0.217,0.474 -0.91,0.508 -0.871,0.254 m 0,-0.036 0.907,-0.292 0.909,-0.509 0.182,-0.472 m -1.998,1.273 0.037,-0.4 m 1.961,-1.235 -0.182,0.472 -0.909,0.509 -0.87,0.255 m 0,-0.474 0.035,-0.399 m -0.035,0.835 v -0.399 m 0.036,-0.472 v -0.4 m 0.036,-0.472 v -0.4 m -0.036,0.835 0.036,-0.399 m -4.797,-1.017 1.309,0.072 h 1.271 l 1.198,-0.072 0.546,-0.073 h 0.254 l 0.147,-0.036 h 0.035 0.036 0.036 m 10e-4,0.217 v -0.218 m -18.674,14.534 -0.69,17.004 m 0,0 16.967,5.922 m 2.361,-36.805 0.036,-0.399 m 8.357,35.061 0.69,-17.04 m -11.154,19.218 10.464,-2.179 m -26.85,-20.999 16.968,5.921 m -17.149,-5.704 v -0.037 l 0.035,-0.037 v -0.036 l 0.036,-0.037 v -0.036 h 0.038 l 0.035,-0.035 h 0.036 m 16.787,6.14 -16.967,-5.922 m 27.722,3.743 -10.464,2.18 m 10.317,-2.399 h 0.037 l 0.035,0.037 0.036,0.035 v 0.036 l 0.038,0.037 v 0.036 0.037 m -10.572,1.962 10.427,-2.18 m -11.3,19.403 0.69,-17.004 m -0.399,17.038 h -0.037 -0.037 -0.035 -0.037 -0.035 -0.037 l -0.034,-0.035 h -0.038 m 0.981,-17.004 -0.69,17.039 m 2.034,-35.532 0.872,-0.292 0.907,-0.508 0.256,-0.582 -0.219,-0.254 m -1.816,1.199 0.908,-0.29 0.908,-0.51 0.182,-0.472 m -2.034,2.58 0.87,-0.29 0.909,-0.509 0.182,-0.472 m -1.961,0.835 0.907,-0.291 0.907,-0.509 0.219,-0.581 -0.182,-0.254 m -3.45,19.693 h 0.037 0.035 l 0.037,0.036 h 0.036 0.036 0.035 0.037 l 0.037,-0.036 m 0.001,0 v -0.037 -0.036 -0.037 l -0.037,-0.036 v -0.036 h -0.037 l -0.035,-0.037 m 0,10e-4 h -0.036 -0.036 l -0.037,0.037 -0.035,0.036 v 0.036 l -0.037,0.037 v 0.036 0.037 m 3.632,-20.094 -0.219,0.436 -0.907,0.509 -0.872,0.255 m -9.229,-0.654 0.546,0.291 1.925,0.436 2.289,0.218 h 2.397 l 2.071,-0.291 m 1.963,-0.764 -0.183,0.438 -0.907,0.507 -0.872,0.255 m 1.962,-0.799 -0.218,0.471 -0.909,0.509 -0.87,0.255 m -8.54,-0.327 h 0.071 l 1.201,0.328 1.416,0.181 1.563,0.109 h 1.524 l 1.491,-0.073 1.272,-0.217 m 0.073,-1.309 0.145,-0.036 m -0.181,0.908 0.146,-0.036 m 0,0.435 h 0.107 l 0.291,-0.146 m 1.454,-2.324 -0.182,0.473 -0.908,0.472 -0.872,0.254 m -9.12,-0.582 0.401,0.219 1.925,0.437 2.325,0.217 h 2.361 l 2.071,-0.291 m 2.036,-1.636 -0.183,0.437 -0.907,0.508 -0.909,0.255 m -1.708,-3.743 -1.198,-0.108 -1.235,-0.073 h -0.074 m 2.507,0.181 1.818,0.399 1.271,0.546 0.581,0.617 -0.219,0.581 -0.907,0.509 -1.526,0.364 -1.962,0.182 -2.145,-0.037 m 6.796,-1.053 -0.183,0.436 -0.907,0.509 -0.873,0.255 m -9.23,-2.835 v -0.037 l 0.946,-0.254 m 1.272,2.689 -1.199,-0.255 -0.945,-0.327 -0.69,-0.363 -0.362,-0.399 v -0.219 m 3.196,1.563 0.254,0.037 h 0.037 0.035 v -0.037 l -0.654,-0.146 -0.908,-0.254 m 0.982,-2.507 -0.51,0.073 -1.018,0.254 -0.726,0.327 -0.399,0.363 -0.073,0.364 0.254,0.4 0.619,0.399 0.87,0.327 m 6.033,0.763 1.018,-0.109 1.38,-0.254 0.291,-0.108 m -0.473,0.544 0.146,-0.037 m -0.182,0.473 0.183,-0.037 m -0.183,0.437 0.872,-0.254 0.908,-0.546 0.256,-0.58 -0.183,-0.255 m -1.853,1.199 0.872,-0.253 0.908,-0.545 0.256,-0.582 -0.183,-0.254 m -1.817,1.197 0.873,-0.253 0.907,-0.546 0.255,-0.582 -0.182,-0.218 m -9.084,-1.634 -1.053,0.145 m -64.782,-103.076 -0.181,0.217 -0.437,0.8 -0.254,1.017 -0.036,1.163 0.145,1.163 0.363,1.09 0.545,0.981 0.691,0.763 0.763,0.473 v 0.035 m 76.191,-22.453 -0.437,-0.109 -1.308,-0.218 -1.38,-0.182 -1.453,-0.037 h -1.418 l -1.344,0.11 -0.654,0.108 m 51.266,14.716 -0.145,-0.036 -1.164,-0.363 -1.38,-0.291 -1.525,-0.218 -1.6,-0.109 -1.598,-0.037 -1.6,0.037 -1.453,0.145 -1.308,0.182 m 0.002,-0.001 -0.689,0.183 m 76.115,34.007 -0.146,0.218 -0.472,0.8 -0.254,1.017 -0.037,1.127 0.181,1.198 0.364,1.091 0.546,0.98 0.653,0.764 0.762,0.471 v 0.038 m 11.192,2.686 -2.906,3.016 m 0,0 -2.288,0.473 m -7.776,-13.952 0.763,0.435 0.727,0.69 0.582,0.945 0.398,1.053 0.22,1.165 v 1.161 l -0.183,1.054 -0.436,0.873 -0.547,0.654 -0.689,0.327 -0.763,0.071 -0.799,-0.289 -0.728,-0.582 -0.652,-0.799 -0.509,-1.017 -0.327,-1.127 -0.109,-1.161 0.109,-1.126 0.29,-0.981 0.508,-0.764 0.618,-0.508 0.763,-0.182 0.764,0.108 m -34.225,-0.69 42.001,14.642 m 0,0 2.87,-3.016 m 0,-10e-4 0.508,-11.699 m -0.508,11.699 2.324,-0.472 m 0,0 0.472,-11.699 m -2.288,0.473 v -0.04 l -0.037,-0.035 v -0.037 -0.036 -0.036 l -0.035,-0.037 -0.037,-0.036 m 2.397,-0.219 -2.288,0.473 m 2.288,-0.473 v -0.327 l -0.036,-0.363 -0.036,-0.327 -0.108,-0.292 -0.109,-0.29 -0.109,-0.254 -0.182,-0.255 -0.181,-0.217 m -1.636,2.544 -14.46,-14.424 m 14.46,14.424 1.636,-2.544 m -0.001,0 -14.462,-14.388 m -1.633,2.508 h -0.038 v -0.037 h -0.035 -0.037 -0.035 -0.036 -0.036 m 1.85,-2.471 -1.634,2.508 m -150.599,-55.518 0.254,-0.035 h 0.255 l 0.218,0.035 0.219,0.038 0.072,0.036 m 151.215,52.936 -0.181,-0.182 -0.183,-0.108 -0.217,-0.109 -0.219,-0.073 -0.219,-0.072 h -0.218 -0.254 l -0.218,0.036 m -52.463,30.265 -0.144,0.183 -0.438,0.836 -0.253,1.016 -0.072,1.126 0.182,1.164 0.363,1.09 0.544,0.981 0.653,0.762 0.765,0.509 h 0.035 m -60.82,-70.486 -0.98,0.254 -0.691,0.327 -0.436,0.363 -0.145,0.399 0.217,0.4 0.472,0.399 0.801,0.363 1.018,0.327 1.198,0.254 1.344,0.182 1.454,0.109 1.418,0.037 1.416,-0.074 1.234,-0.145 1.09,-0.218 0.836,-0.291 0.582,-0.363 0.29,-0.364 -0.037,-0.434 -0.327,-0.399 -0.652,-0.363 -0.909,-0.363 -1.127,-0.29 -1.271,-0.219 -1.419,-0.145 -1.453,-0.073 -1.416,0.037 -1.308,0.073 -1.199,0.217 m 40.038,13.95 -1.126,0.292 -0.836,0.327 -0.545,0.399 -0.254,0.436 0.074,0.437 0.363,0.472 0.689,0.437 0.944,0.399 1.198,0.327 1.346,0.292 1.525,0.217 1.598,0.109 1.599,0.072 1.6,-0.072 1.452,-0.109 1.308,-0.217 1.091,-0.292 0.835,-0.364 0.547,-0.398 0.254,-0.436 -0.037,-0.437 -0.399,-0.437 -0.653,-0.436 -0.981,-0.399 -1.162,-0.364 -1.381,-0.255 -1.527,-0.217 -1.597,-0.145 -1.6,-0.037 -1.563,0.037 -1.489,0.145 -1.273,0.217 m -78.914,-33.898 150.526,52.501 m -173.343,-47.704 22.817,-4.797 m 150.382,55.481 -22.817,4.761 m 22.817,-4.761 0.145,-2.979 m -10e-4,-0.001 -22.853,4.759 m -0.109,2.982 h -0.035 -0.038 v 0.036 h -0.035 l -0.038,0.035 h -0.036 v 0.036 l -0.035,0.038 m 0.327,-3.127 -0.109,2.981 m -150.382,-55.444 150.491,52.463 m -152.272,-51.264 0.182,-0.218 0.218,-0.218 0.218,-0.183 0.219,-0.181 0.217,-0.146 0.255,-0.109 0.254,-0.108 0.219,-0.037 m 150.49,52.464 -0.218,0.074 -0.254,0.073 -0.22,0.145 -0.254,0.146 -0.217,0.146 -0.219,0.218 -0.217,0.217 -0.184,0.219 m -15.04,34.624 -2.905,3.015 m -0.001,0 -2.289,0.473 m 2.905,-2.98 2.289,-0.509 m 0.472,-11.662 -0.472,11.663 m -10.246,-5.268 -0.071,-1.163 -0.255,-1.163 -0.473,-1.053 -0.617,-0.873 -0.727,-0.617 -0.763,-0.364 -0.764,-0.036 -0.727,0.29 -0.617,0.545 -0.436,0.836 -0.256,1.018 -0.035,1.126 0.145,1.163 0.364,1.126 0.545,0.945 0.69,0.763 0.762,0.508 0.764,0.183 0.762,-0.109 0.654,-0.437 0.546,-0.69 0.364,-0.944 0.145,-1.054 m -128.619,-44.872 -0.035,-1.163 -0.29,-1.126 -0.437,-1.053 -0.617,-0.873 -0.726,-0.654 -0.801,-0.327 -0.762,-0.036 -0.728,0.254 -0.581,0.583 -0.473,0.835 -0.254,1.017 -0.037,1.126 0.182,1.163 0.363,1.091 0.546,0.98 0.653,0.764 0.763,0.508 0.799,0.182 0.727,-0.109 0.691,-0.436 0.509,-0.728 0.363,-0.907 0.145,-1.091 m -13.914,-1.853 0.473,-11.699 m -0.473,11.699 2.543,4.905 m 0,10e-4 145.042,50.575 m 0,0 2.905,-2.979 m 0.473,-11.701 -0.473,11.7 m 2.761,-12.171 -2.288,0.471 m 2.399,-0.799 v 0.037 l -0.035,0.036 v 0.038 l -0.038,0.036 v 0.036 0.037 l -0.037,0.036 v 0.073 m -152.779,-52.029 v -0.327 l 0.072,-0.362 0.072,-0.364 0.11,-0.363 0.145,-0.327 0.182,-0.326 0.183,-0.292 0.181,-0.291 m -0.945,2.652 150.49,52.5 m 0.944,-2.687 -0.183,0.291 -0.181,0.327 -0.18,0.326 -0.11,0.328 -0.146,0.363 -0.073,0.327 -0.035,0.364 -0.037,0.362 m -133.631,-75.935 150.49,52.501 m -166.404,-31.719 15.914,-20.782 m -15.914,20.782 150.49,52.465 m 17.369,-18.856 -15.914,20.745 m 15.914,-20.745 -1.454,-1.89 m 0,0 -15.914,20.746 m -0.001,0 1.454,1.889 m -33.352,-76.663 0.254,-0.145 0.145,-0.073 m 13.953,0.401 0.579,0.29 m 0.91,-0.727 -0.253,0.363 m -0.365,0.255 -0.727,0.29 m 1.092,-0.544 -0.111,0.109 m -19.076,0.799 0.182,0.509 0.146,0.109 m 0,-10e-4 0.617,0.509 m 18.966,1.381 0.146,-0.036 m 0,-0.001 0.763,-0.29 0.872,-0.545 0.036,-0.037 m 0,0 0.508,-0.544 0.219,-0.618 m 0,0 0.037,-1.563 m -22.637,-0.944 -0.035,1.598 m 21.908,-1.961 -0.51,-0.436 -0.799,-0.4 m -19.474,-0.109 -0.108,0.072 -0.326,0.145 -0.473,0.546 -0.183,0.545 m -22.38,82.875 -2.726,-0.946 m -4.978,1.454 -0.035,1.163 m -15.951,-0.582 -0.034,1.164 m 24.704,1.017 0.037,-1.199 m 17.803,73.864 1.307,0.072 m 0.583,11.193 0.762,-0.183 m 10.1,0.546 0.69,0.253 m -13.26,-24.234 -0.365,8.975 m 17.514,0.727 0.361,-8.974 m -2.25,-5.522 0.146,-0.073 0.181,-0.037 m -0.365,-0.29 0.147,-0.073 0.182,-0.073 m -0.401,-0.255 0.146,-0.073 0.181,-0.072 m -14.06,-1.489 0.035,0.035 m 0.837,0.945 0.181,0.073 0.146,0.072 m -0.255,0.328 0.146,0.072 0.18,0.074 m -0.326,0.29 0.146,0.073 0.18,0.109 m 12.463,-0.873 0.182,-0.072 0.145,-0.072 m -0.181,-0.365 0.146,-0.035 0.182,-0.073 m -0.292,-0.327 0.182,-0.074 0.146,-0.035 m -0.291,-0.328 0.182,-0.073 0.145,-0.035 m -13.335,-0.474 0.146,0.074 0.18,0.071 m -0.362,0.293 0.145,0.071 0.183,0.073 m -0.364,0.291 0.146,0.072 0.145,0.074 m 12.789,-0.873 0.145,-0.035 0.182,-0.073 m -0.327,-0.327 0.182,-0.036 0.181,-0.073 m -0.327,-0.327 0.181,-0.036 0.182,-0.073 m -13.697,-1.09 0.072,0.072 m 0.254,0.545 0.146,0.072 0.182,0.074 m -0.364,0.291 0.146,0.072 0.18,0.072 m -0.326,0.291 0.146,0.073 0.18,0.073 m 12.754,-0.872 0.145,-0.036 0.182,-0.073 m -0.363,-0.291 0.181,-0.073 0.146,-0.073 m -0.255,-0.326 0.146,-0.036 0.182,-0.074 m -0.328,-0.326 0.183,-0.036 0.181,-0.073 m -13.371,-0.473 0.183,0.073 0.146,0.073 m -0.364,0.291 0.145,0.072 0.182,0.072 m -0.365,0.292 0.182,0.073 0.146,0.072 m 12.752,-0.835 0.183,-0.074 0.146,-0.072 m -0.292,-0.291 0.146,-0.072 0.181,-0.074 m -0.29,-0.326 0.145,-0.036 0.182,-0.073 m -13.335,-0.908 0,0 m -0.327,-0.145 0.109,0.035 m 0.182,0.546 0.18,0.073 0.148,0.071 m -0.365,0.291 0.183,0.073 0.146,0.072 m -0.329,0.292 0.183,0.071 0.146,0.074 m 5.884,13.298 h 1.671 0.654 l 1.055,-0.037 1.018,-0.108 1.054,-0.11 0.981,-0.182 0.907,-0.218 0.872,-0.291 0.763,-0.363 0.728,-0.436 0.581,-0.545 0.436,-0.654 0.218,-0.727 0.037,-0.4 m -21.547,-0.834 -0.037,0.436 0.254,0.873 0.473,0.689 0.653,0.618 0.836,0.509 0.944,0.436 1.018,0.364 1.018,0.254 1.345,0.291 1.089,0.146 0.873,0.108 0.981,0.109 1.125,0.073 m 6.868,-14.172 0.181,-0.035 0.146,-0.074 m -0.327,-0.289 0.145,-0.073 0.182,-0.074 m -0.292,-0.289 0.182,-0.074 0.146,-0.071 m -0.291,-0.328 0.145,-0.036 0.182,-0.072 m -13.371,-0.473 0.182,0.109 0.146,0.072 m -0.364,0.255 0.182,0.073 0.146,0.072 m -0.328,0.29 0.144,0.073 0.184,0.073 m 14.169,7.703 v -0.399 m 0.036,-0.4 v -0.037 m 0,-0.4 v -0.036 m 0.037,-0.401 v -0.035 m 0,-0.401 v -0.035 m 0.036,-0.363 v -0.073 m 0,-0.363 v -0.073 m 0,-0.363 0.035,-0.073 m 0.001,-0.363 v -0.073 m 0,-0.363 0.036,-0.036 m 0,-0.4 v -0.036 m 0,-0.401 v -0.036 m 0.037,-0.4 v -0.036 m 0,-0.399 v -0.038 m 0.036,-0.398 v -0.036 m 0,-0.4 v -0.036 m 0.036,-0.4 v -0.037 m 0,-0.4 v -0.036 m 0.037,-0.399 v -0.036 m 0,-0.4 v -0.037 m 0.036,-0.398 v -0.037 m 0,-0.4 v -0.037 m 0.037,-0.4 v -0.035 m 0,-0.401 v -0.035 m -16.06,-0.437 v 0.036 m 0,0.401 v 0.035 m -0.035,0.4 v 0.035 m 0,0.401 v 0.037 m -0.037,0.399 v 0.037 m 0,0.399 v 0.037 m -0.036,0.4 v 0.036 m 0,0.399 v 0.036 m -0.038,0.4 v 0.037 m 0,0.4 v 0.036 m -0.036,0.4 v 0.036 m 0,0.398 v 0.038 m -0.036,0.399 v 0.036 m 0,0.4 v 0.036 m -0.037,0.401 v 0.036 m 0,0.363 v 0.073 m -0.035,0.363 v 0.073 m 0,0.363 v 0.073 m -0.036,0.363 v 0.073 m 0,0.363 v 0.037 m 0,0.399 -0.036,0.035 m 0,0.401 v 0.035 m 0,0.401 -0.037,0.036 m -0.001,0.4 v 0.181 m 8.539,-12.68 h -1.489 -0.581 l -0.909,0.074 -0.906,0.071 -0.292,0.037 m -1.092,0.181 -0.255,0.073 -0.689,0.182 -0.619,0.218 -0.397,0.218 m -0.654,0.581 -0.074,0.073 -0.072,0.182 m 14.133,2.906 0.182,-0.072 0.145,-0.072 m -0.327,-0.292 0.145,-0.071 0.182,-0.075 m -0.327,-0.29 0.182,-0.072 h 0.035 m 0,0 0.146,-0.074 m -13.371,-0.472 0.183,0.073 0.145,0.071 m -0.328,0.293 0.146,0.072 0.182,0.074 m -0.328,0.289 0.146,0.073 0.182,0.073 m -4.759,8.248 -0.109,3.161 m 21.616,0.872 0.109,-3.161 m -60.674,38.586 1.125,0.399 m -8.065,-8.248 0,0 v 0.072 l 0.037,0.073 0.035,0.037 0.037,0.034 m 12.315,9.558 1.091,0.363 m -5.013,-28.921 -7.666,1.599 m -0.146,0.181 -0.69,17.004 m 0.836,-17.184 h -0.038 l -0.036,0.035 -0.072,0.073 v 0.072 m 26.959,20.965 h 0.036 l 0.073,-0.073 0.036,-0.036 0.037,-0.072 v -0.037 m -9.92,7.92 1.092,0.4 m 9.372,-25.506 -7.629,-2.688 m 7.086,19.873 0.689,-17.004 m 0,0 v -0.036 l -0.036,-0.073 -0.074,-0.072 h -0.036 m -18.892,-39.458 -0.218,0.037 -0.037,0.036 h -0.109 l -0.073,0.036 -0.107,0.037 h -0.109 l -0.072,0.037 -0.146,0.073 -0.29,0.218 -0.291,0.436 -0.145,0.508 0.072,0.474 m 3.742,-0.874 -0.037,-0.146 -0.255,-0.509 -0.436,-0.326 -0.509,-0.182 h -0.219 -0.145 l -0.071,0.036 h -0.073 l -0.11,0.037 h -0.036 m 0,0.001 h -0.036 l -0.109,0.035 -0.181,0.037 m -9.374,53.117 16.967,5.923 m 0.109,0 10.464,-2.179 m -10.573,2.179 h 0.037 0.035 0.037 m 2.144,-21 0.146,-0.073 0.18,-0.072 m -0.29,-0.29 0.145,-0.074 0.183,-0.073 m -0.328,-0.29 0.183,-0.073 0.145,-0.074 m -0.328,-0.289 0.183,-0.073 0.181,-0.073 m -0.4,-0.254 0.146,-0.072 0.18,-0.072 m -0.326,-0.292 0.181,-0.072 0.183,-0.073 m -0.218,-0.326 0.144,-0.073 0.183,-0.074 m 0.834,-0.871 0.037,-0.037 m -1.308,0.218 0.183,-0.073 0.181,-0.036 m -0.328,-0.327 0.182,-0.072 0.183,-0.072 m -0.257,-0.328 0.183,-0.072 0.182,-0.073 m -4.432,-13.953 -3.742,-18.565 m -3.78,0.872 4.686,18.347 m 6.903,13.007 0.183,-0.072 0.182,-0.037 m -0.327,-0.326 0.181,-0.073 0.183,-0.036 m -0.364,-0.327 0.181,-0.037 0.146,-0.072 m -0.291,-0.326 0.183,-0.074 0.146,-0.035 m -0.329,-0.328 0.183,-0.037 0.146,-0.072 m -0.293,-0.327 0.183,-0.073 0.145,-0.036 m -0.328,-0.327 0.183,-0.036 0.182,-0.074 m -7.341,-10.317 -0.726,0.508 m 6.757,0.326 -0.653,-0.544 -0.945,-0.546 -0.728,-0.216 -1.017,-0.147 m 5.015,10.247 0.219,-0.073 0.181,-0.073 m -1.127,0.111 0.183,-0.074 0.182,-0.071 m -0.437,-0.256 0.145,-0.073 0.182,-0.072 m -0.182,-0.364 0.182,-0.037 0.183,-0.072 m -0.329,-0.327 0.146,-0.036 0.183,-0.073 m -0.474,-0.254 0.183,-0.073 0.181,-0.072 m -0.219,-0.327 0.183,-0.074 0.146,-0.072 m -0.256,-0.327 0.145,-0.036 0.182,-0.073 m -0.363,-0.292 0.181,-0.071 0.182,-0.073 m -0.292,-0.327 0.146,-0.036 0.181,-0.072 m -0.362,-0.291 0.182,-0.072 0.181,-0.073 m 0.254,-0.583 0.182,-0.072 0.183,-0.072 m -0.909,0 0.146,-0.073 0.182,-0.072 m -0.401,-0.292 0.182,-0.036 0.145,-0.073 m -0.292,-0.326 0.183,-0.036 0.145,-0.074 m 0.545,13.843 0.036,-0.545 m 10e-4,-0.327 v -0.108 m 0.037,-0.328 v -0.109 m 0,-0.327 v -0.108 m 0.036,-0.328 v -0.108 m 0,-0.328 v -0.109 m 0.035,-0.326 v -0.109 m 0,-0.328 v -0.109 m 0.036,-0.327 v -0.109 m 0,-0.328 v -0.107 m 0.038,-0.327 v -0.11 m 0,-0.326 v -0.109 m 0.034,-0.328 v -0.073 m 0,-0.363 v -0.109 m 0.039,-0.327 v -0.072 m 0,-0.364 v -0.072 m 0.037,-0.363 v -0.073 m 0,-0.364 v -0.073 m 0,-0.363 0.035,-0.073 m 0,-0.363 v -0.072 m 0,-0.363 0.035,-0.073 m 0,-0.363 v -0.073 m 0,-0.363 0.037,-0.073 m 0,-0.364 v -0.073 m 0,-0.362 0.036,-0.072 m 0,-0.364 v -0.073 m 0,-0.363 0.037,-0.072 m 0,-0.365 v -0.072 m 0,-0.362 v -0.074 m 0.036,-0.327 v -0.11 m 0,-0.361 v -0.073 m 0.037,-0.328 v -0.109 m 0,-0.327 v -0.108 m 0.036,-0.329 v -0.108 m 0,-0.326 v -0.11 m 0.037,-0.328 v -0.108 m 0,-0.328 v -0.108 m 0.037,-0.327 v -0.109 m 0,-0.328 v -0.108 m 0.035,-0.327 v -0.108 m -12.353,-0.618 -0.728,17.62 m 11.556,-13.697 0.182,-0.036 0.182,-0.072 m -0.439,-0.291 0.183,-0.037 0.182,-0.073 m -0.365,-0.29 0.183,-0.073 0.145,-0.073 m -0.181,-0.326 0.181,-0.072 0.183,-0.072 m -0.364,-0.293 0.145,-0.072 0.183,-0.072 m -0.365,-0.291 0.182,-0.037 0.146,-0.073 m -0.363,-0.289 0.182,-0.075 0.145,-0.072 m 108.162,-90.831 -150.526,-52.501"
       id="path4619" />
    <text
       y="297.10275"
       x="195.45554"
       style="font-size:6px;font-style:normal;font-variant:normal;font-weight:bold;font-stretch:normal;text-align:start;line-height:125%;writing-mode:lr-tb;text-anchor:start;font-family:Sans;-inkscape-font-specification:Sans Bold;fill:#808080"
       transform="scale(1.0373524,0.96399256)"
       font-size="7"
       id="text4515-2"
       sodipodi:linespacing="125%">M6 Nut</text>
    <text
       y="297.22989"
       x="391.23712"
       style="font-size:6px;font-family:Sans;-inkscape-font-specification:Sans Bold;font-weight:bold;font-style:normal;font-stretch:normal;font-variant:normal;text-anchor:start;text-align:start;writing-mode:lr;line-height:125%;fill:#808080"
       transform="scale(1.0373524,0.96399256)"
       font-size="7"
       id="text4527-6"
       sodipodi:linespacing="125%">M8 Nut</text>
    <text
       y="322.57449"
       x="390.99863"
       style="font-size:6px;font-family:Sans;-inkscape-font-specification:Sans Bold;font-weight:bold;font-style:normal;font-stretch:normal;font-variant:normal;text-anchor:start;text-align:start;writing-mode:lr;line-height:125%;fill:#808080"
       transform="scale(1.0373524,0.96399256)"
       font-size="7"
       id="text4503-7"
       sodipodi:linespacing="125%">M8 Spring Washer</text>
    <text
       y="358.07712"
       x="391.36304"
       style="font-size:6px;font-family:Sans;-inkscape-font-specification:Sans Bold;font-weight:bold;font-style:normal;font-stretch:normal;font-variant:normal;text-anchor:start;text-align:start;writing-mode:lr;line-height:125%;fill:#808080"
       transform="scale(1.0373524,0.96399256)"
       font-size="7"
       id="text4567-7"
       sodipodi:linespacing="125%">Rear Plate</text>
  </g>
</svg>
