<?xml version="1.0" encoding="UTF-8" standalone="no"?>
<!-- Created with Inkscape (http://www.inkscape.org/) -->

<svg
   xmlns:dc="http://purl.org/dc/elements/1.1/"
   xmlns:cc="http://creativecommons.org/ns#"
   xmlns:rdf="http://www.w3.org/1999/02/22-rdf-syntax-ns#"
   xmlns:svg="http://www.w3.org/2000/svg"
   xmlns="http://www.w3.org/2000/svg"
   xmlns:sodipodi="http://sodipodi.sourceforge.net/DTD/sodipodi-0.dtd"
   xmlns:inkscape="http://www.inkscape.org/namespaces/inkscape"
   width="744.09448819"
   height="1052.3622047"
   id="svg28378"
   version="1.1"
   inkscape:version="0.48.4 r9939"
   sodipodi:docname="STEP6.svg"
   inkscape:export-filename="C:\Users\Administrator\Desktop\08 - 移动机器人导购系统\连线图\安装图\STEP6.png"
   inkscape:export-xdpi="400"
   inkscape:export-ydpi="400">
  <defs
     id="defs28380" />
  <sodipodi:namedview
     id="base"
     pagecolor="#ffffff"
     bordercolor="#666666"
     borderopacity="1.0"
     inkscape:pageopacity="0.0"
     inkscape:pageshadow="2"
     inkscape:zoom="1.4"
     inkscape:cx="344.20951"
     inkscape:cy="687.0986"
     inkscape:document-units="px"
     inkscape:current-layer="layer1"
     showgrid="false"
     inkscape:window-width="1366"
     inkscape:window-height="716"
     inkscape:window-x="-8"
     inkscape:window-y="-8"
     inkscape:window-maximized="1" />
  <metadata
     id="metadata28383">
    <rdf:RDF>
      <cc:Work
         rdf:about="">
        <dc:format>image/svg+xml</dc:format>
        <dc:type
           rdf:resource="http://purl.org/dc/dcmitype/StillImage" />
        <dc:title></dc:title>
      </cc:Work>
    </rdf:RDF>
  </metadata>
  <g
     inkscape:label="Layer 1"
     inkscape:groupmode="layer"
     id="layer1">
    <path
       id="path18315"
       d="m 326.45321,304.38367 10.752,35.975 m -10.752,-35.975 h -41.114 m -10e-4,0 h 41.114 m 0.001,0 h -41.114 m -10e-4,0 h 41.114 m 0.001,0 h -41.114 m -10e-4,0 h 41.114 m 84.835,0 -32.527,33.348 m 73.642,-33.348 h -41.115 m 0,0 h 41.116 m -10e-4,0 h -41.115 m 0,0 h 41.116 m -10e-4,0 h -41.115 m 0,0 h 41.116 m -224.677,96.868 23.554,30.639 m -23.554,-30.639 h -41.144 m 0,0 h 41.144 m 0,0 h -41.144 m 0,0 h 41.144 m 0,0 h -41.144 m 0,0 h 41.144"
       stroke-miterlimit="10"
       inkscape:connector-curvature="0"
       style="fill:#000000;stroke:#666666;stroke-width:0.50000000000000000;stroke-miterlimit:10" />
    <line
       id="line18317"
       y2="372.00366"
       x2="309.92221"
       y1="316.02466"
       x1="308.11722"
       stroke-miterlimit="10"
       style="fill:none;stroke:#000000;stroke-width:0.5;stroke-miterlimit:10" />
    <line
       id="line18319"
       y2="399.21973"
       x2="381.20923"
       y1="415.53564"
       x1="381.73422"
       stroke-miterlimit="10"
       style="fill:none;stroke:#000000;stroke-width:0.5;stroke-miterlimit:10" />
    <line
       id="line18321"
       y2="395.1687"
       x2="310.67023"
       y1="377.31763"
       x1="310.09222"
       stroke-miterlimit="10"
       style="fill:none;stroke:#000000;stroke-width:0.5;stroke-miterlimit:10" />
    <line
       id="line18323"
       y2="345.07568"
       x2="379.46124"
       y1="393.3457"
       x1="381.01822"
       stroke-miterlimit="10"
       style="fill:none;stroke:#000000;stroke-width:0.5;stroke-miterlimit:10" />
    <path
       id="path18325"
       d="m 337.34321,340.79467 0.081,-0.027 0.056,-0.054 0.081,-0.056 0.029,-0.081 0.054,-0.056 0.027,-0.081 v -0.109 l -0.027,-0.083 v -0.083 l -0.054,-0.055 -0.056,-0.079 -0.054,-0.056 -0.083,-0.056 -0.082,-0.026 h -0.082 -0.083 -0.08 l -0.083,0.055 -0.082,0.027 -0.055,0.056 -0.056,0.079 -0.026,0.083 -0.027,0.083 v 0.082 0.082 l 0.027,0.081 0.026,0.083 0.056,0.054 0.083,0.056 0.054,0.054 0.083,0.027 0.08,0.027 h 0.11 l 0.083,-0.027 -0.138,-0.437 m 41.225,-2.298 0.083,0.056 0.081,0.054 0.084,0.026 h 0.081 0.083 l 0.082,-0.026 0.083,-0.027 0.054,-0.055 0.054,-0.055 0.055,-0.082 0.028,-0.083 0.027,-0.081 v -0.082 -0.082 l -0.027,-0.084 -0.055,-0.079 -0.055,-0.056 -0.054,-0.053 -0.082,-0.057 -0.083,-0.027 h -0.082 -0.082 l -0.083,0.027 -0.082,0.027 -0.083,0.056 -0.055,0.054 -0.055,0.081 -0.027,0.083 -0.027,0.082 v 0.081 l 0.027,0.082 0.027,0.083 0.027,0.081 0.056,0.056 0.329,-0.328 m -127.206,94.516 0.083,-0.056 0.027,-0.055 0.055,-0.081 0.027,-0.083 v -0.083 -0.082 l -0.027,-0.081 -0.055,-0.082 -0.055,-0.081 -0.055,-0.056 -0.082,-0.028 -0.083,-0.052 h -0.081 -0.083 l -0.083,0.025 -0.081,0.026 -0.055,0.028 -0.083,0.056 -0.055,0.081 -0.027,0.082 -0.027,0.081 v 0.082 0.083 l 0.027,0.083 0.055,0.081 0.027,0.055 0.083,0.056 0.055,0.053 0.081,0.028 0.083,0.026 h 0.11 l 0.081,-0.026 0.083,-0.028 0.055,-0.052 -0.273,-0.357"
       stroke-miterlimit="10"
       inkscape:connector-curvature="0"
       style="fill:none;stroke:#000000;stroke-width:0.5;stroke-miterlimit:10" />
    <path
       id="path18327"
       d="m 308.53521,323.06967 v 0.137 l 0.027,0.162 m -0.08,-9.601 0.027,0.876 m -0.711,-0.303 0.055,1.069 m 1.694,4.349 0.084,0.11 0.107,0.135 m 0.494,-0.957 -0.574,0.439 -0.793,0.3 -0.903,0.109 -0.876,-0.137 -0.711,-0.328 -0.19,-0.191 m 4.184,-0.192 -0.137,0.272 m 0,10e-4 -0.574,0.439 -0.793,0.301 -0.903,0.082 -0.876,-0.11 -0.684,-0.327 -0.438,-0.465 v -0.056 m 4.514,-0.328 0.029,0.163 -0.247,0.575 m -0.521,0.41 0.521,-0.41 m -0.521,0.41 -0.684,0.275 -0.792,0.135 -0.795,-0.026 -0.711,-0.218 -0.546,-0.329 -0.274,-0.438 -0.027,-0.274 m 4.596,0 0.027,0.166 -0.274,0.547 m 0,0 -0.574,0.466 -0.794,0.3 -0.902,0.082 -0.876,-0.109 -0.711,-0.328 -0.411,-0.465 -0.107,-0.547 0.053,-0.056 m 4.514,-0.026 0.082,0.41 -0.274,0.547 m 0,0 -0.574,0.465 -0.794,0.301 -0.902,0.081 -0.876,-0.136 -0.683,-0.301 -0.439,-0.465 -0.081,-0.548 0.109,-0.218 m 4.459,0.109 0.056,0.438 -0.247,0.547 m 0,0 -0.573,0.464 -0.823,0.302 -0.902,0.081 -0.849,-0.137 -0.71,-0.3 -0.439,-0.464 -0.081,-0.548 0.274,-0.52 m 4.103,1.395 0.247,-0.547 -0.027,-0.165 m -0.22,0.712 -0.573,0.464 -0.795,0.274 -0.902,0.109 -0.876,-0.138 -0.71,-0.327 -0.411,-0.465 -0.109,-0.52 0.274,-0.52 m 4.348,0.659 0.028,0.191 -0.275,0.548 m 0.055,-1.26 0.136,0.138 v 0.027 m -0.19,1.095 -0.573,0.464 -0.795,0.274 -0.902,0.108 -0.876,-0.137 -0.684,-0.329 -0.438,-0.465 -0.083,-0.518 0.054,-0.109 m 4.516,0 0.055,0.437 -0.275,0.548 m 0.001,0 -0.573,0.437 -0.795,0.302 -0.902,0.082 -0.849,-0.109 -0.711,-0.328 -0.438,-0.467 -0.083,-0.519 0.109,-0.219 m 4.461,0.108 0.055,0.41 -0.248,0.576 m 10e-4,-1.34 0.137,0.192 m -0.137,1.149 -0.519,0.409 -0.712,0.302 -0.793,0.11 -0.822,-0.057 -0.711,-0.218 -0.519,-0.355 -0.274,-0.465 v -0.192 m 4.542,-0.245 0.081,0.409 -0.273,0.548 m 0,0 -0.575,0.465 -0.793,0.301 -0.902,0.082 -0.876,-0.108 -0.684,-0.329 -0.438,-0.465 -0.055,-0.384 m 4.542,-0.247 0.054,0.411 -0.273,0.548 m 0,0 -0.575,0.465 -0.793,0.301 -0.902,0.081 -0.876,-0.136 -0.684,-0.302 -0.438,-0.465 -0.082,-0.548 0.055,-0.083 m 4.514,0 0.054,0.412 -0.246,0.547 m 0,-1.315 0.165,0.192 v 0.027 m -0.165,1.096 -0.574,0.466 -0.794,0.3 -0.901,0.082 -0.877,-0.136 -0.71,-0.302 -0.41,-0.465 -0.11,-0.547 0.11,-0.191 m 4.458,0.081 0.082,0.439 -0.274,0.545 m -1.778,0.821 0.548,-0.108 0.493,-0.165 0.41,-0.245 0.327,-0.302 m -1.778,0.82 -0.627,0.03 -0.603,-0.11 -0.548,-0.165 -0.41,-0.273 -0.272,-0.327 -0.138,-0.357 0.055,-0.383 0.055,-0.054 m 4.487,0.136 0.054,0.41 -0.274,0.548 m -0.001,0 -0.574,0.465 -0.794,0.273 -0.901,0.109 -0.877,-0.138 -0.683,-0.327 -0.438,-0.465 -0.083,-0.521 0.055,-0.082 m 4.516,-0.027 0.054,0.438 -0.246,0.547 m -10e-4,-1.339 0.164,0.217 v 0.029 m -0.164,1.092 -0.574,0.467 -0.822,0.271 -0.901,0.111 -0.85,-0.137 -0.71,-0.329 -0.41,-0.466 -0.111,-0.519 0.111,-0.19 m 4.46,0.081 0.082,0.412 -0.274,0.572 m -10e-4,0.001 -0.574,0.439 -0.795,0.301 -0.903,0.083 -0.875,-0.111 -0.71,-0.326 -0.41,-0.466 -0.083,-0.52 0.083,-0.221 m 4.541,0.356 v 0.056 l -0.056,0.356 -0.218,0.328 m 0.055,-1.313 0.083,0.137 m -0.138,1.176 -0.574,0.437 -0.795,0.302 -0.903,0.082 -0.875,-0.11 -0.683,-0.327 -0.438,-0.465 -0.083,-0.521 0.11,-0.218 m 4.487,0.354 0.028,0.165 -0.246,0.547 m 0,0 -0.548,0.438 -0.765,0.301 -0.848,0.107 -0.848,-0.08 -0.71,-0.273 -0.466,-0.41 -0.191,-0.493 0.137,-0.52 m -0.084,0.794 -0.028,-0.275 m 0.028,0.275 0.246,0.382 0.437,0.328 0.603,0.218 0.656,0.084 0.711,-0.03 0.683,-0.161 0.547,-0.273 0.439,-0.385 m -4.35,-0.711 0.056,0.382 0.438,0.466 0.683,0.328 0.875,0.109 0.903,-0.083 0.795,-0.3 0.574,-0.465 m 0.245,-0.711 0.028,0.163 -0.274,0.549 m 0,-0.245 -0.574,0.435 -0.795,0.303 -0.903,0.081 -0.875,-0.108 -0.71,-0.328 -0.41,-0.465 -0.056,-0.384 m 4.323,0.466 0.192,-0.329 0.082,-0.328 v -0.082 m -4.623,0 0.083,0.382 0.41,0.466 0.71,0.326 0.875,0.111 0.903,-0.083 0.795,-0.3 0.574,-0.438 m -10e-4,-10e-4 0.246,-0.575 -0.028,-0.164 m -4.567,0.028 0.055,0.356 0.438,0.465 0.683,0.328 0.877,0.137 0.901,-0.11 0.794,-0.272 0.574,-0.466 m -0.001,0 0.274,-0.546 -0.028,-0.193 m -4.567,0.028 0.055,0.355 0.438,0.465 0.683,0.329 0.877,0.137 0.901,-0.109 0.794,-0.274 0.574,-0.465 m 0.245,-0.711 0.028,0.164 -0.274,0.547 m -1.778,0.546 -0.627,0.028 -0.603,-0.11 -0.548,-0.163 -0.41,-0.273 -0.3,-0.329 -0.11,-0.355 v -0.055 m 4.376,0.438 -0.327,0.301 -0.41,0.245 -0.493,0.163 -0.548,0.11 m 1.778,-0.819 0.246,-0.547 -0.025,-0.165 m -4.571,0 0.055,0.382 0.438,0.467 0.71,0.301 0.849,0.137 0.902,-0.082 0.793,-0.302 0.575,-0.465 m 10e-4,0 0.273,-0.547 -0.025,-0.166 m -4.571,0 0.055,0.384 0.438,0.465 0.684,0.329 0.876,0.11 0.902,-0.082 0.793,-0.302 0.575,-0.464 m 0,0 0.273,-0.548 -0.025,-0.165 m -0.248,0.439 -0.575,0.465 -0.793,0.3 -0.902,0.084 -0.876,-0.11 -0.711,-0.329 -0.411,-0.463 -0.082,-0.385 m 4.569,-0.273 0.028,0.164 -0.248,0.547 m -4.349,-0.685 v 0.163 l 0.247,0.468 0.546,0.354 0.711,0.221 0.795,0.054 0.82,-0.109 0.712,-0.302 0.519,-0.411 m 0,0 0.248,-0.573 -0.028,-0.165 m -4.57,0.028 0.055,0.355 0.438,0.466 0.684,0.328 0.876,0.135 0.902,-0.108 0.795,-0.301 0.573,-0.438 m 0,0 0.275,-0.547 -0.028,-0.189 m -4.597,0.026 0.083,0.355 0.411,0.466 0.71,0.327 0.876,0.139 0.902,-0.109 0.795,-0.275 0.573,-0.465 m 0.246,-0.739 v 0.192 l -0.247,0.547 m 0.001,-0.275 -0.573,0.466 -0.823,0.301 -0.902,0.082 -0.849,-0.138 -0.71,-0.327 -0.439,-0.464 -0.054,-0.356 m 4.569,-0.274 0.027,0.165 -0.247,0.545 m -4.349,-0.71 0.054,0.383 0.439,0.465 0.683,0.3 0.876,0.139 0.902,-0.084 0.794,-0.3 0.574,-0.465 m 0,0 0.274,-0.548 -0.027,-0.163 m -4.596,0 0.081,0.383 0.411,0.466 0.711,0.3 0.876,0.139 0.902,-0.085 0.794,-0.299 0.574,-0.465 m 0,0 0.274,-0.55 -0.027,-0.162 m -4.596,0 0.054,0.383 0.438,0.464 0.711,0.33 0.849,0.108 0.903,-0.08 0.821,-0.303 0.574,-0.466 m 0.218,-0.71 0.029,0.163 -0.247,0.547 m -0.521,0.165 -0.71,0.272 -0.765,0.139 -0.795,-0.028 -0.711,-0.219 -0.546,-0.329 -0.274,-0.41 m 4.294,0.166 -0.493,0.409 m 0.493,-0.409 0.109,-0.222 m -4.239,0.03 0.272,0.299 0.711,0.33 0.876,0.109 0.903,-0.082 0.793,-0.302 0.574,-0.437 m -1.34,-4.404 0.055,1.066 m -1.724,-0.71 0.028,1.065 m -1.313,-1.257 -0.821,-0.274 m 2.737,0.85 -0.631,-0.192 m 4.46,1.366 -2.105,-0.655 m -0.658,-1.177 -0.41,-0.109 m 0,0 -0.656,0.767 m 4.923,1.092 v 0.22 l -0.273,0.82 -0.629,0.71 -0.929,0.603 -1.149,0.411 -1.286,0.22 -1.341,-0.03 -1.231,-0.244 -1.067,-0.467 -0.82,-0.629 -0.464,-0.738 -0.11,-0.572 m 6.81,-3.313 1.068,0.438 0.821,0.629 0.466,0.768 0.107,0.792 -0.274,0.793 -0.629,0.739 -0.928,0.601 -1.15,0.409 -1.286,0.193 -1.314,-0.027 -1.258,-0.246 -1.067,-0.439 -0.794,-0.628 -0.492,-0.766 -0.109,-0.794 0.273,-0.794 0.629,-0.737 0.929,-0.603 1.15,-0.409 1.285,-0.191 1.34,0.027 1.233,0.245 m -5.553,1.422 -0.056,0.083 -0.382,0.709 -0.027,0.742 0.355,0.684 0.685,0.602 0.957,0.436 m 0,0 1.149,0.22 1.23,-0.026 1.15,-0.222 0.984,-0.463 0.738,-0.602 0.411,-0.714 0.028,-0.737 -0.355,-0.683 -0.219,-0.245 m -6.84,0.545 0.274,-0.19 0.355,-0.137 0.383,-0.081 h 0.437 l 0.603,0.055 0.628,0.137 m -2.106,-0.467 -0.081,0.083 -0.11,0.081 -0.082,0.083 -0.055,0.082 -0.083,0.082 -0.055,0.109 -0.083,0.08 -0.027,0.082 m 3.258,-0.902 -0.876,-0.162 -0.602,-0.028 -0.574,0.082 -0.63,0.328 m 3.366,-0.793 -0.165,0.108 -0.165,0.137 -0.164,0.166 -0.191,0.162 m 1.78,-0.245 -0.548,-0.192 -0.546,-0.136 m 0.408,0.903 0.356,-0.33 0.329,-0.245 m 2.106,2.489 -0.328,-0.383 -0.357,-0.383 -0.849,-0.576 -0.602,-0.327 -0.656,-0.245 m 2.19,2.6 0.11,-0.083 0.083,-0.082 0.082,-0.083 0.081,-0.083 0.055,-0.082 0.055,-0.108 0.082,-0.082 0.055,-0.082 m -3.366,-1.23 0.465,0.19 0.438,0.191 0.601,0.354 0.602,0.438 0.355,0.327 0.3,0.413 m -3.416,-0.957 0.656,-0.956 m -1.751,0.599 1.095,0.356 m -0.44,-1.284 -0.655,0.929 m 73.068,28.534 v 0.163 l 0.027,0.138 m -0.082,-9.603 0.028,0.876 m -0.711,-0.303 0.054,1.068 m 1.697,4.35 0.083,0.137 0.107,0.108 m 0.493,-0.958 -0.574,0.467 -0.794,0.301 -0.902,0.082 -0.875,-0.137 -0.711,-0.301 -0.192,-0.22 m 4.185,-0.192 -0.138,0.275 m 10e-4,0 -0.574,0.465 -0.794,0.301 -0.902,0.082 -0.875,-0.138 -0.685,-0.327 -0.438,-0.466 v -0.054 m 4.515,-0.328 0.026,0.189 -0.247,0.548 m -0.519,0.41 0.52,-0.41 m -0.52,0.41 -0.683,0.303 -0.792,0.108 -0.794,-0.029 -0.712,-0.189 -0.547,-0.355 -0.272,-0.438 -0.028,-0.245 m 4.595,-0.03 0.028,0.192 -0.274,0.546 m -0.001,0 -0.575,0.439 -0.793,0.299 -0.902,0.11 -0.875,-0.137 -0.711,-0.326 -0.41,-0.467 -0.11,-0.52 0.056,-0.082 m 4.512,-0.025 0.083,0.41 -0.274,0.573 m -0.001,0 -0.575,0.438 -0.793,0.301 -0.902,0.083 -0.875,-0.111 -0.684,-0.327 -0.438,-0.465 -0.082,-0.519 0.109,-0.247 m 4.46,0.109 0.054,0.438 -0.247,0.574 m 0.001,0 -0.574,0.437 -0.822,0.302 -0.902,0.083 -0.848,-0.111 -0.712,-0.327 -0.438,-0.466 -0.082,-0.546 0.273,-0.52 m 4.105,1.394 0.247,-0.521 -0.028,-0.19 m -0.219,0.711 -0.574,0.464 -0.794,0.302 -0.903,0.082 -0.875,-0.108 -0.712,-0.327 -0.41,-0.468 -0.109,-0.546 0.273,-0.519 m 4.35,0.683 0.025,0.162 -0.272,0.549 m 0.055,-1.259 0.138,0.138 v 0.027 m -0.192,1.094 -0.574,0.466 -0.794,0.3 -0.903,0.083 -0.875,-0.136 -0.684,-0.303 -0.438,-0.465 -0.082,-0.548 0.054,-0.108 m 4.515,0.029 0.053,0.408 -0.245,0.547 m 0,0 -0.602,0.465 -0.794,0.301 -0.903,0.083 -0.848,-0.137 -0.71,-0.302 -0.438,-0.465 -0.082,-0.548 0.108,-0.19 m 4.461,0.081 0.053,0.438 -0.245,0.549 m 0.055,-1.259 0.082,0.108 m -0.137,1.152 -0.521,0.409 -0.71,0.3 -0.793,0.138 -0.82,-0.055 -0.712,-0.219 -0.52,-0.384 -0.274,-0.465 v -0.164 m 4.542,-0.246 0.081,0.41 -0.272,0.548 m -0.001,0 -0.575,0.465 -0.793,0.273 -0.903,0.109 -0.876,-0.136 -0.683,-0.329 -0.438,-0.466 -0.055,-0.354 m 4.542,-0.274 0.053,0.409 -0.272,0.577 m 0,0 -0.575,0.438 -0.793,0.3 -0.903,0.083 -0.848,-0.11 -0.71,-0.327 -0.438,-0.465 -0.082,-0.521 0.055,-0.108 m 4.459,-0.167 0.026,0.027 0.081,0.547 -0.246,0.575 m 10e-4,0 -0.575,0.438 -0.793,0.301 -0.903,0.083 -0.875,-0.111 -0.71,-0.326 -0.411,-0.466 -0.11,-0.521 0.11,-0.217 m 4.459,0.081 0.081,0.438 -0.273,0.547 m 0.055,-1.231 0.083,0.082 m -1.916,1.969 0.547,-0.082 0.494,-0.192 0.409,-0.245 0.329,-0.301 m -1.779,0.82 -0.628,0.026 -0.603,-0.082 -0.546,-0.19 -0.41,-0.273 -0.274,-0.328 -0.137,-0.356 0.055,-0.383 0.055,-0.056 m 4.484,0.138 0.055,0.41 -0.273,0.548 m 0,0 -0.575,0.465 -0.793,0.3 -0.903,0.083 -0.875,-0.137 -0.684,-0.302 -0.438,-0.465 -0.083,-0.547 0.055,-0.082 m 4.514,0 0.055,0.411 -0.245,0.546 m 0,-1.313 0.164,0.19 v 0.029 m -0.164,1.094 -0.576,0.464 -0.82,0.302 -0.903,0.082 -0.848,-0.136 -0.711,-0.302 -0.411,-0.465 -0.109,-0.547 0.109,-0.191 m 4.459,0.081 0.083,0.439 -0.273,0.547 m 0,0 -0.576,0.465 -0.792,0.301 -0.902,0.083 -0.876,-0.139 -0.711,-0.327 -0.411,-0.438 -0.082,-0.547 0.082,-0.218 m 4.541,0.354 v 0.084 l -0.056,0.327 -0.217,0.328 m 0.055,-1.313 0.082,0.164 m -0.137,1.149 -0.576,0.466 -0.792,0.273 -0.902,0.109 -0.876,-0.137 -0.684,-0.328 -0.438,-0.467 -0.082,-0.519 0.111,-0.218 m 4.484,0.356 0.028,0.192 -0.246,0.547 m 0,0 -0.547,0.438 -0.767,0.301 -0.847,0.109 -0.848,-0.109 -0.711,-0.273 -0.466,-0.412 -0.191,-0.491 0.137,-0.52 m -0.082,0.82 -0.028,-0.301 m 0.028,0.301 0.245,0.383 0.438,0.303 0.602,0.217 0.656,0.083 0.712,-0.028 0.684,-0.162 0.547,-0.273 0.438,-0.357 m -4.35,-0.713 0.055,0.355 0.438,0.466 0.684,0.328 0.876,0.137 0.902,-0.11 0.792,-0.272 0.576,-0.465 m 0.245,-0.741 0.028,0.193 -0.273,0.547 m 0,-0.274 -0.576,0.465 -0.792,0.274 -0.902,0.109 -0.876,-0.137 -0.711,-0.329 -0.411,-0.465 -0.055,-0.355 m 4.323,0.438 0.189,-0.327 0.083,-0.329 v -0.083 m -4.622,0.029 0.082,0.383 0.411,0.465 0.711,0.301 0.876,0.135 0.902,-0.081 0.792,-0.301 0.576,-0.464 m 0,0 0.245,-0.547 -0.027,-0.164 m -4.568,0 0.055,0.383 0.438,0.465 0.684,0.299 0.875,0.137 0.903,-0.081 0.793,-0.301 0.575,-0.464 m -0.001,0 0.273,-0.548 -0.027,-0.164 m -4.568,0 0.055,0.384 0.438,0.465 0.684,0.301 0.875,0.137 0.903,-0.082 0.793,-0.302 0.575,-0.464 m 0.245,-0.712 0.027,0.165 -0.273,0.547 m -1.778,0.546 -0.628,0.025 -0.603,-0.08 -0.546,-0.191 -0.41,-0.274 -0.301,-0.328 -0.11,-0.355 v -0.055 m 4.376,0.437 -0.329,0.301 -0.409,0.247 -0.494,0.19 -0.547,0.083 m 1.779,-0.821 0.246,-0.547 -0.028,-0.164 m -4.568,0 0.055,0.382 0.438,0.467 0.71,0.327 0.848,0.11 0.903,-0.082 0.793,-0.302 0.575,-0.438 m 10e-4,0 0.272,-0.573 -0.028,-0.165 m -4.567,0.026 0.055,0.355 0.438,0.466 0.683,0.328 0.876,0.137 0.903,-0.108 0.793,-0.302 0.575,-0.438 m 0,0 0.272,-0.547 -0.028,-0.192 m -0.244,0.465 -0.575,0.465 -0.793,0.273 -0.903,0.11 -0.876,-0.137 -0.71,-0.328 -0.411,-0.466 -0.082,-0.354 m 4.569,-0.3 0.025,0.191 -0.245,0.546 m -4.349,-0.711 v 0.192 l 0.246,0.437 0.547,0.383 0.712,0.221 0.794,0.055 0.819,-0.137 0.71,-0.301 0.521,-0.411 m 10e-4,0 0.245,-0.548 -0.025,-0.164 m -4.57,0 0.055,0.384 0.438,0.465 0.684,0.3 0.875,0.137 0.903,-0.082 0.794,-0.301 0.574,-0.464 m 0,0 0.272,-0.548 -0.025,-0.162 m -4.596,0 0.082,0.381 0.41,0.466 0.712,0.301 0.875,0.138 0.903,-0.085 0.794,-0.3 0.574,-0.465 m 0.245,-0.711 0.025,0.163 -0.272,0.548 m 0.001,-0.274 -0.574,0.465 -0.822,0.301 -0.902,0.081 -0.848,-0.108 -0.712,-0.329 -0.438,-0.465 -0.054,-0.382 m 4.569,-0.274 0.028,0.191 -0.247,0.52 m -4.349,-0.711 0.054,0.383 0.438,0.464 0.684,0.329 0.875,0.11 0.902,-0.082 0.793,-0.303 0.575,-0.437 m 0,0 0.274,-0.575 -0.028,-0.163 m -4.595,0 0.082,0.383 0.41,0.465 0.711,0.327 0.875,0.11 0.902,-0.082 0.793,-0.302 0.575,-0.437 m 10e-4,0 0.274,-0.574 -0.028,-0.164 m -4.595,0.027 0.054,0.356 0.438,0.463 0.711,0.328 0.848,0.136 0.902,-0.108 0.82,-0.272 0.575,-0.466 m 0.221,-0.738 0.026,0.189 -0.247,0.548 m -0.519,0.138 -0.683,0.301 -0.792,0.137 -0.794,-0.056 -0.712,-0.19 -0.547,-0.356 -0.272,-0.409 m 4.293,0.162 -0.493,0.411 m 0.493,-0.411 0.109,-0.19 m -4.24,0 0.274,0.301 0.711,0.328 0.875,0.135 0.902,-0.08 0.794,-0.3 0.574,-0.468 m -1.34,-4.377 0.055,1.068 m -1.724,-0.738 0.027,1.065 m -1.311,-1.258 -0.822,-0.246 m 2.736,0.821 -0.63,-0.191 m 4.459,1.366 -2.105,-0.627 m -0.658,-1.176 -0.409,-0.137 m 0,0 -0.657,0.766 m 4.925,1.093 v 0.246 l -0.273,0.793 -0.63,0.74 -0.931,0.574 -1.149,0.438 -1.284,0.19 -1.342,-0.026 -1.229,-0.247 -1.067,-0.466 -0.821,-0.631 -0.466,-0.736 -0.108,-0.574 m 6.81,-3.31 1.066,0.464 0.82,0.63 0.467,0.739 0.108,0.791 -0.273,0.822 -0.628,0.711 -0.931,0.602 -1.15,0.41 -1.285,0.221 -1.314,-0.027 -1.257,-0.245 -1.067,-0.467 -0.793,-0.631 -0.492,-0.738 -0.11,-0.818 0.273,-0.796 0.63,-0.711 0.93,-0.602 1.148,-0.41 1.286,-0.217 1.341,0.025 1.231,0.247 m -5.554,1.451 -0.055,0.055 -0.383,0.711 -0.027,0.737 0.356,0.712 0.684,0.603 0.958,0.409 m 0,0 1.148,0.221 h 1.231 l 1.148,-0.247 0.985,-0.437 0.738,-0.604 0.411,-0.713 0.027,-0.736 -0.355,-0.711 -0.219,-0.248 m -6.839,0.576 0.275,-0.219 0.355,-0.136 0.383,-0.083 h 0.438 l 0.602,0.055 0.629,0.138 m -2.108,-0.439 -0.082,0.081 -0.108,0.083 -0.083,0.082 -0.054,0.083 -0.083,0.082 -0.055,0.082 -0.082,0.08 -0.028,0.11 m 3.258,-0.93 -0.876,-0.162 -0.603,-0.027 -0.572,0.081 -0.631,0.355 m 3.365,-0.82 -0.165,0.108 -0.164,0.139 -0.165,0.164 -0.19,0.162 m 1.778,-0.245 -0.548,-0.192 -0.546,-0.136 m 0.41,0.929 0.356,-0.327 0.329,-0.273 m 2.105,2.487 -0.328,-0.382 -0.354,-0.355 -0.849,-0.602 -0.601,-0.301 -0.658,-0.248 m 2.189,2.573 0.11,-0.082 0.082,-0.082 0.081,-0.082 0.084,-0.082 0.055,-0.083 0.053,-0.082 0.083,-0.108 0.053,-0.083 m -3.364,-1.23 0.465,0.191 0.438,0.19 0.629,0.355 0.574,0.438 0.355,0.355 0.301,0.383 m -3.419,-0.955 0.656,-0.957 m -1.749,0.629 1.093,0.328 m -0.438,-1.285 -0.655,0.957 m -15.456,-26.288 -0.93,-0.165 -0.958,0.08 -0.848,0.303 -0.438,0.274 m 34.632,9.136 -31.458,-9.628 m -0.056,-1.833 0.056,1.833 m 32.225,10.009 -0.026,-0.027 -0.741,-0.354 m -0.055,-1.832 0.055,1.831 m -41.691,2.27 -0.93,-0.135 -0.957,0.081 -0.848,0.274 -0.438,0.3 m 53.072,-0.273 -0.93,-0.165 -0.958,0.083 -0.848,0.301 -0.437,0.275 m 34.632,9.136 -31.459,-9.63 m -0.056,-1.831 0.056,1.831 m -60.13,11.681 -0.9,-0.162 -0.987,0.08 -0.848,0.301 -0.41,0.275 m 95.5,-2.162 -0.027,-0.027 -0.739,-0.355 m -0.082,-1.834 0.083,1.833 m -10.232,11.927 -71.126,-21.804 m -0.055,-1.832 0.054,1.832 m -20.434,23.828 -0.93,-0.137 -0.958,0.055 -0.875,0.301 -0.412,0.302 m 95.503,-2.162 -0.029,-0.026 -0.738,-0.356 m -0.056,-1.86 0.055,1.858 m -10.232,11.9 -71.125,-21.775 m -0.055,-1.86 0.055,1.859 m -20.434,23.829 -0.93,-0.166 -0.957,0.084 -0.875,0.301 -0.412,0.272 m 95.5,-2.159 -0.026,-0.026 -0.74,-0.358 m -0.055,-1.833 0.054,1.832 m -10.23,11.929 -71.098,-21.804 m -0.083,-1.833 0.083,1.833 m -20.463,23.826 -0.931,-0.161 -0.956,0.081 -0.848,0.299 -0.439,0.274 m -6.428,3.667 -1.915,-3.829 m 0,0 -0.056,-1.833 m 103.901,-0.165 h -0.029 l -0.739,-0.354 m -0.054,-1.86 0.055,1.86 m -60.101,11.653 -31.46,-9.631 m -0.054,-1.832 0.054,1.832 m 81.33,9.877 -71.098,-21.775 m -0.056,-1.859 0.055,1.859 m 21.995,21.911 -0.028,-0.027 -0.737,-0.354 m -0.083,-1.833 0.082,1.832 m 50.636,0.629 v -0.028 l -0.767,-0.354 m -0.054,-1.835 0.055,1.834 m -41.663,2.27 -0.93,-0.137 -0.958,0.055 -0.875,0.301 -0.41,0.303 m 34.605,9.135 -31.432,-9.657 m -0.083,-1.832 0.083,1.832 m 32.225,10.014 h -0.026 l -0.767,-0.356 m -0.055,-1.859 0.055,1.858 m 6.265,5.773 54.057,-62.976 m 0,0 -0.056,-1.832 m -140.967,41.39 80.673,24.703 m -80.727,-26.563 0.054,1.859 m 7.195,-3.283 31.458,9.657 m -29.105,-12.365 -0.931,-0.164 -0.956,0.082 -0.876,0.302 -0.602,0.464 -0.274,0.576 0.081,0.572 0.467,0.521 0.738,0.354 m 33.785,6.924 -31.432,-9.631 m 29.106,12.366 0.931,0.137 0.957,-0.082 0.849,-0.3 0.629,-0.467 0.273,-0.575 -0.083,-0.574 -0.464,-0.52 -0.766,-0.354 m 57.011,-54.33 31.459,9.656 m -29.108,-12.363 -0.93,-0.166 -0.957,0.083 -0.877,0.3 -0.601,0.465 -0.273,0.575 0.082,0.574 0.465,0.521 0.739,0.355 m 33.785,6.921 -31.433,-9.628 m 29.108,12.363 0.929,0.136 0.959,-0.08 0.847,-0.302 0.629,-0.465 0.275,-0.574 -0.109,-0.575 -0.439,-0.519 -0.766,-0.356 m -93.886,4.761 71.097,21.775 m -68.773,-24.512 -0.929,-0.136 -0.958,0.082 -0.848,0.273 -0.601,0.491 -0.302,0.574 0.11,0.574 0.438,0.521 0.766,0.356 m 37.723,8.127 -35.399,-10.861 m 71.126,21.802 -31.404,-9.629 m 29.051,12.338 0.931,0.163 0.957,-0.081 0.875,-0.301 0.602,-0.465 0.274,-0.574 -0.082,-0.576 -0.465,-0.521 -0.739,-0.354 m -52.987,-42.892 31.431,9.63 m -29.107,-12.339 -0.93,-0.166 -0.958,0.083 -0.849,0.301 -0.628,0.464 -0.272,0.576 0.107,0.575 0.438,0.519 0.768,0.357 m 33.783,6.92 -31.459,-9.63 m 29.107,12.339 0.93,0.161 0.959,-0.082 0.873,-0.301 0.602,-0.464 0.275,-0.573 -0.082,-0.576 -0.467,-0.52 -0.739,-0.354 m -40.048,-12.694 -54.057,62.946 m 0,0 1.917,3.803 m 0,0 80.673,24.729 m 6.292,-1.285 54.055,-62.975 m 0,0 -1.916,-3.804 m 10e-4,0 -80.672,-24.728 m 0,0 -6.292,1.313 m -3.967,17.697 71.099,21.773 m -68.774,-24.508 -0.93,-0.164 -0.959,0.081 -0.848,0.302 -0.628,0.466 -0.273,0.575 0.109,0.601 0.438,0.492 0.766,0.383 m 73.45,19.041 -71.125,-21.777 m 68.774,24.509 0.93,0.166 0.957,-0.081 0.847,-0.301 0.629,-0.466 0.276,-0.575 -0.083,-0.6 -0.466,-0.493 -0.738,-0.382 m -93.913,4.76 71.097,21.801 m -68.773,-24.511 -0.901,-0.163 -0.986,0.081 -0.847,0.302 -0.602,0.462 -0.302,0.578 0.11,0.573 0.465,0.521 0.739,0.356 m 73.45,19.067 -71.126,-21.776 m 68.773,24.51 0.931,0.137 0.957,-0.056 0.877,-0.299 0.601,-0.466 0.273,-0.574 -0.082,-0.602 -0.463,-0.493 -0.74,-0.382 m -83.683,-7.14 71.126,21.776 m -68.774,-24.51 -0.929,-0.139 -0.958,0.083 -0.875,0.274 -0.602,0.491 -0.273,0.548 0.081,0.602 0.466,0.52 0.738,0.355 m 73.451,19.066 -71.098,-21.801 m 68.773,24.511 0.904,0.164 0.982,-0.082 0.85,-0.302 0.601,-0.465 0.301,-0.574 -0.109,-0.574 -0.464,-0.521 -0.74,-0.356 m -44.016,4.98 31.461,9.656 m -29.136,-12.364 -0.902,-0.163 -0.986,0.08 -0.847,0.302 -0.601,0.467 -0.303,0.572 0.11,0.602 0.465,0.494 0.737,0.354 m 33.787,6.923 -31.459,-9.631 m 29.135,12.364 0.931,0.138 0.955,-0.056 0.85,-0.3 0.601,-0.465 0.3,-0.576 -0.108,-0.601 -0.438,-0.519 -0.767,-0.355 m -0.027,7.084 6.292,-1.284 m -6.238,3.118 -0.054,-1.834 m 6.347,0.548 -6.293,1.285 m 6.238,-3.118 0.055,1.833 m -180.251,86.636 -0.875,-0.139 -0.902,0.084 -0.793,0.275 -0.575,0.436 -0.274,0.548 0.082,0.547 0.439,0.466 0.711,0.354 0.848,0.138 0.902,-0.082 0.821,-0.273 0.575,-0.439 0.246,-0.519 -0.082,-0.575 -0.438,-0.467 -0.685,-0.354 m 0.794,-0.929 -1.176,-0.219 h -1.287 l -1.203,0.246 -1.012,0.466 -0.765,0.628 -0.411,0.739 -0.028,0.765 0.356,0.739 0.711,0.63 1.011,0.438 1.203,0.221 h 1.26 l 1.204,-0.249 1.04,-0.464 0.766,-0.63 0.41,-0.739 0.028,-0.766 -0.383,-0.74 -0.712,-0.6 -1.012,-0.465 m 108.604,34.466 -0.875,-0.133 -0.903,0.051 -0.792,0.277 -0.576,0.465 -0.273,0.518 0.081,0.547 0.439,0.492 0.711,0.33 0.849,0.137 0.902,-0.057 0.821,-0.273 0.575,-0.464 0.245,-0.521 -0.082,-0.547 -0.438,-0.492 -0.684,-0.33 m 0.793,-0.926 -1.176,-0.247 -1.258,0.025 -1.231,0.248 -1.012,0.465 -0.766,0.631 -0.41,0.736 -0.027,0.766 0.356,0.739 0.737,0.603 0.986,0.437 1.203,0.245 1.258,-0.025 1.206,-0.246 1.039,-0.465 0.766,-0.631 0.41,-0.738 0.027,-0.768 -0.383,-0.734 -0.711,-0.604 -1.014,-0.437 m 86.856,-101.191 -0.849,-0.139 -0.903,0.084 -0.819,0.271 -0.574,0.438 -0.248,0.547 0.083,0.547 0.437,0.464 0.683,0.356 0.875,0.137 0.903,-0.081 0.794,-0.275 0.573,-0.437 0.276,-0.546 -0.084,-0.548 -0.438,-0.466 -0.709,-0.352 m 0.82,-0.931 -1.202,-0.22 h -1.259 l -1.203,0.247 -1.041,0.466 -0.765,0.629 -0.411,0.737 -0.026,0.768 0.382,0.737 0.713,0.631 1.011,0.438 1.176,0.22 h 1.258 l 1.232,-0.248 1.011,-0.462 0.766,-0.633 0.411,-0.736 0.027,-0.768 -0.354,-0.739 -0.739,-0.602 -0.987,-0.465 m -110.216,-32.582 -0.876,-0.138 -0.903,0.082 -0.793,0.273 -0.575,0.439 -0.246,0.519 0.083,0.549 0.408,0.491 0.712,0.328 0.875,0.166 0.903,-0.083 0.793,-0.274 0.574,-0.438 0.274,-0.549 -0.11,-0.545 -0.411,-0.494 -0.708,-0.326 m 0.82,-0.929 -1.203,-0.22 h -1.259 l -1.204,0.247 -1.039,0.464 -0.766,0.631 -0.411,0.738 -0.026,0.766 0.383,0.739 0.71,0.601 1.012,0.465 1.176,0.218 h 1.259 l 1.204,-0.245 1.039,-0.465 0.766,-0.629 0.411,-0.738 0.028,-0.795 -0.355,-0.71 -0.738,-0.63 -0.987,-0.437 m 15.047,10.64 -0.876,-0.163 -0.902,0.082 -0.793,0.273 -0.577,0.438 -0.272,0.546 0.082,0.548 0.437,0.465 0.711,0.354 0.848,0.138 0.903,-0.082 0.82,-0.273 0.573,-0.437 0.247,-0.521 -0.082,-0.573 -0.438,-0.466 -0.681,-0.329 m 0.792,-0.958 -1.176,-0.218 h -1.259 l -1.231,0.246 -1.011,0.464 -0.768,0.631 -0.41,0.737 -0.027,0.767 0.355,0.738 0.739,0.631 0.985,0.436 1.204,0.221 h 1.258 l 1.204,-0.247 1.041,-0.465 0.766,-0.629 0.41,-0.738 0.028,-0.768 -0.384,-0.737 -0.71,-0.604 -1.014,-0.465 m 70.305,22.735 -0.848,-0.139 -0.902,0.056 -0.821,0.303 -0.575,0.437 -0.246,0.519 0.083,0.547 0.437,0.494 0.686,0.328 0.875,0.165 0.904,-0.084 0.792,-0.272 0.575,-0.438 0.274,-0.548 -0.083,-0.546 -0.438,-0.493 -0.713,-0.329 m 0.821,-0.932 -1.204,-0.244 -1.258,0.025 -1.204,0.249 -1.039,0.464 -0.766,0.629 -0.411,0.738 -0.027,0.766 0.382,0.74 0.712,0.601 1.013,0.465 1.176,0.22 1.259,-0.028 1.23,-0.244 1.013,-0.439 0.766,-0.656 0.411,-0.713 0.027,-0.792 -0.355,-0.712 -0.738,-0.63 -0.987,-0.439 m -110.82,-14.799 -0.055,-0.08 -0.711,-0.605 -0.958,-0.408 m 10e-4,0 -1.148,-0.219 h -1.204 l -1.176,0.247 -0.985,0.438 -0.738,0.6 -0.164,0.247 m 28.776,6.947 -0.028,-0.027 -0.737,-0.355 m 10e-4,0 -0.931,-0.137 -0.958,0.056 -0.849,0.301 -0.438,0.3 m 24.485,1.835 -1.614,-0.357 -1.724,-0.138 -1.723,0.109 -1.669,0.329 -1.506,0.574 -1.285,0.74 -0.985,0.903 -0.63,0.983 -0.164,0.438 m 59.146,11.082 -47.846,-14.663 m 0,0 -0.055,-1.86 m 2.544,18.327 -0.027,-0.026 -0.738,-0.356 m -10e-4,0 -0.931,-0.164 -0.957,0.082 -0.847,0.302 -0.437,0.273 m 53.234,1.176 -0.465,-0.876 -0.847,-0.901 -1.177,-0.739 -1.449,-0.573 m -10e-4,0 -0.056,-1.86 m 20.546,12.472 -0.029,-0.027 -0.738,-0.355 m 10e-4,0 -0.929,-0.164 -0.958,0.082 -0.848,0.303 -0.438,0.271 m -23.609,2.817 -0.027,-0.026 -0.74,-0.358 m 10e-4,0 -0.929,-0.162 -0.958,0.084 -0.876,0.3 -0.41,0.273 m -10.314,4.513 -0.026,-0.026 -0.739,-0.355 m 0,0 -0.93,-0.139 -0.958,0.055 -0.877,0.303 -0.409,0.302 m 66.503,-1.888 -0.055,-0.057 -0.71,-0.602 -0.958,-0.437 m 0,0 -1.148,-0.22 -1.205,0.025 -1.176,0.222 -0.984,0.463 -0.74,0.604 -0.164,0.246 m -138.53,21.75 -0.029,-0.03 -0.737,-0.355 m -0.001,0 -0.932,-0.162 -0.957,0.08 -0.848,0.303 -0.438,0.271 m -9.162,4.759 -0.028,-0.023 -0.739,-0.357 m -0.001,0 -0.929,-0.164 -0.958,0.08 -0.875,0.303 -0.41,0.271 m -27.029,0.875 -0.054,-0.08 -0.684,-0.574 -0.958,-0.438 m 0.001,0 -1.148,-0.218 h -1.204 l -1.177,0.245 -0.985,0.438 -0.738,0.627 -0.192,0.22 m 48.612,9.766 -1.615,-0.355 -1.724,-0.136 -1.724,0.11 -1.668,0.354 -1.504,0.548 -1.286,0.736 -0.985,0.904 -0.629,0.983 -0.165,0.439 m 59.147,11.08 -47.846,-14.663 m -0.001,0 -0.055,-1.832 m 60.294,22.486 -0.029,-0.027 -0.737,-0.355 m 0,0 -0.93,-0.163 -0.958,0.079 -0.875,0.303 -0.411,0.274 m -4.515,-3.01 -0.464,-0.847 -0.848,-0.902 -1.177,-0.77 -1.449,-0.573 m 10e-4,0 -0.055,-1.833 m 42.017,17.401 -0.053,-0.057 -0.685,-0.6 -0.957,-0.414 m 0,0 -1.149,-0.245 -1.231,0.028 -1.149,0.245 -0.984,0.438 -0.739,0.604 -0.192,0.244 m 16.469,-73.397 -0.931,-0.162 -0.986,0.081 -0.847,0.302 -0.603,0.464 -0.272,0.575 0.082,0.572 0.465,0.521 0.738,0.357 0.93,0.164 0.958,-0.082 0.848,-0.301 0.628,-0.465 0.275,-0.574 -0.082,-0.602 -0.466,-0.492 -0.737,-0.358 m -38.3,-11.733 -0.928,-0.165 -0.959,0.082 -0.848,0.3 -0.629,0.466 -0.273,0.575 0.081,0.574 0.466,0.521 0.739,0.354 0.93,0.165 0.956,-0.082 0.875,-0.302 0.603,-0.466 0.273,-0.573 -0.083,-0.575 -0.464,-0.519 -0.739,-0.355 m -59.06,36.601 -0.931,-0.164 -0.957,0.083 -0.848,0.301 -0.629,0.465 -0.273,0.574 0.082,0.573 0.466,0.521 0.738,0.355 0.93,0.164 0.958,-0.084 0.875,-0.299 0.601,-0.465 0.273,-0.574 -0.082,-0.578 -0.466,-0.518 -0.737,-0.354 m 125.29,-44.344 -0.93,-0.163 -0.958,0.083 -0.848,0.299 -0.63,0.467 -0.273,0.572 0.083,0.602 0.465,0.495 0.738,0.354 0.931,0.166 0.983,-0.082 0.848,-0.303 0.603,-0.463 0.273,-0.576 -0.082,-0.576 -0.465,-0.518 -0.738,-0.357 m -71.098,-21.801 -0.93,-0.137 -0.985,0.081 -0.848,0.273 -0.602,0.492 -0.273,0.573 0.083,0.574 0.465,0.521 0.739,0.354 0.93,0.168 0.958,-0.085 0.849,-0.301 0.629,-0.463 0.273,-0.576 -0.081,-0.602 -0.466,-0.493 -0.741,-0.379 m 3.529,128.653 0.931,0.165 0.957,-0.082 0.849,-0.302 0.628,-0.465 0.274,-0.574 -0.082,-0.574 -0.466,-0.52 -0.738,-0.357 -0.93,-0.162 -0.986,0.082 -0.847,0.301 -0.601,0.465 -0.275,0.574 0.082,0.574 0.466,0.52 0.738,0.355 m 87.677,-102.091 0.901,0.137 0.986,-0.053 0.848,-0.304 0.603,-0.465 0.272,-0.575 -0.083,-0.601 -0.465,-0.491 -0.737,-0.383 -0.932,-0.137 -0.957,0.08 -0.849,0.273 -0.629,0.492 -0.273,0.575 0.082,0.574 0.464,0.518 0.769,0.36 m -107.074,-36.249 -0.929,-0.162 -0.958,0.081 -0.848,0.301 -0.63,0.466 -0.272,0.573 0.083,0.603 0.464,0.493 0.739,0.384 0.931,0.136 0.958,-0.081 0.875,-0.302 0.602,-0.467 0.273,-0.575 -0.081,-0.572 -0.465,-0.521 -0.742,-0.357 m -87.676,102.096 -0.903,-0.139 -0.985,0.08 -0.847,0.273 -0.603,0.494 -0.301,0.575 0.109,0.575 0.465,0.519 0.739,0.355 0.93,0.138 0.958,-0.056 0.848,-0.301 0.628,-0.465 0.274,-0.574 -0.11,-0.601 -0.438,-0.494 -0.764,-0.379 m 154.534,-64.314 -47.845,-14.663 m 40.543,23.198 1.614,0.354 1.724,0.108 1.723,-0.108 1.669,-0.329 1.503,-0.574 1.287,-0.74 0.984,-0.873 0.629,-1.012 0.273,-1.04 -0.137,-1.067 -0.492,-1.014 -0.849,-0.901 -1.176,-0.767 -1.451,-0.572 m -55.148,-6.159 47.847,14.694 m -40.543,-23.198 -1.613,-0.357 -1.724,-0.108 -1.724,0.108 -1.668,0.328 -1.504,0.548 -1.287,0.766 -0.984,0.875 -0.629,1.011 -0.273,1.042 0.109,1.065 0.521,1.013 0.848,0.903 1.177,0.739 1.449,0.571 m -59.173,68.938 47.847,14.664 m -40.543,-23.17 -1.614,-0.355 -1.723,-0.137 -1.725,0.108 -1.668,0.329 -1.504,0.575 -1.285,0.737 -0.985,0.902 -0.629,0.985 -0.273,1.065 0.11,1.04 0.52,1.015 0.848,0.902 1.175,0.766 1.451,0.572 m 55.148,6.158 -47.846,-14.662 m 40.543,23.17 1.613,0.356 1.723,0.137 1.723,-0.108 1.669,-0.357 1.504,-0.547 1.286,-0.74 0.984,-0.9 0.63,-1.013 0.273,-1.039 -0.137,-1.067 -0.493,-0.984 -0.875,-0.932 -1.149,-0.737 -1.45,-0.575 m -9.983,-85.928 -0.93,-0.164 -0.958,0.083 -0.874,0.3 -0.602,0.467 -0.274,0.573 0.083,0.603 0.464,0.491 0.74,0.356 0.929,0.163 0.958,-0.08 0.848,-0.302 0.63,-0.466 0.272,-0.573 -0.082,-0.575 -0.464,-0.52 -0.74,-0.356 m 88.88,27.249 -0.929,-0.165 -0.958,0.083 -0.849,0.301 -0.629,0.467 -0.273,0.572 0.083,0.574 0.464,0.52 0.739,0.355 0.93,0.165 0.985,-0.083 0.848,-0.299 0.602,-0.466 0.272,-0.575 -0.081,-0.602 -0.464,-0.493 -0.74,-0.354 m -41.828,7.548 -0.903,-0.162 -0.984,0.08 -0.847,0.301 -0.602,0.467 -0.301,0.574 0.108,0.603 0.465,0.492 0.74,0.354 0.929,0.164 0.958,-0.082 0.849,-0.302 0.629,-0.464 0.273,-0.573 -0.109,-0.577 -0.438,-0.52 -0.767,-0.355 m -96.184,25.114 -0.93,-0.162 -0.984,0.08 -0.848,0.301 -0.604,0.465 -0.273,0.574 0.083,0.576 0.464,0.521 0.739,0.354 0.93,0.165 0.958,-0.081 0.848,-0.302 0.629,-0.465 0.273,-0.576 -0.083,-0.574 -0.464,-0.519 -0.738,-0.357 m 70.717,31.595 -0.903,-0.137 -0.985,0.084 -0.849,0.302 -0.601,0.463 -0.301,0.577 0.109,0.572 0.464,0.521 0.74,0.354 0.93,0.164 0.957,-0.082 0.849,-0.302 0.63,-0.466 0.272,-0.574 -0.108,-0.6 -0.439,-0.492 -0.765,-0.384 m 87.101,-59.17 -1.148,-0.22 h -1.204 l -1.178,0.247 -0.984,0.439 -0.738,0.598 -0.383,0.715 -0.026,0.736 0.355,0.71 0.683,0.604 0.958,0.408 1.148,0.248 1.229,-0.028 1.15,-0.247 0.985,-0.436 0.738,-0.602 0.412,-0.713 v -0.737 l -0.329,-0.712 -0.711,-0.574 -0.957,-0.436 m -58.432,68.061 -1.149,-0.219 -1.231,0.028 -1.149,0.219 -0.984,0.467 -0.738,0.601 -0.411,0.712 -0.027,0.737 0.354,0.684 0.713,0.602 0.957,0.438 1.148,0.219 1.205,-0.027 1.175,-0.218 0.986,-0.466 0.738,-0.602 0.383,-0.709 0.026,-0.74 -0.355,-0.686 -0.683,-0.6 -0.958,-0.44 m -72.85,-108.274 -1.149,-0.247 -1.203,0.028 -1.177,0.247 -0.984,0.436 -0.74,0.604 -0.382,0.711 -0.028,0.738 0.357,0.713 0.683,0.573 0.958,0.438 1.148,0.218 h 1.231 l 1.149,-0.245 0.985,-0.439 0.739,-0.6 0.41,-0.712 v -0.737 l -0.328,-0.711 -0.711,-0.604 -0.958,-0.411 m -58.433,68.061 -1.149,-0.221 h -1.231 l -1.148,0.247 -0.984,0.438 -0.74,0.603 -0.41,0.712 -0.027,0.739 0.355,0.71 0.711,0.604 0.958,0.409 1.148,0.22 h 1.205 l 1.176,-0.248 0.984,-0.438 0.738,-0.602 0.384,-0.713 0.026,-0.736 -0.355,-0.713 -0.684,-0.602 -0.957,-0.409 m 67.98,-89.864 -95.692,111.449 m 241.473,-66.775 -145.781,-44.674 m -95.637,113.309 145.782,44.673 m -145.837,-46.533 145.78,44.674 m -145.78,-44.674 0.055,1.86 m 145.782,44.673 95.691,-111.479 m -0.055,-1.829 0.054,1.829 m -95.747,109.62 95.693,-111.449 m -95.693,111.449 0.057,1.859 m -24.839,-212.394 v 0.028 m 0,0.245 v 0.028 m 0.026,0.246 v 0.028 m 0,0.247 v 0.026 m 0,0.245 v 0.028 m 0.027,0.248 v 0.026 m 0,0.219 v 0.027 m 0,0.246 v 0.026 m 0.027,0.248 v 0.028 m 0,0.245 v 0.028 m 0,0.246 v 0.028 m 0.027,0.245 v 0.028 m 0,0.248 v 0.026 m 0,0.246 0,0 m 0.029,0.246 v 0.028 m 4.623,-0.274 v -0.028 m 0,-0.244 v -0.029 m 0,-0.247 v -0.026 m -0.028,-0.247 v -0.025 m 0,-0.249 0,0 m 0,-0.245 v -0.028 m -0.028,-0.247 v -0.026 m 0,-0.247 v -0.027 m 0,-0.245 v -0.028 m 0,-0.248 -0.025,-0.026 m 0,-0.245 v -0.028 m 0,-0.247 v -0.026 m 0,-0.248 0,0 m -0.029,-0.245 v -0.028 m 0,-0.245 v -0.029 m -7.085,-2.954 0.027,0.631 m 9.301,-0.303 -0.027,-0.602 m -4.732,-2.407 -1.205,0.192 -0.492,0.162 -0.739,0.385 -0.574,0.438 m 0,0 -0.108,0.082 -0.22,0.246 m 6.784,-0.219 -0.384,-0.355 -0.875,-0.492 -0.657,-0.246 -0.738,-0.137 -0.793,-0.056 m 68.965,27.357 v 0.027 m 0,0.246 0,0 m 0.028,0.246 v 0.027 m 0,0.247 v 0.029 m 0,0.243 v 0.028 m 0.028,0.248 v 0.026 m 0,0.246 v 0.029 m 0,0.246 v 0.023 m 0.026,0.247 v 0.026 m 0,0.219 v 0.028 m 0,0.246 v 0.028 m 0.027,0.245 v 0.029 m 0,0.245 v 0.029 m 0,0.244 v 0.028 m 0.028,0.247 v 0.026 m 4.623,-0.301 v -0.027 m 0,-0.246 0,0 m 0,-0.245 v -0.029 m -0.028,-0.245 v -0.028 m 0,-0.245 v -0.028 m 0,-0.246 v -0.027 m -0.027,-0.246 v -0.028 m 0,-0.247 v -0.027 m 0,-0.245 v -0.03 m 0,-0.246 h -0.028 m 0,-0.243 v -0.029 m 0,-0.246 v -0.027 m 0,-0.247 v -0.028 m -0.026,-0.245 v -0.028 m 0,-0.245 v -0.028 m -7.086,-2.928 0.028,0.602 m 9.302,-0.301 -0.028,-0.602 m -4.734,-2.38 -1.203,0.191 -0.493,0.137 -0.738,0.384 -0.575,0.437 m 0,-0.001 -0.108,0.111 -0.219,0.219 m 6.784,-0.218 -0.383,-0.33 -0.876,-0.519 -0.655,-0.245 -0.739,-0.139 -0.794,-0.027"
       stroke-miterlimit="10"
       inkscape:connector-curvature="0"
       style="fill:none;stroke:#000000;stroke-width:0.5;stroke-miterlimit:10" />
    <text
       y="316.76517"
       x="244.45903"
       style="font-size:6px;font-style:normal;font-variant:normal;font-weight:bold;font-stretch:normal;text-align:start;line-height:125%;writing-mode:lr-tb;text-anchor:start;font-family:Sans;-inkscape-font-specification:Sans Bold;fill:#808080"
       transform="scale(1.0373524,0.96399256)"
       font-size="7"
       id="text18335"
       sodipodi:linespacing="125%">Top Plate</text>
    <text
       y="417.9989"
       x="140.91562"
       style="font-size:6px;font-style:normal;font-variant:normal;font-weight:bold;font-stretch:normal;text-align:start;line-height:125%;writing-mode:lr-tb;text-anchor:start;font-family:Sans;-inkscape-font-specification:Sans Bold;fill:#808080"
       transform="scale(1.0373524,0.96399256)"
       font-size="7"
       id="text18299"
       sodipodi:linespacing="125%">Sensor plate</text>
    <text
       xml:space="preserve"
       style="font-size:40px;font-style:normal;font-weight:normal;line-height:125%;letter-spacing:0px;word-spacing:0px;fill:#000000;fill-opacity:1;stroke:none;font-family:Sans"
       x="458.21429"
       y="314.50504"
       id="text2998"
       sodipodi:linespacing="125%"><tspan
         sodipodi:role="line"
         id="tspan3002"
         x="458.21429"
         y="314.50504" /></text>
    <text
       y="317.85336"
       x="437.8172"
       style="font-size:6px;font-style:normal;font-variant:normal;font-weight:bold;font-stretch:normal;text-align:start;line-height:125%;writing-mode:lr-tb;text-anchor:start;fill:#808080;font-family:Sans;-inkscape-font-specification:Sans Bold"
       transform="scale(1.0373524,0.96399256)"
       font-size="7"
       id="text4647-1"
       sodipodi:linespacing="125%">M3x6mm Philips Flange Screw</text>
  </g>
</svg>
