<?xml version="1.0" encoding="UTF-8" standalone="no"?>
<!-- Created with Inkscape (http://www.inkscape.org/) -->

<svg
   xmlns:dc="http://purl.org/dc/elements/1.1/"
   xmlns:cc="http://creativecommons.org/ns#"
   xmlns:rdf="http://www.w3.org/1999/02/22-rdf-syntax-ns#"
   xmlns:svg="http://www.w3.org/2000/svg"
   xmlns="http://www.w3.org/2000/svg"
   xmlns:sodipodi="http://sodipodi.sourceforge.net/DTD/sodipodi-0.dtd"
   xmlns:inkscape="http://www.inkscape.org/namespaces/inkscape"
   width="744.09448819"
   height="1052.3622047"
   id="svg23054"
   version="1.1"
   inkscape:version="0.48.1 "
   sodipodi:docname="STEP2.svg"
   inkscape:export-filename="D:\01 -Work\08 - 移动机器人导购系统\连线图\安装图\STEP2.png"
   inkscape:export-xdpi="400"
   inkscape:export-ydpi="400">
  <defs
     id="defs23056" />
  <sodipodi:namedview
     id="base"
     pagecolor="#ffffff"
     bordercolor="#666666"
     borderopacity="1.0"
     inkscape:pageopacity="0.0"
     inkscape:pageshadow="2"
     inkscape:zoom="0.98994949"
     inkscape:cx="303.89114"
     inkscape:cy="568.22317"
     inkscape:document-units="px"
     inkscape:current-layer="layer1"
     showgrid="false"
     inkscape:window-width="1920"
     inkscape:window-height="1017"
     inkscape:window-x="-8"
     inkscape:window-y="-8"
     inkscape:window-maximized="1" />
  <metadata
     id="metadata23059">
    <rdf:RDF>
      <cc:Work
         rdf:about="">
        <dc:format>image/svg+xml</dc:format>
        <dc:type
           rdf:resource="http://purl.org/dc/dcmitype/StillImage" />
        <dc:title></dc:title>
      </cc:Work>
    </rdf:RDF>
  </metadata>
  <g
     inkscape:label="Layer 1"
     inkscape:groupmode="layer"
     id="layer1">
    <g
       id="g23430"
       transform="translate(-91.923882,28.284271)">
      <path
         style="fill:#808080;stroke:#808080;stroke-width:0.5;stroke-miterlimit:10"
         inkscape:connector-curvature="0"
         stroke-miterlimit="10"
         d="m 494.53407,321.09704 -19.035,33.429 m 50.557,-33.429 h -31.521 m -0.001,0 h 31.521 m 10e-4,0 h -31.521 m -0.001,0 h 31.521 m 10e-4,0 h -31.521 m -0.001,0 h 31.521 m 81.829,0 -40.662,70.853 m 72.184,-70.853 h -31.522 m 0,0 h 31.522 m 0,0 h -31.522 m 0,0 h 31.522 m 0,0 h -31.522 m 0,0 h 31.522 m -29.938,205.899 -41.311,-65.562 m 69.701,65.562 h -28.39 m 0,0 h 28.391 m -10e-4,0 h -28.39 m 0,0 h 28.391 m -10e-4,0 h -28.39 m 0,0 h 28.391 m -192.047,0 28.354,-9.751 m -28.354,9.751 h -31.522 m 0,0 h 31.522 m 0,0 h -31.522 m 0,0 h 31.522 m 0,0 h -31.522 m 0,0 h 31.522"
         id="path4431" />
      <line
         style="fill:none;stroke:#000000;stroke-width:0.5;stroke-miterlimit:10"
         stroke-miterlimit="10"
         x1="475.26706"
         y1="398.72003"
         x2="475.49908"
         y2="354.49402"
         id="line4433" />
      <line
         style="fill:none;stroke:#000000;stroke-width:0.5;stroke-miterlimit:10"
         stroke-miterlimit="10"
         x1="541.32306"
         y1="382.78601"
         x2="541.46008"
         y2="349.00903"
         id="line4435" />
      <line
         style="fill:none;stroke:#000000;stroke-width:0.5;stroke-miterlimit:10"
         stroke-miterlimit="10"
         x1="474.83508"
         y1="445.354"
         x2="475.17908"
         y2="408.21301"
         id="line4437" />
      <line
         style="fill:none;stroke:#000000;stroke-width:0.5;stroke-miterlimit:10"
         stroke-miterlimit="10"
         x1="540.88409"
         y1="430.38403"
         x2="541.02606"
         y2="414.89703"
         id="line4439" />
      <line
         style="fill:none;stroke:#000000;stroke-width:0.5;stroke-miterlimit:10"
         stroke-miterlimit="10"
         x1="474.17108"
         y1="517.21204"
         x2="474.63806"
         y2="466.76904"
         id="line4441" />
      <line
         style="fill:none;stroke:#000000;stroke-width:0.5;stroke-miterlimit:10"
         stroke-miterlimit="10"
         x1="540.12805"
         y1="511.95007"
         x2="540.40906"
         y2="481.65302"
         id="line4443" />
      <path
         style="fill:none;stroke:#000000;stroke-width:0.5;stroke-miterlimit:10"
         inkscape:connector-curvature="0"
         stroke-miterlimit="10"
         d="m 475.17507,355.03004 0.107,0.072 h 0.108 l 0.108,0.037 0.107,-0.037 0.109,-0.036 0.107,-0.036 0.072,-0.071 0.071,-0.108 0.073,-0.071 0.035,-0.108 v -0.108 -0.143 -0.108 l -0.072,-0.108 -0.036,-0.072 -0.071,-0.072 -0.108,-0.072 -0.108,-0.036 -0.107,-0.036 h -0.108 -0.108 l -0.107,0.036 -0.107,0.073 -0.072,0.035 -0.071,0.108 -0.073,0.108 -0.035,0.108 v 0.107 0.108 0.107 l 0.072,0.109 0.036,0.071 0.107,0.108 0.071,0.035 0.324,-0.503 m 91.398,37.961 0.107,0.037 0.109,0.036 h 0.107 l 0.108,-0.036 0.108,-0.037 0.107,-0.036 0.072,-0.071 0.107,-0.072 0.037,-0.108 0.035,-0.107 0.037,-0.108 -0.037,-0.108 v -0.108 l -0.035,-0.107 -0.074,-0.108 -0.07,-0.072 -0.108,-0.071 -0.108,-0.036 -0.107,-0.036 h -0.108 -0.108 l -0.107,0.036 -0.107,0.072 -0.072,0.071 -0.071,0.072 -0.072,0.108 -0.036,0.108 v 0.107 0.108 0.107 l 0.072,0.108 0.036,0.108 0.107,0.072 0.071,0.071 0.324,-0.538 m 0.614,68.981 -0.109,0.073 -0.072,0.071 -0.035,0.108 -0.072,0.107 v 0.108 0.106 0.109 l 0.072,0.108 0.035,0.107 0.072,0.072 0.109,0.072 0.106,0.035 0.108,0.037 h 0.107 0.107 l 0.109,-0.037 0.107,-0.035 0.072,-0.072 0.071,-0.107 0.072,-0.072 0.036,-0.108 0.035,-0.109 v -0.106 l -0.035,-0.108 -0.036,-0.107 -0.072,-0.108 -0.071,-0.071 -0.072,-0.073 -0.107,-0.072 h -0.109 l -0.107,-0.036 -0.107,0.036 -0.108,0.036 -0.106,0.036 0.322,0.503 m -93.414,55.595 -0.072,-0.108 -0.035,-0.071 -0.107,-0.108 -0.072,-0.036 -0.109,-0.072 h -0.108 -0.107 -0.108 l -0.107,0.036 -0.108,0.071 -0.107,0.071 -0.072,0.073 -0.035,0.107 -0.037,0.108 v 0.108 0.108 l 0.037,0.107 0.035,0.109 0.072,0.107 0.071,0.071 0.072,0.072 0.108,0.036 h 0.107 l 0.144,0.036 0.108,-0.036 0.107,-0.036 0.072,-0.036 0.107,-0.107 0.072,-0.071 0.036,-0.109 0.036,-0.107 0.036,-0.108 -0.036,-0.108 v -0.107 l -0.576,0.216"
         id="path4445" />
      <path
         style="fill:none;stroke:#000000;stroke-width:0.5;stroke-miterlimit:10"
         inkscape:connector-curvature="0"
         stroke-miterlimit="10"
         d="m 500.65107,427.10604 3.059,0.287 m 28.967,4.428 0.035,0.035 0.254,0.252 0.611,0.251 0.973,0.252 1.258,0.179 1.477,0.144 1.654,0.108 1.763,0.036 h 1.764 l 1.691,-0.071 1.511,-0.109 1.296,-0.144 1.044,-0.215 0.684,-0.215 0.288,-0.289 0.035,-0.072 m -96.258,34.798 2.734,-1.909 m -0.359,-0.036 -3.022,2.088 m 0.071,-0.972 1.836,-1.223 m 12.63,-17.92 v 0.035 l 0.252,0.252 0.61,0.252 0.973,0.252 1.259,0.179 1.512,0.145 1.656,0.107 1.762,0.037 h 1.728 l 1.692,-0.037 1.547,-0.145 1.295,-0.143 1.008,-0.216 0.684,-0.217 0.324,-0.251 v -0.105 m 34.939,4.461 -16.517,-23.174 m 0.433,-0.359 16.695,23.425 m -6.764,2.554 -1.296,-0.143 m 0,0 1.296,-0.288 m 1.727,-1.007 -16.696,-23.426 m -23.39,-78.912 0,0 0.324,-0.145 0.647,-0.072 0.827,-0.072 h 0.9 l 0.863,0.072 0.684,0.108 0.359,0.108 0.037,0.035 m -7.989,3.78 2.629,0.756 m -2.629,-0.756 -0.25,-0.216 m 8.528,1.079 3.023,-0.685 m 0,0.001 0.215,-0.215 m -11.766,-0.181 0.035,-3.634 m -0.035,3.634 2.77,0.792 m -2.735,-4.426 2.771,0.829 m -2.771,-0.829 0.252,-0.18 m 8.348,4.714 3.131,-0.72 m 0,0 0.037,-3.634 m -3.131,0.72 3.131,-0.72 m 0,0 -0.217,-0.216 m -8.707,4.642 5.648,0.108 m 10e-4,0 0.107,-0.18 m -5.756,0.072 -0.109,-0.18 m 4.498,-4.822 -0.936,-0.071 h -0.971 l -0.9,0.036 -0.684,0.107 -0.359,0.144 0.035,0.145 0.396,0.144 0.72,0.108 0.935,0.036 0.973,0.036 0.936,-0.072 0.684,-0.108 0.324,-0.108 v -0.144 l -0.432,-0.144 -0.721,-0.109 m -4.354,0.972 -2.627,-0.756 m 11.299,0.144 -3.022,0.684 m 0.36,-1.439 2.662,0.756 m -8.312,-0.829 5.65,0.072 m -8.637,0.612 2.986,-0.684 m -0.503,5.29 0.036,-3.598 m -0.036,3.598 5.865,0.108 m 0,0 0.037,-3.634 m -5.866,-0.071 5.866,0.071 m 0,0 -0.108,-0.252 m 0,0 -5.649,-0.072 m -0.109,0.253 0.108,-0.253 m 66.643,-6.045 0,0 0.323,-0.107 0.648,-0.108 0.827,-0.036 h 0.898 l 0.865,0.072 0.684,0.072 0.359,0.144 0.035,0.036 m -7.986,3.777 2.626,0.755 m -2.626,-0.755 -0.252,-0.215 m 8.529,1.043 3.021,-0.684 m 0,0 0.218,-0.179 m -11.768,-0.18 0.036,-3.635 m -0.036,3.635 2.771,0.791 m -2.735,-4.426 2.771,0.792 m -2.771,-0.792 0.252,-0.18 m 8.348,4.678 3.132,-0.684 m 0,10e-4 0.035,-3.634 m -3.13,0.682 3.13,-0.683 m 0,0 -0.216,-0.217 m -8.709,4.642 5.65,0.072 m 0.001,10e-4 0.107,-0.179 m -5.758,0.106 -0.107,-0.18 m 4.498,-4.857 -0.936,-0.036 -0.972,-0.037 -0.899,0.072 -0.684,0.108 -0.359,0.108 0.035,0.144 0.396,0.144 0.72,0.108 0.935,0.071 h 1.008 l 0.898,-0.036 0.686,-0.109 0.358,-0.144 -0.035,-0.144 -0.433,-0.144 -0.718,-0.105 m -4.354,1.008 -2.627,-0.756 m 11.299,0.144 -3.023,0.684 m 0.36,-1.44 2.663,0.755 m -8.312,-0.827 5.649,0.073 m -8.636,0.611 2.986,-0.685 m -0.503,5.291 0.036,-3.634 m -0.036,3.634 5.865,0.073 m 0,-0.001 0.037,-3.635 m -5.866,-0.071 5.866,0.071 m 0,0 -0.109,-0.215 m 0,0 -5.648,-0.072 m -0.109,0.216 0.108,-0.216 m -33.609,81.971 h 0.072 l 0.072,-0.037 m 38.43,4.103 0.433,-0.144 0.036,-0.179 -0.324,-0.181 -0.721,-0.108 -0.971,-0.107 -1.08,-0.036 h -1.15 l -0.972,0.072 -0.756,0.108 -0.433,0.144 -0.035,0.179 0.324,0.18 0.719,0.108 0.936,0.108 1.115,0.035 h 1.115 l 1.009,-0.072 0.755,-0.107 m -10.904,0.575 -0.035,0.073 m 11.983,-1.799 -2.628,-0.181 h -2.77 l -2.555,0.145 -1.908,0.288 -0.971,0.36 0.072,0.431 1.15,0.396 2.017,0.288 m 0.001,-10e-4 2.59,0.18 h 2.807 l 2.52,-0.143 1.942,-0.289 0.973,-0.359 -0.074,-0.432 -1.15,-0.396 -2.015,-0.288 m -126.447,46.311 h -0.109 l -0.828,-0.288 -0.719,-0.575 -0.648,-0.863 -0.539,-1.08 -0.396,-1.294 -0.216,-1.477 -0.072,-1.547 m 0.25,-26.232 85.534,-19.395 m 10e-4,0 3.455,0.359 m -81.539,52.716 -0.828,0.037 -0.792,-0.287 -0.756,-0.576 -0.647,-0.864 -0.54,-1.079 -0.36,-1.332 -0.25,-1.438 -0.072,-1.548 m 8.886,6.045 -4.642,1.042 m 46.202,-10.47 -16.264,3.67 m 48.326,-42.749 -0.035,2.915 m 0.035,-2.915 v -0.108 l 0.037,-0.072 v -0.072 l 0.035,-0.072 0.035,-0.036 0.037,-0.073 h 0.036 l 0.036,-0.034 m 3.06,-2.7 -0.037,2.016 m -85.497,17.379 85.534,-19.395 m -13.242,5.002 h 0.035 m -37.963,37.82 -0.647,0.144 m 1.151,8.923 -0.684,-3.238 -0.324,-3.528 -0.072,-4.569 m 0.253,13.674 0.396,-0.323 m -10e-4,0 0.145,-0.145 0.107,-0.217 0.107,-0.251 0.072,-0.252 0.072,-0.324 v -0.288 -0.289 l -0.072,-0.25 m 24.326,-29.687 0.433,-0.144 0.036,-0.18 -0.36,-0.181 -0.684,-0.107 -0.971,-0.108 -1.117,-0.035 h -1.115 l -1.007,0.071 -0.757,0.107 -0.432,0.144 -0.035,0.181 0.359,0.18 0.684,0.108 0.973,0.106 1.114,0.036 h 1.116 l 1.007,-0.072 0.756,-0.106 m -10.939,0.576 v 0.072 m 11.947,-1.8 -2.591,-0.18 h -2.807 l -2.52,0.144 -1.906,0.289 -1.008,0.359 0.107,0.433 1.115,0.396 2.053,0.288 m 10e-4,-10e-4 2.59,0.181 h 2.771 l 2.556,-0.145 1.906,-0.288 1.008,-0.36 -0.108,-0.432 -1.114,-0.395 -2.052,-0.289 m 22.776,-16.768 v 1.619 m 0,-1.619 0.036,-0.072 v -0.071 l 0.036,-0.072 0.072,-0.036 0.071,-0.071 0.072,-0.036 h 0.072 0.072 m 47.212,5.108 -0.071,0.145 -0.432,0.251 -0.756,0.251 m 0,0 -1.08,0.18 -1.367,0.144 -1.584,0.108 -1.691,0.037 h -1.763 l -1.763,-0.037 -1.619,-0.143 -1.439,-0.145 -1.188,-0.215 -0.899,-0.216 -0.503,-0.252 -0.182,-0.251 m 13.386,-2.592 45.053,4.571 m -87.226,-8.853 38.972,3.958 m -38.972,-3.958 -3.021,0.685 m -0.001,0 4.318,0.431 m 0,0 -3.383,0.792 m 15.078,23.786 -15.51,-21.808 m 0,0 -3.238,0.756 m -1.116,-1.583 h -0.035 l -0.036,-0.036 -0.036,-0.036 h -0.036 l -0.036,0.036 h -0.071 m 11.837,52.464 -0.721,-3.239 -0.322,-3.49 -0.073,-4.605 m 0.289,13.673 0.359,-0.323 m 10e-4,0 0.144,-0.145 0.144,-0.216 0.108,-0.252 0.072,-0.251 0.035,-0.325 0.037,-0.287 -0.037,-0.288 -0.035,-0.252 m 2.914,-2.411 0.072,1.547 0.216,1.476 0.396,1.296 0.504,1.115 0.648,0.827 0.756,0.575 0.791,0.289 h 0.107 m -36.272,-18.963 v 4.282 l 0.288,3.599 0.575,3.491 0.504,2.41 m 0,0 27.673,2.807 m 0,-0.001 -0.792,-3.814 -0.504,-3.778 -0.107,-4.138 v -2.051 m 0,0 5.217,0.539 m -93.377,-9.463 5.181,0.503 m -10e-4,0 v 4.282 l 0.287,3.598 0.576,3.492 0.54,2.409 m 10e-4,0 27.636,2.808 m 0,0 -0.755,-3.813 -0.506,-3.779 -0.143,-4.139 0.035,-2.051 m 0,0 27.672,2.807 m 4.211,-19.251 -0.072,0.144 -0.396,0.252 -0.755,0.251 m 0,0 -1.115,0.18 -1.368,0.144 -1.547,0.108 -1.728,0.071 -1.764,-0.036 -1.726,-0.035 -1.62,-0.145 -1.438,-0.144 -1.225,-0.216 -0.863,-0.216 -0.541,-0.252 -0.143,-0.251 m 30.119,-18.819 -1.763,0.396 m 0,-10e-4 -4.318,-0.432 m 0,10e-4 -72.328,16.409 m 96.617,34.04 0.071,1.548 0.216,1.438 0.396,1.332 0.541,1.08 0.611,0.865 0.756,0.576 0.827,0.287 0.828,-0.036 m 0,-10e-4 76.861,-17.452 m 0,0 0.863,-0.324 0.828,-0.647 0.755,-0.9 0.647,-1.15 0.541,-1.368 0.432,-1.476 0.252,-1.583 0.107,-1.583 m 10e-4,-10e-4 0.252,-26.233 m 0,0 -85.57,19.396 m 82.08,-19.754 3.49,0.359 m -89.024,19.036 85.533,-19.395 m -82.08,19.754 -3.453,-0.36 m 0,10e-4 v 2.015 m 0,0 -93.379,-9.464 m 0,0 0.036,-2.016 m 0.001,0 -3.455,-0.359 m -10e-4,0 -0.251,26.232 m 0,0 3.455,0.359 m 10e-4,0.001 0.072,-8.491 m 0,-10e-4 0.035,-1.62 m 0,0 93.342,9.5 m 0,1.583 v -1.583 m 0,1.583 -0.072,8.492 m 0,0 3.455,0.36 m 0,0 0.215,-26.231 m 165.993,-61.677 -114.788,26.016 m 114.788,-26.016 0.037,-3.022 m -339.58,6.225 0.036,-3.023 m 224.719,25.836 -224.755,-22.813 m 224.755,22.813 0.036,-3.022 m -22.345,-30.911 -0.792,0.108 -0.972,0.072 -1.151,0.036 -1.08,-0.072 -0.972,-0.071 -0.684,-0.145 -0.359,-0.18 0.036,-0.144 0.432,-0.18 0.755,-0.107 1.009,-0.073 h 1.114 l 1.115,0.036 0.936,0.108 0.72,0.145 0.325,0.144 -0.036,0.179 -0.396,0.144 m -66.066,14.97 -0.757,0.108 -1.007,0.071 -1.115,0.036 -1.116,-0.071 -0.972,-0.073 -0.684,-0.144 -0.359,-0.18 0.035,-0.143 0.434,-0.181 0.754,-0.108 1.008,-0.071 h 1.115 l 1.116,0.035 0.972,0.108 0.684,0.144 0.359,0.144 -0.035,0.18 -0.432,0.145 m 53.111,10.435 -0.864,0.143 -1.079,0.108 -1.26,0.036 h -1.33 l -1.296,-0.036 -1.187,-0.108 -0.973,-0.143 -0.684,-0.18 -0.324,-0.216 v -0.18 l 0.396,-0.18 0.684,-0.18 1.008,-0.108 1.188,-0.072 1.295,-0.037 1.331,0.037 1.261,0.072 1.078,0.144 0.828,0.144 0.504,0.18 0.18,0.216 -0.215,0.18 -0.541,0.18 m -134.148,-13.638 -0.863,0.144 -1.116,0.108 -1.26,0.071 h -1.331 l -1.296,-0.071 -1.15,-0.108 -0.973,-0.144 -0.684,-0.18 -0.359,-0.18 0.037,-0.18 0.359,-0.215 0.719,-0.145 0.972,-0.144 1.224,-0.073 h 1.295 1.332 l 1.26,0.108 1.079,0.108 0.827,0.179 0.504,0.181 0.18,0.18 -0.215,0.215 -0.541,0.146 m 103.058,-23.354 -0.828,0.144 -1.115,0.107 -1.26,0.037 h -1.33 l -1.296,-0.037 -1.188,-0.107 -0.971,-0.144 -0.648,-0.179 -0.359,-0.181 v -0.215 l 0.396,-0.18 0.72,-0.144 0.973,-0.145 1.187,-0.071 1.332,-0.036 1.295,0.036 1.259,0.071 1.08,0.145 0.828,0.144 0.539,0.18 0.145,0.215 -0.18,0.181 -0.579,0.179 m 134.186,13.638 -0.865,0.145 -1.115,0.071 -1.26,0.072 h -1.332 l -1.295,-0.072 -1.188,-0.108 -0.936,-0.144 -0.684,-0.18 -0.359,-0.18 0.036,-0.18 0.36,-0.181 0.719,-0.18 0.972,-0.108 1.224,-0.107 h 1.295 l 1.331,0.036 1.26,0.071 1.079,0.108 0.828,0.18 0.504,0.181 0.145,0.18 -0.181,0.215 -0.538,0.181 m -177.762,-19.97 224.755,22.813 m -339.544,3.202 114.789,-26.016 m 109.967,48.831 -224.756,-22.815 m 339.544,-3.202 -114.789,26.017 m -91.615,103.561 v -0.072 m 1.871,-3.743 0,0 -0.432,0.144 -0.72,0.108 -0.864,0.071 h -0.936 -0.863 l -0.72,-0.071 -0.468,-0.108 -0.036,-0.036 m 5.039,-0.539 -0.469,0.145 -0.719,0.106 -0.863,0.073 h -0.936 l -0.863,-0.036 -0.685,-0.072 -0.468,-0.108 h -0.072 m 5.075,-0.54 0,0 -0.504,0.145 -0.72,0.108 -0.864,0.036 -0.935,0.036 -0.863,-0.036 -0.685,-0.072 -0.468,-0.108 -0.036,-0.035 m 1.8,-0.218 -0.646,-0.036 -0.684,-0.071 -0.433,-0.072 v -0.036 m 1.763,0.215 -0.035,0.144 -0.072,0.108 m 0,-0.395 0.072,0.071 0.035,0.072 m 3.275,-0.324 -0.216,0.108 -0.612,0.108 -0.827,0.071 -0.899,0.036 h -0.721 m 3.24,-0.755 -0.217,0.073 -0.611,0.143 -0.827,0.072 -0.9,0.035 h -0.899 l -0.793,-0.071 -0.574,-0.071 -0.181,-0.107 m 5.037,-0.541 -0.252,0.107 -0.647,0.144 -0.827,0.072 -0.9,0.036 -0.9,-0.036 -0.791,-0.037 -0.539,-0.108 -0.181,-0.071 m 5.037,-0.539 -0.288,0.108 -0.647,0.108 -0.828,0.072 -0.899,0.034 h -0.899 l -0.792,-0.07 -0.54,-0.073 -0.144,-0.071 m 5.037,-0.539 -0.035,0.035 -0.541,0.144 -0.756,0.073 -0.898,0.071 h -0.9 l -0.863,-0.036 -0.648,-0.072 -0.396,-0.107 m 5.037,-0.577 -0.072,0.072 -0.539,0.108 -0.756,0.108 -0.9,0.035 -0.898,0.036 -0.828,-0.071 -0.684,-0.072 -0.36,-0.108 m 5.037,-0.539 -0.072,0.071 -0.539,0.107 -0.793,0.109 -0.898,0.036 h -0.9 l -0.826,-0.036 -0.648,-0.073 -0.396,-0.107 m -0.037,-0.468 -0.18,0.108 -0.217,0.072 m 5.542,-0.251 -0.359,0.107 -0.684,0.109 -0.827,0.071 -0.936,0.036 -0.864,-0.036 -0.755,-0.036 -0.505,-0.109 -0.215,-0.071 m 5.145,-0.54 -0.395,0.145 -0.648,0.107 -0.863,0.073 -0.936,0.036 -0.863,-0.036 -0.756,-0.073 -0.504,-0.071 -0.072,-0.072 m 5.037,-0.54 -0.395,0.144 -0.686,0.108 -0.862,0.072 h -0.936 -0.864 l -0.755,-0.072 -0.468,-0.108 -0.072,-0.034 m 5.002,-0.506 -0.396,0.108 -0.685,0.108 -0.863,0.036 -0.936,0.036 -0.863,-0.036 -0.72,-0.072 -0.468,-0.072 -0.072,-0.036 m 5.003,-0.072 0.18,0.108 0.145,0.108 m 0.035,-0.395 -0.18,0.072 -0.18,0.107 m 0.036,-0.036 -0.035,0.036 m 0.035,-0.503 -0.18,0.108 -0.575,0.107 -0.792,0.073 -0.898,0.071 -0.937,-0.036 -0.792,-0.035 -0.611,-0.073 -0.288,-0.107 m 5.073,-0.541 -0.18,0.073 -0.611,0.144 -0.791,0.072 -0.9,0.036 h -0.936 l -0.791,-0.036 -0.576,-0.108 -0.252,-0.071 m 5.037,-0.54 -0.215,0.071 -0.611,0.144 -0.792,0.071 -0.9,0.036 h -0.936 l -0.79,-0.071 -0.576,-0.072 -0.217,-0.108 m 2.626,0.504 1.151,-0.036 0.972,-0.145 0.648,-0.144 0.215,-0.216 -0.215,-0.181 m -5.901,0.362 0,0 0.252,0.143 0.684,0.145 1.008,0.072 h 1.188 m -0.002,0.432 1.151,-0.036 0.972,-0.108 0.648,-0.18 0.215,-0.217 -0.215,-0.144 m -5.901,0.324 0,0 0.252,0.144 0.684,0.144 1.008,0.072 h 1.188 m -0.002,0.469 1.151,-0.073 0.972,-0.106 0.648,-0.18 0.215,-0.181 -0.215,-0.18 m -2.771,0.72 -1.188,-0.036 -1.008,-0.072 -0.684,-0.107 -0.252,-0.144 m 5.904,0.43 -0.072,0.036 m 0.251,-0.216 v 0.108 m -0.107,-0.251 0.143,0.107 m -0.287,0.252 -0.432,0.143 -0.648,0.073 -0.791,0.072 -0.863,0.034 m -3.096,-0.358 0,0 0.252,0.144 0.684,0.145 1.008,0.07 h 1.152 m -10e-4,0.433 1.187,-0.036 0.972,-0.109 0.648,-0.18 0.215,-0.215 -0.215,-0.145 m -5.902,0.325 0,0 0.252,0.143 0.684,0.145 1.008,0.072 h 1.152 m -10e-4,0.467 1.187,-0.071 0.972,-0.107 0.648,-0.181 0.215,-0.179 -0.215,-0.18 m -5.902,0.358 0,0 0.252,0.144 0.684,0.108 1.008,0.072 1.152,0.035 m 2.806,-0.285 0.215,0.179 -0.215,0.216 -0.648,0.144 -0.972,0.144 -1.187,0.037 m 0,-10e-4 h -1.08 l -0.936,-0.073 -0.721,-0.107 -0.359,-0.144 m 10e-4,-0.036 v 0.035 m 0.179,-0.18 -0.071,0.036 -0.108,0.072 m 3.095,0.828 1.15,-0.036 1.008,-0.108 0.648,-0.179 0.179,-0.218 -0.179,-0.143 m -5.901,0.324 h -0.036 l 0.253,0.146 0.684,0.143 1.007,0.072 h 1.188 m -10e-4,0.469 1.15,-0.073 1.008,-0.107 0.611,-0.181 0.216,-0.18 -0.216,-0.179 m -5.901,0.358 0,0 0.253,0.144 0.684,0.108 1.007,0.072 1.188,0.037 m 2.807,-0.253 0.179,0.145 -0.216,0.216 -0.647,0.144 -0.972,0.144 -1.15,0.035 m -10e-4,-0.001 h -1.188 l -1.007,-0.071 -0.684,-0.144 -0.253,-0.144 m 6.082,0.288 v 0.071 l -0.215,0.109 -0.469,0.144 -0.646,0.107 -0.792,0.072 h -0.827 m 2.878,-0.647 0.07,0.036 m -6.081,0.253 0,0 0.253,0.18 0.684,0.107 1.007,0.072 h 1.188 m 0,0.467 1.15,-0.07 0.972,-0.109 0.647,-0.179 0.216,-0.18 -0.216,-0.181 m -5.901,0.36 0,0 0.253,0.144 0.684,0.107 1.007,0.071 1.188,0.036 m -0.037,0.433 1.188,-0.036 0.972,-0.143 0.647,-0.145 0.216,-0.216 -0.216,-0.18 m -2.807,0.72 h -1.151 l -1.007,-0.072 -0.684,-0.144 -0.253,-0.144 m 5.902,0.107 0.216,0.145 -0.216,0.215 -0.647,0.18 -0.972,0.11 -1.188,0.035 m -0.935,0 h 0.936 m -3.059,-0.359 0.037,0.107 0.395,0.107 0.72,0.11 0.972,0.035 m -2.016,-0.432 -0.145,0.036 m 3.095,0.865 1.188,-0.073 0.972,-0.107 0.647,-0.18 0.216,-0.18 -0.216,-0.18 m -5.902,0.359 0,0 0.253,0.144 0.684,0.107 1.007,0.072 1.151,0.037 m 0,0.431 1.151,-0.036 1.008,-0.144 0.647,-0.145 0.18,-0.216 -0.18,-0.179 m -5.901,0.361 h -0.036 l 0.252,0.144 0.684,0.144 1.008,0.072 h 1.188 m 2.806,-0.252 0.18,0.143 -0.18,0.216 -0.647,0.181 -1.008,0.107 -1.151,0.036 m -10e-4,10e-4 h -0.828 l -0.791,-0.036 -0.647,-0.037 -0.505,-0.106 -0.287,-0.073 -0.072,-0.107 0.145,-0.072 m -0.073,-0.326 -0.036,0.073 0.36,0.107 0.684,0.108 0.971,0.072 h 1.08 m -10e-4,10e-4 1.151,-0.036 1.008,-0.144 0.647,-0.143 0.18,-0.217 m -6.081,-0.252 h -0.036 l 0.289,0.144 0.684,0.107 1.007,0.107 h 1.151 m 0,0.001 1.188,-0.071 0.972,-0.107 0.647,-0.18 0.18,-0.179 m -6.082,-0.29 v 0.036 l 0.253,0.144 0.684,0.11 1.007,0.071 1.151,0.037 m 2.987,-0.542 -0.18,0.18 -0.647,0.18 -0.972,0.108 -1.188,0.073 m -0.935,-0.468 -0.936,-0.036 -0.756,-0.108 -0.395,-0.145 -0.037,-0.071 m 3.059,0.36 h -0.936 m 0.936,0 1.188,-0.036 0.972,-0.144 0.647,-0.144 0.216,-0.215 m -6.118,-0.254 0,0 0.253,0.144 0.684,0.109 1.007,0.107 h 1.188 m 0,10e-4 1.15,-0.073 0.972,-0.107 0.647,-0.18 0.216,-0.179 m -6.117,-0.288 v 0.036 l 0.253,0.144 0.684,0.107 1.007,0.071 1.188,0.037 m 0,0 1.15,-0.072 0.972,-0.108 0.647,-0.179 0.216,-0.181 m -2.985,0.071 h -1.188 l -1.007,-0.071 -0.684,-0.144 -0.108,-0.036 m 5.937,-0.288 v 0.073 l -0.215,0.142 -0.469,0.144 -0.646,0.072 -0.792,0.071 -0.827,0.036 m -3.133,-0.79 0,0 0.253,0.145 0.684,0.107 1.007,0.073 1.188,0.034 m 0,0.001 1.15,-0.071 1.008,-0.107 0.611,-0.181 0.216,-0.18 m -6.08,-0.287 -0.036,0.035 0.253,0.144 0.684,0.108 1.007,0.072 1.188,0.036 m -10e-4,-0.001 1.15,-0.072 1.008,-0.107 0.648,-0.181 0.179,-0.181 m -6.08,-0.286 h -0.036 l 0.288,0.144 0.648,0.144 1.007,0.071 h 1.188 m 0,-0.001 1.187,-0.034 0.972,-0.145 0.648,-0.144 0.179,-0.216 m -6.081,-0.214 v -0.037 m 0,0.037 0.359,0.144 0.721,0.107 0.936,0.072 h 1.08 m -10e-4,0 1.187,-0.072 0.972,-0.107 0.648,-0.181 0.179,-0.179 m -6.081,-0.289 v 0.036 l 0.252,0.144 0.684,0.109 1.008,0.072 1.152,0.036 m -10e-4,0 1.187,-0.072 0.972,-0.107 0.648,-0.181 0.179,-0.179 m -6.081,-0.289 0,0 0.252,0.143 0.684,0.146 1.008,0.071 h 1.152 m 3.021,-0.541 -0.215,0.217 -0.648,0.144 -0.972,0.144 -1.187,0.037 m 0.035,-0.434 -1.188,-0.034 -1.008,-0.073 -0.684,-0.106 -0.107,-0.072 m 2.987,0.285 0.828,-0.034 0.791,-0.073 0.648,-0.106 0.467,-0.108 m 10e-4,0 0.216,-0.145 v -0.071 m -6.081,-0.288 v 0.036 l 0.252,0.144 0.684,0.108 1.008,0.071 1.188,0.036 m -0.002,0 1.151,-0.071 0.972,-0.108 0.648,-0.18 0.215,-0.18 m -6.116,-0.288 0,0 0.252,0.144 0.684,0.145 1.008,0.071 h 1.188 m -0.002,0 1.151,-0.035 0.972,-0.146 0.648,-0.144 0.215,-0.215 m -2.986,0.109 -1.188,-0.036 -1.008,-0.072 -0.684,-0.108 -0.107,-0.072 m 5.974,-0.252 -0.036,0.073 -0.179,0.143 -0.361,0.073 -0.467,0.107 -0.576,0.072 -0.683,0.036 -0.685,0.036 m 2.987,-0.576 0,0 -0.18,0.18 -0.539,0.146 -0.792,0.107 -0.972,0.072 -0.504,0.036 h -1.008 l -0.9,-0.072 -0.719,-0.108 -0.396,-0.108 -0.071,-0.072 m 0.395,-0.253 -0.359,-0.144 -0.035,-0.071 m 0.467,0.323 0.072,0.036 0.468,0.107 0.685,0.072 0.826,0.036 0.9,-0.036 0.863,-0.035 0.719,-0.107 0.469,-0.145 0.216,-0.144 -0.072,-0.144 -0.396,-0.144 -0.359,-0.108 m -4.464,0.54 0.54,0.072 0.72,0.073 m -1.619,-0.36 -0.035,0.072 0.395,0.144 m 4.462,-0.541 -0.721,-0.072 -0.863,-0.036 h -0.898 l -0.9,0.036 -0.72,0.072 -0.505,0.108 -0.215,0.144 0.145,0.144 0.215,0.108 m -10e-4,0 0.54,0.107 0.72,0.073 m 0,0 1.008,0.034 h 1.043 l 0.9,-0.071 0.684,-0.072 0.432,-0.143 0.072,-0.144 -0.217,-0.109 -0.503,-0.145 -0.216,-0.035 m 2.662,11.335 0.145,0.073 -0.324,0.25 -1.008,0.25 -1.51,0.146 -1.801,0.036 m 4.786,-1.043 -0.036,0.145 -0.359,0.217 -0.721,0.143 -1.043,0.144 -1.26,0.072 -1.367,0.036 -1.367,-0.036 -1.295,-0.108 -1.043,-0.144 -0.793,-0.18 -0.396,-0.18 -0.07,-0.216 m 7.951,-2.556 -0.07,0.109 -0.469,0.144 -0.72,0.107 -0.971,0.072 h -1.08 l -1.007,-0.072 -0.9,-0.072 -0.611,-0.143 -0.253,-0.146 -0.036,-0.071 m 69.664,-1.692 v -0.107 m 1.872,-3.705 0,0 -0.432,0.144 -0.721,0.107 -0.863,0.072 h -0.937 l -0.862,-0.037 -0.72,-0.071 -0.468,-0.071 -0.037,-0.036 m 5.04,-0.542 -0.468,0.145 -0.72,0.108 -0.864,0.036 -0.936,0.035 -0.864,-0.035 -0.683,-0.072 -0.468,-0.109 -0.072,-0.034 m 5.075,-0.54 v 0.036 l -0.505,0.107 -0.72,0.108 -0.863,0.072 h -0.936 -0.863 l -0.684,-0.072 -0.469,-0.108 -0.035,-0.036 m 1.8,-0.215 -0.646,-0.036 -0.684,-0.072 -0.434,-0.108 m 1.764,0.216 -0.035,0.108 -0.072,0.144 m 0,-0.396 0.072,0.072 0.035,0.072 m 3.275,-0.324 -0.217,0.072 -0.611,0.144 -0.828,0.072 -0.899,0.036 h -0.72 m 3.238,-0.756 -0.215,0.072 -0.612,0.143 -0.828,0.072 -0.899,0.036 -0.898,-0.036 -0.793,-0.036 -0.574,-0.107 -0.217,-0.072 m 5.073,-0.54 -0.252,0.109 -0.648,0.107 -0.826,0.108 h -0.9 -0.9 l -0.791,-0.073 -0.539,-0.072 -0.182,-0.07 m 5.038,-0.541 -0.289,0.108 -0.646,0.108 -0.828,0.072 -0.9,0.036 h -0.899 l -0.792,-0.072 -0.539,-0.107 -0.145,-0.037 m 5.038,-0.539 -0.037,0.036 -0.539,0.107 -0.756,0.107 -0.9,0.072 h -0.898 l -0.863,-0.035 -0.648,-0.108 -0.396,-0.072 v -0.035 m 5.037,-0.542 -0.073,0.073 -0.54,0.107 -0.754,0.109 -0.9,0.035 h -0.9 l -0.863,-0.035 -0.646,-0.073 -0.361,-0.107 h -0.035 m 5.072,-0.539 -0.073,0.036 -0.54,0.144 -0.791,0.108 -0.898,0.036 h -0.9 l -0.828,-0.036 -0.646,-0.072 -0.396,-0.108 m -0.038,-0.504 -0.181,0.109 -0.215,0.108 m 5.543,-0.252 -0.36,0.107 -0.684,0.108 -0.828,0.072 -0.936,0.035 -0.863,-0.035 -0.756,-0.072 -0.504,-0.071 -0.216,-0.109 m 5.147,-0.504 -0.396,0.144 -0.648,0.108 -0.864,0.071 h -0.935 -0.865 l -0.755,-0.071 -0.505,-0.108 -0.07,-0.034 m 5.038,-0.541 -0.396,0.144 -0.684,0.107 -0.865,0.072 h -0.936 l -0.863,-0.036 -0.756,-0.036 -0.469,-0.107 -0.07,-0.036 m 5.002,-0.505 -0.396,0.072 -0.684,0.108 -0.864,0.072 -0.935,0.035 -0.864,-0.035 -0.72,-0.072 -0.469,-0.108 -0.07,-0.035 m 5.002,-0.037 0.179,0.108 0.145,0.107 m 0.036,-0.394 -0.181,0.071 -0.179,0.108 m 0.037,-0.035 -0.036,0.036 m 0.036,-0.505 -0.181,0.072 -0.575,0.144 -0.792,0.073 -0.9,0.036 h -0.936 l -0.791,-0.036 -0.612,-0.108 -0.288,-0.073 m 5.075,-0.539 -0.181,0.072 -0.611,0.143 -0.792,0.072 -0.899,0.036 h -0.936 l -0.792,-0.071 -0.576,-0.073 -0.251,-0.072 m 5.038,-0.539 -0.217,0.072 -0.612,0.107 -0.791,0.107 -0.9,0.037 -0.934,-0.037 -0.793,-0.035 -0.576,-0.072 -0.215,-0.107 m 2.625,0.504 1.151,-0.071 0.973,-0.109 0.646,-0.18 0.217,-0.18 -0.217,-0.18 m -5.899,0.36 0,0 0.251,0.145 0.685,0.108 1.007,0.071 1.188,0.036 m -0.002,0.432 1.151,-0.037 0.973,-0.143 0.646,-0.144 0.217,-0.216 -0.217,-0.144 m -5.899,0.324 0,0 0.251,0.145 0.685,0.144 1.007,0.072 h 1.188 m -0.002,0.467 1.151,-0.071 0.973,-0.109 0.646,-0.179 0.217,-0.217 -0.217,-0.144 m -2.77,0.72 -1.188,-0.036 -1.007,-0.072 -0.685,-0.108 -0.251,-0.143 v -0.037 m 5.902,0.468 -0.071,0.035 m 0.251,-0.216 v 0.072 m -0.108,-0.215 0.145,0.107 m -0.288,0.252 -0.433,0.108 -0.646,0.107 -0.792,0.073 -0.864,0.036 m -3.094,-0.359 0,0 0.251,0.144 0.685,0.107 1.007,0.073 1.151,0.036 m -10e-4,0.431 1.188,-0.034 0.973,-0.146 0.646,-0.143 0.217,-0.216 -0.217,-0.144 m -5.9,0.323 0,0 0.251,0.145 0.685,0.144 1.007,0.071 h 1.151 m -10e-4,0.469 1.188,-0.072 0.973,-0.108 0.646,-0.18 0.217,-0.215 -0.217,-0.146 m -5.9,0.325 v 0.035 l 0.251,0.144 0.685,0.107 1.007,0.072 1.151,0.037 m 2.806,-0.288 0.18,0.18 -0.18,0.18 -0.646,0.18 -1.008,0.108 -1.152,0.072 m -10e-4,0 h -1.078 l -0.973,-0.072 -0.684,-0.108 -0.359,-0.143 m 0.001,-0.037 v 0.037 m 0.179,-0.181 -0.072,0.035 -0.107,0.073 m 3.093,0.828 1.152,-0.036 1.008,-0.145 0.646,-0.143 0.18,-0.216 -0.18,-0.145 m -5.899,0.325 h -0.035 l 0.25,0.143 0.686,0.145 1.007,0.072 h 1.187 m -0.002,0.467 1.152,-0.071 0.971,-0.109 0.648,-0.18 0.215,-0.216 -0.215,-0.144 m -5.9,0.324 v 0.036 l 0.25,0.145 0.686,0.108 1.007,0.071 1.187,0.036 m 2.806,-0.287 0.18,0.18 -0.215,0.179 -0.648,0.181 -0.971,0.107 -1.152,0.073 m -10e-4,0 -1.187,-0.037 -1.007,-0.072 -0.686,-0.107 -0.25,-0.145 m 6.082,0.252 v 0.072 l -0.216,0.144 -0.468,0.144 -0.648,0.072 -0.791,0.073 -0.828,0.034 m 2.878,-0.646 0.072,0.036 m -6.08,0.251 0,0 0.25,0.144 0.686,0.144 1.007,0.071 h 1.187 m -10e-4,0.469 1.152,-0.072 0.971,-0.108 0.648,-0.181 0.215,-0.216 -0.215,-0.143 m -5.9,0.324 v 0.035 l 0.25,0.146 0.686,0.107 1.007,0.072 1.187,0.036 m -0.036,0.431 1.188,-0.071 0.971,-0.109 0.648,-0.18 0.215,-0.179 -0.215,-0.179 m -2.807,0.718 -1.151,-0.036 -1.007,-0.071 -0.686,-0.109 -0.25,-0.144 m 5.901,0.072 0.215,0.181 -0.215,0.216 -0.648,0.144 -0.971,0.143 -1.188,0.036 m -0.935,0 h 0.936 m -3.059,-0.359 0.035,0.072 0.396,0.144 0.719,0.107 0.973,0.036 m -2.016,-0.468 -0.143,0.072 m 3.094,0.864 1.188,-0.072 0.971,-0.108 0.648,-0.18 0.215,-0.216 -0.215,-0.144 m -5.901,0.325 -0.036,0.035 0.286,0.144 0.686,0.108 0.971,0.07 1.188,0.038 m -10e-4,0.432 1.151,-0.073 1.007,-0.106 0.648,-0.181 0.18,-0.18 -0.18,-0.18 m -5.9,0.36 h -0.036 l 0.251,0.144 0.684,0.109 1.008,0.071 1.188,0.036 m 2.806,-0.288 0.18,0.181 -0.216,0.215 -0.612,0.145 -1.007,0.144 -1.151,0.036 m -10e-4,0 h -0.828 l -0.791,-0.036 -0.648,-0.072 -0.503,-0.072 -0.288,-0.109 -0.071,-0.107 0.143,-0.071 m -0.072,-0.289 -0.035,0.036 0.359,0.145 0.684,0.107 0.971,0.071 h 1.08 m -10e-4,0 1.151,-0.071 1.007,-0.107 0.648,-0.181 0.18,-0.18 m -6.08,-0.288 -0.036,0.036 0.286,0.144 0.686,0.108 0.971,0.072 1.188,0.036 m -10e-4,-10e-4 1.188,-0.074 0.971,-0.107 0.648,-0.179 0.18,-0.181 m -6.081,-0.286 0,0 0.25,0.144 0.686,0.143 1.007,0.073 h 1.151 m 2.987,-0.54 -0.18,0.215 -0.648,0.144 -0.971,0.144 -1.188,0.037 m -0.935,-0.432 -0.936,-0.072 -0.756,-0.071 -0.396,-0.145 -0.035,-0.072 m 3.058,0.36 h -0.936 m 0.936,0 1.188,-0.072 0.971,-0.107 0.648,-0.181 0.18,-0.179 m -6.081,-0.29 v 0.036 l 0.25,0.145 0.686,0.108 1.007,0.072 1.151,0.036 m 0,0 1.188,-0.072 0.971,-0.108 0.648,-0.181 0.215,-0.179 m -6.116,-0.288 0,0 0.25,0.144 0.686,0.145 1.007,0.07 h 1.187 m -10e-4,0 1.152,-0.036 0.971,-0.144 0.648,-0.143 0.215,-0.216 m -2.986,0.109 h -1.187 l -1.007,-0.108 -0.686,-0.107 -0.107,-0.073 m 5.939,-0.252 v 0.071 l -0.216,0.144 -0.468,0.108 -0.648,0.107 -0.791,0.073 -0.828,0.036 m -3.13,-0.828 v 0.037 l 0.25,0.143 0.686,0.109 1.007,0.071 1.187,0.036 m -10e-4,0 1.152,-0.072 0.971,-0.107 0.648,-0.179 0.215,-0.181 m -6.079,-0.288 h -0.035 l 0.25,0.143 0.686,0.145 1.007,0.071 h 1.187 m -0.002,0 1.152,-0.035 1.008,-0.146 0.646,-0.143 0.18,-0.216 m -6.079,-0.25 h -0.035 l 0.25,0.143 0.686,0.108 1.007,0.108 h 1.187 m -0.002,0 1.152,-0.072 1.008,-0.108 0.646,-0.179 0.18,-0.181 m -6.079,-0.216 v -0.071 m 0,0.071 0.359,0.145 0.72,0.107 0.937,0.037 1.078,0.036 m -10e-4,0 1.188,-0.073 0.973,-0.107 0.646,-0.18 0.18,-0.179 m -6.08,-0.29 0,0 0.251,0.143 0.685,0.146 1.007,0.07 h 1.151 m -10e-4,0 1.188,-0.036 0.973,-0.144 0.646,-0.145 0.18,-0.215 m -6.08,-0.252 0,0 0.251,0.146 0.685,0.107 1.007,0.109 h 1.151 m 3.023,-0.541 -0.217,0.179 -0.646,0.181 -0.973,0.108 -1.188,0.073 m 0.036,-0.433 -1.188,-0.036 -1.007,-0.071 -0.685,-0.109 -0.106,-0.071 m 2.986,0.287 0.828,-0.036 0.792,-0.071 0.646,-0.109 0.469,-0.107 m 0.001,0 0.215,-0.144 v -0.073 m -6.08,-0.286 0,0 0.251,0.144 0.685,0.143 1.007,0.073 h 1.188 m -0.002,0 1.151,-0.036 0.973,-0.145 0.646,-0.144 0.217,-0.215 m -6.116,-0.252 0,0 0.251,0.144 0.685,0.109 1.007,0.107 h 1.188 m -0.002,0 1.151,-0.072 0.973,-0.107 0.646,-0.18 0.217,-0.18 m -2.987,0.107 -1.188,-0.036 -1.007,-0.071 -0.685,-0.107 -0.106,-0.073 m 5.974,-0.252 -0.037,0.072 -0.18,0.108 -0.358,0.107 -0.468,0.108 -0.576,0.072 -0.685,0.035 -0.684,0.036 m 2.988,-0.574 0,0 -0.18,0.18 -0.541,0.144 -0.791,0.108 -0.972,0.072 -0.504,0.035 -1.007,-0.035 -0.9,-0.036 -0.719,-0.107 -0.396,-0.109 -0.072,-0.107 m 0.396,-0.254 -0.36,-0.106 -0.036,-0.073 m 0.469,0.324 0.07,0.036 0.469,0.108 0.685,0.071 h 0.826 0.9 l 0.864,-0.071 0.72,-0.072 0.468,-0.145 0.216,-0.145 -0.071,-0.143 -0.396,-0.18 -0.361,-0.072 m -4.463,0.54 0.54,0.072 0.72,0.072 m -1.62,-0.359 -0.036,0.071 0.396,0.145 m 4.461,-0.54 -0.719,-0.072 -0.863,-0.072 h -0.899 l -0.899,0.036 -0.721,0.108 -0.503,0.107 -0.217,0.145 0.144,0.143 0.217,0.072 m -0.001,0 0.54,0.108 0.72,0.108 m 0,0.001 1.008,0.036 h 1.043 l 0.899,-0.072 0.684,-0.108 0.433,-0.108 0.071,-0.144 -0.216,-0.144 -0.504,-0.107 -0.217,-0.036 m 2.663,11.298 0.145,0.108 -0.323,0.251 -1.008,0.216 -1.512,0.145 -1.799,0.036 m 4.786,-1.008 -0.036,0.144 -0.359,0.179 -0.721,0.18 -1.044,0.144 -1.259,0.072 h -1.367 l -1.367,-0.035 -1.296,-0.073 -1.044,-0.144 -0.791,-0.179 -0.432,-0.216 -0.035,-0.179 m 7.952,-2.556 -0.072,0.108 -0.467,0.144 -0.72,0.108 -0.973,0.036 h -1.079 l -1.007,-0.036 -0.899,-0.108 -0.613,-0.108 -0.25,-0.181 -0.036,-0.035 m -32.027,-82.115 -3.348,0.756 m -6.691,1.51 -4.283,-0.432 m 6.117,10e-4 -1.834,0.432 m 54.011,3.598 v -1.007 m -16.337,-0.143 v 1.007 m 1.152,-2.124 h -0.037 l -0.791,0.504 -0.071,0.143 m 16.084,0.613 -0.468,-0.755 -0.684,-0.359 m -15.113,0.825 -0.072,0.146 m -79.848,34.903 2.699,-1.872 m -37.314,11.479 3.453,0.36 m 61.281,-28.75 v -1.01 m -16.301,-0.145 v 1.008 m 1.152,-2.124 h -0.036 l -0.791,0.505 -0.109,0.18 m 16.085,0.576 -0.433,-0.756 -0.72,-0.36 m -15.075,0.827 -0.072,0.144 m 46.994,5.578 -16.625,-23.354 m 14.718,24.793 -1.188,-0.107 m 4.462,32.456 3.455,0.359 m -41.381,27.601 -0.072,-0.036 m 0.035,-0.432 h -0.035 m 0.072,-0.432 -0.072,-0.036 m -5.578,-0.252 0,0 -0.215,0.108 m 0.215,0.324 h -0.035 l -0.18,0.108 m 0.215,0.324 -0.035,0.035 -0.18,0.072 m 0.215,0.361 h -0.035 l -0.18,0.072 m 5.468,-0.109 0.216,-0.072 0.181,-0.108 m -0.397,-0.251 0.18,-0.072 0.18,-0.108 m -0.36,-0.252 0.216,-0.106 0.181,-0.073 m -5.83,-0.361 0.18,0.072 0.18,0.108 m -0.395,0.253 0.18,0.106 0.215,0.074 m -0.395,0.251 0.18,0.108 0.18,0.107 m -0.36,0.253 0.18,0.072 0.215,0.108 m 5.47,-1.549 -0.072,-0.035 m 0.072,-0.431 h -0.072 m 0.072,-0.433 -0.037,-0.034 m 0.144,-0.361 -0.18,-0.072 m -5.542,0.179 h -0.035 l -0.18,0.108 m 0.215,0.325 h -0.035 l -0.18,0.108 m 0.18,0.323 -0.035,0.036 -0.18,0.071 m 5.504,0.325 0.181,-0.072 0.181,-0.108 m -0.398,-0.252 0.18,-0.071 0.217,-0.109 m -0.361,-0.251 0.181,-0.107 0.181,-0.107 m -0.362,-0.254 0.181,-0.072 0.181,-0.107 m -5.831,0.107 0.18,0.072 0.18,0.108 m -0.36,0.252 0.18,0.107 0.18,0.072 m -0.395,0.253 0.18,0.107 0.215,0.073 m 5.505,-1.512 -0.072,-0.036 m 0.037,-0.431 -0.037,-0.036 m 0.072,-0.396 -0.072,-0.036 m -5.578,0.179 h -0.035 l -0.18,0.109 m 0.215,0.324 h -0.035 l -0.18,0.107 m 0.215,0.325 -0.035,0.035 -0.18,0.072 m 5.469,-0.107 0.181,-0.109 0.216,-0.071 m -0.397,-0.252 0.181,-0.108 0.216,-0.108 m -0.397,-0.252 0.181,-0.072 0.216,-0.108 m -5.866,0.107 0.18,0.072 0.18,0.107 m -0.36,0.255 0.18,0.108 0.18,0.071 m -0.36,0.251 0.18,0.109 0.18,0.107 m 5.505,-1.582 h -0.072 m 0.037,-0.433 -0.037,-0.036 m 0.072,-0.396 -0.072,-0.036 m -5.541,-0.288 -0.037,0.036 -0.179,0.072 m 0.179,0.361 h -0.035 l -0.18,0.106 m 0.215,0.325 0,0 -0.215,0.107 m 5.469,0.325 0.217,-0.107 0.18,-0.073 m -0.397,-0.252 0.217,-0.109 0.18,-0.107 m -0.397,-0.252 0.181,-0.071 0.216,-0.108 m -5.83,-0.36 0.179,0.107 0.181,0.108 m -0.396,0.252 0.18,0.071 0.216,0.109 m -0.396,0.251 0.215,0.109 0.181,0.072 m -0.072,0.36 0.18,0.071 0.145,0.108 m 5.253,-1.618 -0.072,-0.036 m 0.035,-0.432 -0.035,-0.036 m 0.035,-0.397 -0.035,-0.036 m 0.035,-0.432 h -0.035 m -5.578,0.146 -0.037,0.035 -0.179,0.072 m 0.216,0.359 h -0.037 l -0.179,0.109 m 0.216,0.324 h -0.037 l -0.215,0.108 m 5.506,0.323 0.18,-0.107 0.18,-0.071 m -0.36,-0.253 0.18,-0.108 0.18,-0.108 m -0.36,-0.253 0.18,-0.071 0.18,-0.107 m -0.36,-0.252 0.18,-0.109 0.217,-0.071 m -5.867,0.071 0.179,0.109 0.181,0.071 m -0.36,0.287 0.179,0.071 0.181,0.109 m -0.396,0.253 0.215,0.108 0.181,0.072 m 5.506,-1.548 -0.145,-0.072 m -5.505,0.216 -0.216,0.108 m 5.937,7.736 v -0.251 m 0,-0.432 0.036,-0.036 m 0,-0.395 v -0.038 m 0,-0.395 v -0.036 m 0,-0.431 v -0.037 m 0,-0.395 v -0.036 m 0,-0.396 v -0.036 m 0,-0.432 v -0.036 m 0,-0.396 v -0.036 m 0,-0.396 v -0.036 m 0.036,-0.432 v -0.036 m 0,-0.395 v -0.036 m 0,-0.395 v -0.036 m 0,-0.434 v -0.035 m 0,-0.395 v -0.036 m 0,-0.396 v -0.036 m 0,-0.432 v -0.036 m 0,-0.396 v -0.036 m -6.117,-0.287 v 0.036 m 0,0.43 v 0.037 m 0,0.396 v 0.036 m 0,0.395 v 0.036 m 0,0.433 v 0.036 m 0,0.395 v 0.036 m 0,0.396 v 0.035 m 0,0.432 v 0.036 m -0.037,0.397 v 0.035 m 0,0.396 v 0.038 m 0,0.43 v 0.036 m 0,0.396 v 0.037 m 0,0.396 v 0.036 m 0,0.431 v 0.035 m 0,0.396 v 0.036 m 0,0.397 v 0.035 m -0.036,0.432 v 0.036 m 0,0.396 v 0.035 m 0,0.397 v 0.036 m 0.181,-7.881 0.359,0.179 m -0.54,7.702 -1.834,2.626 m 9.751,0.108 -1.8,-2.698 m 65.78,-5.686 h -0.036 m 0.036,-0.431 -0.036,-0.036 m 0.071,-0.396 -0.071,-0.036 m -5.578,-0.288 v 0.036 l -0.216,0.071 m 0.216,0.361 h -0.036 l -0.18,0.107 m 0.216,0.323 -0.036,0.037 -0.18,0.07 m 0.216,0.327 -0.036,0.036 -0.18,0.071 m 5.47,-0.107 0.216,-0.109 0.179,-0.071 m -0.395,-0.254 0.179,-0.106 0.181,-0.072 m -0.36,-0.288 0.216,-0.072 0.179,-0.108 m -5.829,-0.325 0.18,0.073 0.181,0.107 m -0.397,0.253 0.18,0.072 0.217,0.107 m -0.397,0.253 0.18,0.106 0.181,0.073 m -0.361,0.288 0.18,0.073 0.217,0.107 m 5.468,-1.584 h -0.071 m 0.071,-0.43 -0.071,-0.037 m 0.071,-0.395 -0.035,-0.036 m 0.142,-0.36 -0.179,-0.072 m -5.54,0.143 -0.037,0.036 -0.18,0.072 m 0.217,0.36 h -0.037 l -0.18,0.107 m 0.18,0.325 -0.036,0.036 -0.18,0.072 m 5.507,0.324 0.18,-0.108 0.179,-0.072 m -0.396,-0.252 0.179,-0.108 0.216,-0.072 m -0.358,-0.288 0.18,-0.071 0.179,-0.108 m -0.359,-0.253 0.18,-0.071 0.179,-0.109 m -5.83,0.071 0.18,0.108 0.181,0.108 m -0.361,0.253 0.18,0.071 0.181,0.109 m -0.397,0.252 0.18,0.108 0.217,0.072 m 5.505,-1.547 -0.072,-0.035 m 0.035,-0.397 -0.035,-0.036 m 0.072,-0.432 h -0.072 m -5.577,0.144 -0.037,0.036 -0.18,0.072 m 0.217,0.36 h -0.037 l -0.18,0.108 m 0.217,0.324 -0.037,0.036 -0.18,0.071 m 5.471,-0.107 0.18,-0.108 0.179,-0.071 m -0.359,-0.291 0.18,-0.071 0.216,-0.107 m -0.396,-0.252 0.18,-0.108 0.216,-0.07 m -5.867,0.069 0.18,0.108 0.181,0.108 m -0.361,0.252 0.18,0.071 0.181,0.109 m -0.361,0.253 0.18,0.108 0.181,0.073 m 5.505,-1.549 -0.072,-0.035 m 0.035,-0.397 -0.035,-0.036 m 0.072,-0.396 -0.072,-0.035 m -5.577,-0.288 0,0 -0.181,0.108 m 0.181,0.324 -0.037,0.035 -0.18,0.073 m 0.217,0.361 0,0 -0.217,0.106 m 5.471,0.325 0.216,-0.108 0.18,-0.072 m -0.396,-0.289 0.216,-0.071 0.18,-0.109 m -0.396,-0.251 0.18,-0.072 0.216,-0.108 m -5.831,-0.36 0.181,0.107 0.179,0.073 m -0.396,0.251 0.18,0.108 0.216,0.108 m -0.396,0.253 0.217,0.071 0.179,0.109 m -0.072,0.36 0.144,0.072 0.18,0.108 m 5.253,-1.62 -0.107,-0.072 m 0.072,-0.396 -0.037,-0.036 m 0.037,-0.396 -0.037,-0.037 m 0.037,-0.431 -0.037,-0.035 m -5.576,0.179 h -0.036 l -0.181,0.108 m 0.217,0.324 -0.036,0.036 -0.181,0.071 m 0.217,0.361 h -0.036 l -0.217,0.108 m 5.506,0.324 0.181,-0.107 0.18,-0.072 m -0.361,-0.29 0.181,-0.071 0.18,-0.107 m -0.361,-0.253 0.181,-0.108 0.18,-0.072 m -0.361,-0.252 0.181,-0.108 0.215,-0.071 m -5.866,0.071 0.181,0.108 0.179,0.072 m -0.36,0.252 0.181,0.108 0.179,0.107 m -0.396,0.253 0.217,0.071 0.179,0.107 m 5.505,-1.546 -0.144,-0.071 m -5.504,0.215 -0.217,0.108 m 5.938,7.737 v -0.287 m 0,-0.396 v -0.036 m 0.035,-0.397 v -0.035 m 0,-0.397 v -0.071 m 0,-0.396 v -0.036 m 0,-0.395 v -0.037 m 0,-0.396 v -0.072 m 0,-0.395 v -0.037 m 0,-0.395 v -0.036 m 0,-0.432 v -0.036 m 0,-0.396 0.037,-0.037 m 0,-0.393 v -0.037 m 0,-0.432 v -0.037 m 0,-0.395 v -0.037 m 0,-0.396 v -0.035 m 0,-0.432 v -0.036 m 0,-0.396 v -0.036 m 0,-0.395 v -0.036 m -6.117,-0.288 v 0.036 m 0,0.396 v 0.036 m 0,0.431 v 0.036 m 0,0.396 v 0.037 m 0,0.394 v 0.037 m 0,0.432 v 0.035 m 0,0.396 v 0.036 m -0.036,0.397 v 0.035 m 0,0.432 v 0.037 m 0,0.395 v 0.036 m 0,0.395 v 0.036 m 0,0.432 v 0.035 m 0,0.397 v 0.036 m 0,0.396 v 0.035 m 0,0.432 v 0.036 m 0,0.397 v 0.036 m -0.036,0.396 v 0.035 m 0,0.432 v 0.036 m 0,0.396 v 0.036 m 0.179,-7.881 0.359,0.181 m -0.538,7.7 -1.835,2.628 m 9.751,0.107 -1.8,-2.7"
         id="path4447" />
      <text
         sodipodi:linespacing="125%"
         id="text4459-1"
         font-size="7"
         transform="scale(1.0373524,0.96399256)"
         style="font-size:6px;font-style:normal;font-variant:normal;font-weight:bold;font-stretch:normal;text-align:start;line-height:125%;writing-mode:lr-tb;text-anchor:start;fill:#808080;font-family:Sans;-inkscape-font-specification:Sans Bold"
         x="291.75659"
         y="547.80035">M3x4mm Philips Countersunk Screw</text>
      <text
         sodipodi:linespacing="125%"
         id="text4471-7"
         font-size="7"
         transform="scale(1.0373524,0.96399256)"
         style="font-size:6px;font-style:normal;font-variant:normal;font-weight:bold;font-stretch:normal;text-align:start;line-height:125%;writing-mode:lr-tb;text-anchor:start;fill:#808080;font-family:Sans;-inkscape-font-specification:Sans Bold"
         x="508.60364"
         y="334.74377">M3 Nut</text>
      <text
         sodipodi:linespacing="125%"
         id="text4399-4"
         font-size="7"
         transform="scale(1.0373524,0.96399256)"
         style="font-size:6px;font-style:normal;font-variant:normal;font-weight:bold;font-stretch:normal;text-align:start;line-height:125%;writing-mode:lr-tb;text-anchor:start;fill:#808080;font-family:Sans;-inkscape-font-specification:Sans Bold"
         x="617.5166"
         y="334.73669">Base Plate</text>
      <text
         sodipodi:linespacing="125%"
         id="text4411-0"
         font-size="7"
         transform="scale(1.0373524,0.96399256)"
         style="font-size:6px;font-style:normal;font-variant:normal;font-weight:bold;font-stretch:normal;text-align:start;line-height:125%;writing-mode:lr-tb;text-anchor:start;fill:#808080;font-family:Sans;-inkscape-font-specification:Sans Bold"
         x="616.48627"
         y="548.15436">Battery Holder</text>
    </g>
  </g>
</svg>
