<?xml version="1.0" encoding="utf-8"?>
<!-- Generator: Adobe Illustrator 22.0.0, SVG Export Plug-In . SVG Version: 6.00 Build 0)  -->
<svg version="1.1" id="图层_1" xmlns="http://www.w3.org/2000/svg" xmlns:xlink="http://www.w3.org/1999/xlink" x="0px" y="0px"
	 viewBox="0 0 115.6 93.7" style="enable-background:new 0 0 115.6 93.7;" xml:space="preserve">
<style type="text/css">
	.st0{fill:none;stroke:#000000;stroke-width:0.75;stroke-miterlimit:10;}
	.st1{fill:none;stroke:#BE4341;stroke-width:0.75;stroke-miterlimit:10;}
	.st2{fill:#5195CC;}
	.st3{fill:#323333;}
	.st4{fill:#F8D17B;}
	.st5{fill:#CBCBCC;}
	.st6{fill:#5E5B5A;}
	.st7{fill:#757575;}
	.st8{fill:#DBBF82;}
	.st9{fill:#595959;}
	.st10{fill:#B9BABA;}
	.st11{fill:#615F5F;}
	.st12{fill:#CCCCCC;}
	.st13{fill:#8D8D8E;}
	.st14{fill:#D3D4D4;}
	.st15{fill:#8B8B8B;}
	.st16{fill:#AAABAB;}
	.st17{fill:#FFFFFF;}
	.st18{fill:#D5D5D6;}
	.st19{fill:#969797;}
	.st20{fill:none;stroke:#FFFFFF;stroke-width:0.9628;stroke-linecap:round;stroke-miterlimit:10;}
	.st21{fill:none;stroke:#FFFFFF;stroke-width:0.9628;stroke-linecap:round;stroke-linejoin:round;stroke-miterlimit:10;}
	.st22{fill:none;stroke:#FFFFFF;stroke-width:0.4525;stroke-linecap:round;stroke-miterlimit:10;}
	.st23{fill:#747374;}
	.st24{fill:#0099D9;}
	.st25{fill:none;stroke:#000000;stroke-width:0.9117;stroke-miterlimit:10;}
	.st26{fill:#868687;}
	.st27{fill:#EFEFEF;}
	.st28{fill:#6EC9F1;}
	.st29{fill:#949494;}
	.st30{fill:#494645;}
	.st31{fill:#B1A186;}
	.st32{fill:#9C9C9C;}
	.st33{fill:#575757;}
	.st34{fill:#545454;}
	.st35{fill:#D1D1D1;}
	.st36{fill:#C9C9C9;}
	.st37{fill:#474747;}
	.st38{fill:#969696;}
	.st39{fill:#C4C4C4;}
	.st40{fill:none;stroke:#FFFFFF;stroke-width:0.2279;stroke-miterlimit:10;}
	.st41{fill:#807F80;}
	.st42{fill:#A2A2A2;}
	.st43{fill:#CBCCCC;}
	.st44{fill:none;stroke:#FFFFFF;stroke-width:0.4558;stroke-linecap:round;stroke-linejoin:round;stroke-miterlimit:10;}
	.st45{fill:#8C8A8A;}
	.st46{fill:#040000;}
	.st47{fill:#A9A9A8;}
	.st48{fill:#525151;}
	.st49{fill:#8C8C8C;}
	.st50{fill:none;stroke:#FFFFFF;stroke-width:0.3183;stroke-linecap:round;stroke-linejoin:round;stroke-miterlimit:10;}
	.st51{fill:#CECFCE;}
	.st52{fill:#282828;}
	.st53{fill:#557D4E;}
	.st54{fill:#83B27A;}
	.st55{fill:#ABA8A8;}
	.st56{fill:#757373;}
	.st57{fill:#898989;}
	.st58{fill:#A6D290;}
	.st59{fill:#666666;}
	.st60{fill:#C7C7C7;}
	.st61{fill:#EC6C6D;}
	.st62{fill:#1D1E1E;}
	.st63{fill:#E1E0E0;}
	.st64{fill:#BDBDBC;}
	.st65{fill:#686969;}
	.st66{fill:#B8B32E;}
	.st67{fill:#F3EC30;}
	.st68{fill:#FBFDFF;}
	.st69{fill:none;stroke:#F08318;stroke-width:10.9277;stroke-linecap:round;stroke-linejoin:round;stroke-miterlimit:10;}
	.st70{fill:#EBEBEC;}
	.st71{fill:#D7D7D8;}
	.st72{fill:#E9EAEA;}
	.st73{fill:#E7B47C;}
	.st74{fill:#E8E8E8;}
	.st75{fill:#003F88;}
	.st76{fill:#0054A7;}
	.st77{fill:#B7B8B8;}
	.st78{fill:#EED18B;}
	.st79{font-family:'MicrosoftYaHei';}
	.st80{font-size:4.1434px;}
	.st81{font-size:3.5941px;}
	.st82{fill:#F5A200;}
	.st83{fill:#E0E0E0;}
	.st84{fill:none;}
	.st85{font-size:9.1169px;}
	.st86{fill:none;stroke:#040000;stroke-miterlimit:10;}
	.st87{fill:none;stroke:#E72823;stroke-miterlimit:10;}
	.st88{fill:none;stroke:#6AB82D;stroke-miterlimit:10;}
	.st89{fill:#C4C6C6;}
	.st90{fill:#A0A0A1;}
	.st91{fill:#F2F2F2;}
	.st92{fill:#CFCFCF;}
	.st93{fill:none;stroke:#353535;stroke-width:0.146;stroke-miterlimit:10;}
	.st94{fill:none;stroke:#353535;stroke-width:6.315500e-02;stroke-miterlimit:10;}
	.st95{fill:none;stroke:#353535;stroke-width:5.568400e-02;stroke-miterlimit:10;}
	.st96{fill:#353535;}
	.st97{fill:none;stroke:#000000;stroke-width:7.298800e-02;stroke-miterlimit:10;}
	.st98{fill:#3E3F40;}
	.st99{fill:#FBD7AF;}
</style>
<rect x="1.3" y="78.7" class="st2" width="114.3" height="14.9"/>
<g>
	<g>
		<rect x="35.3" y="25.2" class="st75" width="46.2" height="33.4"/>
		<rect x="51.6" y="17" class="st76" width="26.5" height="8.2"/>
		<rect x="62.3" y="12" class="st77" width="9.6" height="5"/>
		<path class="st76" d="M79.1,69.3H37.6c-1.3,0-2.3-1-2.3-2.3v-8.3h46.2v8.3C81.4,68.2,80.4,69.3,79.1,69.3z"/>
		<rect x="26.5" y="32.2" class="st76" width="63.8" height="5.1"/>
		<rect x="41.1" y="36.3" class="st78" width="36.1" height="27.1"/>
		<rect x="43.1" y="37.8" width="32.1" height="24.1"/>
		<g>
			<path class="st78" d="M74.3,53.9H43.9v-7.6h30.3V53.9z M44.3,53.6h29.6v-6.8H44.3V53.6z"/>
		</g>
		<rect x="44.7" y="47.1" class="st78" width="28.8" height="6.1"/>
		<text transform="matrix(1 0 0 1 50.4404 58.614)" class="st78 st79 st80">DF9GMS</text>
		<text transform="matrix(1 0 0 1 45.9931 51.152)" class="st79 st81">Micro Servo 9g</text>
		<g>
			<path class="st82" d="M51,42.7c0.4-0.2,0.8-0.5,1.2-0.7c0-0.1,0-0.2,0-0.3c0,0,0-0.1,0-0.1c0,0-0.1-0.1-0.1-0.1
				c-0.1-0.2,0.1-0.3,0.2-0.3c0.1,0,0.2,0.1,0.2,0.2c0,0.1,0,0.2-0.1,0.2c0,0.1,0,0.2,0,0.3c0,0,0,0,0,0c0.1,0,0.1,0.1,0.1,0.1
				c0.1,0.1,0.2,0.1,0.3,0.2c0.1,0,0.1,0.1,0.2,0.1c0.2,0.1,0.3,0.2,0.5,0.3c0,0,0.1,0,0.1,0c0.1,0,0.1-0.1,0.2-0.1
				c0-0.1,0-0.1,0.1-0.2c0,0,0.1-0.1,0.2-0.1c0.1,0,0.2,0.1,0.2,0.1c0,0.1,0,0.2,0,0.3c0,0-0.1,0.1-0.2,0.1c-0.1,0-0.1,0-0.2,0
				c-0.1,0.1-0.2,0.1-0.3,0.2c0,0,0,0.1,0,0.1c0,0.4,0,0.8,0,1.2c0,0.1,0,0.2-0.1,0.3c-0.1,0.1-0.2,0.1-0.3,0.2
				c-0.1,0.1-0.2,0.1-0.3,0.2c-0.1,0-0.1,0.1-0.2,0.1c-0.1,0.1-0.2,0.1-0.3,0.2c-0.1,0.1-0.2,0.1-0.3,0c-0.1-0.1-0.3-0.2-0.4-0.3
				c-0.2-0.1-0.3-0.2-0.5-0.3c-0.1,0-0.2-0.1-0.2-0.1c-0.1-0.1-0.1-0.1-0.1-0.2c0-0.2,0-0.3,0-0.5c0-0.3,0-0.5,0-0.8
				c0-0.1,0-0.1-0.1-0.1c-0.1,0-0.1-0.1-0.2-0.1c0,0-0.1,0-0.1,0c0,0,0,0,0,0c-0.1,0-0.1,0-0.2,0c0,0-0.1-0.1-0.1-0.1
				c0-0.1,0-0.3,0.1-0.3c0.1,0,0.1,0,0.2,0c0,0,0.1,0,0.1,0.1c0,0,0.1,0.1,0.1,0.1c0,0,0,0,0,0C50.8,42.6,50.9,42.7,51,42.7z
				 M53.5,43.5c-0.1,0-2.4,0-2.4,0c0,0,0,0,0,0.1c0,0.1,0,0.3,0,0.4c0,0.1,0,0.1,0.1,0.1c0.1,0,0.2,0,0.2,0.1c0,0,0.1,0,0.1,0
				c0.1,0,0.1,0,0.2,0.1c0.1,0,0.3,0.1,0.4,0.1c0.1,0,0.1,0,0.2,0c0.1,0,0.1,0,0.2-0.1c0.1,0,0.2-0.1,0.3-0.1c0,0,0.1,0,0.1,0
				c0,0,0.1,0,0.1,0c0.1,0,0.2-0.1,0.2-0.1c0.1,0,0.1,0,0.2-0.1c0.1,0,0.1-0.1,0.1-0.1C53.5,43.8,53.5,43.6,53.5,43.5z"/>
			<path class="st82" d="M56.1,44.1c0,0,0-0.1,0-0.1c0-0.5,0-1,0-1.5c0-0.1,0-0.1,0.1-0.1c0.3,0,0.6,0,0.9,0c0.1,0,0.2,0,0.3,0
				c0.1,0,0.2,0,0.3,0.1c0.2,0.1,0.4,0.2,0.5,0.4c0.1,0.1,0.1,0.3,0.1,0.4c0,0,0,0,0,0c0,0.2-0.1,0.4-0.2,0.5c0,0,0,0,0,0
				c-0.1,0.1-0.3,0.2-0.5,0.3c-0.1,0-0.3,0-0.4,0c-0.3,0-0.7,0-1,0C56.2,44.1,56.2,44.1,56.1,44.1z M56.7,43.7c0.2,0,0.3,0,0.4,0
				c0.1,0,0.3,0,0.4-0.1c0.2-0.1,0.2-0.2,0.2-0.3c0,0,0-0.1,0-0.1c0-0.1,0-0.2-0.1-0.3c-0.1-0.1-0.2-0.1-0.3-0.1c-0.2,0-0.4,0-0.6,0
				c0,0-0.1,0-0.1,0C56.7,43.1,56.7,43.4,56.7,43.7z"/>
			<path class="st82" d="M59.1,43.5c0,0.1,0,0.2,0,0.3c0,0.1,0,0.2,0,0.3c-0.2,0-0.4,0-0.5,0c0,0,0,0,0-0.1c0-0.5,0-1,0-1.5
				c0-0.1,0-0.1,0.1-0.1c0.6,0,1.1,0,1.7,0c0.1,0,0.1,0,0.1,0.1c0,0.1,0,0.2,0,0.3c0,0-0.1,0-0.1,0c-0.4,0-0.7,0-1.1,0
				c0,0-0.1,0-0.1,0c0,0.1,0,0.2,0,0.3c0.3,0,0.7,0,1,0c0,0,0,0,0,0.1c0,0.1,0,0.2,0,0.3c0,0.1,0,0.1-0.1,0.1c-0.2,0-0.5,0-0.7,0
				C59.2,43.5,59.2,43.5,59.1,43.5z"/>
			<path class="st83" d="M66.3,43.2c0.1,0.1,0.2,0.1,0.2,0.3c0,0.1,0,0.2,0,0.3c0,0.2-0.1,0.3-0.2,0.3c-0.1,0-0.1,0-0.2,0
				c-0.4,0-0.8,0-1.2,0c0,0-0.1,0-0.1,0c0,0,0-0.1,0-0.1c0-0.5,0-1,0-1.5c0,0,0,0,0,0c0,0,0-0.1,0.1-0.1c0,0,0,0,0.1,0
				c0.4,0,0.8,0,1.2,0c0.1,0,0.1,0,0.2,0c0.1,0,0.2,0.1,0.2,0.3c0,0.1,0,0.2,0,0.2C66.5,43.1,66.4,43.2,66.3,43.2
				C66.3,43.2,66.3,43.2,66.3,43.2z M65.1,43.3c0,0.2,0,0.4,0,0.5c0,0,0.1,0,0.1,0c0.3,0,0.5,0,0.8,0c0,0,0.1,0,0.1,0
				c0.1,0,0.1-0.1,0.1-0.1c0-0.1,0-0.1,0-0.2c0-0.1,0-0.2-0.2-0.2c-0.3,0-0.5,0-0.8,0C65.2,43.3,65.1,43.3,65.1,43.3z M65.1,43.1
				c0.3,0,0.7,0,1,0c0,0,0.1,0,0.1,0c0,0,0,0,0-0.1c0-0.1,0-0.2,0-0.3c0-0.1,0-0.1-0.1-0.1c0,0,0,0,0,0c-0.3,0-0.6,0-0.9,0
				c0,0,0,0-0.1,0C65.1,42.8,65.1,42.9,65.1,43.1z"/>
			<path class="st83" d="M63.6,44.1c-0.2,0-0.5,0-0.7,0c-0.1,0-0.2,0-0.2-0.1c-0.1-0.1-0.1-0.1-0.1-0.2c0-0.4,0-0.7,0-1.1
				c0-0.2,0.1-0.3,0.3-0.3c0.2,0,0.4,0,0.6,0c0.2,0,0.5,0,0.7,0c0.1,0,0.2,0,0.2,0c0.1,0,0.2,0.1,0.2,0.3c0,0.3,0,0.6,0,1
				c0,0.1,0,0.2,0,0.2c0,0.2-0.1,0.2-0.3,0.2C64,44.1,63.8,44.1,63.6,44.1C63.6,44.1,63.6,44.1,63.6,44.1z M64.2,42.7
				c-0.2,0-1.3,0-1.4,0c0,0.2,0,1.1,0,1.2c0.5,0,0.9,0,1.4,0C64.2,43.4,64.2,43.1,64.2,42.7z"/>
			<path class="st83" d="M67.7,44.1c-0.2,0-0.4,0-0.7,0c-0.1,0-0.1,0-0.2,0c-0.1,0-0.1-0.1-0.1-0.2c0-0.3,0-0.7,0-1
				c0-0.1,0-0.2,0-0.2c0-0.1,0.1-0.2,0.2-0.2c0.1,0,0.3,0,0.4,0c0.3,0,0.6,0,0.8,0c0.1,0,0.2,0,0.3,0c0.1,0,0.2,0.1,0.2,0.3
				c0,0.2,0,0.5,0,0.7c0,0.1,0,0.2,0,0.3c0,0.1,0,0.1,0,0.2c0,0.1-0.1,0.2-0.3,0.2C68.2,44.1,67.9,44.1,67.7,44.1
				C67.7,44.1,67.7,44.1,67.7,44.1z M67,42.7c0,0.2,0,1.1,0,1.2c0.2,0,1.3,0,1.4,0c0-0.4,0-0.8,0-1.2C67.9,42.7,67.5,42.7,67,42.7z"
				/>
			<path class="st83" d="M60.9,43.5c0,0.2,0,0.4,0,0.6c-0.1,0-0.2,0-0.3,0c0,0,0,0,0-0.1c0-0.5,0-1,0-1.5c0,0,0,0,0,0
				c0,0,0-0.1,0.1-0.1c0,0,0,0,0.1,0c0.4,0,0.8,0,1.2,0c0.1,0,0.2,0,0.3,0.1c0.1,0,0.1,0.1,0.1,0.2c0,0.2,0,0.4,0,0.5
				c0,0.1,0,0.2-0.1,0.2c-0.1,0-0.2,0-0.2,0.1c-0.1,0-0.1,0-0.2,0c0.2,0.2,0.5,0.4,0.7,0.6c0,0,0,0,0,0c-0.1,0-0.2,0-0.3,0
				c-0.1,0-0.2,0-0.3-0.1c-0.2-0.2-0.3-0.3-0.5-0.5c0,0,0,0-0.1,0C61.2,43.5,61.1,43.5,60.9,43.5z M60.9,43.2c0.1,0,0.2,0,0.3,0
				c0.2,0,0.5,0,0.7,0c0,0,0,0,0.1,0c0,0,0.1,0,0.1-0.1c0,0,0,0,0-0.1c0-0.1,0-0.2,0-0.3c0-0.1,0-0.1-0.1-0.1c-0.3,0-0.6,0-0.9,0
				c0,0,0,0-0.1,0C60.9,42.8,60.9,43,60.9,43.2z"/>
			<path class="st83" d="M69.6,44.1c0-0.5,0-0.9,0-1.4c-0.1,0-0.3,0-0.4,0c-0.1,0-0.2,0-0.4,0c0,0,0-0.1,0-0.1c0,0,0-0.1,0-0.1
				c0,0,0.1,0,0.1,0c0.5,0,1.1,0,1.6,0c0,0,0,0,0,0c0.1,0,0.1,0,0.1,0.1c0,0.1,0,0.1,0,0.2c0,0-0.1,0-0.1,0c-0.2,0-0.4,0-0.6,0
				c0,0,0,0-0.1,0c0,0,0,0-0.1,0c0,0,0,0.1,0,0.1c0,0.4,0,0.8,0,1.2c0,0,0,0.1,0,0.1C69.8,44.1,69.7,44.1,69.6,44.1z"/>
			<path class="st83" d="M55.5,44.9c0-0.1,0-0.1,0-0.2c0-0.1,0-0.1,0.1-0.1c0.1,0,0.2,0,0.3,0c0.1,0,0.2,0,0.3,0.1
				c0.1,0.1,0.1,0.3-0.1,0.4c-0.1,0-0.1,0-0.2,0c-0.1,0-0.1,0-0.2,0c-0.1,0-0.1,0-0.1-0.1C55.5,45,55.5,44.9,55.5,44.9z M55.7,45
				c0.1,0,0.2,0,0.2,0c0.1,0,0.1,0,0.1-0.1c0,0,0-0.1,0-0.1c0-0.1-0.1-0.1-0.1-0.1c-0.1,0-0.2,0-0.3,0C55.7,44.8,55.7,44.9,55.7,45z
				"/>
			<path class="st83" d="M56.7,45c0.1,0.1,0.1,0.1,0.2,0.2c0,0,0,0,0,0c-0.1,0-0.1,0-0.2-0.1c0,0-0.1-0.1-0.1-0.1c0,0-0.1,0-0.1,0
				c0,0.1,0,0.1,0,0.2c0,0-0.1,0-0.1,0c0,0,0,0,0-0.1c0-0.1,0-0.3,0-0.4c0-0.1,0-0.1,0.1-0.1c0.1,0,0.2,0,0.3,0
				c0.1,0,0.1,0.1,0.1,0.1c0,0,0,0,0,0.1C56.9,44.9,56.8,44.9,56.7,45z M56.4,44.8c0.1,0,0.2,0,0.3,0c0,0,0-0.1,0-0.1
				c-0.1,0-0.2,0-0.3,0C56.4,44.8,56.4,44.8,56.4,44.8z"/>
			<path class="st83" d="M64.2,44.9c0.1,0.1,0.1,0.1,0.2,0.2c-0.1,0-0.1,0-0.2-0.1c0,0-0.1-0.1-0.1-0.1c0,0-0.1,0-0.1,0
				c0,0.1,0,0.1,0,0.2c0,0-0.1,0-0.1,0c0,0,0,0,0-0.1c0-0.1,0-0.3,0-0.4c0-0.1,0-0.1,0.1-0.1c0.1,0,0.2,0,0.3,0c0,0,0.1,0,0.1,0
				c0,0,0,0,0,0.1c0,0,0,0.1,0,0.1C64.3,44.9,64.3,44.9,64.2,44.9C64.2,44.9,64.2,44.9,64.2,44.9z M63.9,44.8c0.1,0,0.2,0,0.3,0
				c0,0,0.1,0,0.1-0.1c0,0,0-0.1-0.1-0.1c-0.1,0-0.2,0-0.3,0C63.9,44.8,63.9,44.8,63.9,44.8z"/>
			<path class="st83" d="M60.7,44.7c-0.1,0-0.3,0-0.4,0c0,0,0,0.1,0,0.1c0.1,0,0.1,0,0.2,0c0,0,0,0,0.1,0c0,0,0,0,0,0
				c0,0,0,0.1,0,0.1c0,0-0.1,0-0.1,0c0,0,0,0-0.1,0c0,0,0,0.1,0,0.1c0.1,0,0.3,0,0.4,0c0,0,0,0.1,0,0.1c0,0-0.4,0-0.5,0
				c0,0,0,0,0-0.1c0-0.1,0-0.2,0-0.4c0-0.1,0-0.1,0.1-0.1c0.1,0,0.2,0,0.3,0C60.7,44.6,60.7,44.6,60.7,44.7z"/>
			<path class="st83" d="M57.9,44.6c0.2,0,0.3,0,0.5,0c0,0,0,0,0,0c0,0,0,0,0,0.1c0,0,0,0,0,0c0,0-0.1,0-0.1,0c-0.1,0-0.2,0-0.3,0
				c0,0,0,0.1,0,0.1c0,0,0,0,0,0c0.1,0,0.1,0,0.2,0c0,0,0,0,0,0c0,0,0,0,0,0.1c-0.1,0-0.2,0-0.3,0c0,0,0,0.1,0,0.1c0,0,0,0,0.1,0
				c0.1,0,0.2,0,0.3,0c0.1,0,0.1,0,0.1,0.1c-0.2,0-0.3,0-0.5,0C57.9,45,57.9,44.8,57.9,44.6z"/>
			<path class="st83" d="M64.6,44.7C64.6,44.8,64.6,44.8,64.6,44.7c0.1,0.1,0.2,0.1,0.2,0.1c0,0.1,0,0.1-0.1,0.1c-0.1,0-0.1,0-0.2,0
				c0,0,0,0,0,0.1c0,0,0,0,0,0.1c0.1,0,0.1,0,0.2,0c0,0,0.1,0,0.1,0c0.1,0,0.1,0,0.1,0.1c-0.1,0-0.4,0-0.5,0c0-0.1,0-0.4,0-0.5
				c0,0,0.1,0,0.1,0c0.1,0,0.2,0,0.3,0c0,0,0.1,0,0.1,0.1c0,0.1-0.1,0.1-0.1,0.1C64.8,44.7,64.7,44.7,64.6,44.7z"/>
			<path class="st83" d="M59.9,45.1c0-0.1,0-0.1,0-0.2c-0.1,0-0.1,0-0.2,0c-0.1,0-0.1,0-0.2,0c0,0.1,0,0.1,0,0.2c0,0-0.1,0-0.1,0
				c0-0.1,0-0.1,0-0.2c0-0.1,0-0.2,0-0.3c0,0,0-0.1,0-0.1c0,0,0.1,0,0.1,0.1c0,0,0,0.1,0,0.2c0.1,0,0.2,0,0.4,0c0-0.1,0-0.1,0-0.1
				c0,0,0-0.1,0.1-0.1c0,0,0.1,0,0.1,0.1c0,0.2,0,0.3,0,0.5C60,45.1,60,45.2,59.9,45.1z"/>
			<path class="st83" d="M61.9,45c0.1,0,0.2,0,0.4,0c0-0.1,0-0.3,0-0.4c0.1,0,0.1,0,0.1,0.1c0,0.1,0,0.2,0,0.4c0,0.1,0,0.1-0.1,0.1
				c-0.1,0-0.2,0-0.4,0c-0.1,0-0.1,0-0.1-0.1c0-0.1,0-0.2,0-0.3c0,0,0-0.1,0-0.1c0,0,0.1,0,0.1,0.1c0,0.1,0,0.2,0,0.3
				C61.9,45,61.9,45,61.9,45z"/>
			<path class="st83" d="M63.2,45c0.1,0,0.2,0,0.4,0c0-0.1,0-0.2,0-0.3c0,0,0-0.1,0-0.1c0,0,0-0.1,0.1-0.1c0,0,0.1,0,0.1,0.1
				c0,0.1,0,0.2,0,0.2c0,0,0,0.1,0,0.1c0,0.1,0,0.1-0.1,0.1c-0.1,0-0.3,0-0.4,0c-0.1,0-0.1,0-0.1-0.1c0-0.1,0-0.3,0-0.4
				c0-0.1,0-0.1,0.1-0.1c0,0.1,0,0.1,0,0.2C63.2,44.9,63.2,45,63.2,45z"/>
			<path class="st83" d="M61.3,44.7c0,0,0,0.1,0,0.1c0,0,0,0,0.1,0c0,0,0.1,0,0.1,0c0,0,0.1,0,0.1,0c0,0,0,0-0.1,0
				c-0.1,0-0.1,0-0.2,0c0,0.1,0,0.1,0,0.2c0,0-0.1,0-0.1,0c0,0,0,0,0-0.1c0-0.1,0-0.3,0-0.4c0-0.1,0-0.1,0.1-0.1c0.1,0,0.3,0,0.4,0
				c0,0,0,0.1,0,0.1C61.6,44.7,61.5,44.7,61.3,44.7z"/>
			<path class="st83" d="M59,44.7c-0.1,0-0.1,0-0.2,0c0,0-0.1,0-0.1-0.1c0,0,0-0.1,0.1-0.1c0.2,0,0.3,0,0.5,0c0,0,0,0,0,0
				c0,0,0,0,0,0.1c0,0,0,0.1,0,0.1c-0.1,0-0.1,0-0.2,0c0,0.1,0,0.2,0,0.3c0,0.1-0.1,0.1-0.1,0.1c0,0,0,0,0-0.1
				C59,45,59,44.9,59,44.7C59,44.8,59,44.8,59,44.7z"/>
			<path class="st83" d="M62.8,44.7c0,0.1,0,0.2,0,0.3c0,0,0,0.1,0,0.1c0,0-0.1,0-0.1-0.1c0,0,0-0.1,0-0.1c0-0.1,0-0.2,0-0.3
				c-0.1,0-0.1,0-0.2,0c0,0-0.1,0-0.1,0c0,0,0-0.1,0.1-0.1c0.1,0,0.2,0,0.3,0c0.1,0,0.1,0,0.2,0c0,0,0.1,0,0.1,0.1c0,0,0,0-0.1,0
				C62.9,44.7,62.8,44.7,62.8,44.7z"/>
			<path class="st83" d="M57.8,44.6C57.8,44.6,57.8,44.7,57.8,44.6c-0.1,0.2-0.1,0.2-0.2,0.3c0,0-0.1,0.1-0.1,0.1
				c0,0.1-0.1,0.1-0.1,0.1c-0.1-0.2-0.2-0.3-0.3-0.5c0.1,0,0.1,0,0.1,0c0.1,0.1,0.1,0.2,0.2,0.3c0,0,0,0,0.1,0.1
				c0.1-0.1,0.1-0.2,0.2-0.3c0,0,0,0,0-0.1C57.7,44.6,57.7,44.6,57.8,44.6z"/>
			<path class="st83" d="M57,44.6C57,44.6,57,44.6,57,44.6c0.1,0,0.1,0,0.1,0.1c0,0.1,0,0.3,0,0.4c0,0.1,0,0.1-0.1,0.1
				c0,0-0.1,0-0.1-0.1c0,0,0-0.1,0-0.1C57,44.9,57,44.7,57,44.6z"/>
			<path class="st82" d="M52.3,43.5c0.4,0,0.7,0,1.1,0c0,0,0,0,0,0c0,0,0.1,0,0.1,0.1c0,0.1,0,0.3,0,0.4c0,0,0,0.1,0,0.1
				c0,0,0,0-0.1,0c-0.1,0-0.2,0.1-0.3,0.1c0,0-0.1,0-0.1,0c-0.1,0-0.2,0.1-0.3,0.1c-0.1,0-0.3,0.1-0.4,0.1c0,0-0.1,0-0.1,0
				c-0.1,0-0.2-0.1-0.4-0.1c-0.1,0-0.2,0-0.2-0.1c-0.1,0-0.1,0-0.1,0c-0.1,0-0.2-0.1-0.3-0.1c0,0,0,0,0-0.1c0-0.1,0-0.3,0-0.4
				c0-0.1,0-0.1,0.1-0.1c0.2,0,0.5,0,0.7,0C52.1,43.5,52.2,43.5,52.3,43.5z M53.4,43.7c-0.1,0-2,0-2.1,0c0,0.1,0,0.1,0,0.2
				c0,0.1,0,0.1,0.1,0.1c0.1,0,0.2,0.1,0.2,0.1c0.1,0,0.2,0.1,0.3,0.1c0.1,0,0.2,0.1,0.3,0.1c0.1,0,0.1,0,0.2,0c0,0,0.1,0,0.1,0
				c0.1,0,0.2-0.1,0.3-0.1c0.1,0,0.1,0,0.2-0.1c0.1,0,0.2-0.1,0.3-0.1c0,0,0,0,0,0c0,0,0,0,0-0.1C53.4,43.8,53.4,43.7,53.4,43.7z"/>
		</g>
	</g>
	<rect x="7.8" y="81.7" class="st84" width="101" height="8.9"/>
	<text transform="matrix(1 0 0 1 42.6074 89.5322)" class="st17 st79 st85">9g舵机</text>
</g>
</svg>
