<?xml version="1.0" encoding="UTF-8" standalone="no"?>
<svg xmlns="http://www.w3.org/2000/svg" xmlns:xlink="http://www.w3.org/1999/xlink" width="297.000mm" height="210.000mm" viewBox="0.000000 0.000000 297.000000 210.000000" stroke-linejoin="round" stroke-linecap="round" fill="none" fill-rule="evenodd"><desc>3DVIA Composer Export</desc><script type="text/ecmascript"><![CDATA[
if(typeof(top) != "undefined")
{
	top.ShowPaper = ShowPaper;
}
function ShowHotSpot(evt,hotspotid)
{
	var svgDocument = evt.target.ownerDocument;
	var strId = "hotspot."+hotspotid;
	var hotspot = svgDocument.getElementById(strId);
	if(hotspot)
		hotspot.setAttribute("opacity",".5");
}
function HideHotSpot(evt,hotspotid)
{
	var svgDocument = evt.target.ownerDocument;
	var strId = "hotspot."+hotspotid;
	var hotspot = svgDocument.getElementById(strId);
	if(hotspot)
		hotspot.setAttribute("opacity","0");

	var toolTip = svgDocument.getElementById('ToolTip');
	if(toolTip)
		toolTip.setAttribute("visibility","hidden");
}
function ShowToolTip(evt,hotspotid,strTooltip)
{
	if(strTooltip=="")
	return;

	// change text
	var svgDocument = evt.target.ownerDocument;
	var tiptext = svgDocument.getElementById('ToolTipText');
	if( !tiptext )
	return;
	tiptext.firstChild.nodeValue = " " + strTooltip + "  " ;

	// show tooltip before, else some refresh issue

	var toolTip = svgDocument.getElementById('ToolTip');
	if(!toolTip)
	return;

	toolTip.setAttribute("visibility","visible");
	toolTip.setAttribute("opacity",".95");

	// move tooltip
	// get viewbox

	var root = svgDocument.documentElement;
	var vbox = (root.getAttribute("viewBox")).split(' ');
	var x0 = parseFloat(vbox[0]);
	var y0 = parseFloat(vbox[1]);
	var vboxW = parseFloat(vbox[2]);
	var vboxH = parseFloat(vbox[3]);

	// get default width of svg

	var strW = root.getAttribute("width");
	var svgW = parseFloat(strW);
	if(strW.indexOf('mm') != -1)
	svgW *= 3.779;

	var strH = root.getAttribute("height");
	var svgH = parseFloat(strH);
	if(strH.indexOf('mm') != -1)
	svgH *= 3.779;  	// 96 dpi  -> 96/25.4 = 3.779

	// update the viewbox / width / height if svg is embedded in html with zoom fit all
	var realx0 = x0;
	var realy0 = y0;
	var realvboxW = vboxW;
	var realvboxH = vboxH;
	var realsvgW = svgW;
	var realsvgH = svgH;

	if ((typeof(top) == "undefined") || (typeof(top.svgctl1) != "undefined")) // embedded in html
	{
		// get window size in pxl

		svgW = window.innerWidth;
		svgH = window.innerHeight;

		// calculate real viewbox

		realsvgW = svgW;
		realsvgH = svgH;
		if((svgW / svgH) > (vboxW / vboxH))
		{
			realvboxW = (vboxH * svgW) / svgH;
			realvboxH = vboxH;
			realx0 = x0 - (realvboxW - vboxW)/2 ;
		}
		else
		{
			realvboxH = (vboxW * svgH) / svgW;
			realvboxW = vboxW;
			realy0 = y0 - (realvboxH - vboxH)/2 ;
		}
	}

	// get user zoom/pan

	var newScale = root.currentScale;
	var translation = root.currentTranslate;

	// transform pxl to user unit

	var xPos = (((evt.clientX+10- translation.x)/newScale) * realvboxW)/realsvgW  + realx0 ;
	var yPos = (((evt.clientY+5- translation.y)/newScale) * realvboxH)/ realsvgH  + realy0 ;
	var scaleForWidth = ( (1 / newScale) * realvboxH) / realsvgH;

	// move tooltip

	toolTip.setAttribute("transform", "translate(" + xPos + "," + yPos + ")" );

	// resize tooltip

	var fontsize = 12;
	tiptext.setAttribute("font-size",fontsize*scaleForWidth);
	tiptext.setAttribute("y", fontsize*scaleForWidth);
	var tipBG = svgDocument.getElementById('ToolTipBG');
	var outline = tiptext.getBBox();
	if(tipBG)
	{
		tipBG.setAttribute("stroke-width", 1*scaleForWidth);
		tipBG.setAttribute("width", Number(outline.width) );
		tipBG.setAttribute("height", Number(outline.height) + fontsize*.5*scaleForWidth );
	}
	var ToolTipShadow = svgDocument.getElementById('ToolTipShadow');
	if(ToolTipShadow)
	{
		ToolTipShadow.setAttribute("width", Number(outline.width) );
		ToolTipShadow.setAttribute("height", Number(outline.height) + fontsize*.5*scaleForWidth );
		ToolTipShadow.setAttribute("x", 3*scaleForWidth);
		ToolTipShadow.setAttribute("y", 3*scaleForWidth);
	}
}
function ShowPaper()
{
  var svgDocument = getDocument();
  var paper = svgDocument.getElementById("paperID");
  if(paper)
  {
    paper.setAttribute("transform","scale(1)");
    paper.setAttribute("opacity","1");
    paper.setAttribute("visibility","visible");
  }
  var svg = svgDocument.getRootElement();
  if(svg)
  {
    svg.setAttribute("width","307.000mm");
    svg.setAttribute("height","220.000mm");
    svg.setAttribute("viewBox","-5.000000 -5.000000 307.000000 220.000000");
  }
}
]]></script><defs/><g><path style="fill:#dcdcdc;fill-rule:evenodd" d="M161.67,11.87L161.67,35.11L117.23,60.78L117.22,37.38L119.45,33.71L159.62,10.61zM157.82,19.82L158.55,21.15L159.07,21.65L159.60,22.41L159.58,26.10L159.34,27.39L158.30,30.20L156.25,33.54L154.27,35.41L154.56,34.38L154.76,33.99L153.57,33.98L154.56,34.38L153.84,34.48L153.89,35.02L154.27,35.41L154.09,35.77L151.56,37.58L149.49,38.08L148.28,38.09L146.77,37.55L145.46,36.04L144.95,34.24L144.96,31.49L145.64,28.33L147.01,25.58L148.45,23.43L150.37,21.24L152.83,19.60L154.10,19.07L156.78,19.07zM139.82,34.49L140.36,34.99L140.36,35.86L140.13,36.16L138.45,36.81L138.43,37.66L139.54,37.80L139.55,38.04L139.24,38.83L139.49,39.10L139.56,40.37L139.24,40.88L139.50,41.15L139.53,41.90L139.33,42.54L138.41,43.21L137.97,43.21L137.97,42.96L137.53,42.70L137.25,37.57L136.22,36.77L136.21,36.12L136.48,34.82L137.68,34.23L139.06,34.23zM154.50,25.74L154.45,26.13L154.12,26.11L154.08,25.51zM153.15,25.96L153.41,26.01L153.41,26.62L153.10,26.55zM154.10,27.55L155.42,27.32L156.27,26.79L156.27,27.65L156.03,27.94L154.89,28.61L154.20,28.61zM153.57,33.98L154.76,33.99L154.56,34.38zM153.84,34.48L154.56,34.38L154.27,35.41L153.89,35.02zM138.52,35.61L138.56,34.79L138.82,34.74zM137.75,35.87L137.43,35.89L137.51,35.31L137.80,35.26zM166.03,41.74L163.69,42.55L163.69,41.76L164.62,41.15L166.04,41.17zM161.67,44.56L160.27,45.05L159.75,45.10L159.84,44.33L160.52,43.97L161.67,43.99zM154.92,47.39L155.63,46.79L156.79,46.82L156.80,47.40L155.64,47.57L155.36,47.83L154.96,47.86zM153.96,48.93L152.40,49.48L152.39,48.69L152.81,48.33L153.97,48.36zM148.33,50.99L145.63,51.42L144.09,52.18L143.65,52.79L143.65,52.01L144.35,51.17L146.41,50.40L148.32,50.41zM139.78,56.12L140.49,55.52L141.65,55.55L141.64,56.12L140.25,56.59L139.81,56.58zM138.81,57.65L137.24,58.20L137.25,57.42L137.67,57.06L138.83,57.09zM133.94,60.48L132.37,61.03L132.37,60.24L132.79,59.89L133.95,59.91zM129.83,62.81L128.43,62.96L127.49,63.59L127.47,62.78L128.18,62.21L128.95,61.94L129.82,61.94zM173.63,43.72L130.51,68.64L128.94,68.72L128.94,67.85L130.77,67.61L173.63,42.94L173.75,42.98zM146.26,70.26L146.17,69.93L146.46,69.88zM145.20,71.04L144.87,71.06L144.95,70.48L145.25,70.43zM147.95,72.23L146.94,72.75L145.89,72.83L145.90,71.97L147.56,71.31L148.05,70.93zM146.62,75.72L146.35,75.98L146.25,75.83L145.63,75.83L145.53,75.98L145.32,75.86L145.33,75.58L146.55,75.58zM146.25,76.17L145.63,76.17L145.53,75.98L146.35,75.98zM158.11,84.50L157.91,84.02L158.21,83.71L158.56,83.75L158.60,84.62zM155.78,85.76L155.59,85.31L155.89,85.01L156.51,85.04L156.51,85.93zM153.68,86.40L154.20,86.32L154.20,87.22L153.68,87.13zM151.37,87.69L151.89,87.60L151.89,88.50L151.37,88.42zM147.03,89.25L146.50,89.17L144.60,89.41L143.41,90.01L141.87,91.32L141.85,90.52L142.56,89.67L144.09,88.90L145.13,88.65L147.04,88.66zM146.78,90.27L144.62,90.71L143.41,91.58L143.39,90.77L143.83,90.18L144.86,89.66L146.78,89.69zM146.78,92.84L145.21,92.76L144.95,92.50L144.94,91.56L145.91,91.19L146.49,91.19zM146.65,93.29L148.22,93.03L149.48,92.22L149.85,91.73L149.85,92.60L149.21,93.25L147.70,93.79L145.61,93.86L145.62,93.27zM139.98,94.32L140.52,93.99L140.85,94.03L140.85,94.92L140.05,94.81zM138.02,95.39L138.54,95.30L138.54,96.21L138.02,96.12zM135.62,96.88L136.26,96.62L136.23,97.49L135.70,97.39zM133.30,98.17L133.84,97.84L134.18,97.88L134.18,98.77L133.37,98.66zM161.30,86.59L153.33,93.00L152.65,94.38L151.66,95.44L149.73,97.87L147.45,98.67L145.63,98.76L145.47,97.61L145.15,97.59L135.13,101.76L133.31,101.84L133.40,99.94L134.35,99.96L136.65,99.17L146.66,95.06L149.58,94.65L152.05,93.26L153.11,91.24L161.40,84.54zM148.81,123.80L148.79,127.65L148.33,128.31L147.63,128.62L147.71,125.63L148.53,124.83zM144.96,125.88L144.98,128.52L144.19,128.18L144.10,125.60L144.43,125.57zM146.76,126.08L146.92,128.26L147.63,128.62L147.51,128.79L146.48,128.71L146.52,125.83zM143.41,127.52L143.37,125.08L143.63,125.04zM145.70,128.57L145.41,128.57L145.41,125.83L145.70,125.83zM150.05,129.45L149.40,129.64L149.77,129.17L150.08,129.18zM145.12,130.23L147.97,130.00L149.40,129.64L149.00,130.00L146.67,130.49L145.16,130.47zM131.60,131.64L131.02,131.64L131.02,129.69L131.60,129.69zM152.41,130.08L152.15,130.58L150.50,132.01L148.22,132.81L144.86,132.90L144.86,131.51L148.55,131.10L150.75,130.21L151.88,129.30L152.30,128.66L152.41,128.69zM174.23,140.22L174.22,143.67L168.50,146.96L167.44,146.88L167.02,147.76L160.28,151.55L160.28,153.68L165.77,156.76L165.92,154.63L168.05,153.34L167.57,153.07L165.73,152.85L164.98,152.32L164.98,151.12L166.16,150.51L167.56,150.51L167.72,152.40L169.11,153.07L169.62,154.15L169.87,154.21L170.11,152.14L175.18,149.19L175.50,149.21L175.53,151.14L174.39,151.80L174.25,166.80L171.81,168.21L171.41,169.10L163.68,173.75L163.18,173.41L160.80,174.67L160.02,174.76L160.03,148.22L160.72,147.88L161.91,147.29L161.61,146.78L162.62,146.39L162.61,146.66L163.08,146.70L163.71,146.27L163.41,145.76L164.42,145.36L164.41,145.63L164.88,145.68L165.50,145.24L165.21,144.73L166.22,144.33L166.21,144.60L166.65,144.62L167.38,144.03L168.58,143.44L168.29,142.93L169.30,142.54L169.29,142.81L169.76,142.85L170.38,142.42L170.08,141.91L171.10,141.51L171.09,141.78L171.56,141.83L172.18,141.39L171.88,140.88L173.02,140.40L172.84,140.77L173.39,140.76L173.46,140.49L173.02,140.40L173.86,139.73zM162.59,141.28L164.64,140.77L166.03,139.84L166.78,139.05L167.22,137.96L170.30,136.10L170.63,136.12L170.63,138.28L167.23,140.27L166.17,142.04L164.21,143.16L161.29,143.58L157.93,145.65L157.46,145.75L157.46,143.60L161.39,141.29zM167.38,144.03L166.91,143.82L167.53,143.54zM172.68,146.75L173.61,146.14L175.00,146.15L174.98,148.02L174.18,148.54L173.44,148.49L172.68,147.95zM160.72,147.88L160.00,147.71L160.86,147.40zM170.45,148.87L170.12,149.35L170.12,148.79L170.40,148.72zM179.89,148.57L177.82,149.86L177.82,147.78L179.89,146.67zM157.53,173.61L157.03,173.98L156.89,173.40zM160.37,12.43L160.39,13.00L159.76,13.95L158.79,13.95L158.79,13.26L159.34,12.22L159.84,12.11zM132.12,34.75L132.90,36.28L133.68,36.78L133.91,37.82L133.91,40.73L133.39,42.77L132.12,45.87L130.10,48.98L127.27,51.54L124.86,52.73L121.61,52.70L120.07,51.41L119.53,50.41L119.28,49.38L119.28,45.86L120.05,43.03L122.02,39.11L124.31,36.52L126.13,35.00L128.44,33.97L131.37,33.96zM120.10,35.75L120.08,36.37L119.55,37.15L118.69,37.40L118.44,36.77L119.03,35.59L119.81,35.47zM146.35,75.98L145.53,75.98L145.63,75.83L146.25,75.83zM173.39,140.76L172.84,140.77L173.02,140.40L173.46,140.49z"/><g id="Actor_.0"><g style="stroke:#000000;stroke-width:0.353"><path d="M140.51,35.36L140.51,35.52L140.47,35.67L140.39,35.82L140.29,35.97L140.15,36.10L139.98,36.23L139.79,36.34L139.60,36.43L139.58,36.44L139.34,36.52L139.09,36.58L138.85,36.62L138.83,36.62L138.56,36.64L138.29,36.64L138.21,36.64L138.01,36.63L137.75,36.59L137.50,36.53L137.26,36.46L137.04,36.37L137.01,36.35L136.84,36.26L136.66,36.14L136.52,36.00L136.40,35.86L136.32,35.71L136.27,35.56L136.26,35.40"/><path d="M137.72,43.18L137.79,43.26L137.89,43.34L138.01,43.39L138.15,43.43L138.31,43.45L138.47,43.45L138.39,44.65L138.01,43.39"/><path d="M137.24,41.93L137.28,42.04L137.34,42.15L137.44,42.25L137.57,42.34L137.73,42.41L137.90,42.47L138.09,42.51L138.29,42.53L138.47,42.53L138.49,42.53L138.69,42.51L138.87,42.47L139.05,42.41L139.20,42.34L139.33,42.25L139.43,42.15L139.50,42.04L139.53,41.93"/><path d="M139.30,42.64L139.23,42.74L139.13,42.83L139.00,42.90L138.85,42.96L138.68,43.00L138.50,43.02L138.32,43.03L138.14,43.01L137.97,42.97L137.81,42.92L137.68,42.85L137.57,42.76L137.49,42.67L137.44,42.56"/><path d="M137.24,40.56L137.28,40.67L137.34,40.78L137.44,40.88L137.57,40.97L137.73,41.05L137.90,41.10L138.09,41.14L138.29,41.16L138.49,41.16L138.69,41.14L138.87,41.10L139.05,41.05L139.20,40.97L139.33,40.88L139.43,40.78L139.50,40.67L139.53,40.56"/><path d="M139.53,41.24L139.50,41.36L139.43,41.47L139.33,41.57L139.20,41.66L139.05,41.73L138.87,41.79L138.69,41.83L138.49,41.85L138.29,41.85L138.09,41.83L137.90,41.79L137.73,41.73L137.57,41.66L137.44,41.57L137.34,41.47L137.28,41.36L137.24,41.24"/><path d="M139.53,39.88L139.50,39.99L139.43,40.10L139.33,40.20L139.20,40.29L139.05,40.36L139.01,40.37L138.87,40.42L138.69,40.46L138.49,40.48L138.29,40.48L138.09,40.46L137.90,40.42L137.73,40.36L137.57,40.29L137.44,40.20L137.34,40.10L137.28,39.99L137.24,39.88"/><path d="M139.53,38.51L139.50,38.62L139.43,38.73L139.33,38.83L139.20,38.92L139.05,39.00L138.87,39.05L138.69,39.09L138.49,39.11L138.29,39.11L138.09,39.09L137.90,39.05L137.73,39.00L137.57,38.92L137.44,38.83L137.34,38.73L137.28,38.62L137.24,38.51"/><path d="M139.53,39.19L139.50,39.31L139.43,39.42L139.33,39.52L139.20,39.61L139.05,39.68L138.87,39.74L138.69,39.78L138.49,39.80L138.29,39.80L138.09,39.78L137.90,39.74L137.73,39.68L137.57,39.61L137.44,39.52L137.34,39.42L137.28,39.31L137.24,39.19"/><path d="M137.24,37.83L137.28,37.94L137.34,38.05L137.44,38.15L137.57,38.24L137.73,38.31L137.90,38.37L138.09,38.41L138.29,38.43L138.49,38.43L138.69,38.41L138.87,38.37L139.05,38.31L139.20,38.24L139.33,38.15L139.43,38.05L139.50,37.94L139.53,37.83"/><path d="M137.14,35.65L137.43,35.42L137.71,35.21"/><path d="M137.71,35.04L137.35,35.12L136.99,35.23"/><path d="M137.14,34.82L137.40,34.66L137.67,34.52L137.96,34.61L138.24,34.73L138.31,34.57L138.39,34.42L138.46,34.57L138.53,34.73L138.82,34.61L139.10,34.52L139.37,34.66L139.63,34.82"/><path d="M137.67,34.52L138.22,35.53"/><path d="M139.03,43.07L139.02,43.10L138.99,43.16L138.95,43.21L138.88,43.27L138.81,43.31L138.72,43.34L138.62,43.37L138.52,43.39L138.41,43.40L138.31,43.40L138.20,43.38L138.10,43.36L138.01,43.33L137.93,43.29L137.86,43.24L137.80,43.19L137.76,43.13L137.74,43.08"/><path d="M138.47,43.45L138.62,43.43L138.76,43.39L138.82,43.37L138.89,43.34L138.99,43.26L139.06,43.18"/><path d="M137.84,41.85L137.86,41.87L137.93,41.92L138.01,41.96L138.10,41.99L138.20,42.02L138.31,42.03L138.41,42.03L138.52,42.02L138.56,42.02L138.62,42.01L138.72,41.98L138.81,41.94L138.88,41.90L138.94,41.85"/><path d="M138.94,42.53L138.88,42.58L138.81,42.63L138.72,42.66L138.62,42.69L138.59,42.70L138.52,42.71L138.41,42.71L138.31,42.71L138.20,42.70L138.10,42.68L138.01,42.64L137.93,42.60L137.86,42.56L137.84,42.54"/><path d="M138.94,41.17L138.88,41.21L138.82,41.25L138.72,41.29L138.62,41.32L138.52,41.34L138.41,41.35L138.31,41.34L138.20,41.33L138.10,41.31L138.01,41.28L137.93,41.24L137.86,41.19L137.84,41.17"/><path d="M137.84,39.80L137.86,39.82L137.93,39.87L138.01,39.91L138.10,39.94L138.20,39.97L138.22,39.97L138.31,39.98L138.41,39.98L138.52,39.97L138.62,39.96L138.72,39.93L138.81,39.89L138.88,39.85L138.94,39.80"/><path d="M137.84,40.49L137.86,40.51L137.93,40.55L138.01,40.59L138.10,40.63L138.20,40.65L138.31,40.66L138.41,40.66L138.52,40.66L138.62,40.64L138.72,40.61L138.81,40.58L138.88,40.53L138.94,40.48"/><path d="M137.84,39.12L137.86,39.14L137.93,39.19L138.01,39.23L138.10,39.26L138.20,39.28L138.31,39.29L138.41,39.30L138.52,39.29L138.62,39.27L138.72,39.24L138.81,39.21L138.88,39.16L138.94,39.12"/><path d="M138.94,37.75L138.88,37.80L138.81,37.84L138.72,37.88L138.62,37.91L138.52,37.92L138.41,37.93L138.31,37.93L138.20,37.92L138.10,37.89L138.01,37.86L137.93,37.82L137.86,37.77L137.84,37.75"/><path d="M137.84,38.43L137.86,38.46L137.93,38.50L138.01,38.54L138.10,38.58L138.20,38.60L138.31,38.61L138.41,38.61L138.52,38.61L138.62,38.59L138.72,38.56L138.81,38.53L138.88,38.48L138.94,38.43"/><path d="M138.73,37.72L138.69,37.73L138.49,37.75L138.29,37.75L138.09,37.73L138.05,37.72"/><path d="M138.42,35.90L138.27,35.62"/><path d="M138.39,36.03L138.39,35.83L138.44,35.86"/><path d="M138.34,35.86L138.39,35.83L138.35,35.90"/><path d="M138.53,34.73L138.39,35.49L138.39,35.83L138.50,35.62"/><path d="M138.55,35.53L139.10,34.52"/><path d="M138.39,34.42L138.39,35.49L138.24,34.73"/><path d="M139.63,35.65L139.35,35.42L139.06,35.21"/><path d="M139.06,35.04L139.42,35.12L139.78,35.23"/></g><g style="stroke:#000000;stroke-width:0.705"><path d="M136.66,37.26L136.57,37.20L136.42,37.06L136.30,36.91L136.22,36.75L136.17,36.59L136.15,36.42L136.26,35.40L136.28,35.24L136.34,35.09L136.43,34.94L136.55,34.80L136.70,34.67L136.88,34.55L137.09,34.45L137.31,34.36L137.56,34.29L137.82,34.24L138.08,34.20L138.35,34.19L138.63,34.20L138.89,34.23L139.15,34.27L139.40,34.34L139.63,34.42L139.84,34.52L140.03,34.64L140.19,34.76L140.32,34.90L140.42,35.05L140.48,35.20L140.51,35.36L140.62,36.38L140.62,36.55L140.58,36.71L140.50,36.87L140.39,37.02L140.24,37.17L140.07,37.30L139.86,37.41L139.64,37.52L139.39,37.60L139.13,37.66L138.85,37.71L138.57,37.73L138.28,37.73L138.00,37.72L137.83,37.69L137.72,37.68L137.45,37.62L137.20,37.54L136.97,37.44L136.76,37.33L136.66,37.26"/><path d="M139.09,43.03L139.09,43.09L139.06,43.18L138.39,44.65L137.72,43.18L137.68,43.09L137.68,43.02L137.65,42.99L137.59,42.90L137.44,42.56L137.43,42.46L137.45,42.35L137.45,42.34"/><path d="M139.41,41.57L139.43,41.59L139.50,41.70L139.53,41.81L139.53,42.01L139.50,42.13L139.43,42.24L139.33,42.34L139.20,42.42L139.05,42.50L138.87,42.56L138.69,42.60L138.49,42.62L138.29,42.62L138.09,42.60L137.90,42.56L137.73,42.50L137.57,42.42L137.44,42.34L137.34,42.24L137.28,42.13L137.24,42.01L137.24,41.94"/><path d="M137.24,41.97L137.24,42.00L137.24,41.81L137.24,41.91"/><path d="M139.32,42.34L139.35,42.43L139.34,42.54L139.30,42.64L139.16,42.95L139.08,43.04L139.02,43.08L138.97,43.11L138.84,43.18L138.68,43.22L138.52,43.25L138.34,43.25L138.17,43.24L138.01,43.20L137.87,43.15L137.75,43.08L137.68,43.02"/><path d="M137.36,41.57L137.34,41.59L137.28,41.70L137.24,41.81L137.24,41.86"/><path d="M137.24,40.54L137.24,40.44L137.24,40.65L137.28,40.76L137.34,40.87L137.44,40.97L137.57,41.06L137.73,41.13L137.90,41.19L138.09,41.23L138.29,41.25L138.49,41.25L138.69,41.23L138.87,41.19L139.05,41.13L139.20,41.06L139.33,40.97L139.43,40.87L139.50,40.76L139.53,40.65L139.53,40.44L139.50,40.33L139.43,40.22L139.41,40.20"/><path d="M137.24,41.18L137.24,41.13L137.24,41.33L137.24,41.26"/><path d="M137.36,40.89L137.34,40.90L137.28,41.01L137.24,41.13L137.24,41.23"/><path d="M137.24,41.29L137.24,41.33L137.28,41.44L137.34,41.55L137.44,41.65L137.57,41.74L137.73,41.82L137.90,41.87L138.09,41.91L138.29,41.93L138.49,41.93L138.69,41.91L138.87,41.87L139.05,41.82L139.20,41.74L139.33,41.65L139.43,41.55L139.50,41.44L139.53,41.33L139.53,41.13L139.50,41.01L139.43,40.90L139.41,40.89"/><path d="M137.24,39.86L137.24,39.85L137.24,39.96L137.24,39.90"/><path d="M137.24,39.85L137.24,39.76L137.24,39.81"/><path d="M139.53,39.87L139.53,39.85L139.53,39.96L139.50,40.08L139.43,40.19L139.33,40.29L139.20,40.37L139.05,40.45L138.87,40.51L138.69,40.55L138.49,40.57L138.29,40.57L138.09,40.55L137.90,40.51L137.73,40.45L137.57,40.37L137.44,40.29L137.34,40.19L137.28,40.08L137.24,39.96L137.24,39.92"/><path d="M137.24,40.58L137.24,40.65L137.24,40.61"/><path d="M137.36,40.20L137.34,40.22L137.28,40.33L137.24,40.44L137.24,40.49"/><path d="M137.24,38.53L137.24,38.60L137.28,38.71L137.34,38.82L137.44,38.92L137.57,39.01L137.73,39.08L137.90,39.14L138.09,39.18L138.29,39.20L138.49,39.20L138.69,39.18L138.87,39.14L139.05,39.08L139.20,39.01L139.33,38.92L139.43,38.82L139.50,38.71L139.53,38.60L139.53,38.39L139.50,38.28L139.43,38.17L139.41,38.15"/><path d="M137.24,39.17L137.24,39.08L137.28,38.96L137.34,38.85L137.36,38.84"/><path d="M139.41,38.84L139.43,38.85L139.50,38.96L139.53,39.08L139.53,39.28L139.50,39.39L139.43,39.50L139.33,39.60L139.20,39.69L139.05,39.77L138.87,39.82L138.69,39.86L138.49,39.88L138.29,39.88L138.09,39.86L137.90,39.82L137.74,39.77L137.73,39.77L137.57,39.69L137.44,39.60L137.34,39.50L137.28,39.39L137.24,39.28L137.24,39.08L137.24,39.12"/><path d="M137.24,39.22L137.24,39.28L137.24,39.24"/><path d="M137.24,39.76L137.28,39.65L137.34,39.54L137.36,39.52"/><path d="M139.19,37.65L139.05,37.72L138.87,37.77L138.69,37.81L138.49,37.83L138.29,37.83L138.09,37.81L137.90,37.77L137.73,37.72L137.59,37.65"/><path d="M137.24,37.76L137.24,37.71L137.28,37.60L137.29,37.57"/><path d="M137.24,37.85L137.24,37.91L137.24,37.71L137.24,37.80"/><path d="M137.24,37.88L137.24,37.91L137.28,38.03L137.34,38.14L137.44,38.24L137.57,38.32L137.73,38.40L137.90,38.46L138.09,38.50L138.29,38.52L138.49,38.52L138.69,38.50L138.87,38.46L139.05,38.40L139.20,38.32L139.33,38.24L139.43,38.14L139.50,38.03L139.53,37.91L139.53,37.71L139.50,37.60L139.48,37.57"/><path d="M137.24,38.44L137.24,38.39L137.24,38.60L137.24,38.56"/><path d="M137.36,38.15L137.34,38.17L137.28,38.28L137.24,38.39L137.24,38.49"/><path d="M137.14,35.65L137.67,35.95L137.96,35.72L138.24,35.51L138.39,36.03L138.53,35.51L138.82,35.72L139.10,35.95L139.63,35.65"/><path d="M137.14,34.82L137.43,34.92L137.71,35.04L137.86,35.79L137.86,35.80"/><path d="M136.99,35.23L137.35,35.21L137.71,35.21L137.86,35.79"/><path d="M139.53,41.83L139.53,41.98"/><path d="M139.53,41.90L139.53,41.92"/><path d="M139.53,41.15L139.53,41.23"/><path d="M139.53,41.21L139.53,41.30"/><path d="M139.41,39.52L139.43,39.54L139.50,39.65L139.53,39.76L139.53,39.93"/><path d="M139.53,39.85L139.53,39.78"/><path d="M139.53,40.46L139.53,40.55"/><path d="M139.53,40.53L139.53,40.62"/><path d="M139.53,39.18L139.53,39.10"/><path d="M139.53,39.16L139.53,39.25"/><path d="M139.53,37.73L139.53,37.82"/><path d="M139.53,37.80L139.53,37.89"/><path d="M139.53,38.50L139.53,38.41"/><path d="M139.53,38.48L139.53,38.57"/><path d="M138.92,35.80L138.92,35.79L139.06,35.04L139.35,34.92L139.63,34.82"/><path d="M138.92,35.79L139.06,35.21L139.42,35.21L139.78,35.23"/></g></g><g id="Actor_.1"><g style="stroke:#000000;stroke-width:0.353"><path d="M156.28,26.25L156.28,26.41L156.24,26.57L156.17,26.72L156.06,26.86L155.92,27.00L155.76,27.12L155.56,27.23L155.41,27.30L155.35,27.33L155.11,27.41L154.86,27.47L154.60,27.51L154.33,27.53L154.29,27.54L154.06,27.54L153.79,27.52L153.52,27.48L153.27,27.43L153.03,27.35L152.81,27.26L152.61,27.15L152.44,27.03L152.29,26.90L152.18,26.75L152.10,26.60L152.05,26.45L152.03,26.29"/><path d="M152.77,26.12L153.12,26.02L153.48,25.93"/><path d="M153.78,34.29L153.93,34.33L154.08,34.35L154.24,34.35L154.16,35.54L153.78,34.29L153.66,34.23L153.56,34.16L153.49,34.07"/><path d="M154.72,33.43L154.66,33.48L154.58,33.52L154.49,33.55L154.40,33.58L154.29,33.60L154.19,33.61L154.08,33.61L153.98,33.59L153.88,33.57L153.78,33.54L153.70,33.50L153.63,33.45L153.61,33.43"/><path d="M154.80,33.97L154.80,33.99L154.77,34.05L154.72,34.11L154.66,34.16L154.58,34.20L154.49,34.24L154.40,34.27L154.29,34.28L154.19,34.29L154.08,34.29L153.98,34.28L153.88,34.25L153.78,34.22L153.70,34.18L153.63,34.13L153.58,34.08L153.54,34.02L153.52,33.97"/><path d="M155.31,32.82L155.27,32.93L155.20,33.04L155.10,33.14L154.98,33.23L154.82,33.31L154.65,33.36L154.46,33.40L154.26,33.42L154.06,33.42L153.86,33.40L153.67,33.36L153.50,33.31L153.35,33.23L153.22,33.14L153.12,33.04L153.05,32.93L153.01,32.82"/><path d="M155.08,33.53L155.01,33.63L154.96,33.67L154.90,33.72L154.77,33.79L154.62,33.85L154.45,33.89L154.28,33.92L154.09,33.92L153.91,33.90L153.74,33.86L153.58,33.81L153.45,33.74L153.34,33.65L153.26,33.56L153.21,33.46"/><path d="M153.61,32.75L153.63,32.77L153.70,32.81L153.78,32.85L153.88,32.89L153.98,32.91L154.08,32.92L154.19,32.92L154.29,32.92L154.40,32.90L154.49,32.87L154.58,32.84L154.66,32.79L154.72,32.74"/><path d="M155.31,32.14L155.27,32.25L155.20,32.36L155.10,32.46L154.98,32.55L154.82,32.62L154.65,32.68L154.46,32.72L154.26,32.74L154.06,32.74L153.86,32.72L153.67,32.68L153.50,32.62L153.35,32.55L153.22,32.46L153.12,32.36L153.08,32.31L153.05,32.25L153.01,32.14"/><path d="M153.61,31.38L153.63,31.40L153.70,31.45L153.78,31.49L153.88,31.52L153.98,31.54L153.99,31.54L154.08,31.55L154.19,31.56L154.29,31.55L154.40,31.53L154.49,31.50L154.58,31.47L154.66,31.42L154.72,31.38"/><path d="M154.72,32.06L154.66,32.11L154.58,32.15L154.49,32.19L154.40,32.22L154.33,32.23L154.29,32.23L154.19,32.24L154.08,32.24L153.98,32.23L153.88,32.20L153.78,32.17L153.70,32.13L153.63,32.08L153.61,32.06"/><path d="M155.31,30.77L155.27,30.88L155.20,30.99L155.10,31.09L154.98,31.18L154.82,31.26L154.65,31.31L154.46,31.35L154.26,31.37L154.06,31.37L153.86,31.35L153.67,31.31L153.50,31.26L153.45,31.23L153.35,31.18L153.22,31.09L153.12,30.99L153.05,30.88L153.01,30.77"/><path d="M153.01,31.45L153.05,31.57L153.12,31.68L153.22,31.78L153.35,31.87L153.50,31.94L153.67,32.00L153.86,32.04L154.06,32.06L154.26,32.06L154.46,32.04L154.65,32.00L154.82,31.94L154.98,31.87L155.10,31.78L155.20,31.68L155.27,31.57L155.31,31.45"/><path d="M153.61,30.70L153.63,30.72L153.70,30.76L153.78,30.80L153.88,30.84L153.98,30.86L154.08,30.87L154.19,30.87L154.29,30.87L154.40,30.85L154.49,30.82L154.58,30.79L154.66,30.74L154.72,30.69"/><path d="M155.31,30.09L155.27,30.20L155.20,30.31L155.10,30.41L154.98,30.50L154.82,30.57L154.65,30.63L154.46,30.67L154.26,30.69L154.06,30.69L153.86,30.67L153.67,30.63L153.50,30.57L153.35,30.50L153.22,30.41L153.12,30.31L153.05,30.20L153.01,30.09"/><path d="M154.72,29.33L154.66,29.37L154.58,29.42L154.49,29.45L154.40,29.48L154.29,29.50L154.19,29.51L154.08,29.50L153.99,29.49L153.98,29.49L153.88,29.47L153.78,29.44L153.70,29.40L153.63,29.35L153.61,29.33"/><path d="M153.61,30.01L153.63,30.03L153.70,30.08L153.78,30.12L153.88,30.15L153.98,30.18L154.08,30.19L154.19,30.19L154.29,30.18L154.40,30.17L154.49,30.14L154.58,30.10L154.66,30.06L154.72,30.01"/><path d="M153.01,28.72L153.05,28.83L153.12,28.94L153.22,29.04L153.35,29.13L153.50,29.21L153.67,29.26L153.86,29.30L154.06,29.32L154.26,29.32L154.46,29.30L154.65,29.26L154.82,29.21L154.98,29.13L155.06,29.08L155.10,29.04L155.20,28.94L155.27,28.83L155.31,28.72"/><path d="M155.31,29.40L155.27,29.52L155.20,29.63L155.10,29.73L154.98,29.82L154.82,29.89L154.65,29.95L154.46,29.99L154.26,30.01L154.06,30.01L153.86,29.99L153.67,29.95L153.50,29.89L153.35,29.82L153.22,29.73L153.12,29.63L153.05,29.52L153.01,29.40"/><path d="M154.72,28.64L154.66,28.69L154.58,28.74L154.49,28.77L154.40,28.80L154.33,28.81L154.29,28.82L154.19,28.82L154.08,28.82L153.98,28.81L153.88,28.79L153.78,28.75L153.70,28.71L153.63,28.67L153.61,28.64"/><path d="M154.51,28.61L154.46,28.62L154.26,28.64L154.06,28.64L153.86,28.62L153.82,28.61"/><path d="M152.92,26.54L153.20,26.31L153.48,26.10"/><path d="M154.00,26.42L153.45,25.41L153.18,25.55L152.92,25.72"/><path d="M153.45,25.41L153.73,25.51L154.01,25.63L154.09,25.46L154.16,25.32L154.24,25.46L154.31,25.63L154.16,26.38L154.16,25.32"/><path d="M154.83,34.07L154.76,34.16L154.66,34.23L154.54,34.29L154.39,34.33L154.24,34.35"/><path d="M154.16,26.92L154.16,26.38L154.01,25.63"/><path d="M154.84,25.93L155.20,26.02L155.55,26.12"/><path d="M155.40,26.54L155.12,26.31L154.84,26.10"/><path d="M154.20,26.79L154.04,26.51"/><path d="M154.21,26.75L154.16,26.73L154.11,26.75"/><path d="M154.28,26.51L154.12,26.79"/><path d="M154.31,25.63L154.59,25.51L154.87,25.41L154.33,26.42"/><path d="M154.87,25.41L155.15,25.55L155.40,25.72"/></g><g style="stroke:#000000;stroke-width:0.705"><path d="M153.36,28.54L153.50,28.61L153.67,28.67L153.86,28.71L154.06,28.73L154.26,28.73L154.46,28.71L154.65,28.67L154.82,28.61L154.96,28.54L154.90,28.56L154.62,28.60L154.34,28.63L154.05,28.63L153.77,28.61L153.49,28.57L153.22,28.51L152.97,28.43L152.74,28.33L152.53,28.22L152.35,28.09L152.19,27.95L152.07,27.80L151.99,27.65L151.94,27.48L151.92,27.32L152.03,26.29L152.06,26.13L152.11,25.98L152.20,25.83L152.33,25.69L152.48,25.56L152.57,25.50L152.66,25.44L152.86,25.34L153.09,25.25L153.33,25.18L153.59,25.13L153.86,25.10L154.13,25.08L154.40,25.09L154.67,25.12L154.93,25.17L155.17,25.23L155.40,25.31L155.62,25.42L155.80,25.53L155.96,25.66L156.09,25.80L156.13,25.85L156.19,25.94L156.25,26.10L156.28,26.25L156.39,27.28L156.39,27.44L156.35,27.61L156.27,27.76L156.19,27.88"/><path d="M152.77,26.12L153.12,26.10L153.48,26.10L153.63,26.68L153.63,26.70"/><path d="M153.14,32.46L153.12,32.48L153.05,32.59L153.01,32.70L153.01,32.91L153.05,33.02L153.12,33.13L153.22,33.23L153.35,33.32L153.50,33.39L153.67,33.45L153.86,33.49L154.06,33.51L154.26,33.51L154.46,33.49L154.65,33.45L154.82,33.39L154.98,33.32L155.10,33.23L155.20,33.13L155.27,33.02L155.31,32.91L155.31,32.70L155.31,32.82L155.31,32.79"/><path d="M153.23,33.24L153.22,33.25L153.20,33.35L153.21,33.46L153.36,33.79L153.42,33.89L153.46,33.92L153.46,33.99L153.49,34.07L154.16,35.54L154.83,34.07L154.86,33.99L154.86,33.92"/><path d="M153.46,33.92L153.52,33.97L153.64,34.04L153.79,34.10L153.95,34.13L154.12,34.15L154.29,34.14L154.46,34.12L154.61,34.07L154.75,34.01L154.80,33.97L154.85,33.93L154.93,33.84L155.08,33.53L155.12,33.43L155.12,33.33L155.09,33.24"/><path d="M155.19,31.78L155.20,31.80L155.27,31.91L155.31,32.02L155.31,32.22L155.27,32.34L155.20,32.45L155.10,32.55L154.98,32.63L154.82,32.71L154.65,32.77L154.46,32.81L154.26,32.83L154.06,32.83L153.86,32.81L153.67,32.77L153.50,32.71L153.35,32.63L153.22,32.55L153.12,32.45L153.05,32.34L153.01,32.22L153.01,32.02L153.05,31.91L153.12,31.80L153.14,31.78"/><path d="M153.14,30.41L153.12,30.43L153.05,30.54L153.01,30.65L153.01,30.86L153.05,30.97L153.12,31.08L153.22,31.18L153.35,31.27L153.50,31.34L153.67,31.40L153.86,31.44L154.06,31.46L154.26,31.46L154.46,31.44L154.65,31.40L154.82,31.34L154.96,31.28L154.98,31.27L155.10,31.18L155.20,31.08L155.27,30.97L155.31,30.86L155.31,30.65L155.27,30.54L155.20,30.43L155.19,30.41"/><path d="M155.19,31.10L155.20,31.11L155.27,31.22L155.31,31.34L155.31,31.54L155.27,31.65L155.20,31.76L155.10,31.86L154.98,31.95L154.82,32.03L154.65,32.08L154.46,32.12L154.26,32.14L154.06,32.14L153.88,32.13L153.86,32.12L153.67,32.08L153.50,32.03L153.35,31.95L153.22,31.86L153.12,31.76L153.05,31.65L153.01,31.54L153.01,31.34L153.05,31.22L153.12,31.11L153.14,31.10"/><path d="M153.14,29.73L153.12,29.75L153.05,29.86L153.01,29.97L153.01,30.17L153.05,30.29L153.12,30.40L153.22,30.50L153.35,30.58L153.50,30.66L153.67,30.72L153.86,30.76L154.06,30.78L154.26,30.78L154.46,30.76L154.65,30.72L154.82,30.66L154.98,30.58L155.10,30.50L155.20,30.40L155.27,30.29L155.31,30.17L155.31,29.97L155.27,29.86L155.20,29.75L155.19,29.73"/><path d="M153.07,28.46L153.05,28.49L153.01,28.60L153.01,28.81L153.05,28.92L153.12,29.03L153.22,29.13L153.35,29.22L153.50,29.29L153.67,29.35L153.86,29.39L154.06,29.41L154.26,29.41L154.46,29.39L154.65,29.35L154.82,29.29L154.98,29.22L155.10,29.13L155.20,29.03L155.27,28.92L155.31,28.81L155.31,28.70L155.31,28.81"/><path d="M153.14,29.05L153.12,29.06L153.05,29.17L153.01,29.29L153.01,29.49L153.05,29.60L153.12,29.71L153.22,29.81L153.35,29.90L153.50,29.98L153.67,30.03L153.86,30.07L154.06,30.09L154.26,30.09L154.46,30.07L154.65,30.03L154.82,29.98L154.98,29.90L155.10,29.81L155.20,29.71L155.27,29.60L155.31,29.49L155.31,29.29L155.27,29.17L155.20,29.06L155.19,29.05"/><path d="M153.63,26.68L153.48,25.93L153.20,25.81L152.92,25.72"/><path d="M154.16,26.92L154.01,26.41L153.73,26.62L153.45,26.85L152.92,26.54"/><path d="M154.16,26.92L154.31,26.41L154.59,26.62L154.87,26.85L155.40,26.54"/><path d="M155.40,25.72L155.12,25.81L154.84,25.93L154.69,26.68L154.84,26.10L155.20,26.10L155.55,26.12"/><path d="M154.69,26.70L154.69,26.68"/><path d="M155.19,32.46L155.20,32.48L155.27,32.59L155.31,32.70"/><path d="M155.31,32.91L155.31,32.82"/><path d="M155.31,31.34L155.31,31.45"/><path d="M155.31,31.54L155.31,31.42"/><path d="M155.31,32.02L155.31,32.14"/><path d="M155.31,32.11L155.31,32.22"/><path d="M155.31,30.15L155.31,29.97"/><path d="M155.31,30.65L155.31,30.77"/><path d="M155.31,30.86L155.31,30.74"/><path d="M155.31,29.40L155.31,29.29"/><path d="M155.31,29.37L155.31,29.49"/><path d="M155.31,30.06L155.31,30.09"/><path d="M155.11,28.51L154.96,28.54L154.96,28.54"/></g></g><g id="Actor_.2"><g style="stroke:#000000;stroke-width:0.353"><path d="M135.33,101.71L135.33,99.73L134.74,99.92L134.08,100.01L133.41,100.00L132.76,99.90L132.18,99.70L131.71,99.43L131.37,99.09L131.18,98.72L131.17,98.33"/><path d="M134.80,98.42L134.79,98.27L134.70,98.13L134.53,98.02L134.30,97.94L134.05,97.91L133.79,97.93L133.56,98.00L133.46,98.04L133.37,98.10L133.26,98.24L133.23,98.39"/><path d="M135.33,99.73L146.54,95.10L146.54,97.08"/><path d="M137.04,97.13L137.03,96.98L136.93,96.84L136.76,96.73L136.54,96.65L136.29,96.62L136.03,96.64L135.79,96.70L135.69,96.75L135.61,96.81L135.50,96.95L135.46,97.09"/><path d="M137.70,95.80L137.73,95.65L137.85,95.52L137.93,95.46L138.03,95.41L138.26,95.35L138.52,95.33L138.78,95.36L139.00,95.44L139.17,95.55L139.26,95.69L139.28,95.84"/><path d="M141.51,94.55L141.50,94.40L141.41,94.26L141.24,94.14L141.01,94.07L140.76,94.04L140.50,94.05L140.27,94.12L140.17,94.17L140.08,94.23L139.97,94.36L139.94,94.51"/><path d="M143.48,90.02L143.04,90.23L142.45,90.65L142.01,91.13L141.75,91.65"/><path d="M150.95,91.47L150.92,90.93L150.71,90.40L150.32,89.90L149.76,89.47L149.06,89.10L148.26,88.83L147.37,88.65L146.44,88.59L145.50,88.63L144.60,88.78L143.77,89.03L143.04,89.37L142.45,89.79L142.01,90.27L141.75,90.79L141.68,91.33"/><path d="M142.75,91.94L142.77,92.42L142.99,92.89L143.38,93.31L143.44,93.35"/><path d="M149.90,91.20L149.83,91.68L149.57,92.14L149.13,92.55L149.01,92.62L148.54,92.89L147.83,93.14L147.04,93.29L146.21,93.33L145.39,93.26L144.62,93.09L143.94,92.81L143.38,92.45L142.99,92.03L142.77,91.56L142.75,91.08"/><path d="M149.26,91.70L149.20,91.53L148.85,91.13L148.34,90.80L147.71,90.55L147.27,90.46L146.99,90.40L146.22,90.36L145.47,90.43L144.76,90.61L144.16,90.88L143.69,91.23L143.38,91.63L143.36,91.70"/><path d="M149.36,91.10L149.20,90.67L148.85,90.27L148.34,89.94L147.71,89.69L147.42,89.63L146.99,89.54L146.22,89.50L145.47,89.57L144.76,89.74L144.16,90.02L143.69,90.37L143.38,90.77L143.26,91.21"/><path d="M147.89,92.24L147.87,91.94L147.68,91.66L147.34,91.43L146.89,91.27L146.38,91.21L145.87,91.25L145.40,91.38L145.20,91.48L145.03,91.59L144.80,91.86L144.74,92.16"/><path d="M146.54,95.10L147.64,95.02L148.71,94.84L149.70,94.56L150.61,94.19L151.39,93.74L152.03,93.22L152.52,92.64L152.83,92.03L152.96,91.39L152.96,93.37"/><path d="M149.90,92.06L149.83,92.54L149.57,93.00L149.17,93.37"/><path d="M149.14,90.00L149.76,90.33L150.32,90.77L150.71,91.26L150.88,91.68"/><path d="M152.70,88.09L152.69,87.94L152.59,87.80L152.42,87.69L152.20,87.61L151.94,87.58L151.69,87.60L151.45,87.66L151.35,87.71L151.27,87.77L151.15,87.91L151.12,88.05"/><path d="M152.96,91.39L159.37,86.22"/><path d="M154.93,86.80L154.92,86.65L154.83,86.51L154.66,86.40L154.44,86.32L154.18,86.29L153.92,86.31L153.69,86.37L153.59,86.42L153.50,86.48L153.39,86.61L153.36,86.76"/><path d="M155.59,85.47L155.63,85.32L155.74,85.19L155.83,85.13L155.93,85.08L156.16,85.01L156.42,85.00L156.67,85.03L156.90,85.10L157.06,85.22L157.16,85.36L157.17,85.51"/><path d="M159.41,84.22L159.40,84.07L159.30,83.93L159.13,83.81L158.91,83.74L158.65,83.70L158.43,83.72"/><path d="M160.32,85.46L160.99,84.92L160.99,86.07"/><path d="M160.99,84.92L161.31,84.58L161.47,84.20"/></g><g style="stroke:#000000;stroke-width:0.705"><path d="M156.15,83.27L146.10,87.43L145.00,87.51L143.93,87.68L142.93,87.96L142.10,88.31L142.03,88.34L141.25,88.79L140.60,89.31L140.12,89.89L139.81,90.50L139.68,91.14L131.65,97.61L131.33,97.95L131.17,98.33L131.17,100.31L131.18,100.70L131.37,101.07L131.71,101.41L132.18,101.68L132.76,101.88L133.41,101.98L134.08,101.99L134.74,101.90L135.33,101.71L146.54,97.08L147.64,97.00L148.71,96.82L149.70,96.54L150.61,96.17L151.39,95.72L152.03,95.20L152.52,94.62L152.83,94.01L152.96,93.37L160.52,87.28"/><path d="M133.23,98.39L133.28,98.53L133.41,98.66L133.61,98.76L133.85,98.81L134.11,98.82L134.36,98.78L134.58,98.69L134.73,98.57L134.80,98.42"/><path d="M137.04,97.13L136.96,97.28L136.81,97.40L136.60,97.49L136.35,97.53L136.09,97.52L135.85,97.47L135.65,97.37L135.52,97.24L135.46,97.09"/><path d="M137.70,95.80L137.75,95.95L137.89,96.08L138.09,96.18L138.33,96.23L138.59,96.24L138.84,96.19L139.05,96.11L139.20,95.98L139.28,95.84"/><path d="M139.94,94.51L139.99,94.66L140.12,94.79L140.32,94.88L140.56,94.94L140.83,94.95L141.07,94.90L141.29,94.82L141.44,94.69L141.51,94.55"/><path d="M150.95,91.47L150.78,92.00L150.43,92.50L149.91,92.96L149.25,93.34L148.47,93.64L147.60,93.84L146.67,93.93L145.73,93.92L144.82,93.80L143.97,93.57L143.21,93.25L142.58,92.85L142.10,92.38L141.80,91.87L141.68,91.33"/><path d="M142.75,91.94L142.75,91.08L142.92,90.61L143.27,90.18L143.78,89.80L144.44,89.50L145.19,89.30L146.01,89.20L146.84,89.22L147.64,89.34L148.38,89.57L149.00,89.89L149.47,90.28L149.78,90.73L149.90,91.20L149.90,92.06"/><path d="M150.85,96.03L150.80,96.58L150.55,97.11L150.12,97.60L149.52,98.02L148.79,98.37L147.94,98.62L147.03,98.76L146.08,98.79L145.15,98.70L144.26,98.50L143.65,98.27"/><path d="M143.26,91.21L143.33,91.65L143.59,92.07L144.03,92.43L144.60,92.72L145.28,92.92L146.03,93.02L146.80,93.01L147.53,92.88L148.19,92.66L148.74,92.35L149.13,91.96L149.34,91.54L149.36,91.10"/><path d="M147.54,92.68L147.34,92.55L146.89,92.39L146.38,92.33L145.87,92.37L145.40,92.50L145.20,92.60L145.08,92.68"/><path d="M144.74,92.16L144.85,92.46L145.11,92.71L145.51,92.91L145.97,93.01"/><path d="M146.08,93.02L146.01,93.02"/><path d="M147.89,92.24L147.74,92.53L147.44,92.77L147.01,92.95L146.63,93.01"/><path d="M151.12,88.05L151.17,88.20L151.31,88.33L151.51,88.43L151.75,88.48L152.01,88.49L152.26,88.45L152.47,88.36L152.62,88.24L152.70,88.09"/><path d="M153.36,86.76L153.41,86.91L153.54,87.04L153.74,87.14L153.99,87.19L154.25,87.20L154.50,87.15L154.71,87.07L154.86,86.94L154.93,86.80"/><path d="M155.59,85.47L155.65,85.62L155.78,85.75L155.98,85.84L156.22,85.90L156.48,85.91L156.73,85.86L156.94,85.78L157.10,85.65L157.17,85.51"/><path d="M161.37,86.42L161.47,86.18L161.47,84.20L161.45,83.81L161.27,83.44L160.93,83.10L160.46,82.83L159.88,82.63L159.23,82.53L158.56,82.52L157.90,82.61L157.39,82.77"/><path d="M159.22,84.45L159.33,84.36L159.41,84.22"/></g></g><g id="Actor_.3"><g style="stroke:#000000;stroke-width:0.353"><path d="M126.09,131.82L131.54,134.97"/><path d="M128.94,130.79L128.91,131.15"/><path d="M130.83,131.77L130.83,129.69L130.30,129.39"/><path d="M130.83,129.69L131.46,129.68L132.06,129.76L132.61,129.93L133.07,130.17L133.37,130.46"/><path d="M131.77,139.15L131.77,132.04L159.51,148.06L159.51,155.16"/><path d="M131.77,132.04L131.62,131.92L131.54,131.78L131.54,131.64"/><path d="M131.94,131.35L131.94,131.42L131.98,131.49L132.05,131.55L132.05,131.87L131.98,131.82L131.94,131.75L131.94,131.67"/><path d="M132.05,131.55L138.82,135.45L138.07,134.97L137.32,134.34L136.72,133.66L136.28,132.95L136.00,132.20L135.90,131.44"/><path d="M132.05,131.87L159.80,147.89L159.80,147.56L138.82,135.46L138.96,135.53L139.97,136.03L141.09,136.44L157.15,145.71L157.25,145.75L157.37,145.77L157.49,145.77L157.61,145.75L157.71,145.71L161.36,143.60L161.36,141.41L167.04,138.13L166.93,138.70L166.66,139.25L166.24,139.76L165.67,140.22L164.97,140.62L164.17,140.95L163.28,141.20L162.34,141.35L161.36,141.41"/><path d="M135.57,129.18L135.57,129.08L135.67,129.13"/><path d="M135.57,129.08L135.47,128.99L135.41,128.89L135.41,128.79"/><path d="M141.09,136.44L141.09,134.25L139.97,133.84L138.96,133.35L138.07,132.78L137.32,132.16L136.72,131.48L136.28,130.76L136.00,130.01L135.90,129.25"/><path d="M136.52,126.41L136.49,126.77"/><path d="M138.82,135.45L138.82,135.46"/><path d="M138.53,125.32L138.41,125.32L137.88,125.01"/><path d="M138.41,125.32L138.41,125.39"/><path d="M139.18,129.27L139.29,129.89L139.57,130.49L140.01,131.06L140.61,131.58L141.34,132.04L142.19,132.42L143.13,132.72L144.14,132.93L145.20,133.04L146.28,133.05L147.35,132.97L148.38,132.78L149.34,132.50L150.22,132.14L150.61,131.93L150.98,131.70L151.61,131.20L152.09,130.64L152.41,130.04L152.56,129.43"/><path d="M139.18,127.63L139.29,128.25L139.57,128.85L140.01,129.42L140.61,129.94L141.34,130.40L142.19,130.78L143.13,131.08L144.14,131.29L145.20,131.40L146.28,131.41L147.35,131.33L148.38,131.14L149.34,130.86L150.22,130.50L150.61,130.29L150.98,130.06L151.61,129.56L152.09,129.00L152.41,128.40L152.56,127.79"/><path d="M151.10,127.49L151.04,128.03L150.81,128.55L150.42,129.04L149.89,129.49L149.58,129.68L149.22,129.87L148.46,130.18L147.60,130.40L146.69,130.53L145.76,130.57L144.83,130.51L143.93,130.35L143.12,130.11L142.35,129.78L141.72,129.38L141.22,128.92L140.88,128.42L140.69,127.89L140.67,127.35"/><path d="M151.10,127.16L151.04,127.70L150.81,128.22L150.42,128.72L149.89,129.16L149.58,129.36L149.22,129.54L148.46,129.85L147.60,130.07L146.69,130.21L145.76,130.24L144.83,130.18L143.93,130.03L143.12,129.79L142.35,129.45L141.72,129.05L141.22,128.60L140.88,128.09L140.69,127.56L140.67,127.02"/><path d="M157.15,145.71L157.15,143.41L147.96,138.11L147.96,138.22L141.09,134.25"/><path d="M142.87,126.86L142.80,127.28"/><path d="M147.96,138.11L147.89,138.05L147.85,137.98L147.85,137.91"/><path d="M147.85,138.02L147.85,138.09L147.89,138.16L147.96,138.22"/><path d="M148.95,127.38L148.93,126.97L148.89,126.89"/><path d="M152.35,134.13L152.44,134.44L152.67,134.72L152.94,134.90"/><path d="M153.03,134.85L152.67,134.62L152.44,134.33L152.35,134.02"/><path d="M157.71,145.71L157.71,143.41L157.61,143.45L157.49,143.47L157.37,143.47L157.25,143.45L157.15,143.41"/><path d="M157.71,143.41L170.69,135.92L170.69,138.22L170.76,138.16L170.80,138.09"/><path d="M160.29,153.64L160.29,151.57L160.45,151.53L160.65,151.45L167.01,147.77L169.57,149.25L169.72,149.31L169.89,149.34L170.07,149.34L170.24,149.31L170.38,149.25L170.49,149.16L170.55,149.07"/><path d="M160.29,151.57L165.76,154.73L165.76,156.80"/><path d="M159.51,148.06L159.72,148.14L159.96,148.19L160.21,148.19L160.45,148.14L160.65,148.06L160.65,151.45"/><path d="M159.80,147.56L159.90,147.61L160.02,147.63L160.14,147.63L160.26,147.61L160.37,147.56L173.91,139.75L173.91,140.07L160.37,147.89L160.37,147.56"/><path d="M159.80,147.89L159.90,147.94L160.02,147.96L160.14,147.96L160.26,147.94L160.37,147.89"/><path d="M160.65,153.85L160.65,155.16"/><path d="M160.65,148.06L174.19,140.24L174.19,143.63L168.30,147.03"/><path d="M161.36,143.60L162.34,143.54L163.28,143.38L164.17,143.14L164.97,142.81L165.67,142.41L166.24,141.94L166.66,141.43L166.93,140.89L167.04,140.32L167.04,138.13"/><path d="M169.47,151.63L169.33,151.27L169.04,150.96L168.61,150.70L168.08,150.51L167.48,150.41L166.86,150.40L166.26,150.49L165.72,150.67L165.54,150.77L165.27,150.93L164.96,151.24L164.81,151.59"/><path d="M165.76,154.73L168.08,153.39"/><path d="M169.57,149.25L169.57,148.70L167.01,147.23L167.01,147.77"/><path d="M167.01,147.23L167.83,146.76"/><path d="M170.69,138.22L167.04,140.32"/><path d="M169.98,154.37L169.98,152.29L169.44,151.99"/><path d="M169.98,152.29L175.66,149.01"/><path d="M170.55,148.52L170.49,148.62L170.38,148.70L170.24,148.76L170.07,148.79L169.89,148.79L169.72,148.76L169.57,148.70"/><path d="M170.69,135.92L170.76,135.86L170.80,135.79"/><path d="M172.38,147.21L172.54,146.86L172.85,146.55L173.29,146.30L173.83,146.12L174.33,146.05L174.43,146.03L175.06,146.03L175.66,146.13L176.19,146.32L176.61,146.58L176.91,146.90L177.05,147.25"/><path d="M174.19,143.63L174.34,143.51L174.40,143.42"/><path d="M174.42,139.98L174.34,140.12L174.19,140.24"/><path d="M173.91,140.07L173.98,140.02L174.02,139.95"/><path d="M173.91,139.75L173.98,139.69L174.02,139.62"/><path d="M177.55,150.00L177.55,147.92L177.02,147.61"/><path d="M177.55,147.92L179.87,146.58"/></g><g style="stroke:#000000;stroke-width:0.705"><path d="M128.94,131.22L128.94,130.79L128.41,130.48L126.09,131.82L126.09,133.90L131.54,137.05"/><path d="M131.54,132.37L130.90,132.36L130.30,132.27L129.77,132.08L129.34,131.82L129.05,131.50L128.91,131.15"/><path d="M131.54,131.77L131.46,131.76L130.83,131.77L130.30,131.46L130.30,129.39L135.98,126.11L136.52,126.41L136.52,126.84"/><path d="M131.94,131.67L131.94,131.35L131.98,131.28L132.05,131.22L131.77,131.38L131.62,131.50L131.54,131.64L131.54,138.89L131.62,139.03L131.77,139.15L159.51,155.16L159.72,155.25L159.96,155.29L160.21,155.29L160.45,155.25L160.65,155.16L161.79,154.51"/><path d="M132.05,131.22L135.93,128.98"/><path d="M135.42,129.27L135.41,128.79L135.47,128.69L135.58,128.60L135.72,128.54L135.89,128.51L135.97,128.51"/><path d="M135.90,131.44L135.90,129.25L135.98,128.49L136.22,127.74L136.64,127.02L137.22,126.33L137.95,125.70L138.82,125.12L139.82,124.62L140.92,124.20L142.11,123.86L143.10,123.67"/><path d="M136.61,127.08L136.49,126.77"/><path d="M141.04,124.16L140.20,123.67L137.88,125.01L137.88,125.76"/><path d="M142.90,124.09L141.96,124.42L141.14,124.82L140.44,125.30L139.89,125.83L139.48,126.41L139.25,127.01L139.18,127.63L139.18,129.27"/><path d="M140.67,127.35L140.67,127.02L140.81,126.49L141.12,125.98L141.58,125.51L142.18,125.10L142.87,124.77"/><path d="M148.95,127.38L148.80,127.79L148.50,128.16L148.06,128.48L147.49,128.74L146.85,128.92L146.15,129.00L145.43,128.99L144.74,128.88L144.11,128.68L143.58,128.41L143.17,128.07L142.90,127.69L142.80,127.28"/><path d="M147.85,138.02L147.85,137.91L147.89,137.84L147.96,137.78L153.03,134.85"/><path d="M151.10,127.49L151.10,127.16L150.99,126.62L150.72,126.10L150.30,125.62L149.73,125.19L149.04,124.83L148.89,124.77"/><path d="M161.20,130.22L154.63,126.43L153.92,125.79L153.07,125.20L152.09,124.69L151.01,124.25L149.83,123.91L148.71,123.68"/><path d="M148.88,124.11L149.11,124.17L150.01,124.51L150.80,124.93L151.46,125.42L151.98,125.97L152.35,126.55L152.54,127.17L152.56,127.79L152.56,129.43"/><path d="M152.35,134.13L152.35,134.02L152.40,133.70L152.60,133.41L152.93,133.16L153.37,132.97L153.88,132.85L154.42,132.82L154.96,132.87L155.45,133.01L155.86,133.22L160.93,130.29L161.04,130.25L161.15,130.22L161.28,130.22L161.40,130.25L161.50,130.29L170.69,135.59L170.76,135.65L170.80,135.72L170.80,138.09L170.80,138.08"/><path d="M164.81,151.59L164.82,151.95L164.99,152.29L165.32,152.60L165.77,152.85L166.32,153.01L166.93,153.09L167.55,153.08L168.08,153.39L168.08,155.46L165.76,156.80L160.29,153.64"/><path d="M165.65,152.78L165.72,152.75L166.26,152.57L166.86,152.48L167.48,152.49L168.08,152.59L168.61,152.77L169.04,153.03L169.33,153.35L169.44,153.63"/><path d="M167.83,146.76L170.38,148.23L170.49,148.32L170.55,148.41L170.55,149.07"/><path d="M172.38,147.21L172.39,147.57L172.57,147.92L172.89,148.23L173.34,148.47L173.89,148.64L174.50,148.72L175.12,148.70L175.66,149.01L175.66,151.09L169.98,154.37L169.44,154.06L169.44,151.99L169.47,151.63"/><path d="M171.10,137.80L170.80,137.62L174.19,139.58L174.34,139.70L174.42,139.84L174.42,143.43L174.40,143.42"/><path d="M173.23,148.41L173.29,148.38L173.83,148.20L174.43,148.11L175.06,148.11L175.66,148.21L176.19,148.40L176.61,148.66L176.91,148.98L177.02,149.26"/><path d="M173.25,139.04L173.91,139.42L173.98,139.48L174.02,139.55L174.02,139.95"/><path d="M174.42,143.43L179.87,146.58L179.87,148.66L177.55,150.00L177.02,149.69L177.02,147.61L177.05,147.25"/></g></g><g id="Actor_.4"><g style="stroke:#000000;stroke-width:0.353"><path d="M117.04,61.79L117.04,60.93L116.29,60.50"/><path d="M161.77,35.10L117.04,60.93L128.97,67.82L128.97,68.68"/><path d="M117.04,60.93L117.04,37.69L116.29,37.26"/><path d="M117.04,37.69L119.27,33.81L159.54,10.57"/><path d="M118.67,37.39L118.88,37.45L119.14,37.41L119.41,37.25L119.66,37.00L119.88,36.69L120.02,36.34L120.09,36.00L120.07,35.70L119.96,35.48L119.78,35.36"/><path d="M119.27,33.81L118.53,33.38"/><path d="M121.09,52.41L121.84,52.79L122.67,52.98L123.57,53.00L124.53,52.84L125.53,52.51L126.54,52.00L127.56,51.33L128.44,50.62L128.55,50.52L129.51,49.57L130.42,48.51L131.23,47.38L131.99,46.12L132.63,44.84L133.16,43.53L133.57,42.22L133.84,40.93L133.98,39.68L133.98,38.51L133.84,37.42L133.57,36.45L133.16,35.61L132.63,34.91L131.99,34.37"/><path d="M127.31,63.24L127.39,62.86L127.65,62.51L128.08,62.22L128.64,62.02L129.28,61.92L129.94,61.94L130.56,62.06L131.09,62.29L131.48,62.60L131.70,62.95L131.73,63.34"/><path d="M128.97,67.82L130.46,67.82L130.46,68.68"/><path d="M130.46,67.82L171.20,44.30"/><path d="M132.13,60.68L132.24,60.36L132.53,60.09L132.95,59.88L133.47,59.76L134.02,59.75L134.55,59.84L135.01,60.03L135.33,60.29L135.49,60.60"/><path d="M136.97,57.88L137.09,57.57L137.37,57.29L137.80,57.08L138.31,56.97L138.87,56.95L139.40,57.04L139.85,57.23L140.17,57.49L140.33,57.80"/><path d="M139.73,56.29L139.85,55.97L140.13,55.70L140.55,55.49L141.07,55.37L141.63,55.36L142.16,55.45L142.61,55.64L142.93,55.90L143.09,56.21"/><path d="M143.39,52.82L143.46,52.29L143.73,51.79L144.18,51.33L144.79,50.94L145.53,50.63L146.37,50.43L147.26,50.33L148.18,50.34L149.06,50.47L149.88,50.70L150.59,51.03L151.16,51.44L151.57,51.91L151.62,52.03L151.79,52.42L151.81,52.95"/><path d="M157.78,31.13L157.72,31.27L156.97,32.50L156.14,33.66L155.24,34.72L154.28,35.67L153.28,36.48L152.27,37.15L151.25,37.65L150.25,37.99L149.30,38.15L148.39,38.13L147.56,37.93L146.82,37.56"/><path d="M155.47,49.06L155.31,48.75L154.99,48.49L154.54,48.31L154.00,48.21L153.45,48.23L152.93,48.34L152.51,48.55L152.22,48.83L152.11,49.14"/><path d="M154.87,47.55L154.98,47.23L155.27,46.96L155.69,46.75L156.21,46.63L156.76,46.62L157.29,46.71L157.75,46.90L158.07,47.16L158.23,47.47"/><path d="M157.72,19.52L158.36,20.06L158.89,20.76L159.26,21.54L159.29,21.60L159.57,22.57L159.71,23.66L159.71,24.83L159.57,26.08L159.29,27.37L158.89,28.68L158.35,30.00"/><path d="M158.93,14.14L159.15,14.21L159.40,14.16L159.54,14.10L159.67,14.01L159.93,13.76L160.14,13.44L160.29,13.10L160.35,12.76L160.33,12.46L160.22,12.24L160.04,12.11"/><path d="M159.71,44.75L159.83,44.44L160.11,44.16L160.54,43.95L161.05,43.84L161.61,43.82L162.14,43.91L162.59,44.10L162.92,44.36L163.07,44.67"/><path d="M163.47,42.36L163.55,41.98L163.81,41.63L164.24,41.35L164.80,41.14L165.44,41.04L166.10,41.06L166.72,41.18L167.25,41.41L167.64,41.72L167.86,42.08L167.89,42.46"/><path d="M172.28,43.67L173.70,42.85"/></g><g style="stroke:#000000;stroke-width:0.705"><path d="M171.75,44.84L130.46,68.68L128.97,68.68L117.04,61.79L116.81,61.62L116.60,61.38L116.43,61.09L116.33,60.79L116.29,60.50L116.29,37.26L118.53,33.38L158.79,10.14L159.89,10.77L159.26,10.41"/><path d="M131.99,34.37L131.25,34.00L130.42,33.80L129.51,33.78L128.55,33.94L127.56,34.28L126.54,34.78L125.53,35.45L124.53,36.26L123.57,37.21L122.67,38.27L121.84,39.43L121.09,40.66L120.45,41.94L119.92,43.25L119.52,44.56L119.24,45.85L119.10,47.10L119.10,48.27L119.24,49.36L119.52,50.33L119.92,51.17L120.32,51.69L120.45,51.87L121.09,52.41"/><path d="M119.33,35.43L119.35,35.57L119.28,35.91L119.13,36.26L118.92,36.57L118.66,36.82L118.46,36.95L118.52,37.21L118.67,37.39"/><path d="M119.78,35.36L119.54,35.35L119.27,35.45L119.01,35.65L118.77,35.94L118.59,36.27L118.48,36.62L118.46,36.95"/><path d="M131.42,34.08L131.89,34.48L132.42,35.18L132.82,36.02L133.10,36.99L133.24,38.08L133.24,39.25L133.10,40.50L132.82,41.79L132.42,43.10L131.89,44.41L131.25,45.69L130.50,46.92L129.67,48.08L128.77,49.14L127.81,50.09L126.81,50.90L125.80,51.57L124.78,52.08L123.79,52.41L122.83,52.57L121.92,52.55L121.09,52.36L120.93,52.27"/><path d="M131.73,63.34L131.55,63.70L131.20,64.03L130.70,64.28L130.10,64.43L129.44,64.47L128.79,64.40L128.21,64.22L127.96,64.10L127.74,63.95L127.44,63.61L127.31,63.24"/><path d="M127.45,63.63L127.65,63.37L128.08,63.08L128.64,62.88L129.28,62.78L129.94,62.80L130.56,62.92L131.09,63.15L131.48,63.46L131.59,63.63"/><path d="M132.13,60.68L132.20,61.00L132.44,61.28L132.62,61.41L132.83,61.51L133.33,61.65L133.88,61.69L134.43,61.62L134.90,61.46L135.26,61.22L135.46,60.92L135.49,60.60"/><path d="M132.32,61.15L132.53,60.95L132.95,60.74L133.47,60.62L134.02,60.61L134.55,60.70L135.01,60.89L135.31,61.14"/><path d="M136.97,57.88L137.04,58.20L137.29,58.49L137.47,58.61L137.68,58.71L138.18,58.85L138.73,58.89L139.27,58.83L139.75,58.66L140.11,58.42L140.31,58.12L140.33,57.80"/><path d="M137.17,58.35L137.37,58.15L137.80,57.94L138.31,57.83L138.87,57.81L139.40,57.91L139.85,58.09L140.16,58.34"/><path d="M143.09,56.21L143.07,56.53L142.87,56.82L142.51,57.07L142.04,57.23L141.49,57.30L140.94,57.26L140.44,57.12L140.22,57.02L140.04,56.89L139.80,56.60L139.73,56.29"/><path d="M139.93,56.75L140.13,56.56L140.55,56.35L141.07,56.23L141.63,56.22L142.16,56.31L142.61,56.50L142.92,56.75"/><path d="M151.81,52.95L151.64,53.47L151.36,53.85L151.28,53.95L150.75,54.38L150.07,54.73L149.27,54.99L148.40,55.14L147.49,55.19L146.59,55.12L145.73,54.94L144.96,54.65L144.62,54.48L144.32,54.28L143.83,53.84L143.51,53.34L143.39,52.82"/><path d="M151.74,53.17L151.57,52.77L151.16,52.30L150.59,51.89L149.88,51.56L149.06,51.33L148.86,51.30L148.18,51.20L147.26,51.19L146.37,51.29L145.53,51.49L144.79,51.80L144.18,52.19L143.73,52.65L143.47,53.15"/><path d="M157.72,19.52L156.97,19.14L156.14,18.95L155.24,18.93L154.28,19.09L153.28,19.42L152.27,19.93L151.25,20.60L150.25,21.41L149.30,22.36L148.39,23.42L147.56,24.58L146.82,25.81L146.17,27.09L145.65,28.40L145.24,29.71L144.97,31.00L144.83,32.25L144.83,33.42L144.97,34.51L145.24,35.48L145.65,36.32L146.17,37.02L146.82,37.56"/><path d="M153.87,34.90L153.53,35.24L152.54,36.05L151.52,36.72L150.51,37.22L149.51,37.56L148.55,37.72L147.65,37.70L146.82,37.50L146.65,37.42"/><path d="M155.47,49.06L155.45,49.38L155.24,49.68L154.89,49.92L154.41,50.09L153.87,50.15L153.31,50.11L152.81,49.97L152.60,49.87L152.42,49.75L152.18,49.46L152.11,49.14"/><path d="M152.30,49.61L152.51,49.41L152.93,49.20L153.45,49.09L154.00,49.08L154.54,49.17L154.99,49.35L155.30,49.60"/><path d="M158.23,47.47L158.20,47.79L158.00,48.09L157.64,48.33L157.17,48.50L156.62,48.56L156.07,48.52L155.57,48.38L155.36,48.28L155.18,48.15L154.94,47.87L154.87,47.55"/><path d="M158.05,48.01L157.75,47.76L157.29,47.57L156.76,47.48L156.21,47.50L155.69,47.61L155.27,47.82L155.06,48.02"/><path d="M157.14,30.50L156.97,30.84L156.23,32.07L155.39,33.23L155.01,33.69"/><path d="M157.14,19.23L157.61,19.63L158.14,20.33L158.55,21.17L158.82,22.14L158.96,23.23L158.96,24.40L158.82,25.65L158.55,26.94L158.14,28.25L157.69,29.35"/><path d="M158.93,14.14L158.79,13.96L158.72,13.70L158.93,13.58L159.18,13.33L159.39,13.01L159.54,12.67L159.61,12.33L159.60,12.18"/><path d="M160.04,12.11L159.80,12.10L159.54,12.20L159.27,12.41L159.03,12.69L158.85,13.03L158.74,13.38L158.72,13.70"/><path d="M159.71,44.75L159.78,45.07L160.03,45.36L160.21,45.48L160.42,45.58L160.92,45.72L161.47,45.76L162.01,45.70L162.49,45.53L162.85,45.29L163.05,44.99L163.07,44.67"/><path d="M159.91,45.22L160.11,45.02L160.54,44.81L161.05,44.70L161.61,44.68L162.14,44.78L162.59,44.96L162.90,45.21"/><path d="M159.89,10.77L161.41,11.65L160.34,11.03"/><path d="M161.41,11.65L161.77,11.86L161.77,33.36"/><path d="M161.91,35.19L161.77,35.10L161.77,35.05"/><path d="M163.47,42.36L163.60,42.74L163.91,43.08L164.37,43.34L164.96,43.52L165.60,43.59L166.26,43.55L166.87,43.40L167.37,43.15L167.72,42.83L167.89,42.46"/><path d="M163.62,42.76L163.81,42.50L164.24,42.21L164.80,42.00L165.44,41.90L166.10,41.92L166.72,42.05L167.25,42.27L167.64,42.58L167.75,42.75"/><path d="M172.83,44.22L173.70,43.71L173.70,41.99L166.09,37.60"/></g></g><g id="Actor_.5"><g style="stroke:#000000;stroke-width:0.353"><path d="M131.54,138.89L131.62,139.03L131.77,139.15L131.77,158.28"/><path d="M131.77,139.15L159.51,155.16L159.51,174.30"/><path d="M159.51,155.16L159.72,155.25L159.96,155.29L160.21,155.29L160.34,155.27L160.45,155.25L160.65,155.16L160.65,174.30"/><path d="M160.65,155.16L161.79,154.51"/><path d="M174.19,166.48L174.19,151.94"/><path d="M174.19,148.14L174.19,148.68"/></g><g style="stroke:#000000;stroke-width:0.705"><path d="M174.42,151.81L174.42,166.22L174.34,166.36L174.19,166.48L160.65,174.30L160.45,174.38L160.21,174.43L159.96,174.43L159.72,174.38L159.51,174.30L131.77,158.28L131.62,158.16L131.54,158.02L131.54,138.81"/><path d="M174.42,148.71L174.42,148.11"/></g></g><g id="Actor_.6"><g style="stroke:#000000;stroke-width:0.353"><path d="M148.00,70.52L148.00,70.65L147.99,70.79L147.94,70.92L147.87,71.04L147.78,71.17L147.67,71.28L147.54,71.39L147.42,71.46L147.38,71.49L147.21,71.58L147.02,71.66L146.82,71.72L146.61,71.77L146.39,71.81L146.17,71.84L145.94,71.85L145.71,71.85L145.48,71.83L145.25,71.80L145.24,71.79L145.04,71.75L144.83,71.69L144.64,71.62L144.46,71.54L144.30,71.44L144.15,71.34L144.03,71.23L143.93,71.11L143.85,70.98L143.79,70.85L143.76,70.72L143.75,70.59"/><path d="M143.64,71.61L143.64,71.61"/><path d="M145.24,75.55L145.24,75.57L145.27,75.62L145.31,75.67L145.36,75.72L145.42,75.76L145.49,75.79L145.57,75.82L145.65,75.84L145.74,75.86L145.83,75.87L145.93,75.87L146.02,75.86L146.08,75.85L146.11,75.84L146.19,75.82L146.27,75.79L146.34,75.76L146.35,75.75L146.40,75.72L146.45,75.67L146.49,75.62L146.51,75.57L146.52,75.55"/><path d="M146.55,75.64L146.50,75.71L146.42,75.78L146.33,75.83L146.22,75.88L146.09,75.91L145.96,75.92L145.83,75.92L145.70,75.91L145.57,75.88L145.45,75.84L145.36,75.79L145.27,75.73L145.22,75.66L145.18,75.58"/><path d="M146.83,74.72L146.75,74.77L146.63,74.84L146.49,74.90L146.33,74.95L146.16,74.98L145.99,75.00L145.81,75.00L145.64,74.99L145.47,74.96L145.31,74.92L145.16,74.86L145.03,74.79L144.92,74.71L144.84,74.62L144.77,74.53L144.74,74.43L144.73,74.33"/><path d="M144.94,75.06L144.98,75.14L145.05,75.23L145.14,75.30L145.26,75.37L145.39,75.42L145.53,75.46L145.68,75.49L145.84,75.50L146.00,75.49L146.15,75.47L146.30,75.44L146.44,75.39L146.56,75.33L146.66,75.26L146.74,75.19L146.80,75.10"/><path d="M144.73,72.96L144.74,73.06L144.77,73.16L144.84,73.26L144.92,73.34L145.03,73.42L145.16,73.49L145.20,73.51L145.31,73.55L145.47,73.59L145.64,73.62L145.81,73.64L145.86,73.64L145.99,73.63L146.16,73.62L146.33,73.58L146.49,73.54L146.63,73.48L146.75,73.41L146.86,73.32L146.94,73.23L146.95,73.21L146.99,73.14L147.03,73.04L147.03,72.93"/><path d="M144.73,73.64L144.74,73.74L144.77,73.84L144.84,73.94L144.92,74.03L145.03,74.11L145.16,74.18L145.20,74.19L145.31,74.23L145.47,74.28L145.64,74.31L145.81,74.32L145.99,74.32L146.16,74.30L146.33,74.27L146.46,74.23L146.49,74.22L146.63,74.16L146.75,74.09L146.86,74.01L146.94,73.92L146.95,73.89L146.99,73.82L147.03,73.72L147.03,73.62"/><path d="M144.64,70.85L144.82,70.70L145.01,70.55L145.20,70.41"/><path d="M144.49,70.43L144.84,70.33L145.20,70.24"/><path d="M144.64,70.03L144.81,69.91L144.98,69.81L145.17,69.72L145.71,70.73"/><path d="M145.17,69.72L145.36,69.79L145.54,69.85L145.73,69.94L145.88,70.69L145.88,69.63L145.80,69.77L145.73,69.94"/><path d="M145.33,75.92L145.33,75.92"/><path d="M145.33,74.32L145.36,74.35L145.42,74.39L145.49,74.43L145.57,74.46L145.65,74.48L145.74,74.49L145.83,74.50L145.93,74.50L146.02,74.49L146.04,74.49L146.11,74.48L146.19,74.46L146.27,74.43L146.34,74.39L146.40,74.35L146.43,74.32"/><path d="M146.43,75.01L146.40,75.03L146.34,75.08L146.27,75.11L146.19,75.14L146.11,75.16L146.02,75.18L145.93,75.18L145.83,75.18L145.74,75.18L145.65,75.16L145.57,75.14L145.49,75.11L145.42,75.08L145.36,75.03L145.33,75.01"/><path d="M146.43,73.64L146.40,73.67L146.34,73.71L146.27,73.74L146.19,73.77L146.11,73.79L146.04,73.81L146.02,73.81L145.93,73.82L145.83,73.82L145.74,73.81L145.65,73.79L145.57,73.77L145.49,73.74L145.42,73.71L145.36,73.67L145.33,73.64"/><path d="M146.43,72.96L146.40,72.98L146.34,73.02L146.27,73.06L146.19,73.09L146.11,73.11L146.02,73.13L145.93,73.13L145.83,73.13L145.74,73.13L145.65,73.11L145.57,73.09L145.49,73.06L145.42,73.02L145.36,72.98L145.33,72.96"/><path d="M146.21,72.93L146.16,72.93L145.99,72.95L145.81,72.95L145.64,72.94L145.54,72.92"/><path d="M145.84,71.10L145.88,71.04L145.76,70.82"/><path d="M145.92,71.10L145.88,71.04L145.88,70.69L146.02,69.94L145.95,69.77L145.88,69.63"/><path d="M145.88,71.24L145.88,71.04L146.00,70.82"/><path d="M145.93,71.06L145.88,71.04L145.83,71.06"/><path d="M146.02,69.94L146.22,69.85L146.30,69.82L146.40,69.78L146.59,69.72L146.04,70.73"/><path d="M147.12,70.85L146.93,70.70L146.75,70.55L146.56,70.41"/><path d="M147.12,70.03L146.95,69.91L146.77,69.81L146.59,69.72"/><path d="M146.56,70.24L146.92,70.33L147.27,70.43"/></g><g style="stroke:#000000;stroke-width:0.705"><path d="M143.82,72.15L143.82,72.16L143.93,72.28L144.06,72.40L144.21,72.51L144.39,72.61L144.57,72.70L144.78,72.77L145.00,72.83L145.22,72.88L145.46,72.92L145.70,72.94L145.94,72.94L146.18,72.93L146.42,72.90L146.65,72.86L146.87,72.81L147.08,72.74L147.28,72.66L147.46,72.56L147.62,72.46L147.76,72.34L147.88,72.22L147.98,72.09L148.05,71.96L148.09,71.82L148.11,71.68L148.11,71.54L148.00,70.52L147.97,70.39L147.91,70.26L147.83,70.14L147.73,70.02L147.61,69.91L147.46,69.80L147.30,69.71L147.12,69.62L146.93,69.55L146.72,69.49L146.50,69.45L146.28,69.42L146.05,69.40L145.82,69.39L145.59,69.41L145.43,69.42L145.37,69.43L145.15,69.47L144.93,69.52L144.73,69.59L144.55,69.66L144.38,69.75L144.22,69.85L144.09,69.96L143.97,70.08L143.88,70.20L143.83,70.29L143.82,70.33L143.77,70.46L143.75,70.59L143.64,71.61L143.65,71.75L143.68,71.89L143.74,72.03L143.82,72.15"/><path d="M146.58,75.49L146.58,75.57L146.55,75.64L146.41,75.96L146.36,76.02L146.31,76.07L146.23,76.11L146.14,76.14L146.05,76.17L145.94,76.18L145.84,76.18L145.74,76.17L145.64,76.15L145.55,76.12L145.47,76.08L145.41,76.03L145.36,75.98L145.18,75.58L145.17,75.51L145.17,75.49"/><path d="M144.95,74.81L144.92,74.87L144.92,74.96L144.94,75.06L145.09,75.38L145.14,75.46L145.22,75.54L145.25,75.55L145.32,75.60L145.44,75.65L145.57,75.69L145.71,75.71L145.86,75.72L146.01,75.72L146.11,75.70L146.15,75.70L146.29,75.66L146.41,75.61L146.46,75.58L146.51,75.55L146.60,75.48L146.66,75.40L146.80,75.10L146.83,75.01L146.84,74.92L146.82,74.83L146.81,74.81"/><path d="M146.87,74.76L146.86,74.78L146.75,74.86L146.63,74.93L146.49,74.99L146.37,75.02L146.33,75.04L146.16,75.07L145.99,75.09L145.81,75.09L145.64,75.08L145.47,75.05L145.31,75.00L145.16,74.95L145.03,74.88L144.95,74.82L144.92,74.80L144.84,74.71L144.77,74.61L144.74,74.51L144.73,74.41L144.73,74.33L144.74,74.23L144.79,74.13L144.85,74.04"/><path d="M144.78,72.77L144.74,72.86L144.73,72.96L144.73,73.05L144.74,73.15L144.77,73.25L144.84,73.34L144.92,73.43L145.03,73.51L145.16,73.58L145.31,73.64L145.47,73.68L145.64,73.71L145.81,73.72L145.99,73.72L146.16,73.70L146.33,73.67L146.49,73.62L146.63,73.56L146.75,73.49L146.86,73.41L146.94,73.32L146.95,73.29L146.99,73.22L147.03,73.12L147.03,73.02L147.03,72.93L147.01,72.83L146.97,72.77"/><path d="M144.85,73.36L144.79,73.44L144.74,73.54L144.73,73.64L144.73,73.73L144.74,73.83L144.77,73.93L144.84,74.03L144.92,74.11L145.03,74.19L145.16,74.26L145.20,74.28L145.31,74.32L145.47,74.36L145.64,74.39L145.81,74.41L145.99,74.40L146.16,74.39L146.33,74.35L146.49,74.31L146.63,74.25L146.75,74.17L146.86,74.09L146.94,74.00L146.99,73.91L147.03,73.81L147.03,73.70L147.03,73.62L147.01,73.52L146.96,73.42L146.90,73.36"/><path d="M146.67,72.86L146.63,72.88L146.49,72.94L146.33,72.99L146.16,73.02L146.03,73.03L145.99,73.04L145.81,73.04L145.64,73.02L145.47,73.00L145.31,72.95L145.16,72.90L145.08,72.85"/><path d="M144.64,70.85L145.17,71.16L145.35,71.00L145.44,70.93L145.54,70.85L145.73,70.72L145.88,71.24L146.02,70.72L146.22,70.85L146.35,70.96L146.40,71.00L146.59,71.16L147.12,70.85"/><path d="M144.49,70.43L144.84,70.41L145.20,70.41L145.35,71.00L145.20,70.24L145.01,70.16L144.82,70.09L144.64,70.03"/><path d="M145.35,71.01L145.35,71.00"/><path d="M147.02,74.28L147.01,74.20L146.96,74.10L146.90,74.04"/><path d="M147.27,70.43L146.92,70.41L146.56,70.41L146.41,71.00L146.41,71.01"/><path d="M146.41,71.00L146.56,70.24L146.75,70.16L146.93,70.09L147.12,70.03"/></g></g><g id="Actor_.7"><g style="stroke:#000000;stroke-width:0.353"><path d="M142.88,127.08L142.88,124.45L142.88,124.42"/><path d="M143.18,127.66L143.10,127.56L143.09,127.51"/><path d="M143.03,127.34L143.03,127.31"/><path d="M143.05,127.50L143.05,124.88L143.03,124.85"/><path d="M142.94,127.29L142.94,124.67L142.93,124.64"/><path d="M148.88,126.97L148.84,127.37L148.63,127.77L148.25,128.13L147.74,128.43L147.11,128.65L146.42,128.77L145.70,128.80L144.98,128.72L144.32,128.55L143.75,128.29L143.30,127.96L143.00,127.58L142.87,127.17"/><path d="M142.87,124.23L143.07,124.16"/><path d="M143.10,124.36L142.88,124.45"/><path d="M143.08,123.96L142.90,124.02"/><path d="M143.05,124.88L143.30,124.76"/><path d="M142.94,124.67L143.18,124.56"/><path d="M142.98,123.80L143.13,123.76"/><path d="M143.10,123.60L143.23,123.56"/><path d="M144.16,128.33L144.16,125.71L144.15,125.39L143.90,125.59L143.90,128.21"/><path d="M144.16,128.25L144.04,128.20L144.15,128.18L144.16,128.25"/><path d="M144.15,128.18L144.15,125.39"/><path d="M143.22,127.70L143.39,127.93L143.82,128.25L144.37,128.50L145.01,128.66L145.70,128.74L146.40,128.71L147.07,128.59L147.67,128.38L148.16,128.10L148.53,127.75L148.60,127.61"/><path d="M143.63,128.06L143.63,125.44L143.60,125.41"/><path d="M143.60,127.94L143.54,127.89L143.60,127.89"/><path d="M143.37,127.75L143.34,127.71L143.37,127.72"/><path d="M143.18,125.05L143.20,125.08L143.20,127.70"/><path d="M143.87,128.05L143.77,128.05L143.87,128.11"/><path d="M143.40,127.89L143.40,125.26L143.37,125.24"/><path d="M143.20,125.08L143.46,124.94"/><path d="M144.75,122.61L144.18,122.81L144.02,122.90L143.72,123.08L143.37,123.41L143.18,123.77L143.14,124.15L143.26,124.53L143.53,124.88L143.94,125.18L144.46,125.41L145.06,125.57L145.71,125.64L146.37,125.62L147.00,125.50L147.57,125.30L148.04,125.03L148.38,124.71L148.58,124.34L148.62,123.96L148.50,123.58L148.23,123.24L147.82,122.94L147.32,122.71L147.30,122.70L146.69,122.54"/><path d="M144.16,125.71L144.21,125.72L144.21,128.35"/><path d="M143.90,125.59L143.87,125.57"/><path d="M143.89,125.26L143.63,125.44"/><path d="M143.66,125.11L143.40,125.26"/><path d="M143.48,123.22L143.55,123.20"/><path d="M143.51,123.20L143.51,123.20"/><path d="M143.73,123.06L143.77,123.04"/><path d="M143.27,123.40L143.37,123.37"/><path d="M145.25,128.60L145.25,125.98L145.44,125.71L145.44,128.50L145.35,128.55L145.50,128.56L145.44,128.50"/><path d="M145.14,128.52L144.99,128.50L145.09,128.46L145.14,128.52"/><path d="M144.88,128.54L144.88,125.92L144.83,125.91L144.83,128.53"/><path d="M144.76,128.39L144.79,128.46L144.65,128.42L144.76,128.39L144.76,125.60L144.83,125.91"/><path d="M144.45,128.30L144.47,128.37L144.33,128.32L144.45,128.30L144.45,125.51L144.21,125.72"/><path d="M144.49,128.44L144.49,125.82L144.45,125.51"/><path d="M144.53,128.46L144.53,125.83L144.76,125.60"/><path d="M145.09,128.46L145.09,125.67L144.88,125.92"/><path d="M145.20,128.59L145.20,125.97L145.25,125.98"/><path d="M144.53,125.83L144.49,125.82"/><path d="M145.09,125.67L145.20,125.97"/><path d="M144.30,122.77L144.30,122.77L144.29,122.77"/><path d="M144.30,122.77L144.30,122.77"/><path d="M145.86,128.58L145.79,128.52L145.71,128.57L145.86,128.58"/><path d="M145.79,128.52L145.79,125.73L145.95,126.01L145.95,128.64"/><path d="M145.62,128.63L145.62,126.01L145.57,126.01L145.57,128.63"/><path d="M146.69,128.57L146.69,125.95L146.49,125.70L146.37,125.99L146.32,126.00L146.32,128.62"/><path d="M146.07,128.57L146.14,128.52L146.23,128.56L146.07,128.57"/><path d="M146.14,128.52L146.14,125.73L146.32,126.00"/><path d="M146.00,128.64L146.00,126.01L145.95,126.01"/><path d="M145.57,126.01L145.44,125.71"/><path d="M146.00,126.01L146.14,125.73"/><path d="M145.62,126.01L145.79,125.73"/><path d="M146.44,128.55L146.49,128.48L146.59,128.53L146.44,128.55"/><path d="M146.49,128.48L146.49,125.70"/><path d="M146.69,125.95L146.74,125.94L146.83,125.64L147.05,125.88L147.05,128.50"/><path d="M146.79,128.49L146.83,128.43L146.93,128.46L146.79,128.49"/><path d="M147.13,128.41L147.26,128.37L147.15,128.35L147.13,128.41"/><path d="M147.15,128.35L147.15,125.56L147.10,125.87L147.05,125.88"/><path d="M147.39,128.40L147.39,125.78L147.15,125.56"/><path d="M146.74,128.57L146.74,125.94"/><path d="M146.83,128.43L146.83,125.64"/><path d="M147.10,128.49L147.10,125.87"/><path d="M146.37,125.99L146.37,128.61"/><path d="M147.39,125.78L147.43,125.76L147.46,125.45L147.46,128.24L147.57,128.26L147.45,128.31L147.46,128.24"/><path d="M147.00,122.62L146.99,122.62"/><path d="M147.43,125.76L147.43,128.39"/><path d="M147.46,125.45L147.70,125.66L147.70,128.28"/><path d="M147.74,128.18L147.86,128.13L147.74,128.12"/><path d="M148.48,127.62L148.50,127.62L148.48,127.64"/><path d="M148.27,127.85L148.32,127.80L148.27,127.81"/><path d="M148.03,128.03L148.11,127.97L148.03,127.97"/><path d="M148.46,127.80L148.46,125.17L148.48,125.15"/><path d="M148.24,127.98L148.24,125.35L148.27,125.33"/><path d="M147.99,128.14L147.99,125.52L148.03,125.49"/><path d="M148.20,125.02L148.46,125.17"/><path d="M147.70,125.66L147.74,125.64"/><path d="M148.24,125.35L147.99,125.18"/><path d="M147.99,125.52L147.74,125.33"/><path d="M148.63,127.60L148.63,124.98L148.38,124.85"/><path d="M148.46,123.47L148.57,123.50"/><path d="M148.38,123.31L148.30,123.28"/><path d="M148.15,123.14L148.10,123.12"/><path d="M148.78,124.75L148.76,124.77L148.76,127.40"/><path d="M148.65,127.52L148.71,127.41"/><path d="M148.85,127.19L148.85,124.56L148.62,124.47"/><path d="M148.89,126.97L148.89,124.34L148.68,124.26"/><path d="M148.65,124.95L148.63,124.98"/><path d="M148.76,124.77L148.52,124.66"/><path d="M148.85,124.56L148.86,124.53"/><path d="M148.89,124.34L148.89,124.31"/><path d="M148.88,124.13L148.69,124.06"/><path d="M148.82,123.91L148.66,123.86"/><path d="M148.72,123.70L148.58,123.66"/></g><g style="stroke:#000000;stroke-width:0.705"><path d="M143.07,124.16L142.88,124.42L142.88,127.05L142.88,127.08L142.93,127.10"/><path d="M143.18,124.56L143.03,124.85L143.03,127.47L143.05,127.50L143.18,127.52"/><path d="M143.03,127.32L142.94,127.29L142.93,127.26L142.93,124.64L143.10,124.36"/><path d="M142.88,127.07L142.87,127.17L142.87,127.56"/><path d="M143.08,123.96L142.87,124.21L142.87,124.23L142.87,126.86L142.88,126.86"/><path d="M142.98,123.92L142.98,123.80L142.99,123.78L143.23,123.56"/><path d="M143.13,123.76L142.91,123.99L142.90,124.02L142.90,124.17"/><path d="M143.37,123.37L143.12,123.57L143.10,123.60L143.10,123.68"/><path d="M144.04,128.20L143.90,128.21L143.87,128.19L143.87,125.57L143.89,125.26"/><path d="M144.33,128.32L144.21,128.35L144.16,128.33L144.16,128.25"/><path d="M143.77,128.05L143.63,128.06L143.60,128.04L143.60,125.41L143.66,125.11"/><path d="M143.46,124.94L143.37,125.24L143.37,127.86L143.40,127.89L143.54,127.89"/><path d="M143.34,127.71L143.20,127.70L143.18,127.68L143.18,125.05L143.30,124.76"/><path d="M146.69,122.54L146.04,122.47L145.38,122.50L144.75,122.61L144.30,122.77L144.18,122.81L144.02,122.89L143.73,123.06L143.73,123.06"/><path d="M143.77,123.04L143.51,123.20L143.48,123.22L143.48,123.25"/><path d="M143.55,123.20L143.30,123.38L143.27,123.40L143.27,123.45"/><path d="M145.35,128.55L145.25,128.60L145.20,128.59L145.14,128.52"/><path d="M144.79,128.46L144.83,128.53L144.88,128.54L144.99,128.50"/><path d="M144.47,128.37L144.49,128.44L144.53,128.46L144.65,128.42"/><path d="M145.50,128.56L145.57,128.63L145.62,128.63L145.71,128.57"/><path d="M146.07,128.57L146.00,128.64L145.95,128.64L145.86,128.58"/><path d="M146.23,128.56L146.32,128.62L146.37,128.61L146.44,128.55"/><path d="M147.13,128.41L147.10,128.49L147.05,128.50L146.93,128.46"/><path d="M146.79,128.49L146.74,128.57L146.69,128.57L146.59,128.53"/><path d="M147.26,128.37L147.39,128.40L147.43,128.39L147.45,128.31"/><path d="M147.30,122.70L147.60,122.83L147.82,122.94L147.87,122.96L147.87,122.97"/><path d="M147.29,122.70L146.70,122.54"/><path d="M147.74,125.33L147.74,125.64L147.74,128.26L147.70,128.28L147.57,128.26"/><path d="M147.99,125.18L148.03,125.49L148.03,128.12L147.99,128.14L147.86,128.13"/><path d="M148.38,124.85L148.48,125.15L148.48,127.77L148.46,127.80L148.32,127.80"/><path d="M148.11,127.97L148.24,127.98L148.27,127.95L148.27,125.33L148.20,125.02"/><path d="M147.87,122.96L148.12,123.11L148.15,123.14L148.15,123.15"/><path d="M148.46,123.47L148.70,123.67L148.72,123.70L148.72,123.79"/><path d="M148.10,123.12L148.36,123.29L148.38,123.31L148.38,123.35"/><path d="M148.30,123.28L148.55,123.47L148.57,123.50L148.57,123.56"/><path d="M148.68,124.26L148.86,124.53L148.86,127.16L148.85,127.19L148.78,127.21"/><path d="M148.62,124.47L148.78,124.75L148.78,127.37L148.76,127.40L148.65,127.42"/><path d="M148.52,124.66L148.65,124.95L148.65,127.58L148.63,127.60L148.50,127.62"/><path d="M148.89,126.97L148.89,127.55"/><path d="M148.69,124.06L148.89,124.31L148.89,126.94L148.89,126.97L148.86,126.98"/><path d="M148.66,123.86L148.87,124.10L148.88,124.13L148.88,124.30"/><path d="M148.82,124.04L148.82,123.91L148.81,123.88L148.58,123.66"/></g></g><g id="Actor_.8"><g style="stroke:#000000;stroke-width:0.353"><path d="M159.51,174.74L159.51,174.30L131.77,158.28L131.77,158.72"/><path d="M131.77,158.28L131.62,158.16L131.54,158.02"/><path d="M134.42,160.74L156.86,173.70L156.88,173.82L156.93,173.91L157.02,173.96"/><path d="M156.86,173.70L156.86,173.20"/><path d="M160.65,174.74L160.65,174.30L160.45,174.38L160.21,174.43L159.96,174.43L159.72,174.38L159.51,174.30"/><path d="M160.65,174.30L174.19,166.48L174.19,166.92"/><path d="M163.30,173.20L163.30,173.70L163.28,173.82L163.23,173.91L163.14,173.96"/><path d="M163.30,173.70L171.54,168.94"/><path d="M174.42,166.08L174.42,166.22L174.34,166.36L174.19,166.48"/></g><g style="stroke:#000000;stroke-width:0.705"><path d="M131.54,158.02L131.54,158.46L131.62,158.60L131.77,158.72L134.42,160.25L134.42,160.74L134.44,160.86L134.49,160.96L157.02,173.96L157.12,173.96L157.24,173.92L157.67,173.67"/><path d="M163.30,173.20L160.65,174.74L160.45,174.82L160.21,174.87L159.96,174.87L159.72,174.82L159.51,174.74L156.86,173.20"/><path d="M174.42,166.08L174.42,166.66L174.34,166.80L174.19,166.92L171.54,168.45L171.54,168.94L171.52,169.06L171.47,169.16L163.14,173.96L163.04,173.96L162.92,173.92L162.50,173.67"/></g></g><g><g><path style="stroke:#ff0000;stroke-width:0.500;stroke-dasharray:0.6 0.6" d="M145.99,98.78L145.88,124.06"/><path style="stroke:#ff0000;stroke-width:0.500;stroke-dasharray:0.6 0.6" d="M146.08,76.16L146.01,93.02"/></g></g><g><g><path style="stroke:#ff0000;stroke-width:0.500;stroke-dasharray:0.6 0.6" d="M154.16,81.45L154.17,86.73"/><path style="stroke:#ff0000;stroke-width:0.500;stroke-dasharray:0.6 0.6" d="M154.13,55.02L154.16,79.81"/><path style="stroke:#ff0000;stroke-width:0.500;stroke-dasharray:0.6 0.6" d="M154.12,50.12L154.10,35.20"/></g></g><g><g><path style="stroke:#000000;stroke-width:0.500" d="M200.13,122.80L147.12,74.17"/></g><g><path style="fill:#000000" d="M148.12,74.17L148.12,74.07L148.10,73.98L148.08,73.88L148.05,73.79L148.01,73.70L147.96,73.62L147.90,73.54L147.83,73.46L147.76,73.40L147.68,73.34L147.60,73.29L147.51,73.25L147.41,73.21L147.32,73.19L147.22,73.18L147.12,73.17L147.03,73.18L146.93,73.19L146.83,73.21L146.74,73.25L146.65,73.29L146.57,73.34L146.49,73.40L146.42,73.46L146.35,73.54L146.29,73.62L146.24,73.70L146.20,73.79L146.17,73.88L146.14,73.98L146.13,74.07L146.12,74.17L146.13,74.27L146.14,74.37L146.17,74.46L146.20,74.55L146.24,74.64L146.29,74.73L146.35,74.81L146.42,74.88L146.49,74.94L146.57,75.00L146.65,75.05L146.74,75.10L146.83,75.13L146.93,75.15L147.03,75.17L147.12,75.17L147.22,75.17L147.32,75.15L147.41,75.13L147.51,75.10L147.60,75.05L147.68,75.00L147.76,74.94L147.83,74.88L147.90,74.81L147.96,74.73L148.01,74.64L148.05,74.55L148.08,74.46L148.10,74.37L148.12,74.27z"/></g><g><path style="fill:#fffbf0" d="M163.05,123.39L237.22,123.39L237.22,118.69L163.05,118.69z"/><text xml:space="preserve" fill="#000000" stroke-width="0" x="163.64" y="122.07" font-size="3.26" opacity="1.00" font-family="OCR A Std">5mm Phillips Self Tapping Screw</text></g></g><g><g><path style="stroke:#ff0000;stroke-width:0.500;stroke-dasharray:0.6 0.6" d="M138.44,64.07L138.49,95.78"/><path style="stroke:#ff0000;stroke-width:0.500;stroke-dasharray:0.6 0.6" d="M138.41,44.40L138.43,58.87"/></g></g><g><g><path style="stroke:#000000;stroke-width:0.500" d="M199.03,70.78L155.38,27.93"/></g><g><path style="fill:#000000" d="M156.38,27.93L156.38,27.83L156.36,27.73L156.34,27.64L156.31,27.55L156.26,27.46L156.21,27.37L156.15,27.29L156.09,27.22L156.02,27.16L155.94,27.10L155.85,27.05L155.76,27.00L155.67,26.97L155.58,26.95L155.48,26.93L155.38,26.93L155.28,26.93L155.19,26.95L155.09,26.97L155.00,27.00L154.91,27.05L154.83,27.10L154.75,27.16L154.67,27.22L154.61,27.29L154.55,27.37L154.50,27.46L154.46,27.55L154.42,27.64L154.40,27.73L154.39,27.83L154.38,27.93L154.39,28.03L154.40,28.12L154.42,28.22L154.46,28.31L154.50,28.40L154.55,28.48L154.61,28.56L154.67,28.64L154.75,28.70L154.83,28.76L154.91,28.81L155.00,28.85L155.09,28.89L155.19,28.91L155.28,28.92L155.38,28.93L155.48,28.92L155.58,28.91L155.67,28.89L155.76,28.85L155.85,28.81L155.94,28.76L156.02,28.70L156.09,28.64L156.15,28.56L156.21,28.48L156.26,28.40L156.31,28.31L156.34,28.22L156.36,28.12L156.38,28.03z"/></g><g><path style="fill:#fffbf0" d="M161.95,71.36L236.12,71.36L236.12,66.67L161.95,66.67z"/><text xml:space="preserve" fill="#000000" stroke-width="0" x="162.54" y="70.04" font-size="3.26" opacity="1.00" font-family="OCR A Std">15mm Philips Self Tapping Screw</text></g></g><g><g/></g><g/><g id="paperID" visibility="hidden" opacity="0.00" transform="scale(0.000100)"><path style="stroke:#000000;stroke-width:0.500;fill:#e6e6e6;fill-rule:evenodd" d="M-2000.00,-2000.00L2297.00,-2000.00L2297.00,2210.00L-2000.00,2210.00zM0.00,0.00L297.00,0.00L297.00,210.00L0.00,210.00z"/><path style="fill:#000000;fill-opacity:0.118" d="M3.00,210.00L297.00,210.00L297.00,3.00L300.00,3.00L300.00,213.00L3.00,213.00z"/></g><g id="ToolTip" visibility="hidden" opacity="0" transform="translate(0,0)"><rect id="ToolTipShadow" opacity="0.20" fill="black" stroke="none" x="0" y="0" width="30" height="8"/><rect id="ToolTipBG" fill="#ffffe1" stroke="black" x="0" y="0" width="30" height="8"/><text xml:space="preserve" id="ToolTipText" fill="black" x="0" y="0" width="30" height="8">tooltip</text></g></g></svg>
