<?xml version="1.0" encoding="UTF-8" standalone="no"?>
<svg xmlns="http://www.w3.org/2000/svg" xmlns:xlink="http://www.w3.org/1999/xlink" width="297.000mm" height="210.000mm" viewBox="0.000000 0.000000 297.000000 210.000000" stroke-linejoin="round" stroke-linecap="round" fill="none" fill-rule="evenodd"><desc>3DVIA Composer Export</desc><script type="text/ecmascript"><![CDATA[
if(typeof(top) != "undefined")
{
	top.ShowPaper = ShowPaper;
}
function ShowHotSpot(evt,hotspotid)
{
	var svgDocument = evt.target.ownerDocument;
	var strId = "hotspot."+hotspotid;
	var hotspot = svgDocument.getElementById(strId);
	if(hotspot)
		hotspot.setAttribute("opacity",".5");
}
function HideHotSpot(evt,hotspotid)
{
	var svgDocument = evt.target.ownerDocument;
	var strId = "hotspot."+hotspotid;
	var hotspot = svgDocument.getElementById(strId);
	if(hotspot)
		hotspot.setAttribute("opacity","0");

	var toolTip = svgDocument.getElementById('ToolTip');
	if(toolTip)
		toolTip.setAttribute("visibility","hidden");
}
function ShowToolTip(evt,hotspotid,strTooltip)
{
	if(strTooltip=="")
	return;

	// change text
	var svgDocument = evt.target.ownerDocument;
	var tiptext = svgDocument.getElementById('ToolTipText');
	if( !tiptext )
	return;
	tiptext.firstChild.nodeValue = " " + strTooltip + "  " ;

	// show tooltip before, else some refresh issue

	var toolTip = svgDocument.getElementById('ToolTip');
	if(!toolTip)
	return;

	toolTip.setAttribute("visibility","visible");
	toolTip.setAttribute("opacity",".95");

	// move tooltip
	// get viewbox

	var root = svgDocument.documentElement;
	var vbox = (root.getAttribute("viewBox")).split(' ');
	var x0 = parseFloat(vbox[0]);
	var y0 = parseFloat(vbox[1]);
	var vboxW = parseFloat(vbox[2]);
	var vboxH = parseFloat(vbox[3]);

	// get default width of svg

	var strW = root.getAttribute("width");
	var svgW = parseFloat(strW);
	if(strW.indexOf('mm') != -1)
	svgW *= 3.779;

	var strH = root.getAttribute("height");
	var svgH = parseFloat(strH);
	if(strH.indexOf('mm') != -1)
	svgH *= 3.779;  	// 96 dpi  -> 96/25.4 = 3.779

	// update the viewbox / width / height if svg is embedded in html with zoom fit all
	var realx0 = x0;
	var realy0 = y0;
	var realvboxW = vboxW;
	var realvboxH = vboxH;
	var realsvgW = svgW;
	var realsvgH = svgH;

	if ((typeof(top) == "undefined") || (typeof(top.svgctl1) != "undefined")) // embedded in html
	{
		// get window size in pxl

		svgW = window.innerWidth;
		svgH = window.innerHeight;

		// calculate real viewbox

		realsvgW = svgW;
		realsvgH = svgH;
		if((svgW / svgH) > (vboxW / vboxH))
		{
			realvboxW = (vboxH * svgW) / svgH;
			realvboxH = vboxH;
			realx0 = x0 - (realvboxW - vboxW)/2 ;
		}
		else
		{
			realvboxH = (vboxW * svgH) / svgW;
			realvboxW = vboxW;
			realy0 = y0 - (realvboxH - vboxH)/2 ;
		}
	}

	// get user zoom/pan

	var newScale = root.currentScale;
	var translation = root.currentTranslate;

	// transform pxl to user unit

	var xPos = (((evt.clientX+10- translation.x)/newScale) * realvboxW)/realsvgW  + realx0 ;
	var yPos = (((evt.clientY+5- translation.y)/newScale) * realvboxH)/ realsvgH  + realy0 ;
	var scaleForWidth = ( (1 / newScale) * realvboxH) / realsvgH;

	// move tooltip

	toolTip.setAttribute("transform", "translate(" + xPos + "," + yPos + ")" );

	// resize tooltip

	var fontsize = 12;
	tiptext.setAttribute("font-size",fontsize*scaleForWidth);
	tiptext.setAttribute("y", fontsize*scaleForWidth);
	var tipBG = svgDocument.getElementById('ToolTipBG');
	var outline = tiptext.getBBox();
	if(tipBG)
	{
		tipBG.setAttribute("stroke-width", 1*scaleForWidth);
		tipBG.setAttribute("width", Number(outline.width) );
		tipBG.setAttribute("height", Number(outline.height) + fontsize*.5*scaleForWidth );
	}
	var ToolTipShadow = svgDocument.getElementById('ToolTipShadow');
	if(ToolTipShadow)
	{
		ToolTipShadow.setAttribute("width", Number(outline.width) );
		ToolTipShadow.setAttribute("height", Number(outline.height) + fontsize*.5*scaleForWidth );
		ToolTipShadow.setAttribute("x", 3*scaleForWidth);
		ToolTipShadow.setAttribute("y", 3*scaleForWidth);
	}
}
function ShowPaper()
{
  var svgDocument = getDocument();
  var paper = svgDocument.getElementById("paperID");
  if(paper)
  {
    paper.setAttribute("transform","scale(1)");
    paper.setAttribute("opacity","1");
    paper.setAttribute("visibility","visible");
  }
  var svg = svgDocument.getRootElement();
  if(svg)
  {
    svg.setAttribute("width","307.000mm");
    svg.setAttribute("height","220.000mm");
    svg.setAttribute("viewBox","-5.000000 -5.000000 307.000000 220.000000");
  }
}
]]></script><defs/><g><path style="fill:#dcdcdc;fill-rule:evenodd" d="M110.69,61.68L109.34,61.67L109.36,61.26L110.09,60.85L110.39,60.89zM110.33,72.54L112.17,71.73L112.50,71.76L112.52,72.09L107.98,76.69L107.52,76.71L107.24,76.42L107.84,76.15L107.58,75.67L105.09,76.88L105.90,75.62L108.03,73.54L108.33,73.54L107.81,74.20L107.80,74.62L108.26,74.65L109.11,74.14L109.54,74.40L110.16,73.95L109.82,73.58L110.67,73.04zM112.27,77.22L112.24,77.54L111.34,77.56L111.36,76.66L111.68,76.63zM131.10,77.48L131.39,77.95L131.07,78.26L130.25,78.34L130.33,77.26L130.61,77.18zM106.55,77.42L106.23,77.75L105.38,77.72L105.93,77.16L106.30,77.17zM104.99,77.56L104.36,78.01L103.84,77.99L105.09,76.88zM117.69,78.73L117.66,79.60L116.87,79.89L116.80,78.47L117.40,78.44zM109.82,79.29L109.27,79.37L109.28,78.74L109.90,78.73zM147.30,80.28L148.13,79.74L148.44,79.76L148.44,80.93L147.93,80.86zM114.10,80.47L114.28,82.46L113.96,82.69L113.51,82.66L113.15,81.08L113.70,80.25zM125.05,83.68L124.54,83.68L125.11,83.12L125.40,83.12zM117.67,86.63L116.88,87.15L116.80,85.97L117.12,85.95zM123.35,85.06L123.09,86.86L122.76,87.09L122.23,87.14L122.32,85.57L123.55,84.41L123.85,84.41zM120.48,88.43L119.87,88.30L120.29,88.06zM115.64,88.57L115.60,88.92L115.07,89.22L114.98,88.30L115.33,88.27zM120.20,90.14L121.74,89.33L122.08,89.45L118.07,92.71L114.71,94.57L114.19,94.55L118.43,91.00L119.77,90.43L120.21,90.40zM173.60,100.06L172.78,100.60L172.68,99.44L173.57,99.45zM202.06,104.12L202.06,104.44L201.39,104.16L201.39,103.85L201.75,103.80zM197.85,104.97L198.92,104.88L198.83,105.94L197.86,105.94zM199.88,109.89L199.86,108.76L201.42,108.26L203.74,106.67L203.85,107.85L201.42,109.55L200.98,113.00L200.97,116.27L200.63,116.80L199.95,116.82L199.94,113.77L200.43,110.05zM236.95,109.60L237.22,109.53L237.22,110.68L236.92,110.37zM226.26,113.14L226.57,113.13L226.61,114.35L226.34,114.58zM211.08,132.59L210.58,132.59L202.50,118.62L202.50,117.83zM235.95,110.66L226.34,118.71L226.34,117.92L235.83,110.04L235.94,110.07zM192.55,119.77L192.71,120.73L191.92,121.30L191.85,119.89L192.45,119.66zM202.04,121.83L200.96,122.32L200.89,121.73L201.54,121.45zM225.31,114.26L215.73,122.08L215.73,121.29L225.23,113.67L225.34,113.71zM185.50,126.73L184.39,127.23L184.39,126.73L185.46,126.61zM196.57,128.69L195.94,129.22L195.55,129.25L195.54,127.23L195.99,126.84L196.31,126.86zM185.46,130.01L184.40,130.01L183.88,129.69L183.82,129.45zM193.24,129.95L192.58,130.51L192.17,130.53L192.16,129.81L193.00,129.71zM207.45,130.77L206.87,131.05L206.05,131.03L206.58,130.48zM210.83,133.56L210.82,135.01L210.04,136.06L209.72,133.86L210.59,133.33zM190.15,135.23L189.20,135.15L189.47,134.87L190.15,134.91zM162.17,135.39L163.20,138.79L163.22,141.48L141.73,157.27L141.44,156.67L141.21,154.57L139.82,150.66L145.52,146.56L161.80,135.15zM206.41,135.94L206.37,136.19L205.06,136.21L204.78,135.94L205.28,135.66L205.91,135.65zM195.96,136.48L195.45,136.56L195.51,136.03L196.31,135.91zM190.12,138.29L189.03,138.30L188.71,138.06L188.71,137.75L189.04,137.72zM189.09,140.10L187.65,140.14L187.66,139.84L188.58,139.80zM181.33,143.66L181.23,144.76L180.26,144.75L180.19,143.99L181.09,143.42zM174.94,158.61L174.48,159.26L173.98,159.34L173.97,158.44L174.86,158.46zM176.91,159.85L184.87,153.23L185.19,153.25L185.21,154.42L177.18,161.16zM165.55,160.49L165.17,161.06L164.67,161.15L164.66,160.24L165.29,160.23zM167.86,164.65L167.63,165.04L167.59,164.14zM170.97,165.42L170.96,167.10L170.60,164.93zM158.06,165.94L158.02,166.34L157.69,166.32L157.64,165.71zM160.88,166.97L160.87,168.66L160.49,166.49zM158.23,171.88L158.52,171.93L158.57,172.22L158.28,172.17zM149.23,173.47L148.90,173.55L148.95,172.94zM151.57,174.22L151.57,175.15L151.31,175.40L151.28,173.71zM148.48,180.68L148.38,180.98L147.94,180.98L147.59,180.42L148.21,180.42zM138.56,181.18L139.13,181.22L139.18,181.59L138.92,181.85L138.56,181.50zM142.00,182.22L142.00,183.13L141.37,184.08L140.60,184.09L141.22,182.36L141.76,181.98zM151.32,183.15L150.68,183.59L150.18,183.58L150.52,181.84L151.31,181.22z"/><g><g><path style="stroke:#000000;stroke-width:0.500" d="M181.95,186.84L179.13,186.84L150.83,183.06"/></g><g><path style="fill:#000000" d="M151.83,183.02L151.82,182.93L151.81,182.83L151.78,182.73L151.75,182.64L151.71,182.55L151.66,182.47L151.60,182.39L151.53,182.32L151.46,182.25L151.38,182.19L151.30,182.14L151.21,182.10L151.12,182.07L151.02,182.04L150.92,182.03L150.83,182.02L150.73,182.03L150.63,182.04L150.54,182.07L150.44,182.10L150.36,182.14L150.27,182.19L150.19,182.25L150.12,182.32L150.05,182.39L150.00,182.47L149.94,182.55L149.90,182.64L149.87,182.73L149.85,182.83L149.83,182.93L149.83,183.02L149.83,183.12L149.85,183.22L149.87,183.31L149.90,183.41L149.94,183.50L150.00,183.58L150.05,183.66L150.12,183.73L150.19,183.80L150.27,183.86L150.36,183.91L150.44,183.95L150.54,183.98L150.63,184.00L150.73,184.02L150.83,184.02L150.92,184.02L151.02,184.00L151.12,183.98L151.21,183.95L151.30,183.91L151.38,183.86L151.46,183.80L151.53,183.73L151.60,183.66L151.66,183.58L151.71,183.50L151.75,183.41L151.78,183.31L151.81,183.22L151.82,183.12z"/></g><g><path style="fill:#fffbf0" d="M181.37,189.06L212.26,189.06L212.26,184.54L181.37,184.54z"/><text xml:space="preserve" fill="#000000" stroke-width="0" x="181.94" y="187.79" font-size="3.43" opacity="1.00" font-family="OCR A Std">M2.5 Hex Nut</text></g></g><g id="Actor_.0"><g style="stroke:#000000;stroke-width:0.353"><path d="M179.83,141.57L178.97,142.24"/></g><g style="stroke:#000000;stroke-width:0.705"><path d="M178.76,141.87L179.83,141.57L180.45,142.13L180.95,142.82L181.27,143.56L181.39,144.26L180.53,144.93"/></g></g><g id="Actor_.1"><g style="stroke:#000000;stroke-width:0.353"><path d="M147.53,130.58L156.50,126.86L156.86,126.81L157.27,126.93L157.71,127.20L158.12,127.60L158.46,128.10L176.63,159.56L176.86,160.08L176.97,160.57L176.93,160.98L176.75,161.27"/><path d="M164.56,160.08L164.45,160.31L164.44,160.64L164.55,161.02L164.76,161.42L165.04,161.79L165.38,162.10L165.71,162.30L166.03,162.38L166.28,162.34"/><path d="M175.81,160.56L175.52,160.61L175.18,160.53L174.80,160.31L174.45,159.99L174.15,159.60L174.08,159.47L173.93,159.18L173.82,158.78L173.83,158.43L173.97,158.18"/></g><g style="stroke:#000000;stroke-width:0.705"><path d="M169.18,162.73L176.45,161.41L176.75,161.27L185.07,154.33L185.25,154.04L185.30,153.63L185.21,153.15L184.98,152.64L167.35,122.11L167.01,121.63L166.61,121.25L166.17,120.99L165.76,120.89L165.39,120.94L156.20,124.88L147.53,130.58L147.30,130.77L147.18,131.09"/><path d="M155.75,146.73L164.50,161.87L164.82,162.34L165.21,162.75L165.63,163.05L165.98,163.20"/><path d="M164.56,160.08L164.77,159.96L165.06,159.98L165.39,160.12L165.74,160.38L166.05,160.73L166.30,161.12L166.46,161.52L166.51,161.88L166.45,162.16L166.28,162.34"/><path d="M173.97,158.18L174.20,158.06L174.52,158.07L174.89,158.22L175.26,158.49L175.60,158.85L175.86,159.27L176.03,159.69L176.07,160.07L176.00,160.37L175.81,160.56"/></g></g><g id="Actor_.2"><g style="stroke:#000000;stroke-width:0.353"><path d="M126.76,144.53L132.84,142.25L135.05,143.99L137.19,146.35L139.06,149.11L140.46,152.01L141.28,154.78L141.45,157.16"/><path d="M132.84,142.25L155.25,127.38"/></g><g style="stroke:#000000;stroke-width:0.705"><path d="M127.13,147.20L127.02,146.86L126.76,144.53L148.66,130.11L155.25,127.38L157.46,128.90L159.54,131.02L161.31,133.57L162.59,136.29L163.26,138.94L163.27,141.26L141.45,157.16L134.99,158.79L132.89,157.04L130.90,154.78L129.18,152.19L127.85,149.48L127.13,147.20"/></g></g><g id="Actor_.3"><g style="stroke:#000000;stroke-width:0.353"><path d="M103.70,77.96L103.68,77.89L103.77,77.76L107.50,73.82L107.70,73.64L107.98,73.44L108.68,73.03L109.03,72.87L112.39,71.46L112.48,71.44L112.57,71.45L112.66,71.48L112.81,71.63"/><path d="M105.16,77.74L105.26,77.56L105.53,77.31L105.94,77.00L106.45,76.68L107.00,76.38L107.53,76.13L108.00,75.95L108.32,75.88L108.49,75.91"/><path d="M104.85,77.19L104.94,77.01L105.21,76.76L105.62,76.45L106.13,76.13L106.68,75.83L107.21,75.57L107.67,75.40L108.00,75.33L108.17,75.36"/><path d="M106.00,77.29L106.04,77.33L106.17,77.32L106.37,77.26L106.89,77.01L107.39,76.69L107.56,76.55L107.66,76.44L107.66,76.38"/><path d="M204.05,105.86L203.97,106.17L203.72,106.43L201.35,108.11L200.94,108.31L200.43,108.41L199.86,108.41L199.29,108.31L198.78,108.11L106.55,61.49L106.35,61.34L106.27,61.16"/><path d="M107.64,74.25L107.75,74.06L108.02,73.79L108.45,73.47L108.97,73.14L109.54,72.83L110.08,72.58L110.55,72.41L110.88,72.34L111.04,72.38"/><path d="M107.97,74.81L108.07,74.62L108.35,74.35L108.78,74.04L109.30,73.71L109.86,73.40L110.41,73.14L110.87,72.97L111.20,72.90L111.37,72.94"/><path d="M108.82,74.35L108.86,74.40L108.99,74.39L109.19,74.33L109.72,74.08L110.24,73.75L110.41,73.61L110.51,73.49L110.52,73.42"/><path d="M109.35,78.39L109.25,78.48L109.19,78.64L109.19,78.86L109.24,79.10L109.34,79.35L109.47,79.58L109.63,79.75L109.80,79.87L109.95,79.90L110.08,79.85"/><path d="M111.24,61.12L111.19,60.98L111.02,60.87L110.78,60.78L110.47,60.74L110.14,60.75L109.81,60.80L109.53,60.89L109.33,61.02L109.22,61.16L109.22,61.30"/><path d="M112.36,78.30L112.20,78.37L112.00,78.32L111.79,78.19L111.59,77.96L111.42,77.68L111.30,77.37L111.23,77.06L111.24,76.79L111.32,76.59L111.45,76.47"/><path d="M113.65,80.03L113.35,80.27L113.19,80.71L113.17,81.29L113.30,81.95L113.57,82.63L113.94,83.25L114.38,83.74L114.85,84.05L115.28,84.15L115.63,84.03"/><path d="M113.73,94.70L113.72,94.65L113.83,94.55L117.90,91.17L118.12,91.00L118.41,90.82L119.11,90.41L122.72,88.65L123.06,88.40"/><path d="M117.39,92.59L117.18,92.77L116.71,93.07L116.18,93.36L115.81,93.51L115.73,93.52"/><path d="M115.69,89.56L115.56,89.60L115.40,89.56L115.23,89.44L115.07,89.26L114.93,89.04L114.83,88.79L114.78,88.55L114.79,88.34L114.85,88.19L114.96,88.11"/><path d="M117.74,87.63L117.58,87.68L117.38,87.64L117.17,87.49L116.96,87.26L116.79,86.98L116.67,86.67L116.63,86.47L116.61,86.37L116.62,86.11L116.70,85.91L116.84,85.81"/><path d="M118.07,80.59L117.85,80.67L117.59,80.61L117.31,80.43L117.04,80.13L116.82,79.76L116.66,79.35L116.58,78.95L116.59,78.61L116.70,78.34L116.88,78.19"/><path d="M118.80,90.98L118.87,90.98L119.25,90.83L119.80,90.53L120.28,90.23L120.49,90.04"/><path d="M125.65,82.63L125.23,82.85L122.27,85.35L122.15,85.51L122.08,85.73L122.07,86.01L122.15,87.13L122.19,87.22L122.20,87.31L122.18,87.40L122.14,87.48"/><path d="M123.15,86.65L122.15,87.13"/><path d="M130.44,77.04L130.27,77.17L130.17,77.39L130.14,77.69L130.20,78.03L130.33,78.37L130.52,78.68L130.74,78.92L130.99,79.08L131.22,79.12L131.42,79.06"/><path d="M147.22,80.13L147.30,79.95L147.49,79.79L147.78,79.67L148.14,79.60L148.52,79.59L148.88,79.64L149.18,79.75L149.41,79.91L149.52,80.09"/><path d="M174.10,101.36L173.82,101.41L173.50,101.33L173.19,101.13L172.90,100.84L172.69,100.49L172.55,100.10L172.52,99.73L172.60,99.42L172.77,99.19"/><path d="M189.46,139.83L189.06,139.85L188.67,139.71L188.30,139.44L188.00,139.04L181.55,127.87L181.35,127.40L181.27,126.90L181.32,126.43L181.49,126.03L181.76,125.73L185.02,123.38L185.32,123.20L185.51,123.11"/><path d="M183.98,125.27L183.42,125.52L183.00,125.98L182.75,126.63L182.70,127.38L182.87,128.16L183.22,128.87L183.73,129.45L184.33,129.82L184.97,129.95L185.56,129.83"/><path d="M186.06,129.66L185.46,129.79L184.83,129.66L184.22,129.28L183.71,128.70L183.36,127.98L183.20,127.21L183.24,126.45L183.49,125.81L183.91,125.34L184.47,125.10"/><path d="M185.59,128.54L185.84,128.36L186.00,128.07L186.08,127.72L186.05,127.33L185.91,126.96L185.70,126.63L185.42,126.39L185.11,126.26L184.79,126.26"/><path d="M188.77,133.57L188.23,133.83L187.87,134.24L187.81,134.31L187.57,134.97L187.53,135.73L187.69,136.52L188.05,137.23L188.55,137.81L189.15,138.17L189.78,138.29L190.37,138.15"/><path d="M190.88,138.00L190.29,138.14L189.66,138.02L189.06,137.66L188.55,137.08L188.20,136.36L188.03,135.58L188.07,134.82L188.31,134.16L188.73,133.67L189.27,133.42"/><path d="M189.60,134.59L189.91,134.58L190.22,134.71L190.50,134.95L190.71,135.27L190.85,135.65L190.88,136.04L190.81,136.40L190.65,136.69L190.40,136.88"/><path d="M192.35,129.39L192.15,129.58L192.05,129.87L192.07,130.22L192.19,130.59L192.42,130.95L192.71,131.26L193.05,131.49L193.39,131.60L193.70,131.59L193.95,131.46"/><path d="M194.07,122.24L193.75,122.43L193.34,122.46L192.89,122.33L192.45,122.04L192.06,121.64L191.77,121.17L191.61,120.67L191.59,120.21L191.71,119.82L191.97,119.55"/><path d="M196.95,137.29L196.75,137.39L196.49,137.39L196.21,137.29L195.94,137.10L195.70,136.85L195.51,136.56L195.41,136.25L195.40,135.97L195.49,135.75L195.65,135.60"/><path d="M195.94,126.62L195.48,127.05L195.26,127.69L195.28,128.47L195.56,129.31L196.05,130.12L196.72,130.81L197.48,131.31L198.25,131.56L198.96,131.54L199.53,131.25"/><path d="M200.32,105.49L200.26,105.23L200.07,104.99L199.75,104.78L199.35,104.63L198.91,104.56L198.47,104.57L198.09,104.66L197.80,104.83L197.63,105.04"/><path d="M207.03,135.80L206.63,135.82L206.21,135.67L205.82,135.36L205.50,134.93L198.48,122.78L198.26,122.27L198.17,121.74L198.20,121.23L198.37,120.79L198.65,120.48L201.97,117.99L202.29,117.73L202.43,117.54L202.39,117.45"/><path d="M200.90,118.31L200.78,118.33L200.21,117.34L199.84,116.54L199.66,115.74L199.66,114.98L200.42,109.84"/><path d="M202.04,123.79L202.33,123.66L202.54,123.41L202.65,123.06L202.67,122.66L202.57,122.24L202.38,121.85L202.11,121.54L201.79,121.33L201.46,121.26L201.16,121.32"/><path d="M201.78,117.59L200.78,118.33"/><path d="M201.06,103.87L201.45,103.69L201.77,103.69"/><path d="M207.26,132.83L207.54,132.69L207.75,132.43L207.86,132.08L207.87,131.67L207.77,131.25L207.58,130.86L207.31,130.55L207.00,130.35L206.67,130.28L206.37,130.35"/><path d="M209.32,136.42L209.74,135.82L209.89,135.03L209.75,134.11L209.60,133.76"/></g><g style="stroke:#000000;stroke-width:0.705"><path d="M113.41,70.71L113.11,70.48L112.65,70.29L112.18,70.24L111.74,70.33L108.03,71.89L107.33,72.30L107.04,72.51L106.84,72.69L103.14,76.66L103.05,76.79L103.07,76.86L103.70,77.96L103.83,77.96L104.05,77.91L105.03,77.50"/><path d="M108.17,75.36L108.49,75.91L108.47,76.04L108.29,76.26L107.94,76.54L107.48,76.86L106.95,77.17L106.40,77.45L105.91,77.66L105.51,77.79L105.25,77.81L105.16,77.74L104.85,77.19"/><path d="M107.66,76.38L107.58,76.36L107.18,76.49L106.64,76.76L106.18,77.08L106.05,77.20L106.00,77.29"/><path d="M202.10,104.39L202.11,104.27L202.00,103.89L201.77,103.69L113.15,60.34L112.77,60.27L112.35,60.35L111.10,59.74L110.79,59.63L110.41,59.57L109.99,59.57L109.58,59.63L109.21,59.74L106.80,60.66L106.51,60.81L106.33,60.98L106.27,61.16L106.40,62.40L106.48,62.57L106.68,62.72L198.57,109.58L199.08,109.77L199.65,109.88L200.22,109.88L200.73,109.78L201.13,109.58L203.50,107.89L203.75,107.62L203.83,107.31L204.05,105.86L203.95,105.53L203.68,105.22L203.28,104.96L201.06,103.87"/><path d="M115.32,91.33L114.94,90.95L114.51,90.33L108.34,79.64L108.00,78.93L107.79,78.20L107.71,77.52L107.79,76.96L108.02,76.56L107.98,76.51"/><path d="M111.04,72.38L111.37,72.94L111.35,73.08L111.15,73.31L110.79,73.61L110.31,73.93L109.77,74.25L109.22,74.53L108.71,74.75L108.31,74.87L108.05,74.89L107.97,74.81L107.64,74.25"/><path d="M108.82,74.35L108.87,74.26L109.23,73.97L109.77,73.65L110.27,73.44L110.44,73.40L110.52,73.42"/><path d="M110.08,79.85L110.16,79.73L110.19,79.53L110.17,79.30L110.10,79.05L109.97,78.81L109.83,78.61L109.66,78.45L109.49,78.38L109.35,78.39"/><path d="M111.24,61.12L111.19,61.27L111.03,61.40L110.78,61.51L110.47,61.59L110.14,61.62L109.81,61.60L109.53,61.54L109.33,61.43L109.22,61.30"/><path d="M112.36,78.30L112.46,78.14L112.51,77.90L112.48,77.61L112.38,77.29L112.23,76.99L112.04,76.73L111.83,76.55L111.63,76.46L111.45,76.47"/><path d="M125.93,82.63L123.27,84.88L123.15,85.04L123.08,85.26L123.07,85.53L123.15,86.65L123.34,87.11L123.39,87.59L123.29,88.03L123.06,88.40L117.85,92.66L117.52,92.90L114.33,94.47L114.05,94.60L113.84,94.68L113.73,94.70L113.10,93.60L113.09,93.55L113.19,93.45L117.46,89.87L118.09,89.47L118.45,89.27L122.07,87.53L122.14,87.48"/><path d="M113.13,66.01L113.47,69.88L113.47,70.46L113.36,70.94L113.14,71.28L112.81,71.63"/><path d="M116.38,90.76L115.56,91.19L115.02,91.50L114.54,91.81L114.18,92.07L113.98,92.25L113.96,92.35L114.13,92.66"/><path d="M115.89,83.61L115.83,83.60L115.37,83.29L114.93,82.80L114.56,82.18L114.29,81.51L114.16,80.86L114.18,80.26L114.24,80.09"/><path d="M113.65,80.03L114.05,80.01L114.50,80.21L114.97,80.62L115.39,81.18L115.71,81.85L115.92,82.54L115.97,83.18L115.87,83.69L115.63,84.03"/><path d="M115.73,93.52L115.75,93.47L116.03,93.25L116.54,92.94L117.24,92.60L117.36,92.57L117.39,92.59"/><path d="M115.69,89.56L115.77,89.44L115.81,89.26L115.79,89.03L115.72,88.78L115.60,88.54L115.44,88.34L115.28,88.18L115.11,88.11L114.96,88.11"/><path d="M117.17,90.10L116.98,89.78L117.02,89.68L117.23,89.48L117.60,89.21L118.65,88.57L119.70,88.04L120.09,87.88L120.32,87.83L120.57,88.24"/><path d="M116.84,85.81L117.02,85.80L117.23,85.90L117.45,86.09L117.64,86.35L117.79,86.65L117.88,86.96L117.90,87.25L117.85,87.48L117.74,87.63"/><path d="M116.88,78.19L117.12,78.17L117.40,78.29L117.68,78.54L117.93,78.87L118.13,79.27L118.25,79.69L118.28,80.07L118.21,80.38L118.07,80.59"/><path d="M117.59,78.46L117.66,78.90L117.82,79.31L118.04,79.68L118.26,79.92"/><path d="M118.80,90.98L118.82,90.93L118.93,90.84L119.12,90.70L119.64,90.39L120.16,90.12L120.47,90.01L120.49,90.04"/><path d="M125.65,82.63L126.17,82.63L126.73,82.84L179.01,111.29L179.80,111.83L180.52,112.56L181.12,113.42L185.37,120.79L185.55,121.16L185.64,121.53L185.65,121.88L185.51,123.11"/><path d="M130.44,77.04L130.66,77.03L130.90,77.13L131.14,77.33L131.36,77.61L131.52,77.95L131.61,78.29L131.62,78.62L131.56,78.88L131.42,79.06"/><path d="M131.60,78.25L131.36,77.89L131.23,77.54L131.21,77.43"/><path d="M149.52,80.09L149.50,80.28L149.37,80.45L149.12,80.60L148.79,80.69L148.42,80.73L148.04,80.71L147.70,80.63L147.43,80.49L147.26,80.32L147.22,80.13"/><path d="M174.10,101.36L174.32,101.19L174.45,100.91L174.47,100.57L174.39,100.18L174.21,99.80L173.96,99.47L173.65,99.22L173.33,99.09L173.02,99.07L172.77,99.19"/><path d="M174.47,100.65L174.22,100.50L173.94,100.21L173.72,99.85L173.59,99.47L173.56,99.19"/><path d="M210.57,132.96L210.72,133.30L210.86,134.21L210.70,135.01L210.28,135.61L209.32,136.42L208.68,136.76L197.54,139.75L196.81,139.79L196.00,139.56L195.18,139.07L194.45,138.39L193.86,137.56L193.46,136.88L193.26,136.95L192.96,137.14L189.80,139.66L189.46,139.83L188.44,140.11L188.05,140.13L187.66,140.00L187.29,139.72L187.00,139.33L180.58,128.21L180.38,127.74L180.30,127.25L180.35,126.78L180.52,126.38L180.79,126.09L184.04,123.74L184.49,123.45L185.54,122.84"/><path d="M184.79,126.26L184.52,126.38L184.31,126.61L184.18,126.94L184.16,127.32L184.24,127.70L184.42,128.06L184.67,128.35L184.97,128.53L185.29,128.60L185.59,128.54"/><path d="M184.59,128.26L184.57,127.85L184.44,127.48L184.22,127.15L184.17,127.11"/><path d="M185.56,129.83L186.06,129.66L186.55,129.29L186.89,128.72L187.03,128.02L186.97,127.25L186.71,126.50L186.27,125.85L185.72,125.37L185.09,125.11L184.47,125.10L183.98,125.27"/><path d="M189.60,134.59L189.33,134.72L189.12,134.96L189.00,135.29L188.98,135.67L189.07,136.06L189.24,136.42L189.50,136.71L189.80,136.89L190.11,136.95L190.40,136.88"/><path d="M190.40,138.13L190.37,138.15L190.88,138.00L191.36,137.62L191.69,137.04L191.82,136.32L191.75,135.54L191.49,134.79L191.06,134.14L190.51,133.66L189.89,133.41L189.27,133.42L188.77,133.57"/><path d="M189.00,135.43L189.20,135.73L189.33,136.10L189.35,136.54"/><path d="M192.35,129.39L192.63,129.32L192.97,129.37L193.31,129.54L193.64,129.81L193.90,130.15L194.08,130.53L194.15,130.90L194.10,131.22L193.95,131.46"/><path d="M191.97,119.55L192.34,119.44L192.78,119.49L193.23,119.70L193.65,120.04L194.00,120.49L194.24,120.99L194.33,121.48L194.27,121.92L194.07,122.24"/><path d="M193.04,129.41L193.04,129.47L193.17,129.85L193.39,130.21L193.68,130.52L194.02,130.74L194.12,130.77"/><path d="M194.30,121.72L193.88,121.59L193.44,121.31L193.05,120.91L192.76,120.44L192.60,119.95L192.59,119.47"/><path d="M195.65,135.60L195.88,135.55L196.16,135.59L196.44,135.74L196.70,135.96L196.92,136.24L197.06,136.55L197.12,136.84L197.08,137.10L196.95,137.29"/><path d="M196.46,135.76L196.65,136.08L196.89,136.34L197.00,136.40"/><path d="M199.85,130.77L199.23,130.79L198.45,130.54L197.69,130.05L197.03,129.36L196.54,128.56L196.26,127.72L196.24,126.94L196.39,126.49"/><path d="M199.53,131.25L199.89,130.71L200.00,129.98L199.85,129.15L199.46,128.30L199.37,128.18L198.86,127.53L198.12,126.93L197.33,126.55L196.58,126.44L195.94,126.62"/><path d="M201.40,109.38L200.67,114.25L200.67,115.00L200.85,115.80L201.21,116.59L201.78,117.59L202.17,117.47L202.39,117.46L211.02,132.42L210.90,132.64L210.60,132.94L207.38,135.62L207.03,135.80L205.83,136.13L205.43,136.15L205.01,136.00L204.63,135.70L204.31,135.27L197.33,123.18L197.11,122.68L197.01,122.14L197.05,121.64L197.22,121.21L197.49,120.89L200.82,118.42L200.91,118.33L200.90,118.31"/><path d="M200.32,105.49L200.23,105.72L200.00,105.92L199.65,106.05L199.23,106.11L198.78,106.07L198.35,105.96L198.00,105.78L197.75,105.56L197.61,105.29L197.63,105.04"/><path d="M200.71,122.59L200.83,122.84L200.88,123.06"/><path d="M202.04,123.79L201.72,123.78L201.39,123.64L201.09,123.37L200.85,123.02L200.71,122.61L200.67,122.20L200.74,121.81L200.90,121.51L201.16,121.32"/><path d="M206.02,131.89L205.99,131.78L205.94,131.67L206.09,132.08L206.32,132.44L206.62,132.70L206.94,132.83L207.26,132.83"/><path d="M205.94,131.67L205.89,131.25L205.96,130.86L206.12,130.55L206.37,130.35"/></g></g><g id="Actor_.4"><g style="stroke:#000000;stroke-width:0.353"><path d="M139.89,182.86L139.82,182.90L139.68,182.90L139.52,182.85L139.33,182.74L139.14,182.58L139.04,182.49L138.95,182.39L138.77,182.17L138.61,181.93L138.54,181.80L138.48,181.68L138.39,181.45L138.33,181.23L138.33,181.14L138.33,181.05L138.37,180.91L138.42,180.85"/><path d="M137.57,180.96L137.50,180.68L137.48,180.44L137.49,180.23L137.53,180.04L137.62,179.90L137.73,179.80L137.88,179.75L138.06,179.75L138.26,179.79L138.06,179.72L137.87,179.62L137.78,179.56L137.69,179.49L137.60,179.41"/><path d="M139.86,182.89L139.74,182.92L139.58,182.89L139.41,182.81L139.22,182.68L139.02,182.51L138.84,182.30L138.67,182.06L138.52,181.82L138.41,181.58L138.34,181.35L138.31,181.15L138.32,180.99L138.38,180.87"/><path d="M141.78,181.60L140.96,182.26L140.77,182.10L140.60,181.95L140.44,181.80L140.30,181.65L140.17,181.50L139.94,181.21L139.71,180.93L139.47,180.65L139.22,180.40L138.96,180.18L138.71,180.01L138.47,179.87L138.26,179.79L138.47,179.84L138.60,179.87L138.74,179.89L138.89,179.90L139.05,179.91L139.24,179.92L140.06,179.26L140.25,179.42L140.42,179.57L140.58,179.72L140.72,179.86L140.85,180.01L141.08,180.30L141.28,180.60L141.49,180.95L141.59,181.15L141.68,181.35"/><path d="M138.69,180.92L138.62,180.99L138.59,181.10L138.59,181.25L138.64,181.43L138.71,181.62L138.82,181.82L138.95,182.02L139.10,182.20L139.26,182.36L139.41,182.49L139.57,182.58L139.70,182.62L139.81,182.62L139.90,182.57"/><path d="M139.24,179.92L139.34,180.15L139.43,180.35L139.53,180.56L139.63,180.73L139.73,180.91L139.94,181.21L140.15,181.51L140.34,181.84L140.51,182.16L140.64,182.47L140.74,182.77L140.80,183.05L140.83,183.29L140.83,183.06L140.84,182.92L140.86,182.78L140.89,182.61L140.92,182.45L140.96,182.26"/><path d="M139.57,183.70L139.81,183.84L140.03,183.92L140.22,183.97L140.41,183.97L140.56,183.92L140.68,183.83L140.77,183.69L140.82,183.51L140.83,183.29L140.85,183.51L140.86,183.63L140.89,183.73L140.92,183.85L140.96,183.95L141.01,184.07"/><path d="M140.06,179.26L139.97,179.18L139.88,179.11"/><path d="M141.83,181.70L141.87,181.81"/></g><g style="stroke:#000000;stroke-width:0.705"><path d="M137.67,181.26L137.57,180.96L137.54,180.88L137.58,181.00L137.67,181.26L137.80,181.57L137.96,181.89L138.15,182.20L138.36,182.50L138.58,182.78L138.82,183.06L139.07,183.30L139.32,183.52"/><path d="M137.54,180.88L137.52,180.78L137.50,180.66L137.48,180.44L137.48,180.20L137.51,179.92L137.53,179.76L137.60,179.41L138.42,178.76L138.60,178.77L138.76,178.78L138.92,178.79L139.05,178.81L139.18,178.83L139.40,178.88L139.59,178.96L139.69,179.00L139.78,179.05L139.88,179.11L140.10,179.28L140.36,179.49L140.61,179.74L140.86,180.01L141.08,180.30L141.28,180.60L141.48,180.91L141.64,181.23L141.78,181.55L141.87,181.81L141.90,181.93L141.94,182.15L141.96,182.37L141.96,182.61L141.95,182.75L141.93,182.89L141.90,183.05L141.87,183.21L141.83,183.40L141.01,184.07L140.83,184.06L140.67,184.05L140.51,184.03L140.38,184.01L140.25,183.98L140.03,183.92L139.83,183.85L139.73,183.80L139.64,183.74L139.57,183.70L139.32,183.52L139.54,183.68L139.64,183.74"/><path d="M138.69,180.92L138.79,180.89L138.86,180.90"/><path d="M138.70,180.91L138.66,180.94"/><path d="M138.38,180.87L138.48,180.81L138.62,180.81L138.79,180.86L138.97,180.96L139.16,181.12L139.36,181.31L139.54,181.54L139.70,181.78L139.83,182.03L139.92,182.26L139.97,182.48L139.98,182.58L139.98,182.66L139.94,182.80L139.86,182.89"/><path d="M139.90,182.57L139.95,182.47L139.96,182.40"/><path d="M141.68,181.35L141.78,181.60L141.83,181.70"/></g></g><g id="Actor_.5"><g style="stroke:#000000;stroke-width:0.353"><path d="M224.52,117.34L224.66,117.25L224.83,117.20L225.02,117.19L225.23,117.24L225.43,117.32L225.62,117.45L225.79,117.61L225.92,117.80L226.02,118.00L226.08,118.21L226.08,118.40L226.04,118.58L225.96,118.73L225.83,118.84"/><path d="M233.85,108.46L234.05,108.32L234.28,108.22L234.54,108.17L234.81,108.17L235.10,108.21L235.38,108.29L235.66,108.42L235.93,108.59L236.18,108.79L236.39,109.03L236.58,109.28L236.72,109.55L236.83,109.83L236.88,110.12L236.89,110.39L236.85,110.65L236.77,110.88L236.64,111.09L236.47,111.27"/></g><g style="stroke:#000000;stroke-width:0.705"><path d="M234.45,109.21L234.45,109.20L224.52,117.34L224.41,117.47L224.35,117.64L224.33,117.83L224.37,118.03L224.44,118.23L224.56,118.42L224.71,118.60L224.89,118.74L225.09,118.85L225.29,118.92L225.49,118.94L225.67,118.92L225.83,118.84L232.89,112.99"/><path d="M234.58,107.93L234.58,107.92L234.47,107.98L234.37,108.04L234.27,108.12L233.85,108.46L233.68,108.64L233.56,108.84L233.47,109.08L233.44,109.34L233.45,109.61L233.51,109.89L233.53,109.96"/><path d="M234.05,112.03L235.79,110.58"/><path d="M234.57,107.93L234.62,107.91L234.74,107.87L234.86,107.83L234.99,107.81L235.13,107.80L235.26,107.81L235.43,107.82L235.57,107.85L235.71,107.88L235.85,107.93L235.99,107.99L236.13,108.06L236.26,108.14L236.39,108.22L236.51,108.32L236.63,108.42L236.74,108.53L236.85,108.65L236.94,108.77L237.03,108.90L237.10,109.03L237.17,109.17L237.22,109.30L237.27,109.44L237.30,109.58L237.32,109.72L237.33,109.85L237.33,109.99L237.32,110.15L237.29,110.27L237.25,110.39L237.21,110.51L237.15,110.62L237.06,110.74L236.98,110.83L236.89,110.92L236.47,111.27L236.26,111.40L236.03,111.50L235.77,111.55L235.50,111.55L235.22,111.51L234.93,111.42L234.84,111.37"/></g></g><g id="Actor_.6"><g style="stroke:#000000;stroke-width:0.353"><path d="M147.96,172.32L147.96,172.33L147.96,172.34L147.98,172.38L147.99,172.39L148.01,172.41L148.48,172.78L148.51,172.80L148.52,172.81L148.57,172.82L148.58,172.82L148.63,172.82L148.65,172.82L148.69,172.81L148.73,172.79L148.74,172.78L148.88,172.67L148.90,172.65L148.92,172.63L148.92,172.62L148.93,172.58L148.93,172.57"/><path d="M148.92,172.42L148.92,172.42"/></g><g style="stroke:#000000;stroke-width:0.705"><path d="M148.00,172.21L147.97,172.24L147.97,172.25L147.95,172.28L147.95,172.29L147.97,172.45L148.01,172.65L148.06,172.86L148.14,173.08L148.24,173.30L148.35,173.53L148.48,173.75L148.63,173.98L148.78,174.20L148.94,174.40L149.12,174.60L149.30,174.78L149.49,174.95L149.67,175.10L149.86,175.22L150.04,175.33L150.22,175.41L150.38,175.46L150.43,175.47L150.59,175.50L150.73,175.50L150.78,175.50L150.92,175.47L151.03,175.42L151.08,175.40L151.18,175.32L151.31,175.21L151.34,175.17L151.42,175.07L151.48,174.94L151.50,174.89L151.53,174.74L151.54,174.57L151.54,174.53L151.53,174.34L151.50,174.15L151.45,173.93L151.38,173.72L151.28,173.49L151.17,173.26L151.05,173.03L150.90,172.80L150.75,172.58L150.58,172.37L150.40,172.17L150.22,171.98L150.03,171.81L149.84,171.66L149.66,171.53L149.47,171.42L149.30,171.34L149.13,171.29L149.08,171.27L148.92,171.24L148.78,171.24L148.72,171.24L148.59,171.27L148.47,171.32L148.43,171.34L148.33,171.42L148.19,171.52L148.16,171.56L148.08,171.66L148.02,171.79L148.00,171.84L147.97,171.98L147.95,172.10L147.96,172.14L147.96,172.15L147.98,172.19L148.01,172.22L148.48,172.59L148.52,172.62L148.53,172.62L148.58,172.63L148.59,172.63L148.64,172.63L148.65,172.63L148.69,172.62L148.73,172.60L148.88,172.49L148.90,172.47L148.92,172.43L148.92,172.42L148.94,172.33"/><path d="M149.56,173.81L149.69,173.96L149.83,174.09L149.97,174.20L150.12,174.30L150.25,174.37L150.37,174.41"/><path d="M148.89,172.47L148.90,172.48L148.92,172.52L148.92,172.53L148.93,172.57L148.94,172.65L148.98,172.80L149.04,172.97L149.11,173.14L149.20,173.31L149.31,173.49"/><path d="M149.31,173.48L149.43,173.65L149.56,173.81"/><path d="M148.92,172.38L148.95,172.31"/><path d="M148.85,172.36L148.89,172.33"/><path d="M148.87,172.33L148.87,172.33L148.94,172.31"/><path d="M148.91,172.31L149.01,172.31L149.11,172.33"/><path d="M149.08,172.32L149.21,172.36L149.35,172.43L149.49,172.52L149.63,172.64L149.77,172.77L149.91,172.91L150.04,173.07L150.16,173.24L150.27,173.41L150.36,173.59L150.44,173.76L150.50,173.93L150.54,174.09L150.56,174.24"/><path d="M150.34,174.41L150.46,174.43L150.54,174.43L150.51,174.44"/><path d="M150.46,174.54L150.52,174.47L150.54,174.42"/><path d="M150.54,174.43L150.56,174.32L150.56,174.23"/></g></g><g id="Actor_.7"><g style="stroke:#000000;stroke-width:0.353"><path d="M166.41,162.25L166.63,162.15L166.88,162.10L167.16,162.11L167.47,162.18L167.79,162.30L168.13,162.47L168.47,162.69L168.65,162.83L168.81,162.96L169.14,163.27L169.46,163.60L169.75,163.97L170.01,164.35L170.24,164.75L170.43,165.14L170.57,165.53L170.67,165.91L170.72,166.26L170.73,166.58L170.68,166.87L170.58,167.12L170.44,167.32"/><path d="M169.20,165.88L169.07,165.97L168.90,165.99L168.71,165.96L168.50,165.88L168.28,165.74L168.06,165.56L167.85,165.34L167.68,165.10L167.53,164.85L167.42,164.60L167.36,164.36L167.35,164.14L167.39,163.96L167.47,163.82"/></g><g style="stroke:#000000;stroke-width:0.705"><path d="M171.02,166.45L171.00,166.60L170.90,166.85L170.76,167.05L170.44,167.32L170.26,167.46L170.04,167.56L169.78,167.60L169.50,167.58L169.19,167.51L168.87,167.38L168.53,167.21L168.19,166.98L167.86,166.72L167.54,166.41L167.23,166.08L166.95,165.72L166.69,165.34L166.47,164.96L166.28,164.57L166.14,164.19L166.04,163.82L165.98,163.47L165.98,163.15L166.02,162.86L166.10,162.61L166.24,162.41L166.41,162.25L166.74,161.99L166.95,161.89L167.20,161.84L167.49,161.85L167.79,161.92L168.12,162.03L168.45,162.21L168.80,162.43L169.14,162.69L169.47,163.00L169.78,163.34L170.07,163.70L170.33,164.09L170.56,164.48L170.75,164.87L170.89,165.26L170.99,165.64L171.04,165.93"/><path d="M169.20,165.88L169.28,165.75L169.32,165.57L169.31,165.35L169.25,165.11L169.14,164.86L169.00,164.60L168.82,164.36L168.61,164.14L168.39,163.96L168.17,163.82L167.96,163.74L167.76,163.71L167.60,163.74L167.47,163.82"/><path d="M167.70,163.72L167.67,163.88L167.68,164.09L167.74,164.33L167.85,164.59L168.00,164.84L168.18,165.08L168.38,165.30L168.60,165.48L168.82,165.61L169.03,165.70L169.22,165.73L169.29,165.72"/></g></g><g id="Actor_.8"><g style="stroke:#000000;stroke-width:0.353"><path d="M157.40,171.12L157.40,171.16L157.41,171.17L157.43,171.21L157.44,171.22L157.46,171.24L157.97,171.63L158.01,171.65L158.02,171.66L158.07,171.67L158.08,171.67L158.14,171.67L158.15,171.67L158.20,171.66L158.23,171.64L158.25,171.63L158.39,171.52L158.41,171.50L158.43,171.47L158.43,171.46L158.44,171.42L158.44,171.40"/><path d="M158.44,171.25L158.44,171.25"/></g><g style="stroke:#000000;stroke-width:0.705"><path d="M160.39,174.51L160.23,174.51L160.05,174.48L160.01,174.47L159.82,174.41L159.63,174.33L159.43,174.22L159.23,174.09L159.02,173.93L158.82,173.76L158.63,173.56L158.44,173.35L158.26,173.13L158.09,172.90L157.94,172.67L157.80,172.43L157.68,172.19L157.58,171.95L157.50,171.72L157.44,171.49L157.41,171.28L157.40,171.15"/><path d="M161.07,174.15L161.15,174.05L161.22,173.91L161.24,173.86L161.28,173.70L161.30,173.52L161.30,173.32L161.30,173.28L161.27,173.07L161.22,172.84L161.14,172.61L161.05,172.37L160.93,172.13L160.79,171.88L160.64,171.64L160.47,171.41L160.29,171.18L160.10,170.97L159.90,170.77L159.70,170.59L159.49,170.43L159.29,170.30L159.09,170.18L158.89,170.10L158.71,170.04L158.66,170.03L158.48,169.99L158.32,169.99L158.26,170.00L158.11,170.02L157.98,170.08L157.93,170.10L157.82,170.19L157.68,170.30L157.55,170.45L157.48,170.58L157.47,170.63L157.42,170.79L157.40,170.91L157.41,170.95L157.41,170.96L157.43,171.00L157.46,171.04L157.97,171.43L158.02,171.46L158.03,171.46L158.08,171.47L158.10,171.48L158.15,171.47L158.17,171.47L158.21,171.46L158.25,171.44L158.26,171.43L158.39,171.32L158.42,171.30L158.44,171.26L158.44,171.25L158.46,171.17"/><path d="M157.44,171.02L157.44,171.02L157.41,171.06L157.41,171.07L157.40,171.11L157.40,171.12L157.40,171.19"/><path d="M159.98,173.36L159.86,173.31L159.71,173.24L159.55,173.14L159.40,173.02L159.25,172.88L159.10,172.72L158.96,172.56L158.83,172.38L158.72,172.20L158.63,172.01L158.55,171.83L158.49,171.66L158.45,171.49L158.44,171.40L158.43,171.36L158.43,171.35L158.40,171.31"/><path d="M158.45,171.20L158.48,171.13"/><path d="M158.38,171.18L158.43,171.15"/><path d="M158.42,171.15L158.42,171.15L158.50,171.13"/><path d="M158.46,171.13L158.58,171.13L158.69,171.14"/><path d="M158.66,171.13L158.80,171.18L158.95,171.25L159.11,171.35L159.27,171.47L159.42,171.61L159.57,171.76L159.71,171.93L159.84,172.11L159.95,172.29L160.05,172.48L160.13,172.66L160.19,172.84L160.23,173.01L160.25,173.17"/><path d="M161.05,174.18L161.03,174.20L160.89,174.31L160.83,174.36"/><path d="M159.96,173.35L160.09,173.38L160.18,173.38"/><path d="M160.15,173.38L160.21,173.37"/><path d="M160.19,173.42L160.19,173.42L160.22,173.34"/><path d="M160.19,173.41L160.16,173.45"/><path d="M160.22,173.37L160.24,173.25L160.25,173.14"/></g></g><g id="Actor_.9"><g style="stroke:#000000;stroke-width:0.353"><path d="M215.29,122.11L215.40,122.00L215.47,121.86L215.51,121.69L215.50,121.51L215.44,121.31L215.35,121.12L215.22,120.94L215.06,120.79L214.88,120.66L214.69,120.58L214.51,120.53L214.33,120.54L214.17,120.58L214.04,120.67"/><path d="M225.89,114.73L226.04,114.57L226.13,114.42L226.15,114.37L226.23,114.14L226.26,113.90L226.24,113.64L226.19,113.37L226.09,113.10L225.95,112.84L225.77,112.60L225.57,112.37L225.33,112.18L225.09,112.02L224.82,111.89L224.56,111.80L224.30,111.76L224.04,111.77L223.81,111.81L223.59,111.90L223.41,112.03"/></g><g style="stroke:#000000;stroke-width:0.705"><path d="M223.97,112.75L223.98,112.75L214.04,120.67L213.95,120.80L213.90,120.95L213.89,121.13L213.92,121.32L214.00,121.51L214.11,121.70L214.25,121.87L214.42,122.01L214.60,122.11L214.79,122.18L214.97,122.20L215.14,122.18L215.29,122.11L225.24,114.07"/><path d="M224.35,114.79L224.47,114.85L224.73,114.94L225.00,114.99L225.25,114.99L225.48,114.94L225.70,114.86L225.89,114.73L226.31,114.39L226.39,114.31L226.48,114.20L226.54,114.10L226.59,114.00L226.64,113.89L226.67,113.78L226.69,113.63L226.70,113.51L226.70,113.38L226.69,113.25L226.67,113.12L226.63,112.99L226.59,112.86L226.53,112.73L226.47,112.60L226.40,112.47L226.32,112.35L226.23,112.23L226.13,112.12L226.02,112.01L225.91,111.91L225.80,111.82L225.68,111.74L225.55,111.66L225.43,111.59L225.30,111.54L225.17,111.49L225.04,111.45L224.91,111.43L224.78,111.41L224.62,111.41L224.50,111.42L224.38,111.43L224.26,111.46L224.15,111.50L224.02,111.57L223.92,111.63L223.41,112.03L223.26,112.20L223.15,112.39L223.08,112.62L223.05,112.86L223.07,113.12L223.12,113.38L223.14,113.42"/></g></g><g id="Actor_.10"><g style="stroke:#000000;stroke-width:0.353"><path d="M156.72,163.89L156.91,163.79L157.13,163.75L157.39,163.76L157.66,163.82L157.96,163.94L158.26,164.10L158.58,164.32L158.89,164.57L159.19,164.86L159.48,165.18L159.75,165.53L160.00,165.89L160.22,166.26L160.40,166.63L160.54,167.00L160.64,167.35L160.69,167.69L160.70,167.99L160.67,168.26L160.59,168.49L160.47,168.68L160.31,168.82"/><path d="M159.32,167.32L159.20,167.40L159.05,167.42L158.88,167.39L158.69,167.31L158.48,167.18L158.28,167.01L158.10,166.80L157.93,166.58L157.79,166.34L157.69,166.10L157.63,165.87L157.61,165.67L157.64,165.50L157.71,165.37"/></g><g style="stroke:#000000;stroke-width:0.705"><path d="M156.37,165.09L156.36,165.02L156.35,164.72L156.38,164.45L156.45,164.22L156.56,164.03L156.72,163.89L157.03,163.64L157.22,163.54L157.45,163.50L157.70,163.51L157.98,163.57L158.27,163.69L158.58,163.85L158.89,164.06L159.20,164.32L159.51,164.61L159.80,164.93L160.07,165.27L160.32,165.63L160.53,166.01L160.71,166.38L160.85,166.75L160.95,167.10L161.01,167.43L161.02,167.74L160.98,168.01L160.91,168.24L160.78,168.42L160.62,168.56L160.31,168.82L160.12,168.90L159.89,168.94L159.63,168.92L159.35,168.85L159.06,168.73L158.76,168.56L158.45,168.35L158.14,168.10L157.84,167.81L157.56,167.49L157.50,167.42L157.29,167.15L157.05,166.79L156.84,166.43L156.66,166.06L156.52,165.70L156.42,165.35L156.37,165.09"/><path d="M159.39,167.17L159.37,167.17L159.19,167.14L159.00,167.06L158.80,166.93L158.60,166.76L158.41,166.55L158.24,166.33L158.10,166.09L158.00,165.85L157.94,165.62L157.92,165.42L157.95,165.27"/><path d="M159.32,167.32L159.39,167.20L159.42,167.03L159.40,166.82L159.34,166.60L159.24,166.35L159.10,166.11L158.93,165.88L158.74,165.68L158.54,165.51L158.34,165.38L158.14,165.30L157.97,165.27L157.82,165.29L157.71,165.37"/></g></g><g id="Actor_.11"><g style="stroke:#000000;stroke-width:0.353"><path d="M146.79,180.59L146.69,180.28L146.63,179.98L146.61,179.73L146.63,179.50L146.69,179.30L146.79,179.15L146.92,179.05L147.09,178.99L147.29,178.98L147.51,179.03L147.29,178.95L147.08,178.85L146.97,178.79L146.87,178.72L146.77,178.63"/><path d="M147.65,180.16L147.59,180.22L147.54,180.37L147.54,180.46L147.54,180.56L147.59,180.79L147.69,181.04L147.83,181.30L148.00,181.56L148.19,181.79L148.30,181.90L148.40,182.00L148.61,182.16L148.82,182.28L149.00,182.33L149.16,182.33L149.24,182.28"/><path d="M149.20,182.32L149.06,182.35L148.89,182.33L148.70,182.24L148.49,182.10L148.28,181.92L148.07,181.69L147.89,181.45L147.74,181.19L147.62,180.93L147.54,180.69L147.52,180.48L147.54,180.30L147.61,180.18"/><path d="M149.24,181.98L149.15,182.03L149.02,182.04L148.87,181.99L148.70,181.90L148.53,181.76L148.35,181.59L148.19,181.40L148.05,181.19L147.94,180.98L147.86,180.77L147.82,180.59L147.82,180.43L147.86,180.31L147.94,180.23"/><path d="M147.53,181.91L147.54,181.93"/><path d="M149.44,178.46L148.59,179.16L148.39,179.15L148.22,179.14L148.05,179.13L147.90,179.11L147.75,179.09L147.51,179.03L147.75,179.12L148.02,179.26L148.29,179.44L148.57,179.67L148.85,179.94L149.11,180.23L149.36,180.54L149.60,180.84L149.75,181.00L149.89,181.16L150.07,181.32L150.24,181.48L150.45,181.65L151.29,180.94"/><path d="M148.58,182.99L148.85,183.18L149.11,183.33L149.35,183.42L149.57,183.47L149.78,183.47L149.95,183.42L150.09,183.32L150.20,183.17L150.26,182.97L150.28,182.75L150.29,182.50L150.31,182.35L150.33,182.20L150.36,182.03L150.40,181.85L150.45,181.65"/><path d="M149.30,182.22L149.30,182.23"/><path d="M150.44,183.57L150.39,183.45L150.35,183.34L150.33,183.22L150.30,183.10L150.29,182.98L150.28,182.75L150.26,182.49L150.20,182.19L150.10,181.87L149.96,181.54L149.78,181.20L149.58,180.86L149.36,180.54L149.13,180.21L149.02,180.03L148.91,179.84L148.80,179.62L148.70,179.41L148.59,179.16"/><path d="M151.18,180.69L151.08,180.47L150.97,180.26L150.75,179.89L150.53,179.57L150.29,179.26L150.14,179.10L149.99,178.95L149.82,178.79L149.65,178.63"/></g><g style="stroke:#000000;stroke-width:0.705"><path d="M149.65,178.63L149.44,178.46L149.34,178.38L149.23,178.31L149.13,178.25L149.02,178.19L148.91,178.14L148.69,178.07L148.44,178.01L148.30,177.99L148.16,177.97L147.99,177.96L147.81,177.95L147.61,177.94L146.77,178.63L146.69,179.00L146.66,179.17L146.62,179.47L146.61,179.73L146.62,179.96L146.64,180.08L146.66,180.20L146.69,180.32L146.73,180.43L146.79,180.59L146.93,180.92L147.11,181.26L147.31,181.60L147.53,181.91L147.76,182.21L148.03,182.50L148.30,182.77L148.58,182.99L148.81,183.16L148.92,183.23L149.02,183.29L149.13,183.34L149.35,183.42L149.60,183.48L149.74,183.51L149.89,183.53L150.06,183.55L150.23,183.56L150.44,183.57L150.79,183.27"/><path d="M147.94,180.23L148.05,180.20L148.16,180.21"/><path d="M147.91,180.25L147.95,180.23"/><path d="M147.61,180.18L147.73,180.12L147.88,180.11L148.07,180.16L148.27,180.28L148.49,180.44L148.70,180.65L148.89,180.88L149.06,181.14L149.20,181.40L149.30,181.66L149.35,181.88L149.35,181.99L149.35,182.08L149.30,182.23L149.20,182.32"/><path d="M148.71,183.09L148.70,183.08"/><path d="M149.24,181.98L149.30,181.88L149.32,181.75"/><path d="M151.39,182.36L151.40,182.32L151.42,182.17L151.44,182.02L151.45,181.77L151.44,181.53L151.40,181.30L151.37,181.17L151.29,180.94L151.18,180.69L151.13,180.56L150.96,180.22L150.75,179.88L150.53,179.57L150.29,179.26L150.02,178.97L149.75,178.71L149.47,178.48L149.34,178.38"/><path d="M151.13,180.56L151.20,180.72"/></g></g><g><g><path style="stroke:#000000;stroke-width:0.500" d="M247.57,144.53L233.06,111.44"/></g><g><path style="fill:#000000" d="M234.00,111.43L233.99,111.34L233.98,111.24L233.95,111.14L233.92,111.05L233.88,110.96L233.83,110.88L233.77,110.80L233.70,110.73L233.63,110.66L233.55,110.60L233.47,110.55L233.38,110.51L233.29,110.48L233.19,110.45L233.09,110.44L233.00,110.43L232.90,110.44L232.80,110.45L232.71,110.48L232.61,110.51L232.53,110.55L232.44,110.60L232.36,110.66L232.29,110.73L232.22,110.80L232.17,110.88L232.11,110.96L232.07,111.05L232.04,111.14L232.02,111.24L232.00,111.34L232.00,111.43L232.00,111.53L232.02,111.63L232.04,111.72L232.07,111.82L232.11,111.91L232.17,111.99L232.22,112.07L232.29,112.14L232.36,112.21L232.44,112.27L232.53,112.32L232.61,112.36L232.71,112.39L232.80,112.41L232.90,112.43L233.00,112.43L233.09,112.43L233.19,112.41L233.29,112.39L233.38,112.36L233.47,112.32L233.55,112.27L233.63,112.21L233.70,112.14L233.77,112.07L233.83,111.99L233.88,111.91L233.92,111.82L233.95,111.72L233.98,111.63L233.99,111.53z"/></g><g><path style="fill:#fffbf0" d="M208.69,145.10L286.29,145.10L286.29,140.32L208.69,140.32z"/><text xml:space="preserve" fill="#000000" stroke-width="0" x="209.29" y="143.75" font-size="3.31" opacity="1.00" font-family="OCR A Std">M2.5*25mm Pan Head Machine Screw</text></g></g><g><g/></g><g><g><path style="stroke:#ff0000;stroke-width:0.500;stroke-opacity:0.80;stroke-dasharray:0.6 0.6" d="M150.31,173.51L141.35,180.70"/><path style="stroke:#ff0000;stroke-width:0.500;stroke-opacity:0.80;stroke-dasharray:0.6 0.6" d="M159.23,166.35L151.00,172.96"/><path style="stroke:#ff0000;stroke-width:0.500;stroke-opacity:0.80;stroke-dasharray:0.6 0.6" d="M166.11,160.83L160.25,165.54"/><path style="stroke:#ff0000;stroke-width:0.500;stroke-opacity:0.80;stroke-dasharray:0.6 0.6" d="M196.85,136.15L182.23,147.89"/><path style="stroke:#ff0000;stroke-width:0.500;stroke-opacity:0.80;stroke-dasharray:0.6 0.6" d="M216.66,120.25L208.01,127.19"/></g></g><g><g><path style="stroke:#ff0000;stroke-width:0.500;stroke-opacity:0.80;stroke-dasharray:0.6 0.6" d="M174.51,134.51L191.12,122.32"/></g></g><g><g><path style="stroke:#ff0000;stroke-width:0.500;stroke-opacity:0.80;stroke-dasharray:0.6 0.6" d="M159.75,172.00L150.54,179.58"/><path style="stroke:#ff0000;stroke-width:0.500;stroke-opacity:0.80;stroke-dasharray:0.6 0.6" d="M168.90,164.47L160.47,171.41"/><path style="stroke:#ff0000;stroke-width:0.500;stroke-opacity:0.80;stroke-dasharray:0.6 0.6" d="M175.64,158.93L169.98,163.59"/><path style="stroke:#ff0000;stroke-width:0.500;stroke-opacity:0.80;stroke-dasharray:0.6 0.6" d="M184.43,151.70L204.34,135.32"/><path style="stroke:#ff0000;stroke-width:0.500;stroke-opacity:0.80;stroke-dasharray:0.6 0.6" d="M225.60,117.84L210.01,130.66"/></g></g><g><g><path style="stroke:#000000;stroke-width:0.500" d="M190.48,169.40L187.50,169.40L171.00,165.71"/></g><g><path style="fill:#000000" d="M171.88,165.67L171.88,165.57L171.86,165.47L171.84,165.38L171.81,165.29L171.77,165.20L171.72,165.11L171.66,165.04L171.59,164.96L171.52,164.90L171.44,164.84L171.36,164.79L171.27,164.75L171.17,164.71L171.08,164.69L170.98,164.67L170.88,164.67L170.79,164.67L170.69,164.69L170.59,164.71L170.50,164.75L170.41,164.79L170.33,164.84L170.25,164.90L170.18,164.96L170.11,165.04L170.05,165.11L170.00,165.20L169.96,165.29L169.93,165.38L169.90,165.47L169.89,165.57L169.88,165.67L169.89,165.77L169.90,165.87L169.93,165.96L169.96,166.05L170.00,166.14L170.05,166.23L170.11,166.30L170.18,166.38L170.25,166.44L170.33,166.50L170.41,166.55L170.50,166.59L170.59,166.63L170.69,166.65L170.79,166.67L170.88,166.67L170.98,166.67L171.08,166.65L171.17,166.63L171.27,166.59L171.36,166.55L171.44,166.50L171.52,166.44L171.59,166.38L171.66,166.30L171.72,166.23L171.77,166.14L171.81,166.05L171.84,165.96L171.86,165.87L171.88,165.77z"/></g><g><path style="fill:#fffbf0" d="M189.87,171.77L231.52,171.77L231.52,167.00L189.87,167.00z"/><text xml:space="preserve" fill="#000000" stroke-width="0" x="190.47" y="170.43" font-size="3.50" opacity="1.00" font-family="OCR A Std">M2.5 Flat Washer</text></g></g><g><g><path style="stroke:#000000;stroke-width:0.500" d="M160.45,174.20L160.54,174.21"/><path style="stroke:#000000;stroke-width:0.500" d="M189.89,177.96L186.90,177.96L160.94,174.27"/></g><g><path style="fill:#000000" d="M161.44,174.17L161.43,174.07L161.42,173.98L161.40,173.88L161.36,173.79L161.32,173.70L161.27,173.61L161.21,173.54L161.15,173.46L161.07,173.40L161.00,173.34L160.91,173.29L160.82,173.25L160.73,173.21L160.63,173.19L160.54,173.17L160.44,173.17L160.34,173.17L160.24,173.19L160.15,173.21L160.06,173.25L159.97,173.29L159.88,173.34L159.81,173.40L159.73,173.46L159.67,173.54L159.61,173.61L159.56,173.70L159.52,173.79L159.48,173.88L159.46,173.98L159.44,174.07L159.44,174.17L159.44,174.27L159.46,174.37L159.48,174.46L159.52,174.55L159.56,174.64L159.61,174.73L159.67,174.80L159.73,174.88L159.81,174.94L159.88,175.00L159.97,175.05L160.06,175.09L160.15,175.13L160.24,175.15L160.34,175.17L160.44,175.17L160.54,175.17L160.63,175.15L160.73,175.13L160.82,175.09L160.91,175.05L161.00,175.00L161.07,174.94L161.15,174.88L161.21,174.80L161.27,174.73L161.32,174.64L161.36,174.55L161.40,174.46L161.42,174.37L161.43,174.27z"/></g><g><path style="fill:#fffbf0" d="M189.27,180.31L244.40,180.31L244.40,175.54L189.27,175.54z"/><text xml:space="preserve" fill="#000000" stroke-width="0" x="189.87" y="178.97" font-size="3.39" opacity="1.00" font-family="OCR A Std">M2.5 Split Lock Washer</text></g></g><g><g/></g><g><g><path style="stroke:#000000;stroke-width:0.500" d="M181.95,186.84L179.13,186.84L150.83,183.06"/></g><g><path style="fill:#000000" d="M151.83,183.02L151.82,182.93L151.81,182.83L151.78,182.73L151.75,182.64L151.71,182.55L151.66,182.47L151.60,182.39L151.53,182.32L151.46,182.25L151.38,182.19L151.30,182.14L151.21,182.10L151.12,182.07L151.02,182.04L150.92,182.03L150.83,182.02L150.73,182.03L150.63,182.04L150.54,182.07L150.44,182.10L150.36,182.14L150.27,182.19L150.19,182.25L150.12,182.32L150.05,182.39L150.00,182.47L149.94,182.55L149.90,182.64L149.87,182.73L149.85,182.83L149.83,182.93L149.83,183.02L149.83,183.12L149.85,183.22L149.87,183.31L149.90,183.41L149.94,183.50L150.00,183.58L150.05,183.66L150.12,183.73L150.19,183.80L150.27,183.86L150.36,183.91L150.44,183.95L150.54,183.98L150.63,184.00L150.73,184.02L150.83,184.02L150.92,184.02L151.02,184.00L151.12,183.98L151.21,183.95L151.30,183.91L151.38,183.86L151.46,183.80L151.53,183.73L151.60,183.66L151.66,183.58L151.71,183.50L151.75,183.41L151.78,183.31L151.81,183.22L151.82,183.12z"/></g><g><path style="fill:#fffbf0" d="M181.37,189.06L212.26,189.06L212.26,184.54L181.37,184.54z"/><text xml:space="preserve" fill="#000000" stroke-width="0" x="181.94" y="187.79" font-size="3.43" opacity="1.00" font-family="OCR A Std">M2.5 Hex Nut</text></g></g><g/><g id="paperID" visibility="hidden" opacity="0.00" transform="scale(0.000100)"><path style="stroke:#000000;stroke-width:0.500;fill:#e6e6e6;fill-rule:evenodd" d="M-2000.00,-2000.00L2297.00,-2000.00L2297.00,2210.00L-2000.00,2210.00zM0.00,0.00L297.00,0.00L297.00,210.00L0.00,210.00z"/><path style="fill:#000000;fill-opacity:0.118" d="M3.00,210.00L297.00,210.00L297.00,3.00L300.00,3.00L300.00,213.00L3.00,213.00z"/></g><g id="ToolTip" visibility="hidden" opacity="0" transform="translate(0,0)"><rect id="ToolTipShadow" opacity="0.20" fill="black" stroke="none" x="0" y="0" width="30" height="8"/><rect id="ToolTipBG" fill="#ffffe1" stroke="black" x="0" y="0" width="30" height="8"/><text xml:space="preserve" id="ToolTipText" fill="black" x="0" y="0" width="30" height="8">tooltip</text></g></g></svg>
