<?xml version="1.0" encoding="UTF-8" standalone="no"?>
<svg xmlns="http://www.w3.org/2000/svg" xmlns:xlink="http://www.w3.org/1999/xlink" width="297.000mm" height="210.000mm" viewBox="0.000000 0.000000 297.000000 210.000000" stroke-linejoin="round" stroke-linecap="round" fill="none" fill-rule="evenodd"><desc>3DVIA Composer Export</desc><script type="text/ecmascript"><![CDATA[
if(typeof(top) != "undefined")
{
	top.ShowPaper = ShowPaper;
}
function ShowHotSpot(evt,hotspotid)
{
	var svgDocument = evt.target.ownerDocument;
	var strId = "hotspot."+hotspotid;
	var hotspot = svgDocument.getElementById(strId);
	if(hotspot)
		hotspot.setAttribute("opacity",".5");
}
function HideHotSpot(evt,hotspotid)
{
	var svgDocument = evt.target.ownerDocument;
	var strId = "hotspot."+hotspotid;
	var hotspot = svgDocument.getElementById(strId);
	if(hotspot)
		hotspot.setAttribute("opacity","0");

	var toolTip = svgDocument.getElementById('ToolTip');
	if(toolTip)
		toolTip.setAttribute("visibility","hidden");
}
function ShowToolTip(evt,hotspotid,strTooltip)
{
	if(strTooltip=="")
	return;

	// change text
	var svgDocument = evt.target.ownerDocument;
	var tiptext = svgDocument.getElementById('ToolTipText');
	if( !tiptext )
	return;
	tiptext.firstChild.nodeValue = " " + strTooltip + "  " ;

	// show tooltip before, else some refresh issue

	var toolTip = svgDocument.getElementById('ToolTip');
	if(!toolTip)
	return;

	toolTip.setAttribute("visibility","visible");
	toolTip.setAttribute("opacity",".95");

	// move tooltip
	// get viewbox

	var root = svgDocument.documentElement;
	var vbox = (root.getAttribute("viewBox")).split(' ');
	var x0 = parseFloat(vbox[0]);
	var y0 = parseFloat(vbox[1]);
	var vboxW = parseFloat(vbox[2]);
	var vboxH = parseFloat(vbox[3]);

	// get default width of svg

	var strW = root.getAttribute("width");
	var svgW = parseFloat(strW);
	if(strW.indexOf('mm') != -1)
	svgW *= 3.779;

	var strH = root.getAttribute("height");
	var svgH = parseFloat(strH);
	if(strH.indexOf('mm') != -1)
	svgH *= 3.779;  	// 96 dpi  -> 96/25.4 = 3.779

	// update the viewbox / width / height if svg is embedded in html with zoom fit all
	var realx0 = x0;
	var realy0 = y0;
	var realvboxW = vboxW;
	var realvboxH = vboxH;
	var realsvgW = svgW;
	var realsvgH = svgH;

	if ((typeof(top) == "undefined") || (typeof(top.svgctl1) != "undefined")) // embedded in html
	{
		// get window size in pxl

		svgW = window.innerWidth;
		svgH = window.innerHeight;

		// calculate real viewbox

		realsvgW = svgW;
		realsvgH = svgH;
		if((svgW / svgH) > (vboxW / vboxH))
		{
			realvboxW = (vboxH * svgW) / svgH;
			realvboxH = vboxH;
			realx0 = x0 - (realvboxW - vboxW)/2 ;
		}
		else
		{
			realvboxH = (vboxW * svgH) / svgW;
			realvboxW = vboxW;
			realy0 = y0 - (realvboxH - vboxH)/2 ;
		}
	}

	// get user zoom/pan

	var newScale = root.currentScale;
	var translation = root.currentTranslate;

	// transform pxl to user unit

	var xPos = (((evt.clientX+10- translation.x)/newScale) * realvboxW)/realsvgW  + realx0 ;
	var yPos = (((evt.clientY+5- translation.y)/newScale) * realvboxH)/ realsvgH  + realy0 ;
	var scaleForWidth = ( (1 / newScale) * realvboxH) / realsvgH;

	// move tooltip

	toolTip.setAttribute("transform", "translate(" + xPos + "," + yPos + ")" );

	// resize tooltip

	var fontsize = 12;
	tiptext.setAttribute("font-size",fontsize*scaleForWidth);
	tiptext.setAttribute("y", fontsize*scaleForWidth);
	var tipBG = svgDocument.getElementById('ToolTipBG');
	var outline = tiptext.getBBox();
	if(tipBG)
	{
		tipBG.setAttribute("stroke-width", 1*scaleForWidth);
		tipBG.setAttribute("width", Number(outline.width) );
		tipBG.setAttribute("height", Number(outline.height) + fontsize*.5*scaleForWidth );
	}
	var ToolTipShadow = svgDocument.getElementById('ToolTipShadow');
	if(ToolTipShadow)
	{
		ToolTipShadow.setAttribute("width", Number(outline.width) );
		ToolTipShadow.setAttribute("height", Number(outline.height) + fontsize*.5*scaleForWidth );
		ToolTipShadow.setAttribute("x", 3*scaleForWidth);
		ToolTipShadow.setAttribute("y", 3*scaleForWidth);
	}
}
function ShowPaper()
{
  var svgDocument = getDocument();
  var paper = svgDocument.getElementById("paperID");
  if(paper)
  {
    paper.setAttribute("transform","scale(1)");
    paper.setAttribute("opacity","1");
    paper.setAttribute("visibility","visible");
  }
  var svg = svgDocument.getRootElement();
  if(svg)
  {
    svg.setAttribute("width","307.000mm");
    svg.setAttribute("height","220.000mm");
    svg.setAttribute("viewBox","-5.000000 -5.000000 307.000000 220.000000");
  }
}
]]></script><defs/><g><path style="fill:#dcdcdc;fill-rule:evenodd" d="M118.85,91.45L119.38,91.13L119.98,91.16L119.99,92.05L118.91,91.94zM147.97,103.77L147.82,103.36L153.66,100.25L153.38,102.40L152.85,103.43L151.22,104.92L150.25,104.91zM114.83,109.83L114.86,110.15L114.03,110.69L113.95,109.52L114.28,109.49zM112.01,111.61L111.98,111.94L111.25,112.30L111.36,111.33L111.71,111.30zM137.12,112.39L137.08,112.72L136.75,112.95L135.94,113.02L135.93,112.12L136.84,112.11zM111.16,112.49L110.57,112.40L111.25,112.30zM161.29,113.66L161.83,113.13L162.41,113.14L162.41,114.32L161.64,114.20zM116.52,113.96L116.01,114.04L116.07,113.51L116.87,113.40zM250.77,115.88L251.45,118.62L251.09,120.93L242.90,127.74L241.50,128.97L240.84,128.97L238.76,125.56L238.75,124.92L242.52,121.93L250.03,115.97L250.33,115.72zM118.97,116.84L115.75,118.64L115.22,118.69L115.31,118.19L118.63,116.49L118.97,116.54zM131.64,119.35L131.91,120.24L131.67,120.18L131.04,119.09zM129.86,119.37L129.83,119.74L129.29,119.66L129.28,119.19L129.59,119.10zM120.77,120.14L120.46,120.44L119.63,120.51L119.72,119.70L120.24,119.60zM127.80,119.20L127.15,119.65L126.99,120.77L126.76,121.08L126.12,121.31L126.19,119.72L127.43,118.82L127.76,118.85zM128.04,122.58L121.98,126.12L120.44,126.12L120.17,125.85L126.48,121.97zM118.20,122.19L117.86,122.53L117.37,122.49L117.29,121.96L117.95,121.94zM271.31,124.26L271.61,124.31L271.66,124.61L271.36,124.56zM264.90,125.02L264.67,125.45L264.53,124.84zM274.23,125.14L273.58,126.39L273.08,126.38L273.71,125.69L273.97,124.59L274.24,124.56zM266.99,126.21L266.66,126.73L266.37,126.65L266.89,125.32L266.99,125.33zM183.05,138.54L182.25,138.62L182.33,137.82L183.13,137.74zM230.61,139.29L231.55,138.80L231.54,139.66L231.23,140.19L230.94,140.19zM214.42,140.96L215.15,140.56L215.48,140.59L215.20,142.00L214.71,141.92L214.42,141.62zM220.74,142.57L220.40,143.80L217.73,145.80L216.94,145.89L216.94,144.74L218.87,143.82L220.67,142.41zM236.69,147.32L233.35,150.27L233.03,149.95L233.06,149.24L236.10,146.50L236.40,146.54zM242.39,150.81L242.37,149.73L243.42,149.64zM250.68,146.91L245.49,151.84L245.49,150.52L250.42,146.06L250.69,146.04zM233.13,153.10L232.28,153.64L232.27,152.83L233.08,152.76zM213.42,144.32L213.13,144.81L211.85,153.36L211.88,156.21L211.08,157.01L210.79,156.41L210.81,154.40L212.09,145.59L213.17,143.50L213.42,143.45zM218.62,157.27L217.52,157.77L217.51,157.26L218.58,157.15zM203.33,160.10L202.54,160.90L202.52,159.30L203.31,159.21zM223.79,166.55L222.84,166.46L223.11,166.18L223.79,166.22zM213.45,166.73L213.41,167.05L212.62,167.62L212.62,166.53L213.16,166.43zM207.11,166.98L207.45,168.28L207.11,168.80L206.33,168.92L206.41,166.83L207.23,166.50zM203.89,169.66L203.05,170.21L202.95,169.31L203.85,169.33zM222.21,173.70L222.21,175.38L221.43,176.42L221.05,173.98L221.94,173.21zM216.77,174.10L216.67,173.19L217.54,173.18zM206.83,176.33L206.32,176.41L206.38,175.88L207.18,175.76zM197.50,192.09L207.45,183.12L209.70,180.93L210.31,180.96L210.34,181.30L197.68,192.80zM203.34,181.30L191.05,192.38L191.18,193.73L190.28,194.68L188.76,194.70L188.47,194.41L190.31,194.17L190.38,192.99L191.02,191.54L202.53,181.31L203.34,180.72zM197.90,193.99L197.62,194.52L196.77,195.22L195.53,195.22L195.00,194.90L194.94,194.66L196.52,194.70L197.09,194.51L197.36,192.95L197.68,192.80z"/><g><g><path style="stroke:#000000;stroke-width:0.500" d="M210.91,108.45L213.90,108.45L252.91,132.71"/></g><g><path style="fill:#000000" d="M253.81,132.69L253.81,132.59L253.79,132.49L253.77,132.40L253.74,132.30L253.70,132.22L253.65,132.13L253.59,132.05L253.52,131.98L253.45,131.91L253.37,131.85L253.28,131.80L253.20,131.76L253.10,131.73L253.01,131.71L252.91,131.69L252.81,131.69L252.72,131.69L252.62,131.71L252.52,131.73L252.43,131.76L252.34,131.80L252.26,131.85L252.18,131.91L252.11,131.98L252.04,132.05L251.98,132.13L251.93,132.22L251.89,132.30L251.86,132.40L251.83,132.49L251.82,132.59L251.81,132.69L251.82,132.78L251.83,132.88L251.86,132.98L251.89,133.07L251.93,133.16L251.98,133.24L252.04,133.32L252.11,133.39L252.18,133.46L252.26,133.52L252.34,133.57L252.43,133.61L252.52,133.64L252.62,133.67L252.72,133.68L252.81,133.69L252.91,133.68L253.01,133.67L253.10,133.64L253.20,133.61L253.28,133.57L253.37,133.52L253.45,133.46L253.52,133.39L253.59,133.32L253.65,133.24L253.70,133.16L253.74,133.07L253.77,132.98L253.79,132.88L253.81,132.78z"/></g><g><path style="fill:#fffbf0" d="M169.80,110.84L211.44,110.84L211.44,106.06L169.80,106.06z"/><text xml:space="preserve" fill="#000000" stroke-width="0" x="170.39" y="109.49" font-size="3.50" opacity="1.00" font-family="OCR A Std">M2.5 Flat Washer</text></g></g><g><g><path style="stroke:#000000;stroke-width:0.500" d="M158.25,174.31L188.31,191.47"/></g><g><path style="fill:#000000" d="M189.28,191.40L189.27,191.30L189.26,191.20L189.23,191.11L189.20,191.02L189.16,190.93L189.11,190.84L189.05,190.76L188.98,190.69L188.91,190.63L188.83,190.57L188.75,190.52L188.66,190.48L188.57,190.44L188.47,190.42L188.37,190.40L188.28,190.40L188.18,190.40L188.08,190.42L187.99,190.44L187.89,190.48L187.80,190.52L187.72,190.57L187.64,190.63L187.57,190.69L187.50,190.76L187.44,190.84L187.39,190.93L187.35,191.02L187.32,191.11L187.30,191.20L187.28,191.30L187.28,191.40L187.28,191.50L187.30,191.59L187.32,191.69L187.35,191.78L187.39,191.87L187.44,191.95L187.50,192.03L187.57,192.11L187.64,192.17L187.72,192.23L187.80,192.28L187.89,192.32L187.99,192.36L188.08,192.38L188.18,192.39L188.28,192.40L188.37,192.39L188.47,192.38L188.57,192.36L188.66,192.32L188.75,192.28L188.83,192.23L188.91,192.17L188.98,192.11L189.05,192.03L189.11,191.95L189.16,191.87L189.20,191.78L189.23,191.69L189.26,191.59L189.27,191.50z"/></g><g><path style="fill:#fffbf0" d="M119.44,174.84L197.04,174.84L197.04,170.07L119.44,170.07z"/><text xml:space="preserve" fill="#000000" stroke-width="0" x="120.04" y="173.50" font-size="3.31" opacity="1.00" font-family="OCR A Std">M2.5*25mm Pan Head Machine Screw</text></g></g><g id="Actor_.0"><g style="stroke:#000000;stroke-width:0.353"><path d="M113.05,115.51L113.38,115.41L113.79,115.51L115.18,117.91L115.27,118.06L115.18,118.51L114.95,118.80"/><path d="M117.56,113.53L113.79,115.51"/><path d="M115.27,118.06L118.98,116.07"/></g><g style="stroke:#000000;stroke-width:0.705"><path d="M117.23,113.31L113.05,115.51L112.82,115.80L112.73,116.25L114.20,118.79L114.61,118.90L114.95,118.80L118.98,116.64"/></g></g><g id="Actor_.1"><g style="stroke:#000000;stroke-width:0.353"><path d="M120.34,111.64L120.57,111.60"/><path d="M121.73,114.05L121.84,113.88"/><path d="M137.26,112.56L137.10,112.64"/></g><g style="stroke:#000000;stroke-width:0.705"><path d="M120.38,111.61L120.34,111.64L120.15,111.81L120.05,112.11L120.05,112.48L120.15,112.90L120.35,113.32L120.61,113.68L120.91,113.97L121.22,114.13L121.50,114.16L121.75,114.04"/><path d="M130.56,116.98L127.15,119.14"/><path d="M137.31,112.68L137.18,112.76"/></g></g><g id="Actor_.2"><g style="stroke:#000000;stroke-width:0.353"><path d="M136.98,97.88L148.81,91.82"/><path d="M153.58,100.00L147.49,103.30"/></g><g style="stroke:#000000;stroke-width:0.705"><path d="M134.52,96.62L144.48,91.58L145.74,91.07L147.23,91.15L148.81,91.82L153.58,100.00L153.45,101.83L152.87,103.30L151.89,104.29L150.70,104.95"/></g></g><g id="Actor_.3"><g style="stroke:#000000;stroke-width:0.353"><path d="M223.21,123.16L217.35,127.55L217.06,127.75"/><path d="M217.35,127.55L227.64,123.35L228.03,123.28L228.46,123.34L228.89,123.55L229.27,123.86L229.58,124.27L233.34,121.37"/><path d="M228.37,138.10L228.74,137.97L229.17,137.99L229.62,138.16L230.04,138.47L230.39,138.87L230.62,139.32L230.71,139.78L230.66,140.20L230.46,140.53"/><path d="M227.64,123.35L231.63,120.31"/><path d="M229.21,137.42L229.58,137.29L230.01,137.31L230.46,137.48L230.88,137.78L231.22,138.18L231.45,138.63L231.55,139.09L231.49,139.51L231.29,139.83"/><path d="M229.58,124.27L245.02,150.44L245.21,150.89L245.27,151.32L245.19,151.71L244.97,152.00"/><path d="M233.72,154.56L233.44,154.64L233.11,154.61L232.76,154.47L232.44,154.23L232.18,153.92L232.14,153.85L232.00,153.58L231.94,153.23L231.98,152.93L232.13,152.69"/><path d="M232.78,119.44L233.50,118.89"/><path d="M235.42,119.77L234.48,120.50"/><path d="M244.28,151.28L244.06,151.48L243.76,151.57L243.41,151.54L243.04,151.40L242.70,151.16L242.43,150.84L242.25,150.48L242.18,150.13L242.23,149.81L242.40,149.56"/><path d="M245.02,150.44L250.57,145.39"/></g><g style="stroke:#000000;stroke-width:0.705"><path d="M231.01,119.92L223.21,123.16L222.92,123.36L217.06,127.75L216.88,128.06L216.82,128.44L216.89,128.87L217.08,129.30L231.84,154.39L232.13,154.79L232.51,155.11L232.92,155.33L233.34,155.43L233.72,155.39L244.64,152.18L244.97,152.00L250.50,146.93L250.72,146.64L250.81,146.26L250.75,145.83L250.57,145.39L238.13,124.35"/><path d="M231.29,139.83L230.46,140.53L230.14,140.72L229.73,140.78L229.28,140.68L228.84,140.44L228.46,140.08L228.17,139.65L228.00,139.19L227.98,138.75L228.11,138.37L228.37,138.10L229.21,137.42"/><path d="M232.13,152.69L232.38,152.55L232.69,152.52L233.03,152.61L233.37,152.80L233.67,153.08L233.89,153.41L234.02,153.76L234.03,154.09L233.93,154.37L233.72,154.56"/><path d="M232.54,119.29L233.50,118.89L233.89,118.81L234.31,118.87L234.74,119.06L235.12,119.37L235.42,119.77L236.65,121.85"/><path d="M244.28,151.28L244.39,151.00L244.39,150.65L244.26,150.29L244.03,149.94L243.71,149.66L243.36,149.46L242.99,149.38L242.66,149.41L242.40,149.56"/></g></g><g id="Actor_.4"><g style="stroke:#000000;stroke-width:0.353"><path d="M224.53,122.61L231.01,119.92"/><path d="M232.43,119.22L244.64,109.94"/></g><g style="stroke:#000000;stroke-width:0.705"><path d="M224.53,122.61L229.42,118.94"/><path d="M230.58,118.07L237.11,113.17L244.64,109.94L246.75,110.95L248.63,112.49L250.11,114.43L251.06,116.59L251.39,118.77L251.07,120.77L244.10,126.48"/><path d="M240.93,129.08L243.00,127.38"/></g></g><g id="Actor_.5"><g style="stroke:#000000;stroke-width:0.353"><path d="M109.95,109.04L115.95,104.51L115.75,104.01L115.69,103.50L115.79,103.02L116.03,102.63"/><path d="M114.92,111.30L114.71,111.29L114.47,111.18L114.23,110.97L114.02,110.69L113.87,110.37L113.77,110.04L113.76,109.73L113.82,109.49L113.96,109.34"/><path d="M116.24,113.24L115.94,113.57L115.81,114.05"/><path d="M116.48,94.59L212.00,145.58L210.62,154.85L211.62,154.03"/><path d="M116.38,92.89L116.32,91.66L116.08,91.48L115.97,91.27"/><path d="M116.32,91.66L215.78,144.02L215.57,145.42"/><path d="M117.61,117.37L117.88,117.50L118.35,117.53"/><path d="M121.81,125.99L128.22,122.03L127.78,122.18L127.30,122.16L126.83,121.99L126.40,121.67L126.07,121.23L119.40,125.43"/><path d="M119.79,119.43L119.65,119.58L119.58,119.81L119.59,120.11L119.68,120.43L119.84,120.76L120.05,121.04L120.29,121.26L120.53,121.38L120.75,121.39L120.92,121.30"/><path d="M120.94,91.43L120.91,91.26L120.77,91.10L120.54,90.98L120.23,90.90L119.88,90.88L119.53,90.92L119.22,91.01L118.98,91.14L118.84,91.30L118.81,91.48"/><path d="M120.25,111.64L120.06,111.84L119.97,112.16L119.99,112.55L120.11,112.98L120.31,113.40L120.59,113.77L120.90,114.04L121.22,114.20L121.50,114.21"/><path d="M125.94,123.59L124.99,124.15L124.19,124.60"/><path d="M127.09,120.66L126.07,121.23L126.03,120.08L127.06,119.51"/><path d="M127.32,118.86L126.29,119.43L129.88,117.14"/><path d="M126.03,120.08L126.06,119.80L126.15,119.58L126.29,119.43"/><path d="M132.02,119.90L128.22,122.03"/><path d="M128.03,122.23L129.14,121.61L129.82,121.19"/><path d="M131.49,120.19L130.80,118.99"/><path d="M136.06,111.81L135.90,111.97L135.81,112.23L135.81,112.56L135.90,112.91L136.07,113.26L136.30,113.57L136.57,113.79L136.84,113.92L137.09,113.93L137.29,113.82"/><path d="M161.24,113.43L161.36,113.23L161.60,113.07L161.92,112.96L162.29,112.91L162.68,112.94L163.04,113.03L163.33,113.18L163.52,113.38L163.59,113.59"/><path d="M183.95,139.67L183.68,139.77L183.36,139.73L183.01,139.57L182.69,139.30L182.42,138.96L182.23,138.57L182.15,138.18L182.18,137.84L182.32,137.57"/><path d="M204.21,176.70L195.81,162.31L195.47,162.39L195.28,162.36"/><path d="M204.60,171.25L204.30,171.31L203.95,171.25L203.59,171.06L203.25,170.77L202.98,170.41L202.79,170.02L202.71,169.65L202.76,169.32L202.92,169.08"/><path d="M204.68,161.94L204.29,162.03L203.84,161.96L203.37,161.73L202.92,161.36L202.86,161.27L202.56,160.89L202.32,160.39L202.22,159.89L202.28,159.47L202.49,159.13"/><path d="M204.03,169.19L203.92,169.29L203.86,169.40"/><path d="M204.31,169.42L204.14,169.75L204.13,169.81"/><path d="M210.78,170.93L210.29,171.34L209.62,171.48L208.83,171.33L208.01,170.91L207.26,170.27L206.64,169.48L206.23,168.62L206.07,167.78L206.17,167.05L206.53,166.51"/><path d="M206.42,175.53L206.29,175.72L206.25,175.98L206.31,176.29L206.46,176.60L206.69,176.89L206.96,177.13L207.26,177.29L207.55,177.35L207.79,177.30L207.97,177.16"/><path d="M220.72,176.77L221.15,176.18L221.29,175.38L221.14,174.44L220.70,173.47L211.19,157.22L210.81,156.41L210.62,155.60L210.62,154.85"/><path d="M211.19,157.22L212.19,156.40"/><path d="M223.44,171.99L214.51,156.75L214.05,157.09L213.50,157.45L212.89,157.78L212.31,158.05L211.79,158.24L212.78,157.41"/><path d="M212.49,166.42L212.32,166.67L212.26,167.01L212.34,167.40L212.53,167.81L212.82,168.18L213.17,168.47L213.56,168.67L213.93,168.73L214.25,168.67L214.48,168.47"/><path d="M212.00,145.58L212.14,144.99L212.39,144.36L212.73,143.75L213.12,143.22L213.53,142.83L213.32,144.23"/><path d="M214.51,156.75L217.69,154.08L216.51,154.45"/><path d="M216.87,141.53L216.87,141.27L216.73,140.99L216.46,140.75L216.09,140.56L215.66,140.44L215.22,140.41L214.82,140.47L214.49,140.61L214.27,140.82L214.19,141.07"/><path d="M215.78,144.02L216.31,144.22L216.87,144.33L217.43,144.33L217.92,144.21L218.30,144.00L218.08,145.40"/><path d="M216.71,172.95L216.56,173.15L216.52,173.42L216.57,173.74L216.73,174.06L216.97,174.37L217.26,174.61L217.57,174.77L217.88,174.83L218.14,174.78L218.33,174.63"/><path d="M218.78,159.34L219.02,159.14L219.18,158.82L219.23,158.43L219.18,158.01L219.03,157.59L218.79,157.24L218.49,156.98L218.17,156.85L217.86,156.85"/><path d="M217.69,154.08L218.03,153.90"/><path d="M218.30,144.00L220.54,142.20L220.31,143.59"/><path d="M220.83,141.58L220.77,141.91L220.54,142.20"/><path d="M223.82,168.51L224.11,168.43L224.35,168.22L224.50,167.89L224.55,167.50L224.50,167.07L224.34,166.66L224.10,166.30L223.81,166.04L223.49,165.91L223.18,165.92"/></g><g style="stroke:#000000;stroke-width:0.705"><path d="M110.25,112.44L110.13,112.23L109.77,111.47L109.56,110.70L109.52,109.99L109.65,109.42L109.95,109.04L109.75,108.55L109.70,108.06L109.79,107.59L110.03,107.20L116.39,102.35L116.82,102.14"/><path d="M110.50,112.87L116.33,122.98"/><path d="M113.96,109.34L114.15,109.29L114.35,109.34L114.62,109.51L114.85,109.76L115.03,110.07L115.16,110.40L115.22,110.72L115.19,111.00L115.09,111.20L114.92,111.30"/><path d="M114.90,109.84L115.09,110.20"/><path d="M116.24,113.24L116.67,113.13L117.18,113.27L117.71,113.63L118.21,114.18L118.62,114.86L118.90,115.59L119.01,116.29L118.95,116.89L118.72,117.32L118.35,117.53"/><path d="M115.95,104.51L116.37,104.20L116.65,103.87L116.81,103.40L116.85,102.82L116.48,94.59L116.53,94.09L116.70,93.56L116.98,93.08L117.34,92.69L117.75,92.41"/><path d="M116.92,93.18L116.38,92.89L116.14,92.71L116.02,92.50L115.97,91.27L115.99,91.05L116.15,90.84L116.44,90.67L118.81,89.56L119.18,89.43L119.60,89.36L120.04,89.36L120.46,89.43L120.80,89.55L220.02,140.63L220.43,140.91L220.71,141.23L220.83,141.58L220.54,143.31L220.31,143.59L218.08,145.40L217.70,145.62L217.20,145.73L216.65,145.73L216.08,145.62L215.57,145.42L213.31,144.24L213.72,144.52L214.34,144.77"/><path d="M119.72,125.25L119.40,125.43L118.96,125.55L118.43,125.43L117.86,125.09L117.31,124.54L116.84,123.86L116.58,123.41"/><path d="M116.83,113.52L116.92,113.20"/><path d="M118.92,116.96L118.63,116.83"/><path d="M119.71,125.23L120.03,125.65L120.45,125.96L120.91,126.13L121.38,126.14L121.81,125.99L126.40,123.38L132.02,119.90L131.33,118.71L130.01,119.43L129.68,118.88L129.58,118.91L128.32,119.60L127.08,120.33"/><path d="M119.79,119.43L119.98,119.39L120.22,119.46L120.46,119.62L120.69,119.88L120.88,120.19L121.01,120.52L121.06,120.84L121.03,121.11L120.92,121.30"/><path d="M118.81,91.48L118.89,91.64L119.08,91.79L119.36,91.89L119.69,91.94L120.04,91.93L120.38,91.87L120.66,91.75L120.85,91.60L120.94,91.43"/><path d="M120.92,120.29L120.71,119.91"/><path d="M121.50,114.21L121.73,114.08L121.87,113.82L121.91,113.46L121.84,113.04L121.68,112.61L121.43,112.20L121.13,111.88L120.81,111.66L120.51,111.58L120.25,111.64"/><path d="M124.18,124.60L124.97,124.12L125.94,123.59"/><path d="M130.01,119.43L127.52,120.82L127.43,120.85L127.25,120.82L127.15,120.75L127.09,120.66L127.06,119.51L127.08,119.23L127.17,119.01L127.32,118.86L130.18,117.03"/><path d="M128.03,122.23L128.85,121.73L129.82,121.19"/><path d="M129.88,117.14L130.38,116.96L130.98,117.01L131.63,117.28L188.96,150.00L189.80,150.59L190.56,151.37L191.19,152.27L195.67,159.94L195.85,160.33L195.95,160.71L195.96,161.06L195.81,162.31"/><path d="M137.29,113.82L137.42,113.61L137.47,113.31L137.42,112.96L137.29,112.60L137.08,112.27L136.83,112.00L136.56,111.82L136.29,111.76L136.06,111.81"/><path d="M136.88,112.06L136.95,112.34L137.12,112.68L137.35,112.99L137.43,113.06"/><path d="M161.24,113.43L161.25,113.65L161.39,113.86L161.63,114.03L161.96,114.16L162.34,114.22L162.73,114.21L163.08,114.13L163.36,113.99L163.54,113.80L163.59,113.59"/><path d="M182.32,137.57L182.56,137.42L182.86,137.38L183.20,137.48L183.26,137.85L183.45,138.23L183.72,138.58L184.04,138.84L184.22,138.92"/><path d="M183.95,139.67L184.15,139.46L184.23,139.15L184.21,138.78L184.07,138.38L183.84,138.01L183.54,137.70L183.20,137.48"/><path d="M208.30,179.80L207.75,179.81L206.89,179.54L206.03,179.02L205.25,178.29L204.64,177.43L204.21,176.71L203.85,176.75L203.65,176.70L195.28,162.36L195.27,162.23L195.42,162.01L195.90,161.59"/><path d="M205.09,161.18L204.83,161.14L204.36,160.91L203.91,160.54L203.56,160.08L203.32,159.57L203.22,159.08L203.25,158.94L202.82,158.95L202.49,159.13"/><path d="M203.73,169.04L203.77,169.19L203.95,169.58L204.23,169.94L204.57,170.23L204.90,170.40"/><path d="M202.92,169.08L203.18,168.95L203.50,168.95L203.86,169.08L204.22,169.32L204.54,169.65L204.77,170.03L204.91,170.42L204.92,170.78L204.81,171.07L204.60,171.25"/><path d="M203.25,158.94L203.72,159.10L204.18,159.40L204.60,159.83L204.90,160.32L205.08,160.83L205.09,161.31L204.96,161.69L204.68,161.94"/><path d="M206.42,175.53L206.63,175.43L206.90,175.44L207.20,175.55L207.49,175.75L207.75,176.02L207.94,176.33L208.05,176.64L208.05,176.93L207.97,177.16"/><path d="M210.92,170.56L210.59,170.63L209.80,170.48L208.99,170.07L208.23,169.43L207.62,168.64L207.21,167.78L207.05,166.94L207.15,166.23"/><path d="M206.53,166.51L207.11,166.23L207.85,166.22L208.67,166.50L209.47,167.04L210.18,167.77L210.71,168.62L211.00,169.49L211.03,170.29L210.78,170.93"/><path d="M207.89,176.24L207.65,176.04L207.39,175.68"/><path d="M209.35,179.60L220.07,177.09L220.72,176.77L221.69,175.88L222.11,175.29L222.25,174.49L222.10,173.56L221.86,173.02"/><path d="M220.70,173.47L221.24,173.30L221.83,173.04L222.44,172.71L222.99,172.35L223.44,171.99L226.53,169.15L226.78,168.81L226.92,168.36L226.93,167.83L226.82,167.29L226.59,166.78L219.54,154.77L219.22,154.34L218.84,154.04L218.43,153.89L218.03,153.90L216.85,154.27L216.51,154.45L213.32,157.11L213.12,157.25L212.78,157.41L212.19,156.40L211.81,155.59L211.62,154.78L211.62,154.03L213.01,144.78L213.09,144.53L213.16,144.41L213.31,144.24"/><path d="M214.48,168.47L214.60,168.17L214.59,167.80L214.45,167.40L214.21,167.00L213.88,166.66L213.50,166.41L213.12,166.28L212.77,166.29L212.49,166.42"/><path d="M214.59,167.82L214.15,167.62L213.80,167.33L213.51,166.95L213.32,166.55L213.28,166.34"/><path d="M214.19,141.07L214.26,141.35L214.47,141.61L214.79,141.83L215.19,141.99L215.64,142.07L216.07,142.05L216.44,141.95L216.72,141.77L216.87,141.53"/><path d="M216.71,172.95L216.94,172.84L217.22,172.85L217.49,172.94L217.85,173.16L218.12,173.44L218.32,173.76L218.43,174.09L218.43,174.39L218.33,174.63"/><path d="M217.86,156.85L217.58,156.99L217.38,157.25L217.28,157.61L217.27,158.02L217.38,158.45L217.58,158.84L217.85,159.15L218.16,159.35L218.49,159.42L218.78,159.34"/><path d="M217.61,173.01L217.70,173.19L217.93,173.49L218.22,173.73L218.32,173.79"/><path d="M223.18,165.92L222.91,166.07L222.71,166.34L222.61,166.70L222.61,167.12L222.71,167.55L222.91,167.94L223.18,168.25L223.50,168.45L223.82,168.51"/></g></g><g id="Actor_.6"><g style="stroke:#000000;stroke-width:0.353"><path d="M229.23,148.65L231.63,147.88L232.23,148.36L232.70,148.97L232.98,149.63L233.05,150.28"/><path d="M235.21,144.80L231.63,147.88"/></g><g style="stroke:#000000;stroke-width:0.705"><path d="M229.58,149.95L229.30,149.29L229.23,148.65L232.82,145.59L235.21,144.80L235.81,145.27L236.27,145.87L236.55,146.53L236.61,147.17L233.05,150.28L230.64,151.03L230.05,150.56L229.58,149.95"/></g></g><g id="Actor_.7"><g style="stroke:#000000;stroke-width:0.353"><path d="M110.66,113.07L110.90,113.26L110.98,113.30L111.21,113.36L111.41,113.30L111.54,113.13L111.59,112.87L111.56,112.55L111.45,112.20L111.27,111.87L111.05,111.59L110.80,111.39L110.64,111.32L110.42,111.31L110.24,111.41L110.14,111.61L110.12,111.90L110.15,112.11"/><path d="M111.14,113.05L110.63,112.74L111.16,112.47L111.26,112.36"/><path d="M110.63,112.74L110.34,112.03L110.83,111.77"/><path d="M110.34,112.03L110.56,111.61"/><path d="M110.89,111.81L111.16,112.47L111.34,112.58"/></g><g style="stroke:#000000;stroke-width:0.705"><path d="M110.66,113.07L110.97,113.32L111.35,113.50L111.63,113.62L111.97,113.68L112.33,113.67L112.46,113.65L112.50,113.64L112.76,113.47L112.78,113.45L112.94,113.12L112.95,113.07L112.98,112.62L112.97,112.57L112.87,112.04L112.85,111.98L112.63,111.45L112.60,111.39L112.29,110.90L112.25,110.85L111.88,110.47L111.61,110.28L111.33,110.15L111.29,110.14L110.95,110.13L110.92,110.14L110.65,110.30L110.63,110.33L110.52,110.49L110.25,110.94L110.18,111.28L110.10,111.83L110.15,112.11L110.26,112.46L110.43,112.79L110.66,113.07"/><path d="M110.56,111.61L111.08,111.91L111.37,112.63L111.14,113.05"/></g></g><g id="Actor_.8"><g style="stroke:#000000;stroke-width:0.353"><path d="M116.23,122.66L116.20,122.44L116.23,122.17L116.34,121.97L116.52,121.88L116.74,121.90L116.91,121.98L117.16,122.18L117.39,122.47L117.56,122.80L117.67,123.14L117.70,123.46L117.64,123.71L117.51,123.87L117.31,123.92L117.07,123.86L116.99,123.81L116.74,123.61"/><path d="M117.24,123.61L116.71,123.29L116.43,122.58L116.66,122.18"/><path d="M116.43,122.58L116.89,122.32"/><path d="M116.71,123.29L117.24,123.00L117.34,122.89"/><path d="M116.99,122.38L117.24,123.00L117.44,123.12"/></g><g style="stroke:#000000;stroke-width:0.705"><path d="M116.23,122.66L116.34,123.00L116.37,123.06L116.51,123.33L116.74,123.61L117.05,123.87L117.42,124.04L117.71,124.16L118.05,124.22L118.42,124.21L118.54,124.19L118.58,124.18L118.85,124.03L118.88,124.00L119.04,123.69L119.05,123.65L119.08,123.21L119.08,123.15L118.99,122.65L118.98,122.63L118.97,122.57L118.75,122.04L118.72,121.98L118.40,121.49L118.36,121.44L117.99,121.05L117.72,120.85L117.43,120.72L117.39,120.71L117.04,120.68L117.00,120.69L116.73,120.84L116.71,120.87L116.33,121.48L116.27,121.83L116.19,122.37L116.23,122.66"/><path d="M117.24,123.61L117.47,123.22L117.19,122.50L116.66,122.18"/></g></g><g id="Actor_.9"><g style="stroke:#000000;stroke-width:0.353"><path d="M127.11,119.17L127.20,119.46"/></g><g style="stroke:#000000;stroke-width:0.705"><path d="M127.91,118.66L127.91,119.06L127.20,119.46L127.06,119.51"/></g></g><g id="Actor_.10"><g style="stroke:#000000;stroke-width:0.353"><path d="M266.41,126.65L266.43,126.53L266.44,126.43L266.46,126.32L266.47,126.22L266.50,126.11L266.54,125.92L266.47,126.11L266.37,126.29L266.24,126.44L266.07,126.57L265.88,126.67L265.67,126.73L265.45,126.76L265.23,126.76L264.98,126.72L264.74,126.64L264.50,126.54L264.28,126.40L264.06,126.24L263.88,126.06L263.72,125.87L263.58,125.65L263.47,125.42L263.40,125.19L263.36,124.96L263.36,124.73L263.39,124.52L263.46,124.32L263.56,124.14L263.69,123.99L263.86,123.86L264.04,123.76L264.25,123.70L264.47,123.67L264.25,123.68L264.02,123.68L263.90,123.68L263.79,123.67L263.66,123.66"/><path d="M265.53,125.68L265.42,125.76L265.38,125.77L265.28,125.80L265.14,125.81L264.99,125.78L264.83,125.72L264.69,125.63L264.57,125.52L264.47,125.39L264.40,125.25L264.36,125.10L264.35,124.96L264.35,124.96L264.36,124.95L264.39,124.82L264.39,124.82L264.45,124.71L264.55,124.62"/><path d="M264.50,125.71L264.42,125.64L264.30,125.48L264.21,125.31L264.16,125.13L264.16,124.95L264.20,124.79L264.28,124.65L264.40,124.55L264.54,124.48L264.71,124.44L264.90,124.45L265.09,124.51L265.27,124.60L265.34,124.65L265.43,124.72L265.57,124.87L265.68,125.04L265.74,125.22L265.77,125.40L265.75,125.57L265.69,125.72L265.59,125.84L265.45,125.93L265.29,125.98L265.12,125.99L264.93,125.96L264.74,125.89L264.57,125.78L264.50,125.71"/><path d="M264.47,123.67L264.70,123.67L264.94,123.71L265.18,123.78L265.42,123.89L265.65,124.02L265.86,124.19L266.05,124.37L266.21,124.56L266.35,124.78L266.46,125.01L266.54,125.25L266.57,125.48L266.58,125.71L266.54,125.92L266.60,125.71L266.63,125.59L266.67,125.47L266.71,125.34L266.76,125.21L266.81,125.05L266.68,124.94L266.56,124.85L266.44,124.74L266.33,124.65L266.23,124.55L266.05,124.37L265.88,124.17L265.79,124.06L265.70,123.95L265.61,123.83L265.52,123.70L265.43,123.55L265.26,123.58L265.11,123.60L264.96,123.62L264.83,123.64L264.70,123.65L264.47,123.67"/><path d="M265.43,123.55L265.80,123.23"/><path d="M264.98,123.22L264.98,123.22"/><path d="M266.81,125.05L267.18,124.73"/></g><g style="stroke:#000000;stroke-width:0.705"><path d="M263.36,125.40L263.45,125.52L263.54,125.65L263.62,125.76L263.71,125.87L263.88,126.06L264.06,126.25L264.16,126.34L264.27,126.44L264.38,126.54L264.50,126.64L264.64,126.74L264.77,126.75L264.88,126.76L265.00,126.77L265.12,126.77L265.23,126.77L265.45,126.76L265.68,126.74L265.81,126.73L265.94,126.72L266.09,126.70L266.24,126.68L266.41,126.65L266.78,126.32L266.83,126.17L266.88,126.04L266.92,125.90L266.96,125.78L266.99,125.67L267.05,125.46L267.10,125.26L267.14,125.05L267.15,124.94L267.18,124.73L267.08,124.58L266.99,124.45L266.90,124.33L266.73,124.11L266.56,123.92L266.38,123.73L266.28,123.63L266.17,123.54L266.05,123.44L265.93,123.34L265.80,123.23L265.67,123.22L265.55,123.22L265.43,123.21L265.32,123.21L265.20,123.21L264.98,123.22L264.75,123.24L264.62,123.26L264.49,123.27L264.34,123.29L264.19,123.31L264.03,123.34L263.66,123.66L263.56,123.94L263.52,124.07L263.45,124.31L263.39,124.52L263.35,124.72L263.33,124.82L263.31,124.93L263.29,125.03L263.28,125.14L263.27,125.25L263.36,125.40"/><path d="M265.53,125.68L265.61,125.58L265.61,125.57L265.66,125.46L265.67,125.32L265.65,125.17L265.64,125.15L265.60,125.03L265.51,124.89L265.40,124.76L265.26,124.66L265.11,124.59L264.96,124.55L264.81,124.54L264.67,124.56L264.55,124.62"/><path d="M265.51,125.69L265.54,125.67L265.51,125.69"/><path d="M264.77,124.55L264.75,124.67L264.77,124.82L264.83,124.96L264.92,125.10L265.03,125.22L265.16,125.33L265.31,125.40L265.46,125.44L265.61,125.45L265.66,125.44"/></g></g><g id="Actor_.11"><g style="stroke:#000000;stroke-width:0.353"><path d="M186.95,192.07L186.93,191.93L186.93,191.84L186.93,191.80L186.94,191.68L186.95,191.56L186.98,191.45L186.99,191.44"/><path d="M188.17,194.07L188.15,194.05"/><path d="M187.51,193.07L187.69,193.36L187.89,193.63L188.00,193.61L188.13,193.58L188.19,193.63L188.25,193.66L188.30,193.68L188.50,193.90L188.71,194.10L188.89,194.05L189.07,193.97"/><path d="M187.89,193.63L188.85,192.92"/><path d="M188.13,193.58L188.87,192.94"/><path d="M187.36,193.11L187.37,193.14"/><path d="M188.06,192.64L187.74,192.86L187.61,192.59L187.49,192.30L187.66,192.23L187.85,192.17"/><path d="M187.49,192.30L187.88,192.24"/><path d="M187.74,192.86L187.74,192.89L187.74,192.93L187.74,192.99L187.75,193.03"/><path d="M188.41,191.17L188.50,191.21L188.64,191.29L188.78,191.38L188.92,191.49L189.06,191.60L189.19,191.71L189.32,191.84L189.45,191.98L189.57,192.12L189.68,192.26L189.78,192.41L189.88,192.56L189.97,192.71L190.05,192.87L190.07,192.90L190.12,193.02L190.18,193.17L190.23,193.33L190.27,193.47L190.29,193.62L190.31,193.75L190.31,193.88L190.30,194.01L190.28,194.12L190.25,194.23L190.21,194.33L190.15,194.41L190.09,194.49L190.02,194.55L189.93,194.61L189.84,194.65L189.74,194.68L189.69,194.68L189.63,194.69L189.51,194.70L189.39,194.69L189.27,194.66L189.13,194.63"/><path d="M189.05,193.20L188.85,193.30L188.65,193.39"/><path d="M188.30,193.68L188.91,193.00"/><path d="M188.71,194.10L188.83,193.75"/><path d="M188.50,191.00L188.60,191.05L188.75,191.14L188.89,191.23L189.04,191.34L189.18,191.45L189.32,191.58L189.45,191.71L189.58,191.85L189.71,191.99L189.83,192.14L189.94,192.30L190.04,192.45L190.13,192.61L190.21,192.77L190.29,192.93L190.35,193.09L190.40,193.25L190.44,193.40L190.47,193.55L190.48,193.69L190.48,193.83L190.47,193.96L190.45,194.08L190.42,194.19L190.38,194.29L190.32,194.38L190.25,194.46"/><path d="M190.09,194.58L190.08,194.59"/></g><g style="stroke:#000000;stroke-width:0.705"><path d="M187.90,190.41L187.96,190.37L188.16,190.29L188.39,190.27L188.65,190.30L188.92,190.38L189.21,190.51L189.41,190.63L189.50,190.69L189.79,190.91L190.06,191.16L190.32,191.45L190.54,191.75L190.74,192.07L190.89,192.39L191.01,192.70L191.07,193.00L191.09,193.28L191.06,193.53L190.98,193.74L190.86,193.91L190.18,194.53L190.04,194.61L189.95,194.65L189.84,194.68L189.68,194.71L189.56,194.71L189.44,194.70L189.31,194.68L189.13,194.63L189.00,194.58L188.86,194.52L188.72,194.45L188.58,194.37L188.45,194.28L188.31,194.18L188.17,194.07L187.96,193.88L187.80,193.72L187.65,193.54L187.51,193.35L187.39,193.16L187.27,192.96L187.19,192.81L187.12,192.66L187.06,192.50L187.04,192.45L187.01,192.36L186.97,192.21L186.94,192.02L186.93,191.89L186.92,191.75L186.93,191.63L186.95,191.51L186.97,191.43"/><path d="M187.85,192.17L187.97,192.45L188.10,192.73L188.18,192.77L188.27,192.83L188.47,192.74L188.67,192.64L188.86,192.93L189.05,193.20"/><path d="M188.10,192.73L187.75,193.03L187.62,193.05L187.51,193.07"/><path d="M189.07,193.97L188.86,193.77L188.66,193.55L188.66,193.51L188.66,193.46L188.65,193.39L188.97,193.09"/><path d="M189.38,190.61L201.78,179.53L201.92,179.46L202.08,179.44L202.27,179.47L202.47,179.55L202.68,179.68L202.86,179.83L203.04,180.02L203.18,180.23L203.29,180.45L203.35,180.66L203.37,180.86L203.34,181.03L203.26,181.16L190.87,192.35"/></g></g><g id="Actor_.12"><g style="stroke:#000000;stroke-width:0.353"><path d="M268.09,130.23L268.11,130.13L268.11,129.96L268.09,129.79L268.05,129.61L267.99,129.44L267.92,129.27L267.82,129.10L267.70,128.94L267.57,128.79L267.43,128.64L267.27,128.52L267.10,128.41L266.93,128.31L266.75,128.23L266.57,128.17L266.38,128.13L266.20,128.11L266.02,128.11L265.85,128.13L265.69,128.17L265.62,128.20L265.54,128.23L265.40,128.31L265.28,128.40L265.18,128.51L265.09,128.64L265.02,128.78L264.97,128.93L264.94,129.09L264.93,129.25L264.95,129.43L264.98,129.60L265.04,129.77L265.11,129.95L265.20,130.11L265.32,130.27L265.44,130.43L265.58,130.57L265.74,130.70L265.90,130.81L266.07,130.91L266.25,131.00L266.43,131.06L266.61,131.10L266.74,131.12L266.80,131.13L266.97,131.14L267.15,131.12L267.31,131.09L267.46,131.03L267.61,130.96L267.73,130.87L267.84,130.76L267.94,130.64L268.01,130.50L268.05,130.41L267.57,130.19L267.53,130.29L267.45,130.40L267.36,130.49L267.25,130.57L267.12,130.62L266.98,130.66L266.84,130.68L266.68,130.67L266.52,130.64L266.37,130.59L266.21,130.52L266.06,130.44L265.92,130.33L265.80,130.21L265.69,130.08L265.59,129.94L265.52,129.80L265.46,129.65L265.43,129.50L265.41,129.35L265.43,129.21L265.44,129.14L265.46,129.07L265.51,128.95L265.59,128.84L265.62,128.81L265.68,128.75L265.80,128.67L265.92,128.62L266.06,128.58L266.21,128.57L266.37,128.58L266.52,128.61L266.68,128.66L266.84,128.73L266.99,128.82L267.12,128.92L267.25,129.04L267.36,129.17L267.46,129.32L267.53,129.46L267.58,129.61L267.62,129.76L267.62,129.91L267.62,130.02"/><path d="M265.24,128.24L265.37,128.13L265.47,128.08L265.52,128.05L265.69,127.98L265.86,127.94L266.05,127.92L266.24,127.92L266.44,127.94L266.64,127.98L266.74,128.02L266.84,128.05L267.03,128.13L267.22,128.24L267.40,128.36L267.57,128.50L267.73,128.65L267.87,128.82L268.00,128.99L268.11,129.17L268.19,129.36L268.22,129.45L268.26,129.55L268.30,129.74L268.32,129.93L268.31,130.11L268.30,130.23"/><path d="M265.59,127.99L265.76,127.92L265.93,127.88L266.12,127.86L266.31,127.86L266.51,127.88L266.71,127.92L266.90,127.99L267.10,128.07L267.29,128.18L267.47,128.30L267.64,128.44L267.80,128.59L267.94,128.75L268.07,128.93L268.17,129.11L268.26,129.30L268.32,129.49L268.36,129.68L268.38,129.87L268.38,130.05L268.36,130.17"/><path d="M265.86,128.80L265.77,128.88L265.71,128.97L265.66,129.08L265.63,129.20L265.62,129.32L265.63,129.45L265.65,129.52L265.66,129.58L265.71,129.72L265.77,129.84L265.82,129.91L265.86,129.97L265.96,130.08L266.07,130.18L266.13,130.23L266.19,130.27L266.32,130.35L266.45,130.41L266.59,130.45L266.73,130.48L266.86,130.48L266.99,130.47L267.11,130.44L267.22,130.39L267.32,130.32"/><path d="M265.78,128.91L265.73,129.02L265.70,129.14L265.70,129.14L265.69,129.26L265.70,129.39L265.73,129.52L265.78,129.65L265.84,129.78L265.89,129.85L265.92,129.90L266.02,130.02L266.13,130.12L266.26,130.21L266.39,130.29L266.52,130.35L266.60,130.37L266.66,130.39L266.80,130.42L266.93,130.42L267.06,130.41L267.18,130.38L267.29,130.33"/><path d="M267.57,130.19L267.55,130.18L267.52,130.16L267.51,130.16L267.49,130.13L267.49,130.13L267.49,130.11L267.49,130.10L267.49,130.08"/><path d="M268.19,130.60L268.28,130.45L268.32,130.35L268.25,130.41L268.21,130.52L268.13,130.66L268.03,130.80L267.91,130.91"/><path d="M268.25,130.41L268.23,130.42L268.22,130.43L268.19,130.43L268.18,130.43L268.14,130.43L268.13,130.43L268.09,130.42L268.05,130.41"/><path d="M268.32,130.35L268.32,130.34L268.33,130.32"/></g><g style="stroke:#000000;stroke-width:0.705"><path d="M267.54,129.84L267.53,129.93L267.53,129.93L267.54,129.96L267.54,129.96L267.56,129.99L267.57,129.99L267.60,130.01L267.62,130.02L268.09,130.23L268.11,130.24L268.12,130.25L268.16,130.25L268.18,130.26L268.21,130.26L268.22,130.26L268.26,130.25L268.27,130.25L268.29,130.24L268.30,130.23L268.36,130.17L268.38,130.15L268.38,130.15L268.39,130.03L268.40,129.85L268.40,129.83L268.38,129.64L268.34,129.45L268.27,129.27L268.19,129.08L268.08,128.90L267.96,128.73L267.82,128.57L267.67,128.42L267.50,128.28L267.32,128.16L267.13,128.06L266.94,127.97L266.74,127.91L266.55,127.87L266.35,127.85L266.33,127.84L266.14,127.84L265.95,127.87L265.78,127.91L265.62,127.97L265.59,127.99L265.44,128.07L265.31,128.17L265.24,128.24L265.13,128.36L265.03,128.49L265.02,128.52L264.94,128.67L264.89,128.83L264.86,129.00L264.85,129.18L264.85,129.20L264.87,129.39L264.90,129.57L264.96,129.76L265.04,129.94L265.14,130.12L265.26,130.29L265.39,130.46L265.54,130.61L265.71,130.75L265.88,130.87L266.07,130.98L266.26,131.07L266.45,131.13L266.65,131.18L266.84,131.21L266.87,131.21L267.06,131.22L267.25,131.20L267.42,131.16L267.59,131.11L267.77,131.01L267.91,130.91L267.97,130.85L268.09,130.74L268.19,130.60L268.21,130.58L268.29,130.43L268.33,130.32L268.33,130.32L268.33,130.29L268.33,130.29L268.31,130.27L268.31,130.26L268.28,130.24"/><path d="M265.70,129.24L265.71,129.35L265.74,129.49L265.79,129.62L265.86,129.75L265.95,129.88L266.05,130.00L266.16,130.10L266.28,130.20L266.42,130.27L266.56,130.34L266.70,130.38L266.84,130.40"/><path d="M265.79,128.90L265.74,129.00L265.71,129.12L265.70,129.24"/><path d="M266.41,128.66L266.55,128.68L266.65,128.71L266.69,128.73L266.83,128.79L266.97,128.87L267.09,128.97L267.20,129.08L267.30,129.19L267.39,129.32L267.46,129.45L267.50,129.59L267.53,129.72L267.54,129.86"/><path d="M265.93,128.75L266.04,128.70L266.16,128.67L266.30,128.65L266.41,128.66"/><path d="M265.86,128.80L265.95,128.74"/><path d="M265.78,128.91L265.84,128.82L265.87,128.79"/><path d="M266.82,130.40L266.95,130.41L267.08,130.40L267.21,130.36L267.30,130.32"/><path d="M267.32,130.32L267.40,130.24L267.46,130.16"/><path d="M267.37,130.27L267.29,130.33"/><path d="M267.45,130.16L267.49,130.08L267.50,130.07L267.57,130.01L267.58,130.00L267.58,130.00"/></g></g><g id="Actor_.13"><g style="stroke:#000000;stroke-width:0.353"><path d="M256.05,136.26L256.22,136.07L256.34,135.84L256.42,135.59L256.46,135.32L256.46,135.03L256.41,134.73L256.32,134.44L256.19,134.14L256.02,133.85L255.82,133.58L255.58,133.33L255.32,133.11L255.04,132.92L254.75,132.76L254.44,132.64L254.14,132.56L253.84,132.52L253.55,132.53L253.27,132.57L253.02,132.66L252.79,132.79L252.70,132.86"/><path d="M255.03,135.30L254.89,135.40L254.73,135.46L254.54,135.47L254.34,135.44L254.15,135.37L253.96,135.26L253.79,135.11L253.64,134.95L253.53,134.76L253.46,134.57L253.44,134.38L253.45,134.20L253.51,134.04L253.62,133.91"/></g><g style="stroke:#000000;stroke-width:0.705"><path d="M252.71,132.85L252.77,132.80L252.97,132.64L253.19,132.51L253.45,132.42L253.72,132.37L254.01,132.37L254.31,132.41L254.62,132.49L254.92,132.61L255.22,132.77L255.50,132.96L255.76,133.18L255.99,133.43L256.15,133.64L256.19,133.70L256.36,133.99L256.50,134.28L256.59,134.58L256.63,134.88L256.64,135.16L256.60,135.44L256.51,135.69L256.41,135.88L256.39,135.91L256.23,136.11L256.05,136.26L255.86,136.43L255.63,136.55L255.37,136.64L255.10,136.68L254.80,136.68L254.50,136.64L254.20,136.56L253.90,136.43L253.61,136.28L253.33,136.08L253.07,135.86L252.84,135.61L252.64,135.35L252.47,135.06L252.34,134.77L252.25,134.48L252.20,134.18L252.20,133.90L252.24,133.63L252.32,133.38L252.40,133.22"/><path d="M253.74,133.82L253.69,133.89L253.63,134.04L253.61,134.22L253.64,134.42L253.71,134.61L253.80,134.76L253.82,134.79L253.96,134.96L254.13,135.10L254.32,135.21L254.52,135.28L254.71,135.31L254.90,135.30L255.06,135.25L255.08,135.23"/><path d="M255.03,135.30L255.13,135.17L255.19,135.01L255.21,134.83L255.18,134.64L255.11,134.45L255.00,134.26L254.86,134.09L254.69,133.95L254.50,133.84L254.30,133.77L254.10,133.74L253.92,133.75L253.75,133.81L253.62,133.91"/></g></g><g id="Actor_.14"><g style="stroke:#000000;stroke-width:0.353"><path d="M261.67,130.02L261.68,129.92L261.68,129.76L261.66,129.59L261.62,129.42L261.57,129.26L261.49,129.09L261.40,128.93L261.29,128.78L261.17,128.63L261.03,128.50L260.88,128.38L260.72,128.27L260.56,128.18L260.39,128.10L260.21,128.05L260.04,128.01L259.87,127.99L259.70,127.99L259.54,128.01L259.39,128.05L259.25,128.10L259.12,128.18L259.01,128.27L258.91,128.38L258.83,128.50L258.76,128.63L258.72,128.77L258.69,128.92L258.69,129.08L258.70,129.25L258.74,129.41L258.79,129.58L258.86,129.74L258.95,129.90L259.06,130.06L259.18,130.20L259.31,130.34L259.46,130.46L259.61,130.57L259.77,130.67L259.94,130.75L260.11,130.81L260.28,130.85L260.46,130.87L260.62,130.88L260.78,130.87L260.94,130.83L261.08,130.78L261.21,130.71L261.33,130.62L261.44,130.52L261.52,130.40L261.59,130.27L261.62,130.18L261.18,129.98L261.14,130.07L261.07,130.17L260.98,130.26L260.88,130.34L260.76,130.39L260.63,130.43L260.49,130.44L260.34,130.43L260.20,130.41L260.05,130.36L259.90,130.30L259.76,130.21L259.63,130.11L259.51,130.00L259.40,129.88L259.31,129.74L259.24,129.60L259.19,129.46L259.15,129.32L259.14,129.17L259.15,129.04L259.18,128.91L259.23,128.79L259.30,128.69L259.39,128.60L259.50,128.53L259.61,128.48L259.75,128.44L259.88,128.43L260.03,128.44L260.18,128.46L260.33,128.51L260.47,128.58L260.61,128.66L260.75,128.76L260.87,128.88L260.97,129.01L261.06,129.14L261.13,129.28L261.18,129.42L261.21,129.57L261.22,129.71L261.22,129.81"/><path d="M260.95,130.10L260.86,130.16L260.75,130.21L260.64,130.24L260.52,130.26L260.39,130.25L260.26,130.23L260.13,130.19L260.00,130.13L259.88,130.06L259.83,130.02L259.76,129.97L259.66,129.87L259.57,129.76L259.53,129.71L259.49,129.65L259.42,129.52L259.38,129.40L259.36,129.34L259.35,129.27L259.34,129.15L259.35,129.03L259.37,128.92L259.42,128.82L259.48,128.72L259.56,128.65"/><path d="M260.92,130.11L260.82,130.15L260.70,130.18L260.58,130.20L260.46,130.19L260.33,130.17L260.20,130.13L260.07,130.07L259.95,130.00L259.83,129.91L259.73,129.81L259.63,129.70L259.60,129.65L259.55,129.59L259.49,129.46L259.44,129.34L259.41,129.21L259.40,129.09L259.41,128.97L259.43,128.92L259.44,128.86L259.48,128.76"/><path d="M258.97,128.11L259.10,128.01L259.24,127.93L259.39,127.87L259.55,127.83L259.73,127.81L259.91,127.81L260.10,127.83L260.28,127.87L260.40,127.91L260.47,127.93L260.66,128.01L260.84,128.11L261.01,128.23L261.17,128.36L261.32,128.51L261.45,128.66L261.57,128.83L261.67,129.00L261.75,129.18L261.78,129.27L261.82,129.36L261.86,129.55L261.88,129.73L261.87,129.90L261.86,130.02"/><path d="M261.93,129.96L261.94,129.84L261.94,129.67L261.92,129.49L261.88,129.31L261.85,129.21L261.82,129.12L261.74,128.94L261.64,128.77L261.52,128.60L261.38,128.45L261.23,128.30L261.07,128.17L260.90,128.05L260.72,127.95L260.54,127.87L260.47,127.85L260.35,127.81L260.16,127.77L259.98,127.75L259.80,127.75L259.70,127.76L259.62,127.77L259.46,127.81L259.30,127.87"/><path d="M261.10,129.87L261.10,129.89L261.10,129.89L261.10,129.92L261.10,129.92L261.12,129.94L261.13,129.95L261.15,129.97L261.18,129.98"/><path d="M261.77,130.37L261.85,130.23L261.89,130.12L261.82,130.18L261.78,130.29L261.71,130.43L261.61,130.56L261.50,130.67"/><path d="M261.23,130.84L261.23,130.84"/><path d="M261.82,130.18L261.80,130.20L261.79,130.20L261.76,130.21L261.75,130.21L261.71,130.21L261.70,130.21L261.66,130.20L261.62,130.18"/><path d="M261.89,130.12L261.89,130.12L261.90,130.10"/></g><g style="stroke:#000000;stroke-width:0.705"><path d="M261.85,130.02L261.88,130.04L261.88,130.05L261.90,130.07L261.90,130.08L261.90,130.10L261.90,130.10L261.86,130.21L261.79,130.35L261.77,130.37L261.68,130.50L261.57,130.61L261.50,130.67L261.37,130.76L261.20,130.85L261.05,130.91L260.88,130.94L260.71,130.96L260.52,130.95L260.50,130.95L260.32,130.92L260.13,130.88L259.95,130.81L259.77,130.73L259.60,130.63L259.43,130.51L259.28,130.38L259.13,130.23L259.00,130.08L258.89,129.91L258.80,129.74L258.72,129.56L258.66,129.39L258.63,129.21L258.61,129.03L258.61,129.01L258.62,128.84L258.65,128.68L258.69,128.52L258.76,128.38L258.87,128.23L258.97,128.11L259.04,128.05L259.16,127.95L259.30,127.87L259.33,127.86L259.48,127.80L259.64,127.76L259.82,127.74L260.00,127.74L260.02,127.74L260.20,127.76L260.39,127.80L260.57,127.86L260.76,127.94L260.93,128.04L261.10,128.15L261.26,128.28L261.41,128.43L261.54,128.58L261.66,128.74L261.76,128.92L261.84,129.09L261.90,129.27L261.94,129.45L261.96,129.63L261.95,129.82L261.94,129.93L261.94,129.94L261.93,129.96L261.86,130.02L261.86,130.02L261.83,130.03L261.82,130.03L261.79,130.04L261.78,130.04L261.75,130.04L261.73,130.04L261.70,130.03L261.69,130.02L261.67,130.02L261.22,129.81L261.20,129.80L261.17,129.79L261.17,129.78L261.15,129.76L261.14,129.75L261.14,129.73L261.14,129.65"/><path d="M259.42,129.06L259.43,129.18L259.46,129.31L259.51,129.43L259.57,129.56L259.65,129.68L259.75,129.79L259.86,129.89L259.97,129.98L260.10,130.06L260.23,130.12L260.37,130.16L260.50,130.18"/><path d="M259.62,128.60L259.73,128.55L259.84,128.52L259.97,128.51L260.08,128.51"/><path d="M259.56,128.65L259.64,128.59"/><path d="M259.48,128.76L259.55,128.67L259.58,128.63"/><path d="M259.42,129.07L259.43,128.95L259.44,128.88L259.45,128.84L259.50,128.74"/><path d="M261.15,129.66L261.14,129.53L261.11,129.40L261.06,129.27L261.00,129.14L260.92,129.02L260.82,128.91L260.72,128.81L260.60,128.72L260.47,128.64L260.34,128.58L260.30,128.57L260.21,128.54L260.07,128.51"/><path d="M261.01,130.04L261.07,129.95L261.10,129.87L261.11,129.86L261.18,129.80L261.19,129.80"/><path d="M260.48,130.18L260.61,130.18L260.73,130.17L260.84,130.14L260.93,130.10"/><path d="M260.92,130.11L260.98,130.06"/><path d="M261.02,130.02L260.95,130.10"/></g></g><g id="Actor_.15"><g style="stroke:#000000;stroke-width:0.353"><path d="M193.46,192.54L193.44,192.39L193.42,192.24L193.42,192.10L193.43,191.96L193.45,191.84L193.49,191.72L193.53,191.61L193.59,191.52L193.66,191.43L193.74,191.35L193.83,191.29L193.93,191.24L194.04,191.21L194.15,191.18L194.28,191.17L194.41,191.17L194.54,191.19L194.68,191.22L194.83,191.26L194.98,191.32L195.13,191.39L195.28,191.47L195.43,191.56L195.58,191.66L195.72,191.78L195.87,191.90L196.01,192.03L196.13,192.16L196.27,192.32L196.39,192.47L196.50,192.62L196.60,192.78L196.70,192.95L196.78,193.11L196.86,193.27L196.92,193.44L196.97,193.60L197.01,193.76L197.03,193.91L197.05,194.06L197.05,194.20L197.04,194.33L197.02,194.46L196.98,194.58L196.96,194.63L196.93,194.68L196.87,194.78L196.80,194.87L196.72,194.94L196.63,195.00L196.53,195.05L196.42,195.08L196.30,195.11L196.16,195.11L196.05,195.11L195.91,195.09L195.77,195.06L195.62,195.01"/><path d="M193.63,191.35L193.63,191.36"/><path d="M196.97,194.84L197.05,194.75L197.11,194.65L197.16,194.54L197.19,194.41L197.22,194.28L197.23,194.14L197.23,194.00L197.21,193.84L197.19,193.68L197.14,193.52L197.09,193.35L197.03,193.18L196.95,193.01L196.86,192.84L196.77,192.67L196.66,192.51L196.54,192.34L196.42,192.19L196.28,192.04L196.14,191.89L196.00,191.75L195.85,191.63L195.70,191.51L195.54,191.40L195.39,191.31L195.23,191.22L195.07,191.15L194.92,191.09L194.77,191.05L194.62,191.02L194.48,191.00L194.35,191.00L194.22,191.01L194.10,191.03L193.98,191.07L193.88,191.12L193.79,191.19"/><path d="M194.02,192.61L193.98,192.86L193.96,193.10L194.16,193.30L194.37,193.50L194.43,193.61L194.49,193.70L194.49,193.88L194.51,194.05L194.78,194.25L195.07,194.42"/><path d="M194.49,193.70L195.24,192.95"/><path d="M194.51,194.05L195.19,193.12"/><path d="M194.37,193.50L195.26,192.84"/><path d="M194.71,192.48L194.64,192.74L194.57,192.98"/><path d="M193.96,193.10L194.39,192.98"/><path d="M195.15,192.77L194.68,192.90"/><path d="M195.76,194.28L195.47,194.17L195.18,194.03L195.16,194.05L195.11,194.06L195.04,194.06"/><path d="M195.18,194.03L195.51,193.67"/><path d="M196.79,194.98L196.78,194.98"/></g><g style="stroke:#000000;stroke-width:0.705"><path d="M196.05,190.78L196.32,190.95L196.62,191.20L196.90,191.48L197.16,191.79L197.38,192.11L197.57,192.45L197.71,192.79L197.80,193.12L197.84,193.43L197.83,193.72L197.77,193.97L197.66,194.19L197.50,194.35L196.97,194.84L196.89,194.91L196.79,194.98L196.75,195.00L196.64,195.05L196.53,195.09L196.36,195.12L196.23,195.13L196.09,195.12L195.95,195.11L195.81,195.07L195.62,195.01L195.48,194.96L195.33,194.89L195.18,194.81L195.03,194.71L194.88,194.61L194.74,194.50L194.59,194.37L194.46,194.24L194.32,194.11L194.20,193.96L194.08,193.81L193.97,193.66L193.87,193.50L193.77,193.34L193.69,193.18L193.62,193.01L193.55,192.85L193.50,192.69L193.47,192.54L193.43,192.34L193.41,192.19L193.41,192.05L193.42,191.91L193.44,191.78L193.46,191.73L193.49,191.61L193.54,191.50L193.60,191.40L193.70,191.26L193.79,191.19L194.41,190.64L194.60,190.52L194.84,190.45L195.10,190.45L195.39,190.49L195.69,190.60L196.01,190.75L196.05,190.78L208.60,179.53L208.76,179.47L208.95,179.46L209.15,179.51L209.37,179.61L209.58,179.75L209.78,179.93L209.95,180.13L210.09,180.36L210.18,180.59L210.23,180.81L210.23,181.01L210.17,181.18L210.07,181.31L197.63,192.60"/><path d="M194.02,192.61L194.22,192.82L194.43,193.01L194.48,192.99L194.53,192.98L194.57,192.98L194.98,192.66"/><path d="M194.71,192.48L194.98,192.66L195.27,192.84L195.19,193.10L195.13,193.35L195.17,193.41L195.21,193.47L195.25,193.55L195.53,193.68L195.82,193.80L195.76,194.28"/><path d="M195.07,194.42L195.05,194.25L195.04,194.06L195.46,193.65"/><path d="M208.55,179.58L208.46,179.65"/></g></g><g id="Actor_.16"><g style="stroke:#000000;stroke-width:0.353"><path d="M258.54,133.46L258.75,133.29L258.99,133.16L259.26,133.07L259.55,133.02L259.86,133.01L260.18,133.05L260.51,133.14L260.83,133.26L261.14,133.43L261.14,133.43L261.44,133.63L261.72,133.87L261.96,134.13L262.18,134.41L262.26,134.54L262.36,134.71L262.49,135.02L262.59,135.34L262.64,135.65L262.64,135.95L262.59,136.23L262.50,136.50L262.37,136.73L262.19,136.94"/><path d="M261.11,135.93L260.96,136.03L260.78,136.09L260.59,136.10L260.38,136.07L260.17,135.99L259.97,135.88L259.79,135.73L259.64,135.55L259.52,135.36L259.45,135.16L259.42,134.96L259.44,134.77L259.51,134.60L259.62,134.46"/></g><g style="stroke:#000000;stroke-width:0.705"><path d="M258.51,135.88L258.56,135.97L258.78,136.25L259.02,136.51L259.29,136.74L259.59,136.95L259.90,137.11L260.22,137.24L260.54,137.33L260.86,137.37L261.17,137.37L261.46,137.33L261.73,137.24L261.98,137.11L262.19,136.94L262.37,136.78L262.54,136.57L262.68,136.33L262.77,136.07L262.81,135.79L262.81,135.49L262.77,135.17L262.67,134.86L262.54,134.55L262.36,134.25L262.14,133.97L261.89,133.71L261.62,133.47L261.32,133.27L261.01,133.10L260.69,132.98L260.36,132.89L260.04,132.85L259.73,132.86L259.44,132.91L259.17,133.00L258.93,133.13L258.72,133.30L258.54,133.46L258.37,133.67L258.24,133.91L258.15,134.17L258.11,134.45L258.11,134.75L258.16,135.06L258.25,135.37L258.39,135.67L258.51,135.88"/><path d="M259.73,134.39L259.69,134.44L259.62,134.61L259.60,134.80L259.63,135.00L259.70,135.20L259.81,135.39L259.97,135.57L260.15,135.72L260.35,135.83L260.56,135.91L260.76,135.94L260.96,135.93L261.14,135.87L261.18,135.84"/><path d="M261.11,135.93L261.22,135.79L261.29,135.63L261.31,135.44L261.28,135.24L261.21,135.03L261.09,134.84L260.94,134.66L260.76,134.51L260.56,134.40L260.35,134.32L260.14,134.29L259.94,134.30L259.76,134.36L259.62,134.46"/></g></g><g id="Actor_.17"><g style="stroke:#000000;stroke-width:0.353"><path d="M272.79,122.67L272.42,123.00L272.24,123.03L272.08,123.06L271.92,123.08L271.78,123.09L271.64,123.11L271.40,123.13L271.17,123.16L270.95,123.23L270.75,123.33L270.57,123.46L270.43,123.62L270.32,123.81L270.25,124.02L270.21,124.23L270.21,124.47L270.25,124.71L270.33,124.96L270.44,125.19L270.58,125.42L270.75,125.63L270.95,125.81L271.17,125.98L271.41,126.12L271.66,126.23L271.92,126.31L272.17,126.35L272.41,126.35L272.64,126.32L272.87,126.26L273.07,126.16L273.25,126.02L273.39,125.86L273.51,125.67L273.58,125.47L273.53,125.68L273.50,125.79L273.48,125.89L273.46,126.01L273.45,126.12L273.43,126.24"/><path d="M271.20,125.02L271.11,124.84L271.06,124.65L271.06,124.47L271.10,124.30L271.19,124.15L271.31,124.04L271.47,123.97L271.65,123.94L271.85,123.95L272.05,124.00L272.24,124.09L272.41,124.22L272.56,124.38L272.67,124.56L272.74,124.74L272.76,124.93L272.74,125.11L272.68,125.26L272.57,125.39L272.42,125.48L272.25,125.54L272.06,125.55L271.87,125.51L271.67,125.44L271.49,125.33L271.33,125.18L271.20,125.02"/><path d="M270.53,123.12L270.67,123.13L270.80,123.14L270.93,123.14L271.17,123.14L271.40,123.13L271.64,123.13L271.90,123.17L272.16,123.24L272.41,123.35L272.65,123.49L272.88,123.66L273.07,123.85L273.24,124.06L273.39,124.29L273.50,124.53L273.58,124.77L273.62,125.02L273.62,125.25L273.58,125.47L273.64,125.25L273.68,125.13L273.72,125.01L273.76,124.87L273.81,124.73L273.87,124.57L273.73,124.46L273.60,124.35L273.48,124.25L273.37,124.15L273.26,124.04L273.07,123.85L272.89,123.65L272.80,123.53L272.71,123.42L272.61,123.29L272.52,123.15L272.42,123.00"/><path d="M272.50,125.23L272.38,125.30L272.24,125.35L272.09,125.36L271.92,125.33L271.76,125.27L271.62,125.18L271.48,125.06L271.38,124.92L271.30,124.77L271.26,124.62L271.26,124.47L271.26,124.46L271.30,124.33L271.37,124.21"/><path d="M271.92,122.66L271.92,122.66"/><path d="M274.24,124.23L273.87,124.57"/></g><g style="stroke:#000000;stroke-width:0.705"><path d="M270.90,125.78L270.94,125.82L271.05,125.92L271.16,126.02L271.28,126.12L271.40,126.23L271.55,126.34L271.68,126.35L271.81,126.36L271.94,126.36L272.06,126.36L272.18,126.36L272.41,126.35L272.66,126.34L272.80,126.32L272.93,126.31L273.09,126.29L273.25,126.26L273.43,126.24L273.80,125.90L273.86,125.74L273.91,125.60L273.96,125.46L274.00,125.33L274.03,125.21L274.10,125.00L274.15,124.78L274.19,124.57L274.21,124.45L274.24,124.23L274.14,124.07L274.05,123.94L273.95,123.81L273.77,123.58L273.59,123.38L273.40,123.19L273.29,123.09L273.18,122.99L273.06,122.88L272.93,122.78L272.79,122.67L272.65,122.66L272.53,122.65L272.40,122.65L272.28,122.65L272.15,122.65L271.92,122.66L271.68,122.68L271.54,122.70L271.40,122.71L271.24,122.73L271.09,122.76L270.91,122.79L270.53,123.12L270.43,123.41L270.38,123.55L270.31,123.80L270.25,124.02L270.20,124.22L270.17,124.33L270.15,124.44L270.14,124.55L270.12,124.65L270.10,124.78L270.20,124.93L270.30,125.07L270.39,125.20L270.48,125.31L270.58,125.42L270.75,125.63L270.90,125.78"/><path d="M271.68,124.05L271.67,124.17L271.69,124.33L271.74,124.48L271.84,124.62L271.95,124.75L272.10,124.86L272.25,124.93L272.41,124.98L272.57,124.99L272.64,124.97"/><path d="M271.38,124.20L271.47,124.12L271.37,124.21"/><path d="M271.47,124.12L271.60,124.06L271.75,124.03L271.91,124.04L272.07,124.09L272.23,124.16L272.37,124.27L272.49,124.40L272.58,124.54L272.62,124.65L272.64,124.70L272.66,124.85L272.64,124.99L272.59,125.12L272.50,125.23"/></g></g><g><g/></g><g><g><path style="stroke:#000000;stroke-width:0.500" d="M270.77,92.80L265.38,123.11"/></g><g><path style="fill:#000000" d="M266.34,123.10L266.33,123.01L266.32,122.91L266.29,122.81L266.26,122.72L266.22,122.63L266.17,122.55L266.11,122.47L266.04,122.40L265.97,122.33L265.89,122.27L265.81,122.22L265.72,122.18L265.63,122.15L265.53,122.12L265.44,122.11L265.34,122.10L265.24,122.11L265.14,122.12L265.05,122.15L264.95,122.18L264.87,122.22L264.78,122.27L264.70,122.33L264.63,122.40L264.56,122.47L264.51,122.55L264.46,122.63L264.41,122.72L264.38,122.81L264.36,122.91L264.34,123.01L264.34,123.10L264.34,123.20L264.36,123.30L264.38,123.39L264.41,123.49L264.46,123.58L264.51,123.66L264.56,123.74L264.63,123.81L264.70,123.88L264.78,123.94L264.87,123.99L264.95,124.03L265.05,124.06L265.14,124.08L265.24,124.10L265.34,124.10L265.44,124.10L265.53,124.08L265.63,124.06L265.72,124.03L265.81,123.99L265.89,123.94L265.97,123.88L266.04,123.81L266.11,123.74L266.17,123.66L266.22,123.58L266.26,123.49L266.29,123.39L266.32,123.30L266.33,123.20z"/></g><g><path style="fill:#fffbf0" d="M254.39,93.40L287.05,93.40L287.05,88.63L254.39,88.63z"/><text xml:space="preserve" fill="#000000" stroke-width="0" x="254.99" y="92.06" font-size="3.63" opacity="1.00" font-family="OCR A Std">M2.5 Hex Nut</text></g></g><g><g><path style="stroke:#ff0000;stroke-width:0.500;stroke-dasharray:0.6 0.6" d="M207.79,176.08L203.15,180.18"/><path style="stroke:#ff0000;stroke-width:0.500;stroke-dasharray:0.6 0.6" d="M223.76,161.97L233.73,153.16"/><path style="stroke:#ff0000;stroke-width:0.500;stroke-dasharray:0.6 0.6" d="M255.04,134.33L247.80,140.72"/><path style="stroke:#ff0000;stroke-width:0.500;stroke-dasharray:0.6 0.6" d="M256.02,133.46L260.96,129.09"/><path style="stroke:#ff0000;stroke-width:0.500;stroke-dasharray:0.6 0.6" d="M265.59,125.01L261.54,128.58"/></g></g><g><g><path style="stroke:#000000;stroke-width:0.500" d="M236.31,82.26L259.70,127.69"/></g><g><path style="fill:#000000" d="M260.61,127.67L260.60,127.57L260.59,127.48L260.56,127.38L260.53,127.29L260.49,127.20L260.44,127.12L260.38,127.04L260.31,126.97L260.24,126.90L260.16,126.84L260.08,126.79L259.99,126.75L259.90,126.72L259.80,126.69L259.70,126.68L259.61,126.67L259.51,126.68L259.41,126.69L259.32,126.72L259.22,126.75L259.14,126.79L259.05,126.84L258.97,126.90L258.90,126.97L258.83,127.04L258.78,127.12L258.72,127.20L258.68,127.29L258.65,127.38L258.63,127.48L258.61,127.57L258.61,127.67L258.61,127.77L258.63,127.87L258.65,127.96L258.68,128.05L258.72,128.14L258.78,128.23L258.83,128.31L258.90,128.38L258.97,128.45L259.05,128.50L259.14,128.55L259.22,128.60L259.32,128.63L259.41,128.65L259.51,128.67L259.61,128.67L259.70,128.67L259.80,128.65L259.90,128.63L259.99,128.60L260.08,128.55L260.16,128.50L260.24,128.45L260.31,128.38L260.38,128.31L260.44,128.23L260.49,128.14L260.53,128.05L260.56,127.96L260.59,127.87L260.60,127.77z"/></g><g><path style="fill:#fffbf0" d="M208.67,82.87L263.80,82.87L263.80,78.10L208.67,78.10z"/><text xml:space="preserve" fill="#000000" stroke-width="0" x="209.27" y="81.53" font-size="3.39" opacity="1.00" font-family="OCR A Std">M2.5 Split Lock Washer</text></g></g><g><g><path style="stroke:#ff0000;stroke-width:0.500;stroke-dasharray:0.6 0.6" d="M218.24,173.63L210.21,180.69"/><path style="stroke:#ff0000;stroke-width:0.500;stroke-dasharray:0.6 0.6" d="M226.40,166.46L244.36,150.58"/><path style="stroke:#ff0000;stroke-width:0.500;stroke-dasharray:0.6 0.6" d="M261.32,135.27L250.41,145.13"/><path style="stroke:#ff0000;stroke-width:0.500;stroke-dasharray:0.6 0.6" d="M267.52,129.68L262.39,134.31"/><path style="stroke:#ff0000;stroke-width:0.500;stroke-dasharray:0.6 0.6" d="M272.76,124.94L268.19,129.08"/></g></g><g><g><path style="stroke:#ff0000;stroke-width:0.500;stroke-dasharray:0.6 0.6" d="M203.70,160.52L204.57,159.80"/><path style="stroke:#ff0000;stroke-width:0.500;stroke-dasharray:0.6 0.6" d="M211.62,154.01L229.47,139.33"/></g></g><g><g><path style="stroke:#000000;stroke-width:0.500" d="M210.91,108.45L213.90,108.45L252.91,132.71"/></g><g><path style="fill:#000000" d="M253.81,132.69L253.81,132.59L253.79,132.49L253.77,132.40L253.74,132.30L253.70,132.22L253.65,132.13L253.59,132.05L253.52,131.98L253.45,131.91L253.37,131.85L253.28,131.80L253.20,131.76L253.10,131.73L253.01,131.71L252.91,131.69L252.81,131.69L252.72,131.69L252.62,131.71L252.52,131.73L252.43,131.76L252.34,131.80L252.26,131.85L252.18,131.91L252.11,131.98L252.04,132.05L251.98,132.13L251.93,132.22L251.89,132.30L251.86,132.40L251.83,132.49L251.82,132.59L251.81,132.69L251.82,132.78L251.83,132.88L251.86,132.98L251.89,133.07L251.93,133.16L251.98,133.24L252.04,133.32L252.11,133.39L252.18,133.46L252.26,133.52L252.34,133.57L252.43,133.61L252.52,133.64L252.62,133.67L252.72,133.68L252.81,133.69L252.91,133.68L253.01,133.67L253.10,133.64L253.20,133.61L253.28,133.57L253.37,133.52L253.45,133.46L253.52,133.39L253.59,133.32L253.65,133.24L253.70,133.16L253.74,133.07L253.77,132.98L253.79,132.88L253.81,132.78z"/></g><g><path style="fill:#fffbf0" d="M169.80,110.84L211.44,110.84L211.44,106.06L169.80,106.06z"/><text xml:space="preserve" fill="#000000" stroke-width="0" x="170.39" y="109.49" font-size="3.50" opacity="1.00" font-family="OCR A Std">M2.5 Flat Washer</text></g></g><g><g><path style="stroke:#000000;stroke-width:0.500" d="M158.25,174.31L188.31,191.47"/></g><g><path style="fill:#000000" d="M189.28,191.40L189.27,191.30L189.26,191.20L189.23,191.11L189.20,191.02L189.16,190.93L189.11,190.84L189.05,190.76L188.98,190.69L188.91,190.63L188.83,190.57L188.75,190.52L188.66,190.48L188.57,190.44L188.47,190.42L188.37,190.40L188.28,190.40L188.18,190.40L188.08,190.42L187.99,190.44L187.89,190.48L187.80,190.52L187.72,190.57L187.64,190.63L187.57,190.69L187.50,190.76L187.44,190.84L187.39,190.93L187.35,191.02L187.32,191.11L187.30,191.20L187.28,191.30L187.28,191.40L187.28,191.50L187.30,191.59L187.32,191.69L187.35,191.78L187.39,191.87L187.44,191.95L187.50,192.03L187.57,192.11L187.64,192.17L187.72,192.23L187.80,192.28L187.89,192.32L187.99,192.36L188.08,192.38L188.18,192.39L188.28,192.40L188.37,192.39L188.47,192.38L188.57,192.36L188.66,192.32L188.75,192.28L188.83,192.23L188.91,192.17L188.98,192.11L189.05,192.03L189.11,191.95L189.16,191.87L189.20,191.78L189.23,191.69L189.26,191.59L189.27,191.50z"/></g><g><path style="fill:#fffbf0" d="M119.44,174.84L197.04,174.84L197.04,170.07L119.44,170.07z"/><text xml:space="preserve" fill="#000000" stroke-width="0" x="120.04" y="173.50" font-size="3.31" opacity="1.00" font-family="OCR A Std">M2.5*25mm Pan Head Machine Screw</text></g></g><g/><g id="paperID" visibility="hidden" opacity="0.00" transform="scale(0.000100)"><path style="stroke:#000000;stroke-width:0.500;fill:#e6e6e6;fill-rule:evenodd" d="M-2000.00,-2000.00L2297.00,-2000.00L2297.00,2210.00L-2000.00,2210.00zM0.00,0.00L297.00,0.00L297.00,210.00L0.00,210.00z"/><path style="fill:#000000;fill-opacity:0.118" d="M3.00,210.00L297.00,210.00L297.00,3.00L300.00,3.00L300.00,213.00L3.00,213.00z"/></g><g id="ToolTip" visibility="hidden" opacity="0" transform="translate(0,0)"><rect id="ToolTipShadow" opacity="0.20" fill="black" stroke="none" x="0" y="0" width="30" height="8"/><rect id="ToolTipBG" fill="#ffffe1" stroke="black" x="0" y="0" width="30" height="8"/><text xml:space="preserve" id="ToolTipText" fill="black" x="0" y="0" width="30" height="8">tooltip</text></g></g></svg>
