<?xml version="1.0" encoding="UTF-8" standalone="no"?>
<svg xmlns="http://www.w3.org/2000/svg" xmlns:xlink="http://www.w3.org/1999/xlink" width="297.000mm" height="210.000mm" viewBox="0.000000 0.000000 297.000000 210.000000" stroke-linejoin="round" stroke-linecap="round" fill="none" fill-rule="evenodd"><desc>3DVIA Composer Export</desc><script type="text/ecmascript"><![CDATA[
if(typeof(top) != "undefined")
{
	top.ShowPaper = ShowPaper;
}
function ShowHotSpot(evt,hotspotid)
{
	var svgDocument = evt.target.ownerDocument;
	var strId = "hotspot."+hotspotid;
	var hotspot = svgDocument.getElementById(strId);
	if(hotspot)
		hotspot.setAttribute("opacity",".5");
}
function HideHotSpot(evt,hotspotid)
{
	var svgDocument = evt.target.ownerDocument;
	var strId = "hotspot."+hotspotid;
	var hotspot = svgDocument.getElementById(strId);
	if(hotspot)
		hotspot.setAttribute("opacity","0");

	var toolTip = svgDocument.getElementById('ToolTip');
	if(toolTip)
		toolTip.setAttribute("visibility","hidden");
}
function ShowToolTip(evt,hotspotid,strTooltip)
{
	if(strTooltip=="")
	return;

	// change text
	var svgDocument = evt.target.ownerDocument;
	var tiptext = svgDocument.getElementById('ToolTipText');
	if( !tiptext )
	return;
	tiptext.firstChild.nodeValue = " " + strTooltip + "  " ;

	// show tooltip before, else some refresh issue

	var toolTip = svgDocument.getElementById('ToolTip');
	if(!toolTip)
	return;

	toolTip.setAttribute("visibility","visible");
	toolTip.setAttribute("opacity",".95");

	// move tooltip
	// get viewbox

	var root = svgDocument.documentElement;
	var vbox = (root.getAttribute("viewBox")).split(' ');
	var x0 = parseFloat(vbox[0]);
	var y0 = parseFloat(vbox[1]);
	var vboxW = parseFloat(vbox[2]);
	var vboxH = parseFloat(vbox[3]);

	// get default width of svg

	var strW = root.getAttribute("width");
	var svgW = parseFloat(strW);
	if(strW.indexOf('mm') != -1)
	svgW *= 3.779;

	var strH = root.getAttribute("height");
	var svgH = parseFloat(strH);
	if(strH.indexOf('mm') != -1)
	svgH *= 3.779;  	// 96 dpi  -> 96/25.4 = 3.779

	// update the viewbox / width / height if svg is embedded in html with zoom fit all
	var realx0 = x0;
	var realy0 = y0;
	var realvboxW = vboxW;
	var realvboxH = vboxH;
	var realsvgW = svgW;
	var realsvgH = svgH;

	if ((typeof(top) == "undefined") || (typeof(top.svgctl1) != "undefined")) // embedded in html
	{
		// get window size in pxl

		svgW = window.innerWidth;
		svgH = window.innerHeight;

		// calculate real viewbox

		realsvgW = svgW;
		realsvgH = svgH;
		if((svgW / svgH) > (vboxW / vboxH))
		{
			realvboxW = (vboxH * svgW) / svgH;
			realvboxH = vboxH;
			realx0 = x0 - (realvboxW - vboxW)/2 ;
		}
		else
		{
			realvboxH = (vboxW * svgH) / svgW;
			realvboxW = vboxW;
			realy0 = y0 - (realvboxH - vboxH)/2 ;
		}
	}

	// get user zoom/pan

	var newScale = root.currentScale;
	var translation = root.currentTranslate;

	// transform pxl to user unit

	var xPos = (((evt.clientX+10- translation.x)/newScale) * realvboxW)/realsvgW  + realx0 ;
	var yPos = (((evt.clientY+5- translation.y)/newScale) * realvboxH)/ realsvgH  + realy0 ;
	var scaleForWidth = ( (1 / newScale) * realvboxH) / realsvgH;

	// move tooltip

	toolTip.setAttribute("transform", "translate(" + xPos + "," + yPos + ")" );

	// resize tooltip

	var fontsize = 12;
	tiptext.setAttribute("font-size",fontsize*scaleForWidth);
	tiptext.setAttribute("y", fontsize*scaleForWidth);
	var tipBG = svgDocument.getElementById('ToolTipBG');
	var outline = tiptext.getBBox();
	if(tipBG)
	{
		tipBG.setAttribute("stroke-width", 1*scaleForWidth);
		tipBG.setAttribute("width", Number(outline.width) );
		tipBG.setAttribute("height", Number(outline.height) + fontsize*.5*scaleForWidth );
	}
	var ToolTipShadow = svgDocument.getElementById('ToolTipShadow');
	if(ToolTipShadow)
	{
		ToolTipShadow.setAttribute("width", Number(outline.width) );
		ToolTipShadow.setAttribute("height", Number(outline.height) + fontsize*.5*scaleForWidth );
		ToolTipShadow.setAttribute("x", 3*scaleForWidth);
		ToolTipShadow.setAttribute("y", 3*scaleForWidth);
	}
}
function ShowPaper()
{
  var svgDocument = getDocument();
  var paper = svgDocument.getElementById("paperID");
  if(paper)
  {
    paper.setAttribute("transform","scale(1)");
    paper.setAttribute("opacity","1");
    paper.setAttribute("visibility","visible");
  }
  var svg = svgDocument.getRootElement();
  if(svg)
  {
    svg.setAttribute("width","307.000mm");
    svg.setAttribute("height","220.000mm");
    svg.setAttribute("viewBox","-5.000000 -5.000000 307.000000 220.000000");
  }
}
]]></script><defs/><g><path style="fill:#dcdcdc;fill-rule:evenodd" d="M192.96,82.89L193.56,83.31L192.87,83.41L190.28,88.32L190.02,89.17L191.15,89.62L190.55,89.92L190.13,89.86L189.73,89.60L189.24,90.41L188.82,90.43L186.61,89.62L185.70,91.26L184.65,91.19L183.56,90.37L184.14,90.37L184.68,90.69L185.09,90.67L187.46,86.25L188.06,86.33L188.04,84.96L187.02,84.44L185.62,84.44L184.85,84.98L186.23,85.49L185.66,85.76L184.32,88.33L183.37,88.34L180.79,87.28L179.93,87.27L178.98,87.89L176.54,90.11L174.50,93.76L173.55,97.47L173.47,100.05L187.26,105.41L194.51,108.10L194.94,103.85L196.61,99.83L198.28,97.62L200.23,95.95L200.89,95.54L201.50,95.55L205.38,98.68L206.68,99.95L205.04,102.05L203.03,106.00L202.52,108.33L202.53,111.36L200.66,112.67L199.41,112.67L184.96,106.96L175.02,112.13L180.28,116.54L181.60,117.83L181.60,118.43L181.21,119.13L180.80,119.16L170.18,114.96L169.58,114.95L132.59,134.39L132.95,134.87L133.96,137.75L133.97,139.66L131.51,144.19L128.54,150.27L126.90,151.22L124.37,151.22L111.19,146.01L110.32,146.01L92.81,155.17L91.44,155.46L91.44,154.06L94.36,152.85L108.63,145.31L108.62,145.03L106.54,144.22L105.65,145.00L104.71,145.02L101.24,143.71L88.67,150.28L88.41,140.08L86.10,139.03L79.08,133.05L79.02,132.81L79.31,132.81L83.75,134.67L84.52,134.75L85.06,133.69L85.04,132.80L82.73,131.53L80.64,131.56L79.37,131.01L79.08,130.53L77.77,129.70L77.73,129.44L78.62,129.55L78.82,127.21L83.41,118.09L88.03,109.76L89.10,109.01L89.97,109.01L90.49,109.32L91.28,109.31L94.11,110.33L93.52,110.58L92.96,111.10L95.13,111.87L94.77,112.45L95.68,112.94L96.15,112.91L96.39,112.45L96.65,111.82L96.65,111.59L97.38,111.63L98.13,110.30L105.23,116.24L104.44,117.92L102.64,117.29L102.65,118.08L105.23,120.16L106.54,121.45L107.49,121.47L140.97,103.91L140.97,103.62L111.99,92.18L104.68,86.23L104.64,85.97L105.22,85.97L153.61,104.90L173.28,112.67L174.04,112.74L174.58,111.87L173.70,111.33L182.81,106.41L182.85,106.18L181.58,105.65L179.49,105.42L176.90,104.35L176.31,104.34L168.01,108.76L167.07,108.79L157.75,105.16L157.50,104.12L156.74,103.86L156.11,104.38L155.70,104.40L147.12,100.99L147.07,100.75L162.83,92.45L164.00,91.44L162.92,94.09L162.93,95.05L168.63,97.39L172.00,98.53L172.24,97.20L181.84,78.98L181.67,78.66zM167.64,113.95L167.85,114.29L131.54,133.38L128.95,133.35L127.16,134.14L121.78,144.29L121.81,148.19L119.72,147.59L101.34,140.35L100.80,139.85L100.58,138.27L100.56,136.27L106.17,125.84L107.99,125.07L109.90,125.06L124.37,130.78L125.87,130.78L162.04,111.88zM155.10,48.47L156.49,49.76L156.40,50.83L155.61,51.62L154.91,51.62L153.40,50.55L151.94,50.53L153.78,49.50L154.66,48.57L155.08,47.66L155.20,47.70zM152.26,47.72L151.80,48.58L151.80,47.25L152.85,47.17zM165.83,56.48L164.87,56.97L164.23,58.39L164.00,58.36L163.98,56.85L164.65,56.22L165.58,56.23zM150.52,57.79L151.57,58.81L151.57,59.96L150.95,60.63L149.74,60.63L148.98,59.85L147.06,59.62L149.13,58.56L150.27,56.48zM147.12,57.65L146.83,57.66L146.89,56.58L147.34,56.21L147.92,56.21zM123.86,61.24L122.85,61.42L122.23,60.61L122.53,60.62zM126.46,61.66L126.45,63.08L125.32,62.92L123.07,66.95L122.30,66.87L121.24,66.30L121.20,66.05L122.74,66.08L124.66,62.27L124.59,61.63L125.43,62.02L125.95,60.87zM130.88,64.96L131.38,66.07L131.38,66.95L130.20,66.84L127.91,71.00L127.49,71.03L125.91,70.17L125.85,69.93L126.72,70.24L127.39,70.23L129.51,66.02L129.51,65.78L130.34,65.93L130.59,64.75zM128.26,65.05L128.21,65.29L127.46,65.34L127.12,65.08L127.12,64.78zM161.13,65.57L160.02,66.09L159.32,67.45L159.07,67.41L159.04,66.14L159.82,65.36L160.62,65.27zM158.37,69.62L157.45,69.45L157.17,69.15L157.76,69.14zM180.77,69.25L181.47,68.39L182.91,68.43L182.89,68.71L181.76,69.19L181.32,70.55L180.79,70.21zM163.03,71.43L162.13,71.28L161.73,70.89L162.44,70.97zM214.42,72.89L214.43,71.85L214.88,71.48L215.46,71.48zM167.68,73.24L166.79,73.09L166.39,72.70L167.10,72.78zM217.98,73.14L219.11,74.08L219.11,75.23L218.48,75.90L217.29,75.89L216.26,75.12L214.33,74.88L215.91,74.36L217.03,73.41L217.81,71.75zM173.64,75.57L172.74,75.42L172.34,75.03L173.05,75.11zM173.60,76.15L173.58,76.77L172.49,78.07L171.74,77.99L171.47,77.71L171.45,76.76L172.15,75.89L173.32,75.88zM177.70,76.94L178.29,77.38L177.10,77.19L175.88,79.62L174.75,81.08L172.76,81.09L170.97,80.29L170.11,80.30L169.16,81.98L168.92,79.76L167.49,79.06L167.49,78.76L167.83,78.71L172.50,80.58L173.74,80.58L174.59,79.88L176.30,76.64zM206.44,77.83L205.51,78.45L204.86,79.87L204.59,79.59L204.58,78.30L205.02,77.71L206.19,77.43zM232.56,80.51L232.56,81.96L225.73,94.79L224.70,95.35L224.01,95.35L223.21,95.08L222.80,94.70L224.18,94.83L225.21,94.27L232.04,81.44L232.31,80.26zM228.44,80.79L227.24,81.55L226.83,82.76L226.55,82.75L226.31,81.68L227.28,80.54L228.20,80.55zM210.84,80.79L210.20,81.06L209.74,81.98L209.45,81.98L209.52,80.91L210.21,80.53L210.60,80.54zM213.06,82.19L214.19,83.14L214.20,84.56L213.59,84.98L212.37,84.96L211.34,84.17L209.41,83.93L210.75,83.69L212.37,82.21L212.88,80.54zM194.85,83.85L193.96,83.70L193.56,83.31L194.27,83.39zM199.51,85.66L198.62,85.51L198.22,85.13L198.93,85.20zM167.40,85.35L166.82,86.36L166.78,85.83L167.26,85.20zM238.26,87.12L238.17,86.79L238.47,86.74zM204.17,87.47L203.28,87.32L202.88,86.94L203.59,87.01zM237.54,88.21L237.22,88.70L237.22,88.14L237.50,88.07zM257.94,95.54L258.96,96.85L258.96,99.30L258.66,99.79L258.66,100.73L250.94,115.60L250.05,116.26L249.36,118.16L249.39,128.50L249.64,128.47L249.64,129.84L248.62,130.88L158.28,178.22L158.29,166.47L158.00,165.72L157.25,165.44L156.11,165.43L155.62,165.71L154.38,165.72L149.23,163.63L147.95,162.84L142.76,158.45L131.38,153.78L130.33,152.49L130.24,151.72L130.57,151.68L141.73,156.14L141.69,157.15L146.64,159.00L147.33,159.01L148.69,158.25L148.95,157.67L145.09,155.86L144.05,155.60L140.42,152.49L139.64,152.53L138.63,151.97L138.03,150.65L139.14,150.73L139.65,151.47L147.16,154.33L147.12,156.16L147.93,156.69L148.46,156.74L148.44,155.17L149.24,152.87L157.39,137.72L158.19,136.71L159.34,135.94L160.36,136.49L160.79,136.49L161.12,135.14L168.38,141.11L168.90,141.88L168.86,145.80L173.80,149.94L174.77,149.94L183.15,145.63L232.70,119.62L234.10,117.91L238.50,109.63L238.76,108.86L238.76,106.96L237.89,106.43L243.59,95.83L245.94,91.42L246.94,91.45L248.36,89.47L249.01,89.09L250.16,89.09zM210.12,89.80L209.23,89.65L208.83,89.27L209.54,89.34zM193.75,89.87L193.77,91.51L192.62,91.43L190.53,95.33L189.85,95.34L188.27,94.50L188.22,94.26L189.86,94.87L192.35,90.39L192.95,90.22L193.22,89.33zM223.51,90.00L222.47,90.75L221.94,91.77L221.70,91.74L221.66,90.46L222.10,89.87L223.02,89.63zM165.07,89.75L164.49,90.76L164.45,90.23L164.93,89.60zM240.89,91.39L241.10,92.01L240.59,92.31L239.96,93.25L239.01,93.26L238.99,91.75L239.70,91.15L240.58,91.15zM214.78,91.62L213.89,91.46L213.49,91.08L214.20,91.15zM220.73,93.94L219.84,93.79L219.44,93.41L220.15,93.48zM235.97,100.44L236.21,101.09L235.12,102.39L234.28,102.39L234.06,102.07L234.08,101.08L234.78,100.21L235.66,100.21zM237.21,105.94L236.42,105.94L232.50,104.38L232.21,104.08L232.78,104.09zM222.47,119.15L223.00,119.12L222.73,118.88L222.31,118.38L228.41,120.67L225.19,122.49L224.53,122.51L207.98,116.00L203.03,111.83L202.97,111.59zM135.81,127.33L135.73,126.72L136.81,126.62L136.80,127.51zM139.42,128.00L138.55,128.71L136.94,128.77L136.94,128.19L138.55,127.94L139.42,127.41zM148.98,134.14L148.07,134.19L148.07,133.88L148.43,133.83zM156.47,134.66L155.47,135.19L154.32,134.10L154.90,134.11zM156.75,135.96L156.66,136.47L156.23,136.47L155.62,135.65L156.20,135.65zM146.86,136.05L146.54,136.05L146.63,135.50L147.14,135.38zM90.11,150.65L90.36,150.41L91.27,150.42L91.26,151.32L90.48,151.21zM93.89,152.07L93.00,152.52L91.66,152.58L91.66,152.00L93.89,151.49zM152.74,175.04L153.28,174.72L153.88,174.74L153.89,175.63L152.81,175.52zM156.51,176.39L155.89,176.85L154.04,177.18L154.04,176.59L156.51,175.81zM156.47,178.72L156.15,178.92L153.80,179.78L153.80,178.38L156.15,177.30L156.47,177.32zM110.17,88.64L110.20,88.90L108.83,88.29L108.77,88.05zM115.06,92.75L114.28,92.75L113.41,92.16L113.78,91.94zM250.70,93.21L250.70,93.86L249.87,94.37L249.86,93.86L250.28,92.95zM247.53,93.59L248.24,91.69L249.01,90.90L250.15,90.90L250.13,92.28L249.38,93.34L247.99,94.31L247.54,94.29zM257.42,97.09L257.41,98.27L257.16,98.54L256.59,99.52L255.74,100.23L254.78,100.24L255.04,98.48L256.00,97.11L256.53,96.84L257.15,96.82zM132.17,98.42L131.64,98.45L130.56,97.87L130.51,97.62L131.10,97.62zM258.02,99.37L257.70,100.12L257.04,100.33L257.33,99.18L257.91,99.18zM250.90,100.51L251.45,101.25L253.24,102.04L252.47,103.16L251.97,104.71L247.46,102.89L247.73,101.53L248.50,100.46L249.85,100.48L249.84,100.21zM244.86,99.97L245.23,99.55L245.39,98.68L246.53,98.67L246.54,100.08L245.91,100.75L245.16,100.85zM249.88,104.64L249.30,105.17L247.78,105.14L247.80,104.74L248.51,104.34zM253.01,105.95L252.94,106.43L251.86,106.54L251.87,105.65L252.47,105.62zM155.98,107.74L155.45,107.76L154.39,107.19L154.39,106.69zM95.39,113.43L99.26,114.71L98.88,115.48L98.68,116.28L97.99,116.34L97.75,118.45L97.46,118.96L96.94,118.92L96.61,118.68L96.45,116.79L90.46,128.02L90.46,128.53L91.43,128.17L92.33,128.15L92.58,128.55L91.18,129.21L91.53,129.87L91.01,130.00L90.22,131.63L89.37,131.64L89.18,130.75L88.95,131.61L80.13,128.18L80.12,126.44L88.16,111.46L88.58,111.08L89.45,111.09zM172.79,113.17L172.27,113.20L171.71,112.92L171.34,112.42zM177.43,117.08L176.64,117.08L176.10,116.76L176.06,116.51L176.63,116.51zM101.39,116.39L101.11,116.67L101.02,115.72L101.35,115.72zM100.09,116.76L100.07,117.93L99.70,118.36L99.04,118.36L98.75,118.07L98.74,117.40L99.21,116.52L99.81,116.48zM92.86,130.49L92.79,131.53L92.51,131.82L91.50,131.81L91.49,131.11L91.93,130.20L92.57,130.20zM227.42,131.53L227.39,132.14L226.78,133.35L225.73,133.46L225.80,131.87L226.23,131.25L227.14,131.25zM83.52,135.17L82.99,135.20L82.43,134.86L82.38,134.63L82.68,134.61zM89.39,136.68L89.69,136.73L89.74,137.03L89.45,136.98zM88.43,139.31L87.90,139.34L87.35,139.00L87.30,138.77L87.60,138.76zM160.13,140.57L160.13,141.20L159.88,141.52L159.23,141.74L159.59,140.40L159.86,140.31zM159.59,139.67L158.03,141.46L157.16,141.74L157.23,139.90L158.28,138.36L159.58,138.26zM162.45,142.90L162.43,144.06L162.08,144.74L161.04,144.82L160.79,144.20L161.57,142.66L162.17,142.62zM159.32,147.84L162.92,149.38L161.11,153.12L160.34,153.04L156.47,151.47L156.46,149.98L157.52,147.95L158.30,147.60zM158.33,152.74L156.93,152.77L156.64,152.49L158.08,152.49zM152.88,154.28L152.88,154.92L152.49,155.37L152.06,155.37L152.24,154.28L152.62,154.02zM181.86,155.33L181.85,156.22L181.22,157.17L180.27,157.18L180.26,155.67L180.93,154.83zM155.73,155.85L155.71,156.74L155.09,157.68L154.13,157.69L154.16,156.75L154.41,156.48L154.66,155.41L154.93,155.34zM152.34,153.38L150.78,155.18L149.92,155.46L149.99,153.61L151.04,152.08L152.34,151.97zM146.40,159.75L145.87,159.78L145.32,159.50L144.95,159.00zM151.32,163.89L150.79,163.92L149.71,163.34L149.66,163.09L150.24,163.09z"/><g id="Actor_.0"><g style="stroke:#000000;stroke-width:0.353"><path d="M92.82,128.16L92.32,128.55L91.80,128.82L91.01,129.10L90.87,129.95L90.63,130.71L90.11,131.71L89.14,131.33"/><path d="M90.11,131.71L90.77,132.68L91.01,133.37"/><path d="M90.88,131.39L90.88,131.43L90.91,132.02L91.09,132.48L91.39,132.77L91.78,132.85L92.22,132.72L92.66,132.39L93.05,131.90L93.35,131.30L93.53,130.65L93.57,130.02L93.46,129.49L93.21,129.11L92.86,128.92L92.44,128.95L92.00,129.18L91.58,129.60L91.23,130.15L90.98,130.79L90.88,131.39"/><path d="M91.01,129.10L90.04,128.72"/><path d="M91.74,131.84L91.95,131.85L92.18,131.76L92.25,131.70L92.40,131.57L92.59,131.29L92.73,130.97L92.81,130.64L92.81,130.32L92.73,130.06L92.59,129.89"/><path d="M92.25,132.02L92.01,132.12L91.75,132.10L91.55,131.95L91.41,131.68L91.37,131.33L91.41,130.92L91.55,130.52L91.69,130.27L91.75,130.15L92.01,129.86L92.29,129.68L92.56,129.64L92.80,129.72L92.97,129.93L93.06,130.25L93.06,130.63L92.97,131.04L92.80,131.43L92.56,131.77L92.29,132.00L92.25,132.02"/></g><g style="stroke:#000000;stroke-width:0.705"><path d="M89.69,132.51L89.63,132.43L89.35,131.94L89.14,131.33L89.47,129.84L90.04,128.72L90.78,128.19L91.85,127.78L92.82,128.16L93.23,128.72L93.51,129.21L93.72,129.82L93.39,131.31L92.82,132.42L92.08,132.96L91.01,133.37L90.04,132.99L89.69,132.51"/><path d="M91.74,131.84L91.57,131.72L91.46,131.50L91.42,131.21L91.46,130.88L91.57,130.54L91.74,130.24L91.95,130.01L92.18,129.86L92.40,129.82L92.59,129.89"/></g></g><g id="Actor_.1"><g style="stroke:#000000;stroke-width:0.353"><path d="M104.51,85.72L104.63,85.68L104.87,85.73L105.24,85.86L172.39,112.05L173.00,110.91"/><path d="M105.24,85.86L105.85,84.72"/><path d="M107.96,87.51L108.04,87.63L108.25,87.80L108.55,88.01L108.92,88.22L109.31,88.43L109.69,88.60L110.01,88.71L110.23,88.77L110.34,88.74"/><path d="M115.16,92.80L115.06,92.82L114.83,92.77L114.51,92.66L114.14,92.49L113.74,92.28L113.38,92.07L113.07,91.86L112.87,91.69L112.78,91.57"/><path d="M132.21,98.37L132.10,98.39L131.87,98.34L131.54,98.22L131.15,98.04L130.75,97.83L130.37,97.61L130.05,97.40L129.84,97.22L129.75,97.09"/><path d="M155.91,107.61L155.80,107.64L155.57,107.58L155.24,107.46L154.85,107.29L154.45,107.08L154.07,106.85L153.75,106.64L153.54,106.46L153.45,106.34"/><path d="M170.50,111.90L170.59,112.02L170.79,112.20L171.10,112.40L171.46,112.62L171.86,112.82L172.23,112.99L172.55,113.11L172.78,113.16L172.88,113.14"/><path d="M181.55,117.51L180.94,118.65L174.51,113.24L174.20,113.00L173.79,112.74L173.32,112.48L172.84,112.24L172.39,112.05"/><path d="M177.71,117.20L177.60,117.22L177.37,117.17L177.05,117.05L176.63,116.85L176.29,116.68L175.92,116.46L175.61,116.26L175.41,116.08L175.32,115.96"/><path d="M174.51,113.24L175.12,112.10"/><path d="M180.94,118.65L181.13,118.83L181.16,118.95"/></g><g style="stroke:#000000;stroke-width:0.705"><path d="M104.63,85.50L104.51,85.72L104.55,85.84L104.73,86.02L111.16,91.43L111.47,91.67L111.88,91.93L112.35,92.19L112.83,92.43L113.28,92.62L180.43,118.81L180.80,118.94L181.05,118.99L181.16,118.95L181.77,117.81L181.73,117.70L181.55,117.51L175.12,112.10L174.80,111.87L174.38,111.60L173.92,111.34L173.44,111.10L173.00,110.91L105.85,84.72L105.48,84.59L105.22,84.55L105.11,84.58L104.63,85.50"/><path d="M110.34,88.74L110.32,88.66L110.17,88.51L109.92,88.31L109.58,88.10L109.19,87.89L108.80,87.70L108.45,87.55L108.17,87.47L108.00,87.46L107.96,87.51"/><path d="M115.16,92.80L115.14,92.71L115.00,92.57L114.74,92.37L114.40,92.16L114.01,91.95L113.63,91.76L113.27,91.61L113.00,91.53L112.83,91.51L112.78,91.57"/><path d="M129.75,97.09L129.80,97.04L129.97,97.05L130.26,97.14L130.62,97.29L131.02,97.48L131.42,97.70L131.77,97.93L132.04,98.12L132.19,98.28L132.21,98.37"/><path d="M153.45,106.34L153.50,106.28L153.67,106.30L153.96,106.38L154.32,106.53L154.72,106.73L155.12,106.95L155.47,107.17L155.74,107.37L155.89,107.52L155.91,107.61"/><path d="M172.88,113.14L172.86,113.05L172.72,112.90L172.46,112.71L172.13,112.50L171.73,112.28L171.34,112.09L170.99,111.95L170.72,111.86L170.55,111.85L170.50,111.90"/><path d="M175.32,115.96L175.37,115.91L175.54,115.92L175.81,116.01L176.17,116.15L176.56,116.34L176.94,116.55L177.28,116.77L177.54,116.96L177.69,117.11L177.71,117.20"/></g></g><g id="Actor_.2"><g style="stroke:#000000;stroke-width:0.353"><path d="M247.25,102.71L251.93,104.54L252.08,103.76L252.39,103.00L252.82,102.35L253.34,101.89"/><path d="M251.93,104.54L253.64,105.98"/></g><g style="stroke:#000000;stroke-width:0.705"><path d="M248.60,100.04L253.34,101.89L255.05,103.32L254.90,104.10L254.60,104.86L254.16,105.51L253.64,105.98L247.98,103.77L247.20,103.12"/></g></g><g id="Actor_.3"><g style="stroke:#000000;stroke-width:0.353"><path d="M228.10,120.69L222.34,118.44"/><path d="M230.50,119.43L222.34,116.25"/><path d="M245.68,90.56L237.82,87.49"/><path d="M243.90,112.50L243.67,112.30"/><path d="M245.06,109.23L244.75,109.27"/></g><g style="stroke:#000000;stroke-width:0.705"><path d="M226.20,121.69L222.34,118.44L222.13,118.16L222.02,117.75L222.02,117.27L222.13,116.75L222.34,116.25L236.74,89.04"/><path d="M246.44,89.36L239.08,86.49"/><path d="M245.03,109.22L245.37,109.37L245.59,109.67L245.69,110.11L245.68,110.62L245.54,111.17L245.30,111.69L244.98,112.12L244.61,112.41L244.24,112.55L243.90,112.50L243.84,112.47"/></g></g><g id="Actor_.4"><g style="stroke:#000000;stroke-width:0.353"><path d="M202.28,111.08L223.35,119.29L226.20,121.69"/></g><g style="stroke:#000000;stroke-width:0.705"><path d="M224.83,122.40L207.89,115.80L202.28,111.08L202.37,108.53L202.99,105.85L204.08,103.27L205.56,101.00L207.00,99.54L207.28,99.26L209.11,98.17L228.01,105.54"/></g></g><g id="Actor_.5"><g style="stroke:#000000;stroke-width:0.353"><path d="M147.08,154.46L139.69,151.58"/><path d="M139.66,149.37L147.73,152.52"/><path d="M155.37,138.10L147.30,134.95"/><path d="M156.79,165.14L156.44,165.01"/><path d="M162.15,155.36L161.91,155.10L161.77,154.70L161.76,154.19L161.82,153.85"/><path d="M163.47,152.16L163.39,152.16"/></g><g style="stroke:#000000;stroke-width:0.705"><path d="M144.34,155.56L140.34,152.20"/><path d="M146.51,136.14L140.25,147.96"/><path d="M156.08,136.89L148.59,133.97"/><path d="M156.42,165.02L156.80,165.17"/><path d="M161.97,155.30L162.15,155.36L162.47,155.46L162.84,155.37L163.21,155.11L163.54,154.71L163.81,154.21L163.97,153.67L164.02,153.14L163.94,152.68L163.75,152.34L163.47,152.16L163.40,152.13"/></g></g><g id="Actor_.6"><g style="stroke:#000000;stroke-width:0.353"><path d="M138.18,151.02L129.52,147.65"/><path d="M135.13,137.05L144.16,140.57"/></g><g style="stroke:#000000;stroke-width:0.705"><path d="M145.17,138.68L138.69,136.16L136.97,136.22L135.13,137.05L129.52,147.65L129.61,150.10L130.23,152.13L131.32,153.57L132.80,154.29L142.54,158.09"/></g></g><g id="Actor_.7"><g style="stroke:#000000;stroke-width:0.353"><path d="M123.05,66.82L123.00,66.72L122.84,66.57L122.57,66.38L122.23,66.17L121.85,65.96L121.47,65.79L121.15,65.66L120.90,65.59L120.76,65.59"/><path d="M126.49,62.75L126.34,62.54L126.31,62.51L125.95,62.22L125.90,62.18L125.38,61.83L125.31,61.79L124.68,61.42L124.58,61.37L123.92,61.03L123.84,61.00L123.22,60.73L123.16,60.70L122.65,60.53L122.60,60.51L122.26,60.45L122.24,60.45L122.12,60.49"/><path d="M125.46,62.27L125.41,62.17L125.25,62.01L124.98,61.82L124.64,61.61L124.26,61.41L123.89,61.23L123.56,61.10L123.31,61.04L123.17,61.04"/></g><g style="stroke:#000000;stroke-width:0.705"><path d="M125.46,62.27L123.05,66.82L122.97,66.86L122.77,66.82L122.63,66.77L122.48,66.72L122.12,66.57L121.74,66.37L121.38,66.16L121.07,65.96L120.85,65.79L120.74,65.66L120.76,65.59L123.17,61.04"/><path d="M123.00,61.35L122.70,61.15L122.65,61.11L122.29,60.81L122.27,60.79L122.11,60.58L122.12,60.49L122.75,60.02L123.54,59.75L123.77,59.71L123.98,59.75L124.30,59.85L124.70,60.03L125.13,60.24L125.40,60.39L125.77,60.63L126.05,60.84L126.21,61.00L126.33,61.26L126.54,62.06L126.49,62.75L126.48,62.84L126.36,62.87L126.33,62.87L125.99,62.81L125.94,62.80L125.42,62.62L125.36,62.59L125.30,62.57"/></g></g><g id="Actor_.8"><g style="stroke:#000000;stroke-width:0.353"><path d="M141.33,156.96L141.45,156.93L141.70,156.98L142.07,157.10L142.87,155.58"/><path d="M154.38,165.53L146.35,158.77L142.07,157.10"/><path d="M144.19,158.47L144.17,158.54L144.29,158.67L144.51,158.85L145.19,159.26L145.92,159.60L146.21,159.70L146.40,159.73L146.48,159.70"/><path d="M146.35,158.77L146.91,158.88L147.51,158.78L148.09,158.51L148.61,158.07L149.00,157.51L157.57,164.73L156.90,164.47"/><path d="M147.68,152.61L149.00,153.13L148.58,154.13L148.36,155.17L148.36,156.14L148.58,156.95L149.00,157.51L147.68,157.00"/><path d="M149.47,178.20L149.47,176.65L149.12,176.46L148.92,176.24L148.88,175.99"/><path d="M149.47,176.65L152.44,177.81L152.44,179.36"/><path d="M151.30,163.75L151.22,163.79L151.03,163.76L150.75,163.66L150.01,163.32L149.33,162.91L149.11,162.73L149.00,162.60L149.01,162.53"/><path d="M149.00,153.13L157.03,137.95L155.72,137.43"/><path d="M151.37,175.94L151.61,176.31L152.10,176.63L152.79,176.86L153.61,176.97L154.47,176.96L155.27,176.82L155.94,176.58L156.38,176.24L156.57,175.87"/><path d="M156.57,175.09L156.38,175.47L155.94,175.80L155.27,176.05L154.47,176.19L153.61,176.20L152.79,176.08L152.10,175.86L151.61,175.54L151.37,175.17"/><path d="M152.44,177.81L152.90,177.94L153.43,178.00L153.97,177.98L154.47,177.88L154.89,177.73L154.89,179.28"/><path d="M152.66,175.10L152.69,174.90L152.85,174.72L153.00,174.64L153.13,174.58L153.50,174.48L153.92,174.44L154.34,174.47L154.73,174.55L155.03,174.69L155.21,174.87L155.26,175.06"/><path d="M154.89,177.73L156.91,176.67"/><path d="M155.44,155.15L155.62,155.38L155.72,155.71L155.72,156.12L155.62,156.56L155.44,156.98L155.19,157.33L154.90,157.58L154.60,157.70L154.33,157.68"/><path d="M155.73,132.39L154.93,133.91L154.56,133.79L154.31,133.74L154.19,133.77"/><path d="M154.93,133.91L159.21,135.58L159.33,135.69"/><path d="M155.47,135.46L155.61,135.39L156.00,135.46L156.57,135.65L157.06,135.86"/><path d="M158.26,135.49L157.68,135.20L156.97,134.89L156.40,134.70L156.01,134.63L155.87,134.71"/><path d="M156.59,178.38L156.59,176.83L156.70,176.85L156.79,176.83"/><path d="M249.16,129.49L158.24,177.09L158.24,166.58L156.92,166.07"/><path d="M157.15,152.78L157.75,152.82L158.43,152.53"/><path d="M157.03,137.95L157.61,137.08L158.29,136.42L159.00,136.05L159.67,135.99"/><path d="M156.62,136.07L156.69,136.18"/><path d="M158.24,177.09L158.16,177.65L157.93,178.10L157.56,178.39"/><path d="M158.24,166.58L158.16,165.82L157.94,165.19L157.57,164.73"/><path d="M158.36,135.48L158.39,135.50"/><path d="M159.59,147.23L159.99,147.73L160.10,148.10"/><path d="M159.21,135.58L159.30,135.64"/><path d="M168.69,143.37L160.65,136.60L160.88,135.98L160.93,135.36L160.78,134.80L160.47,134.35"/><path d="M162.27,142.25L162.45,142.47L162.55,142.81L162.55,143.22L162.45,143.65L162.27,144.07L162.02,144.43L161.73,144.68L161.43,144.80L161.16,144.78"/><path d="M162.14,155.42L162.41,155.44"/><path d="M163.57,152.17L163.65,152.28"/><path d="M173.89,149.75L174.58,149.78L175.31,149.53L174.00,149.02"/><path d="M175.31,149.53L232.09,119.81L230.77,119.29"/><path d="M180.47,157.18L180.75,157.20L181.04,157.08L181.34,156.82L181.59,156.47L181.77,156.05L181.87,155.61L181.87,155.20L181.77,154.87L181.59,154.64"/><path d="M225.93,133.38L226.21,133.40L226.51,133.28L226.80,133.02L227.05,132.67L227.23,132.25L227.33,131.81L227.33,131.40L227.23,131.07L227.05,130.84"/><path d="M231.42,103.32L231.79,103.55L232.59,104.23"/><path d="M232.09,119.81L232.83,119.29L233.51,118.54L234.10,117.62L232.78,117.10"/><path d="M231.79,103.55L236.06,105.22L236.62,105.46L237.22,105.76L237.81,106.09L238.32,106.41L238.72,106.71L237.40,106.19"/><path d="M235.80,100.10L235.47,99.97L235.10,99.97L234.72,100.10L234.38,100.35L234.10,100.68L234.00,100.91L233.93,101.07L233.88,101.46L233.96,101.82L234.15,102.11"/><path d="M234.10,117.62L238.38,109.53L237.07,109.02"/><path d="M236.06,105.22L244.10,90.04"/><path d="M238.38,109.53L238.56,109.11L238.68,108.68L238.72,108.26L237.40,107.74"/><path d="M238.72,108.26L238.72,106.71L247.15,90.77L245.84,90.26"/><path d="M238.97,93.00L238.78,92.71L238.70,92.35L238.75,91.96L238.93,91.57L239.20,91.24L239.54,90.99L239.92,90.86L240.29,90.86L240.62,90.99"/><path d="M243.98,112.58L244.34,112.60L244.72,112.44L245.09,112.12L245.41,111.67L245.65,111.13L245.77,110.57L245.77,110.05L245.65,109.62L245.41,109.33"/><path d="M245.25,100.76L245.52,100.78L245.82,100.66L246.11,100.40L246.36,100.05L246.55,99.63L246.64,99.19L246.64,98.79L246.55,98.45L246.36,98.22"/><path d="M247.15,90.77L247.73,89.90L248.40,89.24L249.12,88.87L249.79,88.82"/><path d="M248.07,105.18L248.67,105.22L249.33,104.95L249.85,104.50"/><path d="M249.22,129.89L249.22,128.34L249.16,128.37"/><path d="M249.22,128.34L249.51,128.13L249.64,127.89"/><path d="M250.64,115.79L250.60,115.65L250.37,115.42L258.40,100.24"/><path d="M251.12,101.02L251.12,100.86L250.91,100.13L250.51,99.63"/><path d="M253.19,105.80L252.94,106.15L252.65,106.41L252.36,106.53L252.08,106.51"/></g><g style="stroke:#000000;stroke-width:0.705"><path d="M157.03,164.28L156.64,164.83L156.13,165.27L155.54,165.55L154.94,165.64L154.38,165.53L149.66,163.67L148.71,163.17L148.30,162.91L147.98,162.68L141.56,157.26L141.37,157.08L141.33,156.96L142.14,155.45L142.25,155.41L142.50,155.46L142.88,155.58L144.01,156.03L144.26,155.56L144.53,155.56L145.01,155.69L145.66,155.94L146.41,156.29L147.16,156.70L147.68,157.01L147.26,156.43L147.04,155.63L147.04,154.65L147.26,153.62L147.68,152.61L155.72,137.43L156.29,136.56L156.97,135.91L157.68,135.53L158.36,135.48L159.67,135.99L160.25,136.26L160.65,136.60"/><path d="M144.19,158.47L144.32,158.47L144.56,158.53L145.26,158.83L145.98,159.24L146.26,159.44L146.43,159.59L146.48,159.70"/><path d="M147.68,157.01L147.60,157.11L147.50,157.20L147.38,157.26L147.27,157.27L147.15,157.25L144.01,156.03"/><path d="M250.37,115.42L249.83,116.44L249.47,117.27L249.24,118.14L249.16,118.98L249.16,129.49L249.08,130.06L248.85,130.51L248.48,130.79L157.56,178.39L157.10,178.49L156.59,178.38L154.89,179.28L154.47,179.44L153.97,179.53L153.43,179.55L152.90,179.49L152.44,179.36L149.47,178.20L149.12,178.02L148.92,177.79L148.88,177.54L148.88,175.99L149.01,175.75L149.29,175.54L156.92,171.55"/><path d="M149.01,162.53L149.14,162.52L149.39,162.59L150.08,162.89L150.46,163.09L151.08,163.50L151.25,163.65L151.30,163.75"/><path d="M151.37,175.94L151.37,175.17L151.41,174.78L151.73,174.42L152.29,174.12L153.03,173.93L153.88,173.85L154.73,173.90L155.50,174.08L156.10,174.35L156.47,174.70L156.57,175.09L156.57,175.87"/><path d="M152.66,175.10L152.78,175.28L153.03,175.44L153.38,175.56L153.79,175.61L154.22,175.61L154.62,175.54L154.95,175.42L155.17,175.25L155.26,175.06"/><path d="M154.33,157.68L154.11,157.52L153.96,157.22L153.91,156.86L153.96,156.43L154.11,156.00L154.33,155.60L154.60,155.30L154.90,155.11L155.19,155.06L155.44,155.15"/><path d="M155.65,135.12L154.41,134.07L154.23,133.89L154.19,133.77L155.00,132.26L155.11,132.22L155.36,132.27L155.73,132.39L160.01,134.06L160.47,134.35L168.50,141.12L168.82,141.57L168.96,142.13L168.92,142.75L168.69,143.37L168.69,144.92L168.73,145.30L168.84,145.61L169.02,145.84L173.30,149.45L173.89,149.75"/><path d="M157.15,152.78L156.67,152.42L156.36,151.80L156.25,150.97L156.36,150.04L156.67,149.09L157.15,148.24L157.50,147.84L157.75,147.56L158.40,147.14L159.04,147.03L159.59,147.23"/><path d="M155.87,134.71L155.47,135.46L155.57,135.67L155.91,135.98L156.48,136.38"/><path d="M156.66,164.80L156.84,165.30L156.92,166.07L156.92,176.57L156.91,176.69L156.86,176.78L156.79,176.83"/><path d="M156.62,136.07L156.70,136.03L156.82,136.05"/><path d="M159.39,135.88L159.36,135.73L159.30,135.64"/><path d="M162.27,142.25L162.02,142.15L161.73,142.21L161.43,142.40L161.16,142.70L160.94,143.10L160.79,143.53L160.75,143.96L160.79,144.34L160.94,144.62L161.16,144.78"/><path d="M162.14,155.42L161.86,155.21L161.68,154.85L161.62,154.36L161.68,153.80"/><path d="M163.57,152.17L163.42,152.12"/><path d="M173.08,149.26L173.26,149.27L174.00,149.02L230.77,119.29L231.51,118.77L232.19,118.03L232.78,117.10L237.07,109.02L237.25,108.60L237.36,108.17L237.40,107.74L237.40,106.19L237.22,106.07L236.87,105.89L232.59,104.23L232.22,103.99L231.42,103.32L231.16,102.96L231.05,102.51L231.09,102.01L231.27,101.52L237.70,89.38L238.01,88.93L238.43,88.58L238.90,88.36L239.38,88.29L239.82,88.37L244.10,90.04L244.66,90.28L245.26,90.58L245.85,90.91L246.38,91.25L246.75,91.53"/><path d="M180.07,156.23L180.27,155.96L180.45,155.54L180.55,155.10L180.55,155.01"/><path d="M181.59,154.64L181.34,154.55L181.04,154.60L180.75,154.79L180.47,155.10L180.25,155.49L180.11,155.92L180.06,156.35L180.11,156.73L180.25,157.02L180.47,157.18"/><path d="M225.93,133.38L225.71,133.22L225.57,132.93L225.52,132.55L225.57,132.12L225.71,131.69L225.93,131.30L226.21,130.99L226.51,130.80L226.80,130.75L227.05,130.84"/><path d="M226.01,131.21L226.01,131.30L225.91,131.74L225.73,132.16L225.54,132.43"/><path d="M236.18,101.03L235.92,101.12L235.58,101.36L235.31,101.69L235.14,102.08L235.11,102.30"/><path d="M234.15,102.11L234.44,102.29L234.79,102.36L235.17,102.29L235.53,102.10L235.85,101.81L236.07,101.45L236.19,101.05L236.17,100.67L236.04,100.34L235.80,100.10"/><path d="M240.62,90.99L240.86,91.23L241.00,91.56L241.01,91.94L240.89,92.34L240.67,92.70L240.36,92.99L239.99,93.18L239.63,93.25L239.26,93.19L238.97,93.00"/><path d="M241.01,91.92L240.75,92.01L240.40,92.25L240.13,92.59L239.96,92.97L239.93,93.19"/><path d="M243.98,112.58L243.70,112.37L243.52,112.00L243.46,111.52L243.50,111.18L243.52,110.97L243.70,110.42L243.98,109.91L244.34,109.52L244.72,109.27L245.09,109.21L245.41,109.33"/><path d="M245.25,100.76L245.03,100.60L244.89,100.31L244.84,99.95L244.89,99.51L245.03,99.07L245.25,98.68L245.52,98.37L245.82,98.18L246.11,98.13L246.36,98.22"/><path d="M244.85,99.81L245.05,99.54L245.23,99.12L245.33,98.68L245.33,98.59"/><path d="M250.19,115.78L250.50,115.84L250.64,115.79L258.68,100.61L258.63,100.47L258.40,100.24L258.82,99.23L259.04,98.20L259.04,97.23L258.82,96.42L258.40,95.85L250.37,89.09L249.79,88.82L248.48,88.30L247.80,88.36L247.09,88.73L246.41,89.38L245.84,90.26L245.57,90.75"/><path d="M248.53,103.99L248.01,104.44L247.51,104.65L247.28,104.20L247.17,103.38L247.28,102.44L247.59,101.49L248.07,100.63L248.67,99.96L249.33,99.54L249.96,99.43L250.51,99.63"/><path d="M247.51,104.65L247.59,104.82L248.07,105.18"/><path d="M249.16,127.30L249.39,127.42L249.60,127.65L249.64,127.89L249.64,129.45L249.51,129.68L249.22,129.89L249.10,129.96"/><path d="M249.51,99.51L249.60,99.61L249.81,100.35L249.81,100.51"/><path d="M251.88,105.29L251.68,105.56L251.67,105.69L251.72,106.06L251.86,106.35L252.08,106.51"/><path d="M251.68,105.56L251.73,105.23"/></g></g><g id="Actor_.9"><g style="stroke:#000000;stroke-width:0.353"><path d="M161.98,153.91L161.54,153.72L161.24,153.28L161.09,152.65L156.27,150.77"/><path d="M161.09,152.65L162.80,149.43L157.84,147.50"/><path d="M162.80,149.43L163.31,149.36"/></g><g style="stroke:#000000;stroke-width:0.705"><path d="M158.11,147.33L163.31,149.36L163.75,149.55L164.06,149.99L164.20,150.62L162.50,153.84L161.98,153.91L156.35,151.72"/></g></g><g id="Actor_.10"><g style="stroke:#000000;stroke-width:0.353"><path d="M170.78,101.78L180.00,105.37L172.36,98.95L163.14,95.35"/><path d="M163.14,93.16L172.36,96.75L172.15,97.26L172.04,97.78L172.04,98.26L172.15,98.66L172.36,98.95"/><path d="M172.36,96.75L181.90,78.74"/><path d="M180.00,105.37L180.28,105.51"/></g><g style="stroke:#000000;stroke-width:0.705"><path d="M170.17,79.88L163.14,93.16L162.94,93.66L162.83,94.18L162.83,94.67L162.94,95.07L163.14,95.35L170.78,101.78L171.07,101.91L180.28,105.51L180.62,105.48L180.97,105.30"/><path d="M189.68,89.28L189.10,90.37"/><path d="M192.97,83.06L190.08,88.52"/></g></g><g id="Actor_.11"><g style="stroke:#000000;stroke-width:0.353"><path d="M106.06,125.71L127.13,133.93L121.52,144.53L100.45,136.31"/><path d="M124.79,151.17L123.32,150.45L122.23,149.01L121.61,146.98L121.52,144.53"/><path d="M127.13,133.93L128.96,133.09L130.69,133.03"/></g><g style="stroke:#000000;stroke-width:0.705"><path d="M133.95,139.29L133.87,137.23L133.25,135.19L132.16,133.75L130.69,133.03L109.62,124.82L107.89,124.88L106.06,125.71L100.45,136.31L100.54,138.76L101.16,140.79L102.25,142.23L103.73,142.95L124.79,151.17L126.52,151.11L128.35,150.28L129.54,148.03"/></g></g><g id="Actor_.12"><g style="stroke:#000000;stroke-width:0.353"><path d="M201.27,95.11L199.44,96.20L199.13,96.52L197.71,97.94L196.24,100.21L195.15,102.79L194.63,105.06L194.53,105.47L194.44,108.02L173.37,99.80"/><path d="M194.44,108.02L200.05,112.74"/></g><g style="stroke:#000000;stroke-width:0.705"><path d="M184.12,88.43L180.20,86.90L178.37,87.98L176.65,89.73L175.17,91.99L174.08,94.57L173.46,97.25L173.37,99.80L178.98,104.52L200.05,112.74L201.88,111.66L202.38,111.16"/><path d="M189.90,90.68L186.56,89.38"/><path d="M206.79,99.76L201.27,95.11L192.34,91.63"/></g></g><g id="Actor_.13"><g style="stroke:#000000;stroke-width:0.353"><path d="M80.18,128.36L89.35,131.94"/><path d="M80.18,126.17L89.39,129.76L89.19,130.27L89.08,130.79L89.08,131.27L89.19,131.68L89.32,131.86"/><path d="M87.81,111.75L97.03,115.34L89.39,129.76"/><path d="M95.45,141.22L104.66,144.81L91.05,133.35"/><path d="M97.03,115.34L97.32,114.91L97.65,114.58L98.01,114.39L98.14,114.38"/><path d="M104.95,144.95L104.66,144.81"/></g><g style="stroke:#000000;stroke-width:0.705"><path d="M98.22,114.32L89.13,110.77L88.79,110.80L88.44,110.99L88.10,111.31L87.81,111.75L80.18,126.17L79.97,126.67L79.86,127.19L79.86,127.68L79.88,127.74L79.97,128.08L80.18,128.36L85.56,132.90"/><path d="M90.37,136.95L86.15,133.39"/><path d="M106.28,143.95L105.98,144.41L105.65,144.73L105.29,144.92L104.95,144.95L95.73,141.35L95.45,141.22L90.98,137.45"/><path d="M111.98,125.74L100.84,116.36"/></g></g><g id="Actor_.14"><g style="stroke:#000000;stroke-width:0.353"><path d="M146.25,57.37L146.20,57.16L146.25,56.71L146.44,56.28L146.75,55.91L147.14,55.64L147.56,55.50L147.98,55.51L148.10,55.54L148.43,55.74L148.65,56.05L148.74,56.46L148.69,56.90L148.58,57.18L148.31,57.58L147.95,57.89L147.53,58.08L147.11,58.12L146.85,58.07L146.52,57.87L146.29,57.56L146.25,57.37"/><path d="M145.99,58.31L145.97,58.24L145.97,58.21"/><path d="M147.99,57.29L147.12,56.89L147.12,57.58"/><path d="M146.71,57.44L146.70,56.54L147.12,56.89L147.88,56.26L147.46,55.90L148.24,56.17"/><path d="M146.70,56.54L147.46,55.90"/><path d="M147.67,57.55L147.39,57.67"/><path d="M148.09,57.20L147.88,56.26L148.24,56.38"/><path d="M148.67,55.08L148.60,55.09"/></g><g style="stroke:#000000;stroke-width:0.705"><path d="M146.22,58.89L145.99,58.31L145.94,58.13L145.91,57.31L146.14,56.51L146.63,55.84L147.31,55.36L147.43,55.29L148.20,55.07L148.67,55.08L148.74,55.08L149.21,55.18L149.59,55.36L150.02,55.78L150.05,55.83L150.29,56.41L150.30,56.48L150.32,57.15L150.31,57.23L150.10,57.92L150.05,58.02L149.64,58.64L149.59,58.70L149.03,59.20L148.96,59.24L148.31,59.54L148.24,59.57L148.16,59.57L147.58,59.65L147.51,59.64L147.06,59.55L146.68,59.37L146.26,58.95L146.22,58.89"/><path d="M146.71,57.44L147.48,57.71L148.01,57.27L148.25,57.07L148.24,56.17"/><path d="M150.24,57.44L151.47,58.48L151.65,58.78L151.70,59.15L151.64,59.54L151.45,59.92L151.16,60.24L150.81,60.47L150.43,60.59L150.07,60.57L149.75,60.42L148.56,59.43"/></g></g><g id="Actor_.15"><g style="stroke:#000000;stroke-width:0.353"><path d="M213.70,72.68L213.87,73.04L214.16,73.30L214.35,73.35L214.54,73.41L214.96,73.39L215.38,73.21L215.75,72.91L216.03,72.52L216.19,72.08L216.20,71.65L216.14,71.39L215.93,71.06L215.60,70.85L215.21,70.78L214.78,70.86L214.51,70.99L214.14,71.29L213.86,71.68L213.70,72.12L213.68,72.55L213.70,72.68"/><path d="M214.23,72.81L214.12,71.94L214.54,72.29L215.43,72.59"/><path d="M214.12,71.94L214.83,71.23L215.25,71.58L214.54,72.29L214.62,72.88"/><path d="M214.83,71.23L215.65,71.39"/><path d="M215.12,72.91L215.02,72.96"/><path d="M215.69,71.67L215.25,71.58L215.54,72.49"/></g><g style="stroke:#000000;stroke-width:0.705"><path d="M213.80,74.30L213.58,73.98L213.55,73.91L213.43,73.44L213.39,73.05L213.37,72.68L213.42,72.41L213.66,71.72L214.35,70.91L215.03,70.52L215.80,70.39L215.99,70.38L216.06,70.37L216.68,70.47L216.75,70.49L217.26,70.81L217.31,70.86L217.64,71.36L217.67,71.42L217.79,71.88L217.80,72.34L217.64,73.03L217.61,73.11L217.25,73.75L217.20,73.82L216.68,74.36L216.61,74.41L216.29,74.59L215.98,74.77L215.91,74.79L215.25,74.94L215.17,74.94L214.55,74.85L214.48,74.83L214.45,74.81L213.97,74.52L213.92,74.47L213.81,74.33L213.62,73.92"/><path d="M214.23,72.81L215.06,72.97L215.76,72.26L215.65,71.39"/><path d="M217.71,72.73L218.76,73.62L219.01,73.86L219.15,74.18L219.17,74.57L219.06,74.96L218.84,75.33L218.53,75.62L218.16,75.82L217.78,75.89L217.43,75.83L217.14,75.65L216.05,74.73"/></g></g><g id="Actor_.16"><g style="stroke:#000000;stroke-width:0.353"><path d="M98.91,119.67L98.43,119.39L97.48,118.92L96.51,118.54"/><path d="M99.38,114.54L98.94,115.24L98.54,115.67L98.46,115.76L97.72,116.35L96.74,115.97"/><path d="M97.72,116.35L97.78,117.19L97.73,117.94L97.48,118.92"/><path d="M98.69,119.14L98.37,118.89L98.17,118.45L98.10,117.89L98.19,117.25L98.40,116.61L98.74,116.03L99.07,115.67L99.15,115.58L99.59,115.31L100.02,115.25L100.39,115.40L100.65,115.75L100.79,116.25L100.78,116.86L100.63,117.51L100.35,118.13L99.97,118.65L99.54,119.01L99.09,119.18L98.69,119.14"/><path d="M99.62,116.14L99.80,116.24L99.92,116.45L99.97,116.73L99.95,117.05L99.85,117.39L99.69,117.70L99.49,117.95L99.37,118.03L99.26,118.11L99.03,118.17L98.83,118.12"/><path d="M98.78,118.14L98.96,118.31L99.18,118.37L99.44,118.30L99.69,118.12L99.92,117.83L100.10,117.48L100.21,117.11L100.24,116.74L100.18,116.43L100.04,116.20L99.84,116.08L99.60,116.09"/></g><g style="stroke:#000000;stroke-width:0.705"><path d="M96.51,118.54L96.93,118.78L97.37,119.01L97.94,119.29L98.91,119.67L99.91,118.82L100.58,117.85L100.85,116.75L100.82,115.28L100.39,115.04L99.96,114.82L99.38,114.54L98.41,114.16L97.42,115.00L96.74,115.97L96.48,117.07L96.51,118.54"/><path d="M98.83,118.12L98.75,118.03"/><path d="M98.78,118.14L98.69,117.86L98.67,117.52L98.74,117.14L98.88,116.79L98.88,116.77L99.09,116.45L99.34,116.22L99.60,116.09"/><path d="M99.62,116.14L99.48,116.14"/></g></g><g id="Actor_.17"><g style="stroke:#000000;stroke-width:0.353"><path d="M145.68,137.72L145.31,137.57"/><path d="M145.54,135.01L146.52,135.39L147.25,134.80L147.29,134.76L147.74,134.27L148.18,133.57"/><path d="M146.57,136.16L146.52,135.39"/></g><g style="stroke:#000000;stroke-width:0.705"><path d="M145.65,137.77L145.31,137.57L145.28,136.10L145.54,135.01L146.22,134.04L147.21,133.19L148.18,133.57L148.76,133.85L149.19,134.08L149.61,134.32L149.61,134.36"/></g></g><g id="Actor_.18"><g style="stroke:#000000;stroke-width:0.353"><path d="M140.27,147.97L139.81,148.13L139.67,148.98L139.43,149.75L138.91,150.74L137.94,150.36"/><path d="M138.91,150.74L139.56,151.71L139.81,152.40"/><path d="M138.84,147.76L139.81,148.13"/></g><g style="stroke:#000000;stroke-width:0.705"><path d="M140.35,152.19L139.81,152.40L138.84,152.02L138.43,151.46L138.15,150.97L137.94,150.36L138.27,148.87L138.84,147.76L139.58,147.22L140.64,146.81L140.82,146.88"/></g></g><g id="Actor_.19"><g style="stroke:#000000;stroke-width:0.353"><path d="M86.57,139.08L78.54,132.32L78.08,132.03"/><path d="M78.54,132.32L82.82,133.99L83.62,132.47"/><path d="M77.90,129.78L79.21,130.30L79.17,130.42L79.16,130.54L79.19,130.65L79.25,130.74"/><path d="M80.23,131.15L79.21,130.30L78.80,129.73L78.58,128.92L78.58,127.95L78.80,126.91L79.21,125.91L87.25,110.73L85.93,110.21"/><path d="M79.21,125.91L77.90,125.39"/><path d="M83.91,135.33L83.78,135.33L83.54,135.26L82.84,134.96L82.13,134.56L81.84,134.36L81.67,134.20L81.62,134.10"/><path d="M82.82,133.99L83.26,134.18L84.21,134.68L84.63,134.95L84.94,135.18L85.74,133.66"/><path d="M84.94,135.18L91.37,140.59L92.17,139.07"/><path d="M86.44,138.16L86.50,138.26L86.67,138.42L86.94,138.61L87.66,139.02L88.36,139.32L88.60,139.39L88.74,139.39"/><path d="M87.26,153.94L87.26,152.38L86.91,152.20L86.70,151.97L86.66,151.72"/><path d="M87.26,152.38L90.22,153.54L90.22,155.09"/><path d="M87.25,110.73L87.82,109.86L88.50,109.20L89.21,108.83L89.89,108.78"/><path d="M88.81,151.35L88.91,151.74L89.28,152.09L89.88,152.36L90.65,152.54L91.50,152.59L92.34,152.51L93.09,152.32L93.38,152.17L93.65,152.02L93.97,151.66L94.01,151.28"/><path d="M88.81,150.58L88.91,150.96L89.28,151.31L89.88,151.59L90.65,151.76L91.50,151.81L92.34,151.74L93.09,151.54L93.65,151.25L93.97,150.89L94.01,150.50"/><path d="M88.95,150.30L88.78,150.38L88.68,150.33L88.59,150.23L88.52,150.12L88.47,149.99L88.45,149.87L88.45,139.82"/><path d="M88.45,149.87L100.89,143.36"/><path d="M90.22,153.54L90.68,153.67L91.21,153.73L91.76,153.71L92.26,153.62L92.67,153.46L92.67,155.01"/><path d="M90.11,150.61L90.21,150.42L90.43,150.25L90.76,150.13L91.16,150.06L91.59,150.05L92.00,150.11L92.35,150.22L92.59,150.38L92.71,150.57"/><path d="M101.64,143.65L90.32,149.58"/><path d="M92.95,111.13L90.87,109.38L90.94,109.27L91.05,109.18L91.16,109.13L91.29,109.11L91.40,109.13L93.17,110.63"/><path d="M91.37,140.59L91.55,140.78L91.59,140.89"/><path d="M91.40,109.13L95.67,110.80L96.12,110.99L96.60,111.23L97.07,111.49L97.48,111.76L97.80,111.99L98.60,110.47"/><path d="M92.67,153.46L108.89,144.97"/><path d="M92.97,111.02L93.24,111.01L93.72,111.14L94.37,111.40L95.12,111.74L95.87,112.15L96.56,112.57L97.10,112.95L97.44,113.27L97.55,113.47"/><path d="M93.38,110.26L93.64,110.25L94.12,110.38L94.77,110.64L95.52,110.99L96.27,111.39L96.96,111.81L97.51,112.20L97.85,112.51L97.95,112.71"/><path d="M95.44,113.23L94.02,112.03"/><path d="M96.39,112.87L96.32,112.91L96.13,112.88L95.84,112.78L95.10,112.43L94.42,112.02L94.20,111.84L94.09,111.71L94.10,111.64"/><path d="M96.21,113.19L96.98,113.84"/><path d="M95.67,110.80L96.48,109.28"/><path d="M97.80,111.99L104.23,117.40L105.03,115.88"/><path d="M100.84,116.30L101.38,116.63L101.93,117.01L102.27,117.32L102.37,117.53"/><path d="M100.82,115.30L101.78,115.87L102.33,116.25L102.67,116.57L102.77,116.77"/><path d="M104.45,117.70L104.41,117.59L104.23,117.40"/><path d="M141.33,103.56L107.00,121.54"/><path d="M161.72,111.51L124.91,130.78"/><path d="M125.67,131.08L134.41,126.50"/><path d="M168.07,113.99L131.21,133.29"/><path d="M139.47,127.48L139.43,127.86L139.11,128.22L138.55,128.52L137.80,128.71L136.96,128.79L136.11,128.74L135.34,128.56L134.74,128.29L134.37,127.94L134.27,127.55"/><path d="M134.27,126.78L134.37,127.16L134.74,127.51L135.34,127.79L136.11,127.96L136.96,128.01L137.80,127.94L138.55,127.74L139.11,127.45L139.43,127.09L139.47,126.70"/><path d="M135.78,125.78L162.47,111.81"/><path d="M135.58,126.81L135.67,126.62L135.89,126.45L136.22,126.33L136.62,126.26L137.05,126.25L137.46,126.31L137.81,126.42L138.06,126.58L138.17,126.77"/><path d="M146.81,100.70L162.31,92.59L160.99,92.07"/><path d="M157.14,103.56L157.37,103.72L157.51,104.00L157.56,104.38L157.49,104.86"/><path d="M162.31,92.59L163.04,92.07L163.73,91.32L164.32,90.40L163.00,89.88"/><path d="M164.32,90.40L168.60,82.31L167.28,81.80"/><path d="M176.22,103.92L167.19,108.65"/><path d="M167.63,80.53L168.93,81.04L168.93,79.49L168.97,79.42"/><path d="M173.34,81.11L172.53,80.44L168.26,78.77L167.80,78.61L167.48,78.55L167.34,78.60"/><path d="M167.95,108.94L176.97,104.22"/><path d="M168.60,82.31L168.78,81.89L168.89,81.46L168.93,81.04"/><path d="M168.26,78.77L170.60,74.34"/><path d="M167.63,78.98L168.93,79.49L168.87,79.41"/><path d="M171.74,77.82L171.49,77.58L171.36,77.25L171.35,76.87L171.46,76.47L171.69,76.11L172.00,75.82L172.36,75.63L172.75,75.56L173.10,75.62L173.39,75.81"/><path d="M172.53,80.44L172.98,80.52L173.25,80.48L173.46,80.45L173.93,80.23L174.34,79.88L174.66,79.43L175.46,80.11"/><path d="M183.09,106.13L173.52,111.14"/><path d="M174.66,79.43L176.20,76.52"/></g><g style="stroke:#000000;stroke-width:0.705"><path d="M79.25,130.75L79.34,130.80L83.62,132.47L84.07,132.66L85.02,133.17L85.43,133.43L85.74,133.66L92.17,139.07L92.35,139.26L92.39,139.37L91.59,140.89L91.47,140.93L91.22,140.88L90.85,140.75L86.57,139.08L86.11,138.79L78.08,132.03L77.76,131.58L77.62,131.02L77.67,130.40L77.90,129.78L77.48,129.21L77.26,128.41L77.26,127.43L77.48,126.40L77.90,125.39L85.93,110.21L86.51,109.34L87.18,108.69L87.75,108.39L87.90,108.31L88.57,108.26L89.89,108.78L90.46,109.04L90.87,109.38"/><path d="M83.91,135.33L83.93,135.26L83.81,135.13L83.28,134.75L82.91,134.54L82.18,134.19L81.89,134.10L81.70,134.06L81.62,134.10"/><path d="M86.10,133.97L86.25,133.68L86.28,133.54L86.05,133.28L85.60,132.92L84.98,132.51L84.25,132.10L83.49,131.71L82.78,131.41L82.20,131.21L81.82,131.15L81.67,131.22L81.46,131.63"/><path d="M86.44,138.16L86.52,138.12L86.71,138.15L87.00,138.25L87.73,138.60L88.41,139.01L88.63,139.19L88.75,139.32L88.74,139.39"/><path d="M110.59,145.63L92.67,155.01L92.26,155.17L91.76,155.26L91.21,155.28L90.68,155.22L90.22,155.09L87.26,153.94L86.91,153.75L86.70,153.52L86.66,153.28L86.66,151.72L86.79,151.48L87.08,151.28L88.78,150.38"/><path d="M87.14,139.31L87.14,149.36L87.22,149.98L87.45,150.62L87.67,150.96"/><path d="M94.01,151.28L94.01,150.50L93.77,150.13L93.28,149.81L92.59,149.58L91.77,149.47L90.91,149.48L90.10,149.62L89.44,149.86L89.00,150.20L88.81,150.58L88.81,151.35"/><path d="M90.92,138.02L91.08,137.74L91.10,137.60L90.87,137.33L90.42,136.98L89.80,136.57L89.07,136.15L88.19,135.72"/><path d="M89.67,108.69L89.94,108.31L90.45,107.88L91.04,107.60L91.64,107.51L92.20,107.61L96.48,109.28L96.92,109.47L97.41,109.71L97.88,109.98L98.29,110.24L98.60,110.47L105.03,115.88L105.21,116.07L105.25,116.18L104.45,117.70L104.33,117.74L104.08,117.69L102.58,117.13"/><path d="M92.71,150.57L92.69,150.76L92.53,150.94L92.25,151.09L91.88,151.19L91.46,151.22L91.03,151.20L90.65,151.11L90.35,150.97L90.16,150.80L90.11,150.61"/><path d="M97.95,112.71L97.55,113.47L97.40,113.54L97.02,113.48L96.44,113.29L95.73,112.98L94.97,112.60L94.24,112.18L93.62,111.77L93.17,111.42L92.94,111.16L92.97,111.02L93.37,110.26"/><path d="M96.39,112.87L96.34,112.77L96.17,112.61L95.90,112.42L95.18,112.01L94.48,111.71L94.24,111.64L94.10,111.64"/><path d="M102.77,116.77L102.37,117.53L102.28,117.57"/><path d="M140.02,103.05L106.12,120.80"/><path d="M132.48,134.17L169.76,114.65"/><path d="M134.27,127.55L134.27,126.78L134.46,126.40L134.90,126.06L135.56,125.82L136.37,125.68L137.23,125.67L138.05,125.78L138.74,126.01L139.23,126.33L139.47,126.70L139.47,127.48"/><path d="M138.17,126.77L138.15,126.96L137.99,127.14L137.71,127.29L137.34,127.39L136.92,127.42L136.49,127.40L136.11,127.31L135.81,127.17L135.63,127.00L135.58,126.81"/><path d="M169.77,74.01L167.34,78.61L167.38,78.74L167.61,78.97L167.61,80.52L167.58,80.95L167.46,81.38L167.28,81.80L163.00,89.88L162.41,90.81L161.73,91.56L160.99,92.07L145.49,100.18"/><path d="M156.02,104.29L156.28,103.91L156.57,103.66L156.87,103.54L157.14,103.56"/><path d="M156.23,103.99L156.17,104.35"/><path d="M177.16,76.90L175.46,80.11L175.15,80.56L174.73,80.91L174.27,81.13L173.78,81.20L173.34,81.11L169.06,79.45L168.90,79.40L168.87,79.41"/><path d="M171.74,77.82L172.06,77.95L172.43,77.95L172.81,77.82L173.16,77.57L173.43,77.24L173.60,76.86L173.65,76.46L173.58,76.10L173.39,75.81"/><path d="M172.56,77.90L172.67,77.49L172.89,77.12L173.20,76.83L173.57,76.64L173.63,76.63"/><path d="M184.79,106.79L174.92,111.95"/></g></g><g id="Actor_.20"><g style="stroke:#000000;stroke-width:0.353"><path d="M190.40,95.29L190.39,95.21L190.26,95.07L190.03,94.89L189.70,94.69L189.33,94.48L188.95,94.29L188.61,94.15L188.33,94.06L188.16,94.04L188.10,94.08"/><path d="M193.85,91.18L193.84,91.16L193.63,90.93L193.60,90.89L193.19,90.58L193.14,90.54L192.58,90.19L192.51,90.14L191.87,89.78L191.79,89.74L191.13,89.42L191.06,89.38L190.59,89.18L190.21,89.04L189.79,88.93L189.75,88.92L189.52,88.92L189.50,88.93"/><path d="M192.81,90.74L192.80,90.66L192.68,90.52L192.44,90.34L192.11,90.13L191.74,89.93L191.36,89.74L191.02,89.59L190.74,89.50L190.57,89.48L190.51,89.53"/></g><g style="stroke:#000000;stroke-width:0.705"><path d="M192.81,90.74L190.40,95.29L190.28,95.31L190.05,95.25L189.74,95.13L189.37,94.96L189.00,94.77L188.64,94.55L188.35,94.36L188.17,94.19L188.10,94.08L190.51,89.53"/><path d="M192.66,91.02L192.74,91.06L193.12,91.19L193.55,91.31L193.58,91.32L193.82,91.31L193.83,91.30L193.85,91.18L193.90,90.49L193.74,89.82L193.55,89.42L193.36,89.24L193.05,89.03L192.67,88.79L192.24,88.57L191.83,88.37L191.71,88.32L191.37,88.21L191.15,88.17L190.45,88.34L189.87,88.62L189.50,88.93L189.49,89.06L189.50,89.08L189.70,89.31L189.75,89.35L190.16,89.67L190.22,89.71L190.37,89.80"/></g></g><g id="Actor_.21"><g style="stroke:#000000;stroke-width:0.353"><path d="M255.96,101.31L255.96,101.31"/><path d="M257.86,100.24L257.59,100.53L257.38,100.67L257.07,100.76L256.80,100.70L256.59,100.49L256.47,100.15L256.45,99.73L256.54,99.27L256.72,98.83L256.98,98.44L257.28,98.17L257.38,98.11L257.69,98.02L257.97,98.08L258.18,98.30L258.30,98.63L258.32,98.90L258.27,99.35L258.11,99.81"/><path d="M257.29,98.66L257.35,98.78L258.04,99.05L257.71,99.99L257.05,100.34"/><path d="M257.71,99.99L257.03,99.73L257.35,98.78L257.04,98.84"/><path d="M256.79,99.85L257.03,99.73L256.81,99.50"/><path d="M257.55,96.91L257.55,96.91"/><path d="M258.04,99.05L257.71,98.44"/></g><g style="stroke:#000000;stroke-width:0.705"><path d="M257.73,97.11L258.11,97.73L258.20,98.08L258.33,98.83L258.27,99.35L258.20,99.56L258.11,99.81L257.88,100.22L257.86,100.24L257.66,100.50L257.31,100.76L256.85,101.09L256.49,101.23L256.05,101.30L255.59,101.31L255.50,101.31L255.45,101.30L255.08,101.06L255.04,101.02L254.79,100.58L254.77,100.52L254.68,99.92L254.68,99.84L254.72,99.37L254.74,99.14L254.76,99.06L254.99,98.35L255.02,98.27L255.38,97.63L255.42,97.56L255.87,97.06L255.92,97.01L256.30,96.76L256.63,96.63L257.09,96.62L257.14,96.64L257.51,96.87L257.73,97.11"/><path d="M256.05,101.30L255.96,101.31L255.90,101.31"/><path d="M257.05,100.34L256.73,99.73L257.04,98.82L257.05,98.79L257.71,98.44"/></g></g><g id="Actor_.22"><g style="stroke:#000000;stroke-width:0.353"><path d="M250.62,94.15L250.35,94.44L250.15,94.58L249.84,94.67L249.56,94.61L249.35,94.40L249.23,94.06L249.22,93.64L249.29,93.27L249.31,93.18L249.49,92.74L249.75,92.36L250.05,92.08L250.15,92.02L250.46,91.93L250.73,92.00L250.94,92.21L251.06,92.54L251.09,92.81L251.03,93.26L250.88,93.72"/><path d="M248.73,95.22L248.73,95.22"/><path d="M249.57,93.41L249.79,93.64L249.56,93.76"/><path d="M250.48,92.35L250.81,92.96L250.48,93.91L249.82,94.25"/><path d="M250.81,92.96L250.12,92.69L249.79,93.64L250.48,93.91"/><path d="M250.06,92.57L250.12,92.69L249.80,92.75"/><path d="M250.32,90.82L250.32,90.82"/></g><g style="stroke:#000000;stroke-width:0.705"><path d="M250.88,93.72L250.96,93.47L251.03,93.26L251.10,92.74L250.96,91.99L250.88,91.64L250.50,91.02L250.28,90.78L249.91,90.55L249.86,90.54L249.40,90.54L249.06,90.67L248.69,90.92L248.64,90.97L248.38,91.26L248.19,91.48L248.14,91.54L247.79,92.19L247.75,92.26L247.53,92.97L247.51,93.06L247.44,93.75L247.44,93.83L247.54,94.43L247.56,94.49L247.81,94.94L247.85,94.97L248.22,95.21L248.27,95.22L248.35,95.22L248.82,95.22L249.25,95.14L249.61,95.00L250.08,94.67L250.42,94.42L250.62,94.15L250.65,94.13L250.88,93.72"/><path d="M248.66,95.22L248.73,95.22L248.82,95.22L248.63,95.22"/><path d="M249.82,94.25L249.49,93.65L249.82,92.70L250.48,92.35"/></g></g><g id="Actor_.23"><g style="stroke:#000000;stroke-width:0.353"><path d="M127.87,70.89L127.83,70.79L127.68,70.64L127.42,70.45L127.08,70.25L126.71,70.04L126.33,69.86L126.00,69.73L125.74,69.65L125.59,69.65"/><path d="M131.31,66.89L131.28,66.74L131.26,66.72L131.01,66.47L130.97,66.43L130.53,66.11L130.48,66.07L129.90,65.71L129.82,65.66L129.17,65.31L129.10,65.27L128.89,65.17L128.44,64.95L128.37,64.92L127.91,64.73L127.56,64.61L127.17,64.52L127.14,64.52L126.95,64.55"/><path d="M130.28,66.33L130.24,66.24L130.09,66.09L129.83,65.90L129.49,65.69L129.12,65.49L128.74,65.31L128.41,65.17L128.25,65.13L128.15,65.10L128.00,65.09"/></g><g style="stroke:#000000;stroke-width:0.705"><path d="M130.28,66.33L127.87,70.89L127.78,70.91L127.57,70.87L127.27,70.77L126.91,70.61L126.53,70.41L126.17,70.20L125.87,70.00L125.66,69.83L125.56,69.71L125.59,69.65L128.00,65.09"/><path d="M127.83,65.42L127.74,65.35L127.29,65.03L127.24,64.98L126.99,64.73L126.97,64.71L126.94,64.56L126.95,64.55L127.30,64.24L127.86,63.95L128.58,63.77L128.77,63.80L129.09,63.90L129.20,63.94L129.61,64.13L130.04,64.35L130.43,64.58L130.76,64.81L130.98,64.99L131.06,65.12L131.20,65.40L131.33,66.06L131.35,66.45L131.31,66.89L131.30,66.90L131.11,66.93L131.08,66.93L130.69,66.84L130.34,66.71L130.12,66.63"/></g></g><g id="Actor_.24"><g style="stroke:#000000;stroke-width:0.353"><path d="M156.74,68.93L156.14,68.42L223.29,94.62L223.89,95.12"/><path d="M156.14,68.42L155.77,68.19"/><path d="M159.07,67.20L158.90,66.88L158.86,66.50L158.94,66.09L159.15,65.70L159.45,65.38L159.82,65.15L160.21,65.05L160.59,65.08L160.91,65.24"/><path d="M165.73,56.14L165.41,55.97L165.03,55.94L164.64,56.04L164.27,56.27L163.97,56.59L163.77,56.98L163.68,57.39L163.73,57.78L163.89,58.10"/><path d="M180.87,70.26L180.70,69.92L180.65,69.53L180.74,69.10L180.95,68.70L181.26,68.37L181.64,68.14L182.05,68.03L182.44,68.07L182.77,68.23"/><path d="M206.47,77.48L206.14,77.31L205.75,77.28L205.34,77.38L204.96,77.61L204.65,77.95L204.44,78.35L204.35,78.77L204.40,79.17L204.57,79.50"/><path d="M221.62,91.60L221.45,91.28L221.40,90.89L221.49,90.48L221.69,90.10L221.99,89.77L222.36,89.55L222.76,89.45L223.13,89.48L223.45,89.64"/><path d="M223.29,94.62L223.74,94.70L224.22,94.63L224.69,94.41L225.10,94.06L225.41,93.61L226.02,94.12"/><path d="M232.44,81.98L231.84,81.47L225.41,93.61"/><path d="M228.27,80.53L227.95,80.37L227.58,80.34L227.19,80.44L226.82,80.67L226.51,80.99L226.31,81.38L226.22,81.79L226.27,82.17L226.44,82.49"/><path d="M231.84,81.47L232.03,80.98L232.06,80.48L231.95,80.03L231.70,79.67"/></g><g style="stroke:#000000;stroke-width:0.705"><path d="M219.13,74.68L231.33,79.44L231.70,79.67L232.30,80.18L232.55,80.54L232.67,80.99L232.63,81.48L232.44,81.98L228.01,90.34L226.02,94.12L225.70,94.56L225.29,94.91L224.82,95.14L224.34,95.21L223.89,95.12L156.74,68.93L156.38,68.70L155.77,68.19L155.52,67.83L155.41,67.38L155.44,66.89L155.63,66.39L162.06,54.25L162.37,53.81L162.78,53.46L163.25,53.23L163.73,53.16L164.18,53.25L213.42,72.45"/><path d="M161.15,65.59L160.82,65.56L160.42,65.66L160.05,65.89L159.75,66.21L159.55,66.60L159.46,67.00L159.51,67.39L159.56,67.49"/><path d="M159.07,67.20L159.35,67.43L159.70,67.53L160.09,67.49L160.48,67.32L160.82,67.05L161.07,66.69L161.22,66.28L161.24,65.88L161.13,65.52L160.91,65.24"/><path d="M163.89,58.10L164.17,58.32L164.52,58.42L164.91,58.38L165.30,58.22L165.64,57.94L165.90,57.58L166.04,57.17L166.06,56.77L165.95,56.41L165.73,56.14"/><path d="M165.97,56.48L165.64,56.45L165.24,56.55L164.88,56.78L164.57,57.10L164.37,57.49L164.28,57.90L164.33,58.28L164.38,58.38"/><path d="M180.87,70.26L181.16,70.49L181.52,70.59L181.92,70.55L182.32,70.38L182.67,70.09L182.94,69.72L183.09,69.30L183.11,68.89L183.00,68.52L182.77,68.23"/><path d="M183.02,68.57L182.65,68.54L182.25,68.64L181.87,68.88L181.55,69.21L181.34,69.61L181.26,70.03L181.30,70.43L181.36,70.54"/><path d="M204.57,79.50L204.86,79.73L205.22,79.83L205.62,79.79L206.02,79.62L206.37,79.34L206.64,78.96L206.79,78.55L206.81,78.13L206.70,77.76L206.47,77.48"/><path d="M206.72,77.81L206.35,77.78L205.95,77.89L205.57,78.12L205.25,78.46L205.04,78.86L204.96,79.28L205.00,79.68L205.06,79.79"/><path d="M221.62,91.60L221.89,91.82L222.24,91.92L222.63,91.89L223.02,91.72L223.36,91.44L223.62,91.08L223.76,90.68L223.78,90.27L223.68,89.92L223.45,89.64"/><path d="M222.10,91.88L222.05,91.79L222.00,91.40L222.09,90.99L222.29,90.60L222.60,90.28L222.97,90.05L223.36,89.95L223.70,89.98"/><path d="M226.92,82.77L226.87,82.68L226.83,82.29L226.91,81.88L227.12,81.50L227.42,81.17L227.79,80.95L228.18,80.85L228.52,80.87"/><path d="M226.44,82.49L226.71,82.71L227.06,82.81L227.45,82.78L227.84,82.61L228.18,82.33L228.43,81.98L228.58,81.57L228.61,81.17L228.50,80.81L228.27,80.53"/></g></g><g id="Actor_.25"><g style="stroke:#000000;stroke-width:0.353"><path d="M185.57,91.24L185.58,91.17L185.46,91.03L185.23,90.85L184.92,90.65L184.55,90.44L184.17,90.25L183.82,90.10L183.53,90.01L183.35,89.98L183.28,90.02"/><path d="M189.04,87.19L188.95,87.01L188.93,86.98L188.62,86.71L188.58,86.67L188.09,86.33L188.03,86.29L187.59,86.03L187.15,85.78L186.48,85.44L186.41,85.40L185.79,85.13L185.72,85.10L185.21,84.93L185.16,84.91L184.81,84.85L184.79,84.85L184.65,84.91"/><path d="M185.69,85.46L185.76,85.42L185.94,85.45L186.23,85.55L186.58,85.70L186.96,85.89L187.33,86.10L187.64,86.30L187.87,86.48L187.99,86.61L187.98,86.68"/></g><g style="stroke:#000000;stroke-width:0.705"><path d="M185.69,85.46L183.28,90.02L183.33,90.12L183.51,90.28L183.79,90.47L184.13,90.68L184.51,90.88L184.88,91.06L185.20,91.18L185.44,91.24L185.57,91.24L187.98,86.68"/><path d="M185.54,85.74L185.10,85.43L185.05,85.40L184.76,85.13L184.73,85.10L184.65,84.92L184.65,84.91L185.20,84.51L185.39,84.38L186.15,84.13L186.27,84.11L186.44,84.12L186.72,84.20L187.10,84.36L187.52,84.56L187.94,84.79L188.19,84.94L188.51,85.16L188.71,85.34L188.78,85.46L188.90,85.70L189.09,86.47L189.04,87.19L189.04,87.20L188.91,87.27L188.88,87.27L188.53,87.21L188.48,87.19L187.97,87.02L187.90,86.99L187.84,86.96"/></g></g><g id="Actor_.26"><g style="stroke:#000000;stroke-width:0.353"><path d="M150.97,156.27L150.97,156.27"/><path d="M152.87,155.20L152.60,155.49L152.39,155.63L152.08,155.72L151.81,155.66L151.60,155.45L151.48,155.11L151.46,154.69L151.53,154.32L151.55,154.23L151.73,153.79L151.99,153.40L152.29,153.13L152.39,153.07L152.70,152.98L152.98,153.05L153.19,153.26L153.31,153.59L153.33,153.86L153.28,154.31L153.13,154.77"/><path d="M151.82,154.46L152.04,154.69L152.36,153.74L153.05,154.01L152.72,153.40"/><path d="M152.07,155.30L152.72,154.96L152.04,154.69L151.80,154.81"/><path d="M152.72,154.96L153.05,154.01"/><path d="M152.30,153.62L152.36,153.74L152.05,153.80"/><path d="M152.56,151.87L152.56,151.87"/></g><g style="stroke:#000000;stroke-width:0.705"><path d="M152.74,152.07L153.12,152.69L153.21,153.04L153.35,153.79L153.28,154.31L153.21,154.52L153.13,154.77L152.89,155.18L152.87,155.20L152.67,155.47L152.32,155.72L151.86,156.05L151.50,156.19L151.06,156.26L150.60,156.27L150.51,156.27L150.46,156.26L150.09,156.02L150.05,155.98L149.80,155.54L149.79,155.48L149.69,154.88L149.69,154.80L149.76,154.10L149.77,154.02L149.83,153.85L150.00,153.31L150.03,153.24L150.39,152.59L150.43,152.52L150.88,152.02L150.93,151.97L151.31,151.72L151.64,151.59L152.10,151.58L152.15,151.60L152.52,151.83L152.74,152.07"/><path d="M151.06,156.26L150.97,156.27L150.91,156.27"/><path d="M152.07,155.30L151.74,154.69L152.07,153.75L152.72,153.40"/></g></g><g id="Actor_.27"><g style="stroke:#000000;stroke-width:0.353"><path d="M151.88,49.01L151.51,48.89L151.22,48.64L151.10,48.41L151.02,48.00L151.09,47.56L151.29,47.13L151.61,46.77L151.86,46.58L152.28,46.41L152.70,46.38L153.08,46.50L153.37,46.76L153.53,47.12L153.56,47.55L153.44,47.99L153.20,48.40L152.85,48.73L152.73,48.81L152.31,48.98L151.89,49.01L151.88,49.01"/><path d="M151.46,48.20L151.61,47.27L151.79,47.17L152.45,46.77L153.13,47.20"/><path d="M151.61,47.27L152.03,47.62L151.89,48.47"/><path d="M152.62,48.34L151.98,48.52"/><path d="M152.86,48.19L152.03,47.62L152.87,47.13L152.94,48.15"/><path d="M152.45,46.77L152.87,47.13L153.12,47.28"/></g><g style="stroke:#000000;stroke-width:0.705"><path d="M150.72,48.37L150.87,47.71L151.02,47.30L151.39,46.86L151.63,46.57L151.98,46.31L152.40,46.11L152.84,45.99L153.26,45.97L153.39,45.97L154.02,46.06L154.08,46.08L154.60,46.40L154.64,46.44L154.65,46.46L154.99,46.94L155.02,47.00L155.15,47.63L155.16,47.71L155.10,48.15L155.07,48.39L155.05,48.47L154.75,49.14L154.70,49.21L154.63,49.30L154.23,49.79L154.16,49.84L153.71,50.18L153.26,50.39L152.60,50.54L152.52,50.54L152.50,50.53L151.90,50.45L151.83,50.43L151.32,50.12L151.27,50.07L150.93,49.57L150.89,49.49L150.76,48.86L150.72,48.37"/><path d="M153.13,47.20L152.98,48.12L152.14,48.62L151.46,48.20"/><path d="M155.08,48.34L156.27,49.34L156.46,49.64L156.53,50.00L156.47,50.40L156.29,50.78L156.02,51.11L155.67,51.35L155.29,51.47L154.92,51.47L154.60,51.34L153.40,50.33"/></g></g><g id="Actor_.28"><g style="stroke:#000000;stroke-width:0.353"><path d="M209.11,82.22L208.91,81.88L208.85,81.47L208.93,81.02L209.07,80.75L209.15,80.60L209.47,80.25L209.87,80.00L210.30,79.89L210.71,79.93L210.82,79.97L211.13,80.20L211.33,80.53L211.39,80.95L211.31,81.39L211.18,81.68L210.89,82.06L210.51,82.35L210.09,82.50L209.67,82.52L209.42,82.44L209.11,82.22"/><path d="M209.95,82.07L210.35,81.92"/><path d="M209.75,81.98L209.80,81.23L209.38,80.88L209.32,81.79"/><path d="M210.65,81.69L209.80,81.23L210.59,80.65L210.17,80.29L209.38,80.88"/><path d="M210.17,80.29L210.92,80.62"/><path d="M210.91,80.79L210.59,80.65L210.75,81.62"/></g><g style="stroke:#000000;stroke-width:0.705"><path d="M208.80,83.17L208.83,83.23L209.22,83.69L209.57,83.90L210.00,84.03L210.08,84.04L210.73,84.00L210.80,83.99L210.84,83.97L211.46,83.73L211.53,83.69L212.11,83.24L212.17,83.17L212.62,82.57L212.67,82.48L212.92,81.79L212.94,81.72L212.97,81.04L212.96,80.96L212.77,80.36L212.74,80.30L212.35,79.84L211.99,79.63L211.54,79.50L211.47,79.49L210.99,79.47L210.21,79.65L210.09,79.69L209.39,80.14L208.86,80.78L208.58,81.56L208.56,82.40L208.61,82.57L208.80,83.17"/><path d="M210.92,80.62L210.86,81.53L210.07,82.12L209.32,81.79"/><path d="M211.21,83.83L212.34,84.78L212.64,84.95L213.00,85.00L213.38,84.91L213.74,84.70L214.04,84.40L214.25,84.03L214.35,83.63L214.32,83.26L214.17,82.94L213.91,82.71L212.90,81.86"/></g></g><g id="Actor_.29"><g style="stroke:#000000;stroke-width:0.353"><path d="M239.80,86.46L239.13,86.48L238.13,86.39L237.64,87.47L236.70,88.63L235.73,88.26"/><path d="M236.70,88.63L236.80,89.06"/><path d="M238.13,86.39L237.16,86.01"/></g><g style="stroke:#000000;stroke-width:0.705"><path d="M239.88,86.80L239.80,86.46L238.83,86.08L238.09,86.00L237.60,85.98L237.16,86.01L236.58,86.64L236.15,87.29L235.73,88.26L235.69,89.46L235.95,90.53"/></g></g><g id="Actor_.30"><g style="stroke:#000000;stroke-width:0.353"><path d="M158.20,142.61L158.20,142.60"/><path d="M160.36,141.11L160.51,140.65L160.56,140.20L160.54,139.93L160.42,139.60L160.21,139.38L159.94,139.32L159.63,139.41L159.53,139.47L159.22,139.74L158.97,140.13L158.78,140.57L158.69,141.03L158.71,141.45L158.83,141.78L159.04,142.00L159.32,142.06L159.63,141.97L159.83,141.83L160.10,141.54"/><path d="M159.30,141.64L159.95,141.29L160.28,140.35L159.95,139.74"/><path d="M159.53,139.96L159.60,140.08L159.27,141.03L159.05,140.80"/><path d="M159.95,141.29L159.27,141.03L159.03,141.15"/><path d="M160.28,140.35L159.60,140.08L159.28,140.14"/><path d="M159.79,138.21L159.79,138.21"/></g><g style="stroke:#000000;stroke-width:0.705"><path d="M158.14,142.61L158.20,142.61L158.30,142.60L157.83,142.61L157.75,142.61L157.70,142.60L157.32,142.36L157.29,142.32L157.04,141.88L157.02,141.82L156.92,141.21L156.92,141.14L156.99,140.44L157.01,140.36L157.02,140.33L157.23,139.65L157.26,139.57L157.62,138.93L157.67,138.86L158.11,138.36L158.17,138.31L158.54,138.06L158.88,137.93L159.33,137.92L159.38,137.94L159.76,138.17L159.98,138.41"/><path d="M158.30,142.60L158.73,142.53L159.09,142.39L159.55,142.06L159.90,141.80L160.10,141.54L160.12,141.52L160.36,141.11L160.44,140.86L160.51,140.65L160.58,140.13L160.44,139.38L160.36,139.03L159.98,138.41"/><path d="M159.30,141.64L158.97,141.03L159.30,140.09L159.95,139.74"/></g></g><g><g/></g><g><g><path style="stroke:#000000;stroke-width:0.500" d="M155.77,46.83L207.94,50.93"/></g><g><path style="fill:#000000" d="M156.77,46.83L156.77,46.73L156.75,46.64L156.73,46.54L156.70,46.45L156.65,46.36L156.60,46.27L156.54,46.20L156.48,46.12L156.41,46.06L156.33,46.00L156.24,45.95L156.15,45.91L156.06,45.87L155.97,45.85L155.87,45.84L155.77,45.83L155.67,45.84L155.58,45.85L155.48,45.87L155.39,45.91L155.30,45.95L155.22,46.00L155.14,46.06L155.06,46.12L155.00,46.20L154.94,46.27L154.89,46.36L154.85,46.45L154.81,46.54L154.79,46.64L154.78,46.73L154.77,46.83L154.78,46.93L154.79,47.03L154.81,47.12L154.85,47.21L154.89,47.30L154.94,47.39L155.00,47.46L155.06,47.54L155.14,47.60L155.22,47.66L155.30,47.71L155.39,47.75L155.48,47.79L155.58,47.81L155.67,47.83L155.77,47.83L155.87,47.83L155.97,47.81L156.06,47.79L156.15,47.75L156.24,47.71L156.33,47.66L156.41,47.60L156.48,47.54L156.54,47.46L156.60,47.39L156.65,47.30L156.70,47.21L156.73,47.12L156.75,47.03L156.77,46.93z"/></g><g><path style="fill:#fffbf0" d="M172.51,51.53L243.37,51.53L243.37,46.76L172.51,46.76z"/><text xml:space="preserve" fill="#000000" stroke-width="0" x="173.11" y="50.19" font-size="3.33" opacity="1.00" font-family="OCR A Std">M3*6mm Pan Head Machine Screw</text></g></g><g><g><path style="stroke:#ff0000;stroke-width:0.500;stroke-dasharray:0.6 0.6" d="M156.17,50.92L165.35,58.18"/></g></g><g><g><path style="stroke:#ff0000;stroke-width:0.500;stroke-dasharray:0.6 0.6" d="M151.35,60.03L160.53,67.28"/><path style="stroke:#ff0000;stroke-width:0.500;stroke-dasharray:0.6 0.6" d="M168.33,73.45L172.49,76.74"/></g></g><g><g/></g><g><g><path style="stroke:#ff0000;stroke-width:0.500;stroke-dasharray:0.6 0.6" d="M218.81,75.35L227.62,82.71"/><path style="stroke:#ff0000;stroke-width:0.500;stroke-dasharray:0.6 0.6" d="M238.85,92.09L230.70,85.28"/></g></g><g><g><path style="stroke:#ff0000;stroke-width:0.500;stroke-dasharray:0.6 0.6" d="M214.01,84.43L223.19,91.58"/><path style="stroke:#ff0000;stroke-width:0.500;stroke-dasharray:0.6 0.6" d="M235.40,101.08L226.15,93.87"/></g></g><g><g><path style="stroke:#ff0000;stroke-width:0.500;stroke-dasharray:0.6 0.6" d="M114.51,92.23L102.53,113.79"/><path style="stroke:#ff0000;stroke-width:0.500;stroke-dasharray:0.6 0.6" d="M126.71,70.28L116.40,88.84"/></g></g><g><g><path style="stroke:#ff0000;stroke-width:0.500;stroke-dasharray:0.6 0.6" d="M109.79,88.23L97.84,109.96"/><path style="stroke:#ff0000;stroke-width:0.500;stroke-dasharray:0.6 0.6" d="M121.89,66.22L110.68,86.60"/></g></g><g><g/></g><g><g><path style="stroke:#ff0000;stroke-width:0.500;stroke-dasharray:0.6 0.6" d="M176.63,116.38L164.31,137.58"/><path style="stroke:#ff0000;stroke-width:0.500;stroke-dasharray:0.6 0.6" d="M189.26,94.67L177.81,114.36"/></g></g><g><g><path style="stroke:#ff0000;stroke-width:0.500;stroke-dasharray:0.6 0.6" d="M171.81,112.32L159.33,133.80"/><path style="stroke:#ff0000;stroke-width:0.500;stroke-dasharray:0.6 0.6" d="M184.43,90.61L172.70,110.80"/></g></g><g/><g id="paperID" visibility="hidden" opacity="0.00" transform="scale(0.000100)"><path style="stroke:#000000;stroke-width:0.500;fill:#e6e6e6;fill-rule:evenodd" d="M-2000.00,-2000.00L2297.00,-2000.00L2297.00,2210.00L-2000.00,2210.00zM0.00,0.00L297.00,0.00L297.00,210.00L0.00,210.00z"/><path style="fill:#000000;fill-opacity:0.118" d="M3.00,210.00L297.00,210.00L297.00,3.00L300.00,3.00L300.00,213.00L3.00,213.00z"/></g><g id="ToolTip" visibility="hidden" opacity="0" transform="translate(0,0)"><rect id="ToolTipShadow" opacity="0.20" fill="black" stroke="none" x="0" y="0" width="30" height="8"/><rect id="ToolTipBG" fill="#ffffe1" stroke="black" x="0" y="0" width="30" height="8"/><text xml:space="preserve" id="ToolTipText" fill="black" x="0" y="0" width="30" height="8">tooltip</text></g></g></svg>
