<?xml version="1.0" encoding="utf-8"?>
<!-- Generator: Adobe Illustrator 22.0.0, SVG Export Plug-In . SVG Version: 6.00 Build 0)  -->
<svg version="1.1" id="图层_1" xmlns="http://www.w3.org/2000/svg" xmlns:xlink="http://www.w3.org/1999/xlink" x="0px" y="0px"
	 viewBox="0 0 237.4 91.4" style="enable-background:new 0 0 237.4 91.4;" xml:space="preserve">
<style type="text/css">
	.st0{fill:none;stroke:#000000;stroke-width:0.75;stroke-miterlimit:10;}
	.st1{fill:none;stroke:#BE4341;stroke-width:0.75;stroke-miterlimit:10;}
	.st2{fill:#5195CC;}
	.st3{fill:#323333;}
	.st4{fill:#F8D17B;}
	.st5{fill:#CBCBCC;}
	.st6{fill:#5E5B5A;}
	.st7{fill:#757575;}
	.st8{fill:#DBBF82;}
	.st9{fill:#595959;}
	.st10{fill:#B9BABA;}
	.st11{fill:#615F5F;}
	.st12{fill:#CCCCCC;}
	.st13{fill:#8D8D8E;}
	.st14{fill:#D3D4D4;}
	.st15{fill:#8B8B8B;}
	.st16{fill:#AAABAB;}
	.st17{fill:#FFFFFF;}
	.st18{fill:#D5D5D6;}
	.st19{fill:#969797;}
	.st20{fill:none;stroke:#FFFFFF;stroke-width:0.9628;stroke-linecap:round;stroke-miterlimit:10;}
	.st21{fill:none;stroke:#FFFFFF;stroke-width:0.9628;stroke-linecap:round;stroke-linejoin:round;stroke-miterlimit:10;}
	.st22{fill:none;stroke:#FFFFFF;stroke-width:0.4525;stroke-linecap:round;stroke-miterlimit:10;}
	.st23{fill:#747374;}
	.st24{fill:#0099D9;}
	.st25{fill:none;stroke:#000000;stroke-width:0.9117;stroke-miterlimit:10;}
	.st26{fill:#868687;}
	.st27{fill:#EFEFEF;}
	.st28{fill:#6EC9F1;}
	.st29{fill:#949494;}
	.st30{fill:#494645;}
	.st31{fill:#B1A186;}
	.st32{fill:#9C9C9C;}
	.st33{fill:#575757;}
	.st34{fill:#545454;}
	.st35{fill:#D1D1D1;}
	.st36{fill:#C9C9C9;}
	.st37{fill:#474747;}
	.st38{fill:#969696;}
	.st39{fill:#C4C4C4;}
	.st40{fill:none;stroke:#FFFFFF;stroke-width:0.2279;stroke-miterlimit:10;}
	.st41{fill:#807F80;}
	.st42{fill:#A2A2A2;}
	.st43{fill:#CBCCCC;}
	.st44{fill:none;stroke:#FFFFFF;stroke-width:0.4558;stroke-linecap:round;stroke-linejoin:round;stroke-miterlimit:10;}
	.st45{fill:#8C8A8A;}
	.st46{fill:#040000;}
	.st47{fill:#A9A9A8;}
	.st48{fill:#525151;}
	.st49{fill:#8C8C8C;}
	.st50{fill:none;stroke:#FFFFFF;stroke-width:0.3183;stroke-linecap:round;stroke-linejoin:round;stroke-miterlimit:10;}
	.st51{fill:#CECFCE;}
	.st52{fill:#282828;}
	.st53{fill:#557D4E;}
	.st54{fill:#83B27A;}
	.st55{fill:#ABA8A8;}
	.st56{fill:#757373;}
	.st57{fill:#898989;}
	.st58{fill:#A6D290;}
	.st59{fill:#666666;}
	.st60{fill:#C7C7C7;}
	.st61{fill:#EC6C6D;}
	.st62{fill:#1D1E1E;}
	.st63{fill:#E1E0E0;}
	.st64{fill:#BDBDBC;}
	.st65{fill:#686969;}
	.st66{fill:#B8B32E;}
	.st67{fill:#F3EC30;}
	.st68{fill:#FBFDFF;}
	.st69{fill:none;stroke:#F08318;stroke-width:10.9277;stroke-linecap:round;stroke-linejoin:round;stroke-miterlimit:10;}
	.st70{fill:#EBEBEC;}
	.st71{fill:#D7D7D8;}
	.st72{fill:#E9EAEA;}
	.st73{fill:#E7B47C;}
	.st74{fill:#E8E8E8;}
	.st75{fill:none;}
	.st76{font-family:'MicrosoftYaHei';}
	.st77{font-size:9.1169px;}
	.st78{fill:#003F88;}
	.st79{fill:#0054A7;}
	.st80{fill:#B7B8B8;}
	.st81{fill:#EED18B;}
	.st82{fill:#F5A200;}
	.st83{fill:#E0E0E0;}
	.st84{fill:none;stroke:#040000;stroke-miterlimit:10;}
	.st85{fill:none;stroke:#E72823;stroke-miterlimit:10;}
	.st86{fill:none;stroke:#6AB82D;stroke-miterlimit:10;}
	.st87{fill:#C4C6C6;}
	.st88{fill:#A0A0A1;}
	.st89{fill:#F2F2F2;}
	.st90{fill:#CFCFCF;}
	.st91{fill:none;stroke:#353535;stroke-width:0.146;stroke-miterlimit:10;}
	.st92{fill:none;stroke:#353535;stroke-width:6.315500e-02;stroke-miterlimit:10;}
	.st93{fill:none;stroke:#353535;stroke-width:5.568400e-02;stroke-miterlimit:10;}
	.st94{fill:#353535;}
	.st95{fill:none;stroke:#000000;stroke-width:7.298800e-02;stroke-miterlimit:10;}
	.st96{fill:#3E3F40;}
	.st97{fill:#FBD7AF;}
	.st98{font-family:'MicrosoftYaHei-Bold';}
	.st99{font-size:3.5px;}
</style>
<rect x="114.4" y="76.5" class="st2" width="123" height="14.9"/>
<rect x="0.1" y="76.5" class="st2" width="114.2" height="14.9"/>
<rect x="66.7" y="78" class="st75" width="101" height="8.9"/>
<text transform="matrix(1 0 0 1 88.205 85.8186)" class="st17 st76 st77">超声波传感器</text>
<path class="st3" d="M163,14H71.6c-3.9,0-7.1,3.2-7.1,7.1v34.5c0,3.9,3.2,7.1,7.1,7.1H163c3.9,0,7.1-3.2,7.1-7.1V21.1
	C170.1,17.2,166.9,14,163,14z M165.4,21.6c0,2-1.6,3.6-3.6,3.6c-2,0-3.6-1.6-3.6-3.6s1.6-3.6,3.6-3.6
	C163.8,18,165.4,19.6,165.4,21.6z M158.3,55.2c0-2,1.6-3.6,3.6-3.6c2,0,3.6,1.6,3.6,3.6c0,2-1.6,3.6-3.6,3.6
	C159.9,58.8,158.3,57.2,158.3,55.2z M76.4,21.6c0,2-1.6,3.6-3.6,3.6c-2,0-3.6-1.6-3.6-3.6s1.6-3.6,3.6-3.6
	C74.8,18,76.4,19.6,76.4,21.6z M69.2,55.2c0-2,1.6-3.6,3.6-3.6c2,0,3.6,1.6,3.6,3.6c0,2-1.6,3.6-3.6,3.6
	C70.8,58.8,69.2,57.2,69.2,55.2z"/>
<g>
	<g>
		<circle class="st17" cx="93" cy="38.6" r="15.2"/>
		<g>
			<path class="st46" d="M93,21c-9.7,0-17.6,7.9-17.6,17.6c0,9.7,7.9,17.6,17.6,17.6c9.7,0,17.6-7.9,17.6-17.6
				C110.6,28.9,102.7,21,93,21z M104.8,30.7l-0.2,0.1l-0.4,0.2l-1,0.6c-2-3-5.4-5.1-9.3-5.4v-1.8C98.5,24.7,102.4,27.1,104.8,30.7
				L104.8,30.7L104.8,30.7z M103.7,38.6c0,1.6-0.4,3.1-1,4.5l-1.5-0.9c0.5-1.1,0.8-2.3,0.8-3.6c0-1.3-0.3-2.5-0.8-3.6
				c-0.3-0.6-0.6-1.1-0.9-1.6c-1.4-2-3.7-3.4-6.3-3.6V28c3.2,0.3,6,2,7.8,4.5c0.4,0.5,0.7,1,0.9,1.6C103.3,35.4,103.7,37,103.7,38.6
				z M92.1,49.2c-3.2-0.3-6-2-7.8-4.5h0l1.1-0.6l0.4-0.2c1.5,2,3.7,3.3,6.3,3.6c0.3,0,0.6,0,0.9,0c0.3,0,0.6,0,0.9,0
				c2.6-0.3,4.8-1.6,6.3-3.6l1.5,0.9c-1.8,2.5-4.6,4.2-7.8,4.5c-0.3,0-0.6,0.1-0.9,0.1C92.7,49.2,92.4,49.2,92.1,49.2z M100.5,38.6
				c0,1-0.2,2-0.6,2.9l-1.4-0.8c0.2-0.6,0.4-1.3,0.4-2.1c0-0.7-0.1-1.4-0.4-2l1.4-0.8C100.2,36.6,100.5,37.6,100.5,38.6z M85.6,38.6
				c0-1,0.2-2,0.6-2.9l1.4,0.8c-0.3,0.6-0.4,1.3-0.4,2c0,0.7,0.1,1.4,0.4,2.1l-1.4,0.8C85.8,40.6,85.6,39.6,85.6,38.6z M97.3,37.2
				c0.1,0.4,0.2,0.9,0.2,1.4c0,0.5-0.1,0.9-0.2,1.4c-0.2,0.6-0.5,1.2-0.9,1.6c-0.6,0.7-1.4,1.2-2.4,1.4C93.7,43,93.3,43,93,43
				c-0.1,0-0.3,0-0.4,0c-0.1,0-0.1,0-0.2,0c-0.1,0-0.1,0-0.2,0c0,0-0.1,0-0.2,0c-0.9-0.2-1.8-0.7-2.4-1.4c-0.4-0.5-0.7-1-0.9-1.6
				c-0.1-0.4-0.2-0.9-0.2-1.4c0-0.5,0.1-0.9,0.2-1.4c0.2-0.6,0.5-1.2,0.9-1.6c0.6-0.7,1.4-1.2,2.4-1.4c0.3-0.1,0.6-0.1,0.9-0.1
				c0.1,0,0.1,0,0.2,0c0.1,0,0.2,0,0.3,0c0.1,0,0.3,0,0.4,0.1c0.9,0.2,1.8,0.7,2.4,1.4C96.7,36,97.1,36.6,97.3,37.2z M92.1,32.9
				c-1.4,0.2-2.7,1-3.5,2l-1.4-0.8c1.2-1.6,2.9-2.6,5-2.9V32.9z M88.5,42.2c0.9,1.1,2.1,1.8,3.5,2v1.7c-2-0.3-3.8-1.3-5-2.9
				L88.5,42.2z M94,44.3c1.4-0.2,2.7-1,3.5-2l1.4,0.8c-1.2,1.6-3,2.6-5,2.9V44.3z M98.9,34.1l-1.4,0.8c-0.9-1.1-2.1-1.8-3.5-2v-1.7
				C96,31.4,97.8,32.5,98.9,34.1L98.9,34.1L98.9,34.1z M92.1,29.7c-2.6,0.3-4.8,1.6-6.3,3.6c-0.4,0.5-0.7,1-0.9,1.6
				c-0.5,1.1-0.8,2.3-0.8,3.6c0,1.3,0.3,2.5,0.8,3.6l-1.5,0.9c-0.6-1.4-1-2.9-1-4.5c0-1.6,0.4-3.1,1-4.5c0,0,0.1-0.1,0.1-0.2
				c0.1-0.2,0.2-0.4,0.3-0.7c0.2-0.3,0.3-0.5,0.5-0.8c1.8-2.5,4.6-4.2,7.8-4.5V29.7z M92.1,24.4v1.8c-3.8,0.3-7.2,2.3-9.3,5.4
				l-0.6-0.3L82,31.2l-0.8-0.5v0h0C83.6,27.1,87.6,24.7,92.1,24.4z M80.3,32.3l1.6,0.9c-0.8,1.6-1.2,3.4-1.2,5.4
				c0,1.9,0.4,3.8,1.2,5.4l-1.6,0.9c-0.9-1.9-1.5-4-1.5-6.3C78.9,36.3,79.4,34.2,80.3,32.3z M81.2,46.4l1.6-0.9
				c2.1,3,5.4,5.1,9.3,5.4v1.8C87.6,52.4,83.6,50,81.2,46.4L81.2,46.4L81.2,46.4z M94,50.9c3.8-0.3,7.2-2.3,9.3-5.4h0l0.6,0.3l1,0.6
				v0h0c-2.4,3.5-6.3,6-10.8,6.3V50.9z M105.7,44.8L105.7,44.8l-1.6-0.9c0.8-1.6,1.2-3.4,1.2-5.4c0-1.9-0.4-3.7-1.2-5.4l1.6-0.9
				c0.9,1.9,1.5,4,1.5,6.3C107.2,40.8,106.7,42.9,105.7,44.8z"/>
			<path class="st46" d="M93,22.8c-8.7,0-15.8,7.1-15.8,15.8c0,8.7,7.1,15.8,15.8,15.8c8.7,0,15.8-7.1,15.8-15.8
				C108.8,29.8,101.7,22.8,93,22.8z M105.7,44.8L105.7,44.8l-1.6-0.9c0.8-1.6,1.2-3.4,1.2-5.4c0-1.9-0.4-3.7-1.2-5.4l1.6-0.9
				c0.9,1.9,1.5,4,1.5,6.3C107.2,40.8,106.7,42.9,105.7,44.8z M92.1,49.2c-3.2-0.3-6-2-7.8-4.5h0l1.1-0.6l0.4-0.2
				c1.5,2,3.7,3.3,6.3,3.6c0.3,0,0.6,0,0.9,0c0.3,0,0.6,0,0.9,0c2.6-0.3,4.8-1.6,6.3-3.6l1.5,0.9c-1.8,2.5-4.6,4.2-7.8,4.5
				c-0.3,0-0.6,0.1-0.9,0.1C92.7,49.2,92.4,49.2,92.1,49.2z M100.5,38.6c0,1-0.2,2-0.6,2.9l-1.4-0.8c0.2-0.6,0.4-1.3,0.4-2.1
				c0-0.7-0.1-1.4-0.4-2l1.4-0.8C100.2,36.6,100.5,37.6,100.5,38.6z M85.6,38.6c0-1,0.2-2,0.6-2.9l1.4,0.8c-0.3,0.6-0.4,1.3-0.4,2
				c0,0.7,0.1,1.4,0.4,2.1l-1.4,0.8C85.8,40.6,85.6,39.6,85.6,38.6z M97.3,37.2c0.1,0.4,0.2,0.9,0.2,1.4c0,0.5-0.1,0.9-0.2,1.4
				c-0.2,0.6-0.5,1.2-0.9,1.6c-0.6,0.7-1.4,1.2-2.4,1.4C93.7,43,93.3,43,93,43c-0.1,0-0.3,0-0.4,0c-0.1,0-0.1,0-0.2,0
				c-0.1,0-0.1,0-0.2,0c0,0-0.1,0-0.2,0c-0.9-0.2-1.8-0.7-2.4-1.4c-0.4-0.5-0.7-1-0.9-1.6c-0.1-0.4-0.2-0.9-0.2-1.4
				c0-0.5,0.1-0.9,0.2-1.4c0.2-0.6,0.5-1.2,0.9-1.6c0.6-0.7,1.4-1.2,2.4-1.4c0.3-0.1,0.6-0.1,0.9-0.1c0.1,0,0.1,0,0.2,0
				c0.1,0,0.2,0,0.3,0c0.1,0,0.3,0,0.4,0.1c0.9,0.2,1.8,0.7,2.4,1.4C96.7,36,97.1,36.6,97.3,37.2z M92.1,32.9c-1.4,0.2-2.7,1-3.5,2
				l-1.4-0.8c1.2-1.6,2.9-2.6,5-2.9V32.9z M88.5,42.2c0.9,1.1,2.1,1.8,3.5,2v1.7c-2-0.3-3.8-1.3-5-2.9L88.5,42.2z M94,44.3
				c1.4-0.2,2.7-1,3.5-2l1.4,0.8c-1.2,1.6-3,2.6-5,2.9V44.3z M98.9,34.1l-1.4,0.8c-0.9-1.1-2.1-1.8-3.5-2v-1.7
				C96,31.4,97.8,32.5,98.9,34.1L98.9,34.1L98.9,34.1z M92.1,29.7c-2.6,0.3-4.8,1.6-6.3,3.6c-0.4,0.5-0.7,1-0.9,1.6
				c-0.5,1.1-0.8,2.3-0.8,3.6c0,1.3,0.3,2.5,0.8,3.6l-1.5,0.9c-0.6-1.4-1-2.9-1-4.5c0-1.6,0.4-3.1,1-4.5c0,0,0.1-0.1,0.1-0.2
				c0.1-0.2,0.2-0.4,0.3-0.7c0.2-0.3,0.3-0.5,0.5-0.8c1.8-2.5,4.6-4.2,7.8-4.5V29.7z M101.2,42.2c0.5-1.1,0.8-2.3,0.8-3.6
				c0-1.3-0.3-2.5-0.8-3.6c-0.3-0.6-0.6-1.1-0.9-1.6c-1.4-2-3.7-3.4-6.3-3.6V28c3.2,0.3,6,2,7.8,4.5c0.4,0.5,0.7,1,0.9,1.6
				c0.6,1.4,1,2.9,1,4.5c0,1.6-0.4,3.1-1,4.5L101.2,42.2z M104.8,30.7L104.8,30.7l-0.2,0.1l-0.4,0.2l-1,0.6c-2-3-5.4-5.1-9.3-5.4
				v-1.8C98.5,24.7,102.4,27.1,104.8,30.7L104.8,30.7z M92.1,24.4v1.8c-3.8,0.3-7.2,2.3-9.3,5.4l-0.6-0.3L82,31.2l-0.8-0.5v0h0
				C83.6,27.1,87.6,24.7,92.1,24.4z M80.3,32.3l1.6,0.9c-0.8,1.6-1.2,3.4-1.2,5.4c0,1.9,0.4,3.8,1.2,5.4l-1.6,0.9
				c-0.9-1.9-1.5-4-1.5-6.3C78.9,36.3,79.4,34.2,80.3,32.3z M81.2,46.5L81.2,46.5l1.6-0.9c2.1,3,5.4,5.1,9.3,5.4v1.8
				C87.6,52.4,83.6,50,81.2,46.5L81.2,46.5z M94,52.7v-1.8c3.8-0.3,7.2-2.3,9.3-5.4h0l0.6,0.3l1,0.6v0h0C102.4,50,98.5,52.4,94,52.7
				z"/>
			<path class="st46" d="M104.2,43.9c0.8-1.6,1.2-3.4,1.2-5.4c0-1.9-0.4-3.7-1.2-5.4l1.6-0.9c0,0,0,0,0,0c-0.3-0.6-0.6-1.1-0.9-1.6
				l-0.2,0.1l-0.4,0.2l-1,0.6c-2-3-5.4-5.1-9.3-5.4v-1.8c-0.3,0-0.6,0-0.9,0c-0.3,0-0.6,0-0.9,0v1.8c-3.8,0.3-7.2,2.3-9.3,5.4
				l-0.6-0.3L82,31.2l-0.8-0.5c-0.3,0.5-0.7,1.1-0.9,1.6l1.6,0.9c-0.8,1.6-1.2,3.4-1.2,5.4c0,1.9,0.4,3.8,1.2,5.4l-1.6,0.9
				c0.3,0.6,0.6,1.1,0.9,1.6l1.6-0.9c2.1,3,5.4,5.1,9.3,5.4v1.8c0.3,0,0.6,0,0.9,0c0.3,0,0.6,0,0.9,0v-1.8c3.8-0.3,7.2-2.3,9.3-5.4
				h0l0.6,0.3l1,0.6c0.4-0.5,0.7-1,0.9-1.6h0L104.2,43.9z M101.7,32.5c0.4,0.5,0.7,1,0.9,1.6c0.6,1.4,1,2.9,1,4.5
				c0,1.6-0.4,3.1-1,4.5l-1.5-0.9c0.5-1.1,0.8-2.3,0.8-3.6c0-1.3-0.3-2.5-0.8-3.6c-0.3-0.6-0.6-1.1-0.9-1.6c-1.4-2-3.7-3.4-6.3-3.6
				V28C97.2,28.3,100,30,101.7,32.5z M85.6,38.6c0-1,0.2-2,0.6-2.9l1.4,0.8c-0.3,0.6-0.4,1.3-0.4,2c0,0.7,0.1,1.4,0.4,2.1l-1.4,0.8
				C85.8,40.6,85.6,39.6,85.6,38.6z M100.5,38.6c0,1-0.2,2-0.6,2.9l-1.4-0.8c0.2-0.6,0.4-1.3,0.4-2.1c0-0.7-0.1-1.4-0.4-2l1.4-0.8
				C100.2,36.6,100.5,37.6,100.5,38.6z M96.3,41.6c-0.6,0.7-1.4,1.2-2.4,1.4C93.7,43,93.3,43,93,43c-0.1,0-0.3,0-0.4,0
				c-0.1,0-0.1,0-0.2,0c-0.1,0-0.1,0-0.2,0c0,0-0.1,0-0.2,0c-0.9-0.2-1.8-0.7-2.4-1.4c-0.4-0.5-0.7-1-0.9-1.6
				c-0.1-0.4-0.2-0.9-0.2-1.4c0-0.5,0.1-0.9,0.2-1.4c0.2-0.6,0.5-1.2,0.9-1.6c0.6-0.7,1.4-1.2,2.4-1.4c0.3-0.1,0.6-0.1,0.9-0.1
				c0.1,0,0.1,0,0.2,0c0.1,0,0.2,0,0.3,0c0.1,0,0.3,0,0.4,0.1c0.9,0.2,1.8,0.7,2.4,1.4c0.4,0.5,0.7,1,0.9,1.6
				c0.1,0.4,0.2,0.9,0.2,1.4c0,0.5-0.1,0.9-0.2,1.4C97.1,40.5,96.7,41.1,96.3,41.6z M98.9,34.1l-1.4,0.8c-0.9-1.1-2.1-1.8-3.5-2
				v-1.7C96,31.4,97.8,32.5,98.9,34.1L98.9,34.1L98.9,34.1z M92.1,32.9c-1.4,0.2-2.7,1-3.5,2l-1.4-0.8c1.2-1.6,2.9-2.6,5-2.9V32.9z
				 M88.5,42.2c0.9,1.1,2.1,1.8,3.5,2v1.7c-2-0.3-3.8-1.3-5-2.9L88.5,42.2z M94,44.3c1.4-0.2,2.7-1,3.5-2l1.4,0.8
				c-1.2,1.6-3,2.6-5,2.9V44.3z M92.1,28v1.7c-2.6,0.3-4.8,1.6-6.3,3.6c-0.4,0.5-0.7,1-0.9,1.6c-0.5,1.1-0.8,2.3-0.8,3.6
				c0,1.3,0.3,2.5,0.8,3.6l-1.5,0.9c-0.6-1.4-1-2.9-1-4.5c0-1.6,0.4-3.1,1-4.5c0,0,0.1-0.1,0.1-0.2c0.1-0.2,0.2-0.4,0.3-0.7
				c0.2-0.3,0.3-0.5,0.5-0.8C86.1,30,88.9,28.3,92.1,28z M94,49.2c-0.3,0-0.6,0.1-0.9,0.1c-0.3,0-0.6,0-0.9-0.1
				c-3.2-0.3-6-2-7.8-4.5h0l1.1-0.6l0.4-0.2c1.5,2,3.7,3.3,6.3,3.6c0.3,0,0.6,0,0.9,0c0.3,0,0.6,0,0.9,0c2.6-0.3,4.8-1.6,6.3-3.6
				l1.5,0.9C100,47.2,97.2,48.9,94,49.2z"/>
			<path class="st46" d="M104.2,33.2c-0.3-0.6-0.6-1.1-0.9-1.6c0,0,0,0,0,0c-2-3-5.4-5.1-9.3-5.4c-0.3,0-0.6,0-0.9,0
				c-0.3,0-0.6,0-0.9,0c-3.8,0.3-7.2,2.3-9.3,5.4v0c-0.3,0.5-0.7,1-0.9,1.6c-0.8,1.6-1.2,3.4-1.2,5.4c0,1.9,0.4,3.8,1.2,5.4
				c0.3,0.6,0.6,1.1,0.9,1.6c2.1,3,5.4,5.1,9.3,5.4c0.3,0,0.6,0,0.9,0c0.3,0,0.6,0,0.9,0c3.8-0.3,7.2-2.3,9.3-5.4
				c0.4-0.5,0.7-1.1,0.9-1.6c0.8-1.6,1.2-3.4,1.2-5.4C105.4,36.7,104.9,34.8,104.2,33.2z M100.5,38.6c0,1-0.2,2-0.6,2.9l-1.4-0.8
				c0.2-0.6,0.4-1.3,0.4-2.1c0-0.7-0.1-1.4-0.4-2l1.4-0.8C100.2,36.6,100.5,37.6,100.5,38.6z M85.6,38.6c0-1,0.2-2,0.6-2.9l1.4,0.8
				c-0.3,0.6-0.4,1.3-0.4,2c0,0.7,0.1,1.4,0.4,2.1l-1.4,0.8C85.8,40.6,85.6,39.6,85.6,38.6z M97.3,37.2c0.1,0.4,0.2,0.9,0.2,1.4
				c0,0.5-0.1,0.9-0.2,1.4c-0.2,0.6-0.5,1.2-0.9,1.6c-0.6,0.7-1.4,1.2-2.4,1.4C93.7,43,93.3,43,93,43c-0.1,0-0.3,0-0.4,0
				c-0.1,0-0.1,0-0.2,0c-0.1,0-0.1,0-0.2,0c0,0-0.1,0-0.2,0c-0.9-0.2-1.8-0.7-2.4-1.4c-0.4-0.5-0.7-1-0.9-1.6
				c-0.1-0.4-0.2-0.9-0.2-1.4c0-0.5,0.1-0.9,0.2-1.4c0.2-0.6,0.5-1.2,0.9-1.6c0.6-0.7,1.4-1.2,2.4-1.4c0.3-0.1,0.6-0.1,0.9-0.1
				c0.1,0,0.1,0,0.2,0c0.1,0,0.2,0,0.3,0c0.1,0,0.3,0,0.4,0.1c0.9,0.2,1.8,0.7,2.4,1.4C96.7,36,97.1,36.6,97.3,37.2z M92.1,32.9
				c-1.4,0.2-2.7,1-3.5,2l-1.4-0.8c1.2-1.6,2.9-2.6,5-2.9V32.9z M88.5,42.2c0.9,1.1,2.1,1.8,3.5,2v1.7c-2-0.3-3.8-1.3-5-2.9
				L88.5,42.2z M94,44.3c1.4-0.2,2.7-1,3.5-2l1.4,0.8c-1.2,1.6-3,2.6-5,2.9V44.3z M98.9,34.1l-1.4,0.8c-0.9-1.1-2.1-1.8-3.5-2v-1.7
				C96,31.4,97.8,32.5,98.9,34.1L98.9,34.1L98.9,34.1z M92.1,28v1.7c-2.6,0.3-4.8,1.6-6.3,3.6c-0.4,0.5-0.7,1-0.9,1.6
				c-0.5,1.1-0.8,2.3-0.8,3.6c0,1.3,0.3,2.5,0.8,3.6l-1.5,0.9c-0.6-1.4-1-2.9-1-4.5c0-1.6,0.4-3.1,1-4.5c0,0,0.1-0.1,0.1-0.2
				c0.1-0.2,0.2-0.4,0.3-0.7c0.2-0.3,0.3-0.5,0.5-0.8C86.1,30,88.9,28.3,92.1,28z M94,49.2c-0.3,0-0.6,0.1-0.9,0.1
				c-0.3,0-0.6,0-0.9-0.1c-3.2-0.3-6-2-7.8-4.5h0l1.1-0.6l0.4-0.2c1.5,2,3.7,3.3,6.3,3.6c0.3,0,0.6,0,0.9,0c0.3,0,0.6,0,0.9,0
				c2.6-0.3,4.8-1.6,6.3-3.6l1.5,0.9C100,47.2,97.2,48.9,94,49.2z M101.2,42.2c0.5-1.1,0.8-2.3,0.8-3.6c0-1.3-0.3-2.5-0.8-3.6
				c-0.3-0.6-0.6-1.1-0.9-1.6c-1.4-2-3.7-3.4-6.3-3.6V28c3.2,0.3,6,2,7.8,4.5c0.4,0.5,0.7,1,0.9,1.6c0.6,1.4,1,2.9,1,4.5
				c0,1.6-0.4,3.1-1,4.5L101.2,42.2z"/>
			<path class="st46" d="M101.2,42.2c0.5-1.1,0.8-2.3,0.8-3.6c0-1.3-0.3-2.5-0.8-3.6c-0.3-0.6-0.6-1.1-0.9-1.6
				c-1.4-2-3.7-3.4-6.3-3.6V28c-0.3,0-0.6,0-0.9,0c-0.3,0-0.6,0-0.9,0v1.7c-2.6,0.3-4.8,1.6-6.3,3.6c-0.4,0.5-0.7,1-0.9,1.6
				c-0.5,1.1-0.8,2.3-0.8,3.6c0,1.3,0.3,2.5,0.8,3.6l-1.5,0.9c0.3,0.6,0.6,1.1,0.9,1.6h0l1.1-0.6l0.4-0.2c1.5,2,3.7,3.3,6.3,3.6
				c0.3,0,0.6,0,0.9,0c0.3,0,0.6,0,0.9,0c2.6-0.3,4.8-1.6,6.3-3.6l1.5,0.9c0.4-0.5,0.7-1,0.9-1.6L101.2,42.2z M100.5,38.6
				c0,1-0.2,2-0.6,2.9l-1.4-0.8c0.2-0.6,0.4-1.3,0.4-2.1c0-0.7-0.1-1.4-0.4-2l1.4-0.8C100.2,36.6,100.5,37.6,100.5,38.6z M96.3,41.6
				c-0.6,0.7-1.4,1.2-2.4,1.4C93.7,43,93.3,43,93,43c-0.1,0-0.3,0-0.4,0c-0.1,0-0.1,0-0.2,0c-0.1,0-0.1,0-0.2,0c0,0-0.1,0-0.2,0
				c-0.9-0.2-1.8-0.7-2.4-1.4c-0.4-0.5-0.7-1-0.9-1.6c-0.1-0.4-0.2-0.9-0.2-1.4c0-0.5,0.1-0.9,0.2-1.4c0.2-0.6,0.5-1.2,0.9-1.6
				c0.6-0.7,1.4-1.2,2.4-1.4c0.3-0.1,0.6-0.1,0.9-0.1c0.1,0,0.1,0,0.2,0c0.1,0,0.2,0,0.3,0c0.1,0,0.3,0,0.4,0.1
				c0.9,0.2,1.8,0.7,2.4,1.4c0.4,0.5,0.7,1,0.9,1.6c0.1,0.4,0.2,0.9,0.2,1.4c0,0.5-0.1,0.9-0.2,1.4C97.1,40.5,96.7,41.1,96.3,41.6z
				 M98.9,34.1L98.9,34.1L98.9,34.1l-1.4,0.8c-0.9-1.1-2.1-1.8-3.5-2v-1.7C96,31.4,97.8,32.5,98.9,34.1z M92.1,31.2v1.7
				c-1.4,0.2-2.7,1-3.5,2l-1.4-0.8C88.3,32.5,90.1,31.4,92.1,31.2z M85.6,38.6c0-1,0.2-2,0.6-2.9l1.4,0.8c-0.3,0.6-0.4,1.3-0.4,2
				c0,0.7,0.1,1.4,0.4,2.1l-1.4,0.8C85.8,40.6,85.6,39.6,85.6,38.6z M87.1,43.1l1.4-0.8c0.9,1.1,2.1,1.8,3.5,2v1.7
				C90.1,45.7,88.3,44.6,87.1,43.1z M94,45.9v-1.7c1.4-0.2,2.7-1,3.5-2l1.4,0.8C97.8,44.6,96,45.7,94,45.9z"/>
			<path class="st46" d="M101.2,34.9c-0.3-0.6-0.6-1.1-0.9-1.6c-1.4-2-3.7-3.4-6.3-3.6c-0.3,0-0.6,0-0.9,0c-0.3,0-0.6,0-0.9,0
				c-2.6,0.3-4.8,1.6-6.3,3.6c-0.4,0.5-0.7,1-0.9,1.6c-0.5,1.1-0.8,2.3-0.8,3.6c0,1.3,0.3,2.5,0.8,3.6c0.3,0.6,0.6,1.1,0.9,1.6v0
				c1.5,2,3.7,3.3,6.3,3.6c0.3,0,0.6,0,0.9,0c0.3,0,0.6,0,0.9,0c2.6-0.3,4.8-1.6,6.3-3.6v0c0.4-0.5,0.7-1,0.9-1.6
				c0.5-1.1,0.8-2.3,0.8-3.6C101.9,37.3,101.7,36,101.2,34.9z M98.9,34.1L98.9,34.1L98.9,34.1l-1.4,0.8c-0.9-1.1-2.1-1.8-3.5-2v-1.7
				C96,31.4,97.8,32.5,98.9,34.1z M97.5,38.6c0,0.5-0.1,0.9-0.2,1.4c-0.2,0.6-0.5,1.2-0.9,1.6c-0.6,0.7-1.4,1.2-2.4,1.4
				C93.7,43,93.3,43,93,43c-0.1,0-0.3,0-0.4,0c-0.1,0-0.1,0-0.2,0c-0.1,0-0.1,0-0.2,0c0,0-0.1,0-0.2,0c-0.9-0.2-1.8-0.7-2.4-1.4
				c-0.4-0.5-0.7-1-0.9-1.6c-0.1-0.4-0.2-0.9-0.2-1.4c0-0.5,0.1-0.9,0.2-1.4c0.2-0.6,0.5-1.2,0.9-1.6c0.6-0.7,1.4-1.2,2.4-1.4
				c0.3-0.1,0.6-0.1,0.9-0.1c0.1,0,0.1,0,0.2,0c0.1,0,0.2,0,0.3,0c0.1,0,0.3,0,0.4,0.1c0.9,0.2,1.8,0.7,2.4,1.4
				c0.4,0.5,0.7,1,0.9,1.6C97.4,37.6,97.5,38.1,97.5,38.6z M92.1,31.2v1.7c-1.4,0.2-2.7,1-3.5,2l-1.4-0.8
				C88.3,32.5,90.1,31.4,92.1,31.2z M85.6,38.6c0-1,0.2-2,0.6-2.9l1.4,0.8c-0.3,0.6-0.4,1.3-0.4,2c0,0.7,0.1,1.4,0.4,2.1l-1.4,0.8
				C85.8,40.6,85.6,39.6,85.6,38.6z M87.1,43.1l1.4-0.8c0.9,1.1,2.1,1.8,3.5,2v1.7C90.1,45.7,88.3,44.6,87.1,43.1z M94,45.9v-1.7
				c1.4-0.2,2.7-1,3.5-2l1.4,0.8C97.8,44.6,96,45.7,94,45.9z M98.4,40.6c0.2-0.6,0.4-1.3,0.4-2.1c0-0.7-0.1-1.4-0.4-2l1.4-0.8
				c0.4,0.9,0.6,1.9,0.6,2.9c0,1-0.2,2-0.6,2.9L98.4,40.6z"/>
			<path class="st46" d="M98.8,38.6c0-0.7-0.1-1.4-0.4-2l1.4-0.8c-0.3-0.6-0.6-1.1-0.9-1.6l-1.4,0.8c-0.9-1.1-2.1-1.8-3.5-2v-1.7
				c-0.3,0-0.6-0.1-0.9-0.1c-0.3,0-0.6,0-0.9,0.1v1.7c-1.4,0.2-2.7,1-3.5,2l-1.4-0.8c-0.4,0.5-0.7,1-0.9,1.6l1.4,0.8
				c-0.3,0.6-0.4,1.3-0.4,2c0,0.7,0.1,1.4,0.4,2.1l-1.4,0.8c0.2,0.6,0.6,1.1,0.9,1.6l1.4-0.8c0.9,1.1,2.1,1.8,3.5,2v1.7
				c0.3,0,0.6,0.1,0.9,0.1c0.3,0,0.6,0,0.9-0.1v-1.7c1.4-0.2,2.7-1,3.5-2l1.4,0.8c0.4-0.5,0.7-1,0.9-1.6l-1.4-0.8
				C98.7,40,98.8,39.3,98.8,38.6z M96.3,41.6c-0.6,0.7-1.4,1.2-2.4,1.4C93.7,43,93.3,43,93,43c-0.1,0-0.3,0-0.4,0
				c-0.1,0-0.1,0-0.2,0c-0.1,0-0.1,0-0.2,0c0,0-0.1,0-0.2,0c-0.9-0.2-1.8-0.7-2.4-1.4c-0.4-0.5-0.7-1-0.9-1.6
				c-0.1-0.4-0.2-0.9-0.2-1.4c0-0.5,0.1-0.9,0.2-1.4c0.2-0.6,0.5-1.2,0.9-1.6c0.6-0.7,1.4-1.2,2.4-1.4c0.3-0.1,0.6-0.1,0.9-0.1
				c0.1,0,0.1,0,0.2,0c0.1,0,0.2,0,0.3,0c0.1,0,0.3,0,0.4,0.1c0.9,0.2,1.8,0.7,2.4,1.4c0.4,0.5,0.7,1,0.9,1.6
				c0.1,0.4,0.2,0.9,0.2,1.4c0,0.5-0.1,0.9-0.2,1.4C97.1,40.5,96.7,41.1,96.3,41.6z"/>
			<path class="st46" d="M98.4,36.5c-0.2-0.6-0.6-1.1-0.9-1.6c-0.9-1.1-2.1-1.8-3.5-2c-0.3-0.1-0.6-0.1-0.9-0.1
				c-0.3,0-0.6,0-0.9,0.1c-1.4,0.2-2.7,1-3.5,2c-0.4,0.5-0.7,1-0.9,1.6c-0.3,0.6-0.4,1.3-0.4,2c0,0.7,0.1,1.4,0.4,2.1
				c0.2,0.6,0.5,1.1,0.9,1.6c0.9,1.1,2.1,1.8,3.5,2c0.3,0,0.6,0.1,0.9,0.1c0.3,0,0.6,0,0.9-0.1c1.4-0.2,2.7-1,3.5-2
				c0.4-0.5,0.7-1,0.9-1.6c0.2-0.6,0.4-1.3,0.4-2.1C98.8,37.8,98.7,37.2,98.4,36.5z M96.3,41.6c-0.6,0.7-1.4,1.2-2.4,1.4
				C93.7,43,93.3,43,93,43c-0.1,0-0.3,0-0.4,0c-0.1,0-0.1,0-0.2,0c-0.1,0-0.1,0-0.2,0c0,0-0.1,0-0.2,0c-0.9-0.2-1.8-0.7-2.4-1.4
				c-0.4-0.5-0.7-1-0.9-1.6c-0.1-0.4-0.2-0.9-0.2-1.4c0-0.5,0.1-0.9,0.2-1.4c0.2-0.6,0.5-1.2,0.9-1.6c0.6-0.7,1.4-1.2,2.4-1.4
				c0.3-0.1,0.6-0.1,0.9-0.1c0.1,0,0.1,0,0.2,0c0.1,0,0.2,0,0.3,0c0.1,0,0.3,0,0.4,0.1c0.9,0.2,1.8,0.7,2.4,1.4
				c0.4,0.5,0.7,1,0.9,1.6c0.1,0.4,0.2,0.9,0.2,1.4c0,0.5-0.1,0.9-0.2,1.4C97.1,40.5,96.7,41.1,96.3,41.6z"/>
			<path class="st46" d="M92.1,53.5v-4.3c0.3,0,0.6,0,0.9,0c0.3,0,0.6,0,0.9,0v4.3H92.1z"/>
			<path class="st46" d="M92.1,47.4v-4.5C92.4,43,92.7,43,93,43c0.3,0,0.6,0,0.9-0.1v4.5c-0.3,0-0.6,0-0.9,0S92.4,47.5,92.1,47.4z"
				/>
			<path class="st46" d="M92.1,34.2V23.6h1.9v10.6c-0.3-0.1-0.6-0.1-0.9-0.1C92.7,34.1,92.4,34.1,92.1,34.2z"/>
			<path class="st46" d="M102.7,34.1c-0.3-0.6-0.6-1.1-0.9-1.6l1.5-0.9l1.6-0.9l0.7-0.4l0.9,1.6l-0.7,0.4l-1.6,0.9L102.7,34.1z"/>
			<path class="st46" d="M96.3,35.6l1.2-0.7l1.4-0.8l1.3-0.7c0.4,0.5,0.7,1,0.9,1.6l-1.3,0.7l-1.4,0.8l-1.2,0.7
				C97.1,36.6,96.7,36,96.3,35.6z"/>
			<path class="st46" d="M79.6,45.2l0.7-0.4l1.6-0.9l1.5-0.9l1.5-0.9l1.3-0.7l1.4-0.8l1.2-0.7c0.2,0.6,0.5,1.2,0.9,1.6l-1.2,0.7
				l-1.4,0.8l-1.3,0.7l-1.5,0.9l-1.5,0.9l-1.6,0.9l-0.7,0.4L79.6,45.2z"/>
			<path class="st46" d="M96.3,41.6c0.4-0.5,0.7-1,0.9-1.6l1.2,0.7l1.4,0.8l1.3,0.7l1.5,0.9l1.5,0.9l1.6,0.9l0.7,0.4l-0.9,1.6
				l-0.7-0.4l-1.6-0.9l-1.5-0.9l-1.5-0.9l-1.3-0.7l-1.4-0.8L96.3,41.6z"/>
			<path class="st46" d="M84.9,34.9c0.3-0.6,0.6-1.1,0.9-1.6l1.3,0.7l1.4,0.8l1.2,0.7c-0.4,0.5-0.7,1-0.9,1.6l-1.2-0.7l-1.4-0.8
				L84.9,34.9z"/>
			<path class="st46" d="M79.6,31.9l0.9-1.6l0.7,0.4l1.6,0.9l1.5,0.9c-0.4,0.5-0.7,1-0.9,1.6l-1.5-0.9l-1.6-0.9L79.6,31.9z"/>
		</g>
	</g>
	<g>
		<circle class="st17" cx="141.5" cy="38.6" r="15.2"/>
		<g>
			<path class="st46" d="M141.5,21c-9.7,0-17.6,7.9-17.6,17.6c0,9.7,7.9,17.6,17.6,17.6c9.7,0,17.6-7.9,17.6-17.6
				C159.1,28.9,151.2,21,141.5,21z M153.3,30.7l-0.8,0.5l-0.4,0.2l-0.4,0.2c-2.1-3-5.4-5.1-9.3-5.4v-1.8
				C147,24.7,150.9,27.1,153.3,30.7L153.3,30.7L153.3,30.7z M152.2,38.6c0,1.6-0.4,3.1-1,4.5l-1.5-0.9c0.5-1.1,0.8-2.3,0.8-3.6
				c0-1.3-0.3-2.5-0.8-3.6c-0.3-0.6-0.6-1.1-0.9-1.6c-1.5-2-3.7-3.4-6.3-3.6V28c3.2,0.3,6,2,7.8,4.5c0.3,0.5,0.7,1,0.9,1.6
				C151.8,35.4,152.2,37,152.2,38.6z M140.6,49.2c-3.2-0.3-6-2-7.8-4.5l1.5-0.9c1.4,2,3.7,3.3,6.3,3.6c0.3,0,0.6,0,0.9,0
				c0.3,0,0.6,0,0.9,0c2.6-0.3,4.8-1.6,6.3-3.6l1.5,0.9c-1.8,2.5-4.6,4.2-7.8,4.5c-0.3,0-0.6,0.1-0.9,0.1S140.9,49.2,140.6,49.2z
				 M130.9,38.6c0-1.6,0.4-3.1,1-4.5c0.1-0.3,0.3-0.6,0.4-0.8c0.1-0.2,0.2-0.3,0.3-0.5c0.1-0.1,0.1-0.2,0.2-0.3
				c1.8-2.5,4.6-4.2,7.8-4.5v1.7c-2.6,0.3-4.8,1.6-6.3,3.6c-0.4,0.5-0.7,1-0.9,1.6c-0.5,1.1-0.8,2.3-0.8,3.6c0,1.3,0.3,2.5,0.8,3.6
				l-1.5,0.9C131.2,41.7,130.9,40.2,130.9,38.6z M148.9,38.6c0,1-0.2,2-0.6,2.9l-1.4-0.8c0.3-0.6,0.4-1.3,0.4-2.1
				c0-0.7-0.1-1.4-0.4-2l1.4-0.8C148.7,36.6,148.9,37.6,148.9,38.6z M134.1,38.6c0-1,0.2-2,0.6-2.9l1.4,0.8c-0.2,0.6-0.4,1.3-0.4,2
				c0,0.7,0.1,1.4,0.4,2.1l-1.4,0.8C134.3,40.6,134.1,39.6,134.1,38.6z M145.4,36.3c0.2,0.3,0.3,0.6,0.4,0.9
				c0.1,0.4,0.2,0.9,0.2,1.4c0,0.5-0.1,0.9-0.2,1.4c-0.1,0.3-0.2,0.6-0.4,0.9c-0.2,0.3-0.3,0.5-0.6,0.8c-0.6,0.7-1.4,1.2-2.4,1.4
				c-0.1,0-0.1,0-0.1,0c-0.1,0-0.1,0-0.2,0c-0.1,0-0.1,0-0.2,0c-0.1,0-0.3,0-0.4,0c-0.3,0-0.6,0-0.9-0.1c-0.9-0.2-1.8-0.7-2.4-1.4
				c0,0-0.1-0.1-0.1-0.1c-0.3-0.3-0.4-0.6-0.6-0.9c0-0.1-0.1-0.1-0.1-0.2c-0.1-0.1-0.1-0.2-0.1-0.3c-0.1-0.4-0.2-0.9-0.2-1.4
				c0-0.5,0.1-0.9,0.2-1.4c0-0.1,0.1-0.2,0.1-0.3c0-0.1,0.1-0.1,0.1-0.2c0.2-0.4,0.4-0.7,0.6-1c0,0,0.1-0.1,0.1-0.1
				c0.6-0.7,1.4-1.2,2.4-1.4c0.3-0.1,0.6-0.1,0.9-0.1c0.3,0,0.6,0,0.9,0.1c0.9,0.2,1.8,0.7,2.4,1.4C145,35.8,145.2,36.1,145.4,36.3z
				 M140.6,32.9c-1.4,0.2-2.7,1-3.6,2l-1.4-0.8v0h0c1.2-1.5,2.9-2.6,5-2.9V32.9z M137,42.2c0.9,1.1,2.1,1.8,3.6,2v1.7
				c-2-0.3-3.8-1.3-5-2.9L137,42.2z M142.4,44.3c1.4-0.2,2.7-1,3.6-2l1.4,0.8c-1.2,1.6-3,2.6-5,2.9V44.3z M147.4,34.1l-1.4,0.8
				c-0.9-1.1-2.1-1.8-3.6-2v-1.7C144.5,31.4,146.2,32.5,147.4,34.1L147.4,34.1L147.4,34.1z M140.6,24.4v1.8
				c-3.9,0.3-7.2,2.3-9.3,5.4l-0.6-0.3l-0.2-0.1l-0.8-0.5v0h0C132.1,27.1,136.1,24.7,140.6,24.4z M128.8,32.3l1,0.6l0.6,0.3h0
				c-0.8,1.6-1.2,3.4-1.2,5.4c0,1.9,0.4,3.8,1.2,5.4h0l-1.6,0.9c-0.9-1.9-1.5-4-1.5-6.3C127.3,36.3,127.9,34.2,128.8,32.3z
				 M129.7,46.4l1.6-0.9c2.1,3,5.4,5.1,9.3,5.4v1.8C136.1,52.4,132.1,50,129.7,46.4L129.7,46.4L129.7,46.4z M142.4,52.7v-1.8
				c3.9-0.3,7.2-2.3,9.3-5.4l1.6,0.9v0h0C150.9,50,147,52.4,142.4,52.7z M154.2,44.8l-1.6-0.9c0.8-1.6,1.2-3.4,1.2-5.4
				c0-1.9-0.4-3.7-1.2-5.4l1.6-0.9c0.9,1.9,1.5,4,1.5,6.3C155.7,40.8,155.2,42.9,154.2,44.8z"/>
			<path class="st46" d="M141.5,22.8c-8.7,0-15.8,7.1-15.8,15.8c0,8.7,7.1,15.8,15.8,15.8s15.8-7.1,15.8-15.8
				C157.3,29.8,150.2,22.8,141.5,22.8z M154.2,44.8l-1.6-0.9c0.8-1.6,1.2-3.4,1.2-5.4c0-1.9-0.4-3.7-1.2-5.4l1.6-0.9
				c0.9,1.9,1.5,4,1.5,6.3C155.7,40.8,155.2,42.9,154.2,44.8z M140.6,49.2c-3.2-0.3-6-2-7.8-4.5l1.5-0.9c1.4,2,3.7,3.3,6.3,3.6
				c0.3,0,0.6,0,0.9,0c0.3,0,0.6,0,0.9,0c2.6-0.3,4.8-1.6,6.3-3.6l1.5,0.9c-1.8,2.5-4.6,4.2-7.8,4.5c-0.3,0-0.6,0.1-0.9,0.1
				S140.9,49.2,140.6,49.2z M130.9,38.6c0-1.6,0.4-3.1,1-4.5c0.1-0.3,0.3-0.6,0.4-0.8c0.1-0.2,0.2-0.3,0.3-0.5
				c0.1-0.1,0.1-0.2,0.2-0.3c1.8-2.5,4.6-4.2,7.8-4.5v1.7c-2.6,0.3-4.8,1.6-6.3,3.6c-0.4,0.5-0.7,1-0.9,1.6
				c-0.5,1.1-0.8,2.3-0.8,3.6c0,1.3,0.3,2.5,0.8,3.6l-1.5,0.9C131.2,41.7,130.9,40.2,130.9,38.6z M148.9,38.6c0,1-0.2,2-0.6,2.9
				l-1.4-0.8c0.3-0.6,0.4-1.3,0.4-2.1c0-0.7-0.1-1.4-0.4-2l1.4-0.8C148.7,36.6,148.9,37.6,148.9,38.6z M134.1,38.6
				c0-1,0.2-2,0.6-2.9l1.4,0.8c-0.2,0.6-0.4,1.3-0.4,2c0,0.7,0.1,1.4,0.4,2.1l-1.4,0.8C134.3,40.6,134.1,39.6,134.1,38.6z
				 M145.4,36.3c0.2,0.3,0.3,0.6,0.4,0.9c0.1,0.4,0.2,0.9,0.2,1.4c0,0.5-0.1,0.9-0.2,1.4c-0.1,0.3-0.2,0.6-0.4,0.9
				c-0.2,0.3-0.3,0.5-0.6,0.8c-0.6,0.7-1.4,1.2-2.4,1.4c-0.1,0-0.1,0-0.1,0c-0.1,0-0.1,0-0.2,0c-0.1,0-0.1,0-0.2,0
				c-0.1,0-0.3,0-0.4,0c-0.3,0-0.6,0-0.9-0.1c-0.9-0.2-1.8-0.7-2.4-1.4c0,0-0.1-0.1-0.1-0.1c-0.3-0.3-0.4-0.6-0.6-0.9
				c0-0.1-0.1-0.1-0.1-0.2c-0.1-0.1-0.1-0.2-0.1-0.3c-0.1-0.4-0.2-0.9-0.2-1.4c0-0.5,0.1-0.9,0.2-1.4c0-0.1,0.1-0.2,0.1-0.3
				c0-0.1,0.1-0.1,0.1-0.2c0.2-0.4,0.4-0.7,0.6-1c0,0,0.1-0.1,0.1-0.1c0.6-0.7,1.4-1.2,2.4-1.4c0.3-0.1,0.6-0.1,0.9-0.1
				c0.3,0,0.6,0,0.9,0.1c0.9,0.2,1.8,0.7,2.4,1.4C145,35.8,145.2,36.1,145.4,36.3z M140.6,32.9c-1.4,0.2-2.7,1-3.6,2l-1.4-0.8v0h0
				c1.2-1.5,2.9-2.6,5-2.9V32.9z M137,42.2c0.9,1.1,2.1,1.8,3.6,2v1.7c-2-0.3-3.8-1.3-5-2.9L137,42.2z M142.4,44.3
				c1.4-0.2,2.7-1,3.6-2l1.4,0.8c-1.2,1.6-3,2.6-5,2.9V44.3z M147.4,34.1l-1.4,0.8c-0.9-1.1-2.1-1.8-3.6-2v-1.7
				C144.5,31.4,146.2,32.5,147.4,34.1L147.4,34.1L147.4,34.1z M149.7,42.2c0.5-1.1,0.8-2.3,0.8-3.6c0-1.3-0.3-2.5-0.8-3.6
				c-0.3-0.6-0.6-1.1-0.9-1.6c-1.5-2-3.7-3.4-6.3-3.6V28c3.2,0.3,6,2,7.8,4.5c0.3,0.5,0.7,1,0.9,1.6c0.6,1.4,1,2.9,1,4.5
				c0,1.6-0.4,3.1-1,4.5L149.7,42.2z M153.3,30.7L153.3,30.7l-0.8,0.5l-0.4,0.2l-0.4,0.2c-2.1-3-5.4-5.1-9.3-5.4v-1.8
				C147,24.7,150.9,27.1,153.3,30.7L153.3,30.7z M140.6,24.4v1.8c-3.9,0.3-7.2,2.3-9.3,5.4l-0.6-0.3l-0.2-0.1l-0.8-0.5v0h0
				C132.1,27.1,136.1,24.7,140.6,24.4z M128.8,32.3l1,0.6l0.6,0.3h0c-0.8,1.6-1.2,3.4-1.2,5.4c0,1.9,0.4,3.8,1.2,5.4h0l-1.6,0.9
				c-0.9-1.9-1.5-4-1.5-6.3C127.3,36.3,127.9,34.2,128.8,32.3z M129.7,46.5L129.7,46.5l1.6-0.9c2.1,3,5.4,5.1,9.3,5.4v1.8
				C136.1,52.4,132.1,50,129.7,46.5L129.7,46.5z M142.4,52.7v-1.8c3.9-0.3,7.2-2.3,9.3-5.4l1.6,0.9v0h0
				C150.9,50,147,52.4,142.4,52.7z"/>
			<path class="st46" d="M154.2,32.3c-0.3-0.6-0.6-1.1-0.9-1.6l-0.8,0.5l-0.4,0.2l-0.4,0.2c-2.1-3-5.4-5.1-9.3-5.4v-1.8
				c-0.3,0-0.6,0-0.9,0s-0.6,0-0.9,0v1.8c-3.9,0.3-7.2,2.3-9.3,5.4l-0.6-0.3l-0.2-0.1l-0.8-0.5c-0.3,0.5-0.7,1-0.9,1.6v0l1,0.6
				l0.6,0.3h0c-0.8,1.6-1.2,3.4-1.2,5.4c0,1.9,0.4,3.8,1.2,5.4h0l-1.6,0.9c0.3,0.6,0.6,1.1,0.9,1.6l1.6-0.9c2.1,3,5.4,5.1,9.3,5.4
				v1.8c0.3,0,0.6,0,0.9,0s0.6,0,0.9,0v-1.8c3.9-0.3,7.2-2.3,9.3-5.4l1.6,0.9c0.3-0.5,0.7-1,0.9-1.6l-1.6-0.9
				c0.8-1.6,1.2-3.4,1.2-5.4c0-1.9-0.4-3.7-1.2-5.4L154.2,32.3L154.2,32.3z M148.9,38.6c0,1-0.2,2-0.6,2.9l-1.4-0.8
				c0.3-0.6,0.4-1.3,0.4-2.1c0-0.7-0.1-1.4-0.4-2l1.4-0.8C148.7,36.6,148.9,37.6,148.9,38.6z M134.1,38.6c0-1,0.2-2,0.6-2.9l1.4,0.8
				c-0.2,0.6-0.4,1.3-0.4,2c0,0.7,0.1,1.4,0.4,2.1l-1.4,0.8C134.3,40.6,134.1,39.6,134.1,38.6z M145.4,36.3c0.2,0.3,0.3,0.6,0.4,0.9
				c0.1,0.4,0.2,0.9,0.2,1.4c0,0.5-0.1,0.9-0.2,1.4c-0.1,0.3-0.2,0.6-0.4,0.9c-0.2,0.3-0.3,0.5-0.6,0.8c-0.6,0.7-1.4,1.2-2.4,1.4
				c-0.1,0-0.1,0-0.1,0c-0.1,0-0.1,0-0.2,0c-0.1,0-0.1,0-0.2,0c-0.1,0-0.3,0-0.4,0c-0.3,0-0.6,0-0.9-0.1c-0.9-0.2-1.8-0.7-2.4-1.4
				c0,0-0.1-0.1-0.1-0.1c-0.3-0.3-0.4-0.6-0.6-0.9c0-0.1-0.1-0.1-0.1-0.2c-0.1-0.1-0.1-0.2-0.1-0.3c-0.1-0.4-0.2-0.9-0.2-1.4
				c0-0.5,0.1-0.9,0.2-1.4c0-0.1,0.1-0.2,0.1-0.3c0-0.1,0.1-0.1,0.1-0.2c0.2-0.4,0.4-0.7,0.6-1c0,0,0.1-0.1,0.1-0.1
				c0.6-0.7,1.4-1.2,2.4-1.4c0.3-0.1,0.6-0.1,0.9-0.1c0.3,0,0.6,0,0.9,0.1c0.9,0.2,1.8,0.7,2.4,1.4C145,35.8,145.2,36.1,145.4,36.3z
				 M140.6,32.9c-1.4,0.2-2.7,1-3.6,2l-1.4-0.8v0h0c1.2-1.5,2.9-2.6,5-2.9V32.9z M137,42.2c0.9,1.1,2.1,1.8,3.6,2v1.7
				c-2-0.3-3.8-1.3-5-2.9L137,42.2z M142.4,44.3c1.4-0.2,2.7-1,3.6-2l1.4,0.8c-1.2,1.6-3,2.6-5,2.9V44.3z M147.4,34.1l-1.4,0.8
				c-0.9-1.1-2.1-1.8-3.6-2v-1.7C144.5,31.4,146.2,32.5,147.4,34.1L147.4,34.1L147.4,34.1z M130.9,38.6c0-1.6,0.4-3.1,1-4.5
				c0.1-0.3,0.3-0.6,0.4-0.8c0.1-0.2,0.2-0.3,0.3-0.5c0.1-0.1,0.1-0.2,0.2-0.3c1.8-2.5,4.6-4.2,7.8-4.5v1.7
				c-2.6,0.3-4.8,1.6-6.3,3.6c-0.4,0.5-0.7,1-0.9,1.6c-0.5,1.1-0.8,2.3-0.8,3.6c0,1.3,0.3,2.5,0.8,3.6l-1.5,0.9
				C131.2,41.7,130.9,40.2,130.9,38.6z M142.4,49.2c-0.3,0-0.6,0.1-0.9,0.1s-0.6,0-0.9-0.1c-3.2-0.3-6-2-7.8-4.5l1.5-0.9
				c1.4,2,3.7,3.3,6.3,3.6c0.3,0,0.6,0,0.9,0c0.3,0,0.6,0,0.9,0c2.6-0.3,4.8-1.6,6.3-3.6l1.5,0.9C148.5,47.2,145.7,48.9,142.4,49.2z
				 M152.2,38.6c0,1.6-0.4,3.1-1,4.5l-1.5-0.9c0.5-1.1,0.8-2.3,0.8-3.6c0-1.3-0.3-2.5-0.8-3.6c-0.3-0.6-0.6-1.1-0.9-1.6
				c-1.5-2-3.7-3.4-6.3-3.6V28c3.2,0.3,6,2,7.8,4.5c0.3,0.5,0.7,1,0.9,1.6C151.8,35.4,152.2,37,152.2,38.6z"/>
			<path class="st46" d="M152.7,33.2c-0.3-0.6-0.6-1.1-0.9-1.6v0c-2.1-3-5.4-5.1-9.3-5.4c-0.3,0-0.6,0-0.9,0s-0.6,0-0.9,0
				c-3.9,0.3-7.2,2.3-9.3,5.4v0c-0.4,0.5-0.7,1-0.9,1.6c-0.8,1.6-1.2,3.4-1.2,5.4c0,1.9,0.4,3.8,1.2,5.4c0.3,0.6,0.6,1.1,0.9,1.6
				c2.1,3,5.4,5.1,9.3,5.4c0.3,0,0.6,0,0.9,0s0.6,0,0.9,0c3.9-0.3,7.2-2.3,9.3-5.4c0.3-0.5,0.7-1.1,0.9-1.6c0.8-1.6,1.2-3.4,1.2-5.4
				C153.9,36.7,153.4,34.8,152.7,33.2z M148.9,38.6c0,1-0.2,2-0.6,2.9l-1.4-0.8c0.3-0.6,0.4-1.3,0.4-2.1c0-0.7-0.1-1.4-0.4-2
				l1.4-0.8C148.7,36.6,148.9,37.6,148.9,38.6z M134.1,38.6c0-1,0.2-2,0.6-2.9l1.4,0.8c-0.2,0.6-0.4,1.3-0.4,2
				c0,0.7,0.1,1.4,0.4,2.1l-1.4,0.8C134.3,40.6,134.1,39.6,134.1,38.6z M145.4,36.3c0.2,0.3,0.3,0.6,0.4,0.9
				c0.1,0.4,0.2,0.9,0.2,1.4c0,0.5-0.1,0.9-0.2,1.4c-0.1,0.3-0.2,0.6-0.4,0.9c-0.2,0.3-0.3,0.5-0.6,0.8c-0.6,0.7-1.4,1.2-2.4,1.4
				c-0.1,0-0.1,0-0.1,0c-0.1,0-0.1,0-0.2,0c-0.1,0-0.1,0-0.2,0c-0.1,0-0.3,0-0.4,0c-0.3,0-0.6,0-0.9-0.1c-0.9-0.2-1.8-0.7-2.4-1.4
				c0,0-0.1-0.1-0.1-0.1c-0.3-0.3-0.4-0.6-0.6-0.9c0-0.1-0.1-0.1-0.1-0.2c-0.1-0.1-0.1-0.2-0.1-0.3c-0.1-0.4-0.2-0.9-0.2-1.4
				c0-0.5,0.1-0.9,0.2-1.4c0-0.1,0.1-0.2,0.1-0.3c0-0.1,0.1-0.1,0.1-0.2c0.2-0.4,0.4-0.7,0.6-1c0,0,0.1-0.1,0.1-0.1
				c0.6-0.7,1.4-1.2,2.4-1.4c0.3-0.1,0.6-0.1,0.9-0.1c0.3,0,0.6,0,0.9,0.1c0.9,0.2,1.8,0.7,2.4,1.4C145,35.8,145.2,36.1,145.4,36.3z
				 M140.6,32.9c-1.4,0.2-2.7,1-3.6,2l-1.4-0.8v0h0c1.2-1.5,2.9-2.6,5-2.9V32.9z M137,42.2c0.9,1.1,2.1,1.8,3.6,2v1.7
				c-2-0.3-3.8-1.3-5-2.9L137,42.2z M142.4,44.3c1.4-0.2,2.7-1,3.6-2l1.4,0.8c-1.2,1.6-3,2.6-5,2.9V44.3z M147.4,34.1l-1.4,0.8
				c-0.9-1.1-2.1-1.8-3.6-2v-1.7C144.5,31.4,146.2,32.5,147.4,34.1L147.4,34.1L147.4,34.1z M130.9,38.6c0-1.6,0.4-3.1,1-4.5
				c0.1-0.3,0.3-0.6,0.4-0.8c0.1-0.2,0.2-0.3,0.3-0.5c0.1-0.1,0.1-0.2,0.2-0.3c1.8-2.5,4.6-4.2,7.8-4.5v1.7
				c-2.6,0.3-4.8,1.6-6.3,3.6c-0.4,0.5-0.7,1-0.9,1.6c-0.5,1.1-0.8,2.3-0.8,3.6c0,1.3,0.3,2.5,0.8,3.6l-1.5,0.9
				C131.2,41.7,130.9,40.2,130.9,38.6z M142.4,49.2c-0.3,0-0.6,0.1-0.9,0.1s-0.6,0-0.9-0.1c-3.2-0.3-6-2-7.8-4.5l1.5-0.9
				c1.4,2,3.7,3.3,6.3,3.6c0.3,0,0.6,0,0.9,0c0.3,0,0.6,0,0.9,0c2.6-0.3,4.8-1.6,6.3-3.6l1.5,0.9C148.5,47.2,145.7,48.9,142.4,49.2z
				 M149.7,42.2c0.5-1.1,0.8-2.3,0.8-3.6c0-1.3-0.3-2.5-0.8-3.6c-0.3-0.6-0.6-1.1-0.9-1.6c-1.5-2-3.7-3.4-6.3-3.6V28
				c3.2,0.3,6,2,7.8,4.5c0.3,0.5,0.7,1,0.9,1.6c0.6,1.4,1,2.9,1,4.5c0,1.6-0.4,3.1-1,4.5L149.7,42.2z"/>
			<path class="st46" d="M149.7,42.2c0.5-1.1,0.8-2.3,0.8-3.6c0-1.3-0.3-2.5-0.8-3.6c-0.3-0.6-0.6-1.1-0.9-1.6
				c-1.5-2-3.7-3.4-6.3-3.6V28c-0.3,0-0.6,0-0.9,0s-0.6,0-0.9,0v1.7c-2.6,0.3-4.8,1.6-6.3,3.6c-0.4,0.5-0.7,1-0.9,1.6
				c-0.5,1.1-0.8,2.3-0.8,3.6c0,1.3,0.3,2.5,0.8,3.6l-1.5,0.9c0.3,0.6,0.6,1.1,0.9,1.6l1.5-0.9c1.4,2,3.7,3.3,6.3,3.6
				c0.3,0,0.6,0,0.9,0c0.3,0,0.6,0,0.9,0c2.6-0.3,4.8-1.6,6.3-3.6l1.5,0.9c0.4-0.5,0.7-1,0.9-1.6L149.7,42.2z M148.9,38.6
				c0,1-0.2,2-0.6,2.9l-1.4-0.8c0.3-0.6,0.4-1.3,0.4-2.1c0-0.7-0.1-1.4-0.4-2l1.4-0.8C148.7,36.6,148.9,37.6,148.9,38.6z
				 M145.4,40.8c-0.2,0.3-0.3,0.5-0.6,0.8c-0.6,0.7-1.4,1.2-2.4,1.4c-0.1,0-0.1,0-0.1,0c-0.1,0-0.1,0-0.2,0c-0.1,0-0.1,0-0.2,0
				c-0.1,0-0.3,0-0.4,0c-0.3,0-0.6,0-0.9-0.1c-0.9-0.2-1.8-0.7-2.4-1.4c0,0-0.1-0.1-0.1-0.1c-0.3-0.3-0.4-0.6-0.6-0.9
				c0-0.1-0.1-0.1-0.1-0.2c-0.1-0.1-0.1-0.2-0.1-0.3c-0.1-0.4-0.2-0.9-0.2-1.4c0-0.5,0.1-0.9,0.2-1.4c0-0.1,0.1-0.2,0.1-0.3
				c0-0.1,0.1-0.1,0.1-0.2c0.2-0.4,0.4-0.7,0.6-1c0,0,0.1-0.1,0.1-0.1c0.6-0.7,1.4-1.2,2.4-1.4c0.3-0.1,0.6-0.1,0.9-0.1
				c0.3,0,0.6,0,0.9,0.1c0.9,0.2,1.8,0.7,2.4,1.4c0.2,0.2,0.4,0.5,0.6,0.8c0.2,0.3,0.3,0.6,0.4,0.9c0.1,0.4,0.2,0.9,0.2,1.4
				c0,0.5-0.1,0.9-0.2,1.4C145.7,40.2,145.5,40.5,145.4,40.8z M147.4,34.1L147.4,34.1L147.4,34.1l-1.4,0.8c-0.9-1.1-2.1-1.8-3.6-2
				v-1.7C144.5,31.4,146.2,32.5,147.4,34.1z M135.6,34.1c1.2-1.5,2.9-2.6,5-2.9v1.7c-1.4,0.2-2.7,1-3.6,2L135.6,34.1L135.6,34.1
				L135.6,34.1z M134.1,38.6c0-1,0.2-2,0.6-2.9l1.4,0.8c-0.2,0.6-0.4,1.3-0.4,2c0,0.7,0.1,1.4,0.4,2.1l-1.4,0.8
				C134.3,40.6,134.1,39.6,134.1,38.6z M135.6,43.1l1.4-0.8c0.9,1.1,2.1,1.8,3.6,2v1.7C138.6,45.7,136.8,44.6,135.6,43.1z
				 M142.4,45.9v-1.7c1.4-0.2,2.7-1,3.6-2l1.4,0.8C146.3,44.6,144.5,45.7,142.4,45.9z"/>
			<path class="st46" d="M149.7,34.9c-0.3-0.6-0.6-1.1-0.9-1.6c-1.5-2-3.7-3.4-6.3-3.6c-0.3,0-0.6,0-0.9,0c-0.3,0-0.6,0-0.9,0
				c-2.6,0.3-4.8,1.6-6.3,3.6c-0.4,0.5-0.7,1-0.9,1.6c-0.5,1.1-0.8,2.3-0.8,3.6c0,1.3,0.3,2.5,0.8,3.6c0.3,0.6,0.6,1.1,0.9,1.6v0
				c1.4,2,3.7,3.3,6.3,3.6c0.3,0,0.6,0,0.9,0c0.3,0,0.6,0,0.9,0c2.6-0.3,4.8-1.6,6.3-3.6v0c0.4-0.5,0.7-1,0.9-1.6
				c0.5-1.1,0.8-2.3,0.8-3.6C150.4,37.3,150.2,36,149.7,34.9z M147.4,34.1L147.4,34.1L147.4,34.1l-1.4,0.8c-0.9-1.1-2.1-1.8-3.6-2
				v-1.7C144.5,31.4,146.2,32.5,147.4,34.1z M146,38.6c0,0.5-0.1,0.9-0.2,1.4c-0.1,0.3-0.2,0.6-0.4,0.9c-0.2,0.3-0.3,0.5-0.6,0.8
				c-0.6,0.7-1.4,1.2-2.4,1.4c-0.1,0-0.1,0-0.1,0c-0.1,0-0.1,0-0.2,0c-0.1,0-0.1,0-0.2,0c-0.1,0-0.3,0-0.4,0c-0.3,0-0.6,0-0.9-0.1
				c-0.9-0.2-1.8-0.7-2.4-1.4c0,0-0.1-0.1-0.1-0.1c-0.3-0.3-0.4-0.6-0.6-0.9c0-0.1-0.1-0.1-0.1-0.2c-0.1-0.1-0.1-0.2-0.1-0.3
				c-0.1-0.4-0.2-0.9-0.2-1.4c0-0.5,0.1-0.9,0.2-1.4c0-0.1,0.1-0.2,0.1-0.3c0-0.1,0.1-0.1,0.1-0.2c0.2-0.4,0.4-0.7,0.6-1
				c0,0,0.1-0.1,0.1-0.1c0.6-0.7,1.4-1.2,2.4-1.4c0.3-0.1,0.6-0.1,0.9-0.1c0.3,0,0.6,0,0.9,0.1c0.9,0.2,1.8,0.7,2.4,1.4
				c0.2,0.2,0.4,0.5,0.6,0.8c0.2,0.3,0.3,0.6,0.4,0.9C145.9,37.6,146,38.1,146,38.6z M135.6,34.1c1.2-1.5,2.9-2.6,5-2.9v1.7
				c-1.4,0.2-2.7,1-3.6,2L135.6,34.1L135.6,34.1L135.6,34.1z M134.1,38.6c0-1,0.2-2,0.6-2.9l1.4,0.8c-0.2,0.6-0.4,1.3-0.4,2
				c0,0.7,0.1,1.4,0.4,2.1l-1.4,0.8C134.3,40.6,134.1,39.6,134.1,38.6z M135.6,43.1l1.4-0.8c0.9,1.1,2.1,1.8,3.6,2v1.7
				C138.6,45.7,136.8,44.6,135.6,43.1z M142.4,45.9v-1.7c1.4-0.2,2.7-1,3.6-2l1.4,0.8C146.3,44.6,144.5,45.7,142.4,45.9z
				 M146.9,40.6c0.3-0.6,0.4-1.3,0.4-2.1c0-0.7-0.1-1.4-0.4-2l1.4-0.8c0.4,0.9,0.6,1.9,0.6,2.9c0,1-0.2,2-0.6,2.9L146.9,40.6z"/>
			<path class="st46" d="M147.3,38.6c0-0.7-0.1-1.4-0.4-2l1.4-0.8c-0.2-0.6-0.6-1.1-0.9-1.6l-1.4,0.8c-0.9-1.1-2.1-1.8-3.6-2v-1.7
				c-0.3,0-0.6-0.1-0.9-0.1c-0.3,0-0.6,0-0.9,0.1v1.7c-1.4,0.2-2.7,1-3.6,2l-1.4-0.8c-0.4,0.5-0.7,1-0.9,1.6l1.4,0.8
				c-0.2,0.6-0.4,1.3-0.4,2c0,0.7,0.1,1.4,0.4,2.1l-1.4,0.8c0.3,0.6,0.6,1.1,0.9,1.6l1.4-0.8c0.9,1.1,2.1,1.8,3.6,2v1.7
				c0.3,0,0.6,0.1,0.9,0.1c0.3,0,0.6,0,0.9-0.1v-1.7c1.4-0.2,2.7-1,3.6-2l1.4,0.8c0.4-0.5,0.7-1,0.9-1.6l-1.4-0.8
				C147.2,40,147.3,39.3,147.3,38.6z M145.4,40.8c-0.2,0.3-0.3,0.5-0.6,0.8c-0.6,0.7-1.4,1.2-2.4,1.4c-0.1,0-0.1,0-0.1,0
				c-0.1,0-0.1,0-0.2,0c-0.1,0-0.1,0-0.2,0c-0.1,0-0.3,0-0.4,0c-0.3,0-0.6,0-0.9-0.1c-0.9-0.2-1.8-0.7-2.4-1.4c0,0-0.1-0.1-0.1-0.1
				c-0.3-0.3-0.4-0.6-0.6-0.9c0-0.1-0.1-0.1-0.1-0.2c-0.1-0.1-0.1-0.2-0.1-0.3c-0.1-0.4-0.2-0.9-0.2-1.4c0-0.5,0.1-0.9,0.2-1.4
				c0-0.1,0.1-0.2,0.1-0.3c0-0.1,0.1-0.1,0.1-0.2c0.2-0.4,0.4-0.7,0.6-1c0,0,0.1-0.1,0.1-0.1c0.6-0.7,1.4-1.2,2.4-1.4
				c0.3-0.1,0.6-0.1,0.9-0.1c0.3,0,0.6,0,0.9,0.1c0.9,0.2,1.8,0.7,2.4,1.4c0.2,0.2,0.4,0.5,0.6,0.8c0.2,0.3,0.3,0.6,0.4,0.9
				c0.1,0.4,0.2,0.9,0.2,1.4c0,0.5-0.1,0.9-0.2,1.4C145.7,40.2,145.5,40.5,145.4,40.8z"/>
			<path class="st46" d="M146.9,36.5c-0.2-0.6-0.5-1.1-0.9-1.6c-0.9-1.1-2.1-1.8-3.6-2c-0.3-0.1-0.6-0.1-0.9-0.1
				c-0.3,0-0.6,0-0.9,0.1c-1.4,0.2-2.7,1-3.6,2c-0.4,0.5-0.7,1-0.9,1.6c-0.2,0.6-0.4,1.3-0.4,2c0,0.7,0.1,1.4,0.4,2.1
				c0.2,0.6,0.5,1.1,0.9,1.6c0.9,1.1,2.1,1.8,3.6,2c0.3,0,0.6,0.1,0.9,0.1c0.3,0,0.6,0,0.9-0.1c1.4-0.2,2.7-1,3.6-2
				c0.4-0.5,0.7-1,0.9-1.6c0.3-0.6,0.4-1.3,0.4-2.1C147.3,37.8,147.2,37.2,146.9,36.5z M145.4,40.8c-0.2,0.3-0.3,0.5-0.6,0.8
				c-0.6,0.7-1.4,1.2-2.4,1.4c-0.1,0-0.1,0-0.1,0c-0.1,0-0.1,0-0.2,0c-0.1,0-0.1,0-0.2,0c-0.1,0-0.3,0-0.4,0c-0.3,0-0.6,0-0.9-0.1
				c-0.9-0.2-1.8-0.7-2.4-1.4c0,0-0.1-0.1-0.1-0.1c-0.3-0.3-0.4-0.6-0.6-0.9c0-0.1-0.1-0.1-0.1-0.2c-0.1-0.1-0.1-0.2-0.1-0.3
				c-0.1-0.4-0.2-0.9-0.2-1.4c0-0.5,0.1-0.9,0.2-1.4c0-0.1,0.1-0.2,0.1-0.3c0-0.1,0.1-0.1,0.1-0.2c0.2-0.4,0.4-0.7,0.6-1
				c0,0,0.1-0.1,0.1-0.1c0.6-0.7,1.4-1.2,2.4-1.4c0.3-0.1,0.6-0.1,0.9-0.1c0.3,0,0.6,0,0.9,0.1c0.9,0.2,1.8,0.7,2.4,1.4
				c0.2,0.2,0.4,0.5,0.6,0.8c0.2,0.3,0.3,0.6,0.4,0.9c0.1,0.4,0.2,0.9,0.2,1.4c0,0.5-0.1,0.9-0.2,1.4
				C145.7,40.2,145.5,40.5,145.4,40.8z"/>
			<path class="st46" d="M142.4,53.5v-4.3c-0.3,0-0.6,0-0.9,0c-0.3,0-0.6,0-0.9,0v4.3H142.4z"/>
			<path class="st46" d="M142.4,47.4v-4.5c-0.3,0.1-0.6,0.1-0.9,0.1s-0.6,0-0.9-0.1v4.5c0.3,0,0.6,0,0.9,0
				C141.8,47.5,142.1,47.5,142.4,47.4z"/>
			<path class="st46" d="M142.4,34.2V23.6h-1.9v10.6c0.3-0.1,0.6-0.1,0.9-0.1S142.1,34.1,142.4,34.2z"/>
			<path class="st46" d="M131.9,34.1c0.3-0.6,0.6-1.1,0.9-1.6l-1.5-0.9l-1.6-0.9l-0.7-0.4l-0.9,1.6l0.7,0.4l1.6,0.9L131.9,34.1z"/>
			<path class="st46" d="M138.2,35.6l-1.2-0.7l-1.4-0.8l-1.3-0.7c-0.4,0.5-0.7,1-0.9,1.6l1.3,0.7l1.4,0.8l1.2,0.7
				C137.5,36.6,137.8,36,138.2,35.6z"/>
			<path class="st46" d="M154.9,45.2l-0.7-0.4l-1.6-0.9l-1.5-0.9l-1.5-0.9l-1.3-0.7l-1.4-0.8l-1.2-0.7c-0.2,0.6-0.5,1.2-0.9,1.6
				l1.2,0.7l1.4,0.8l1.3,0.7l1.5,0.9l1.5,0.9l1.6,0.9l0.7,0.4L154.9,45.2z"/>
			<path class="st46" d="M138.2,41.6c-0.4-0.5-0.7-1-0.9-1.6l-1.2,0.7l-1.4,0.8l-1.3,0.7l-1.5,0.9l-1.5,0.9l-1.6,0.9l-0.7,0.4
				l0.9,1.6l0.7-0.4l1.6-0.9l1.5-0.9l1.5-0.9l1.3-0.7l1.4-0.8L138.2,41.6z"/>
			<path class="st46" d="M149.7,34.9c-0.3-0.6-0.6-1.1-0.9-1.6l-1.3,0.7l-1.4,0.8l-1.2,0.7c0.4,0.5,0.7,1,0.9,1.6l1.2-0.7l1.4-0.8
				L149.7,34.9z"/>
			<path class="st46" d="M154.9,31.9l-0.9-1.6l-0.7,0.4l-1.6,0.9l-1.5,0.9c0.4,0.5,0.7,1,0.9,1.6l1.5-0.9l1.6-0.9L154.9,31.9z"/>
		</g>
	</g>
</g>
<path class="st4" d="M161.9,14.8c-3.8,0-6.8,3.1-6.8,6.8c0,3.8,3.1,6.8,6.8,6.8s6.8-3.1,6.8-6.8C168.7,17.8,165.6,14.8,161.9,14.8z
	 M162.9,16.3c0.4-0.3,0.9-0.3,1.2,0c0.4,0.3,0.4,0.9,0,1.2c-0.3,0.3-0.9,0.3-1.2,0C162.5,17.2,162.5,16.6,162.9,16.3z M159.7,16.3
	c0.5,0,0.9,0.4,0.9,0.9s-0.4,0.9-0.9,0.9c-0.5,0-0.9-0.4-0.9-0.9S159.2,16.3,159.7,16.3z M156.6,19.4c0.3-0.3,0.9-0.3,1.2,0
	c0.3,0.4,0.3,0.9,0,1.2c-0.3,0.3-0.9,0.3-1.2,0C156.2,20.3,156.2,19.7,156.6,19.4z M157.4,24.7c-0.5,0-0.9-0.4-0.9-0.9
	c0-0.5,0.4-0.9,0.9-0.9c0.5,0,0.9,0.4,0.9,0.9C158.3,24.3,157.9,24.7,157.4,24.7z M160.9,26.9c-0.3,0.4-0.9,0.4-1.2,0
	c-0.4-0.3-0.4-0.9,0-1.2c0.3-0.3,0.9-0.3,1.2,0C161.2,26,161.2,26.6,160.9,26.9z M164,27c-0.5,0-0.9-0.4-0.9-0.9
	c0-0.5,0.4-0.9,0.9-0.9c0.5,0,0.9,0.4,0.9,0.9C164.9,26.6,164.5,27,164,27z M161.9,25.2c-2,0-3.6-1.6-3.6-3.6s1.6-3.6,3.6-3.6
	c2,0,3.6,1.6,3.6,3.6S163.8,25.2,161.9,25.2z M166.3,18.6c0.5,0,0.9,0.4,0.9,0.9c0,0.5-0.4,0.9-0.9,0.9c-0.5,0-0.9-0.4-0.9-0.9
	C165.4,19,165.8,18.6,166.3,18.6z M165.9,23.9c-0.3-0.4-0.3-0.9,0-1.2c0.4-0.3,0.9-0.3,1.2,0c0.4,0.3,0.4,0.9,0,1.2
	C166.8,24.2,166.3,24.2,165.9,23.9z"/>
<path class="st4" d="M161.9,48.4c-3.8,0-6.8,3.1-6.8,6.8c0,3.8,3.1,6.8,6.8,6.8s6.8-3.1,6.8-6.8C168.7,51.5,165.6,48.4,161.9,48.4z
	 M162.9,49.9c0.4-0.3,0.9-0.3,1.2,0c0.4,0.3,0.4,0.9,0,1.2c-0.3,0.3-0.9,0.3-1.2,0C162.5,50.8,162.5,50.3,162.9,49.9z M159.7,49.9
	c0.5,0,0.9,0.4,0.9,0.9c0,0.5-0.4,0.9-0.9,0.9c-0.5,0-0.9-0.4-0.9-0.9C158.8,50.3,159.2,49.9,159.7,49.9z M156.6,53
	c0.3-0.3,0.9-0.3,1.2,0c0.3,0.3,0.3,0.9,0,1.2c-0.3,0.3-0.9,0.3-1.2,0C156.2,53.9,156.2,53.3,156.6,53z M157.4,58.3
	c-0.5,0-0.9-0.4-0.9-0.9c0-0.5,0.4-0.9,0.9-0.9c0.5,0,0.9,0.4,0.9,0.9C158.3,57.9,157.9,58.3,157.4,58.3z M160.9,60.5
	c-0.3,0.4-0.9,0.4-1.2,0c-0.4-0.3-0.4-0.9,0-1.2c0.3-0.3,0.9-0.3,1.2,0C161.2,59.6,161.2,60.2,160.9,60.5z M164,60.6
	c-0.5,0-0.9-0.4-0.9-0.9c0-0.5,0.4-0.9,0.9-0.9c0.5,0,0.9,0.4,0.9,0.9C164.9,60.2,164.5,60.6,164,60.6z M161.9,58.8
	c-2,0-3.6-1.6-3.6-3.6c0-2,1.6-3.6,3.6-3.6c2,0,3.6,1.6,3.6,3.6C165.4,57.2,163.8,58.8,161.9,58.8z M166.3,52.2
	c0.5,0,0.9,0.4,0.9,0.9c0,0.5-0.4,0.9-0.9,0.9c-0.5,0-0.9-0.4-0.9-0.9C165.4,52.6,165.8,52.2,166.3,52.2z M165.9,57.5
	c-0.3-0.4-0.3-0.9,0-1.2c0.4-0.3,0.9-0.3,1.2,0c0.4,0.3,0.4,0.9,0,1.2C166.8,57.8,166.3,57.8,165.9,57.5z"/>
<path class="st4" d="M72.8,14.8c-3.8,0-6.8,3.1-6.8,6.8c0,3.8,3.1,6.8,6.8,6.8c3.8,0,6.8-3.1,6.8-6.8C79.6,17.8,76.6,14.8,72.8,14.8
	z M73.8,16.3c0.3-0.3,0.9-0.3,1.2,0c0.3,0.3,0.3,0.9,0,1.2c-0.3,0.3-0.9,0.3-1.2,0C73.4,17.2,73.4,16.6,73.8,16.3z M70.6,16.3
	c0.5,0,0.9,0.4,0.9,0.9S71.1,18,70.6,18c-0.5,0-0.9-0.4-0.9-0.9S70.1,16.3,70.6,16.3z M67.5,19.4c0.3-0.3,0.9-0.3,1.2,0
	c0.3,0.4,0.3,0.9,0,1.2c-0.3,0.3-0.9,0.3-1.2,0C67.1,20.3,67.1,19.7,67.5,19.4z M68.3,24.7c-0.5,0-0.9-0.4-0.9-0.9
	c0-0.5,0.4-0.9,0.9-0.9c0.5,0,0.9,0.4,0.9,0.9C69.2,24.3,68.8,24.7,68.3,24.7z M71.8,26.9c-0.3,0.4-0.9,0.4-1.2,0
	c-0.3-0.3-0.3-0.9,0-1.2c0.3-0.3,0.9-0.3,1.2,0C72.1,26,72.1,26.6,71.8,26.9z M75,27c-0.5,0-0.9-0.4-0.9-0.9c0-0.5,0.4-0.9,0.9-0.9
	s0.9,0.4,0.9,0.9C75.8,26.6,75.4,27,75,27z M72.8,25.2c-2,0-3.6-1.6-3.6-3.6s1.6-3.6,3.6-3.6c2,0,3.6,1.6,3.6,3.6
	S74.8,25.2,72.8,25.2z M77.3,18.6c0.5,0,0.9,0.4,0.9,0.9c0,0.5-0.4,0.9-0.9,0.9c-0.5,0-0.9-0.4-0.9-0.9C76.4,19,76.8,18.6,77.3,18.6
	z M76.9,23.9c-0.3-0.4-0.3-0.9,0-1.2c0.3-0.3,0.9-0.3,1.2,0c0.3,0.3,0.3,0.9,0,1.2C77.8,24.2,77.2,24.2,76.9,23.9z"/>
<path class="st4" d="M72.8,48.4c-3.8,0-6.8,3.1-6.8,6.8c0,3.8,3.1,6.8,6.8,6.8c3.8,0,6.8-3.1,6.8-6.8C79.6,51.5,76.6,48.4,72.8,48.4
	z M73.8,49.9c0.3-0.3,0.9-0.3,1.2,0c0.3,0.3,0.3,0.9,0,1.2c-0.3,0.3-0.9,0.3-1.2,0C73.4,50.8,73.4,50.3,73.8,49.9z M70.6,49.9
	c0.5,0,0.9,0.4,0.9,0.9c0,0.5-0.4,0.9-0.9,0.9c-0.5,0-0.9-0.4-0.9-0.9C69.7,50.3,70.1,49.9,70.6,49.9z M67.5,53
	c0.3-0.3,0.9-0.3,1.2,0c0.3,0.3,0.3,0.9,0,1.2c-0.3,0.3-0.9,0.3-1.2,0C67.1,53.9,67.1,53.3,67.5,53z M68.3,58.3
	c-0.5,0-0.9-0.4-0.9-0.9c0-0.5,0.4-0.9,0.9-0.9c0.5,0,0.9,0.4,0.9,0.9C69.2,57.9,68.8,58.3,68.3,58.3z M71.8,60.5
	c-0.3,0.4-0.9,0.4-1.2,0c-0.3-0.3-0.3-0.9,0-1.2c0.3-0.3,0.9-0.3,1.2,0C72.1,59.6,72.1,60.2,71.8,60.5z M75,60.6
	c-0.5,0-0.9-0.4-0.9-0.9c0-0.5,0.4-0.9,0.9-0.9s0.9,0.4,0.9,0.9C75.8,60.2,75.4,60.6,75,60.6z M72.8,58.8c-2,0-3.6-1.6-3.6-3.6
	c0-2,1.6-3.6,3.6-3.6c2,0,3.6,1.6,3.6,3.6C76.4,57.2,74.8,58.8,72.8,58.8z M77.3,52.2c0.5,0,0.9,0.4,0.9,0.9c0,0.5-0.4,0.9-0.9,0.9
	c-0.5,0-0.9-0.4-0.9-0.9C76.4,52.6,76.8,52.2,77.3,52.2z M76.9,57.5c-0.3-0.4-0.3-0.9,0-1.2c0.3-0.3,0.9-0.3,1.2,0
	c0.3,0.3,0.3,0.9,0,1.2C77.8,57.8,77.2,57.8,76.9,57.5z"/>
<g>
	<g>
		<path class="st17" d="M123.9,18.2c-0.1-0.2-0.6-0.5-0.7-0.4c-0.2,0.1-0.4,0.1-0.5,0.3c-0.2,0.2-0.3,0.4-0.2,0.6
			c-0.3,0.1-0.5,0.3-0.7,0.4c-0.1,0.1-0.2,0.1-0.4,0c-0.5-0.3-1.1-0.6-1.6-0.9c-0.2-0.1-0.5-0.3-0.7-0.4c-0.3-0.2-0.6-0.3-0.9-0.5
			c-0.2-0.1-0.3-0.2-0.5-0.3c-0.1,0-0.1-0.1-0.1-0.2v-1c0.3-0.2,0.4-0.4,0.4-0.7c0-0.4-0.3-0.8-0.8-0.8c-0.5,0-0.9,0.6-0.7,1.1
			c0.1,0.1,0.1,0.3,0.3,0.3c0.1,0,0.1,0.1,0.1,0.2v0.9c-1.3,0.8-2.6,1.5-4,2.3c-0.3-0.1-0.5-0.3-0.8-0.5c-0.1,0-0.1-0.1-0.1-0.1
			c0-0.2-0.1-0.3-0.2-0.4c-0.1-0.1-0.2-0.2-0.3-0.3c-0.2-0.1-0.4,0-0.6,0c-0.5,0.1-0.6,0.7-0.4,1c0.1,0.1,0.2,0.3,0.4,0.4
			c0.2,0.1,0.4,0.2,0.6,0c0,0,0,0,0.1,0c0.1-0.1,0.2,0,0.3,0c0.2,0.1,0.3,0.2,0.5,0.3c0.2,0.1,0.2,0.2,0.2,0.4c0,0.9,0,1.8,0,2.7
			v1.5c0,0.4,0.2,0.6,0.5,0.8c0.3,0.1,0.5,0.3,0.8,0.4c0.5,0.3,1,0.6,1.5,0.9c0.5,0.3,1,0.5,1.4,0.8c0.3,0.2,0.6,0.2,0.9,0
			c0.3-0.2,0.6-0.4,0.9-0.6c0.2-0.1,0.4-0.3,0.7-0.4c0.4-0.2,0.7-0.4,1.1-0.6c0.4-0.2,0.7-0.4,1-0.6c0.3-0.2,0.5-0.5,0.5-0.9v-4
			c0-0.1,0-0.2,0-0.3c0.3-0.2,0.6-0.4,0.9-0.6c0.2,0.1,0.3,0.2,0.5,0.1c0.2,0,0.4-0.1,0.5-0.2C124.1,18.9,124.1,18.5,123.9,18.2z
			 M121.2,23.2c0,0.2-0.1,0.3-0.3,0.4c-0.2,0.1-0.3,0.1-0.5,0.2c-0.3,0.1-0.5,0.1-0.8,0.3c-0.1,0-0.2,0-0.3,0.1
			c-0.1,0-0.2,0.1-0.3,0.1c-0.3,0.1-0.6,0.2-1,0.3c-0.2,0.1-0.4,0.1-0.6,0.2c-0.3,0.1-0.5,0.1-0.7,0c-0.5-0.2-0.9-0.3-1.4-0.4
			c-0.2-0.1-0.5-0.1-0.7-0.2c-0.1-0.1-0.3-0.1-0.4-0.1c-0.3-0.1-0.5-0.1-0.7-0.2c-0.2-0.1-0.3-0.2-0.3-0.4c0-0.4,0-0.8,0-1.2v-0.2
			c0.2,0,7.5-0.1,7.9,0C121.2,22.2,121.2,22.7,121.2,23.2z"/>
		<path class="st17" d="M120.9,21.8h-7.2c-0.2,0-0.2,0-0.2,0.2v1.2c0,0.1,0,0.2,0.1,0.2c0.3,0.1,0.6,0.2,0.9,0.3
			c0.2,0,0.3,0.1,0.5,0.1c0.3,0.1,0.5,0.1,0.8,0.2c0.4,0.1,0.8,0.3,1.2,0.4c0.1,0,0.3,0.1,0.4,0c0.4-0.1,0.8-0.3,1.2-0.4
			c0.3-0.1,0.5-0.2,0.8-0.3c0.1,0,0.2-0.1,0.3-0.1c0.4-0.1,0.7-0.2,1-0.3c0.1,0,0.1,0,0.2-0.1c0.1-0.1,0.1-0.1,0.1-0.2V22
			C121.1,21.8,121,21.8,120.9,21.8z M120.6,23c0,0.1,0,0.2-0.1,0.2c0,0,0,0-0.1,0c-0.3,0.1-0.6,0.2-0.9,0.3
			c-0.2,0.1-0.4,0.1-0.6,0.2c-0.3,0.1-0.7,0.2-1,0.3c-0.2,0-0.3,0.1-0.5,0.1c-0.2,0.1-0.4,0-0.6,0c-0.4-0.1-0.7-0.2-1.1-0.4
			c-0.3-0.1-0.6-0.2-0.9-0.3c-0.3-0.1-0.5-0.2-0.8-0.3c-0.2-0.1-0.2-0.1-0.2-0.4v-0.5c0.2,0,6.2-0.1,6.7,0
			C120.6,22.5,120.6,22.7,120.6,23z"/>
	</g>
</g>
<text transform="matrix(1 0 0 1 98.227 60.084)" class="st17 st98 st99">WWW.DFRobot.com</text>
</svg>
