<?xml version="1.0" encoding="utf-8"?>
<!-- Generator: Adobe Illustrator 22.0.0, SVG Export Plug-In . SVG Version: 6.00 Build 0)  -->
<svg version="1.1" id="图层_1" xmlns="http://www.w3.org/2000/svg" xmlns:xlink="http://www.w3.org/1999/xlink" x="0px" y="0px"
	 viewBox="0 0 595.3 841.9" style="enable-background:new 0 0 595.3 841.9;" xml:space="preserve">
<style type="text/css">
	.st0{fill:#B2B6B7;}
	.st1{fill:#ECF0F2;}
	.st2{fill:#A0A3A5;}
	.st3{fill:#C9CCCD;}
	.st4{fill:#929595;}
	.st5{fill:#E6E1CF;}
	.st6{fill:#C4BC9F;}
	.st7{fill:#B1B4B6;}
	.st8{fill:#E7EAEB;}
	.st9{fill:#F8D381;}
	.st10{fill:#BFA263;}
	.st11{fill:#F8D380;}
	.st12{fill:#E0C997;}
	.st13{fill:#EFCA79;}
	.st14{fill:#E0E3E4;}
	.st15{fill:#FCECCB;}
	.st16{fill:#C1C4C6;}
	.st17{fill:#D4D7D8;}
	.st18{fill:#D1D4D5;}
	.st19{fill:#B2B5B6;}
	.st20{fill:#B2B3B4;stroke:#949596;stroke-width:7.3132;stroke-miterlimit:10;}
	.st21{fill:#FBFDFF;}
	.st22{fill:#D3D4D5;}
	.st23{fill:#313233;}
	.st24{fill:#B5B6B6;}
	.st25{fill:#FDFFFF;}
	.st26{fill:#D3D5D6;}
	.st27{fill:#ADAEAE;}
	.st28{fill:#CBCDCE;}
	.st29{opacity:0.13;fill:#464747;}
	.st30{fill:none;stroke:#B2B6B7;stroke-width:3.8118;stroke-miterlimit:10;}
	.st31{fill:none;stroke:#D53634;stroke-width:6.5675;stroke-miterlimit:10;}
	.st32{fill:none;stroke:#323233;stroke-width:6.5675;stroke-miterlimit:10;}
	.st33{fill:#B4B4B4;}
	.st34{fill:#727272;}
</style>
<g>
	<path class="st0" d="M252.1,417.8h-83.2c-0.1,0-0.2-0.1-0.2-0.2v-96.2c0-0.1,0.1-0.2,0.2-0.2h83.2c0.1,0,0.2,0.1,0.2,0.2v96.2
		C252.3,417.7,252.2,417.8,252.1,417.8z"/>
	<path class="st1" d="M210.7,417.8h-39.1c-0.1,0-0.1-0.1-0.1-0.1v-96.4c0-0.1,0.1-0.1,0.1-0.1h39.1c0.1,0,0.1,0.1,0.1,0.1v96.4
		C210.8,417.7,210.7,417.8,210.7,417.8z"/>
	<path class="st2" d="M221.3,417.8h-47.8c-0.1,0-0.2-0.1-0.2-0.2v-96.3c0-0.1,0.1-0.2,0.2-0.2h47.8c0.1,0,0.2,0.1,0.2,0.2v96.3
		C221.4,417.7,221.3,417.8,221.3,417.8z"/>
	<path class="st3" d="M243.1,417.8H181c-0.1,0-0.2-0.1-0.2-0.2v-96.3c0-0.1,0.1-0.2,0.2-0.2h62.1c0.1,0,0.2,0.1,0.2,0.2v96.3
		C243.3,417.7,243.3,417.8,243.1,417.8z"/>
	<path class="st4" d="M251,417.8h-4c0,0,0,0,0,0v-96.6c0,0,0,0,0,0h4c0,0,0,0,0,0L251,417.8C251,417.8,251,417.8,251,417.8z"/>
	<path class="st0" d="M246.9,321.1h-72.8c0,0-0.1,0-0.1-0.1v-5.9c0,0,0-0.1,0.1-0.1h72.8c0,0,0.1,0,0.1,0.1L246.9,321.1
		C247,321.1,246.9,321.1,246.9,321.1z"/>
	<path class="st5" d="M243.2,315.1h-65.4c-0.1,0-0.1-0.1-0.1-0.1v-35.7c0-0.1,0.1-0.1,0.1-0.1h65.4c0.1,0,0.1,0.1,0.1,0.1V315
		C243.3,315.1,243.3,315.1,243.2,315.1z"/>
	<path class="st6" d="M235,307.9h-48.9c0,0-0.1,0-0.1-0.1v-21.4c0,0,0-0.1,0.1-0.1H235c0,0,0.1,0,0.1,0.1L235,307.9
		C235.1,307.9,235,307.9,235,307.9z"/>
	<g>
		<path class="st7" d="M225.2,299.7h-5.6c0,0,0,0,0,0v-5.1c0,0,0,0,0,0h5.6c0,0,0,0,0,0L225.2,299.7
			C225.2,299.7,225.2,299.7,225.2,299.7z"/>
		<path class="st8" d="M224.2,298.8h-3.7c0,0,0,0,0,0v-3.4c0,0,0,0,0,0h3.7c0,0,0,0,0,0L224.2,298.8
			C224.2,298.8,224.2,298.8,224.2,298.8z"/>
	</g>
	<g>
		<path class="st7" d="M202,299.7h-5.6c0,0,0,0,0,0v-5.1c0,0,0,0,0,0h5.6c0,0,0,0,0,0L202,299.7C202,299.7,202,299.7,202,299.7z"/>
		<path class="st8" d="M201.1,298.8h-3.7c0,0,0,0,0,0v-3.4c0,0,0,0,0,0h3.7c0,0,0,0,0,0L201.1,298.8
			C201.1,298.8,201.1,298.8,201.1,298.8z"/>
	</g>
	<path class="st9" d="M249.3,478.2H229c0,0-0.1,0-0.1-0.1v-55c0,0,0-0.1,0.1-0.1h20.3c0,0,0.1,0,0.1,0.1L249.3,478.2
		C249.4,478.2,249.4,478.2,249.3,478.2z"/>
	<path class="st10" d="M249.3,478.2h-18.7c0,0-0.1,0-0.1-0.1v-55c0,0,0-0.1,0.1-0.1h18.7c0,0,0.1,0,0.1,0.1L249.3,478.2
		C249.4,478.2,249.4,478.2,249.3,478.2z"/>
	<path class="st11" d="M180.8,478.2h-7.2c0,0,0,0,0,0v-55c0,0,0,0,0,0h7.2c0,0,0,0,0,0L180.8,478.2
		C180.8,478.2,180.8,478.2,180.8,478.2z"/>
	<path class="st10" d="M180.8,478.2h-5.8c0,0,0,0,0,0v-55c0,0,0,0,0,0h5.8c0,0,0,0,0,0L180.8,478.2
		C180.8,478.2,180.8,478.2,180.8,478.2z"/>
	<path class="st4" d="M208.4,467.7h-40.6c0,0,0,0,0,0v-9c0,0,0,0,0,0h40.6c0,0,0,0,0,0L208.4,467.7
		C208.4,467.7,208.4,467.7,208.4,467.7z"/>
	<path class="st0" d="M225.3,458.9h-51.7c0,0,0,0,0,0v-5.5c0,0,0,0,0,0h51.7c0,0,0,0,0,0L225.3,458.9
		C225.3,458.9,225.3,458.9,225.3,458.9z"/>
	<path class="st1" d="M225.3,442.7h-34.2c0,0,0,0,0,0v-5.5c0,0,0,0,0,0h34.2c0,0,0,0,0,0L225.3,442.7
		C225.3,442.7,225.3,442.7,225.3,442.7z"/>
	<path class="st4" d="M208.2,453.3H194c0,0,0,0,0,0V448c0,0,0,0,0,0h14.2c0,0,0,0,0,0L208.2,453.3
		C208.2,453.3,208.2,453.3,208.2,453.3z"/>
	<path class="st0" d="M208.2,437.1H194c0,0,0,0,0,0v-14.2c0,0,0,0,0,0h14.2c0,0,0,0,0,0L208.2,437.1
		C208.2,437.1,208.2,437.1,208.2,437.1z"/>
	<path class="st0" d="M219.7,469.5h-18c0,0,0,0,0,0v-10.6c0,0,0,0,0,0h18c0,0,0,0,0,0L219.7,469.5
		C219.7,469.5,219.7,469.5,219.7,469.5z"/>
	<path class="st1" d="M227.9,478.8h-36.2c0,0,0,0,0,0v-9.2c0,0,0,0,0,0h36.2c0,0,0,0,0,0L227.9,478.8
		C227.9,478.8,227.9,478.8,227.9,478.8z"/>
	<path class="st10" d="M226.9,492.8h-34.1c0,0,0,0,0,0v-9.2c0,0,0,0,0,0h34.1c0,0,0,0,0,0L226.9,492.8
		C226.9,492.8,226.9,492.8,226.9,492.8z"/>
	<path class="st12" d="M226.9,492.8h-34.1c0,0,0,0,0,0V485c0,0,0,0,0,0h34.1c0,0,0,0,0,0L226.9,492.8
		C226.9,492.8,226.9,492.8,226.9,492.8z"/>
	<path class="st13" d="M226.9,492.8h-26.9c0,0,0,0,0,0V485c0,0,0,0,0,0h26.9c0,0,0,0,0,0L226.9,492.8
		C226.9,492.8,226.9,492.8,226.9,492.8z"/>
	<path class="st0" d="M219.6,561.2H200c0,0-0.1,0-0.1-0.1v-68.2c0,0,0-0.1,0.1-0.1h19.6c0,0,0.1,0,0.1,0.1L219.6,561.2
		C219.7,561.1,219.6,561.2,219.6,561.2z"/>
	<path class="st2" d="M219.6,561.2h-11.3c0,0-0.1,0-0.1-0.1v-68.3c0,0,0-0.1,0.1-0.1h11.3c0,0,0.1,0,0.1,0.1L219.6,561.2
		C219.7,561.2,219.7,561.2,219.6,561.2z"/>
	<path class="st14" d="M208,561.2h-2.2c0,0,0,0,0,0v-68.3c0,0,0,0,0,0h2.2c0,0,0,0,0,0L208,561.2C208.1,561.2,208,561.2,208,561.2z"
		/>
	<path class="st13" d="M252.3,423.1h-83.5c0,0-0.1,0-0.1-0.1v-5.2c0,0,0-0.1,0.1-0.1h83.5c0,0,0.1,0,0.1,0.1L252.3,423.1
		C252.3,423.1,252.3,423.1,252.3,423.1z"/>
	<path class="st13" d="M252.3,448h-83.5c0,0-0.1,0-0.1-0.1v-5.2c0,0,0-0.1,0.1-0.1h83.5c0,0,0.1,0,0.1,0.1L252.3,448
		C252.3,448,252.3,448,252.3,448z"/>
	<path class="st13" d="M252.3,483.5h-83.5c0,0-0.1,0-0.1-0.1v-5.2c0,0,0-0.1,0.1-0.1h83.5c0,0,0.1,0,0.1,0.1L252.3,483.5
		C252.3,483.5,252.3,483.5,252.3,483.5z"/>
	<path class="st15" d="M178.5,423.1h-7.1c0,0,0,0,0,0v-5.3c0,0,0,0,0,0h7.1c0,0,0,0,0,0L178.5,423.1
		C178.5,423.1,178.5,423.1,178.5,423.1z"/>
	<path class="st15" d="M178.5,448h-7.1c0,0,0,0,0,0v-5.3c0,0,0,0,0,0h7.1c0,0,0,0,0,0L178.5,448C178.5,448,178.5,448,178.5,448z"/>
	<path class="st15" d="M178.5,483.5h-7.1c0,0,0,0,0,0v-5.3c0,0,0,0,0,0h7.1c0,0,0,0,0,0L178.5,483.5
		C178.5,483.5,178.5,483.5,178.5,483.5z"/>
	<path class="st12" d="M196.6,423.1h-18c0,0,0,0,0,0v-5.3c0,0,0,0,0,0h18c0,0,0,0,0,0L196.6,423.1
		C196.6,423.1,196.6,423.1,196.6,423.1z"/>
	<path class="st12" d="M196.6,448h-18c0,0,0,0,0,0v-5.3c0,0,0,0,0,0h18c0,0,0,0,0,0L196.6,448C196.6,448,196.6,448,196.6,448z"/>
	<path class="st12" d="M196.6,483.5h-18c0,0,0,0,0,0v-5.3c0,0,0,0,0,0h18c0,0,0,0,0,0L196.6,483.5
		C196.6,483.5,196.6,483.5,196.6,483.5z"/>
</g>
<g>
	<path class="st0" d="M346.6,417.8h-83.2c-0.1,0-0.2-0.1-0.2-0.2v-96.2c0-0.1,0.1-0.2,0.2-0.2h83.2c0.1,0,0.2,0.1,0.2,0.2v96.2
		C346.8,417.7,346.7,417.8,346.6,417.8z"/>
	<path class="st1" d="M305.2,417.8H266c-0.1,0-0.1-0.1-0.1-0.1v-96.4c0-0.1,0.1-0.1,0.1-0.1h39.1c0.1,0,0.1,0.1,0.1,0.1v96.4
		C305.3,417.7,305.2,417.8,305.2,417.8z"/>
	<path class="st2" d="M315.8,417.8h-47.8c-0.1,0-0.2-0.1-0.2-0.2v-96.3c0-0.1,0.1-0.2,0.2-0.2h47.8c0.1,0,0.2,0.1,0.2,0.2v96.3
		C315.9,417.7,315.8,417.8,315.8,417.8z"/>
	<path class="st3" d="M337.6,417.8h-62.1c-0.1,0-0.2-0.1-0.2-0.2v-96.3c0-0.1,0.1-0.2,0.2-0.2h62.1c0.1,0,0.2,0.1,0.2,0.2v96.3
		C337.8,417.7,337.7,417.8,337.6,417.8z"/>
	<path class="st4" d="M345.5,417.8h-4c0,0,0,0,0,0v-96.6c0,0,0,0,0,0h4c0,0,0,0,0,0L345.5,417.8
		C345.5,417.8,345.5,417.8,345.5,417.8z"/>
	<path class="st0" d="M341.4,321.1h-72.8c0,0-0.1,0-0.1-0.1v-5.9c0,0,0-0.1,0.1-0.1h72.8c0,0,0.1,0,0.1,0.1L341.4,321.1
		C341.5,321.1,341.4,321.1,341.4,321.1z"/>
	<path class="st5" d="M337.7,315.1h-65.4c-0.1,0-0.1-0.1-0.1-0.1v-35.7c0-0.1,0.1-0.1,0.1-0.1h65.4c0.1,0,0.1,0.1,0.1,0.1V315
		C337.8,315.1,337.8,315.1,337.7,315.1z"/>
	<path class="st6" d="M329.5,307.9h-48.9c0,0-0.1,0-0.1-0.1v-21.4c0,0,0-0.1,0.1-0.1h48.9c0,0,0.1,0,0.1,0.1L329.5,307.9
		C329.6,307.9,329.5,307.9,329.5,307.9z"/>
	<g>
		<path class="st7" d="M319.7,299.7h-5.6c0,0,0,0,0,0v-5.1c0,0,0,0,0,0h5.6c0,0,0,0,0,0L319.7,299.7
			C319.7,299.7,319.7,299.7,319.7,299.7z"/>
		<path class="st8" d="M318.7,298.8H315c0,0,0,0,0,0v-3.4c0,0,0,0,0,0h3.7c0,0,0,0,0,0L318.7,298.8
			C318.7,298.8,318.7,298.8,318.7,298.8z"/>
	</g>
	<g>
		<path class="st7" d="M296.5,299.7h-5.6c0,0,0,0,0,0v-5.1c0,0,0,0,0,0h5.6c0,0,0,0,0,0L296.5,299.7
			C296.5,299.7,296.5,299.7,296.5,299.7z"/>
		<path class="st8" d="M295.6,298.8h-3.7c0,0,0,0,0,0v-3.4c0,0,0,0,0,0h3.7c0,0,0,0,0,0L295.6,298.8
			C295.6,298.8,295.6,298.8,295.6,298.8z"/>
	</g>
	<path class="st9" d="M343.8,478.2h-20.3c0,0-0.1,0-0.1-0.1v-55c0,0,0-0.1,0.1-0.1h20.3c0,0,0.1,0,0.1,0.1L343.8,478.2
		C343.9,478.2,343.9,478.2,343.8,478.2z"/>
	<path class="st10" d="M343.8,478.2h-18.7c0,0-0.1,0-0.1-0.1v-55c0,0,0-0.1,0.1-0.1h18.7c0,0,0.1,0,0.1,0.1L343.8,478.2
		C343.9,478.2,343.9,478.2,343.8,478.2z"/>
	<path class="st11" d="M275.3,478.2h-7.2c0,0,0,0,0,0v-55c0,0,0,0,0,0h7.2c0,0,0,0,0,0L275.3,478.2
		C275.3,478.2,275.3,478.2,275.3,478.2z"/>
	<path class="st10" d="M275.3,478.2h-5.8c0,0,0,0,0,0v-55c0,0,0,0,0,0h5.8c0,0,0,0,0,0L275.3,478.2
		C275.3,478.2,275.3,478.2,275.3,478.2z"/>
	<path class="st4" d="M302.9,467.7h-40.6c0,0,0,0,0,0v-9c0,0,0,0,0,0h40.6c0,0,0,0,0,0L302.9,467.7
		C302.9,467.7,302.9,467.7,302.9,467.7z"/>
	<path class="st0" d="M319.8,458.9h-51.7c0,0,0,0,0,0v-5.5c0,0,0,0,0,0h51.7c0,0,0,0,0,0L319.8,458.9
		C319.8,458.9,319.8,458.9,319.8,458.9z"/>
	<path class="st1" d="M319.8,442.7h-34.2c0,0,0,0,0,0v-5.5c0,0,0,0,0,0h34.2c0,0,0,0,0,0L319.8,442.7
		C319.8,442.7,319.8,442.7,319.8,442.7z"/>
	<path class="st4" d="M302.7,453.3h-14.2c0,0,0,0,0,0V448c0,0,0,0,0,0h14.2c0,0,0,0,0,0L302.7,453.3
		C302.7,453.3,302.7,453.3,302.7,453.3z"/>
	<path class="st0" d="M302.7,437.1h-14.2c0,0,0,0,0,0v-14.2c0,0,0,0,0,0h14.2c0,0,0,0,0,0L302.7,437.1
		C302.7,437.1,302.7,437.1,302.7,437.1z"/>
	<path class="st0" d="M314.1,469.5h-18c0,0,0,0,0,0v-10.6c0,0,0,0,0,0h18c0,0,0,0,0,0L314.1,469.5
		C314.2,469.5,314.2,469.5,314.1,469.5z"/>
	<path class="st1" d="M322.4,478.8h-36.2c0,0,0,0,0,0v-9.2c0,0,0,0,0,0h36.2c0,0,0,0,0,0L322.4,478.8
		C322.4,478.8,322.4,478.8,322.4,478.8z"/>
	<path class="st10" d="M321.4,492.8h-34.1c0,0,0,0,0,0v-9.2c0,0,0,0,0,0h34.1c0,0,0,0,0,0L321.4,492.8
		C321.4,492.8,321.4,492.8,321.4,492.8z"/>
	<path class="st12" d="M321.4,492.8h-34.1c0,0,0,0,0,0V485c0,0,0,0,0,0h34.1c0,0,0,0,0,0L321.4,492.8
		C321.4,492.8,321.4,492.8,321.4,492.8z"/>
	<path class="st13" d="M321.4,492.8h-26.9c0,0,0,0,0,0V485c0,0,0,0,0,0h26.9c0,0,0,0,0,0L321.4,492.8
		C321.4,492.8,321.4,492.8,321.4,492.8z"/>
	<path class="st0" d="M314.1,561.2h-19.6c0,0-0.1,0-0.1-0.1v-68.2c0,0,0-0.1,0.1-0.1h19.6c0,0,0.1,0,0.1,0.1L314.1,561.2
		C314.2,561.1,314.1,561.2,314.1,561.2z"/>
	<path class="st2" d="M314.1,561.2h-11.3c0,0-0.1,0-0.1-0.1v-68.3c0,0,0-0.1,0.1-0.1h11.3c0,0,0.1,0,0.1,0.1L314.1,561.2
		C314.2,561.2,314.2,561.2,314.1,561.2z"/>
	<path class="st14" d="M302.5,561.2h-2.2c0,0,0,0,0,0v-68.3c0,0,0,0,0,0h2.2c0,0,0,0,0,0L302.5,561.2
		C302.6,561.2,302.5,561.2,302.5,561.2z"/>
	<path class="st13" d="M346.8,423.1h-83.5c0,0-0.1,0-0.1-0.1v-5.2c0,0,0-0.1,0.1-0.1h83.5c0,0,0.1,0,0.1,0.1L346.8,423.1
		C346.8,423.1,346.8,423.1,346.8,423.1z"/>
	<path class="st13" d="M346.8,448h-83.5c0,0-0.1,0-0.1-0.1v-5.2c0,0,0-0.1,0.1-0.1h83.5c0,0,0.1,0,0.1,0.1L346.8,448
		C346.8,448,346.8,448,346.8,448z"/>
	<path class="st13" d="M346.8,483.5h-83.5c0,0-0.1,0-0.1-0.1v-5.2c0,0,0-0.1,0.1-0.1h83.5c0,0,0.1,0,0.1,0.1L346.8,483.5
		C346.8,483.5,346.8,483.5,346.8,483.5z"/>
	<path class="st15" d="M273,423.1h-7.1c0,0,0,0,0,0v-5.3c0,0,0,0,0,0h7.1c0,0,0,0,0,0L273,423.1C273,423.1,273,423.1,273,423.1z"/>
	<path class="st15" d="M273,448h-7.1c0,0,0,0,0,0v-5.3c0,0,0,0,0,0h7.1c0,0,0,0,0,0L273,448C273,448,273,448,273,448z"/>
	<path class="st15" d="M273,483.5h-7.1c0,0,0,0,0,0v-5.3c0,0,0,0,0,0h7.1c0,0,0,0,0,0L273,483.5C273,483.5,273,483.5,273,483.5z"/>
	<path class="st12" d="M291.1,423.1h-18c0,0,0,0,0,0v-5.3c0,0,0,0,0,0h18c0,0,0,0,0,0L291.1,423.1
		C291.1,423.1,291.1,423.1,291.1,423.1z"/>
	<path class="st12" d="M291.1,448h-18c0,0,0,0,0,0v-5.3c0,0,0,0,0,0h18c0,0,0,0,0,0L291.1,448C291.1,448,291.1,448,291.1,448z"/>
	<path class="st12" d="M291.1,483.5h-18c0,0,0,0,0,0v-5.3c0,0,0,0,0,0h18c0,0,0,0,0,0L291.1,483.5
		C291.1,483.5,291.1,483.5,291.1,483.5z"/>
</g>
<rect x="294.5" y="528.3" class="st16" width="19.7" height="32.9"/>
<rect x="295.9" y="528.8" class="st17" width="17.4" height="31.8"/>
<rect x="199.9" y="528.3" class="st16" width="19.7" height="32.9"/>
<rect x="201.3" y="528.8" class="st17" width="17.4" height="31.8"/>
<g>
	<path class="st18" d="M291.1,388.6h-4c-1.3,0-2.4-1.1-2.4-2.4v-27c0-1.3,1.1-2.4,2.4-2.4h4c1.3,0,2.4,1.1,2.4,2.4v27
		C293.4,387.5,292.4,388.6,291.1,388.6z"/>
	<path class="st19" d="M290.8,385.6h-3.5c-0.8,0-1.4-0.6-1.4-1.4v-23.1c0-0.8,0.6-1.4,1.4-1.4h3.5c0.8,0,1.4,0.6,1.4,1.4v23.1
		C292.2,385,291.6,385.6,290.8,385.6z"/>
	<path class="st16" d="M290.4,385h-2.7c-0.5,0-1-0.4-1-1v-22.7c0-0.5,0.4-1,1-1h2.7c0.5,0,1,0.4,1,1V384
		C291.4,384.6,291,385,290.4,385z"/>
</g>
<g>
	<path class="st18" d="M325.8,388.6h-4c-1.3,0-2.4-1.1-2.4-2.4v-27c0-1.3,1.1-2.4,2.4-2.4h4c1.3,0,2.4,1.1,2.4,2.4v27
		C328.1,387.5,327.1,388.6,325.8,388.6z"/>
	<path class="st19" d="M325.5,385.6h-3.5c-0.8,0-1.4-0.6-1.4-1.4v-23.1c0-0.8,0.6-1.4,1.4-1.4h3.5c0.8,0,1.4,0.6,1.4,1.4v23.1
		C326.9,385,326.3,385.6,325.5,385.6z"/>
	<path class="st16" d="M325.2,385h-2.7c-0.5,0-1-0.4-1-1v-22.7c0-0.5,0.4-1,1-1h2.7c0.5,0,1,0.4,1,1V384
		C326.1,384.6,325.7,385,325.2,385z"/>
</g>
<g>
	<path class="st18" d="M196.6,388.6h-4c-1.3,0-2.4-1.1-2.4-2.4v-27c0-1.3,1.1-2.4,2.4-2.4h4c1.3,0,2.4,1.1,2.4,2.4v27
		C198.9,387.5,197.9,388.6,196.6,388.6z"/>
	<path class="st19" d="M196.3,385.6h-3.5c-0.8,0-1.4-0.6-1.4-1.4v-23.1c0-0.8,0.6-1.4,1.4-1.4h3.5c0.8,0,1.4,0.6,1.4,1.4v23.1
		C197.7,385,197.1,385.6,196.3,385.6z"/>
	<path class="st16" d="M196,385h-2.7c-0.5,0-1-0.4-1-1v-22.7c0-0.5,0.4-1,1-1h2.7c0.5,0,1,0.4,1,1V384
		C196.9,384.6,196.5,385,196,385z"/>
</g>
<g>
	<path class="st18" d="M231.3,388.6h-4c-1.3,0-2.4-1.1-2.4-2.4v-27c0-1.3,1.1-2.4,2.4-2.4h4c1.3,0,2.4,1.1,2.4,2.4v27
		C233.6,387.5,232.6,388.6,231.3,388.6z"/>
	<path class="st19" d="M231,385.6h-3.5c-0.8,0-1.4-0.6-1.4-1.4v-23.1c0-0.8,0.6-1.4,1.4-1.4h3.5c0.8,0,1.4,0.6,1.4,1.4v23.1
		C232.4,385,231.8,385.6,231,385.6z"/>
	<path class="st16" d="M230.7,385h-2.7c-0.5,0-1-0.4-1-1v-22.7c0-0.5,0.4-1,1-1h2.7c0.5,0,1,0.4,1,1V384
		C231.7,384.6,231.2,385,230.7,385z"/>
</g>
<g>
	<path class="st20" d="M376.2,389h3.5v5.2c0,8.3,6.7,15,15,15c8.3,0,15-6.7,15-15V389h28.6c2.9,0,5.2-2.3,5.2-5.2v-74.9
		c0-2.9-2.3-5.2-5.2-5.2h-28.6V298c0-8.3-6.7-15-15-15c-8.3,0-15,6.7-15,15v5.7h-3.5c-2.1,0-3.9,1.7-3.9,3.9v77.6
		C372.3,387.3,374.1,389,376.2,389z"/>
	<g>
		<path class="st21" d="M394.7,373.3L394.7,373.3c8.3,0,15,6.7,15,15v5.9c0,8.3-6.7,15-15,15l0,0c-8.3,0-15-6.7-15-15v-5.9
			C379.7,380,386.4,373.3,394.7,373.3z"/>
		<path class="st22" d="M394.7,379.7L394.7,379.7c5.3,0,9.6,4.3,9.6,9.6v3.8c0,5.3-4.3,9.6-9.6,9.6l0,0c-5.3,0-9.6-4.3-9.6-9.6v-3.8
			C385.1,384,389.4,379.7,394.7,379.7z"/>
		<path class="st23" d="M394.7,386L394.7,386c2.4,0,4.4,2,4.4,4.4v1.7c0,2.4-2,4.4-4.4,4.4l0,0c-2.4,0-4.4-2-4.4-4.4v-1.7
			C390.3,387.9,392.3,386,394.7,386z"/>
		<path class="st21" d="M394.7,318.9L394.7,318.9c-8.3,0-15-6.7-15-15V298c0-8.3,6.7-15,15-15l0,0c8.3,0,15,6.7,15,15v5.9
			C409.7,312.2,403,318.9,394.7,318.9z"/>
		<path class="st22" d="M394.7,312.5L394.7,312.5c-5.3,0-9.6-4.3-9.6-9.6V299c0-5.3,4.3-9.6,9.6-9.6l0,0c5.3,0,9.6,4.3,9.6,9.6v3.8
			C404.4,308.2,400,312.5,394.7,312.5z"/>
		<path class="st23" d="M394.7,306.2L394.7,306.2c-2.4,0-4.4-2-4.4-4.4v-1.7c0-2.4,2-4.4,4.4-4.4l0,0c2.4,0,4.4,2,4.4,4.4v1.7
			C399.1,304.3,397.2,306.2,394.7,306.2z"/>
		<path class="st21" d="M376.2,303.7h62.1c2.9,0,5.2,2.3,5.2,5.2v74.9c0,2.9-2.3,5.2-5.2,5.2h-62.1c-2.1,0-3.9-1.7-3.9-3.9v-77.6
			C372.3,305.4,374.1,303.7,376.2,303.7z"/>
	</g>
</g>
<g>
	<path class="st20" d="M376.2,540.1h3.5v5.2c0,8.3,6.7,15,15,15c8.3,0,15-6.7,15-15v-5.2h28.6c2.9,0,5.2-2.3,5.2-5.2V460
		c0-2.9-2.3-5.2-5.2-5.2h-28.6V449c0-8.3-6.7-15-15-15c-8.3,0-15,6.7-15,15v5.7h-3.5c-2.1,0-3.9,1.7-3.9,3.9v77.6
		C372.3,538.3,374.1,540.1,376.2,540.1z"/>
	<g>
		<path class="st21" d="M394.7,524.3L394.7,524.3c8.3,0,15,6.7,15,15v5.9c0,8.3-6.7,15-15,15l0,0c-8.3,0-15-6.7-15-15v-5.9
			C379.7,531,386.4,524.3,394.7,524.3z"/>
		<path class="st22" d="M394.7,530.8L394.7,530.8c5.3,0,9.6,4.3,9.6,9.6v3.8c0,5.3-4.3,9.6-9.6,9.6l0,0c-5.3,0-9.6-4.3-9.6-9.6v-3.8
			C385.1,535.1,389.4,530.8,394.7,530.8z"/>
		<path class="st23" d="M394.7,537L394.7,537c2.4,0,4.4,2,4.4,4.4v1.7c0,2.4-2,4.4-4.4,4.4l0,0c-2.4,0-4.4-2-4.4-4.4v-1.7
			C390.3,539,392.3,537,394.7,537z"/>
		<path class="st21" d="M394.7,470L394.7,470c-8.3,0-15-6.7-15-15V449c0-8.3,6.7-15,15-15l0,0c8.3,0,15,6.7,15,15v5.9
			C409.7,463.2,403,470,394.7,470z"/>
		<path class="st22" d="M394.7,463.5L394.7,463.5c-5.3,0-9.6-4.3-9.6-9.6v-3.8c0-5.3,4.3-9.6,9.6-9.6l0,0c5.3,0,9.6,4.3,9.6,9.6v3.8
			C404.4,459.2,400,463.5,394.7,463.5z"/>
		<path class="st23" d="M394.7,457.3L394.7,457.3c-2.4,0-4.4-2-4.4-4.4v-1.7c0-2.4,2-4.4,4.4-4.4l0,0c2.4,0,4.4,2,4.4,4.4v1.7
			C399.1,455.3,397.2,457.3,394.7,457.3z"/>
		<path class="st21" d="M376.2,454.7h62.1c2.9,0,5.2,2.3,5.2,5.2v74.9c0,2.9-2.3,5.2-5.2,5.2h-62.1c-2.1,0-3.9-1.7-3.9-3.9v-77.6
			C372.3,456.5,374.1,454.7,376.2,454.7z"/>
	</g>
</g>
<g>
	<path class="st24" d="M497.9,291.6h-29.6c-0.9,0-1.7-0.8-1.7-1.7c0-6,4.9-11,11-11h11c6.1,0,11,4.9,11,11
		C499.6,290.8,498.9,291.6,497.9,291.6z"/>
	<path class="st25" d="M492.7,291.6h-1.6c0.9,0,1.7-0.8,1.7-1.7c0-6-4.9-11-11-11h1.6c6.1,0,11,4.9,11,11
		C494.4,290.8,493.6,291.6,492.7,291.6z"/>
	<path class="st26" d="M491.1,291.6h-22.7c-0.9,0-1.7-0.8-1.7-1.7c0-6,4.9-11,11-11h4.2c6.1,0,11,4.9,11,11
		C492.8,290.8,492,291.6,491.1,291.6z"/>
	
		<rect x="447.7" y="318.8" transform="matrix(-1.836970e-16 1 -1 -1.836970e-16 810.0609 -156.1971)" class="st27" width="70.8" height="16.2"/>
	
		<rect x="447.2" y="320.4" transform="matrix(-1.836970e-16 1 -1 -1.836970e-16 809.4694 -155.6056)" class="st28" width="70.8" height="13"/>
	
		<rect x="447.2" y="320.4" transform="matrix(-1.836970e-16 1 -1 -1.836970e-16 809.4694 -155.6056)" class="st28" width="70.8" height="13"/>
	
		<rect x="452.7" y="326" transform="matrix(-1.836970e-16 1 -1 -1.836970e-16 815.0049 -161.1412)" class="st25" width="70.8" height="1.9"/>
	
		<rect x="482.6" y="351.5" transform="matrix(-1.836970e-16 1 -1 -1.836970e-16 842.707 -123.551)" class="st29" width="1.1" height="16.2"/>
	
		<rect x="482.6" y="347.7" transform="matrix(-1.836970e-16 1 -1 -1.836970e-16 838.9315 -127.3266)" class="st29" width="1.1" height="16.2"/>
	
		<rect x="482.6" y="343.9" transform="matrix(-1.836970e-16 1 -1 -1.836970e-16 835.1559 -131.1022)" class="st29" width="1.1" height="16.2"/>
	
		<rect x="482.6" y="340.1" transform="matrix(-1.836970e-16 1 -1 -1.836970e-16 831.3802 -134.8777)" class="st29" width="1.1" height="16.2"/>
	
		<rect x="482.6" y="336.4" transform="matrix(-1.836970e-16 1 -1 -1.836970e-16 827.6049 -138.6532)" class="st29" width="1.1" height="16.2"/>
	
		<rect x="482.6" y="332.6" transform="matrix(-1.836970e-16 1 -1 -1.836970e-16 823.8293 -142.4287)" class="st29" width="1.1" height="16.2"/>
	
		<rect x="482.6" y="328.8" transform="matrix(-1.836970e-16 1 -1 -1.836970e-16 820.0537 -146.2043)" class="st29" width="1.1" height="16.2"/>
	
		<rect x="482.6" y="325" transform="matrix(-1.836970e-16 1 -1 -1.836970e-16 816.2781 -149.9799)" class="st29" width="1.1" height="16.2"/>
	
		<rect x="482.6" y="321.3" transform="matrix(-1.836970e-16 1 -1 -1.836970e-16 812.5027 -153.7553)" class="st29" width="1.1" height="16.2"/>
	
		<rect x="482.6" y="317.5" transform="matrix(-1.836970e-16 1 -1 -1.836970e-16 808.7271 -157.5309)" class="st29" width="1.1" height="16.2"/>
	
		<rect x="482.6" y="313.7" transform="matrix(-1.836970e-16 1 -1 -1.836970e-16 804.9515 -161.3065)" class="st29" width="1.1" height="16.2"/>
	
		<rect x="482.6" y="309.9" transform="matrix(-1.836970e-16 1 -1 -1.836970e-16 801.1761 -165.0819)" class="st29" width="1.1" height="16.2"/>
	
		<rect x="482.6" y="306.2" transform="matrix(-1.836970e-16 1 -1 -1.836970e-16 797.4006 -168.8575)" class="st29" width="1.1" height="16.2"/>
	
		<rect x="482.6" y="302.4" transform="matrix(-1.836970e-16 1 -1 -1.836970e-16 793.6249 -172.633)" class="st29" width="1.1" height="16.2"/>
	
		<rect x="482.6" y="298.6" transform="matrix(-1.836970e-16 1 -1 -1.836970e-16 789.8494 -176.4086)" class="st29" width="1.1" height="16.2"/>
	
		<rect x="482.6" y="294.8" transform="matrix(-1.836970e-16 1 -1 -1.836970e-16 786.0738 -180.1842)" class="st29" width="1.1" height="16.2"/>
	
		<rect x="482.6" y="291.1" transform="matrix(-1.836970e-16 1 -1 -1.836970e-16 782.2984 -183.9596)" class="st29" width="1.1" height="16.2"/>
	
		<rect x="482.6" y="287.3" transform="matrix(-1.836970e-16 1 -1 -1.836970e-16 778.5228 -187.7352)" class="st29" width="1.1" height="16.2"/>
	
		<rect x="482.6" y="283.5" transform="matrix(-1.836970e-16 1 -1 -1.836970e-16 774.7472 -191.5108)" class="st29" width="1.1" height="16.2"/>
</g>
<g>
	<path class="st24" d="M550.3,291.6h-29.6c-0.9,0-1.7-0.8-1.7-1.7c0-6,4.9-11,11-11h11c6.1,0,11,4.9,11,11
		C552,290.8,551.2,291.6,550.3,291.6z"/>
	<path class="st25" d="M545.1,291.6h-1.6c0.9,0,1.7-0.8,1.7-1.7c0-6-4.9-11-11-11h1.6c6.1,0,11,4.9,11,11
		C546.8,290.8,546,291.6,545.1,291.6z"/>
	<path class="st26" d="M543.5,291.6h-22.7c-0.9,0-1.7-0.8-1.7-1.7c0-6,4.9-11,11-11h4.2c6.1,0,11,4.9,11,11
		C545.2,290.8,544.4,291.6,543.5,291.6z"/>
	
		<rect x="500.1" y="318.8" transform="matrix(-1.836970e-16 1 -1 -1.836970e-16 862.4514 -208.5876)" class="st27" width="70.8" height="16.2"/>
	
		<rect x="499.5" y="320.4" transform="matrix(-1.836970e-16 1 -1 -1.836970e-16 861.8598 -207.996)" class="st28" width="70.8" height="13"/>
	
		<rect x="499.5" y="320.4" transform="matrix(-1.836970e-16 1 -1 -1.836970e-16 861.8598 -207.996)" class="st28" width="70.8" height="13"/>
	
		<rect x="505.1" y="326" transform="matrix(-1.836970e-16 1 -1 -1.836970e-16 867.3956 -213.5318)" class="st25" width="70.8" height="1.9"/>
	
		<rect x="535" y="351.5" transform="matrix(-1.836970e-16 1 -1 -1.836970e-16 895.0975 -175.9415)" class="st29" width="1.1" height="16.2"/>
	
		<rect x="535" y="347.7" transform="matrix(-1.836970e-16 1 -1 -1.836970e-16 891.3219 -179.717)" class="st29" width="1.1" height="16.2"/>
	
		<rect x="535" y="343.9" transform="matrix(-1.836970e-16 1 -1 -1.836970e-16 887.5463 -183.4926)" class="st29" width="1.1" height="16.2"/>
	
		<rect x="535" y="340.1" transform="matrix(-1.836970e-16 1 -1 -1.836970e-16 883.7708 -187.2682)" class="st29" width="1.1" height="16.2"/>
	
		<rect x="535" y="336.4" transform="matrix(-1.836970e-16 1 -1 -1.836970e-16 879.9953 -191.0436)" class="st29" width="1.1" height="16.2"/>
	
		<rect x="535" y="332.6" transform="matrix(-1.836970e-16 1 -1 -1.836970e-16 876.2197 -194.8192)" class="st29" width="1.1" height="16.2"/>
	
		<rect x="535" y="328.8" transform="matrix(-1.836970e-16 1 -1 -1.836970e-16 872.4442 -198.5948)" class="st29" width="1.1" height="16.2"/>
	
		<rect x="535" y="325" transform="matrix(-1.836970e-16 1 -1 -1.836970e-16 868.6686 -202.3704)" class="st29" width="1.1" height="16.2"/>
	
		<rect x="535" y="321.3" transform="matrix(-1.836970e-16 1 -1 -1.836970e-16 864.8932 -206.1458)" class="st29" width="1.1" height="16.2"/>
	
		<rect x="535" y="317.5" transform="matrix(-1.836970e-16 1 -1 -1.836970e-16 861.1176 -209.9214)" class="st29" width="1.1" height="16.2"/>
	
		<rect x="535" y="313.7" transform="matrix(-1.836970e-16 1 -1 -1.836970e-16 857.342 -213.6969)" class="st29" width="1.1" height="16.2"/>
	
		<rect x="535" y="309.9" transform="matrix(-1.836970e-16 1 -1 -1.836970e-16 853.5666 -217.4724)" class="st29" width="1.1" height="16.2"/>
	
		<rect x="535" y="306.2" transform="matrix(-1.836970e-16 1 -1 -1.836970e-16 849.791 -221.2479)" class="st29" width="1.1" height="16.2"/>
	
		<rect x="535" y="302.4" transform="matrix(-1.836970e-16 1 -1 -1.836970e-16 846.0154 -225.0235)" class="st29" width="1.1" height="16.2"/>
	
		<rect x="535" y="298.6" transform="matrix(-1.836970e-16 1 -1 -1.836970e-16 842.2399 -228.7991)" class="st29" width="1.1" height="16.2"/>
	
		<rect x="535" y="294.8" transform="matrix(-1.836970e-16 1 -1 -1.836970e-16 838.4642 -232.5747)" class="st29" width="1.1" height="16.2"/>
	
		<rect x="535" y="291.1" transform="matrix(-1.836970e-16 1 -1 -1.836970e-16 834.6888 -236.3501)" class="st29" width="1.1" height="16.2"/>
	
		<rect x="535" y="287.3" transform="matrix(-1.836970e-16 1 -1 -1.836970e-16 830.9133 -240.1257)" class="st29" width="1.1" height="16.2"/>
	
		<rect x="535" y="283.5" transform="matrix(-1.836970e-16 1 -1 -1.836970e-16 827.1377 -243.9013)" class="st29" width="1.1" height="16.2"/>
</g>
<g>
	<path class="st24" d="M497.9,468.3h-29.6c-0.9,0-1.7-0.8-1.7-1.7c0-6,4.9-11,11-11h11c6.1,0,11,4.9,11,11
		C499.6,467.6,498.9,468.3,497.9,468.3z"/>
	<path class="st25" d="M492.7,468.3h-1.6c0.9,0,1.7-0.8,1.7-1.7c0-6-4.9-11-11-11h1.6c6.1,0,11,4.9,11,11
		C494.4,467.6,493.6,468.3,492.7,468.3z"/>
	<path class="st26" d="M491.1,468.3h-22.7c-0.9,0-1.7-0.8-1.7-1.7c0-6,4.9-11,11-11h4.2c6.1,0,11,4.9,11,11
		C492.8,467.6,492,468.3,491.1,468.3z"/>
	
		<rect x="447.7" y="495.6" transform="matrix(-1.836970e-16 1 -1 -1.836970e-16 986.8477 20.5897)" class="st27" width="70.8" height="16.2"/>
	
		<rect x="447.2" y="497.2" transform="matrix(-1.836970e-16 1 -1 -1.836970e-16 986.2562 21.1813)" class="st28" width="70.8" height="13"/>
	
		<rect x="447.2" y="497.2" transform="matrix(-1.836970e-16 1 -1 -1.836970e-16 986.2562 21.1813)" class="st28" width="70.8" height="13"/>
	
		<rect x="452.7" y="502.7" transform="matrix(-1.836970e-16 1 -1 -1.836970e-16 991.7918 15.6457)" class="st25" width="70.8" height="1.9"/>
	
		<rect x="482.6" y="528.3" transform="matrix(-1.836970e-16 1 -1 -1.836970e-16 1019.4938 53.2359)" class="st29" width="1.1" height="16.2"/>
	
		<rect x="482.6" y="524.5" transform="matrix(-1.836970e-16 1 -1 -1.836970e-16 1015.7183 49.4603)" class="st29" width="1.1" height="16.2"/>
	
		<rect x="482.6" y="520.7" transform="matrix(-1.836970e-16 1 -1 -1.836970e-16 1011.9427 45.6847)" class="st29" width="1.1" height="16.2"/>
	
		<rect x="482.6" y="516.9" transform="matrix(-1.836970e-16 1 -1 -1.836970e-16 1008.1671 41.9091)" class="st29" width="1.1" height="16.2"/>
	
		<rect x="482.6" y="513.1" transform="matrix(-1.836970e-16 1 -1 -1.836970e-16 1004.3915 38.1335)" class="st29" width="1.1" height="16.2"/>
	
		<rect x="482.6" y="509.4" transform="matrix(-1.836970e-16 1 -1 -1.836970e-16 1000.6161 34.3581)" class="st29" width="1.1" height="16.2"/>
	
		<rect x="482.6" y="505.6" transform="matrix(-1.836970e-16 1 -1 -1.836970e-16 996.8405 30.5825)" class="st29" width="1.1" height="16.2"/>
	
		<rect x="482.6" y="501.8" transform="matrix(-1.836970e-16 1 -1 -1.836970e-16 993.0649 26.8069)" class="st29" width="1.1" height="16.2"/>
	
		<rect x="482.6" y="498" transform="matrix(-1.836970e-16 1 -1 -1.836970e-16 989.2896 23.0315)" class="st29" width="1.1" height="16.2"/>
	
		<rect x="482.6" y="494.3" transform="matrix(-1.836970e-16 1 -1 -1.836970e-16 985.514 19.2559)" class="st29" width="1.1" height="16.2"/>
	
		<rect x="482.6" y="490.5" transform="matrix(-1.836970e-16 1 -1 -1.836970e-16 981.7384 15.4804)" class="st29" width="1.1" height="16.2"/>
	
		<rect x="482.6" y="486.7" transform="matrix(-1.836970e-16 1 -1 -1.836970e-16 977.9628 11.7048)" class="st29" width="1.1" height="16.2"/>
	
		<rect x="482.6" y="482.9" transform="matrix(-1.836970e-16 1 -1 -1.836970e-16 974.1874 7.9294)" class="st29" width="1.1" height="16.2"/>
	
		<rect x="482.6" y="479.2" transform="matrix(-1.836970e-16 1 -1 -1.836970e-16 970.4118 4.1538)" class="st29" width="1.1" height="16.2"/>
	
		<rect x="482.6" y="475.4" transform="matrix(-1.836970e-16 1 -1 -1.836970e-16 966.6362 0.3782)" class="st29" width="1.1" height="16.2"/>
	
		<rect x="482.6" y="471.6" transform="matrix(-1.836970e-16 1 -1 -1.836970e-16 962.8607 -3.3974)" class="st29" width="1.1" height="16.2"/>
	
		<rect x="482.6" y="467.8" transform="matrix(-1.836970e-16 1 -1 -1.836970e-16 959.0852 -7.1728)" class="st29" width="1.1" height="16.2"/>
	
		<rect x="482.6" y="464.1" transform="matrix(-1.836970e-16 1 -1 -1.836970e-16 955.3096 -10.9484)" class="st29" width="1.1" height="16.2"/>
	
		<rect x="482.6" y="460.3" transform="matrix(-1.836970e-16 1 -1 -1.836970e-16 951.5341 -14.724)" class="st29" width="1.1" height="16.2"/>
</g>
<g>
	<path class="st24" d="M550.3,468.3h-29.6c-0.9,0-1.7-0.8-1.7-1.7c0-6,4.9-11,11-11h11c6.1,0,11,4.9,11,11
		C552,467.6,551.2,468.3,550.3,468.3z"/>
	<path class="st25" d="M545.1,468.3h-1.6c0.9,0,1.7-0.8,1.7-1.7c0-6-4.9-11-11-11h1.6c6.1,0,11,4.9,11,11
		C546.8,467.6,546,468.3,545.1,468.3z"/>
	<path class="st26" d="M543.5,468.3h-22.7c-0.9,0-1.7-0.8-1.7-1.7c0-6,4.9-11,11-11h4.2c6.1,0,11,4.9,11,11
		C545.2,467.6,544.4,468.3,543.5,468.3z"/>
	
		<rect x="500.1" y="495.6" transform="matrix(-1.836970e-16 1 -1 -1.836970e-16 1039.2382 -31.8007)" class="st27" width="70.8" height="16.2"/>
	
		<rect x="499.5" y="497.2" transform="matrix(-1.836970e-16 1 -1 -1.836970e-16 1038.6466 -31.2092)" class="st28" width="70.8" height="13"/>
	
		<rect x="499.5" y="497.2" transform="matrix(-1.836970e-16 1 -1 -1.836970e-16 1038.6466 -31.2092)" class="st28" width="70.8" height="13"/>
	
		<rect x="505.1" y="502.7" transform="matrix(-1.836970e-16 1 -1 -1.836970e-16 1044.1824 -36.745)" class="st25" width="70.8" height="1.9"/>
	
		<rect x="535" y="528.3" transform="matrix(-1.836970e-16 1 -1 -1.836970e-16 1071.8843 0.8454)" class="st29" width="1.1" height="16.2"/>
	
		<rect x="535" y="524.5" transform="matrix(-1.836970e-16 1 -1 -1.836970e-16 1068.1088 -2.9302)" class="st29" width="1.1" height="16.2"/>
	
		<rect x="535" y="520.7" transform="matrix(-1.836970e-16 1 -1 -1.836970e-16 1064.3331 -6.7058)" class="st29" width="1.1" height="16.2"/>
	
		<rect x="535" y="516.9" transform="matrix(-1.836970e-16 1 -1 -1.836970e-16 1060.5576 -10.4814)" class="st29" width="1.1" height="16.2"/>
	
		<rect x="535" y="513.1" transform="matrix(-1.836970e-16 1 -1 -1.836970e-16 1056.782 -14.2569)" class="st29" width="1.1" height="16.2"/>
	
		<rect x="535" y="509.4" transform="matrix(-1.836970e-16 1 -1 -1.836970e-16 1053.0066 -18.0324)" class="st29" width="1.1" height="16.2"/>
	
		<rect x="535" y="505.6" transform="matrix(-1.836970e-16 1 -1 -1.836970e-16 1049.231 -21.8079)" class="st29" width="1.1" height="16.2"/>
	
		<rect x="535" y="501.8" transform="matrix(-1.836970e-16 1 -1 -1.836970e-16 1045.4554 -25.5835)" class="st29" width="1.1" height="16.2"/>
	
		<rect x="535" y="498" transform="matrix(-1.836970e-16 1 -1 -1.836970e-16 1041.6801 -29.3589)" class="st29" width="1.1" height="16.2"/>
	
		<rect x="535" y="494.3" transform="matrix(-1.836970e-16 1 -1 -1.836970e-16 1037.9044 -33.1345)" class="st29" width="1.1" height="16.2"/>
	
		<rect x="535" y="490.5" transform="matrix(-1.836970e-16 1 -1 -1.836970e-16 1034.1288 -36.9101)" class="st29" width="1.1" height="16.2"/>
	
		<rect x="535" y="486.7" transform="matrix(-1.836970e-16 1 -1 -1.836970e-16 1030.3533 -40.6857)" class="st29" width="1.1" height="16.2"/>
	
		<rect x="535" y="482.9" transform="matrix(-1.836970e-16 1 -1 -1.836970e-16 1026.5779 -44.4611)" class="st29" width="1.1" height="16.2"/>
	
		<rect x="535" y="479.2" transform="matrix(-1.836970e-16 1 -1 -1.836970e-16 1022.8022 -48.2367)" class="st29" width="1.1" height="16.2"/>
	
		<rect x="535" y="475.4" transform="matrix(-1.836970e-16 1 -1 -1.836970e-16 1019.0267 -52.0123)" class="st29" width="1.1" height="16.2"/>
	
		<rect x="535" y="471.6" transform="matrix(-1.836970e-16 1 -1 -1.836970e-16 1015.2511 -55.7878)" class="st29" width="1.1" height="16.2"/>
	
		<rect x="535" y="467.8" transform="matrix(-1.836970e-16 1 -1 -1.836970e-16 1011.4757 -59.5633)" class="st29" width="1.1" height="16.2"/>
	
		<rect x="535" y="464.1" transform="matrix(-1.836970e-16 1 -1 -1.836970e-16 1007.7001 -63.3388)" class="st29" width="1.1" height="16.2"/>
	
		<rect x="535" y="460.3" transform="matrix(-1.836970e-16 1 -1 -1.836970e-16 1003.9245 -67.1144)" class="st29" width="1.1" height="16.2"/>
</g>
<g>
	<polyline class="st30" points="123.5,559.6 123.5,318.8 123.5,564 	"/>
	<polyline class="st30" points="138.9,559.6 138.9,318.8 138.9,564 	"/>
	<polyline class="st31" points="123.5,542.3 123.5,301.5 123.5,546.7 	"/>
	<polyline class="st32" points="138.9,542.3 138.9,301.5 138.9,546.7 	"/>
	<rect x="113.8" y="278.4" class="st33" width="32.8" height="34.6"/>
	<polygon class="st33" points="153.7,320 106.8,320 116.3,308.3 144.1,308.3 	"/>
	<g>
		<rect x="119.1" y="285.2" class="st34" width="9.2" height="22.2"/>
		<rect x="120.9" y="293" class="st33" width="5.5" height="14.4"/>
		<rect x="120.7" y="281.5" class="st34" width="6.1" height="9.8"/>
	</g>
	<g>
		<rect x="135.5" y="285.2" class="st34" width="9.2" height="22.2"/>
		<rect x="137.4" y="293" class="st33" width="5.5" height="14.4"/>
		<rect x="137.1" y="281.5" class="st34" width="6.1" height="9.8"/>
	</g>
</g>
<g>
	<polyline class="st30" points="61.7,559.6 61.7,318.8 61.7,564 	"/>
	<polyline class="st30" points="77,559.6 77,318.8 77,564 	"/>
	<polyline class="st31" points="61.7,542.3 61.7,301.5 61.7,546.7 	"/>
	<polyline class="st32" points="77,542.3 77,301.5 77,546.7 	"/>
	<rect x="52" y="278.4" class="st33" width="32.8" height="34.6"/>
	<polygon class="st33" points="91.8,320 45,320 54.5,308.3 82.3,308.3 	"/>
	<g>
		<rect x="57.2" y="285.2" class="st34" width="9.2" height="22.2"/>
		<rect x="59.1" y="293" class="st33" width="5.5" height="14.4"/>
		<rect x="58.8" y="281.5" class="st34" width="6.1" height="9.8"/>
	</g>
	<g>
		<rect x="73.7" y="285.2" class="st34" width="9.2" height="22.2"/>
		<rect x="75.6" y="293" class="st33" width="5.5" height="14.4"/>
		<rect x="75.3" y="281.5" class="st34" width="6.1" height="9.8"/>
	</g>
</g>
</svg>
